<svg width="195" height="41" viewBox="0 0 195 41" fill="none" xmlns="http://www.w3.org/2000/svg">
    <g clip-path="url(#clip0)">
        <path fill-rule="evenodd" clip-rule="evenodd" d="M31.0542 10.8869C32.2289 10.8869 33.1812 11.8382 33.1812 13.0117V24.6504C33.1812 29.189 30.6842 33.3603 26.6818 35.5078L17.597 40.3822C16.5621 40.9374 15.2726 40.5495 14.7168 39.5156C14.161 38.4818 14.5493 37.1936 15.5842 36.6383L24.6689 31.7638C27.2912 30.3569 28.9272 27.624 28.9272 24.6504V13.0117C28.9272 11.8382 29.8795 10.8869 31.0542 10.8869Z" fill="#FF1037"/>
        <path fill-rule="evenodd" clip-rule="evenodd" d="M31.0541 1.53748C32.2288 1.53748 33.1811 2.48882 33.1811 3.66235V13.0555C33.1811 17.3978 30.8937 21.4197 27.1598 23.6425L17.6794 29.2863C16.6703 29.887 15.3647 29.5568 14.7634 28.5487C14.162 27.5406 14.4925 26.2363 15.5017 25.6356L24.9821 19.9918C27.4284 18.5354 28.9271 15.9004 28.9271 13.0555V3.66235C28.9271 2.48882 29.8794 1.53748 31.0541 1.53748Z" fill="#00AFEC"/>
        <path fill-rule="evenodd" clip-rule="evenodd" d="M4.254 4.93725H31.0542C32.2289 4.93725 33.1812 3.98591 33.1812 2.81237C33.1812 1.63884 32.2289 0.6875 31.0542 0.6875H3.8286C1.71412 0.6875 0 2.39991 0 4.51227V24.6504C0 29.189 2.49702 33.3603 6.49943 35.5078L15.5842 40.3822C16.6191 40.9374 17.9086 40.5495 18.4644 39.5157C19.0202 38.4818 18.6319 37.1936 17.597 36.6383L8.51226 31.7639C5.88998 30.3569 4.254 27.624 4.254 24.6504V4.93725Z" fill="#152438"/>
        <path fill-rule="evenodd" clip-rule="evenodd" d="M31.0542 0.6875C32.2289 0.6875 33.1812 1.63884 33.1812 2.81237C33.1812 6.38014 31.2244 8.95037 28.9144 10.6907C26.6387 12.4053 23.8468 13.4645 21.6143 14.1087C19.8633 14.614 18.7176 16.0768 18.7176 17.5467V38.5103C18.7176 39.6838 17.7653 40.6351 16.5906 40.6351C15.4159 40.6351 14.4636 39.6838 14.4636 38.5103V17.5467C14.4636 13.8446 17.2109 10.956 20.4337 10.0259C22.4532 9.44317 24.6765 8.56092 26.3529 7.29781C27.995 6.06056 28.9272 4.61679 28.9272 2.81237C28.9272 1.63884 29.8795 0.6875 31.0542 0.6875Z" fill="#152438"/>
        <path fill-rule="evenodd" clip-rule="evenodd" d="M53.2817 7.34844V33.08H46.4163V1.34854H61.5265V7.34844H53.2817Z" fill="#152438"/>
        <path fill-rule="evenodd" clip-rule="evenodd" d="M100.092 16.4102C97.783 21.0183 93.1642 23.6471 89.4874 24.8842V33.08H82.6807V1.34854H91.5841C96.3548 1.34854 100.001 2.33822 101.46 6.82268C102.007 8.52368 102.189 12.204 100.092 16.4102ZM94.3492 8.15255C93.8327 7.31752 93.0426 6.91546 92.0095 6.88453H89.3962V18.3895C91.5233 17.6472 93.2553 16.1318 94.1365 14.2452C95.1697 12.0494 95.1697 9.4515 94.3492 8.12163V8.15255Z" fill="#152438"/>
        <path fill-rule="evenodd" clip-rule="evenodd" d="M164.294 26.245C162.945 31.7501 159.806 33.08 154.251 33.08H151.615L150.862 27.6368H153.279C155.318 27.6368 156.637 25.9667 155.978 24.0492L154.126 17.4308L149.669 1.34854H156.26L160.057 16.472L163.259 1.34854H170.32L164.294 26.245Z" fill="#152438"/>
        <path fill-rule="evenodd" clip-rule="evenodd" d="M114.981 7.11014H111.251L111.221 7.75373C110.697 13.975 110.111 21.269 108.57 27.337H114.981V7.11014ZM123.982 36.102H117.293V32.8228H105.487L103.946 36.102H98.7983V27.337H101.696C102.004 25.9886 102.374 24.6095 102.621 23.2304C103.33 19.9818 103.854 16.7026 104.223 13.3927C104.624 9.37801 105.025 5.39392 105.087 1.34854H121.639V27.337H123.951V36.102H123.982Z" fill="#152438"/>
        <path fill-rule="evenodd" clip-rule="evenodd" d="M184.164 28.5027H183.201H182.539L179.077 17.771V33.08H172.335V1.34854H178.957L183.682 16.5339L188.408 1.34854H195V33.08H188.258V17.771L184.796 28.5027H184.164Z" fill="#152438"/>
        <path fill-rule="evenodd" clip-rule="evenodd" d="M147.655 33.08H140.886V14.5854L140.667 15.204L133.773 33.08H127.004V1.34854H133.742V19.2245L133.992 18.606L141.01 1.34854H147.655V33.08Z" fill="#152438"/>
        <path fill-rule="evenodd" clip-rule="evenodd" d="M74.5252 33.08L73.3651 27.6368L73.1143 26.276H66.7813L66.5305 27.6368L65.3391 33.08H58.5044L65.4645 1.34854H74.7133L81.6734 33.08H74.5565H74.5252ZM72.2051 21.173L69.9478 8.46183L67.6905 21.173H72.2051Z" fill="#152438"/>
    </g>
    <defs>
        <clipPath id="clip0">
            <rect y="0.6875" width="195" height="39.948" fill="white"/>
        </clipPath>
    </defs>
</svg>
