<svg width="100" height="100" viewBox="0 0 100 100" fill="none" xmlns="http://www.w3.org/2000/svg">
<g clip-path="url(#clip0)">
<path d="M91.2011 41.2584C92.8191 41.2584 94.1308 39.9467 94.1308 38.3287V14.751C94.1308 6.6459 87.5451 0.000195313 79.3722 0.000195313C77.2994 0.000195313 22.576 0 20.5146 0C12.4392 0 5.86951 6.56992 5.86951 14.6453V97.0176C5.86951 99.6412 9.09294 100.947 10.9152 99.0437L14.6633 95.1297L18.6224 99.0891C19.7666 100.233 21.6213 100.233 22.7654 99.0895L26.5172 95.3389L30.3074 99.0977C31.4494 100.23 33.291 100.23 34.4332 99.098L38.2832 95.2809L42.1347 99.0982C43.276 100.23 45.1156 100.23 46.2578 99.1L51.192 94.2174C55.7058 97.8336 61.4287 100 67.649 100C82.1879 100 94.0162 88.1717 94.0162 73.6328C94.0162 60.0531 83.6968 48.8396 70.4883 47.4189V41.2584H91.2011ZM88.2715 14.751V35.399H70.4883V14.751C70.4883 9.84805 74.4769 5.85938 79.3799 5.85938C84.2826 5.85938 88.2715 9.84805 88.2715 14.751ZM44.1988 92.8943L40.3453 89.075C39.2031 87.9428 37.3623 87.9434 36.2203 89.0752L32.3711 92.8918L28.5722 89.1244C27.4267 87.9885 25.5787 87.992 24.4381 89.1326L20.6949 92.8746L16.6896 88.8695C15.4926 87.6725 13.6072 87.7607 12.5019 88.9148L11.7289 89.7221V14.6453C11.7289 9.80078 15.6701 5.85938 20.5146 5.85938H67.6193C65.7439 8.33359 64.6289 11.4141 64.6289 14.751V47.4397C44.0668 49.7953 34.1795 73.9787 47.0506 90.0727L44.1988 92.8943ZM88.1568 73.6328C88.1568 84.9408 78.957 94.1406 67.649 94.1406C56.341 94.1406 47.1412 84.9408 47.1412 73.6328C47.1412 62.3248 56.341 53.125 67.649 53.125C78.957 53.125 88.1568 62.3248 88.1568 73.6328Z" fill="#BBBFCB"/>
<path d="M40.8553 37.1367C40.8553 37.689 40.4076 38.1367 39.8553 38.1367H35.7421C35.1898 38.1367 34.7421 38.5844 34.7421 39.1367V40.4375C34.7421 40.9898 34.2944 41.4375 33.7421 41.4375H28.8866C28.3343 41.4375 27.8866 40.9898 27.8866 40.4375V39.1367C27.8866 38.5844 27.4389 38.1367 26.8866 38.1367H24.9999C24.4476 38.1367 23.9999 37.689 23.9999 37.1367V33.8633C23.9999 33.311 24.4476 32.8633 24.9999 32.8633H27.3495C27.6461 32.8633 27.8866 32.6228 27.8866 32.3262C27.8866 32.0295 27.6461 31.7891 27.3495 31.7891H24.9999C24.4476 31.7891 23.9999 31.3413 23.9999 30.7891V27.4961C23.9999 26.9438 24.4476 26.4961 24.9999 26.4961H26.8866C27.4389 26.4961 27.8866 26.0484 27.8866 25.4961V14C27.8866 13.4477 28.3343 13 28.8866 13H39.1757C41.3501 13 43.2772 13.3971 44.9569 14.1914C46.6496 14.9857 47.9582 16.1185 48.8827 17.5898C49.8072 19.0482 50.2694 20.7018 50.2694 22.5508C50.2694 25.4023 49.2538 27.6549 47.2225 29.3086C45.2043 30.9622 42.4764 31.7891 39.0389 31.7891H35.2792C34.9825 31.7891 34.7421 32.0295 34.7421 32.3262C34.7421 32.6228 34.9825 32.8633 35.2792 32.8633H39.8553C40.4076 32.8633 40.8553 33.311 40.8553 33.8633V37.1367ZM34.7421 25.4961C34.7421 26.0484 35.1898 26.4961 35.7421 26.4961H38.9413C41.858 26.4961 43.3163 25.194 43.3163 22.5898C43.3163 21.3138 42.9517 20.2852 42.2225 19.5039C41.4934 18.7227 40.4973 18.3255 39.2343 18.3125H35.7421C35.1898 18.3125 34.7421 18.7602 34.7421 19.3125V25.4961Z" fill="#BBBFCB"/>
<path d="M65.6959 65.5004V71.4844H59.7658C58.1478 71.4844 56.8361 72.7961 56.8361 74.414C56.8361 76.032 58.1478 77.3437 59.7658 77.3437H68.6256C70.2435 77.3437 71.5553 76.032 71.5553 74.414V65.5004C71.5553 63.8824 70.2435 62.5707 68.6256 62.5707C67.0076 62.5707 65.6959 63.8824 65.6959 65.5004Z" fill="#BBBFCB"/>
<path d="M35.3513 50.0156H20.7029C19.0849 50.0156 17.7732 51.3273 17.7732 52.9453C17.7732 54.5633 19.0849 55.875 20.7029 55.875H35.3513C36.9693 55.875 38.281 54.5633 38.281 52.9453C38.281 51.3273 36.9693 50.0156 35.3513 50.0156Z" fill="#BBBFCB"/>
<path d="M35.3516 61.7539H20.6934C19.0754 61.7539 17.7637 63.0656 17.7637 64.6836C17.7637 66.3016 19.0754 67.6133 20.6934 67.6133H35.3516C36.9695 67.6133 38.2813 66.3016 38.2813 64.6836C38.2813 63.0656 36.9695 61.7539 35.3516 61.7539Z" fill="#BBBFCB"/>
<path d="M35.3514 73.4531H20.6835C19.0655 73.4531 17.7538 74.7648 17.7538 76.3828C17.7538 78.0008 19.0655 79.3125 20.6835 79.3125H35.3514C36.9694 79.3125 38.2811 78.0008 38.2811 76.3828C38.2811 74.7648 36.9694 73.4531 35.3514 73.4531Z" fill="#BBBFCB"/>
</g>
<defs>
<clipPath id="clip0">
<rect width="100" height="100" fill="white"/>
</clipPath>
</defs>
</svg>
