<svg width="22" height="22" viewBox="0 0 22 22" fill="none" xmlns="http://www.w3.org/2000/svg">
<g clip-path="url(#clip0)">
<path d="M19.203 12.8807C18.951 9.59965 17.4234 7.54355 16.0757 5.72915C14.8278 4.04942 13.75 2.59888 13.75 0.459118C13.75 0.287243 13.6538 0.13015 13.5011 0.0513879C13.348 -0.0278465 13.1641 -0.0148699 13.0249 0.0862785C11.0009 1.53458 9.31214 3.9756 8.72223 6.30467C8.31269 7.92619 8.25851 9.74909 8.2509 10.953C6.38176 10.5538 5.95835 7.75792 5.95388 7.72745C5.93282 7.58244 5.84422 7.45624 5.71532 7.38731C5.58508 7.31929 5.43198 7.31435 5.29994 7.37971C5.20193 7.42715 2.89412 8.59976 2.75984 13.2817C2.75043 13.4374 2.75 13.5937 2.75 13.7499C2.75 18.2984 6.45111 21.9993 11 21.9993C11.0063 21.9997 11.013 22.0006 11.0183 21.9993C11.0202 21.9993 11.0219 21.9993 11.0241 21.9993C15.5619 21.9863 19.25 18.2904 19.25 13.7499C19.25 13.5211 19.203 12.8807 19.203 12.8807ZM11 21.0827C9.48355 21.0827 8.25 19.7687 8.25 18.1534C8.25 18.0984 8.24957 18.0429 8.25357 17.9749C8.27191 17.2937 8.40129 16.8287 8.54318 16.5194C8.80907 17.0905 9.28439 17.6155 10.0565 17.6155C10.3098 17.6155 10.5148 17.4105 10.5148 17.1572C10.5148 16.5046 10.5283 15.7518 10.6908 15.0724C10.8353 14.47 11.1809 13.8291 11.6186 13.3153C11.8133 13.9822 12.1929 14.5219 12.5635 15.0487C13.0939 15.8024 13.6422 16.5816 13.7384 17.9104C13.7442 17.9892 13.7501 18.0684 13.7501 18.1534C13.75 19.7686 12.5165 21.0827 11 21.0827Z" fill="#FF1037"/>
</g>
<defs>
<clipPath id="clip0">
<rect width="22" height="22" fill="white"/>
</clipPath>
</defs>
</svg>
