<svg width="91" height="50" viewBox="0 0 91 50" fill="none" xmlns="http://www.w3.org/2000/svg">
<path d="M16.8954 31.9444H12.6541V14.171H16.8954V31.9444ZM25.3467 25.9142V31.9444H21.0932V14.171H28.1339C29.4831 14.171 30.6748 14.4233 31.7089 14.9278C32.751 15.4243 33.5548 16.1364 34.1204 17.064C34.6939 17.9836 34.9807 19.0294 34.9807 20.2012C34.9807 21.9347 34.3628 23.3222 33.1267 24.3639C31.8987 25.3973 30.2101 25.9142 28.0611 25.9142H25.3467ZM25.3467 22.6061H28.1339C28.9579 22.6061 29.584 22.3986 30.0123 21.9835C30.4485 21.5685 30.6666 20.9825 30.6666 20.2257C30.6666 19.3955 30.4445 18.7323 30.0001 18.236C29.5557 17.7396 28.9499 17.4872 28.1823 17.4792H25.3467V22.6061Z" fill="#152438"/>
<path d="M50.311 21.3365H52.2377C53.7646 21.3365 54.5282 20.5838 54.5282 19.0782C54.5282 18.4924 54.3463 18.0163 53.9827 17.65C53.6193 17.2757 53.1062 17.0885 52.4437 17.0885C51.9025 17.0885 51.4299 17.2472 51.0259 17.5646C50.6301 17.882 50.4321 18.2767 50.4321 18.7486H46.3482C46.3482 17.8128 46.6068 16.9786 47.1238 16.2463C47.6408 15.5138 48.3559 14.9442 49.2688 14.5372C50.1898 14.1222 51.1996 13.9147 52.2984 13.9147C54.2615 13.9147 55.8045 14.3664 56.9275 15.2696C58.0504 16.1729 58.612 17.414 58.612 18.9928C58.612 19.7578 58.3776 20.4821 57.9091 21.1657C57.4486 21.8411 56.7741 22.3904 55.8853 22.8136C56.8225 23.1554 57.5576 23.6763 58.0908 24.3761C58.6241 25.0678 58.8907 25.9264 58.8907 26.9518C58.8907 28.5388 58.2848 29.8082 57.073 30.7604C55.861 31.7125 54.2696 32.1886 52.2984 32.1886C51.1431 32.1886 50.0686 31.9689 49.0749 31.5295C48.0892 31.0818 47.3419 30.4674 46.833 29.6861C46.3241 28.8968 46.0696 28.0015 46.0696 27.0006H50.1777C50.1777 27.5458 50.3958 28.0179 50.832 28.4167C51.2683 28.8154 51.8055 29.0147 52.4437 29.0147C53.1628 29.0147 53.7363 28.8154 54.1646 28.4167C54.5927 28.0097 54.8068 27.4929 54.8068 26.8664C54.8068 25.9711 54.5847 25.3364 54.1403 24.9621C53.6959 24.5877 53.082 24.4006 52.2984 24.4006H50.311V21.3365ZM72.056 13.9147V17.1496H71.8742C70.3473 17.1496 69.0911 17.5199 68.1054 18.2604C67.1278 18.9928 66.526 20.0142 66.2997 21.3243C67.2207 20.4129 68.3842 19.9571 69.7898 19.9571C71.3167 19.9571 72.5327 20.5186 73.4374 21.6417C74.3423 22.7647 74.7947 24.2378 74.7947 26.0607C74.7947 27.1918 74.528 28.2295 73.9949 29.1735C73.4697 30.1175 72.7305 30.8581 71.7772 31.3952C70.8321 31.9242 69.7817 32.1886 68.6264 32.1886C67.3742 32.1886 66.2553 31.9038 65.2698 31.334C64.2841 30.7563 63.5166 29.9343 62.9673 28.8683C62.4179 27.8022 62.1351 26.5733 62.1189 25.1818V23.5338C62.1189 21.7028 62.5068 20.0589 63.2824 18.6022C64.0659 17.1374 65.1808 15.9899 66.627 15.1597C68.0731 14.3297 69.6768 13.9147 71.4379 13.9147H72.056ZM68.372 23.1065C67.8307 23.1065 67.3783 23.2327 67.0147 23.485C66.6512 23.7372 66.3805 24.0465 66.2028 24.4127V25.6456C66.2028 27.8917 66.9744 29.0147 68.5174 29.0147C69.1395 29.0147 69.6565 28.734 70.0685 28.1725C70.4886 27.611 70.6987 26.907 70.6987 26.0607C70.6987 25.1899 70.4846 24.482 70.0565 23.9367C69.6364 23.3832 69.0748 23.1065 68.372 23.1065ZM90.0564 24.6813C90.0564 27.082 89.5192 28.9333 88.4447 30.2354C87.3782 31.5375 85.8716 32.1886 83.9246 32.1886C81.9614 32.1886 80.4426 31.5335 79.3681 30.2232C78.2937 28.9131 77.7563 27.0657 77.7563 24.6813V21.4342C77.7563 19.0335 78.2895 17.1821 79.356 15.88C80.4305 14.5779 81.9452 13.9268 83.9004 13.9268C85.8553 13.9268 87.3702 14.582 88.4447 15.8922C89.5192 17.2024 90.0564 19.0539 90.0564 21.4464V24.6813ZM85.9725 20.9093C85.9725 19.6317 85.8069 18.6795 85.4758 18.0528C85.1444 17.4181 84.6194 17.1007 83.9004 17.1007C83.1974 17.1007 82.6844 17.3936 82.3614 17.9796C82.0463 18.5656 81.8766 19.4527 81.8523 20.6407V25.1818C81.8523 26.5082 82.0179 27.4807 82.3492 28.0992C82.6804 28.7096 83.2056 29.0147 83.9246 29.0147C84.6194 29.0147 85.1323 28.7178 85.4636 28.1236C85.7948 27.5214 85.9645 26.5815 85.9725 25.3039V20.9093Z" fill="#152438"/>
<path fill-rule="evenodd" clip-rule="evenodd" d="M0 22.2222C0 9.94922 9.87686 0 22.0606 0C34.2444 0 44.1212 9.94922 44.1212 22.2222C44.1212 23.7563 42.8866 25 41.3636 25C39.8407 25 38.6061 23.7563 38.6061 22.2222C38.6061 13.0175 31.1984 5.55556 22.0606 5.55556C12.9228 5.55556 5.51515 13.0175 5.51515 22.2222C5.51515 31.427 12.9228 38.8889 22.0606 38.8889C26.3954 38.8889 30.3355 37.2133 33.2874 34.4651C34.3748 33.4526 36.0619 33.4861 37.109 34.5408L47.7483 45.258C48.8252 46.3428 48.8252 48.1016 47.7483 49.1864C46.6714 50.2712 44.9254 50.2712 43.8485 49.1864L34.9706 40.2435C31.3416 42.8853 26.8798 44.4444 22.0606 44.4444C9.87687 44.4444 0 34.4952 0 22.2222Z" fill="url(#paint0_angular)"/>
<defs>
<radialGradient id="paint0_angular" cx="0" cy="0" r="1" gradientUnits="userSpaceOnUse" gradientTransform="translate(24.278 25) rotate(90) scale(25 24.278)">
<stop offset="0.773351" stop-color="#00AFEC"/>
<stop offset="0.847662" stop-color="#FF1037"/>
</radialGradient>
</defs>
</svg>
