<svg width="18" height="18" viewBox="0 0 18 18" fill="none" xmlns="http://www.w3.org/2000/svg">
<g clip-path="url(#clip0)">
<path d="M8.99989 8.80318C11.0012 8.80318 12.6237 6.83254 12.6237 4.40162C12.6237 1.97064 12.091 0 8.99989 0C5.90878 0 5.37598 1.97064 5.37598 4.40162C5.37598 6.83254 6.9985 8.80318 8.99989 8.80318Z" fill="#929FAB"/>
<path d="M2.15549 15.5239C2.15467 15.3757 2.15384 15.4822 2.15549 15.5239V15.5239Z" fill="#929FAB"/>
<path d="M15.8442 15.6395C15.8468 15.5989 15.8451 15.358 15.8442 15.6395V15.6395Z" fill="#929FAB"/>
<path d="M15.8369 15.3461C15.7698 11.1114 15.2167 9.90469 10.9845 9.14087C10.9845 9.14087 10.3888 9.90001 9.0002 9.90001C7.61163 9.90001 7.01577 9.14087 7.01577 9.14087C2.82975 9.89636 2.24305 11.0851 2.16591 15.2085C2.15958 15.5452 2.15665 15.5629 2.15552 15.5238C2.15577 15.5971 2.15608 15.7325 2.15608 15.9687C2.15608 15.9687 3.16367 18 9.0002 18C14.8366 18 15.8443 15.9687 15.8443 15.9687C15.8443 15.817 15.8444 15.7114 15.8446 15.6396C15.8434 15.6638 15.8412 15.617 15.8369 15.3461Z" fill="#929FAB"/>
</g>
<defs>
<clipPath id="clip0">
<rect width="18" height="18" fill="white"/>
</clipPath>
</defs>
</svg>
