<svg width="500" height="399" viewBox="0 0 500 399" fill="none" xmlns="http://www.w3.org/2000/svg">
<g clip-path="url(#clip0)">
<path opacity="0.1" d="M240.717 398.594C354.633 398.594 446.98 392.19 446.98 384.289C446.98 376.388 354.633 369.984 240.717 369.984C126.801 369.984 34.4543 376.388 34.4543 384.289C34.4543 392.19 126.801 398.594 240.717 398.594Z" fill="#454545"/>
<path opacity="0.1" d="M16.3096 45.5397C3.45684 60.5822 0.205326 79.6511 0.0281445 97.9349C-0.0963611 110.828 1.66587 124.812 12.4308 134.32C26.6005 146.83 53.805 149.296 60.8252 165.282C67.0505 179.486 52.5647 193.777 38.6488 203.803C24.7329 213.828 8.75311 226.103 11.3534 241.031C13.0007 250.563 22.0369 258.046 31.0492 264.327C48.1831 276.296 67.4431 286.766 89.155 291.86C128.547 301.091 171.094 291.535 208.005 277.067C230.727 268.162 257.108 257.232 279.672 266.391C285.63 268.808 290.686 272.461 296.179 275.487C312.149 284.234 331.654 287.456 350.636 290.19C378.458 294.211 407.698 297.567 434.505 290.314C461.312 283.061 484.479 261.847 480.375 239.221C476.506 217.907 451.873 204.013 432.245 189.454C425.32 184.317 418.271 177.509 419.995 170.036C421.365 164.109 427.81 159.982 433.557 156.152C463.802 135.881 486.031 107.898 496.25 77.2143C501.077 62.7366 502.82 46.0567 492.05 33.8484C483.364 24.0004 468.476 19.2702 454.316 15.3779C428.04 8.15349 401.109 2.04933 373.473 0.402409C345.838 -1.24452 317.288 1.89613 292.755 12.3187C280.989 17.3217 270.325 23.9094 258.444 28.7257C224.713 42.399 184.967 40.5606 147.347 38.4014C133.905 37.6306 119.855 36.2613 108.185 30.3918C98.129 25.3265 92.3826 21.6975 79.932 21.1326C55.5289 20.0267 30.283 29.1566 16.3096 45.5397Z" fill="#454545"/>
<path d="M198.472 148.587L197.945 149.674L194.531 156.688L158.716 230.211L97.943 379.085L89.2563 379.152L150.063 230.211L191.499 145.135L194.531 146.634L197.945 148.324L198.472 148.587Z" fill="#454545"/>
<path d="M305.096 379.152L297.946 379.085L237.169 230.211L202.298 158.617L197.945 149.674L197.413 148.587L197.945 148.324L202.298 146.169L204.39 145.135L245.204 230.211L305.096 379.152Z" fill="#454545"/>
<path d="M202.302 125.138H194.53V379.152H202.302V125.138Z" fill="#454545"/>
<path d="M197.528 83.2894C194.906 83.292 192.393 84.3344 190.539 86.1879C188.685 88.0414 187.642 90.5545 187.64 93.1758V96.709C187.611 98.0259 187.845 99.3354 188.329 100.56C188.813 101.786 189.537 102.902 190.458 103.843C191.38 104.785 192.48 105.533 193.694 106.044C194.909 106.555 196.213 106.818 197.531 106.818C198.848 106.818 200.152 106.555 201.367 106.044C202.581 105.533 203.682 104.785 204.603 103.843C205.524 102.902 206.248 101.786 206.732 100.56C207.216 99.3354 207.451 98.0259 207.422 96.709V93.1758C207.418 90.5541 206.374 88.0409 204.519 86.1876C202.665 84.3342 200.151 83.292 197.528 83.2894ZM204.946 96.6946C204.946 98.6627 204.164 100.55 202.772 101.942C201.38 103.334 199.492 104.115 197.523 104.115C195.555 104.115 193.667 103.334 192.275 101.942C190.883 100.55 190.101 98.6627 190.101 96.6946V93.1614C190.101 91.1933 190.883 89.3058 192.275 87.9141C193.667 86.5225 195.555 85.7407 197.523 85.7407C199.492 85.7407 201.38 86.5225 202.772 87.9141C204.164 89.3058 204.946 91.1933 204.946 93.1614V96.6946Z" fill="#535461"/>
<path opacity="0.1" d="M245.204 230.211H237.169L202.298 158.617V230.211H194.53V156.688L158.716 230.211H150.063L191.499 145.135L194.53 146.634V125.138H202.298V146.17L204.39 145.135L245.204 230.211Z" fill="black"/>
<path opacity="0.1" d="M207.422 93.53V96.709C207.451 98.0259 207.216 99.3353 206.732 100.56C206.248 101.786 205.524 102.902 204.603 103.843C203.682 104.785 202.581 105.533 201.367 106.044C200.152 106.555 198.848 106.818 197.531 106.818C196.213 106.818 194.909 106.555 193.694 106.044C192.48 105.533 191.38 104.785 190.458 103.843C189.537 102.902 188.813 101.786 188.329 100.56C187.845 99.3353 187.611 98.0259 187.64 96.709V93.53H190.111V96.709C190.111 98.6771 190.893 100.565 192.285 101.956C193.677 103.348 195.564 104.13 197.533 104.13C199.502 104.13 201.39 103.348 202.781 101.956C204.173 100.565 204.955 98.6771 204.955 96.709V93.53H207.422Z" fill="black"/>
<path d="M346.959 94.2386H48.1021V229.152H346.959V94.2386Z" fill="#454545"/>
<path d="M340.954 98.4756H53.4036V221.382H340.954V98.4756Z" fill="white"/>
<g opacity="0.2">
<path opacity="0.2" d="M95.3951 111.838H81.8V118.028H95.3951V111.838Z" fill="#03034A"/>
</g>
<g opacity="0.2">
<path opacity="0.2" d="M95.3951 123.812H81.8V130.002H95.3951V123.812Z" fill="#03034A"/>
</g>
<g opacity="0.2">
<path opacity="0.2" d="M95.3951 135.781H81.8V141.971H95.3951V135.781Z" fill="#03034A"/>
</g>
<g opacity="0.2">
<path opacity="0.2" d="M95.3951 147.749H81.8V153.94H95.3951V147.749Z" fill="#03034A"/>
</g>
<g opacity="0.2">
<path opacity="0.2" d="M95.3951 159.723H81.8V165.913H95.3951V159.723Z" fill="#03034A"/>
</g>
<g opacity="0.2">
<path opacity="0.2" d="M95.3951 171.692H81.8V177.882H95.3951V171.692Z" fill="#03034A"/>
</g>
<g opacity="0.2">
<path opacity="0.2" d="M95.3951 183.661H81.8V189.851H95.3951V183.661Z" fill="#03034A"/>
</g>
<g opacity="0.2">
<path opacity="0.2" d="M95.3951 195.63H81.8V201.82H95.3951V195.63Z" fill="#03034A"/>
</g>
<g opacity="0.2">
<path opacity="0.2" d="M120.991 201.825H107.396V208.015H120.991V201.825Z" fill="#03034A"/>
</g>
<g opacity="0.2">
<path opacity="0.2" d="M144.939 201.825H131.344V208.015H144.939V201.825Z" fill="#03034A"/>
</g>
<g opacity="0.2">
<path opacity="0.2" d="M168.882 201.825H155.287V208.015H168.882V201.825Z" fill="#03034A"/>
</g>
<g opacity="0.2">
<path opacity="0.2" d="M192.83 201.825H179.235V208.015H192.83V201.825Z" fill="#03034A"/>
</g>
<g opacity="0.2">
<path opacity="0.2" d="M216.774 201.825H203.179V208.015H216.774V201.825Z" fill="#03034A"/>
</g>
<g opacity="0.2">
<path opacity="0.2" d="M240.722 201.825H227.127V208.015H240.722V201.825Z" fill="#03034A"/>
</g>
<g opacity="0.2">
<path opacity="0.2" d="M264.665 201.825H251.07V208.015H264.665V201.825Z" fill="#03034A"/>
</g>
<g opacity="0.2">
<path opacity="0.2" d="M288.614 201.825H275.019V208.015H288.614V201.825Z" fill="#03034A"/>
</g>
<g opacity="0.2">
<path opacity="0.2" d="M312.557 201.825H298.962V208.015H312.557V201.825Z" fill="#03034A"/>
</g>
<path d="M120.991 156.831H107.396V195.63H120.991V156.831Z" fill="#454545"/>
<path d="M144.939 138.878H131.344V195.635H144.939V138.878Z" fill="#454545"/>
<path d="M168.882 123.812H155.287V195.635H168.882V123.812Z" fill="#454545"/>
<path d="M192.83 131.62H179.235V195.63H192.83V131.62Z" fill="#454545"/>
<path d="M216.774 118.033H203.179V195.635H216.774V118.033Z" fill="#454545"/>
<g opacity="0.2">
<path opacity="0.2" d="M240.722 147.749H227.127V195.63H240.722V147.749Z" fill="#03034A"/>
</g>
<g opacity="0.2">
<path opacity="0.2" d="M264.665 147.749H251.07V195.63H264.665V147.749Z" fill="#03034A"/>
</g>
<g opacity="0.2">
<path opacity="0.2" d="M288.614 147.749H275.019V195.63H288.614V147.749Z" fill="#03034A"/>
</g>
<g opacity="0.2">
<path opacity="0.2" d="M312.557 147.749H298.962V195.63H312.557V147.749Z" fill="#03034A"/>
</g>
<path d="M297.4 147.644L180.988 154.806V157.075L299.881 152.36L297.4 147.644Z" fill="#535461"/>
<path d="M435.229 194.926C435.229 194.926 441.32 184.911 439.701 169.198C438.083 153.485 432.226 128.053 432.226 128.053C432.226 128.053 434.769 113.805 420.977 111.804C420.977 111.804 412.406 110.21 406.276 106.356C403.997 104.92 402.057 103.182 401.009 101.09C401.009 101.09 400.927 101.324 400.769 101.755C400.634 101.54 400.509 101.318 400.396 101.09C400.396 101.09 400.362 101.176 400.309 101.329L397.968 97.6809C397.968 97.6809 397.647 98.0209 397.106 98.581C396.164 97.2294 395.362 95.7857 394.712 94.2722C395.294 94.1316 395.865 93.9492 396.421 93.7264C396.953 93.5506 397.432 93.2444 397.815 92.8359C398.15 92.37 398.367 91.8294 398.447 91.2608C398.82 89.4411 398.926 87.5767 398.763 85.7264C398.633 84.2901 398.341 82.8538 398.442 81.3936C398.547 79.8376 399.098 78.3343 399.175 76.7736C399.309 74.0255 397.944 71.4115 396.258 69.2332C395.253 67.9357 394.123 66.7292 393.251 65.3409C392.494 64.1344 391.944 62.8034 391.13 61.6305C389.214 58.9016 386.02 57.2929 382.745 56.7232C379.469 56.1535 376.098 56.5078 372.818 57.0488C369.944 57.5275 367.071 58.2217 364.198 58.3893C361.689 58.5329 359.644 57.6855 357.345 59.3468C356.584 59.908 355.952 60.6256 355.491 61.4513C355.03 62.2771 354.751 63.192 354.673 64.1344C354.636 64.4552 354.66 64.7802 354.745 65.0919C354.881 65.4148 355.041 65.7269 355.224 66.0255C356.244 68.0363 354.693 70.4253 354.894 72.6706C355.016 73.6635 355.471 74.5859 356.184 75.2881C356.896 75.9902 357.826 76.4311 358.82 76.539C358.729 76.7305 358.629 76.9172 358.543 77.1135C357.271 79.9862 356.699 83.1195 356.874 86.2561C357.048 89.3928 357.965 92.4432 359.548 95.1569C361.131 97.8705 363.336 100.17 365.98 101.866C368.625 103.563 371.635 104.607 374.762 104.915L375.653 105.6C377.664 107.156 379.924 109.018 382.103 111.043L382.06 111.077L381.705 110.875C381.042 111.4 380.345 111.88 379.618 112.312C377.602 113.547 374.35 115.151 370.692 115.333C370.692 115.333 364.141 118.804 361.885 130.251C358.648 133.152 351.719 138.39 342.563 139.754C329.696 141.669 313.831 142.296 313.831 142.296C313.831 142.296 313.701 142.526 313.52 142.947L312.054 142.679C312.054 142.679 312.054 142.856 311.992 143.158L311.417 142.9C306.873 140.913 297.793 138.016 296.644 145.997C295.102 156.702 305.312 155.472 305.312 155.472C307.331 154.705 309.399 154.076 311.503 153.59L312.073 153.48C312.17 153.759 312.306 154.024 312.476 154.265H313.864C314.347 155.263 314.929 156.21 315.603 157.09L347.964 156.381C347.964 156.381 353.495 155.175 358.6 155.941C356.373 172.583 353.744 190.833 353.744 190.833C353.744 190.833 348.237 219.735 352.092 222.756C354.33 222.01 356.61 221.399 358.921 220.928C358.956 222.713 359.145 224.493 359.486 226.247L361.952 242.385C361.952 242.385 362.91 258.874 366.114 268.717L368.939 282.17L371.304 292.339L372.636 309.598C374.464 316.91 375.785 324.338 376.591 331.832C377.841 343.427 384.627 362.166 385.532 364.631C383.214 367.911 378.454 373.474 372.482 374.049C363.959 374.872 363.753 380.009 369.71 381.857C375.667 383.705 388.204 381.857 388.204 381.857L405.884 377.486C405.352 380.746 405.074 383.322 405.462 383.6C406.592 384.423 423.75 388.866 424.368 381.752C424.416 381.164 424.459 380.595 424.497 380.043C424.753 375.485 424.143 370.921 422.701 366.59C422.562 366.163 422.438 365.733 422.328 365.302C422.582 365.017 422.816 364.715 423.027 364.397C423.027 364.397 424.262 345.189 425.187 338.305C425.259 337.754 425.306 337.084 425.33 336.327C425.757 328.073 422.744 306.362 422.744 306.362C422.744 306.362 419.024 292.238 419.163 285.747C419.184 285.207 419.276 284.673 419.435 284.157C419.435 284.157 419.435 284.028 419.388 283.812C419.388 283.721 419.431 283.626 419.459 283.539C419.459 283.539 417.573 270.613 417.836 262.924C417.873 261.777 418.033 260.637 418.315 259.525C418.614 258.064 418.767 256.578 418.77 255.087C419.009 249.821 418.732 240.724 418.348 232.193C418.392 232.049 418.435 231.905 418.468 231.738C418.545 231.058 418.465 230.37 418.234 229.727C418.205 229.177 418.181 228.631 418.152 228.09C418.31 227.549 418.439 226.974 418.554 226.381H418.803V226.414C418.803 226.414 434.903 225.643 438.605 221.33C438.605 221.33 434.865 209.71 432.791 200.264L435.229 194.926ZM365.85 158.785L365.596 158.694C366.003 157.258 366.487 155.587 367.033 153.834C366.568 155.73 366.166 157.454 365.85 158.785ZM382.189 111.153L382.261 111.22L382.184 111.177L382.189 111.153ZM402.302 360.356C401.435 357.373 397.992 345.213 398.102 339.415C398.126 338.911 398.214 338.413 398.365 337.931C398.685 336.88 398.846 335.788 398.844 334.69C399.189 328.638 396.871 317.795 396.871 317.795C396.871 317.795 391.685 303.169 392.083 291.554C392.083 291.262 392.116 290.97 392.135 290.678C392.221 289.577 392.288 288.384 392.336 287.125V287.101C392.533 282.615 392.49 277.215 392.36 272.179L392.332 271.992C392.154 265.323 391.824 259.319 391.685 256.944C392.164 260.377 395.229 281.744 396.55 285.239C396.55 285.239 397.273 295.097 400.558 303.432L404.16 325.1C404.16 325.1 405.084 350.886 406.621 358.178C407.311 361.424 407.895 363.612 408.331 365.038C407.708 367.944 406.702 372.813 406.027 376.845C405.63 374.216 404.231 364.201 402.306 360.356H402.302Z" fill="url(#paint0_linear)"/>
<path d="M386.906 361.021C386.906 361.021 380.896 371.913 372.444 372.727C363.992 373.541 363.791 378.63 369.695 380.464C375.6 382.297 388.026 380.464 388.026 380.464L405.745 376.088C405.745 376.088 403.604 358.575 400.755 357.661C397.905 356.746 386.906 361.021 386.906 361.021Z" fill="#454545"/>
<path d="M408.503 361.223C408.503 361.223 404.02 381.378 405.15 382.197C406.281 383.016 423.276 387.387 423.889 380.363C423.937 379.773 423.98 379.208 424.018 378.669C424.269 374.152 423.664 369.628 422.237 365.335C421.758 363.899 421.422 362.362 421.547 361.223C421.829 358.374 408.503 361.223 408.503 361.223Z" fill="#454545"/>
<path d="M402.943 106.04C402.943 106.04 389.195 139.802 391.642 128.958C393.261 121.777 382.797 112.235 375.562 106.629C371.879 103.756 369.035 101.932 369.035 101.932C369.035 101.932 394.846 71.8472 393.016 84.8263C392.515 88.3811 393.002 92.0053 394.424 95.3015C397.273 102.071 402.943 106.04 402.943 106.04Z" fill="#FFB9B9"/>
<path d="M315.124 154.002C314.396 153.815 313.208 153.935 311.977 154.198C309.893 154.679 307.843 155.302 305.843 156.061C305.843 156.061 295.725 157.281 297.252 146.672C298.387 138.763 307.385 141.636 311.891 143.598C313.424 144.274 314.439 144.838 314.439 144.838L315.124 154.002Z" fill="#FFB9B9"/>
<path opacity="0.1" d="M315.124 154.002C314.396 153.815 313.208 153.935 311.978 154.198C310.876 151.421 311.714 144.839 311.891 143.599C313.424 144.274 314.439 144.839 314.439 144.839L315.124 154.002Z" fill="black"/>
<path d="M315.167 143.871L312.519 143.393C312.519 143.393 311.164 152.489 312.935 154.883H315.981L315.167 143.871Z" fill="#CBCDDA"/>
<path d="M368.278 160.47C368.278 160.47 360.185 155.63 359.218 161.739C358.251 167.848 356.977 178.285 356.977 178.285L354.736 191.57L351.834 218.189L352.241 222.718C352.241 222.718 360.86 219.817 362.881 220.836C364.902 221.856 366.549 209.638 366.549 209.638L369.901 197.014L370.409 170.241L368.278 160.47Z" fill="#454545"/>
<path opacity="0.1" d="M368.278 160.47C368.278 160.47 360.185 155.63 359.218 161.739C358.251 167.848 356.977 178.285 356.977 178.285L354.736 191.57L351.834 218.189L352.241 222.718C352.241 222.718 360.86 219.817 362.881 220.836C364.902 221.856 366.549 209.638 366.549 209.638L369.901 197.014L370.409 170.241L368.278 160.47Z" fill="black"/>
<path d="M363.915 129.111C363.915 129.111 355.516 138.581 342.764 140.487C330.012 142.392 314.276 143.01 314.276 143.01C314.276 143.01 310.306 150.11 316.034 157.669L348.118 156.961C348.118 156.961 355.219 155.419 360.721 156.961L363.915 129.111Z" fill="#454545"/>
<path opacity="0.05" d="M363.915 129.111C363.915 129.111 355.516 138.581 342.764 140.487C330.012 142.392 314.276 143.01 314.276 143.01C314.276 143.01 310.306 150.11 316.034 157.669L348.118 156.961C348.118 156.961 355.219 155.419 360.721 156.961L363.915 129.111Z" fill="black"/>
<path opacity="0.1" d="M393.064 95.0095C389.932 101.712 384.488 106.653 376.591 106.653C376.242 106.653 375.902 106.653 375.562 106.629C371.879 103.756 369.035 101.932 369.035 101.932C369.035 101.932 394.846 71.8472 393.016 84.8263C392.451 88.8 391.805 92.0268 393.064 95.0095Z" fill="black"/>
<path d="M396.263 86.3678C396.26 90.2582 395.103 94.0604 392.939 97.2937C390.775 100.527 387.701 103.046 384.105 104.533C380.509 106.019 376.553 106.407 372.737 105.646C368.921 104.884 365.416 103.009 362.666 100.257C359.916 97.5048 358.043 93.999 357.286 90.1831C356.528 86.3671 356.92 82.4123 358.41 78.8186C359.9 75.2249 362.423 72.1537 365.659 69.9933C368.895 67.8329 372.7 66.6804 376.591 66.6813C379.177 66.6763 381.739 67.1821 384.129 68.1699C386.52 69.1577 388.691 70.6079 390.519 72.4373C392.347 74.2666 393.795 76.439 394.781 78.8296C395.767 81.2202 396.27 83.782 396.263 86.3678Z" fill="#FFB9B9"/>
<path d="M408.287 206.584C408.287 206.584 364.404 210.457 362.795 204.856C361.186 199.254 367.272 184.087 367.272 184.087L365.29 162.912L365.218 162.103C365.218 162.103 370.715 139.194 370.514 137.365C370.323 135.718 379.364 116.496 381.222 112.565C381.442 112.111 381.557 111.862 381.557 111.862L381.906 112.063L382.06 112.154L384.21 113.408L392.7 111.397L402.933 106.04L403.891 164.645L408.287 206.584Z" fill="#CBCDDA"/>
<path opacity="0.1" d="M385.479 112.57C385.479 112.57 382.476 111.756 381.303 114.758C380.844 116.049 380.3 117.307 379.675 118.526L378.506 125.497L376.366 136.508L374.786 185.222L375.499 193.873L379.421 186.902L380.135 141.367V135.704C380.364 130.807 381.47 125.991 383.4 121.485L383.946 120.206L387.356 115.826L385.479 112.57Z" fill="black"/>
<path d="M384.871 111.957C384.871 111.957 381.864 111.144 380.695 114.145C380.235 115.436 379.69 116.695 379.062 117.913L377.894 124.889L375.753 135.9L374.178 184.614L374.891 193.27L378.813 186.275L379.527 140.769V135.091C379.761 130.195 380.867 125.38 382.793 120.872L383.343 119.594L386.753 115.218L384.871 111.957Z" fill="#454545"/>
<path opacity="0.1" d="M397.699 99.3853C397.699 99.3853 387.313 110.397 383.645 111.704C383.645 111.704 385.479 120.053 387.313 121.681C387.313 121.681 398.212 110.569 400.141 109.669L401.76 105.71L397.699 99.3853Z" fill="black"/>
<path d="M397.699 98.7581C397.699 98.7581 387.313 109.769 383.645 111.076C383.645 111.076 385.479 119.426 387.313 121.054C387.313 121.054 398.212 109.942 400.141 109.042L401.76 105.087L397.699 98.7581Z" fill="#CBCDDA"/>
<path opacity="0.1" d="M382.165 111.862L382.06 112.149L378.732 121.068L372.779 137.897C372.779 137.897 372.727 138.069 372.621 138.375C371.635 141.439 366.334 158.067 365.29 162.897L365.218 162.088C365.218 162.088 370.715 139.18 370.514 137.351C370.323 135.704 379.364 116.482 381.222 112.551C381.519 112.35 381.749 112.178 381.907 112.048L382.165 111.862Z" fill="black"/>
<path d="M381.557 111.857L378.119 121.068L372.166 137.897C372.166 137.897 372.114 138.069 372.008 138.375C370.964 141.64 365.012 160.278 364.533 163.687C363.992 167.431 356.507 187.668 356.507 187.668L352.231 222.708C348.4 219.735 353.84 191.11 353.84 191.11C353.84 191.11 359.95 148.659 361.397 134.536C362.843 120.412 370.644 116.285 370.644 116.285C374.245 116.104 377.491 114.514 379.488 113.293C380.209 112.862 380.9 112.382 381.557 111.857Z" fill="#454545"/>
<path opacity="0.1" d="M424.679 337.299C423.764 344.121 422.543 363.152 422.543 363.152C418.267 369.563 408.795 366.101 408.795 366.101C408.795 366.101 407.78 364.186 406.252 356.938C404.725 349.689 403.81 324.157 403.81 324.157L400.242 302.709C396.986 294.46 396.273 284.688 396.273 284.688C394.836 280.921 391.383 256.183 391.383 256.183C391.383 256.183 392.82 278.374 391.896 290.084C390.972 301.794 396.574 317.55 396.574 317.55C396.574 317.55 399.735 332.315 398.102 336.897C396.469 341.479 402.177 360.409 402.177 360.409C401.698 365.91 385.484 363.669 385.484 363.669C385.484 363.669 377.855 343.202 376.519 330.884C375.719 323.462 374.408 316.103 372.597 308.861L371.276 291.755L368.929 281.643L366.133 268.31C362.972 258.539 362.01 242.199 362.01 242.199L359.563 226.165C357.963 218.237 360.041 208.93 361.421 204.061C362.019 201.95 362.498 200.662 362.498 200.662C363.901 201.657 371.937 202.826 376.093 203.774C378.368 204.298 380.707 204.485 383.037 204.329C393.545 203.495 403.941 201.589 414.062 198.641C414.747 198.435 415.111 198.316 415.111 198.316L415.327 200.149L415.834 204.516L416.739 212.267C416.739 212.267 419.488 253.598 417.86 259.185C416.232 264.772 418.98 283.602 418.98 283.602C417.453 288.068 422.237 306.223 422.237 306.223C422.237 306.223 425.598 330.477 424.679 337.299Z" fill="black"/>
<path d="M424.679 336.701C423.764 343.523 422.543 362.553 422.543 362.553C418.267 368.969 408.795 365.503 408.795 365.503C408.795 365.503 407.78 363.588 406.252 356.344C404.725 349.1 403.81 323.559 403.81 323.559L400.242 302.082C397.01 293.833 396.273 284.037 396.273 284.037C394.836 280.269 391.383 255.532 391.383 255.532C391.383 255.532 392.82 277.722 391.896 289.433C390.972 301.143 396.574 316.918 396.574 316.918C396.574 316.918 399.735 331.683 398.102 336.265C396.469 340.847 402.177 359.782 402.177 359.782C401.698 365.278 385.484 363.037 385.484 363.037C385.484 363.037 377.855 342.594 376.519 330.271C375.719 322.849 374.408 315.49 372.597 308.248L371.276 291.147L368.929 281.069L366.133 267.736C362.972 257.959 362.01 241.619 362.01 241.619L359.563 225.586C357.963 217.658 360.041 208.35 361.421 203.482C362.019 201.375 362.498 200.087 362.498 200.087C363.901 201.083 371.937 202.246 376.093 203.194C378.368 203.721 380.707 203.908 383.037 203.75C393.545 202.915 403.941 201.01 414.062 198.062L415.111 197.741L415.327 199.57L415.834 203.941L416.739 211.692C416.739 211.692 419.488 253.019 417.86 258.61C416.232 264.202 418.98 283.027 418.98 283.027C417.453 287.489 422.237 305.644 422.237 305.644C422.237 305.644 425.598 329.869 424.679 336.701Z" fill="#454545"/>
<path opacity="0.1" d="M396.263 86.3679C396.269 89.808 395.371 93.1892 393.658 96.1728C390.593 96.7138 387.332 96.1154 385.039 94.0902C383.468 92.7066 382.453 90.8155 381.102 89.2117C380.228 88.2261 379.289 87.3 378.291 86.4397C377.64 85.7909 376.892 85.2466 376.074 84.8263C375.663 84.6186 375.209 84.508 374.749 84.503C374.288 84.498 373.832 84.5988 373.416 84.7976C372.334 85.4008 371.98 86.7461 371.352 87.8185C370.881 88.7392 370.073 89.4435 369.097 89.7862C368.609 89.9423 368.084 89.9377 367.598 89.7731C367.113 89.6085 366.693 89.2926 366.401 88.8718C365.735 87.7276 366.224 85.9418 365.108 85.2428C364.814 85.0975 364.51 84.9727 364.198 84.8694C362.762 84.2183 362.594 82.2889 362.469 80.709C362.407 79.9334 362.24 79.0573 361.588 78.6407C360.937 78.2242 360.08 78.4349 359.304 78.4492C359.075 78.4583 358.845 78.4406 358.619 78.3966C360.448 74.2751 363.638 70.9068 367.654 68.8555C371.67 66.8042 376.269 66.1944 380.681 67.1282C385.093 68.062 389.05 70.4827 391.89 73.9851C394.73 77.4875 396.281 81.8591 396.282 86.3679H396.263Z" fill="black"/>
<path d="M357.412 60.7831C356.656 61.3409 356.029 62.0543 355.572 62.8752C355.115 63.6962 354.84 64.6056 354.764 65.542C354.728 65.8549 354.752 66.1719 354.836 66.4755C354.97 66.7978 355.13 67.1085 355.315 67.4043C356.321 69.4008 354.783 71.7658 354.98 73.992C355.113 75.0437 355.623 76.0115 356.416 76.7157C357.208 77.42 358.229 77.8131 359.29 77.8221C360.065 77.8221 360.918 77.5923 361.574 78.0136C362.23 78.4349 362.393 79.3062 362.455 80.0818C362.579 81.6617 362.738 83.5911 364.179 84.2422C364.49 84.3481 364.793 84.4728 365.089 84.6157C366.209 85.3147 365.721 87.1052 366.386 88.2446C366.679 88.6654 367.098 88.9814 367.584 89.146C368.069 89.3106 368.594 89.3152 369.083 89.1591C370.057 88.8178 370.863 88.115 371.333 87.1962C371.951 86.119 372.32 84.8024 373.402 84.1752C373.817 83.9746 374.273 83.8725 374.734 83.8766C375.194 83.8808 375.648 83.9911 376.06 84.1991C376.878 84.6212 377.625 85.1671 378.277 85.8173C379.276 86.6764 380.215 87.6026 381.088 88.5894C382.438 90.1884 383.453 92.0795 385.024 93.4631C387.983 96.0628 392.514 96.3356 396.162 94.8371C396.689 94.6616 397.164 94.359 397.546 93.9562C397.88 93.493 398.095 92.9557 398.174 92.3907C398.544 90.5884 398.651 88.7418 398.49 86.9089C398.361 85.4726 398.068 84.0364 398.169 82.6001C398.27 81.0585 398.82 79.5696 398.897 78.028C399.031 75.299 397.676 72.709 396.024 70.5498C395.028 69.2619 393.907 68.0698 393.045 66.691C392.293 65.4941 391.747 64.1775 390.943 63.0189C389.056 60.3139 385.876 58.7101 382.63 58.1499C379.383 57.5898 376.045 57.9345 372.794 58.4755C369.959 58.9543 367.105 59.6341 364.232 59.8017C361.718 59.9788 359.692 59.1314 357.412 60.7831Z" fill="#472727"/>
<path opacity="0.1" d="M381.557 111.857L378.119 121.068L372.166 137.897C372.166 137.897 372.114 138.069 372.008 138.375V138.399L379.498 113.284C380.215 112.855 380.903 112.378 381.557 111.857Z" fill="black"/>
<path d="M418.726 217.275C418.726 217.275 419.081 228.42 416.078 231.221L408.086 216.154L414.79 212.894L418.726 217.275Z" fill="#FFB9B9"/>
<path opacity="0.1" d="M437.383 221.344C433.715 225.619 417.75 226.385 417.75 226.385L401.947 201.49C401.947 201.49 398.207 198.895 391.182 187.209C384.157 175.522 384.387 166.521 384.78 159.8C385.172 153.078 389.568 133.76 389.568 133.76C390.253 129.413 400.103 102.162 400.103 102.162C401.138 104.226 403.063 105.949 405.313 107.371C411.395 111.201 419.885 112.771 419.885 112.771C433.562 114.758 431.038 128.882 431.038 128.882C431.038 128.882 431.191 183.781 430.349 190.349C429.506 196.918 437.383 221.344 437.383 221.344Z" fill="black"/>
<path d="M418.932 219.41L418.473 223.484L412.923 221.449L408.852 215.288L411.907 212.894L418.932 219.41Z" fill="#CBCDDA"/>
<path opacity="0.1" d="M418.736 203.63L415.834 203.927L387.854 206.723C383.361 207.174 378.825 206.951 374.398 206.062L361.42 203.467C362.019 201.361 362.498 200.073 362.498 200.073C363.901 201.069 371.936 202.232 376.093 203.18C378.367 203.706 380.707 203.894 383.036 203.735C393.545 202.901 403.941 200.995 414.062 198.048L415.327 199.556L418.736 203.63Z" fill="black"/>
<g opacity="0.1">
<path opacity="0.1" d="M362.789 200.225C362.697 200.18 362.607 200.129 362.522 200.073C362.522 200.073 362.522 200.101 362.493 200.144L362.789 200.225Z" fill="black"/>
<path opacity="0.1" d="M422.26 305.639C422.26 305.639 417.472 287.484 419.004 283.022C419.004 283.022 416.255 264.207 417.888 258.606C419.521 253.004 416.763 211.687 416.763 211.687L415.858 203.936L415.35 199.565L415.139 197.736L414.086 198.057L413.435 198.249L413.516 198.957L414.024 203.323L414.929 211.075C414.929 211.075 417.677 252.406 416.054 257.993C414.431 263.58 417.17 282.409 417.17 282.409C415.642 286.876 420.426 305.026 420.426 305.026C420.426 305.026 423.778 329.261 422.873 336.078C421.968 342.896 420.733 361.931 420.733 361.931C417.61 366.618 411.716 366.034 408.761 365.378L408.814 365.493C408.814 365.493 418.286 368.959 422.562 362.544C422.562 362.544 423.783 343.504 424.702 336.691C425.622 329.878 422.26 305.639 422.26 305.639Z" fill="black"/>
<path opacity="0.1" d="M398.13 336.284C399.759 331.702 396.603 316.937 396.603 316.937C396.603 316.937 391.005 301.138 391.919 289.452C392.303 284.573 392.279 277.88 392.116 271.738C390.818 263.814 389.573 254.981 389.573 254.981C389.573 254.981 391.01 277.172 390.09 288.877C389.171 300.583 394.769 316.368 394.769 316.368C394.769 316.368 397.929 331.128 396.296 335.709C394.663 340.291 400.362 359.202 400.362 359.202C399.955 363.607 389.492 363.032 385.34 362.649L385.498 363.07C385.498 363.07 401.688 365.311 402.196 359.815C402.206 359.801 396.502 340.866 398.13 336.284Z" fill="black"/>
</g>
<path d="M437.991 221.344C434.328 225.619 418.358 226.385 418.358 226.385L402.555 201.49C402.555 201.49 398.815 198.895 391.785 187.209C384.756 175.522 384.995 166.521 385.383 159.8C385.771 153.078 390.172 133.76 390.172 133.76C390.856 129.413 400.707 102.162 400.707 102.162C401.736 104.226 403.661 105.949 405.917 107.371C411.998 111.201 420.489 112.771 420.489 112.771C434.16 114.758 431.637 128.882 431.637 128.882C431.637 128.882 431.79 183.781 430.947 190.349C430.104 196.918 437.991 221.344 437.991 221.344Z" fill="#454545"/>
<path opacity="0.1" d="M403.633 115.673L400.194 116.951L402.483 118.555L385.388 159.785C385.785 153.083 390.176 133.746 390.176 133.746C390.861 129.399 400.711 102.148 400.711 102.148C401.741 104.211 403.666 105.935 405.922 107.357L403.633 115.673Z" fill="black"/>
<path opacity="0.1" d="M407.756 189.124L425.244 184.618L427.538 191.718L409.667 196.075L407.756 189.124Z" fill="black"/>
<path opacity="0.1" d="M417.759 118.574C417.759 118.574 409.815 126.047 412.813 142.703C415.81 159.359 420.604 177.442 420.604 177.442L407.674 213.253C407.674 213.253 416.687 222.646 421.116 223.786L434.022 195.151C434.022 195.151 440.055 185.226 438.451 169.653C436.847 154.079 431.043 128.877 431.043 128.877C431.043 128.877 431.048 113.537 417.759 118.574Z" fill="black"/>
<path d="M418.368 118.574C418.368 118.574 410.419 126.047 413.407 142.703C416.395 159.359 421.193 177.442 421.193 177.442L408.264 213.253C408.264 213.253 417.276 222.646 421.706 223.786L434.635 195.151C434.635 195.151 440.669 185.226 439.064 169.653C437.46 154.079 431.656 128.877 431.656 128.877C431.656 128.877 431.656 113.537 418.368 118.574Z" fill="#454545"/>
<path opacity="0.1" d="M408.694 214.014C408.694 214.014 418.775 227.965 418.013 231.68C417.252 235.395 414.297 233.409 414.297 233.409L410.327 227.965L406.76 217.782C406.76 217.782 407.109 213.387 408.694 214.014Z" fill="black"/>
<path opacity="0.1" d="M407.473 214.014C407.473 214.014 417.529 227.965 416.792 231.68C416.054 235.395 413.076 233.409 413.076 233.409L409.101 227.965L405.539 217.782C405.539 217.782 405.888 213.387 407.473 214.014Z" fill="black"/>
<path d="M408.086 214.014C408.086 214.014 418.142 227.965 417.4 231.68C416.658 235.395 413.684 233.409 413.684 233.409L409.714 227.965L406.151 217.782C406.151 217.782 406.496 213.387 408.086 214.014Z" fill="#454545"/>
</g>
<defs>
<linearGradient id="paint0_linear" x1="368.216" y1="385.749" x2="368.216" y2="56.4264" gradientUnits="userSpaceOnUse">
<stop stop-color="#808080" stop-opacity="0.25"/>
<stop offset="0.54" stop-color="#808080" stop-opacity="0.12"/>
<stop offset="1" stop-color="#808080" stop-opacity="0.1"/>
</linearGradient>
<clipPath id="clip0">
<rect width="500" height="398.594" fill="white"/>
</clipPath>
</defs>
</svg>
