<?xml version="1.0" encoding="utf-8"?>
<!-- Generator: Adobe Illustrator 16.0.0, SVG Export Plug-In . SVG Version: 6.00 Build 0)  -->
<!DOCTYPE svg PUBLIC "-//W3C//DTD SVG 1.1//EN" "http://www.w3.org/Graphics/SVG/1.1/DTD/svg11.dtd">
<svg version="1.1" id="Layer_1" xmlns="http://www.w3.org/2000/svg" xmlns:xlink="http://www.w3.org/1999/xlink" x="0px" y="0px"
     width="50px" height="68px" viewBox="0 0 50 68" enable-background="new 0 0 50 68" xml:space="preserve">
<g>
	<path fill="#FF1037" d="M46.802,15.371c1.769,0,3.205,1.434,3.205,3.203v17.541c0,6.841-3.764,13.126-9.796,16.362l-13.69,7.348
		c-1.56,0.836-3.502,0.25-4.341-1.307c-0.836-1.558-0.253-3.5,1.307-4.336l13.694-7.348c3.95-2.119,6.416-6.238,6.416-10.72V18.574
		C43.596,16.805,45.03,15.371,46.802,15.371z"/>
    <path fill="#00AFEC" d="M46.802,1.281c1.769,0,3.205,1.434,3.205,3.202V18.64c0,6.544-3.447,12.606-9.075,15.955L26.645,43.1
		c-1.522,0.906-3.488,0.408-4.395-1.11c-0.907-1.519-0.41-3.485,1.112-4.391l14.289-8.505c3.685-2.196,5.944-6.167,5.944-10.454
		V4.483C43.596,2.715,45.03,1.281,46.802,1.281z"/>
    <path fill="#152438" d="M6.411,6.405h40.391c1.769,0,3.205-1.435,3.205-3.203C50.007,1.434,48.57,0,46.802,0H5.771
		C2.584,0,0,2.581,0,5.764v30.35c0,6.841,3.765,13.126,9.796,16.362l13.69,7.348c1.561,0.836,3.503,0.25,4.342-1.307
		c0.836-1.558,0.252-3.5-1.308-4.336l-13.691-7.348c-3.952-2.119-6.418-6.238-6.418-10.72V6.405z"/>
    <path fill="#152438" d="M46.802,0c1.769,0,3.205,1.434,3.205,3.203c0,5.376-2.949,9.25-6.432,11.873
		c-3.43,2.584-7.635,4.181-11,5.152c-2.64,0.761-4.364,2.965-4.364,5.181v31.594c0,1.769-1.438,3.201-3.206,3.201
		c-1.772,0-3.208-1.433-3.208-3.201V25.408c0-5.579,4.142-9.933,8.999-11.334c3.044-0.878,6.394-2.208,8.921-4.112
		c2.477-1.864,3.88-4.041,3.88-6.759C43.596,1.434,45.03,0,46.802,0z"/>
</g>
</svg>
