<svg width="70" height="62" viewBox="0 0 70 62" fill="none" xmlns="http://www.w3.org/2000/svg">
<path d="M56.4493 25.9859C55.8924 26.1357 55.3141 26.2712 54.7395 26.3996C54.7073 26.4067 52.9226 26.831 51.0807 26.8275L50.3882 26.8168L50.3418 27.3838C50.7202 27.4408 51.1021 27.4765 51.4805 27.5086L53.7221 27.6726C54.3647 27.7189 55.0036 27.7653 55.6425 27.8188L56.3386 27.8723C57.3416 27.9579 58.3804 28.047 59.387 28.1789C59.6547 28.2182 59.9295 28.2467 60.2044 28.2752L60.415 28.2966C60.9219 28.3501 61.4252 28.4107 61.9249 28.4892C61.9856 27.0842 61.932 25.6757 61.7857 24.2743C60.3258 24.8377 58.6981 25.369 56.8669 25.8575L56.4493 25.9859Z" fill="#3DD95E"/>
<path d="M10.6881 26.421C10.656 26.4317 10.6131 26.4317 10.5737 26.4317C10.6131 26.9737 10.6595 27.5086 10.706 28.0363C10.706 28.072 10.706 28.1041 10.7024 28.1397C10.7525 28.1326 10.7954 28.1326 10.8383 28.1255C10.8419 28.1183 10.8419 28.1112 10.8419 28.1041C10.7882 27.5514 10.7346 26.9844 10.6881 26.421Z" fill="#3DD95E"/>
<path d="M51.17 38.5701L50.2312 38.5879C49.3246 38.5522 48.3858 38.4773 47.5755 38.406L47.1329 38.3525L46.8902 38.3454L46.1477 38.2563C45.8015 38.2242 45.4624 38.1814 45.1233 38.135C43.8382 37.971 42.4604 37.6536 40.9076 37.1687C39.7797 36.8263 38.5053 36.3734 37.5487 35.3643C37.2096 35.0077 36.9205 34.5299 36.6599 33.8916L36.1138 34.0663C36.1852 34.3694 36.2494 34.6725 36.3101 34.9756L36.4493 35.6246C36.4672 35.9848 36.4993 36.3984 36.5314 36.8121C36.5885 37.5609 36.6492 38.3419 36.6706 39.0729C36.6742 39.3047 36.6742 39.5436 36.6706 39.7861C36.6706 39.9786 36.667 40.1747 36.6706 40.3673C36.6742 40.4671 36.8705 46.0407 36.5243 51.682C36.8884 51.6285 37.2524 51.5607 37.6165 51.4716C38.7302 51.2042 39.8725 51.0758 40.9433 50.6407C41.2039 50.5338 41.4859 50.4696 41.775 50.359C41.311 50.2663 40.8898 50.5373 40.4579 50.5837C40.1723 50.6158 39.9225 50.7905 39.6476 50.8725C39.5619 50.9046 39.3834 50.7976 39.3513 50.8297C39.1728 51.0687 38.9908 50.901 38.8016 50.8761C38.8623 50.8725 38.9301 50.8476 38.9837 50.8369C38.8694 50.7976 38.7623 50.8262 38.6481 50.819C38.4018 50.8012 38.1627 50.9795 37.9128 50.8226C38.1091 50.7655 38.2947 50.6907 38.4839 50.6443C39.387 50.441 40.2794 50.2485 41.1682 50.0452C41.3074 50.0274 41.4395 49.9383 41.593 49.8812C41.4288 49.9133 41.2717 49.9383 41.1075 49.9703C42.3355 49.6316 43.5241 49.2251 44.6449 48.7009C44.6878 48.6902 44.7306 48.6866 44.7699 48.6616C44.52 48.8043 44.2951 48.9683 44.0453 49.1003C43.3778 49.4711 42.6567 49.7956 42.132 50.4054C41.9642 50.5908 41.875 50.9153 42.0249 51.0045C42.1463 51.0793 42.2998 51.1257 42.4354 51.14C42.2462 51.2149 42.0713 51.3183 41.875 51.3932C40.7292 51.8175 39.5655 52.0707 38.3804 52.2668C37.7486 52.3702 37.1025 52.4273 36.4671 52.52C36.4065 53.3936 36.3279 54.2602 36.2351 55.1053C37.563 55.034 38.8837 54.8414 40.1973 54.4955C41.5287 54.1496 42.878 53.818 44.1488 53.3223C47.24 52.1028 50.0528 50.4268 52.555 48.2302C54.9573 46.1049 56.9669 43.6907 58.4697 40.8701C58.9088 40.0357 59.2943 39.1798 59.6441 38.3133C57.97 38.5023 55.9996 38.6164 53.6723 38.6129C52.8727 38.6164 52.0339 38.6022 51.17 38.5701Z" fill="#3DD95E"/>
<path d="M33.5361 40.3851C33.5397 40.1854 33.5361 39.9929 33.5361 39.8003C33.5361 39.5614 33.5326 39.3189 33.5397 39.08C33.5683 38.3312 33.629 37.536 33.6896 36.7693C33.7218 36.3699 33.7503 35.9776 33.7789 35.589L33.8324 35.3572C33.9216 34.9257 34.0109 34.5014 34.1108 34.0663L33.5647 33.8951C33.3041 34.5299 33.0114 35.0113 32.6723 35.3607L32.5902 35.4463C31.6514 36.3842 30.4057 36.8228 29.3098 37.1615C27.7714 37.6322 26.3935 37.946 25.0906 38.1136C24.748 38.1636 24.4089 38.1957 24.0733 38.2277L23.2916 38.3169L23.0881 38.3276L22.5277 38.3846C21.6853 38.456 20.8179 38.5273 19.9648 38.5487L19.051 38.5308C18.1765 38.5558 17.3376 38.5665 16.5381 38.5701C14.0965 38.5665 12.0369 38.4417 10.3057 38.2313C10.9446 39.5899 11.6193 40.9236 12.6044 42.0825C14.5106 44.3219 16.3453 46.6255 18.9332 48.141C20.0148 48.7686 20.9821 49.5353 22.1636 50.0131C22.4421 50.1237 22.7062 50.2806 23.0168 50.4197C22.7133 49.9846 22.185 49.8919 21.8067 49.6031C21.5747 49.4105 21.2356 49.3534 20.9678 49.2108C20.8893 49.1645 20.8144 48.9576 20.7644 48.9612C20.4645 49.0075 20.4324 48.733 20.311 48.5796C20.3682 48.6046 20.436 48.6438 20.4931 48.6831C20.4217 48.5654 20.3146 48.5012 20.2432 48.4192C20.0576 48.223 19.7364 48.1803 19.665 47.8665C19.8541 47.952 20.0683 48.0447 20.2468 48.1482C21.0963 48.6724 21.9387 49.193 22.774 49.71C22.9132 49.7956 23.0631 49.8348 23.2309 49.899C22.3135 49.275 21.4212 48.6688 20.5359 48.0555C19.6614 47.4492 18.9439 46.654 18.1979 45.8945C19.0938 46.7574 20.054 47.5598 21.0785 48.2872C22.2636 49.1288 23.595 49.7421 24.9693 50.2592C26.4542 50.8262 27.9284 51.3789 29.5311 51.5358C30.9125 51.6677 32.2939 51.8211 33.6754 51.8567C33.322 46.1548 33.5326 40.4814 33.5361 40.3851Z" fill="#3DD95E"/>
<path d="M11.416 28.0542C12.2334 27.9579 13.0616 27.8866 14.0146 27.8117L14.5858 27.7689C15.2568 27.7154 15.9279 27.6655 16.599 27.6191L17.038 27.5906C17.4699 27.5621 17.8983 27.53 18.323 27.4979L18.7514 27.4658C19.1298 27.4408 19.5153 27.4087 19.8972 27.3552L19.8579 26.7847L19.1547 26.7883C17.6484 26.7883 16.1242 26.4887 15.5388 26.3603C14.9249 26.2213 14.3502 26.0858 13.7826 25.9289L13.3864 25.8076C12.7617 25.64 12.1799 25.4689 11.6123 25.2977C11.5981 25.6044 11.5766 25.9146 11.5731 26.2213C11.5053 26.8275 11.4517 27.4444 11.416 28.0542Z" fill="#3DD95E"/>
<path d="M25.7191 51.14C24.9195 50.926 24.1128 50.6336 23.249 50.7085C22.9741 50.7335 22.6707 50.926 22.71 51.1008C22.76 51.2862 22.8349 51.4859 22.967 51.6036C23.4417 51.9994 23.9201 52.4059 24.4234 52.7589C25.0409 53.2047 25.7191 53.5613 26.4401 53.8002C28.1143 54.3672 29.8526 54.6346 31.5838 54.8878C32.3656 55.0019 33.1509 55.0768 33.929 55.116C33.8398 54.2816 33.7648 53.4222 33.7077 52.5592C30.9984 52.3845 28.3534 51.8496 25.7191 51.14Z" fill="#3DD95E"/>
<path d="M13.0294 15.9335C14.1681 13.3269 15.7565 11.0304 17.7448 9.00852C18.4265 8.41657 19.1405 7.86029 19.8472 7.27904C20.015 7.14354 20.2149 7.00447 20.4219 6.89392C20.5932 6.79051 20.7646 6.72632 20.9395 6.66213C19.9365 7.42524 18.887 8.1206 18.0839 9.14045C18.5836 8.73037 19.0548 8.32743 19.5402 7.92448C19.5509 7.94231 19.5724 7.9637 19.5831 7.97083C19.3404 8.17409 19.1048 8.38805 18.8656 8.5913C18.8692 8.59487 18.8763 8.61626 18.8906 8.63053C19.3939 8.25967 19.8972 7.89595 20.3969 7.52152C20.4291 7.55718 20.4469 7.60711 20.479 7.63564C20.2756 7.76401 20.0792 7.88881 19.8615 8.03858C19.915 8.05641 19.94 8.07067 19.9543 8.07067C19.9864 8.09207 20.0078 8.1099 20.0685 8.15982C18.1124 9.7431 16.3705 11.4975 15.0105 13.6086C16.0742 12.1501 17.3271 10.8628 18.6157 9.63255C19.9293 8.37021 21.4285 7.38958 23.0348 6.56229C24.6375 5.74569 26.3295 5.14661 28.0893 4.81142C27.7573 4.96832 27.4182 5.10382 27.0684 5.21793C24.6125 5.97391 22.3423 7.09718 20.2898 8.63766C18.191 10.2209 16.4812 12.1537 15.0391 14.3075C14.5893 14.9814 14.2002 15.6804 13.8361 16.3864C13.8718 16.3971 13.904 16.4078 13.9361 16.415C14.3252 15.659 14.7714 14.9315 15.2639 14.2326C15.7494 13.5444 16.2706 12.8562 16.8167 12.2036C17.3343 11.5867 17.8304 10.9412 18.5372 10.4955C19.1083 10.1211 19.5759 9.61472 20.1078 9.17612C20.4255 8.92293 20.7432 8.69115 21.0823 8.42014C21.0252 8.42014 20.993 8.40944 20.9359 8.39518C21.1679 8.24184 21.3643 8.09207 21.5677 7.95657C21.9711 7.71765 22.3566 7.43951 22.7707 7.23625C23.174 7.03656 23.6095 6.89036 24.0271 6.73702C24.9481 6.36973 25.8404 5.93469 26.7899 5.65654C27.9036 5.32848 29.0602 5.08599 30.2024 4.83638C30.6914 4.7401 31.1805 4.74723 31.6766 4.70801C32.237 4.65808 32.7903 4.56893 33.3472 4.54041C33.9004 4.51188 34.4573 4.58676 35.0141 4.62242C34.1432 4.62242 33.2579 4.66165 32.3763 4.76506C32.1692 4.79002 31.955 4.77576 31.7587 4.79715C31.1198 4.8863 30.4951 5.06103 29.8704 5.20011C29.8133 5.20367 29.7598 5.21437 29.7062 5.2322C29.6884 5.2322 29.667 5.23576 29.6527 5.23933C28.1606 5.58166 26.6864 6.02384 25.2622 6.63718C23.0812 7.58928 21.1215 8.87658 19.4153 10.5383C19.0227 10.927 18.6728 11.3549 18.3052 11.7578C18.0981 11.9789 17.9054 12.2036 17.6912 12.4318C17.5127 12.6422 17.3307 12.8562 17.1594 13.063C16.242 14.1898 15.4246 15.3844 14.7321 16.6467C16.2206 17.0996 17.602 17.474 19.0476 17.5988C19.6331 17.6488 20.2149 17.713 20.7967 17.7771L23.4489 18.0553C23.9843 18.1088 24.5233 18.1623 25.0587 18.2264L25.4514 18.2728C26.1796 18.3548 26.8899 18.4404 27.5752 18.5902C28.821 18.8647 29.8919 19.2285 30.8485 19.6956C30.9984 19.7705 31.1626 19.8418 31.3304 19.9131L31.4803 19.9773L32.13 20.2376L32.0657 19.7527C32.03 19.4816 32.0764 19.2713 32.2156 19.093L32.3049 18.9717C32.4262 18.8041 32.544 18.6401 32.6618 18.4689C32.7225 18.3798 32.7832 18.2835 32.851 18.1694L32.9795 17.9661C33.2115 17.6024 32.926 17.1424 32.6118 16.8643C32.5833 16.8357 32.5262 16.8001 32.4548 16.7715C32.1335 16.6539 31.9943 16.4292 32.0157 16.0762C32.0407 15.4735 32.2228 14.9993 32.5619 14.6605C32.6725 14.55 32.801 14.4537 32.9474 14.3717C33.0545 14.3111 33.1508 14.2362 33.2329 14.1577C33.4614 13.9295 33.5435 13.6514 33.5935 13.3875C33.6077 13.3376 33.6649 13.2306 33.7184 13.1664C34.004 13.1521 34.2467 13.0451 34.4609 12.9524C34.5679 12.9061 34.675 12.8633 34.7857 12.8276L35.1498 12.767L35.5496 12.8383C35.6352 12.8633 35.7423 12.9132 35.853 12.956C36.0636 13.0487 36.3027 13.1486 36.5812 13.1664C36.6276 13.2163 36.6918 13.3304 36.7097 13.3946C36.781 13.7476 36.8953 14.1114 37.3557 14.3788C37.9483 14.7176 38.2481 15.2739 38.2838 16.0762C38.291 16.3115 38.2374 16.4827 38.1161 16.6075C38.0482 16.6753 37.9554 16.7288 37.8376 16.7715C37.7484 16.8179 37.7163 16.8357 37.6841 16.8643L37.6199 16.9249C37.2451 17.2993 37.1309 17.6844 37.3129 17.9733L37.3664 18.066C37.4664 18.23 37.5414 18.3548 37.627 18.4796L37.6877 18.5652C37.8126 18.7435 37.9376 18.9218 38.0696 19.0965C38.2053 19.2748 38.2553 19.4816 38.2124 19.7527L38.1339 20.259L38.7907 19.9845C39.0084 19.8989 39.2262 19.8061 39.4296 19.7099C40.3756 19.2427 41.4429 18.8861 42.7029 18.6151C43.3668 18.4689 44.0522 18.3869 44.7125 18.3085L45.223 18.2514C45.8334 18.1837 46.4438 18.123 47.0541 18.0695L49.203 17.8485C49.8848 17.7736 50.563 17.7058 51.2376 17.6416C52.8582 17.5061 54.4181 17.0533 56.0065 16.5647C56.3742 16.4506 56.7418 16.3472 57.1095 16.2402C57.0381 16.1011 56.9739 15.9621 56.9025 15.823C56.4563 14.9494 55.8923 14.1542 55.3426 13.3447C56.0351 14.2683 56.6526 15.2275 57.1952 16.2153C57.8948 16.012 58.5801 15.8159 59.2619 15.6269C59.1655 15.445 59.0692 15.2632 58.9657 15.0849C56.5669 10.8878 53.3686 7.42525 49.4493 4.62599C47.9929 3.599 46.4794 2.68969 44.816 2.05139C43.531 1.55929 42.2567 1.00301 40.936 0.653546C38.8657 0.122222 36.7418 -0.0703396 34.6001 0.0223745C34.1574 0.0437701 33.7184 0.0794294 33.2758 0.111523C33.2829 0.136484 33.2793 0.165009 33.2829 0.186404C33.9219 0.165009 34.5822 0.0722995 35.2247 0.107959C36.3134 0.165014 37.42 0.293384 38.5194 0.400362C38.7693 0.42889 39.0084 0.475249 39.2583 0.525172C39.4653 0.567963 39.6438 0.66424 39.8366 0.739124C38.4766 0.582224 37.1309 0.318348 35.7459 0.514475C36.4384 0.560832 37.1202 0.60362 37.7948 0.667807C37.8019 0.696334 37.7912 0.703465 37.7912 0.739124C37.4521 0.707031 37.0952 0.689204 36.7561 0.664243C36.7561 0.682073 36.7489 0.696334 36.7489 0.71773C37.4271 0.799746 38.0911 0.90316 38.7586 0.992308C38.7621 1.03866 38.7479 1.09215 38.7407 1.13494C38.4873 1.08145 38.2303 1.04223 37.9554 0.98161C37.9804 1.0351 37.9983 1.06719 37.9983 1.08146C38.009 1.11355 38.009 1.14564 38.0232 1.23122C35.3033 0.992307 32.6368 1.04223 29.9704 1.65557C31.9051 1.32751 33.8398 1.27045 35.7923 1.27401C37.752 1.28115 39.6617 1.6627 41.5321 2.22612C43.3954 2.80023 45.173 3.61683 46.79 4.67234C46.4152 4.5511 46.0511 4.40133 45.6799 4.2266C43.2026 2.95713 40.5933 2.12271 37.8412 1.76611C35.0248 1.41309 32.2228 1.63061 29.4742 2.22255C27.1469 2.72535 24.9481 3.57761 22.8956 4.80785C21.1394 5.87763 19.5688 7.1578 18.0982 8.55564C17.7448 8.89084 17.3628 9.20108 17.0202 9.55054C16.7881 9.80372 16.5633 10.0605 16.3241 10.3243C16.2884 10.3671 16.2384 10.4028 16.192 10.4563C15.7387 11.009 15.3425 11.5831 14.9534 12.1679C14.5072 12.8205 14.0931 13.5194 13.6648 14.1898C13.6434 14.2255 13.6148 14.2611 13.5898 14.2861C13.5863 14.2754 13.5613 14.2576 13.5613 14.2504C13.6862 14.0008 13.8004 13.7334 13.9504 13.5123C14.1502 13.1914 14.368 12.8847 14.575 12.5923C14.2145 13.0951 13.8112 13.5729 13.4899 14.0971C13.5292 13.9937 13.5827 13.8831 13.6113 13.7726L13.6041 13.7869C13.7326 13.5266 13.8718 13.2734 14.0039 13.0238C14.4323 12.3926 14.8534 11.765 15.2782 11.1374C15.2425 11.1088 15.2033 11.0803 15.1676 11.0518C15.0926 11.1409 15.0069 11.2372 14.9284 11.3192C14.6607 11.6188 14.3573 11.8898 14.1253 12.2036C13.8076 12.6529 13.5292 13.1307 13.24 13.5907C13.2115 13.58 13.1829 13.5693 13.1579 13.5479C13.4007 13.1236 13.6291 12.6886 13.8897 12.2713C14.1431 11.872 14.4394 11.4904 14.6892 11.0875C14.9891 10.5989 15.3318 10.146 15.7851 9.78946C16.1706 9.31875 16.5454 8.84092 16.9345 8.36665C16.9024 8.34169 16.8667 8.31316 16.8381 8.28463C16.4669 8.73394 16.0992 9.18324 15.7387 9.63612C15.6173 9.75379 15.496 9.85721 15.396 9.98201C15.1961 10.2388 14.8963 10.3778 14.6857 10.5954C14.3359 10.984 14.0574 11.4369 13.7719 11.8791C13.5256 12.2357 13.3079 12.6065 13.0794 12.9703C13.0508 12.9596 13.0187 12.9346 13.0009 12.9239C13.1187 12.7171 13.2436 12.4996 13.3435 12.2892C13.3864 12.2107 13.3757 12.118 13.4007 12.0431C13.4185 12.0003 13.4256 11.9682 13.4328 11.9433C13.4578 11.5189 13.754 11.2337 13.9968 10.9127C14.6321 10.0783 15.2889 9.24743 15.9386 8.41301C15.8065 8.4558 15.7316 8.53068 15.6602 8.60913C13.7755 10.7166 12.2441 13.0487 11.0483 15.5734C11.6873 15.7481 12.3227 15.9264 12.9509 16.1154C12.9759 16.0584 13.0044 15.9977 13.0294 15.9335ZM35.2033 4.64025C35.2926 4.62955 35.3818 4.62242 35.471 4.62242C35.5781 4.62242 35.6888 4.63668 35.803 4.64382C35.5995 4.64382 35.3961 4.64025 35.2033 4.64025ZM24.6946 3.98056C26.2831 3.20675 27.9572 2.67186 29.6955 2.34379C30.5986 2.17619 31.516 2.03356 32.4334 1.93015C33.3043 1.8517 34.1682 1.71262 35.0641 1.89805C35.7816 2.05495 36.5312 2.00146 37.2772 2.06565C37.7091 2.09061 38.1446 2.16193 38.5979 2.21899C38.548 2.1548 38.5373 2.12984 38.5016 2.06922C38.7978 2.12271 39.062 2.16193 39.3261 2.21542C39.8294 2.33309 40.3256 2.40798 40.8075 2.55775C41.2787 2.70752 41.7177 2.92504 42.1639 3.11403C43.1598 3.53125 44.17 3.87001 45.1195 4.36567C46.2439 4.94335 47.3183 5.62445 48.382 6.29841C48.8389 6.59082 49.2208 6.97237 49.6456 7.30757C50.1097 7.68912 50.5987 8.04215 51.0627 8.4344C51.3304 8.68045 51.5553 8.96216 51.8195 9.22247C51.1163 8.55921 50.3845 7.90664 49.6028 7.29687C47.5467 5.75995 45.3086 4.60103 42.8457 3.87001C38.5587 2.6469 34.2074 2.39372 29.7991 3.07125C28.1821 3.31729 26.5865 3.68458 25.0873 4.34072C23.92 4.83995 22.71 5.28569 21.6213 5.90259C21.1465 6.18074 20.7325 6.50523 20.2898 6.80834C21.6677 5.72786 23.1026 4.7615 24.6946 3.98056Z" fill="#3DD95E"/>
<path d="M10.2453 28.1897C10.2952 27.2411 10.2595 26.314 10.4273 25.3619C10.4523 25.2228 10.4808 25.0837 10.5058 24.9411C9.74909 24.6915 9.04946 24.4383 8.40694 24.1851C8.11067 25.6222 7.99289 27.0521 8.0036 28.4785C8.63183 28.3644 9.24935 28.2931 9.82404 28.236C9.95969 28.2217 10.1025 28.2039 10.2453 28.1897Z" fill="#3DD95E"/>
<path d="M16.9558 8.83379C16.963 8.76248 16.963 8.72326 16.9665 8.6662C16.631 8.77318 16.5953 8.84093 16.7274 9.09054C16.4347 9.42217 16.1277 9.75024 15.8457 10.0783C15.8493 10.089 15.8707 10.114 15.8885 10.1425C16.017 10.0355 16.1384 9.9535 16.2312 9.85722C16.3918 9.68249 16.5239 9.47923 16.681 9.30806C17.07 8.91225 17.4734 8.5093 17.891 8.14201C18.5942 7.51797 19.3117 6.91532 20.0435 6.32695C20.2505 6.14865 20.5432 6.04881 20.7966 5.91687C20.8216 5.9133 20.843 5.89191 20.8894 5.87408C20.8109 5.87408 20.7574 5.87051 20.6289 5.85268C21.2642 5.4426 21.8318 5.05391 22.4065 4.69019C22.2673 4.71871 22.1459 4.76151 22.0424 4.83283C21.1821 5.39268 20.3326 5.94539 19.4973 6.49098C19.1654 6.70494 18.7906 6.8761 18.505 7.15068C18.0731 7.56076 17.7126 8.04216 17.3163 8.49147C17.2021 8.60201 17.0879 8.70899 16.9558 8.83379Z" fill="#3DD95E"/>
<path d="M27.2398 1.46374C27.2005 1.4887 27.1684 1.52079 27.147 1.54219C27.2576 1.58498 27.3683 1.69553 27.4611 1.66344C27.7502 1.60638 28.0465 1.49227 28.2393 1.42808C28.2821 1.26405 28.2857 1.10358 28.3428 1.07862C28.6248 0.957376 28.9103 0.853967 29.1959 0.786214C29.6921 0.668538 30.1918 0.586521 30.6808 0.490241C31.0842 0.411791 31.4982 0.347603 31.9087 0.283417C29.9027 0.426054 27.9644 0.850402 26.1118 1.6456C26.4759 1.56715 26.8364 1.47801 27.2005 1.39599C27.2255 1.41382 27.2326 1.43521 27.2398 1.46374Z" fill="#3DD95E"/>
<path d="M11.0236 26.2462C11.0271 26.396 11.0128 26.5457 11.0057 26.7169C10.9699 26.6634 10.9342 26.6349 10.8984 26.5957C10.7554 26.8809 10.7733 26.9523 11.0236 27.0271C11.0343 27.3909 11.045 27.7439 11.0593 28.0969C11.0915 28.0898 11.1272 28.0898 11.163 28.0827C11.1737 28.0042 11.188 27.9293 11.1916 27.8473C11.1773 27.6298 11.1344 27.4194 11.1308 27.1876C11.1308 26.6848 11.1415 26.1678 11.1844 25.6543C11.1952 25.4938 11.2202 25.3333 11.2309 25.1729C11.1415 25.1443 11.0486 25.1194 10.9592 25.0873C10.9735 25.4795 11.0057 25.8647 11.0236 26.2462Z" fill="#3DD95E"/>
<path d="M63.6703 28.6033C62.603 28.2503 61.5107 28.1326 60.447 28.0113C60.1079 27.9757 59.7616 27.9436 59.4261 27.8972C58.3695 27.7617 57.2987 27.669 56.2385 27.5799L55.671 27.5371C54.9999 27.48 54.336 27.4337 53.6613 27.3873C53.0902 27.3445 52.5119 27.3053 51.9337 27.2589L51.5053 27.2268C51.1305 27.1983 50.7557 27.1626 50.3809 27.1092L51.077 27.1199C52.9117 27.1234 54.725 26.7027 54.8 26.6813C55.3783 26.5529 55.9601 26.4209 56.5312 26.264L56.9346 26.1357C70.1525 22.6054 70.049 18.0053 69.9919 17.4883C70.0026 17.1531 69.8491 16.743 69.5243 16.3008C68.996 15.5876 68.2928 15.2346 67.7395 15.01C66.9471 14.689 66.0726 14.5 65.1409 14.4644C64.3521 14.4323 63.5561 14.4109 62.785 14.5179C61.8927 14.632 61.0145 14.8531 60.1971 15.067C58.7586 15.4593 57.3272 15.8551 55.903 16.2937C54.2574 16.8001 52.7654 17.228 51.1876 17.3599C50.5094 17.4241 49.8348 17.4919 49.1494 17.5667L47.0042 17.7878C46.3938 17.8413 45.7834 17.9019 45.1658 17.9697L44.7732 18.0125C44.0664 18.0945 43.3347 18.1765 42.6208 18.3405C41.3465 18.6116 40.2506 18.9788 39.2833 19.4531C39.0869 19.5458 38.8763 19.6385 38.6622 19.7241L38.473 19.8026C38.523 19.4923 38.4801 19.1964 38.2767 18.9289C38.1232 18.7292 37.984 18.5224 37.8447 18.3191C37.7484 18.1801 37.6627 18.0339 37.5378 17.827C37.3522 17.5346 37.8483 17.0925 37.8483 17.0925C37.8697 17.0746 37.8912 17.0639 37.9197 17.0461C38.3766 16.8821 38.5729 16.5397 38.5515 16.069C38.5194 15.2489 38.2088 14.55 37.4807 14.1363C37.138 13.9366 37.0452 13.6834 36.9738 13.3411C36.9381 13.1699 36.7561 12.8918 36.6383 12.8882C36.242 12.8811 35.9386 12.66 35.5852 12.5602L35.1355 12.4817L34.6929 12.5566C34.3395 12.66 34.0325 12.8811 33.6291 12.8811C33.5185 12.8847 33.3364 13.1628 33.2936 13.334C33.2258 13.6834 33.1258 13.9331 32.7867 14.1256C32.0585 14.5393 31.748 15.2382 31.7123 16.0619C31.6837 16.529 31.8801 16.8749 32.337 17.0425C32.3655 17.0532 32.3905 17.0675 32.4048 17.0818C32.4048 17.0818 32.9045 17.5275 32.7189 17.8163C32.5904 18.0267 32.5047 18.1729 32.4119 18.3084C32.2691 18.5188 32.1228 18.7185 31.9764 18.9218C31.7766 19.1857 31.7337 19.4852 31.7766 19.7919L31.5874 19.717C31.3732 19.6207 31.1662 19.5351 30.9734 19.4389C29.9989 18.9646 28.9067 18.5937 27.6359 18.312C26.9256 18.1587 26.1867 18.0731 25.487 17.9911L25.0944 17.9412C24.484 17.8663 23.8665 17.8092 23.2561 17.7486L21.1108 17.5239C20.429 17.4491 19.7508 17.3706 19.069 17.31C17.4949 17.1745 16.01 16.743 14.3573 16.2331C12.9366 15.7945 11.5052 15.388 10.0738 15.01C9.25998 14.7853 8.38188 14.5571 7.4895 14.4394C6.71491 14.3396 5.91891 14.3538 5.13718 14.3824C4.20554 14.4216 3.32386 14.5999 2.53857 14.9208C1.98172 15.149 1.27495 15.4949 0.75023 16.2117C0.421834 16.6467 0.268346 17.0639 0.271915 17.3991C0.214803 17.9091 0.100578 22.5127 13.3114 26.075L13.7148 26.1963C14.2859 26.3567 14.8641 26.4958 15.4424 26.6242C15.5209 26.6385 17.3307 27.0699 19.169 27.0699L19.8686 27.0664C19.4938 27.1163 19.1154 27.152 18.7371 27.1769L18.3087 27.209C17.7376 27.2589 17.1593 27.291 16.5846 27.3302C15.9136 27.3766 15.2425 27.4265 14.5714 27.48L14.0003 27.5228C12.9366 27.6084 11.8764 27.694 10.8163 27.8366C10.4772 27.883 10.1309 27.9186 9.79541 27.9472C8.73169 28.0577 7.63584 28.1789 6.56855 28.5284C5.16216 28.992 3.5416 29.5804 2.17804 30.6929C1.38561 31.3384 0.925138 32.105 0.818052 32.9787C0.810913 33.025 0.793068 33.2033 0.843042 33.5136C1.10719 35.1147 3.16322 38.8411 16.5382 38.8589C17.3414 38.8589 18.1838 38.8446 19.0476 38.8197L19.9757 38.8375C20.8752 38.8161 21.764 38.7377 22.66 38.6592L23.1097 38.6129L23.3311 38.6022L24.1021 38.5166C24.4412 38.4845 24.7874 38.4488 25.1301 38.3989C26.4508 38.2277 27.8429 37.9139 29.3957 37.4397C30.5629 37.0759 31.8836 36.6088 32.8831 35.5604C33.2793 35.1503 33.5792 34.6226 33.8326 34.0057C33.7112 34.5334 33.6077 35.0434 33.4935 35.5747C33.4185 36.7087 33.2972 37.9318 33.2543 39.0764C33.2401 39.5079 33.2579 39.9429 33.2508 40.378C33.2508 40.378 32.6761 56.2856 35.1283 61.7807C37.5949 56.2892 36.9524 40.3816 36.9524 40.3816C36.9452 39.9501 36.9595 39.5115 36.9524 39.08C36.9167 37.9389 36.7953 36.7158 36.7239 35.5782C36.6097 35.0541 36.5097 34.5334 36.3884 34.0128C36.6383 34.6297 36.9381 35.161 37.3343 35.5711C38.3231 36.6195 39.6509 37.0938 40.8146 37.4504C42.3673 37.9353 43.763 38.2563 45.0802 38.4274C45.4264 38.4702 45.7655 38.5166 46.1118 38.5487L46.8828 38.6378H47.097L47.5503 38.6913C48.4462 38.7698 49.335 38.8446 50.2381 38.8767L51.1626 38.8589C52.0265 38.8874 52.8725 38.9017 53.672 38.9053C67.0506 38.9195 69.1138 35.1967 69.3815 33.5992C69.4315 33.2889 69.4172 33.1071 69.4101 33.0643C69.3065 32.1906 68.8497 31.4239 68.0572 30.7678C66.6937 29.6588 65.0767 29.0704 63.6703 28.6033ZM1.47127 17.4633C1.47127 17.3278 1.54623 17.146 1.714 16.9284C1.98171 16.5683 2.37793 16.2901 2.98118 16.0441C3.64869 15.7802 4.384 15.6233 5.17287 15.5912C5.49413 15.5841 5.81181 15.5698 6.13307 15.5662C6.53643 15.5662 6.93621 15.5805 7.32529 15.6411C8.14985 15.7481 8.98513 15.9621 9.75971 16.1725C11.1804 16.554 12.5975 16.957 14.0039 17.3884C15.7173 17.9162 17.2736 18.3726 18.9691 18.5153C19.6402 18.5723 20.3112 18.6436 20.9716 18.7185L23.1383 18.9432C23.7416 19.0074 24.3448 19.068 24.9481 19.1322L25.3478 19.1821C26.0475 19.2677 26.7185 19.3426 27.3718 19.4852C28.5533 19.7491 29.5527 20.0843 30.4416 20.5158C30.5593 20.5799 30.695 20.637 30.8235 20.6976C30.8413 20.744 30.8556 20.8189 30.8663 20.8688C29.4492 20.4337 25.8154 19.5672 17.4984 18.6757C17.4485 18.665 12.4154 18.0232 8.92444 16.6111C8.7067 16.5326 3.84858 14.8317 1.47484 17.5346C1.47127 17.5025 1.47127 17.474 1.47127 17.4633ZM1.57122 18.0018C3.72721 15.1883 8.74954 16.9391 8.79951 16.9463C12.3298 18.3762 17.4056 19.0216 17.4592 19.0288C26.1331 19.963 29.7241 20.8831 30.9556 21.2753C30.9806 21.3823 31.0127 21.5 31.0377 21.6176C28.4426 20.7761 17.6912 19.5672 17.2165 19.5102C15.8993 19.3533 14.7249 19.2998 13.6576 19.3105L13.6612 19.3033C11.5802 19.0823 9.48486 18.0553 9.46345 18.041C5.94746 16.3008 2.93478 18.0089 1.92103 18.7257C1.7497 18.4404 1.64261 18.1943 1.57122 18.0018ZM2.11022 19.0216C3.04543 18.3619 5.93318 16.6895 9.30639 18.3691C9.36707 18.394 10.3558 18.8826 11.6587 19.2606C9.88108 19.5137 8.2391 19.2855 8.22482 19.2855C6.49003 19.0537 4.84448 19.4602 3.41667 20.3909C2.81699 19.8882 2.39578 19.4246 2.11022 19.0216ZM3.69509 20.6192C5.04437 19.7669 6.53643 19.4103 8.17484 19.6314C8.22125 19.6421 8.92088 19.7348 9.87394 19.7313C7.43952 20.2875 6.09024 21.2396 5.47628 21.7959C4.76237 21.3965 4.18411 20.9936 3.69509 20.6192ZM5.81182 21.9742C6.93622 21.0257 10.2059 19.0216 17.1772 19.8668C17.2986 19.881 29.078 21.204 31.1412 22.0277C31.159 22.0741 31.1626 22.1169 31.1733 22.1668C16.5561 19.7883 11.8051 21.1683 10.4058 22.7552C10.0703 23.1296 9.95246 23.4897 9.92391 23.7572C8.23195 23.1688 6.88981 22.559 5.81182 21.9742ZM10.2702 23.882C10.2773 23.6645 10.3451 23.3471 10.6842 22.9762C11.316 22.2773 12.9437 21.4251 17.0415 21.2753C14.1788 21.5855 12.7117 22.3451 12.0049 23.1474C11.6409 23.5575 11.4909 23.9498 11.4338 24.2743C11.0198 24.1459 10.6485 24.0139 10.2702 23.882ZM13.2828 24.8198C12.7581 24.6772 12.2584 24.5239 11.7765 24.3812C11.8193 24.0995 11.9478 23.7429 12.2798 23.3756C13.422 22.0919 17.4342 20.3196 31.2804 22.5804C31.2875 22.6197 31.2982 22.6553 31.3054 22.6945C28.9995 22.7445 27.0648 22.6161 27.0291 22.609C17.7269 22.0277 14.5857 23.2045 13.597 24.2992C13.4185 24.4953 13.3364 24.6665 13.2828 24.8198ZM15.7101 25.451C15.1533 25.3262 14.5857 25.1943 14.0324 25.0409L13.6327 24.9125C13.6255 24.9125 13.6219 24.9125 13.6184 24.9125C13.6576 24.802 13.7362 24.6629 13.8825 24.506C14.6714 23.668 17.4306 22.3593 27.0041 22.962C27.154 22.9691 28.9959 23.1011 31.2304 23.0547C29.0887 24.1387 25.1658 23.6787 25.1194 23.6716C20.0542 23.1617 17.991 24.0603 17.1451 24.9018C16.8845 25.1622 16.756 25.4082 16.6667 25.6329C16.1028 25.5437 15.7244 25.4546 15.7101 25.451ZM19.2796 25.8718C18.5229 25.8682 17.6412 25.7826 17.0237 25.6971C17.1022 25.5259 17.2093 25.3405 17.4092 25.1408C18.2123 24.3634 20.1863 23.5361 25.0801 24.0318C25.2586 24.0532 29.2636 24.5132 31.4839 23.3221C31.566 23.5967 31.6445 23.8677 31.7373 24.1459C29.949 24.2885 27.1933 24.8733 25.8369 25.1978L24.3983 25.5473L23.9486 25.6115C23.3989 25.6899 22.8456 25.7755 22.2852 25.8076C21.5284 25.8575 20.7646 25.8575 20.0007 25.8647L19.2796 25.8718ZM2.02812 33.2925C2.01027 33.1855 2.01741 33.1142 2.01741 33.1142C2.08166 32.5615 2.38508 32.0765 2.93835 31.6236C4.14485 30.6466 5.64048 30.1081 6.94336 29.6766C7.88215 29.3664 8.86734 29.2594 9.92035 29.1489C10.2702 29.1203 10.6164 29.0776 10.9662 29.0312C12.0049 28.8993 13.0544 28.8172 14.0967 28.7317L14.6678 28.6853C15.3317 28.6283 15.9957 28.589 16.6632 28.5391C17.2414 28.4999 17.8233 28.4571 18.4015 28.4179L18.812 28.3893C19.376 28.3501 19.9507 28.3073 20.5254 28.1932C21.5427 28.0042 22.6528 27.751 24.0307 27.4016L25.0551 27.1341C26.7292 26.6919 30.7771 25.8361 32.3655 25.8112C32.4619 26.0251 32.5583 26.2177 32.6547 26.3924C32.6154 26.4923 32.5761 26.6064 32.5333 26.7312C30.0096 27.0557 26.2509 27.694 20.6718 28.9599C20.6146 28.9706 14.8463 30.1509 10.4915 29.8407C10.4237 29.8371 3.80217 29.7087 2.50643 34.2803C2.16733 33.8416 2.05667 33.4779 2.02812 33.2925ZM2.78129 34.5869C3.83787 30.0582 10.4165 30.1937 10.4772 30.1866C14.8748 30.4968 20.6825 29.3165 20.7432 29.3058C26.1903 28.072 29.9097 27.4337 32.4262 27.1056C32.3691 27.2982 32.3263 27.505 32.2763 27.7332C27.511 28.532 21.0537 29.9583 20.6646 30.0404C19.1583 30.3613 17.8518 30.75 16.6882 31.1708L16.6846 31.1636C14.318 31.7092 11.6373 31.3027 11.6087 31.3027C6.8327 30.5717 4.1163 34.159 3.46307 35.1682C3.18108 34.9685 2.95977 34.7795 2.78129 34.5869ZM3.75577 35.3572C4.38043 34.4051 6.97192 30.9354 11.5516 31.6522C11.6302 31.6629 13.033 31.8661 14.7071 31.777C12.776 32.8503 10.7199 33.2069 10.6985 33.2105C8.71027 33.6063 7.06473 34.701 5.84038 36.3307C4.95157 36.0276 4.28049 35.6924 3.75577 35.3572ZM6.20447 36.4448C7.36813 34.9292 8.88161 33.9379 10.7627 33.5635C10.8199 33.5492 11.7087 33.3959 12.8616 32.9894C10.3915 34.5227 9.22428 36.1203 8.69956 37.051C7.73222 36.8727 6.90766 36.6658 6.20447 36.4448ZM14.2145 37.6037C12.1763 37.5217 10.4915 37.3469 9.07793 37.108C10.0381 35.5105 12.958 32.0266 20.7396 30.3863C20.8324 30.3649 27.3789 28.9314 32.2085 28.1076C32.1835 28.3038 32.1585 28.4927 32.1406 28.6924C19.3225 31.2884 15.3496 34.2196 14.4322 36.3235C14.2002 36.8441 14.1752 37.2721 14.2145 37.6037ZM16.0706 37.6465C15.5459 37.6429 15.0569 37.6287 14.575 37.6073C14.5322 37.3327 14.5393 36.9476 14.7499 36.4697C15.2496 35.3286 16.9416 33.5778 22.1174 31.7199C18.4765 33.2853 16.9023 34.8579 16.3383 36.1488C16.0813 36.7372 16.0385 37.2435 16.0706 37.6465ZM18.3194 37.6215C17.6769 37.6287 17.0237 37.6501 16.4276 37.6465C16.3919 37.2899 16.4276 36.8335 16.6632 36.2914C17.4128 34.6012 20.5325 31.6201 32.1299 29.131C32.1264 29.4199 32.1335 29.7123 32.1656 30.019C22.1995 32.8146 19.219 35.3144 18.4908 36.9297C18.3694 37.2043 18.3302 37.4254 18.3194 37.6215ZM22.9634 37.4147L22.5529 37.4611C21.6819 37.5359 20.811 37.6073 19.8079 37.6322L19.0333 37.618C18.9048 37.618 18.7978 37.618 18.6728 37.618C18.6871 37.4611 18.7228 37.2792 18.8299 37.0403C19.4224 35.7851 21.9604 33.2568 32.212 30.3756C32.2799 30.7821 32.3941 31.1922 32.5583 31.6022C31.9443 31.7841 31.516 31.8839 31.4981 31.8839C25.8654 33.1998 23.9057 34.9899 23.2597 36.2558C23.0241 36.7122 22.9634 37.1045 22.9634 37.4147ZM26.9041 36.8549C26.2331 37.0046 25.5941 37.1223 24.9695 37.2043C24.4412 37.2721 23.9165 37.3184 23.3882 37.3683L23.3132 37.3755C23.3239 37.1116 23.3775 36.7978 23.5702 36.4091C24.1877 35.211 26.076 33.5029 31.5731 32.2227C31.6338 32.2084 32.0728 32.1015 32.6939 31.9267C32.7439 32.0587 32.8046 32.2156 32.8474 32.4046C29.2315 33.5992 27.7109 34.9756 27.179 36.024C27.0255 36.3378 26.947 36.6017 26.9041 36.8549ZM32.8581 33.2426C32.6368 33.8702 32.362 34.3587 32.0086 34.7296C31.2126 35.5675 30.106 35.9562 29.0423 36.2879C28.4248 36.4733 27.8501 36.6195 27.2932 36.7586C27.3325 36.5803 27.3896 36.3984 27.5003 36.188C27.9964 35.211 29.4349 33.9058 32.8938 32.7647C32.9081 32.9323 32.9045 33.0999 32.8581 33.2426ZM32.5761 20.3339C32.3156 19.3283 33.133 18.7078 33.133 18.7078L33.5256 24.6273L32.5761 20.3339ZM34.3109 34.6511L35.0784 60.0298C32.8795 46.005 34.3109 34.6511 34.3109 34.6511ZM56.6097 24.9732L56.2064 25.098C55.6495 25.2513 55.0927 25.3797 54.5323 25.5081C54.5216 25.5116 54.1396 25.5972 53.5685 25.6864C53.4828 25.4653 53.3508 25.2157 53.0938 24.9518C52.2442 24.1138 50.1846 23.208 45.1194 23.7073C45.073 23.7144 41.1537 24.1601 39.0155 23.0725C41.2429 23.126 43.0884 22.9976 43.2383 22.9869C52.8082 22.4021 55.5639 23.7251 56.3527 24.5667C56.5027 24.7271 56.5741 24.8626 56.6169 24.9767C56.6205 24.9732 56.6169 24.9732 56.6097 24.9732ZM58.8121 24.3349C58.7586 24.0104 58.6087 23.6146 58.2482 23.2045C57.545 22.4021 56.085 21.639 53.2187 21.3181C57.3165 21.475 58.9406 22.3344 59.576 23.0404C59.908 23.4042 59.9722 23.7322 59.9794 23.9462C59.5974 24.0781 59.2226 24.2065 58.8121 24.3349ZM64.7768 21.8708C64.1593 21.3145 62.8207 20.3553 60.3792 19.8026C61.3429 19.799 62.0354 19.7099 62.0854 19.7063C63.7202 19.4888 65.2159 19.8525 66.5616 20.7012C66.0726 21.0756 65.4907 21.4714 64.7768 21.8708ZM66.8471 20.4658C65.4193 19.5316 63.7774 19.125 62.0426 19.3533C62.0211 19.3533 60.372 19.5744 58.6051 19.314C59.9008 18.9432 60.8967 18.4618 60.9574 18.4297C64.3342 16.7573 67.2148 18.4404 68.1465 19.1072C67.8609 19.5066 67.4361 19.9702 66.8471 20.4658ZM39.4225 20.7155C39.5581 20.6584 39.6938 20.5978 39.8151 20.5372C40.6968 20.1057 41.6998 19.7705 42.8849 19.5137C43.5417 19.3747 44.2056 19.2962 44.916 19.2142L45.3158 19.1678C45.9155 19.1001 46.5223 19.0395 47.1255 18.9824L49.2922 18.7613C49.9597 18.69 50.6308 18.6151 51.3019 18.5616C52.9938 18.419 54.5501 17.9733 56.2671 17.4419C57.677 17.014 59.0941 16.6182 60.5148 16.2331C61.293 16.0227 62.1282 15.8123 62.9492 15.7053C63.3419 15.6554 63.7452 15.6376 64.145 15.6411C64.4627 15.6411 64.784 15.6518 65.0981 15.6661C65.8869 15.7018 66.6259 15.8515 67.2862 16.1261C67.8966 16.3686 68.2857 16.6432 68.557 17.0104C68.714 17.2208 68.7961 17.4063 68.7961 17.5382C68.7961 17.5489 68.7925 17.5774 68.789 17.6202C66.4188 14.9173 61.5571 16.6039 61.3394 16.6788C57.8484 18.0874 52.8082 18.7078 52.7582 18.715C44.4341 19.5851 40.8003 20.4516 39.3868 20.883C39.4011 20.8331 39.4153 20.7618 39.4225 20.7155ZM39.294 21.2931C40.5326 20.9009 44.1236 19.9844 52.8011 19.0787C52.851 19.0716 57.9376 18.4368 61.4643 17.014C61.5107 16.9998 66.5437 15.2667 68.6926 18.0838C68.6212 18.2835 68.5141 18.526 68.3392 18.8112C67.329 18.0945 64.3199 16.3793 60.8039 18.1195C60.7861 18.1266 58.6836 19.15 56.6097 19.364V19.3711C55.5389 19.3533 54.3609 19.4068 53.0402 19.5637C52.5762 19.61 41.8069 20.7939 39.219 21.6283C39.2476 21.5142 39.2761 21.393 39.294 21.2931ZM39.1155 22.0384C41.1787 21.2147 52.9617 19.9274 53.0831 19.9202C60.0543 19.0858 63.324 21.0934 64.4413 22.0491C63.3633 22.6339 62.0176 23.233 60.3256 23.8285C60.2971 23.5539 60.1828 23.1973 59.8509 22.8158C58.4516 21.2289 53.7113 19.8347 39.0798 22.1775C39.0941 22.1276 39.1048 22.0848 39.1155 22.0384ZM38.9763 22.5911C52.8189 20.3624 56.8275 22.1454 57.9733 23.4291C58.2981 23.8035 58.4231 24.1566 58.4659 24.4347C57.9876 24.5845 57.4843 24.7271 56.9596 24.8698C56.906 24.72 56.8239 24.5453 56.6454 24.3527C55.6638 23.258 52.5226 22.0741 43.2169 22.6268C43.1812 22.6304 41.2501 22.7587 38.9335 22.7017C38.9513 22.6696 38.962 22.6304 38.9763 22.5911ZM38.7621 23.3364C40.9788 24.5274 44.9874 24.0817 45.1623 24.0603C50.0597 23.5753 52.0372 24.4062 52.8296 25.1907C53.0331 25.3832 53.1366 25.5758 53.208 25.7434C52.594 25.8326 51.7195 25.911 50.9592 25.911L50.2381 25.9074C49.4778 25.8967 48.7175 25.8932 47.9536 25.8397C47.3932 25.804 46.84 25.7256 46.2938 25.6364L45.8476 25.5794L44.4091 25.2228C43.0491 24.8912 40.2934 24.3028 38.5051 24.153C38.6015 23.8784 38.68 23.6039 38.7621 23.3364ZM41.1751 36.2986C40.115 35.9669 39.0048 35.5711 38.2124 34.7367C37.8662 34.3694 37.5806 33.8809 37.3664 33.2497C37.3165 33.1035 37.3129 32.9395 37.3236 32.7683C40.7825 33.9237 42.221 35.2252 42.7172 36.213C42.8207 36.4162 42.8778 36.6017 42.9242 36.78C42.3602 36.6373 41.7891 36.4876 41.1751 36.2986ZM46.8221 37.404C46.2974 37.3505 45.7655 37.3006 45.2372 37.2293C44.6161 37.1437 43.9736 37.0296 43.3097 36.8798C43.2633 36.6231 43.1883 36.3485 43.0348 36.0454C42.5065 35.0077 40.9895 33.6134 37.3771 32.4153C37.42 32.2298 37.4771 32.0658 37.5306 31.9339C38.1482 32.1193 38.5872 32.2227 38.6479 32.2334C44.1414 33.5314 46.0261 35.2359 46.6365 36.4448C46.8328 36.8263 46.8864 37.1473 46.9006 37.4111L46.8221 37.404ZM51.1841 37.6536L50.4095 37.6643C49.4029 37.6394 48.5319 37.5645 47.6609 37.4896L47.2576 37.4468C47.2505 37.133 47.1898 36.7407 46.9613 36.2843C46.3117 35.0113 44.3627 33.214 38.73 31.8911C38.7157 31.8911 38.2874 31.7841 37.6663 31.6022C37.8376 31.1993 37.9518 30.7856 38.0197 30.3791C48.2642 33.2854 50.795 35.8207 51.384 37.0759C51.4911 37.3184 51.5303 37.5038 51.541 37.6643C51.4125 37.6572 51.3054 37.6536 51.1841 37.6536ZM51.8944 37.6643C51.8837 37.4753 51.848 37.2435 51.7231 36.9725C50.9949 35.3536 48.025 32.8539 38.0661 30.0225C38.1018 29.723 38.1125 29.4306 38.1053 29.1417C49.6956 31.6557 52.8082 34.644 53.5507 36.3342C53.7898 36.8798 53.8184 37.3434 53.7791 37.6964C53.1866 37.6964 52.5476 37.6821 51.8944 37.6643ZM55.6424 37.6572C55.157 37.675 54.6679 37.6893 54.1432 37.6928C54.1789 37.2935 54.1361 36.7907 53.8755 36.1916C53.3079 34.9007 51.7481 33.3246 48.1036 31.7449C53.2758 33.617 54.9678 35.3857 55.4568 36.5197C55.671 36.9975 55.6817 37.3826 55.6424 37.6572ZM55.9958 37.6536C56.0315 37.3256 56.0101 36.8941 55.7816 36.3699C54.8642 34.2695 50.9021 31.3277 38.0875 28.6996C38.0732 28.4999 38.0518 28.3109 38.0197 28.1148C42.8528 28.9492 49.3922 30.4041 49.4885 30.4255C57.2558 32.0801 60.165 35.5711 61.1288 37.1758C59.7224 37.4076 58.034 37.5823 55.9958 37.6536ZM61.5107 37.1152C60.9931 36.1845 59.833 34.5905 57.3701 33.05C58.5123 33.453 59.4011 33.6134 59.4547 33.6241C61.3358 34.0057 62.8493 34.997 64.0165 36.5197C63.3026 36.7372 62.4816 36.944 61.5107 37.1152ZM64.3735 36.4091C63.1527 34.7759 61.5036 33.6776 59.5296 33.2782C59.5011 33.2711 57.445 32.9038 55.521 31.834C57.1987 31.9267 58.5944 31.727 58.6765 31.7163C63.2526 31.0067 65.8441 34.4871 66.4652 35.4463C65.9369 35.7744 65.2658 36.106 64.3735 36.4091ZM66.7686 35.2573C66.1047 34.2375 63.4026 30.643 58.623 31.3633C58.598 31.3704 55.9137 31.7627 53.5471 31.2135L53.5507 31.2242C52.3799 30.7928 51.0734 30.4076 49.5671 30.0867C49.1816 30.0011 42.735 28.5569 37.9661 27.7475C37.9269 27.5192 37.8769 27.3089 37.8269 27.1127C40.3363 27.4551 44.0486 28.1005 49.4957 29.345C49.5599 29.3557 55.364 30.5574 59.7616 30.2543C59.8188 30.2579 66.3974 30.1438 67.4468 34.6725C67.2576 34.8579 67.0435 35.0505 66.7686 35.2573ZM68.1964 33.3816C68.1643 33.5635 68.0536 33.9272 67.7181 34.3658C66.4331 29.7979 59.808 29.9013 59.7367 29.9013C55.389 30.208 49.6242 29.0134 49.5671 29.0027C43.9879 27.7225 40.2328 27.0735 37.7091 26.7419C37.677 26.6171 37.6341 26.4994 37.5984 26.4031C37.6877 26.2319 37.7841 26.0358 37.884 25.8219C39.476 25.8504 43.5167 26.7205 45.1908 27.1626L46.2224 27.4372C47.586 27.7867 48.6997 28.0399 49.717 28.2324C50.2953 28.3465 50.8664 28.3893 51.4304 28.4321L51.8444 28.4607C52.4227 28.5106 53.0045 28.5498 53.5864 28.5926C54.2432 28.6425 54.9142 28.6853 55.5746 28.7424L56.1457 28.7887C57.188 28.8814 58.2339 28.9599 59.2726 29.099C59.6153 29.1453 59.9687 29.1845 60.3185 29.2238C61.3644 29.3343 62.3531 29.4413 63.2919 29.7551C64.6019 30.183 66.0904 30.7286 67.2933 31.7128C67.8466 32.1692 68.1429 32.6542 68.2143 33.2069C68.2107 33.2033 68.2143 33.2711 68.1964 33.3816Z" fill="#035D07"/>
<path d="M54.8001 26.6777C55.3783 26.5493 55.9602 26.4174 56.5313 26.2605L56.9347 26.1321C70.1526 22.6018 70.0491 18.0018 69.992 17.4847C70.0027 17.1495 69.8492 16.7394 69.5244 16.2973C68.9961 15.5841 68.2929 15.2311 67.7396 15.0064C66.9472 14.6855 66.0726 14.4965 65.141 14.4608C64.3521 14.4287 63.5561 14.4073 62.7851 14.5143C61.8927 14.6284 61.0146 14.8495 60.1972 15.0634C58.7587 15.4557 57.3273 15.8515 55.9031 16.2901C54.2575 16.7965 52.7654 17.2244 51.1877 17.3563C50.5095 17.4205 49.8349 17.4883 49.1495 17.5632L47.0042 17.7843C46.3938 17.8377 45.7835 17.8984 45.1659 17.9661L44.7733 18.0089C44.0665 18.0909 43.3348 18.1729 42.6209 18.337C41.3465 18.608 40.2507 18.9753 39.2833 19.4495C39.087 19.5423 38.8764 19.635 38.6622 19.7206L38.4731 19.799C38.523 19.4888 38.4802 19.1928 38.2767 18.9254C38.1233 18.7257 37.984 18.5188 37.8448 18.3156C37.7484 18.1765 37.6628 18.0303 37.5378 17.8235C37.3522 17.5311 37.8484 17.0889 37.8484 17.0889C37.8698 17.0711 37.8912 17.0604 37.9198 17.0425C38.3767 16.8785 38.573 16.5362 38.5516 16.0655C38.5195 15.2453 38.2089 14.5464 37.4807 14.1327C37.1381 13.933 37.0452 13.6799 36.9739 13.3375C36.9382 13.1664 36.7561 12.8882 36.6383 12.8847C36.2421 12.8775 35.9387 12.6564 35.5853 12.5566L35.1356 12.4781H35.1284V61.7736C37.595 56.282 36.9524 40.3744 36.9524 40.3744C36.9453 39.9429 36.9596 39.5043 36.9524 39.0729C36.9167 37.9318 36.7954 36.7086 36.724 35.5711C36.6098 35.0469 36.5098 34.5263 36.3885 34.0057C36.6383 34.6226 36.9382 35.1539 37.3344 35.564C38.3231 36.6124 39.651 37.0866 40.8147 37.4432C42.3674 37.9282 43.7631 38.2491 45.0803 38.4203C45.4265 38.4631 45.7656 38.5094 46.1118 38.5415L46.8829 38.6307H47.097L47.5504 38.6842C48.4463 38.7626 49.3351 38.8375 50.2382 38.8696L51.1627 38.8518C52.0266 38.8803 52.8725 38.8946 53.6721 38.8981C67.0507 38.9124 69.1139 35.1896 69.3816 33.592C69.4316 33.2818 69.4173 33.0999 69.4101 33.0571C69.3066 32.1835 68.8497 31.4168 68.0573 30.7607C66.6937 29.6481 65.0767 29.0597 63.6703 28.5926C62.6031 28.2396 61.5108 28.1219 60.4471 28.0006C60.108 27.965 59.7617 27.9329 59.4262 27.8865C58.3696 27.751 57.2987 27.6583 56.2386 27.5692L55.671 27.5264C55 27.4693 54.336 27.423 53.6614 27.3766C53.0903 27.3338 52.512 27.2946 51.9337 27.2482L51.5054 27.2161C51.1306 27.1876 50.7558 27.152 50.381 27.0985L51.0771 27.1092C52.9118 27.1199 54.7287 26.6991 54.8001 26.6777ZM56.6098 24.9732L56.2065 25.098C55.6496 25.2513 55.0928 25.3797 54.5324 25.5081C54.5217 25.5116 54.1397 25.5972 53.5686 25.6864C53.4829 25.4653 53.3508 25.2157 53.0938 24.9518C52.2443 24.1138 50.1847 23.208 45.1195 23.7073C45.0731 23.7144 41.1538 24.1601 39.0156 23.0725C41.243 23.126 43.0885 22.9976 43.2384 22.9869C52.8083 22.4021 55.564 23.7251 56.3528 24.5666C56.5027 24.7271 56.5741 24.8626 56.617 24.9767C56.6205 24.9732 56.617 24.9732 56.6098 24.9732ZM58.8122 24.3349C58.7587 24.0104 58.6088 23.6146 58.2482 23.2045C57.545 22.4021 56.0851 21.639 53.2188 21.3181C57.3166 21.475 58.9407 22.3344 59.5761 23.0404C59.9081 23.4042 59.9723 23.7322 59.9795 23.9462C59.5975 24.0781 59.2227 24.2065 58.8122 24.3349ZM64.7769 21.8708C64.1594 21.3145 62.8208 20.3553 60.3792 19.8026C61.343 19.799 62.0355 19.7099 62.0855 19.7063C63.7203 19.4888 65.216 19.8525 66.5617 20.7012C66.0726 21.0756 65.4908 21.4714 64.7769 21.8708ZM66.8472 20.4658C65.4194 19.5316 63.7774 19.125 62.0426 19.3533C62.0212 19.3533 60.3721 19.5744 58.6052 19.314C59.9009 18.9432 60.8968 18.4618 60.9575 18.4297C64.3343 16.7573 67.2149 18.4404 68.1465 19.1072C67.861 19.5066 67.4362 19.9702 66.8472 20.4658ZM39.4226 20.7154C39.5582 20.6584 39.6938 20.5978 39.8152 20.5372C40.6969 20.1057 41.6999 19.7705 42.885 19.5137C43.5418 19.3747 44.2057 19.2962 44.9161 19.2142L45.3158 19.1678C45.9155 19.1001 46.5223 19.0395 47.1256 18.9824L49.2923 18.7613C49.9598 18.69 50.6309 18.6151 51.3019 18.5616C52.9939 18.419 54.5502 17.9733 56.2672 17.4419C57.6771 17.014 59.0942 16.6182 60.5149 16.2331C61.293 16.0227 62.1283 15.8123 62.9493 15.7053C63.342 15.6554 63.7453 15.6376 64.1451 15.6411C64.4628 15.6411 64.784 15.6518 65.0982 15.6661C65.887 15.7018 66.6259 15.8515 67.2863 16.1261C67.8967 16.3686 68.2858 16.6432 68.557 17.0104C68.7141 17.2208 68.7962 17.4063 68.7962 17.5382C68.7962 17.5489 68.7926 17.5774 68.789 17.6202C66.4189 14.9173 61.5572 16.6039 61.3394 16.6788C57.8485 18.0874 52.8083 18.7078 52.7583 18.715C44.4342 19.5851 40.8004 20.4516 39.3869 20.883C39.4011 20.8331 39.4154 20.7618 39.4226 20.7154ZM39.294 21.2931C40.5327 20.9009 44.1236 19.9844 52.8011 19.0787C52.8511 19.0716 57.9377 18.4368 61.4644 17.014C61.5108 16.9997 66.5438 15.2667 68.6927 18.0838C68.6213 18.2835 68.5142 18.526 68.3393 18.8112C67.3291 18.0945 64.32 16.3793 60.804 18.1195C60.7862 18.1266 58.6837 19.15 56.6098 19.364V19.3711C55.539 19.3533 54.361 19.4067 53.0403 19.5637C52.5763 19.61 41.807 20.7939 39.2191 21.6283C39.2476 21.5142 39.2762 21.393 39.294 21.2931ZM39.1156 22.0384C41.1788 21.2147 52.9618 19.9274 53.0831 19.9202C60.0544 19.0858 63.3241 21.0934 64.4414 22.0491C63.3634 22.6339 62.0177 23.233 60.3257 23.8285C60.2971 23.5539 60.1829 23.1973 59.851 22.8158C58.4517 21.2289 53.7114 19.8347 39.0799 22.1775C39.0942 22.1276 39.1049 22.0848 39.1156 22.0384ZM38.9764 22.5911C52.819 20.3624 56.8276 22.1454 57.9734 23.4291C58.2982 23.8035 58.4231 24.1566 58.466 24.4347C57.9877 24.5845 57.4844 24.7271 56.9596 24.8698C56.9061 24.72 56.824 24.5453 56.6455 24.3527C55.6639 23.258 52.5227 22.0741 43.217 22.6268C43.1813 22.6303 41.2502 22.7587 38.9335 22.7017C38.9514 22.6696 38.9621 22.6304 38.9764 22.5911ZM41.1752 36.2986C40.115 35.9669 39.0049 35.5711 38.2125 34.7367C37.8662 34.3694 37.5807 33.8809 37.3665 33.2497C37.3165 33.1035 37.313 32.9395 37.3237 32.7683C40.7825 33.9236 42.2211 35.2252 42.7172 36.213C42.8208 36.4162 42.8779 36.6017 42.9243 36.78C42.3603 36.6373 41.7892 36.4876 41.1752 36.2986ZM46.8222 37.404C46.2975 37.3505 45.7656 37.3006 45.2373 37.2293C44.6162 37.1437 43.9737 37.0296 43.3098 36.8798C43.2634 36.6231 43.1884 36.3485 43.0349 36.0454C42.5066 35.0077 40.9896 33.6134 37.3772 32.4153C37.42 32.2298 37.4772 32.0658 37.5307 31.9339C38.1482 32.1193 38.5873 32.2227 38.648 32.2334C44.1415 33.5314 46.0262 35.2359 46.6366 36.4448C46.8329 36.8263 46.8864 37.1473 46.9007 37.4111L46.8222 37.404ZM51.1842 37.6536L50.4096 37.6643C49.403 37.6394 48.532 37.5645 47.661 37.4896L47.2577 37.4468C47.2505 37.133 47.1898 36.7407 46.9614 36.2843C46.3117 35.0113 44.3628 33.214 38.7301 31.8911C38.7158 31.8911 38.2874 31.7841 37.6663 31.6022C37.8377 31.1993 37.9519 30.7856 38.0197 30.3791C48.2643 33.2854 50.7951 35.8207 51.384 37.0759C51.4911 37.3184 51.5304 37.5038 51.5411 37.6643C51.4126 37.6572 51.3055 37.6536 51.1842 37.6536ZM53.7828 37.6964C53.1867 37.6964 52.5477 37.6786 51.8945 37.6607C51.8838 37.4718 51.8481 37.24 51.7231 36.969C50.995 35.35 48.0251 32.8503 38.0661 30.019C38.1018 29.7194 38.1125 29.427 38.1054 29.1382C49.6957 31.6522 52.8083 34.6404 53.5507 36.3307C53.7899 36.8798 53.8185 37.3434 53.7828 37.6964ZM55.6425 37.6572C55.157 37.675 54.668 37.6893 54.1433 37.6928C54.179 37.2935 54.1361 36.7907 53.8756 36.1916C53.308 34.9007 51.7481 33.3246 48.1036 31.7449C53.2759 33.617 54.9678 35.3857 55.4569 36.5197C55.671 36.9975 55.6818 37.3826 55.6425 37.6572ZM55.9959 37.6536C56.0316 37.3256 56.0101 36.8941 55.7817 36.3699C54.8643 34.2695 50.9022 31.3277 38.0876 28.6996C38.0733 28.4999 38.0519 28.3109 38.0197 28.1148C42.8529 28.9492 49.3922 30.4041 49.4886 30.4255C57.2559 32.0801 60.1651 35.5711 61.1288 37.1758C59.7225 37.4076 58.0341 37.5823 55.9959 37.6536ZM61.5108 37.1152C60.9932 36.1845 59.8331 34.5905 57.3701 33.05C58.5124 33.4529 59.4012 33.6134 59.4547 33.6241C61.3359 34.0057 62.8494 34.997 64.0166 36.5197C63.3027 36.7372 62.4817 36.944 61.5108 37.1152ZM64.3735 36.4091C63.1528 34.7759 61.5036 33.6776 59.5297 33.2782C59.5011 33.2711 57.4451 32.9038 55.5211 31.834C57.1988 31.9267 58.5945 31.727 58.6766 31.7163C63.2527 31.0067 65.8442 34.4871 66.4653 35.4463C65.937 35.7744 65.2659 36.106 64.3735 36.4091ZM66.7687 35.2573C66.1048 34.2375 63.4026 30.643 58.623 31.3633C58.5981 31.3704 55.9138 31.7627 53.5472 31.2135L53.5507 31.2242C52.3799 30.7928 51.0735 30.4076 49.5672 30.0867C49.1816 30.0011 42.7351 28.5569 37.9662 27.7475C37.9269 27.5192 37.877 27.3089 37.827 27.1127C40.3364 27.4551 44.0487 28.1005 49.4958 29.345C49.56 29.3557 55.3641 30.5574 59.7617 30.2543C59.8188 30.2579 66.3975 30.1438 67.4469 34.6725C67.2577 34.8579 67.0436 35.0505 66.7687 35.2573ZM51.4269 28.4286L51.8409 28.4571C52.4192 28.507 53.001 28.5462 53.5829 28.589C54.2397 28.6389 54.9107 28.6817 55.5711 28.7388L56.1422 28.7852C57.1845 28.8779 58.2304 28.9563 59.2691 29.0954C59.6118 29.1417 59.9652 29.181 60.315 29.2202C61.3609 29.3307 62.3496 29.4377 63.2884 29.7515C64.5984 30.1794 66.0869 30.725 67.2898 31.7092C67.8431 32.1656 68.1394 32.6506 68.2108 33.2033C68.2108 33.2033 68.2108 33.2747 68.1965 33.3816C68.1644 33.5635 68.0537 33.9272 67.7182 34.3658C66.4332 29.7979 59.8081 29.9013 59.7367 29.9013C55.389 30.208 49.6243 29.0134 49.5672 29.0027C43.988 27.7225 40.2328 27.0735 37.7092 26.7419C37.6771 26.6171 37.6342 26.4994 37.5985 26.4031C37.6878 26.2319 37.7841 26.0358 37.8841 25.8219C39.4761 25.8504 43.5168 26.7205 45.1909 27.1626L46.2225 27.4372C47.5861 27.7867 48.6998 28.0399 49.7171 28.2324C50.2918 28.343 50.8629 28.3858 51.4269 28.4286ZM50.2382 25.9074C49.4779 25.8967 48.7176 25.8932 47.9537 25.8397C47.3933 25.804 46.84 25.7256 46.2939 25.6364L45.8477 25.5794L44.4092 25.2228C43.0492 24.8912 40.2935 24.3028 38.5052 24.153C38.598 23.8749 38.6765 23.6003 38.7586 23.3328C40.9753 24.5239 44.9839 24.0781 45.1588 24.0567C50.0562 23.5718 52.0337 24.4026 52.8261 25.1871C53.0296 25.3797 53.1331 25.5722 53.2045 25.7398C52.5905 25.829 51.716 25.9074 50.9557 25.9074H50.2382Z" fill="#035D07"/>
</svg>
