<svg width="157" height="120" viewBox="0 0 157 120" fill="none" xmlns="http://www.w3.org/2000/svg">
<path d="M9.83368 82.2119C10.1526 81.9802 10.5642 82.015 11.0048 82.5362C11.4686 83.0749 11.7005 83.3413 12.1701 83.8683C13.5268 85.3858 14.1355 85.6638 14.8892 85.0441C15.266 84.7371 15.1849 84.1406 13.7587 82.542C12.7847 81.4474 12.3035 80.8856 11.3643 79.7446C10.9005 79.1828 10.6396 79.1365 10.0598 79.5361C9.94964 79.6114 9.89747 79.6461 9.79311 79.7214C9.24234 80.0979 8.83649 79.8257 8.63938 79.5824C8.45965 79.3508 8.30891 78.928 8.87128 78.5573C10.3207 77.5959 11.2309 77.5321 12.3441 78.8874C13.3354 80.1037 13.8456 80.6945 14.8834 81.8528C16.327 83.4687 17.0691 85.0557 15.7473 86.1908C15.0631 86.7758 14.3964 86.8395 13.7239 86.5789C13.8282 87.106 13.8224 87.8415 13.005 88.5423C11.6831 89.6775 9.91486 88.7334 8.32051 86.9496C7.17839 85.6754 6.61601 85.0209 5.52026 83.6772C4.29696 82.1772 4.65642 81.3489 6.10582 80.3875C6.69718 79.9995 7.06243 80.289 7.24795 80.5265C7.52624 80.8798 7.52624 81.2852 7.06823 81.6038C6.95807 81.6791 6.9059 81.7138 6.80154 81.7891C6.22178 82.1887 6.19279 82.4494 6.68558 83.0517C7.68857 84.2796 8.20457 84.8761 9.24814 86.0461C10.7729 87.7546 11.4454 87.882 11.8223 87.5693C12.6687 86.8685 12.3962 86.0576 11.1555 84.6734C10.6801 84.1406 10.4424 83.8683 9.97284 83.3239C9.64817 82.9474 9.43944 82.5015 9.83368 82.2119Z" fill="#035D07"/>
<path d="M23.1795 95.1314C20.2749 92.861 18.8661 91.639 16.1586 89.0211C15.8745 89.2817 15.7296 89.4092 15.4397 89.6698C14.1236 90.8629 14.5468 91.5811 16.7789 93.5676C17.7413 94.4248 18.2283 94.8418 19.2139 95.6585C19.7879 96.1334 20.0778 96.0929 20.559 95.5658C20.9822 95.1083 21.4228 95.282 21.6431 95.4616C21.991 95.7396 22.0605 96.0871 21.6721 96.5272C20.9764 97.3149 20.0024 97.981 18.4428 96.6894C17.3993 95.8264 16.8833 95.3805 15.8629 94.4711C13.2192 92.1139 12.3438 90.4111 14.3381 88.662C14.9063 88.1639 15.1904 87.9149 15.7528 87.4168C17.7471 85.6677 19.3125 86.5306 21.7127 88.662C21.8808 88.8126 21.962 88.8821 22.1301 89.0327C24.5245 91.1351 25.4811 92.502 23.7419 94.4827C23.5215 94.7434 23.4056 94.8766 23.1795 95.1314ZM20.8083 89.5771C18.7501 87.7469 18.1066 87.3646 17.121 88.1523C19.3705 90.3242 20.5358 91.3552 22.9244 93.2838C23.7361 92.2471 23.1389 91.6216 21.2373 89.9478C21.0576 89.803 20.9764 89.7277 20.8083 89.5771Z" fill="#035D07"/>
<path d="M28.4783 104.057C28.2348 103.906 27.9392 103.57 28.3044 103.049C29.748 101.01 30.4727 99.9907 31.9163 97.952C30.6061 97.1238 29.9567 96.6894 28.6755 95.7974C27.8754 95.2356 27.5797 95.2994 27.1971 95.7685C26.2521 96.9384 25.7767 97.5292 24.8317 98.6991C23.5272 100.315 22.3329 99.7416 21.2835 98.9424C20.8835 98.6354 20.6052 98.2589 20.953 97.8593C21.1154 97.674 21.4922 97.4944 22.1126 97.9694C22.6865 98.4095 23.0866 98.5022 23.5098 97.9983C24.4838 96.8342 24.965 96.255 25.939 95.0908C26.942 93.8919 27.6203 93.4981 29.3364 94.7028C31.0873 95.9307 31.9801 96.5156 33.7889 97.6218C32.096 100.101 31.2496 101.34 29.5625 103.813C29.2494 104.282 28.8668 104.3 28.4783 104.057Z" fill="#035D07"/>
<path d="M41.7958 106.292C38.5259 104.844 36.9142 104.033 33.7777 102.244C33.5748 102.568 33.4704 102.724 33.2675 103.049C32.3283 104.526 32.8849 105.093 35.4416 106.419C36.5431 106.993 37.0997 107.265 38.2187 107.798C38.8738 108.111 39.1347 107.995 39.4593 107.369C39.7434 106.825 40.2014 106.877 40.4507 106.993C40.845 107.172 40.9957 107.485 40.7348 108.006C40.2768 108.933 39.5231 109.813 37.7548 108.974C36.5663 108.412 35.9808 108.116 34.8097 107.514C31.7775 105.939 30.5658 104.555 32.0094 102.371C32.421 101.751 32.624 101.444 33.0356 100.825C34.4792 98.6411 36.1373 99.0582 38.8854 100.483C39.0767 100.581 39.1695 100.634 39.3608 100.726C42.0973 102.122 43.3321 103.199 42.1784 105.533C42.0219 105.84 41.9465 105.991 41.7958 106.292ZM38.2361 101.583C35.8764 100.361 35.1865 100.164 34.456 101.172C37.0649 102.661 38.3984 103.344 41.1001 104.595C41.6103 103.396 40.8971 102.95 38.7172 101.838C38.5259 101.734 38.4332 101.682 38.2361 101.583Z" fill="#035D07"/>
<path d="M41.6044 110.833C41.3609 110.729 40.9666 110.468 41.2507 109.883C42.4334 107.41 43.019 106.176 44.2017 103.703C44.48 103.118 44.8626 103.165 45.1003 103.263C45.5931 103.472 45.5931 103.865 45.4308 104.219C45.0076 105.145 44.7988 105.609 44.3756 106.535C46.857 107.549 48.1093 108.012 50.6486 108.835C50.9907 107.879 51.1646 107.404 51.5067 106.448C51.727 105.84 52.127 105.858 52.3705 105.933C52.8923 106.095 52.8981 106.483 52.7706 106.848C51.8893 109.431 51.4487 110.723 50.5675 113.3C50.4515 113.648 50.1964 113.955 49.6572 113.787C49.3094 113.677 48.9963 113.41 49.1934 112.866C49.6051 111.725 49.808 111.157 50.2196 110.016C47.6455 109.182 46.37 108.713 43.8538 107.682C43.3494 108.788 43.0943 109.339 42.5899 110.445C42.3928 110.856 42.074 111.03 41.6044 110.833Z" fill="#035D07"/>
<path d="M60.3076 110.92C60.3714 110.636 60.4061 110.491 60.4699 110.207C60.5975 109.646 60.4699 109.46 59.8148 109.321C58.7944 109.101 58.2842 108.985 57.2696 108.736C55.3448 108.261 54.852 108.284 54.7013 108.771C54.5738 109.188 54.3419 109.489 53.7969 109.333C53.5418 109.258 53.1997 109.032 53.4026 108.4C53.8838 106.923 55.4028 106.981 57.4726 107.491C58.5683 107.763 59.1191 107.891 60.2264 108.122C61.7918 108.458 62.0411 109.217 61.7222 110.734C61.299 112.756 61.0845 113.764 60.6612 115.785C60.5279 116.416 60.0583 116.416 59.7974 116.364C59.5191 116.312 59.1133 116.121 59.264 115.455C59.2814 115.374 59.293 115.333 59.3104 115.252C58.3596 115.681 56.9914 115.652 55.5883 115.31C54.8636 115.13 54.4984 115.038 53.7737 114.847C52.4692 114.499 51.7677 113.399 52.2025 112.067C52.9852 109.675 54.7651 109.651 57.774 110.358C58.7886 110.601 59.293 110.711 60.3076 110.92ZM57.4668 111.58C54.7999 110.954 54.052 110.891 53.5476 112.541C53.3968 113.028 53.7795 113.549 54.1447 113.642C54.8578 113.833 55.2173 113.92 55.9304 114.099C59.1075 114.876 59.7742 113.265 60.0293 112.142C58.9973 111.933 58.4871 111.823 57.4668 111.58Z" fill="#035D07"/>
<path d="M67.1313 114.105C65.6587 113.926 65.2935 114.152 64.8818 114.968C64.2499 116.231 63.0556 116.972 61.8265 116.758C61.2351 116.654 60.9626 116.358 61.0438 115.982C61.1598 115.403 61.7917 115.478 62.0642 115.53C62.7251 115.646 63.3107 114.98 63.4324 114.754C63.4788 114.661 63.502 114.615 63.5542 114.528C63.7687 114.105 64.0818 113.763 64.4818 113.491C63.3165 112.999 62.9512 112.275 63.1715 111.128C63.5484 109.142 64.9572 109.061 68.0589 109.425C69.1721 109.559 69.7286 109.611 70.8418 109.703C71.3114 109.744 71.4215 110.167 71.3983 110.427C71.1606 113.161 71.0447 114.528 70.8128 117.256C70.778 117.69 70.378 117.835 70.0591 117.806C69.5373 117.76 69.3518 117.412 69.3808 117.134C69.4967 116.034 69.5489 115.484 69.6649 114.383C68.6503 114.285 68.1401 114.227 67.1313 114.105ZM64.5224 111.215C64.3426 112.263 64.6789 112.536 66.9806 112.825C68.1053 112.964 68.6677 113.028 69.7924 113.132C69.8852 112.234 69.9315 111.783 70.0243 110.879C68.9286 110.775 68.3836 110.717 67.2936 110.584C65.4384 110.352 64.6789 110.288 64.5224 111.215Z" fill="#035D07"/>
<path d="M80.6804 117.986C77.3351 118.078 75.6306 117.47 75.706 114.893C75.7292 114.163 75.735 113.798 75.7582 113.069C75.8336 110.497 77.4105 110.051 80.4368 109.97C81.4572 109.941 81.9732 109.918 82.9936 109.86C84.7329 109.761 85.0807 110.816 85.1735 111.835C85.2315 112.513 84.8314 112.646 84.5705 112.669C84.3097 112.686 83.8864 112.576 83.8401 111.968C83.7879 111.273 83.6081 111.082 82.9472 111.117C81.9616 111.175 81.4688 111.192 80.4774 111.221C77.8453 111.29 77.138 111.424 77.1206 113.144C77.1148 113.833 77.109 114.175 77.0974 114.864C77.0742 116.584 77.8279 116.81 80.6456 116.729C81.7007 116.7 82.2283 116.677 83.2893 116.619C83.9966 116.578 84.1589 116.358 84.1125 115.663C84.0662 115.055 84.4836 114.887 84.7561 114.87C85.1793 114.841 85.4692 115.044 85.5214 115.611C85.6141 116.636 85.4286 117.748 83.5096 117.858C82.3733 117.928 81.8109 117.951 80.6804 117.986Z" fill="#035D07"/>
<path d="M93.5452 109.252C93.5916 109.489 93.5394 109.877 92.8842 109.987C91.8001 110.173 91.2551 110.26 90.1652 110.41C90.5478 112.866 90.7391 114.094 91.1218 116.555C91.2029 117.088 90.7275 117.297 90.3913 117.337C90.055 117.383 89.5738 117.302 89.5042 116.764C89.168 114.302 88.9998 113.069 88.6694 110.607C87.5678 110.74 87.0171 110.798 85.9155 110.897C85.5503 110.931 85.1154 110.844 85.0691 110.341C85.0227 109.837 85.4285 109.68 85.7938 109.651C88.5476 109.402 89.9217 109.223 92.6523 108.754C93.2031 108.661 93.4756 108.91 93.5452 109.252Z" fill="#035D07"/>
<path d="M100.926 115.223C99.2617 115.634 98.4269 115.825 96.7514 116.161C96.9601 117.094 97.0644 117.557 97.2731 118.49C97.4239 119.173 96.9543 119.353 96.6702 119.41C96.1194 119.515 95.8933 119.15 95.8179 118.773C95.0237 114.928 94.6294 113.005 93.8352 109.165C93.7076 108.534 94.0961 108.371 94.328 108.325C94.8439 108.227 95.0527 108.574 95.1396 108.962C95.157 109.043 95.1686 109.084 95.186 109.165C95.8121 108.435 96.9195 107.914 98.2123 107.601C98.4153 107.549 98.5196 107.526 98.7283 107.474C101.668 106.744 103.332 106.744 104.167 109.194C104.404 109.889 104.52 110.236 104.758 110.931C105.593 113.387 104.109 114.43 100.926 115.223ZM99.0588 108.69C98.8501 108.742 98.7457 108.765 98.537 108.817C95.8933 109.454 95.5513 110.798 95.8643 112.211C96.1078 113.3 96.2296 113.845 96.4731 114.933C98.1254 114.603 98.9486 114.418 100.589 114.007C103.227 113.352 103.935 112.941 103.395 111.279C103.181 110.619 103.077 110.288 102.862 109.634C102.329 107.978 101.575 108.064 99.0588 108.69Z" fill="#035D07"/>
<path d="M114.881 106.055C111.616 107.526 109.953 108.174 106.578 109.304C106.712 109.657 106.775 109.837 106.909 110.19C107.512 111.812 108.306 111.777 110.973 110.769C112.121 110.335 112.695 110.109 113.831 109.634C114.498 109.356 114.567 109.095 114.266 108.458C113.999 107.902 114.336 107.607 114.591 107.497C114.985 107.323 115.339 107.416 115.599 107.931C116.063 108.858 116.295 109.97 114.498 110.723C113.292 111.227 112.683 111.47 111.466 111.933C108.3 113.132 106.457 113.121 105.599 110.676C105.355 109.981 105.233 109.64 104.984 108.945C104.12 106.506 105.459 105.574 108.323 104.485C108.521 104.41 108.619 104.369 108.822 104.294C111.663 103.199 113.338 102.979 114.504 105.302C114.654 105.603 114.73 105.753 114.881 106.055ZM108.816 105.649C106.358 106.582 105.784 106.952 106.144 108.128C108.944 107.19 110.329 106.663 113.06 105.487C112.411 104.352 111.587 104.589 109.321 105.464C109.118 105.533 109.019 105.568 108.816 105.649Z" fill="#035D07"/>
<path d="M117.437 105.638C117.982 106.645 118.254 107.149 118.799 108.163C118.956 108.458 118.962 108.846 118.446 109.095C118.167 109.229 117.733 109.275 117.483 108.788C116.202 106.315 115.559 105.082 114.277 102.603C114.028 102.116 114.289 101.821 114.556 101.693C114.822 101.566 115.228 101.543 115.489 102.024C116.028 103.02 116.295 103.518 116.834 104.514C117.454 104.213 117.762 104.062 118.37 103.75C119.936 102.95 120.736 101.595 120.394 101.039C119.466 99.5389 120.121 98.7744 121.229 98.12C121.756 97.8072 122.104 97.8825 122.319 98.2068C122.446 98.398 122.579 98.7976 121.93 99.1798C121.345 99.5274 121.292 99.759 121.634 100.292C121.704 100.396 121.739 100.454 121.808 100.558C122.261 101.253 121.646 102.383 121.066 103.078C121.988 102.933 123.322 102.898 123.762 103.582C123.832 103.686 123.866 103.744 123.936 103.848C124.278 104.381 124.533 104.445 125.165 104.068C125.867 103.657 126.197 103.923 126.325 104.114C126.545 104.439 126.452 104.781 125.867 105.128C124.643 105.852 123.519 106.066 122.591 104.566C122.22 103.964 120.452 104.103 118.997 104.838C118.376 105.18 118.063 105.336 117.437 105.638Z" fill="#035D07"/>
<path d="M131.462 101.421C128.609 103.396 126.777 103.842 125.299 101.688C124.882 101.074 124.667 100.767 124.25 100.153C122.771 97.9924 123.861 96.753 126.441 94.9634C126.621 94.8417 126.708 94.778 126.888 94.6506C129.444 92.8494 131.068 92.1949 132.819 94.1641C133.317 94.7201 133.566 95.0039 134.065 95.5599C135.822 97.5291 134.778 99.0871 131.955 101.074C131.758 101.213 131.659 101.282 131.462 101.421ZM131.166 100.072C133.514 98.421 134.042 97.7608 132.882 96.4113C132.424 95.8785 132.192 95.612 131.734 95.0734C130.575 93.7239 129.873 94.1062 127.682 95.6468C127.502 95.7742 127.409 95.8379 127.23 95.9653C124.98 97.5233 124.453 98.0214 125.473 99.4462C125.879 100.02 126.082 100.303 126.488 100.877C127.502 102.307 128.279 102.076 130.685 100.408C130.87 100.274 130.969 100.205 131.166 100.072Z" fill="#035D07"/>
<path d="M136.726 91.998C136.448 91.72 136.448 91.3435 136.935 90.9034C137.45 90.4458 137.706 90.2141 138.21 89.7392C139.665 88.3839 139.914 87.7874 139.19 87.1387C138.83 86.8144 138.193 86.9476 136.656 88.3724C135.601 89.3512 135.068 89.8261 133.989 90.747C133.456 91.1987 133.444 91.442 133.92 91.9459C134.007 92.0385 134.053 92.0849 134.14 92.1775C134.592 92.6583 134.355 93.0405 134.123 93.2317C133.908 93.4054 133.485 93.5676 133.044 93.0753C131.891 91.8127 131.711 90.996 132.992 89.9014C134.14 88.9226 134.708 88.4187 135.821 87.382C137.375 85.934 139.01 85.1058 140.326 86.241C141.004 86.826 141.132 87.4399 140.912 88.0886C141.462 87.9496 142.245 87.8916 143.063 88.5924C144.384 89.7276 143.526 91.4594 141.81 93.0579C140.581 94.2047 139.955 94.7549 138.691 95.8379C137.277 97.0426 136.39 96.753 135.236 95.4846C134.766 94.9692 135.027 94.6217 135.247 94.4421C135.578 94.1699 135.995 94.1467 136.378 94.5464C136.465 94.639 136.511 94.6854 136.598 94.778C137.074 95.2819 137.346 95.2993 137.914 94.8128C139.074 93.8224 139.648 93.3127 140.773 92.2702C142.419 90.7412 142.5 90.0983 142.135 89.7798C141.317 89.05 140.471 89.3743 139.143 90.6138C138.627 91.0945 138.372 91.3262 137.845 91.7953C137.508 92.1196 137.068 92.3397 136.726 91.998Z" fill="#035D07"/>
<path d="M146.617 79.8875C146.367 79.7137 146.24 79.6268 145.991 79.4589C145.498 79.123 145.254 79.1751 144.79 79.7369C144.066 80.6172 143.7 81.0516 142.953 81.903C141.538 83.5189 141.323 83.9765 141.729 84.3066C142.077 84.5904 142.263 84.9205 141.845 85.3607C141.648 85.5692 141.26 85.7951 140.738 85.3549C139.515 84.324 140.303 82.9571 141.828 81.2254C142.634 80.3045 143.034 79.8353 143.816 78.8797C144.93 77.5186 145.805 77.5708 147.15 78.4569C148.942 79.6384 149.834 80.235 151.626 81.4165C152.182 81.7872 151.945 82.2389 151.771 82.4648C151.579 82.7081 151.185 83.0266 150.605 82.627C150.536 82.5806 150.495 82.5517 150.426 82.5053C150.374 83.5768 149.672 84.8626 148.634 86.0441C148.101 86.658 147.828 86.9592 147.289 87.5558C146.309 88.633 144.883 88.8358 143.782 87.9149C141.799 86.2526 142.634 84.6193 144.819 82.0652C145.544 81.208 145.909 80.7736 146.617 79.8875ZM145.863 82.8355C143.927 85.1001 143.503 85.7487 144.889 86.8666C145.295 87.1967 145.996 87.0461 146.269 86.7507C146.802 86.16 147.069 85.8646 147.596 85.2622C149.927 82.5922 148.675 81.3064 147.695 80.6288C146.97 81.5265 146.605 81.9667 145.863 82.8355Z" fill="#035D07"/>
<path d="M4.83013 75.6305L0.25 67.0703L5.78093 75.0456L5.79832 76.1171L4.83013 75.6305Z" fill="#035D07"/>
<path d="M152.414 75.6305L157 67.0703L151.463 75.0456L151.446 76.1171L152.414 75.6305Z" fill="#035D07"/>
<path d="M112.683 42.2062C111.778 42.4494 110.839 42.6695 109.906 42.878C109.854 42.8896 106.955 43.5788 103.963 43.5731L102.839 43.5557L102.763 44.4766C103.378 44.5692 103.998 44.6271 104.613 44.6793L108.254 44.9457C109.297 45.021 110.335 45.0963 111.373 45.1832L112.503 45.27C114.132 45.409 115.819 45.5538 117.454 45.7681C117.889 45.8318 118.336 45.8782 118.782 45.9245L119.124 45.9593C119.947 46.0461 120.765 46.1446 121.576 46.272C121.675 43.99 121.588 41.7023 121.35 39.4261C118.979 40.3412 116.335 41.2042 113.361 41.9977L112.683 42.2062Z" fill="#3DD95E"/>
<path d="M38.3577 42.9128C38.3054 42.9302 38.2357 42.9302 38.1719 42.9302C38.2357 43.8106 38.3112 44.6793 38.3867 45.5365C38.3867 45.5944 38.3867 45.6466 38.3809 45.7045C38.4622 45.6929 38.5319 45.6929 38.6016 45.6813C38.6074 45.6697 38.6074 45.6581 38.6074 45.6466C38.5203 44.7488 38.4332 43.8279 38.3577 42.9128Z" fill="#3DD95E"/>
<path d="M104.108 62.6454L102.583 62.6744C101.111 62.6165 99.586 62.4948 98.2699 62.379L97.551 62.2921L97.1568 62.2805L95.9509 62.1358C95.3885 62.0836 94.8377 62.0141 94.287 61.9388C92.1998 61.6724 89.962 61.1569 87.44 60.3693C85.608 59.8133 83.5382 59.0777 81.9844 57.4386C81.4337 56.8594 80.9641 56.0834 80.5408 55.0466L79.6538 55.3304C79.7698 55.8227 79.8741 56.315 79.9727 56.8073L80.1988 57.8614C80.2278 58.4464 80.2799 59.1182 80.3321 59.7901C80.4249 61.0064 80.5234 62.2748 80.5582 63.4621C80.564 63.8385 80.564 64.2266 80.5582 64.6204C80.5582 64.9332 80.5524 65.2517 80.5582 65.5645C80.564 65.7266 80.8829 74.7792 80.3205 83.9418C80.9119 83.8549 81.5032 83.7448 82.0946 83.6C83.9035 83.1657 85.7587 82.9572 87.498 82.2506C87.9212 82.0768 88.3792 81.9726 88.8488 81.793C88.0951 81.6424 87.411 82.0826 86.7095 82.1579C86.2457 82.21 85.8399 82.4938 85.3934 82.627C85.2543 82.6792 84.9644 82.5054 84.9122 82.5575C84.6223 82.9456 84.3267 82.6734 84.0194 82.6328C84.118 82.627 84.2281 82.5865 84.3151 82.5691C84.1296 82.5054 83.9556 82.5517 83.7701 82.5402C83.3701 82.5112 82.9816 82.8008 82.5758 82.5459C82.8947 82.4533 83.1961 82.3316 83.5034 82.2564C84.9702 81.9262 86.4196 81.6135 87.8632 81.2833C88.0893 81.2544 88.3038 81.1096 88.5531 81.0169C88.2864 81.069 88.0314 81.1096 87.7647 81.1617C89.759 80.6115 91.6896 79.9512 93.5101 79.0998C93.5797 79.0825 93.6492 79.0767 93.713 79.0361C93.3072 79.2678 92.9419 79.5342 92.5361 79.7485C91.4519 80.3509 90.2808 80.8779 89.4286 81.8683C89.1561 82.1695 89.0112 82.6965 89.2547 82.8413C89.4518 82.963 89.7011 83.0382 89.9214 83.0614C89.6141 83.183 89.33 83.351 89.0111 83.4726C87.1501 84.1618 85.2601 84.5731 83.3353 84.8916C82.3091 85.0596 81.2597 85.1522 80.2278 85.3028C80.1292 86.7218 80.0017 88.1292 79.8509 89.5019C82.0076 89.386 84.1528 89.0733 86.2863 88.5115C88.4488 87.9497 90.6403 87.411 92.7042 86.606C97.7249 84.6252 102.293 81.9031 106.358 78.3353C110.259 74.8834 113.523 70.9624 115.964 66.3811C116.677 65.0258 117.303 63.6358 117.872 62.2284C115.153 62.5354 111.952 62.7207 108.172 62.7149C106.874 62.7207 105.511 62.6976 104.108 62.6454Z" fill="#3DD95E"/>
<path d="M75.4682 65.5934C75.474 65.2691 75.4682 64.9563 75.4682 64.6435C75.4682 64.2555 75.4624 63.8617 75.4739 63.4736C75.5203 62.2573 75.6189 60.9658 75.7175 59.7205C75.7696 59.0719 75.816 58.4348 75.8624 57.8035L75.9494 57.427C76.0943 56.7262 76.2392 56.037 76.4016 55.3304L75.5145 55.0524C75.0913 56.0833 74.6159 56.8652 74.0651 57.4328L73.9318 57.5718C72.407 59.095 70.3837 59.8074 68.6038 60.3576C66.105 61.1221 63.8671 61.6318 61.751 61.904C61.1944 61.9851 60.6437 62.0372 60.0987 62.0894L58.829 62.2342L58.4985 62.2516L57.5883 62.3442C56.2201 62.46 54.8113 62.5759 53.4256 62.6106L51.9415 62.5817C50.521 62.6222 49.1586 62.6396 47.8599 62.6454C43.8944 62.6396 40.5491 62.4369 37.7373 62.0952C38.7751 64.3018 39.8708 66.468 41.471 68.3503C44.5669 71.9875 47.5469 75.729 51.7501 78.1905C53.5068 79.2098 55.078 80.4551 56.997 81.2312C57.4492 81.4107 57.8782 81.6655 58.3826 81.8914C57.8898 81.1848 57.0318 81.0343 56.4172 80.5651C56.0404 80.2524 55.4896 80.1597 55.0548 79.928C54.9272 79.8527 54.8055 79.5168 54.7243 79.5226C54.2373 79.5979 54.1851 79.1519 53.988 78.9029C54.0808 78.9434 54.1909 79.0071 54.2837 79.0708C54.1677 78.8797 53.9938 78.7755 53.8778 78.6423C53.5764 78.3237 53.0546 78.2542 52.9386 77.7445C53.2459 77.8835 53.5938 78.0341 53.8837 78.2021C55.2635 79.0535 56.6317 79.8991 57.9884 80.7389C58.2145 80.8779 58.458 80.9416 58.7304 81.0458C57.2405 80.0323 55.7911 79.0477 54.3533 78.0515C52.9328 77.0669 51.7675 75.7753 50.5558 74.5417C52.011 75.9433 53.5706 77.2464 55.2345 78.428C57.1593 79.7948 59.3218 80.791 61.5539 81.6308C63.9657 82.5517 66.3601 83.4494 68.9632 83.7043C71.2069 83.9185 73.4506 84.1676 75.6943 84.2255C75.1203 74.9645 75.4624 65.7498 75.4682 65.5934Z" fill="#3DD95E"/>
<path d="M39.54 45.5654C40.8677 45.409 42.2127 45.2932 43.7607 45.1716L44.6883 45.1021C45.7783 45.0152 46.8682 44.9341 47.9582 44.8588L48.6713 44.8125C49.3728 44.7661 50.0685 44.714 50.7584 44.6619L51.4541 44.6098C52.0687 44.5692 52.6948 44.5171 53.3152 44.4302L53.2514 43.5035L52.1093 43.5093C49.6627 43.5093 47.1871 43.0228 46.2363 42.8143C45.2391 42.5884 44.3057 42.3684 43.3839 42.1135L42.7403 41.9166C41.7257 41.6444 40.7807 41.3664 39.8589 41.0884C39.8357 41.5865 39.8009 42.0904 39.7951 42.5884C39.685 43.573 39.598 44.575 39.54 45.5654Z" fill="#3DD95E"/>
<path d="M62.7709 83.0613C61.4722 82.7138 60.162 82.2389 58.759 82.3605C58.3126 82.4011 57.8198 82.7138 57.8835 82.9976C57.9647 83.2988 58.0864 83.6231 58.301 83.8143C59.072 84.4571 59.8489 85.1174 60.6664 85.6908C61.6694 86.4147 62.7709 86.9939 63.942 87.382C66.6611 88.3029 69.4846 88.7372 72.2964 89.1485C73.5661 89.3338 74.8415 89.4554 76.1054 89.5191C75.9605 88.1639 75.8387 86.768 75.746 85.3664C71.3456 85.0826 67.0495 84.2139 62.7709 83.0613Z" fill="#3DD95E"/>
<path d="M42.1605 25.8792C44.01 21.6454 46.5899 17.9155 49.8192 14.6316C50.9265 13.6702 52.0861 12.7667 53.234 11.8226C53.5065 11.6025 53.8311 11.3766 54.1674 11.1971C54.4457 11.0291 54.724 10.9249 55.008 10.8206C53.3789 12.0601 51.6744 13.1894 50.37 14.8459C51.1816 14.1798 51.9469 13.5254 52.7354 12.8709C52.7528 12.8999 52.7876 12.9346 52.805 12.9462C52.4107 13.2763 52.0281 13.6238 51.6396 13.954C51.6454 13.9598 51.657 13.9945 51.6802 14.0177C52.4977 13.4153 53.3151 12.8246 54.1268 12.2164C54.179 12.2743 54.208 12.3554 54.2601 12.4018C53.9297 12.6103 53.6108 12.813 53.2572 13.0562C53.3441 13.0852 53.3847 13.1084 53.4079 13.1084C53.4601 13.1431 53.4949 13.1721 53.5934 13.2532C50.4163 15.8247 47.5871 18.6743 45.3782 22.103C47.1059 19.7341 49.1409 17.6433 51.2338 15.6452C53.3673 13.5949 55.8023 12.0021 58.4112 10.6584C61.0144 9.33213 63.7624 8.35911 66.6207 7.81468C66.0815 8.06952 65.5307 8.28961 64.9625 8.47494C60.9738 9.7028 57.2865 11.5272 53.9529 14.0293C50.5439 16.6008 47.7668 19.7399 45.4246 23.2382C44.6941 24.3328 44.0622 25.468 43.4708 26.6148C43.5288 26.6321 43.581 26.6495 43.6331 26.6611C44.2651 25.4332 44.9898 24.2517 45.7898 23.1165C46.5783 21.9987 47.4248 20.8809 48.3118 19.821C49.1525 18.819 49.9583 17.7707 51.1062 17.0468C52.0339 16.4386 52.7933 15.6162 53.6572 14.9038C54.1732 14.4926 54.6892 14.1161 55.2399 13.676C55.1472 13.676 55.095 13.6586 55.0022 13.6354C55.3791 13.3864 55.698 13.1431 56.0284 12.923C56.6836 12.535 57.3097 12.0832 57.9822 11.7531C58.6374 11.4287 59.3447 11.1913 60.023 10.9422C61.5188 10.3457 62.9682 9.6391 64.5103 9.18734C66.3192 8.65449 68.1976 8.26065 70.0529 7.85523C70.8471 7.69885 71.6414 7.71043 72.4472 7.64672C73.3575 7.56564 74.2561 7.42085 75.1605 7.37451C76.0592 7.32818 76.9636 7.4498 77.868 7.50772C76.4534 7.50772 75.0156 7.57143 73.5836 7.7394C73.2473 7.77994 72.8995 7.75677 72.5806 7.79152C71.5428 7.93631 70.5282 8.22011 69.5137 8.44599C69.4209 8.45178 69.3339 8.46916 69.247 8.49812C69.218 8.49812 69.1832 8.50391 69.16 8.5097C66.7366 9.06571 64.3422 9.78389 62.0289 10.7801C58.4866 12.3265 55.3037 14.4173 52.5325 17.1163C51.8947 17.7476 51.3266 18.4426 50.7294 19.0971C50.3931 19.4561 50.0801 19.821 49.7322 20.1917C49.4423 20.5334 49.1467 20.8809 48.8684 21.2168C47.3784 23.047 46.0507 24.9873 44.926 27.0376C47.3436 27.7731 49.5873 28.3813 51.9353 28.584C52.8861 28.6651 53.8311 28.7693 54.7761 28.8736L59.0838 29.3253C59.9534 29.4122 60.8288 29.4991 61.6985 29.6033L62.3362 29.6786C63.5189 29.8118 64.6727 29.9508 65.7858 30.1941C67.8092 30.6401 69.5485 31.2308 71.1022 31.9895C71.3457 32.1112 71.6124 32.227 71.8849 32.3428L72.1284 32.4471L73.1836 32.8699L73.0792 32.0822C73.0212 31.642 73.0966 31.3003 73.3227 31.0107L73.4676 30.8138C73.6648 30.5416 73.8561 30.2752 74.0474 29.9972C74.146 29.8524 74.2445 29.696 74.3547 29.5106L74.5634 29.1805C74.9402 28.5898 74.4764 27.8426 73.9662 27.3909C73.9199 27.3445 73.8271 27.2866 73.7111 27.2403C73.1894 27.0492 72.9632 26.6843 72.998 26.1109C73.0386 25.1321 73.3343 24.3618 73.8851 23.8116C74.0648 23.632 74.2735 23.4756 74.5112 23.3424C74.6851 23.244 74.8417 23.1223 74.975 22.9949C75.3461 22.6242 75.4794 22.1725 75.5606 21.7439C75.5838 21.6628 75.6765 21.4891 75.7635 21.3848C76.2273 21.3616 76.6215 21.1879 76.9694 21.0373C77.1433 20.962 77.3173 20.8925 77.497 20.8346L78.0883 20.7361L78.7377 20.852C78.8768 20.8925 79.0507 20.9736 79.2305 21.0431C79.5725 21.1937 79.961 21.3558 80.4132 21.3848C80.4885 21.4659 80.5929 21.6512 80.6219 21.7555C80.7378 22.3289 80.9234 22.9196 81.6712 23.354C82.6337 23.9042 83.1207 24.8077 83.1786 26.1109C83.1902 26.4931 83.1033 26.7711 82.9061 26.9739C82.796 27.0839 82.6453 27.1708 82.4539 27.2403C82.309 27.3156 82.2568 27.3445 82.2046 27.3909L82.1003 27.4893C81.4915 28.0975 81.306 28.723 81.6017 29.1921L81.6886 29.3427C81.851 29.6091 81.9727 29.8118 82.1119 30.0145L82.2104 30.1535C82.4133 30.4431 82.6163 30.7327 82.8308 31.0165C83.0511 31.3061 83.1322 31.642 83.0627 32.0822L82.9351 32.9046L84.0019 32.4587C84.3556 32.3197 84.7092 32.1691 85.0397 32.0127C86.576 31.254 88.3095 30.6748 90.3561 30.2346C91.4344 29.9972 92.5476 29.8639 93.6201 29.7365L94.4492 29.6439C95.4406 29.5338 96.432 29.4354 97.4234 29.3485L100.914 28.9894C102.021 28.8678 103.122 28.7577 104.218 28.6535C106.85 28.4334 109.384 27.6978 111.964 26.9044C112.561 26.719 113.158 26.5511 113.755 26.3773C113.639 26.1514 113.535 25.9255 113.419 25.6997C112.694 24.2807 111.778 22.9891 110.885 21.6744C112.01 23.1745 113.013 24.7324 113.894 26.3368C115.031 26.0066 116.144 25.6881 117.251 25.3811C117.095 25.0857 116.938 24.7904 116.77 24.5008C112.874 17.6839 107.679 12.0601 101.314 7.51352C98.9481 5.84549 96.4899 4.36859 93.7882 3.33186C91.7011 2.53259 89.6314 1.62908 87.4863 1.06149C84.1236 0.198513 80.6741 -0.114245 77.1955 0.0363406C76.4766 0.0710913 75.7635 0.129009 75.0446 0.181135C75.0562 0.221677 75.0504 0.268006 75.0562 0.302757C76.0939 0.268006 77.1665 0.117429 78.2101 0.175346C79.9783 0.268015 81.7756 0.476514 83.5613 0.650267C83.9671 0.696601 84.3556 0.771897 84.7614 0.852982C85.0976 0.922483 85.3875 1.07886 85.7006 1.20048C83.4917 0.945645 81.306 0.51706 79.0565 0.835608C80.1813 0.910901 81.2886 0.980398 82.3844 1.08465C82.396 1.13098 82.3786 1.14257 82.3786 1.20048C81.8278 1.14836 81.248 1.1194 80.6973 1.07886C80.6973 1.10782 80.6857 1.13098 80.6857 1.16573C81.7872 1.29894 82.8656 1.46691 83.9497 1.6117C83.9555 1.687 83.9323 1.77387 83.9207 1.84337C83.5091 1.75649 83.0917 1.69279 82.6452 1.59433C82.6858 1.6812 82.7148 1.73333 82.7148 1.7565C82.7322 1.80862 82.7322 1.86075 82.7554 1.99975C78.3376 1.6117 74.0068 1.69279 69.676 2.68897C72.8183 2.15613 75.9606 2.06346 79.1319 2.06925C82.3148 2.08083 85.4165 2.70055 88.4545 3.61565C91.4808 4.54812 94.368 5.87444 96.9943 7.5888C96.3856 7.39188 95.7942 7.14863 95.1913 6.86483C91.1677 4.80296 86.9297 3.44769 82.4597 2.86852C77.8854 2.29513 73.3343 2.64843 68.8701 3.60986C65.0901 4.4265 61.5188 5.81073 58.1851 7.80889C55.3327 9.54642 52.7818 11.6257 50.3932 13.896C49.8192 14.4405 49.1988 14.9444 48.6423 15.5119C48.2654 15.9232 47.9002 16.3402 47.5117 16.7688C47.4538 16.8383 47.3726 16.8962 47.2972 16.9831C46.5609 17.8808 45.9174 18.8133 45.2855 19.7631C44.5608 20.823 43.8882 21.9582 43.1925 23.047C43.1577 23.105 43.1114 23.1629 43.0708 23.2034C43.065 23.186 43.0244 23.1571 43.0244 23.1455C43.2273 22.7401 43.4128 22.3057 43.6563 21.9466C43.981 21.4253 44.3346 20.9272 44.6709 20.4523C44.0853 21.269 43.4302 22.0451 42.9084 22.8965C42.9722 22.7285 43.0592 22.5489 43.1056 22.3694L43.094 22.3926C43.3027 21.9698 43.5288 21.5585 43.7433 21.1531C44.439 20.128 45.1231 19.1086 45.813 18.0893C45.755 18.0429 45.6913 17.9966 45.6333 17.9503C45.5116 18.0951 45.3724 18.2514 45.2449 18.3847C44.8101 18.8712 44.3173 19.3113 43.9404 19.821C43.4244 20.5508 42.9722 21.3269 42.5026 22.074C42.4562 22.0566 42.4098 22.0393 42.3693 22.0045C42.7635 21.3153 43.1345 20.6087 43.5578 19.9311C43.9694 19.2824 44.4506 18.6627 44.8564 18.0082C45.3434 17.2147 45.9 16.4792 46.6363 15.9C47.2624 15.1355 47.8712 14.3594 48.5031 13.5891C48.4509 13.5485 48.393 13.5022 48.3466 13.4559C47.7436 14.1856 47.1465 14.9154 46.5609 15.6509C46.3638 15.8421 46.1667 16.01 46.0044 16.2127C45.6797 16.6298 45.1927 16.8556 44.8506 17.2089C44.2825 17.8402 43.8302 18.5758 43.3664 19.294C42.9664 19.8731 42.6128 20.4755 42.2417 21.0663C42.1953 21.0489 42.1432 21.0083 42.1142 20.991C42.3055 20.655 42.5084 20.3017 42.6707 19.96C42.7403 19.8326 42.7229 19.682 42.7635 19.5604C42.7925 19.4909 42.8041 19.4388 42.8157 19.3982C42.8563 18.709 43.3374 18.2457 43.7317 17.7244C44.7637 16.3691 45.8304 15.0196 46.8856 13.6644C46.6711 13.7339 46.5493 13.8555 46.4334 13.9829C43.3722 17.4059 40.8851 21.1937 38.9429 25.2942C39.9806 25.578 41.0126 25.8676 42.033 26.1746C42.0736 26.0819 42.12 25.9835 42.1605 25.8792ZM78.1753 7.53668C78.3202 7.5193 78.4652 7.50772 78.6101 7.50772C78.784 7.50772 78.9638 7.53088 79.1493 7.54247C78.8188 7.54247 78.4884 7.53668 78.1753 7.53668ZM61.1071 6.46521C63.6871 5.20839 66.4061 4.33962 69.2296 3.80678C70.6964 3.53457 72.1864 3.3029 73.6764 3.13494C75.091 3.00752 76.494 2.78164 77.9492 3.08281C79.1145 3.33765 80.332 3.25077 81.5437 3.35502C82.2452 3.39556 82.9525 3.5114 83.6888 3.60407C83.6077 3.49982 83.5903 3.45928 83.5323 3.36082C84.0135 3.4477 84.4425 3.5114 84.8715 3.59827C85.689 3.7894 86.4949 3.91103 87.2775 4.15429C88.0428 4.39754 88.7559 4.75084 89.4806 5.0578C91.0982 5.73544 92.7389 6.28566 94.2811 7.09071C96.1073 8.02898 97.8524 9.13521 99.5801 10.2299C100.322 10.7048 100.943 11.3245 101.632 11.8689C102.386 12.4886 103.18 13.062 103.934 13.6991C104.369 14.0988 104.734 14.5563 105.163 14.9791C104.021 13.9018 102.833 12.8419 101.563 11.8515C98.2234 9.35529 94.5883 7.47297 90.588 6.28566C83.625 4.29908 76.5578 3.88787 69.3977 4.9883C66.7714 5.38794 64.1799 5.98449 61.7449 7.05017C59.849 7.86102 57.8837 8.585 56.1154 9.58697C55.3443 10.0387 54.6718 10.5658 53.9529 11.0581C56.1908 9.30317 58.5214 7.7336 61.1071 6.46521Z" fill="#3DD95E"/>
<path d="M37.6386 45.7855C37.7197 44.2449 37.6617 42.7391 37.9342 41.1926C37.9748 40.9668 38.0212 40.7409 38.0618 40.5092C36.8327 40.1038 35.6963 39.6926 34.6528 39.2814C34.1716 41.6155 33.9803 43.9379 33.9977 46.2547C35.018 46.0693 36.021 45.9535 36.9544 45.8608C37.1747 45.8376 37.4067 45.8087 37.6386 45.7855Z" fill="#3DD95E"/>
<path d="M48.5379 14.3478C48.5495 14.232 48.5495 14.1683 48.5553 14.0756C48.0103 14.2494 47.9524 14.3594 48.1669 14.7648C47.6915 15.3035 47.1929 15.8363 46.7349 16.3692C46.7407 16.3865 46.7754 16.4271 46.8044 16.4734C47.0131 16.2997 47.2103 16.1665 47.361 16.0101C47.6219 15.7263 47.8364 15.3961 48.0915 15.1181C48.7234 14.4753 49.3786 13.8208 50.0569 13.2242C51.199 12.2107 52.3643 11.2319 53.5528 10.2762C53.8891 9.98663 54.3645 9.82446 54.7761 9.61017C54.8167 9.60438 54.8515 9.56963 54.9269 9.54067C54.7993 9.54067 54.7124 9.53488 54.5037 9.50592C55.5356 8.83987 56.4574 8.20856 57.3909 7.6178C57.1648 7.66413 56.9676 7.73364 56.7995 7.84947C55.4023 8.75878 54.0224 9.6565 52.6658 10.5426C52.1266 10.8901 51.5179 11.1682 51.0541 11.6141C50.3526 12.2802 49.767 13.0621 49.1235 13.7918C48.938 13.9714 48.7524 14.1451 48.5379 14.3478Z" fill="#3DD95E"/>
<path d="M65.2407 2.3774C65.177 2.41794 65.1248 2.47007 65.09 2.50482C65.2697 2.57432 65.4494 2.75387 65.6002 2.70175C66.0698 2.60908 66.551 2.42374 66.8641 2.31949C66.9337 2.05307 66.9394 1.79243 67.0322 1.75189C67.4902 1.55497 67.954 1.38701 68.4178 1.27697C69.2237 1.08584 70.0354 0.952629 70.8296 0.796251C71.4848 0.668832 72.1573 0.564579 72.824 0.460327C69.5658 0.691998 66.4177 1.38122 63.4087 2.67279C64 2.54537 64.5856 2.40058 65.177 2.26737C65.2176 2.29632 65.2291 2.33107 65.2407 2.3774Z" fill="#3DD95E"/>
<path d="M38.9029 42.629C38.9087 42.8723 38.8854 43.1155 38.8738 43.3935C38.8157 43.3067 38.7577 43.2603 38.6996 43.1966C38.4674 43.66 38.4964 43.7758 38.9029 43.8974C38.9203 44.4882 38.9377 45.0616 38.9609 45.635C39.0132 45.6234 39.0712 45.6234 39.1293 45.6118C39.1467 45.4844 39.17 45.3627 39.1758 45.2295C39.1525 44.8762 39.0829 44.5345 39.077 44.158C39.077 43.3414 39.0945 42.5016 39.1641 41.6676C39.1816 41.407 39.2222 41.1463 39.2396 40.8857C39.0945 40.8394 38.9435 40.7988 38.7983 40.7467C38.8216 41.3838 38.8738 42.0093 38.9029 42.629Z" fill="#3DD95E"/>
<path d="M124.411 46.4574C122.678 45.884 120.904 45.6929 119.176 45.496C118.625 45.4381 118.063 45.3859 117.518 45.3107C115.802 45.0906 114.063 44.94 112.341 44.7952L111.419 44.7257C110.329 44.633 109.251 44.5577 108.155 44.4824C107.227 44.4129 106.288 44.3492 105.349 44.2739L104.653 44.2218C104.045 44.1755 103.436 44.1175 102.827 44.0307L103.958 44.048C106.938 44.0538 109.883 43.3704 110.004 43.3357C110.944 43.1272 111.889 42.9129 112.816 42.658L113.471 42.4495C134.94 36.7157 134.772 29.2443 134.679 28.4045C134.696 27.8601 134.447 27.194 133.92 26.4758C133.062 25.3175 131.919 24.7441 131.021 24.3792C129.734 23.8579 128.313 23.551 126.8 23.493C125.519 23.4409 124.226 23.4062 122.974 23.5799C121.524 23.7653 120.098 24.1244 118.77 24.4719C116.434 25.109 114.109 25.7518 111.796 26.4642C109.123 27.2867 106.7 27.9817 104.137 28.196C103.036 28.3002 101.94 28.4103 100.827 28.5319L97.3425 28.891C96.3511 28.9779 95.3597 29.0763 94.3567 29.1864L93.7189 29.2559C92.571 29.3891 91.3825 29.5223 90.223 29.7887C88.1532 30.2289 86.3734 30.8254 84.8022 31.5957C84.4834 31.7463 84.1413 31.8969 83.7934 32.0359L83.4862 32.1633C83.5673 31.6594 83.4978 31.1787 83.1673 30.7443C82.918 30.42 82.6919 30.0841 82.4658 29.754C82.3092 29.5281 82.1701 29.2906 81.9672 28.9547C81.6657 28.4798 82.4716 27.7616 82.4716 27.7616C82.5064 27.7326 82.5412 27.7153 82.5876 27.6863C83.3296 27.4199 83.6485 26.8639 83.6137 26.0993C83.5615 24.7672 83.0571 23.6321 81.8744 22.9602C81.3179 22.6359 81.1671 22.2247 81.0512 21.6686C80.9932 21.3906 80.6975 20.9389 80.5062 20.9331C79.8627 20.9215 79.3699 20.5624 78.7959 20.4002L78.0654 20.2728L77.3465 20.3944C76.7725 20.5624 76.2739 20.9215 75.6188 20.9215C75.4391 20.9273 75.1434 21.3791 75.0738 21.6571C74.9637 22.2247 74.8014 22.6301 74.2506 22.9428C73.0679 23.6147 72.5635 24.7499 72.5055 26.0878C72.4591 26.8465 72.778 27.4083 73.5201 27.6805C73.5665 27.6979 73.607 27.721 73.6302 27.7442C73.6302 27.7442 74.4419 28.4682 74.1404 28.9373C73.9317 29.279 73.7926 29.5165 73.6418 29.7366C73.4099 30.0783 73.1722 30.4026 72.9345 30.7328C72.6098 31.1614 72.5403 31.6479 72.6098 32.146L72.3026 32.0243C71.9547 31.868 71.6185 31.729 71.3054 31.5726C69.7226 30.8023 67.9486 30.1999 65.8846 29.7424C64.7309 29.4933 63.5308 29.3543 62.3945 29.2211L61.7567 29.14C60.7653 29.0184 59.7623 28.9257 58.771 28.8273L55.2866 28.4624C54.1793 28.3408 53.0777 28.2133 51.9704 28.1149C49.4136 27.8948 47.0018 27.194 44.3175 26.3658C42.0101 25.6534 39.6852 24.9931 37.3604 24.3792C36.0385 24.0143 34.6123 23.6436 33.1629 23.4525C31.9048 23.2903 30.612 23.3135 29.3423 23.3598C27.8291 23.4236 26.3971 23.7131 25.1216 24.2344C24.2172 24.6051 23.0693 25.1669 22.217 26.331C21.6836 27.0376 21.4343 27.7153 21.4401 28.2597C21.3474 29.0879 21.1619 36.5651 42.6188 42.351L43.274 42.548C44.2016 42.8086 45.1408 43.0345 46.08 43.243C46.2075 43.2662 49.1469 43.967 52.1327 43.967L53.269 43.9612C52.6603 44.0422 52.0457 44.1002 51.4312 44.1407L50.7355 44.1928C49.8079 44.2739 48.8686 44.326 47.9352 44.3897C46.8453 44.465 45.7553 44.5461 44.6654 44.633L43.7378 44.7025C42.0101 44.8415 40.2882 44.9805 38.5663 45.2122C38.0155 45.2875 37.4531 45.3454 36.9082 45.3917C35.1805 45.5713 33.4006 45.7682 31.6671 46.3358C29.3829 47.0887 26.7508 48.0444 24.5361 49.8514C23.249 50.8997 22.5011 52.1449 22.3272 53.5639C22.3156 53.6392 22.2866 53.9288 22.3678 54.4327C22.7968 57.0332 26.1362 63.0856 47.8598 63.1145C49.1643 63.1145 50.5326 63.0914 51.9356 63.0508L53.4429 63.0798C54.9039 63.045 56.3476 62.9176 57.8028 62.7902L58.5332 62.7149L58.8927 62.6975L60.145 62.5585C60.6958 62.5064 61.2581 62.4485 61.8147 62.3674C63.9598 62.0894 66.2209 61.5797 68.7429 60.8094C70.6387 60.2187 72.7838 59.4599 74.4071 57.7572C75.0506 57.0911 75.5376 56.2339 75.9493 55.2319C75.7522 56.0891 75.584 56.9174 75.3985 57.7803C75.2767 59.6221 75.0796 61.6087 75.0101 63.4678C74.9869 64.1686 75.0159 64.8753 75.0043 65.5818C75.0043 65.5818 74.0709 91.4189 78.0538 100.344C82.06 91.4247 81.0164 65.5876 81.0164 65.5876C81.0048 64.8868 81.028 64.1744 81.0164 63.4736C80.9584 61.6203 80.7613 59.6337 80.6453 57.7861C80.4598 56.9347 80.2975 56.0891 80.1004 55.2435C80.5062 56.2455 80.9932 57.1085 81.6367 57.7745C83.2427 59.4773 85.3994 60.2476 87.2894 60.8268C89.8114 61.6145 92.0782 62.1357 94.2176 62.4137C94.7799 62.4832 95.3307 62.5585 95.8931 62.6107L97.1453 62.7555H97.4932L98.2295 62.8423C99.6847 62.9698 101.128 63.0914 102.595 63.1435L104.097 63.1145C105.5 63.1609 106.874 63.1841 108.172 63.1898C129.902 63.213 133.253 57.1664 133.688 54.5717C133.769 54.0678 133.746 53.7724 133.734 53.7029C133.566 52.2839 132.824 51.0387 131.537 49.973C129.322 48.1718 126.696 47.2161 124.411 46.4574ZM23.3881 28.3639C23.3881 28.1438 23.5099 27.8485 23.7824 27.4952C24.2172 26.9102 24.8607 26.4584 25.8405 26.0588C26.9247 25.6302 28.119 25.3754 29.4003 25.3233C29.922 25.3117 30.438 25.2885 30.9598 25.2827C31.6149 25.2827 32.2643 25.3059 32.8962 25.4043C34.2355 25.5781 35.5921 25.9256 36.8502 26.2673C39.1576 26.887 41.4593 27.5415 43.7436 28.2423C46.5264 29.0995 49.0542 29.8408 51.808 30.0725C52.898 30.1652 53.9879 30.281 55.0605 30.4026L58.5796 30.7675C59.5594 30.8718 60.5392 30.9702 61.519 31.0745L62.1684 31.1556C63.3047 31.2946 64.3946 31.4162 65.4556 31.6479C67.3746 32.0764 68.9979 32.6209 70.4415 33.3217C70.6329 33.4259 70.8532 33.5186 71.0619 33.6171C71.0909 33.6924 71.1141 33.814 71.1315 33.8951C68.8298 33.1885 62.9278 31.7811 49.4194 30.3331C49.3382 30.3158 41.1636 29.2732 35.4936 26.9797C35.1399 26.8523 27.2493 24.0896 23.3939 28.4798C23.3881 28.4276 23.3881 28.3813 23.3881 28.3639ZM23.5505 29.2385C27.0522 24.6688 35.2095 27.5125 35.2906 27.5241C41.0245 29.8466 49.2687 30.8949 49.3556 30.9065C63.4438 32.424 69.2762 33.9182 71.2764 34.5553C71.317 34.7291 71.3692 34.9202 71.4098 35.1113C67.1949 33.7445 49.7325 31.7811 48.9614 31.6884C46.8221 31.4336 44.9147 31.3467 43.1812 31.3641L43.187 31.3525C39.807 30.9934 36.4038 29.3254 36.369 29.3022C30.6583 26.4758 25.7652 29.2501 24.1186 30.4142C23.8404 29.9509 23.6664 29.5512 23.5505 29.2385ZM24.4259 30.8949C25.9449 29.8235 30.6352 27.1071 36.1139 29.835C36.2125 29.8756 37.8184 30.6691 39.9345 31.283C37.0473 31.6942 34.3804 31.3235 34.3572 31.3235C31.5396 30.9471 28.8669 31.6073 26.5478 33.119C25.5738 32.3023 24.8897 31.5494 24.4259 30.8949ZM27.0001 33.4896C29.1915 32.1054 31.6149 31.5262 34.276 31.8853C34.3514 31.9027 35.4878 32.0533 37.0357 32.0475C33.0817 32.951 30.8902 34.4974 29.8931 35.4009C28.7335 34.7522 27.7943 34.0978 27.0001 33.4896ZM30.438 35.6905C32.2643 34.1499 37.5749 30.8949 48.8976 32.2676C49.0947 32.2907 68.2269 34.4395 71.5779 35.7774C71.6069 35.8527 71.6127 35.9222 71.6301 36.0033C47.8888 32.1402 40.1722 34.3816 37.8996 36.9589C37.3546 37.567 37.1633 38.152 37.1169 38.5864C34.3688 37.6308 32.1889 36.6404 30.438 35.6905ZM37.6792 38.7891C37.6908 38.4358 37.801 37.9203 38.3518 37.318C39.3779 36.1828 42.0217 34.7986 48.6773 34.5553C44.0276 35.0592 41.6448 36.2929 40.4969 37.596C39.9055 38.2621 39.662 38.8992 39.5693 39.4262C38.8967 39.2177 38.2938 39.0034 37.6792 38.7891ZM42.5724 40.3124C41.7202 40.0807 40.9085 39.8316 40.1258 39.6C40.1954 39.1424 40.4041 38.5632 40.9433 37.9667C42.7985 35.8816 49.3151 33.0031 71.804 36.6751C71.8156 36.7388 71.833 36.7967 71.8446 36.8604C68.0993 36.9415 64.957 36.733 64.899 36.7214C49.7905 35.7774 44.6886 37.6887 43.0826 39.4667C42.7927 39.7853 42.6594 40.0633 42.5724 40.3124ZM46.5148 41.3375C45.6104 41.1348 44.6886 40.9205 43.7899 40.6714L43.1406 40.4629C43.129 40.4629 43.1232 40.4629 43.1174 40.4629C43.1812 40.2834 43.3087 40.0575 43.5464 39.8027C44.8277 38.4416 49.3093 36.316 64.8584 37.2948C65.1019 37.3064 68.0935 37.5207 71.7228 37.4454C68.2442 39.2061 61.8727 38.459 61.7973 38.4474C53.5705 37.6192 50.2195 39.0787 48.8454 40.4456C48.4222 40.8684 48.2135 41.268 48.0686 41.6329C47.1525 41.4881 46.538 41.3433 46.5148 41.3375ZM52.3124 42.0209C51.0833 42.0151 49.6513 41.8761 48.6483 41.7371C48.7759 41.4591 48.9498 41.1579 49.2745 40.8336C50.5789 39.571 53.785 38.2273 61.7335 39.0324C62.0234 39.0671 68.5283 39.8143 72.1345 37.8798C72.2678 38.3258 72.3953 38.7659 72.5461 39.2177C69.6415 39.4494 65.1657 40.3992 62.9626 40.9263L60.6262 41.4939L59.8957 41.5981C59.0029 41.7255 58.1042 41.8645 57.194 41.9167C55.9649 41.9978 54.7242 41.9978 53.4835 42.0093L52.3124 42.0209ZM24.2926 54.0736C24.2636 53.8998 24.2752 53.784 24.2752 53.784C24.3795 52.8863 24.8723 52.0986 25.771 51.363C27.7306 49.7761 30.1598 48.9015 32.2759 48.2007C33.8007 47.6969 35.4008 47.5231 37.1111 47.3436C37.6793 47.2972 38.2416 47.2277 38.8098 47.1524C40.4969 46.9381 42.2014 46.8049 43.8943 46.6659L44.8219 46.5906C45.9003 46.498 46.9786 46.4342 48.0628 46.3532C49.002 46.2895 49.947 46.22 50.8862 46.1562L51.5529 46.1099C52.469 46.0462 53.4024 45.9767 54.3358 45.7914C55.9881 45.4844 57.7912 45.0732 60.029 44.5056L61.693 44.0712C64.412 43.353 70.9865 41.963 73.5665 41.9225C73.723 42.27 73.8795 42.5827 74.0361 42.8665C73.9723 43.0287 73.9085 43.214 73.839 43.4167C69.74 43.9438 63.6352 44.9805 54.5735 47.0366C54.4807 47.054 45.1118 48.971 38.0387 48.4672C37.9286 48.4614 27.174 48.2529 25.0694 55.6779C24.5187 54.9655 24.3389 54.3748 24.2926 54.0736ZM25.5159 56.176C27.232 48.8205 37.917 49.0405 38.0155 49.029C45.1582 49.5328 54.5909 47.6158 54.6894 47.5984C63.5366 45.5944 69.5777 44.5577 73.665 44.0249C73.5723 44.3376 73.5027 44.6735 73.4215 45.0442C65.6817 46.3416 55.1938 48.6583 54.5619 48.7915C52.1153 49.3128 49.9934 49.9441 48.1034 50.6275L48.0976 50.6159C44.2537 51.502 39.8997 50.8418 39.8533 50.8418C32.0961 49.6545 27.6842 55.481 26.6232 57.1201C26.1652 56.7957 25.8057 56.4888 25.5159 56.176ZM27.0986 57.427C28.1132 55.8806 32.3223 50.2452 39.7606 51.4094C39.8881 51.4268 42.1666 51.7569 44.8857 51.6121C41.7492 53.3554 38.4097 53.9346 38.375 53.9404C35.1457 54.5833 32.473 56.3613 30.4844 59.0082C29.0408 58.5159 27.9509 57.9715 27.0986 57.427ZM31.0758 59.1935C32.9658 56.732 35.424 55.1219 38.4793 54.5138C38.5721 54.4906 40.0157 54.2416 41.8883 53.5813C37.8764 56.0718 35.9805 58.6665 35.1283 60.1781C33.5571 59.8885 32.2179 59.5526 31.0758 59.1935ZM44.0856 61.0758C40.7752 60.9426 38.0387 60.6588 35.7428 60.2708C37.3024 57.6761 42.0449 52.0175 54.6836 49.3533C54.8344 49.3185 65.4672 46.9903 73.3114 45.6524C73.2708 45.9709 73.2302 46.2779 73.2012 46.6022C52.382 50.8186 45.9292 55.5794 44.4393 58.9966C44.0624 59.8422 44.0218 60.5372 44.0856 61.0758ZM47.1004 61.1454C46.2481 61.1396 45.4538 61.1164 44.6712 61.0816C44.6016 60.6357 44.6132 60.0102 44.9553 59.2341C45.7669 57.3807 48.515 54.5369 56.9215 51.5194C51.008 54.062 48.4512 56.6162 47.5352 58.7128C47.1178 59.6684 47.0482 60.4909 47.1004 61.1454ZM50.7529 61.1048C49.7093 61.1164 48.6483 61.1511 47.6801 61.1454C47.6221 60.5662 47.6801 59.8248 48.0628 58.9445C49.2803 56.1992 54.3474 51.3573 73.1838 47.3146C73.178 47.7837 73.1896 48.2587 73.2418 48.7567C57.0549 53.2975 52.2139 57.3575 51.0311 59.9812C50.834 60.4272 50.7703 60.7863 50.7529 61.1048ZM58.2955 60.7689L57.6288 60.8442C56.2142 60.9658 54.7996 61.0816 53.1705 61.1222L51.9124 61.099C51.7037 61.099 51.5297 61.099 51.3268 61.099C51.35 60.8442 51.408 60.5488 51.5819 60.1607C52.5443 58.122 56.6664 54.0157 73.3172 49.3359C73.4273 49.9962 73.6128 50.6622 73.8795 51.3283C72.8823 51.6237 72.1866 51.7858 72.1576 51.7858C63.009 53.923 59.8261 56.8305 58.7768 58.8865C58.3941 59.6279 58.2955 60.265 58.2955 60.7689ZM64.6961 59.8596C63.6062 60.1028 62.5684 60.2939 61.5538 60.4272C60.6958 60.5372 59.8435 60.6125 58.9855 60.6936L58.8637 60.7052C58.8811 60.2766 58.9681 59.7669 59.2811 59.1356C60.2841 57.1896 63.3511 54.4153 72.2794 52.3361C72.378 52.3129 73.0911 52.1391 74.0998 51.8553C74.181 52.0696 74.2796 52.3245 74.3491 52.6314C68.4762 54.5717 66.0064 56.8073 65.1425 58.5101C64.8932 59.0198 64.7657 59.4484 64.6961 59.8596ZM74.3665 53.9925C74.0071 55.0119 73.5607 55.8053 72.9867 56.4077C71.6938 57.7687 69.8966 58.4001 68.1689 58.9387C67.1659 59.2399 66.2325 59.4773 65.3281 59.7032C65.3918 59.4136 65.4846 59.1182 65.6643 58.7765C66.4702 57.1896 68.8066 55.0698 74.4245 53.2164C74.4477 53.4886 74.4419 53.7608 74.3665 53.9925ZM73.9085 33.0263C73.4853 31.393 74.813 30.3853 74.813 30.3853L75.4507 39.9996L73.9085 33.0263ZM76.7262 56.2803L77.9726 97.5003C74.4013 74.7212 76.7262 56.2803 76.7262 56.2803ZM112.944 40.5614L112.289 40.7641C111.384 41.0132 110.48 41.2217 109.57 41.4302C109.552 41.436 108.932 41.575 108.004 41.7197C107.865 41.3607 107.651 40.9552 107.233 40.5266C105.853 39.1656 102.508 37.6945 94.2813 38.5053C94.206 38.5169 87.8402 39.2409 84.3674 37.4744C87.9851 37.5612 90.9825 37.3528 91.226 37.3354C106.769 36.3855 111.245 38.5343 112.526 39.9011C112.77 40.1618 112.886 40.3819 112.955 40.5672C112.961 40.5614 112.955 40.5614 112.944 40.5614ZM116.521 39.5247C116.434 38.9976 116.19 38.3547 115.605 37.6887C114.463 36.3855 112.092 35.1461 107.436 34.6248C114.092 34.8797 116.73 36.2755 117.762 37.4222C118.301 38.013 118.405 38.5459 118.417 38.8934C117.796 39.1077 117.188 39.3162 116.521 39.5247ZM126.209 35.5225C125.206 34.619 123.032 33.0611 119.066 32.1633C120.631 32.1575 121.756 32.0127 121.837 32.007C124.493 31.6537 126.922 32.2444 129.108 33.6228C128.313 34.231 127.368 34.8739 126.209 35.5225ZM129.571 33.2406C127.252 31.7231 124.585 31.0629 121.768 31.4336C121.733 31.4336 119.055 31.7927 116.185 31.3699C118.289 30.7675 119.907 29.9856 120.005 29.9335C125.49 27.2172 130.169 29.9509 131.682 31.0339C131.218 31.6826 130.528 32.4355 129.571 33.2406ZM85.0283 33.646C85.2486 33.5534 85.469 33.4549 85.6661 33.3564C87.0981 32.6556 88.7272 32.1112 90.652 31.6942C91.7188 31.4683 92.7971 31.3409 93.9509 31.2077L94.6002 31.1324C95.5742 31.0224 96.5598 30.9239 97.5396 30.8312L101.059 30.4721C102.143 30.3563 103.233 30.2347 104.323 30.1478C107.071 29.9161 109.599 29.1922 112.387 28.3292C114.677 27.6342 116.979 26.9913 119.286 26.3658C120.55 26.024 121.907 25.6823 123.24 25.5086C123.878 25.4275 124.533 25.3985 125.183 25.4043C125.699 25.4043 126.22 25.4217 126.731 25.4449C128.012 25.5028 129.212 25.7461 130.285 26.192C131.276 26.5859 131.908 27.0318 132.348 27.6284C132.604 27.9701 132.737 28.2713 132.737 28.4856C132.737 28.5029 132.731 28.5493 132.725 28.6188C128.876 24.2286 120.979 26.9681 120.626 27.0897C114.956 29.3775 106.769 30.3853 106.688 30.3968C93.1682 31.81 87.2662 33.2174 84.9704 33.9182C84.9935 33.8372 85.0167 33.7213 85.0283 33.646ZM84.8196 34.5843C86.8314 33.9472 92.6638 32.4587 106.758 30.9876C106.839 30.976 115.101 29.9451 120.829 27.6342C120.904 27.611 129.079 24.7962 132.569 29.3717C132.453 29.696 132.279 30.0899 131.995 30.5532C130.354 29.3891 125.467 26.6032 119.756 29.4296C119.727 29.4412 116.312 31.1034 112.944 31.4509V31.4625C111.205 31.4336 109.291 31.5204 107.146 31.7753C106.393 31.8506 88.9011 33.7734 84.6979 35.1287C84.7443 34.9434 84.7906 34.7465 84.8196 34.5843ZM84.5297 35.7948C87.8808 34.4569 107.019 32.366 107.216 32.3545C118.539 30.9992 123.849 34.2599 125.664 35.8121C123.913 36.762 121.727 37.735 118.979 38.7022C118.933 38.2563 118.747 37.6771 118.208 37.0574C115.935 34.48 108.236 32.2155 84.4718 36.0206C84.495 35.9396 84.5123 35.8701 84.5297 35.7948ZM84.3036 36.6925C106.787 33.0726 113.297 35.9685 115.159 38.0535C115.686 38.6617 115.889 39.2351 115.959 39.6868C115.182 39.9301 114.364 40.1618 113.512 40.3934C113.425 40.1502 113.292 39.8664 113.002 39.5536C111.407 37.7756 106.306 35.8527 91.1912 36.7504C91.1332 36.7562 87.9967 36.9647 84.2341 36.872C84.2631 36.8199 84.2804 36.7562 84.3036 36.6925ZM83.9558 37.903C87.5561 39.8374 94.0668 39.1135 94.3509 39.0787C102.305 38.291 105.517 39.6405 106.804 40.9147C107.135 41.2274 107.303 41.5402 107.419 41.8124C106.422 41.9572 105.001 42.0846 103.766 42.0846L102.595 42.0788C101.36 42.0615 100.125 42.0557 98.8846 41.9688C97.9744 41.9109 97.0758 41.7835 96.1887 41.6387L95.464 41.546L93.1276 40.9668C90.9187 40.4282 86.443 39.4725 83.5383 39.2293C83.6949 38.7833 83.8224 38.3374 83.9558 37.903ZM87.875 58.9561C86.1531 58.4174 84.35 57.7745 83.0629 56.4193C82.5006 55.8227 82.0368 55.0292 81.6889 54.0041C81.6077 53.7666 81.6019 53.5002 81.6193 53.2222C87.2372 55.0987 89.5737 57.2127 90.3795 58.817C90.5477 59.1472 90.6404 59.4483 90.7158 59.7379C89.7998 59.5063 88.8722 59.263 87.875 58.9561ZM97.0468 60.7515C96.1945 60.6646 95.3307 60.5835 94.4726 60.4677C93.4639 60.3287 92.4203 60.1434 91.3419 59.9001C91.2666 59.4831 91.1448 59.0371 90.8955 58.5448C90.0375 56.8594 87.5735 54.5948 81.7063 52.6488C81.7759 52.3476 81.8686 52.0812 81.9556 51.8669C82.9586 52.1681 83.6717 52.3361 83.7702 52.3534C92.6928 54.4616 95.7539 57.2301 96.7453 59.1935C97.0642 59.8132 97.1511 60.3345 97.1743 60.7631L97.0468 60.7515ZM104.131 61.1569L102.873 61.1743C101.238 61.1338 99.8238 61.0121 98.4092 60.8905L97.7541 60.821C97.7425 60.3113 97.6439 59.6742 97.2729 58.9329C96.2177 56.8652 93.0522 53.9462 83.9036 51.7974C83.8804 51.7974 83.1847 51.6237 82.1759 51.3283C82.4542 50.6738 82.6397 50.002 82.7499 49.3417C99.389 54.062 103.5 58.18 104.456 60.2187C104.63 60.6125 104.694 60.9137 104.711 61.1743C104.503 61.1627 104.329 61.1569 104.131 61.1569ZM105.285 61.1743C105.268 60.8673 105.21 60.4909 105.007 60.0507C103.824 57.4212 99.0006 53.3612 82.8253 48.7625C82.8832 48.276 82.9006 47.8011 82.889 47.332C101.714 51.4152 106.769 56.2687 107.975 59.014C108.364 59.9001 108.41 60.653 108.346 61.2264C107.384 61.2264 106.346 61.2033 105.285 61.1743ZM111.373 61.1627C110.584 61.1917 109.79 61.2148 108.938 61.2206C108.996 60.5719 108.926 59.7553 108.503 58.7823C107.581 56.6857 105.047 54.1257 99.1281 51.56C107.529 54.6006 110.277 57.4734 111.071 59.3151C111.419 60.0912 111.436 60.7168 111.373 61.1627ZM111.947 61.1569C112.005 60.6241 111.97 59.9233 111.599 59.0719C110.109 55.6605 103.673 50.8823 82.86 46.6138C82.8368 46.2895 82.8021 45.9825 82.7499 45.6639C90.5998 47.0192 101.221 49.3823 101.378 49.417C113.993 52.1044 118.718 57.7745 120.284 60.3808C117.999 60.7573 115.257 61.0411 111.947 61.1569ZM120.904 60.2824C120.063 58.7707 118.179 56.1818 114.179 53.6797C116.034 54.3342 117.478 54.5949 117.565 54.6122C120.62 55.232 123.078 56.8421 124.974 59.3151C123.814 59.6684 122.481 60.0044 120.904 60.2824ZM125.554 59.1356C123.571 56.483 120.892 54.6991 117.686 54.0504C117.64 54.0388 114.3 53.4423 111.176 51.7048C113.9 51.8553 116.167 51.531 116.301 51.5136C123.733 50.3611 127.942 56.0138 128.951 57.5718C128.093 58.1047 127.003 58.6433 125.554 59.1356ZM129.444 57.2649C128.365 55.6084 123.977 49.7703 116.214 50.9402C116.173 50.9518 111.813 51.5889 107.969 50.697L107.975 50.7144C106.074 50.0136 103.952 49.3881 101.505 48.8668C100.879 48.7278 90.4085 46.3821 82.6629 45.0674C82.5991 44.6967 82.518 44.355 82.4368 44.0365C86.5125 44.5925 92.542 45.6408 101.389 47.6621C101.494 47.6795 110.92 49.6313 118.063 49.139C118.156 49.1448 128.841 48.9595 130.545 56.315C130.238 56.6162 129.89 56.9289 129.444 57.2649ZM131.763 54.2184C131.711 54.5138 131.531 55.1045 130.986 55.8169C128.899 48.3977 118.138 48.5656 118.023 48.5656C110.961 49.0637 101.598 47.1235 101.505 47.1061C92.4435 45.0268 86.3444 43.9727 82.2455 43.4341C82.1933 43.2314 82.1237 43.0403 82.0658 42.8839C82.2107 42.6059 82.3672 42.2873 82.5296 41.9398C85.1153 41.9862 91.6782 43.3994 94.3973 44.1175L96.0728 44.5635C98.2875 45.1311 100.096 45.5423 101.749 45.8551C102.688 46.0404 103.615 46.1099 104.531 46.1794L105.204 46.2257C106.143 46.3068 107.088 46.3705 108.033 46.44C109.1 46.5211 110.19 46.5906 111.263 46.6833L112.19 46.7586C113.883 46.9092 115.582 47.0366 117.269 47.2625C117.825 47.3378 118.399 47.4015 118.968 47.4652C120.666 47.6447 122.272 47.8185 123.797 48.3282C125.925 49.0232 128.342 49.9093 130.296 51.5078C131.195 52.2492 131.676 53.0369 131.792 53.9346C131.786 53.9288 131.792 54.0388 131.763 54.2184Z" fill="#035D07"/>
<path d="M110.004 43.3298C110.944 43.1213 111.889 42.907 112.816 42.6522L113.471 42.4437C134.94 36.7098 134.772 29.2384 134.679 28.3986C134.696 27.8542 134.447 27.1881 133.919 26.47C133.061 25.3116 131.919 24.7382 131.021 24.3733C129.734 23.8521 128.313 23.5451 126.8 23.4872C125.519 23.4351 124.226 23.4003 122.974 23.5741C121.524 23.7594 120.098 24.1185 118.77 24.466C116.434 25.1031 114.109 25.746 111.796 26.4584C109.123 27.2808 106.7 27.9758 104.137 28.1901C103.036 28.2944 101.94 28.4044 100.827 28.526L97.3424 28.8851C96.351 28.972 95.3596 29.0705 94.3566 29.1805L93.7188 29.25C92.5709 29.3832 91.3824 29.5164 90.2229 29.7828C88.1531 30.223 86.3733 30.8196 84.8021 31.5899C84.4833 31.7405 84.1412 31.891 83.7933 32.0301L83.4861 32.1575C83.5672 31.6536 83.4977 31.1729 83.1672 30.7385C82.9179 30.4142 82.6918 30.0782 82.4657 29.7481C82.3091 29.5222 82.17 29.2848 81.9671 28.9488C81.6656 28.4739 82.4715 27.7557 82.4715 27.7557C82.5063 27.7268 82.5411 27.7094 82.5874 27.6804C83.3295 27.414 83.6484 26.858 83.6136 26.0935C83.5614 24.7614 83.057 23.6262 81.8743 22.9543C81.3178 22.63 81.167 22.2188 81.0511 21.6628C80.9931 21.3848 80.6974 20.933 80.5061 20.9272C79.8626 20.9156 79.3698 20.5566 78.7958 20.3944L78.0653 20.267H78.0537V100.332C82.0599 91.4131 81.0163 65.576 81.0163 65.576C81.0047 64.8752 81.0279 64.1628 81.0163 63.462C80.9583 61.6086 80.7612 59.622 80.6452 57.7745C80.4597 56.9231 80.2974 56.0775 80.1003 55.2319C80.5061 56.2339 80.9931 57.0968 81.6366 57.7629C83.2426 59.4657 85.3993 60.236 87.2893 60.8152C89.8113 61.6028 92.0781 62.1241 94.2175 62.4021C94.7798 62.4716 95.3306 62.5469 95.893 62.599L97.1452 62.7438H97.4931L98.2294 62.8307C99.6846 62.9581 101.128 63.0797 102.595 63.1319L104.097 63.1029C105.5 63.1492 106.874 63.1724 108.172 63.1782C129.902 63.2014 133.253 57.1547 133.688 54.56C133.769 54.0561 133.746 53.7608 133.734 53.6913C133.566 52.2723 132.824 51.0271 131.537 49.9614C129.322 48.1544 126.696 47.1987 124.411 46.44C122.678 45.8666 120.904 45.6755 119.176 45.4785C118.625 45.4206 118.063 45.3685 117.518 45.2932C115.802 45.0731 114.063 44.9225 112.341 44.7777L111.419 44.7082C110.329 44.6156 109.251 44.5403 108.155 44.465C107.227 44.3955 106.288 44.3318 105.349 44.2565L104.653 44.2044C104.044 44.158 103.436 44.1001 102.827 44.0132L103.957 44.0306C106.937 44.048 109.888 43.3645 110.004 43.3298ZM112.944 40.5613L112.289 40.764C111.384 41.0131 110.48 41.2216 109.57 41.4301C109.552 41.4359 108.932 41.5749 108.004 41.7197C107.865 41.3606 107.651 40.9552 107.233 40.5266C105.853 39.1655 102.508 37.6944 94.2812 38.5053C94.2058 38.5168 87.8401 39.2408 84.3673 37.4743C87.985 37.5612 90.9824 37.3527 91.2259 37.3353C106.769 36.3855 111.245 38.5342 112.526 39.9011C112.77 40.1617 112.886 40.3818 112.955 40.5671C112.961 40.5613 112.955 40.5613 112.944 40.5613ZM116.521 39.5246C116.434 38.9976 116.19 38.3547 115.605 37.6886C114.463 36.3855 112.091 35.146 107.436 34.6248C114.092 34.8796 116.73 36.2754 117.762 37.4222C118.301 38.0129 118.405 38.5458 118.417 38.8933C117.796 39.1076 117.188 39.3161 116.521 39.5246ZM126.209 35.5225C125.206 34.619 123.032 33.061 119.066 32.1633C120.631 32.1575 121.756 32.0127 121.837 32.0069C124.493 31.6536 126.922 32.2443 129.107 33.6228C128.313 34.2309 127.368 34.8738 126.209 35.5225ZM129.571 33.2405C127.252 31.7231 124.585 31.0628 121.768 31.4335C121.733 31.4335 119.054 31.7926 116.185 31.3698C118.289 30.7675 119.907 29.9856 120.005 29.9334C125.49 27.2171 130.168 29.9508 131.682 31.0339C131.218 31.6825 130.528 32.4355 129.571 33.2405ZM85.0282 33.646C85.2485 33.5533 85.4689 33.4548 85.666 33.3564C87.098 32.6556 88.7271 32.1111 90.6519 31.6941C91.7187 31.4683 92.797 31.3408 93.9508 31.2076L94.6001 31.1323C95.5741 31.0223 96.5597 30.9238 97.5395 30.8312L101.059 30.4721C102.143 30.3562 103.233 30.2346 104.323 30.1477C107.071 29.9161 109.599 29.1921 112.387 28.3291C114.677 27.6341 116.979 26.9912 119.286 26.3657C120.55 26.024 121.907 25.6823 123.24 25.5085C123.878 25.4274 124.533 25.3985 125.182 25.4043C125.698 25.4043 126.22 25.4216 126.73 25.4448C128.012 25.5027 129.212 25.746 130.284 26.192C131.276 26.5858 131.908 27.0318 132.348 27.6283C132.603 27.97 132.737 28.2712 132.737 28.4855C132.737 28.5029 132.731 28.5492 132.725 28.6187C128.876 24.2285 120.979 26.968 120.626 27.0897C114.956 29.3774 106.769 30.3852 106.688 30.3968C93.1681 31.81 87.2661 33.2174 84.9703 33.9182C84.9934 33.8371 85.0166 33.7213 85.0282 33.646ZM84.8195 34.5842C86.8313 33.9471 92.6637 32.4586 106.758 30.9875C106.839 30.976 115.1 29.945 120.828 27.6341C120.904 27.6109 129.078 24.7961 132.569 29.3716C132.453 29.696 132.279 30.0898 131.995 30.5532C130.354 29.389 125.467 26.6032 119.756 29.4296C119.727 29.4411 116.312 31.1034 112.944 31.4509V31.4625C111.204 31.4335 109.291 31.5204 107.146 31.7752C106.392 31.8505 88.901 33.7734 84.6978 35.1287C84.7441 34.9433 84.7905 34.7464 84.8195 34.5842ZM84.5296 35.7947C87.8807 34.4568 107.019 32.366 107.216 32.3544C118.538 30.9991 123.849 34.2599 125.664 35.8121C123.913 36.7619 121.727 37.735 118.979 38.7022C118.933 38.2562 118.747 37.677 118.208 37.0573C115.935 34.48 108.236 32.2154 84.4717 36.0206C84.4949 35.9395 84.5122 35.87 84.5296 35.7947ZM84.3035 36.6924C106.787 33.0726 113.297 35.9685 115.158 38.0535C115.686 38.6616 115.889 39.235 115.958 39.6868C115.182 39.93 114.364 40.1617 113.512 40.3934C113.425 40.1501 113.292 39.8663 113.002 39.5536C111.407 37.7755 106.305 35.8526 91.1911 36.7503C91.1331 36.7561 87.9966 36.9646 84.234 36.872C84.263 36.8199 84.2803 36.7561 84.3035 36.6924ZM87.8749 58.956C86.153 58.4174 84.3499 57.7745 83.0628 56.4192C82.5005 55.8227 82.0367 55.0292 81.6888 54.004C81.6076 53.7666 81.6018 53.5001 81.6192 53.2221C87.2371 55.0987 89.5736 57.2127 90.3794 58.817C90.5476 59.1471 90.6403 59.4483 90.7157 59.7379C89.7997 59.5062 88.8721 59.263 87.8749 58.956ZM97.0467 60.7514C96.1944 60.6646 95.3306 60.5835 94.4725 60.4676C93.4638 60.3286 92.4202 60.1433 91.3418 59.9C91.2665 59.483 91.1447 59.0371 90.8954 58.5448C90.0374 56.8594 87.5734 54.5948 81.7062 52.6488C81.7758 52.3476 81.8685 52.0812 81.9555 51.8669C82.9585 52.168 83.6716 52.336 83.7701 52.3534C92.6927 54.4616 95.7538 57.23 96.7452 59.1934C97.0641 59.8132 97.151 60.3344 97.1742 60.763L97.0467 60.7514ZM104.131 61.1569L102.873 61.1742C101.238 61.1337 99.8237 61.0121 98.4091 60.8904L97.754 60.8209C97.7424 60.3113 97.6438 59.6742 97.2728 58.9328C96.2176 56.8652 93.0521 53.9461 83.9035 51.7974C83.8803 51.7974 83.1846 51.6236 82.1758 51.3282C82.4541 50.6738 82.6396 50.0019 82.7498 49.3417C99.3889 54.062 103.499 58.1799 104.456 60.2186C104.63 60.6124 104.694 60.9136 104.711 61.1742C104.502 61.1627 104.328 61.1569 104.131 61.1569ZM108.352 61.2264C107.384 61.2264 106.346 61.1974 105.285 61.1684C105.268 60.8615 105.21 60.485 105.007 60.0448C103.824 57.4154 99.0005 53.3554 82.8252 48.7567C82.8831 48.2702 82.9005 47.7952 82.8889 47.3261C101.714 51.4093 106.769 56.2628 107.975 59.0081C108.364 59.9001 108.41 60.653 108.352 61.2264ZM111.373 61.1627C110.584 61.1916 109.79 61.2148 108.938 61.2206C108.996 60.5719 108.926 59.7553 108.503 58.7822C107.581 56.6856 105.047 54.1257 99.128 51.5599C107.529 54.6006 110.277 57.4733 111.071 59.3151C111.419 60.0912 111.436 60.7167 111.373 61.1627ZM111.947 61.1569C112.005 60.624 111.97 59.9232 111.599 59.0718C110.109 55.6605 103.673 50.8823 82.8599 46.6137C82.8367 46.2894 82.802 45.9824 82.7498 45.6639C90.5997 47.0192 101.221 49.3822 101.378 49.417C113.993 52.1043 118.718 57.7745 120.284 60.3808C117.999 60.7572 115.257 61.041 111.947 61.1569ZM120.904 60.2823C120.063 58.7706 118.179 56.1817 114.179 53.6797C116.034 54.3342 117.477 54.5948 117.564 54.6122C120.62 55.2319 123.078 56.842 124.974 59.3151C123.814 59.6684 122.481 60.0043 120.904 60.2823ZM125.554 59.1355C123.571 56.4829 120.892 54.699 117.686 54.0504C117.64 54.0388 114.3 53.4422 111.175 51.7047C113.9 51.8553 116.167 51.5309 116.301 51.5136C123.733 50.361 127.942 56.0138 128.951 57.5718C128.093 58.1046 127.003 58.6432 125.554 59.1355ZM129.444 57.2648C128.365 55.6083 123.977 49.7702 116.214 50.9402C116.173 50.9518 111.813 51.5889 107.969 50.6969L107.975 50.7143C106.074 50.0135 103.952 49.388 101.505 48.8667C100.879 48.7277 90.4084 46.3821 82.6628 45.0673C82.599 44.6967 82.5179 44.3549 82.4367 44.0364C86.5124 44.5924 92.5419 45.6407 101.389 47.662C101.493 47.6794 110.92 49.6312 118.063 49.1389C118.156 49.1447 128.841 48.9594 130.545 56.315C130.238 56.6161 129.89 56.9289 129.444 57.2648ZM104.526 46.1736L105.198 46.2199C106.137 46.301 107.082 46.3647 108.027 46.4342C109.094 46.5153 110.184 46.5848 111.257 46.6774L112.184 46.7527C113.877 46.9033 115.576 47.0307 117.263 47.2566C117.82 47.3319 118.393 47.3956 118.962 47.4593C120.66 47.6389 122.266 47.8126 123.791 48.3223C125.919 49.0173 128.336 49.9034 130.29 51.502C131.189 52.2433 131.67 53.031 131.786 53.9287C131.786 53.9287 131.786 54.0446 131.763 54.2183C131.711 54.5137 131.531 55.1045 130.986 55.8169C128.899 48.3976 118.138 48.5656 118.022 48.5656C110.961 49.0637 101.598 47.1234 101.505 47.106C92.4434 45.0268 86.3443 43.9727 82.2454 43.434C82.1932 43.2313 82.1236 43.0402 82.0656 42.8838C82.2106 42.6058 82.3671 42.2873 82.5295 41.9398C85.1152 41.9861 91.6781 43.3993 94.3972 44.1175L96.0727 44.5634C98.2874 45.131 100.096 45.5422 101.749 45.855C102.682 46.0345 103.61 46.1041 104.526 46.1736ZM102.595 42.0788C101.36 42.0614 100.125 42.0556 98.8845 41.9687C97.9743 41.9108 97.0757 41.7834 96.1886 41.6386L95.4639 41.5459L93.1275 40.9668C90.9186 40.4281 86.4428 39.4725 83.5382 39.2292C83.689 38.7775 83.8165 38.3315 83.9499 37.8971C87.5502 39.8316 94.0609 39.1076 94.345 39.0728C102.299 38.2852 105.511 39.6347 106.798 40.9088C107.129 41.2216 107.297 41.5343 107.413 41.8066C106.416 41.9514 104.995 42.0788 103.76 42.0788H102.595Z" fill="#035D07"/>
</svg>
