<svg width="130" height="130" viewBox="0 0 130 130" fill="none" xmlns="http://www.w3.org/2000/svg">
<g filter="url(#filter0_d)">
<g clip-path="url(#clip0)">
<path d="M72.4887 88.8306H22.5089C18.3637 88.8306 15 92.1939 15 96.3396V109.994H79.9974V96.3396C79.9974 92.1939 76.6338 88.8306 72.4887 88.8306Z" fill="black"/>
<path d="M72.4887 88.8306H22.5089C18.3637 88.8306 15 92.1939 15 96.3396V109.994H79.9974V96.3396C79.9974 92.1939 76.6338 88.8306 72.4887 88.8306Z" fill="url(#paint0_angular)"/>
<path d="M113.652 89.8896L68.0293 44.2663L76.8414 35.4699C78.2944 36.7511 80.5288 36.6885 81.9036 35.3136C83.3412 33.8606 83.3412 31.5324 81.9036 30.0794L62.9046 11.0958C61.4671 9.64286 59.1234 9.64286 57.6861 11.0958C56.2331 12.5334 56.2331 14.877 57.6861 16.3143L57.5298 16.1581L33.4057 40.2664L33.5619 40.4381C32.1244 38.9851 29.7807 38.9851 28.3434 40.4381C26.8904 41.8756 26.8904 44.2193 28.3434 45.6568L47.327 64.6559C48.78 66.0934 51.1236 66.0934 52.5612 64.6559C53.9987 63.2029 53.9987 60.8749 52.5612 59.4221L52.7174 59.578L61.5295 50.7815L107.137 96.3892C108.934 98.186 111.856 98.186 113.652 96.3892C115.449 94.5924 115.449 91.6862 113.652 89.8896Z" fill="black"/>
<path d="M113.652 89.8896L68.0293 44.2663L76.8414 35.4699C78.2944 36.7511 80.5288 36.6885 81.9036 35.3136C83.3412 33.8606 83.3412 31.5324 81.9036 30.0794L62.9046 11.0958C61.4671 9.64286 59.1234 9.64286 57.6861 11.0958C56.2331 12.5334 56.2331 14.877 57.6861 16.3143L57.5298 16.1581L33.4057 40.2664L33.5619 40.4381C32.1244 38.9851 29.7807 38.9851 28.3434 40.4381C26.8904 41.8756 26.8904 44.2193 28.3434 45.6568L47.327 64.6559C48.78 66.0934 51.1236 66.0934 52.5612 64.6559C53.9987 63.2029 53.9987 60.8749 52.5612 59.4221L52.7174 59.578L61.5295 50.7815L107.137 96.3892C108.934 98.186 111.856 98.186 113.652 96.3892C115.449 94.5924 115.449 91.6862 113.652 89.8896Z" fill="url(#paint1_angular)"/>
</g>
</g>
<defs>
<filter id="filter0_d" x="0" y="0" width="130" height="130" filterUnits="userSpaceOnUse" color-interpolation-filters="sRGB">
<feFlood flood-opacity="0" result="BackgroundImageFix"/>
<feColorMatrix in="SourceAlpha" type="matrix" values="0 0 0 0 0 0 0 0 0 0 0 0 0 0 0 0 0 0 127 0"/>
<feOffset dy="5"/>
<feGaussianBlur stdDeviation="7.5"/>
<feColorMatrix type="matrix" values="0 0 0 0 0.435294 0 0 0 0 0.517647 0 0 0 0 0.596078 0 0 0 0.15 0"/>
<feBlend mode="normal" in2="BackgroundImageFix" result="effect1_dropShadow"/>
<feBlend mode="normal" in="SourceGraphic" in2="effect1_dropShadow" result="shape"/>
</filter>
<radialGradient id="paint0_angular" cx="0" cy="0" r="1" gradientUnits="userSpaceOnUse" gradientTransform="translate(47.4987 99.4121) rotate(90) scale(10.5815 32.4987)">
<stop stop-color="white"/>
<stop offset="1" stop-color="#F4F5F7"/>
</radialGradient>
<radialGradient id="paint1_angular" cx="0" cy="0" r="1" gradientUnits="userSpaceOnUse" gradientTransform="translate(71.1268 53.8715) rotate(90) scale(43.8654 43.8732)">
<stop stop-color="white"/>
<stop offset="1" stop-color="#F4F5F7"/>
</radialGradient>
<clipPath id="clip0">
<rect x="15" y="10" width="100" height="100" fill="white"/>
</clipPath>
</defs>
</svg>
