<svg width="281" height="124" viewBox="0 0 281 124" fill="none" xmlns="http://www.w3.org/2000/svg">
<path d="M129.982 71.897C129.61 72.2694 129.858 72.766 130.665 73.0763C131.906 73.6349 133.582 75.4971 134.389 77.2971C135.569 79.842 135.941 82.0145 135.941 85.2421C135.941 88.8422 135.569 91.263 134.762 93.0009C133.831 94.9872 130.913 97.9045 128.927 98.9597C127.375 99.7666 126.879 100.387 127.499 100.822C127.623 100.884 128.058 101.567 128.43 102.249C128.803 102.932 130.168 105.167 131.596 107.277C133.955 110.753 137.12 116.464 139.727 121.677C140.348 122.981 140.907 123.974 140.969 123.974C141.031 123.974 141.589 122.919 142.21 121.677C144.817 116.464 147.983 110.753 150.341 107.277C151.707 105.229 153.134 102.994 153.507 102.249C153.879 101.567 154.252 100.884 154.438 100.822C155.059 100.387 154.562 99.7666 153.01 98.9597C151.893 98.4011 150.838 97.5321 149.596 96.2286C146.679 93.1251 146.058 91.1388 146.058 85.3663C146.058 82.0145 146.431 79.9661 147.61 77.3592C148.417 75.4971 150.031 73.697 151.334 73.1384C151.893 72.8901 152.141 72.6418 152.079 72.3315C152.017 71.959 151.148 71.897 141.093 71.8349C135.072 71.7728 130.106 71.8349 129.982 71.959V71.897ZM147.052 74.3798C147.052 74.4419 146.679 75.1246 146.183 75.9315C144.631 78.6006 143.948 81.0834 143.824 84.6835C143.576 92.194 145.996 97.6562 151.024 100.511C151.397 100.76 151.397 100.884 150.528 102.125C150.031 102.87 149.038 104.298 148.355 105.291C146.865 107.401 143.762 112.553 142.148 115.533C141.527 116.65 140.969 117.581 140.907 117.581C140.845 117.581 140.286 116.65 139.665 115.533C138.113 112.615 134.948 107.401 133.458 105.291C132.775 104.298 131.782 102.87 131.286 102.125C130.479 100.822 130.417 100.698 130.789 100.511C135.755 97.5941 138.238 92.194 137.989 84.6835C137.865 81.0834 137.182 78.6006 135.631 75.9315C135.134 75.1246 134.762 74.3798 134.762 74.3798C134.762 74.3177 137.493 74.2556 140.845 74.2556C144.196 74.2556 146.927 74.3177 146.927 74.3798H147.052Z" fill="#8C90A0"/>
<path d="M259.896 69.4762C260.827 69.9727 261.075 70.7797 260.454 71.6487C259.461 72.9521 257.289 72.5176 257.289 70.9659C257.289 70.2831 258.344 69.1038 258.903 69.1038C259.089 69.1038 259.585 69.29 259.958 69.4762H259.896Z" fill="#8C90A0"/>
<path d="M242.516 69.5382C249.22 69.6002 252.385 69.7244 252.634 69.9106C253.068 70.283 253.068 71.3382 252.634 71.5865C251.703 72.2072 206.019 71.0899 196.025 73.1382C191.742 74.0072 188.825 75.0624 185.846 76.7383C183.177 78.2901 182.742 78.4142 182.184 77.7935C181.811 77.297 182.246 76.3659 184.17 73.759L185.535 71.9589H178.397C171.321 71.9589 171.197 71.9589 168.094 72.7038C163.004 73.9452 159.28 75.9314 156.611 78.9108C154.811 80.8971 154.19 82.5109 154.19 85.242C154.19 86.98 154.314 87.5386 154.935 88.78C156.486 91.9456 159.342 93.9319 162.818 94.1181C164.928 94.2422 166.418 93.8077 168.404 92.5663C169.894 91.6352 171.197 89.9593 171.197 89.0904C171.197 87.1662 169.521 86.0489 166.914 86.2972C165.487 86.4213 165.238 86.4213 164.68 85.8627C163.687 84.9316 163.562 84.3109 164.307 83.3799C166.045 81.2695 169.335 81.2074 171.694 83.2557C173.121 84.4971 173.742 85.8627 173.742 87.911C173.742 91.1387 171.818 93.7456 168.156 95.5457C166.542 96.3526 165.921 96.5388 164.121 96.6009C160.211 96.8492 157.293 95.6698 154.624 92.8767C152.824 91.0145 151.831 89.0904 151.459 86.7317C150.9 83.3799 152.328 79.2212 155.121 76.2418C158.721 72.3313 162.445 70.5934 168.714 69.8485C170.887 69.6002 214.957 69.3519 242.454 69.5382H242.516Z" fill="#8C90A0"/>
<path d="M22.1037 69.4762C21.1726 69.9727 20.9243 70.7797 21.545 71.6487C22.5382 72.9521 24.7106 72.5176 24.7106 70.9659C24.7106 70.2831 23.6554 69.1038 23.0968 69.1038C22.9106 69.1038 22.414 69.29 22.0416 69.4762H22.1037Z" fill="#8C90A0"/>
<path d="M39.4835 69.5382C32.7799 69.6002 29.6143 69.7244 29.366 69.9106C28.9315 70.283 28.9315 71.3382 29.366 71.5865C30.2971 72.2072 75.981 71.0899 85.9743 73.1382C90.2572 74.0072 93.1745 75.0624 96.1539 76.7383C98.8229 78.2901 99.2574 78.4142 99.816 77.7935C100.188 77.297 99.754 76.3659 97.8298 73.759L96.4642 71.9589H103.602C110.678 71.9589 110.803 71.9589 113.906 72.7038C118.996 73.9452 122.72 75.9314 125.389 78.9108C127.189 80.8971 127.81 82.5109 127.81 85.242C127.81 86.98 127.686 87.5386 127.065 88.78C125.513 91.9456 122.658 93.9319 119.182 94.1181C117.072 94.2422 115.582 93.8077 113.596 92.5663C112.106 91.6352 110.803 89.9593 110.803 89.0904C110.803 87.1662 112.478 86.0489 115.085 86.2972C116.513 86.4213 116.761 86.4213 117.32 85.8627C118.313 84.9316 118.437 84.3109 117.692 83.3799C115.954 81.2695 112.665 81.2074 110.306 83.2557C108.878 84.4971 108.258 85.8627 108.258 87.911C108.258 91.1387 110.182 93.7456 113.844 95.5457C115.458 96.3526 116.079 96.5388 117.879 96.6009C121.789 96.8492 124.706 95.6698 127.375 92.8767C129.175 91.0145 130.169 89.0904 130.541 86.7317C131.1 83.3799 129.672 79.2212 126.879 76.2418C123.279 72.3313 119.554 70.5934 113.285 69.8485C111.113 69.6002 67.0428 69.3519 39.5456 69.5382H39.4835Z" fill="#8C90A0"/>
<path d="M280.068 58.3036C280.999 57.807 281.248 57.0001 280.627 56.1311C279.634 54.8276 277.461 55.2621 277.461 56.8139C277.461 57.4966 278.517 58.676 279.075 58.676C279.261 58.676 279.758 58.4898 280.13 58.3036H280.068Z" fill="#8C90A0"/>
<path d="M262.689 58.2415C269.392 58.1794 272.558 58.0553 272.806 57.8691C273.241 57.4966 273.241 56.4414 272.806 56.1932C271.875 55.5724 226.191 56.6897 216.198 54.6414C211.915 53.7724 208.998 52.7172 206.018 51.0413C203.349 49.4895 202.915 49.3654 202.356 49.9861C201.984 50.4827 202.418 51.4137 204.343 54.0207L205.708 55.8207H198.57C191.494 55.8207 191.37 55.8207 188.266 55.0759C183.176 53.8345 179.452 51.8482 176.783 48.8688C174.983 46.8826 174.362 45.2687 174.362 42.5376C174.362 40.7997 174.487 40.241 175.107 38.9996C176.659 35.834 179.514 33.8478 182.99 33.6616C185.101 33.5374 186.59 33.9719 188.577 35.2133C190.066 36.1444 191.37 37.8203 191.37 38.6893C191.37 40.6135 189.694 41.7307 187.087 41.4824C185.659 41.3583 185.411 41.3583 184.852 41.9169C183.859 42.848 183.735 43.4687 184.48 44.3998C186.218 46.5102 189.508 46.5722 191.866 44.5239C193.294 43.2825 193.915 41.9169 193.915 39.8686C193.915 36.641 191.99 34.034 188.328 32.2339C186.714 31.427 186.094 31.2408 184.294 31.1787C180.383 30.9305 177.466 32.1098 174.797 34.903C172.997 36.7651 172.004 38.6893 171.631 41.048C171.073 44.3998 172.5 48.5585 175.294 51.5379C178.894 55.4483 182.618 57.1863 188.887 57.9311C191.059 58.1794 235.129 58.4277 262.627 58.2415H262.689Z" fill="#8C90A0"/>
<path d="M1.86879 58.3036C0.937736 57.807 0.689454 57.0001 1.31016 56.1311C2.30329 54.8276 4.47575 55.2621 4.47575 56.8139C4.47575 57.4966 3.42056 58.676 2.86192 58.676C2.67571 58.676 2.17915 58.4898 1.80672 58.3036H1.86879Z" fill="#8C90A0"/>
<path d="M19.3109 58.2415C12.6073 58.1794 9.44171 58.0553 9.19342 57.8691C8.75893 57.4966 8.75893 56.4414 9.19342 56.1932C10.1245 55.5724 55.8084 56.6897 65.8017 54.6414C70.0846 53.7724 73.0019 52.7172 75.9813 51.0413C78.6503 49.4895 79.0848 49.3654 79.6434 49.9861C80.0159 50.4827 79.5814 51.4137 77.6572 54.0207L76.2916 55.8207H83.4297C90.5058 55.8207 90.6299 55.8207 93.7334 55.0759C98.8232 53.8345 102.547 51.8482 105.216 48.8688C107.017 46.8826 107.637 45.2687 107.637 42.5376C107.637 40.7997 107.513 40.241 106.892 38.9996C105.341 35.834 102.485 33.8478 99.0094 33.6616C96.899 33.5374 95.4093 33.9719 93.4231 35.2133C91.9334 36.1444 90.6299 37.8203 90.6299 38.6893C90.6299 40.6135 92.3058 41.7307 94.9128 41.4824C96.3404 41.3583 96.5887 41.3583 97.1473 41.9169C98.1404 42.848 98.2646 43.4687 97.5197 44.3998C95.7818 46.5102 92.492 46.5722 90.1333 44.5239C88.7057 43.2825 88.085 41.9169 88.085 39.8686C88.085 36.641 90.0092 34.034 93.6714 32.2339C95.2852 31.427 95.9059 31.2408 97.7059 31.1787C101.616 30.9305 104.534 32.1098 107.203 34.903C109.003 36.7651 109.996 38.6893 110.368 41.048C110.927 44.3998 109.499 48.5585 106.706 51.5379C103.106 55.4483 99.3819 57.1863 93.1127 57.9311C90.9403 58.1794 46.8702 58.4277 19.373 58.2415H19.3109Z" fill="#8C90A0"/>
<path d="M137.493 34.9032V41.4827H151.769C152.204 41.4827 152.576 41.731 152.824 42.1655C153.135 42.6 153.259 43.3448 153.259 44.4C153.259 46.3863 152.762 47.3173 151.769 47.3173H137.493V57.4969C137.493 57.9935 137.245 58.3038 136.748 58.5521C136.252 58.8004 135.258 58.9245 133.769 58.9245C132.279 58.9245 131.286 58.8004 130.789 58.5521C130.293 58.3038 130.044 57.9314 130.044 57.4969V47.3173H125.886C124.955 47.3173 124.458 46.3242 124.458 44.4C124.458 43.3448 124.582 42.6 124.831 42.1655C125.079 41.731 125.451 41.4827 125.886 41.4827H130.044V34.9032H125.886C125.451 34.9032 125.079 34.655 124.831 34.2205C124.582 33.786 124.458 33.0411 124.458 31.9859C124.458 30.9928 124.582 30.248 124.831 29.8135C125.079 29.379 125.451 29.1307 125.886 29.1307H130.044V4.24042C130.044 3.06108 130.355 2.19209 130.976 1.69553C131.596 1.19897 132.279 0.950684 133.086 0.950684H144.631C147.424 0.950684 149.969 1.32311 152.39 2.00588C154.811 2.68866 156.859 3.74386 158.721 5.17148C160.521 6.5991 161.887 8.33707 162.942 10.4475C163.935 12.5579 164.494 14.9786 164.494 17.8339C164.494 20.3787 164.059 22.6754 163.19 24.7858C162.321 26.8962 161.018 28.6962 159.28 30.1859C157.542 31.6756 155.369 32.8549 152.762 33.6618C150.155 34.4688 147.114 34.9032 143.576 34.9032H137.555H137.493ZM137.493 6.72324V29.1307H144.01C146.245 29.1307 148.169 28.8203 149.783 28.2617C151.397 27.7031 152.7 26.8962 153.755 25.9651C154.749 24.972 155.555 23.8547 155.99 22.5512C156.486 21.2477 156.735 19.8201 156.735 18.3304C156.735 15.9717 156.362 13.9855 155.618 12.4958C154.873 11.0061 153.942 9.82676 152.7 8.95778C151.521 8.08879 150.155 7.46809 148.666 7.15773C147.176 6.84738 145.686 6.66117 144.134 6.66117H137.431L137.493 6.72324Z" fill="#8C90A0"/>
</svg>
