<svg width="288" height="50" viewBox="0 0 288 50" fill="none" xmlns="http://www.w3.org/2000/svg">
<path d="M286.438 49.3393C287.242 48.799 287.403 48.0786 286.92 47.3582C286.116 46.0975 284.347 46.6378 284.347 47.8985C284.347 48.4388 285.151 49.6995 285.633 49.5194C285.633 49.6995 286.116 49.5194 286.438 49.3393Z" fill="#8C90A0"/>
<path d="M3.14658 49.1582C4.1118 48.0777 3.46836 46.637 2.18141 46.637C1.37706 46.8171 0.572682 47.7175 0.894421 48.4379C1.05529 48.9781 2.02051 49.6985 2.50312 49.6985C2.50312 49.6985 2.82484 49.5184 3.14658 49.1582Z" fill="#8C90A0"/>
<path d="M268.099 49.339C273.568 49.339 276.142 49.1589 276.303 48.9789C276.625 48.6187 276.625 47.7184 276.303 47.3582C276.142 47.1782 270.833 46.9981 264.559 46.9981C258.285 46.818 252.172 46.818 250.885 46.818C249.599 46.818 236.568 46.818 221.768 46.9981C192.972 47.1782 193.616 47.1782 188.468 46.0978C184.929 45.3775 182.677 44.2971 180.264 42.8565C178.012 41.416 177.69 41.416 177.368 41.9562C177.046 42.3163 177.368 43.2167 178.977 45.5576L180.103 47.1782L174.312 47.1782C168.52 47.1782 168.52 47.1782 165.946 46.4579C161.764 45.3775 158.707 43.5768 156.616 40.8758C155.168 39.0751 154.686 37.6346 154.686 35.1136C154.686 33.493 154.846 32.9528 155.329 31.8724C156.616 28.9914 158.868 27.1907 161.764 27.0106C163.533 26.8305 164.659 27.1907 166.268 28.4511C167.394 29.3515 168.52 30.792 168.52 31.6924C168.52 33.493 167.233 34.3934 164.981 34.2133C163.855 34.0332 163.694 34.0333 163.212 34.5735C162.407 35.4738 162.246 36.014 162.89 36.9143C164.338 38.8951 166.912 38.8951 168.842 37.0944C169.968 36.014 170.451 34.7535 170.451 32.7728C170.451 29.8917 168.842 27.3707 165.946 25.7501C164.659 25.0299 164.177 24.8498 162.729 24.8498C159.512 24.6697 157.259 25.7501 155.007 28.2711C153.559 29.8917 152.755 31.6924 152.433 33.8532C151.951 36.9143 153.077 40.6957 155.329 43.3967C158.225 46.9981 161.281 48.4386 166.429 49.1589C168.038 49.339 245.738 49.5191 268.099 49.339Z" fill="#8C90A0"/>
<path d="M89.6943 49.339C122.833 49.1589 122.673 49.1589 125.568 48.2585C129.107 47.1781 132.807 43.7568 134.416 40.1555C136.346 35.8338 135.864 31.5122 132.807 28.0909C130.555 25.57 128.303 24.4896 125.086 24.6696C123.638 24.8497 123.155 24.8497 121.868 25.57C118.812 27.1906 117.364 29.5315 117.364 32.5926C117.364 34.5734 117.846 35.6538 118.973 36.9142C120.903 38.7149 123.638 38.7149 124.925 36.7342C125.568 35.8339 125.407 35.2936 124.603 34.3933C124.12 33.8531 123.96 33.8531 122.833 34.0332C120.742 34.2132 119.294 33.3129 119.294 31.5122C119.294 30.6119 120.42 29.1713 121.546 28.271C123.155 27.1906 124.281 26.8304 126.051 26.8304C128.786 27.0105 131.199 28.8112 132.486 31.6923C132.968 32.7727 133.129 33.3129 133.129 34.9335C133.129 37.4545 132.646 38.895 131.199 40.6957C129.107 43.3967 126.051 45.1974 121.868 46.2778C119.294 46.9981 119.294 46.9981 113.503 46.9981L107.712 46.9981L108.838 45.3775C110.446 43.0366 110.768 42.1362 110.446 41.7761C109.964 41.2359 109.642 41.2359 107.551 42.6764C105.138 44.117 102.725 45.1974 99.3465 45.9177C94.1987 47.1781 94.8421 46.9981 66.0465 46.818C51.2465 46.6379 38.0552 46.6379 36.9291 46.6379C35.6421 46.6379 29.5291 46.818 23.2552 46.818C16.9813 46.9981 11.6726 46.9981 11.5117 47.1781C11.19 47.3582 11.19 48.4386 11.5117 48.7987C11.8335 49.339 45.7769 49.519 89.6943 49.339Z" fill="#8C90A0"/>
<path d="M153.077 48.4388C153.399 48.0786 153.238 47.7185 152.594 47.3583C151.468 46.8181 150.181 45.1975 149.538 43.3968C148.573 41.0559 148.251 39.0751 148.251 36.0139C148.251 32.5926 148.573 30.4318 149.216 28.8112C150.021 27.0105 152.434 24.3094 154.042 23.229C155.329 22.5087 155.812 21.9685 155.168 21.4283C155.007 21.4283 154.686 20.708 154.364 20.1678C154.042 19.4476 152.916 17.4668 151.79 15.486C149.86 12.2448 147.125 7.02274 145.034 2.16086C144.551 0.900374 144.068 2.70072e-06 143.907 2.68497e-06C143.907 2.68497e-06 143.425 0.900374 142.781 2.16086C140.69 7.02274 137.955 12.2448 136.025 15.486C134.899 17.4668 133.773 19.4476 133.451 20.1678C133.129 20.8881 132.807 21.4283 132.647 21.4283C132.164 21.7885 132.486 22.3287 133.773 23.229C134.738 23.7692 135.542 24.4895 136.668 25.75C139.081 28.6311 139.564 30.4318 139.564 35.8339C139.564 38.8951 139.242 40.8758 138.277 43.2167C137.634 44.8374 136.186 46.6381 135.221 47.1783C134.738 47.3584 134.577 47.7185 134.577 47.8986C134.577 48.2587 135.381 48.2587 143.747 48.4388C148.894 48.6188 152.916 48.4388 153.077 48.4388ZM138.921 46.0979C138.921 46.0979 139.242 45.3776 139.725 44.6573C141.012 42.1363 141.655 39.9755 141.655 36.5542C141.816 29.5314 139.886 24.4895 135.703 21.7884C135.381 21.6084 135.381 21.4283 136.025 20.3479C136.508 19.6276 137.312 18.3671 137.794 17.4668C139.081 15.486 141.655 10.8042 142.942 7.92309C143.425 6.84267 143.907 5.94231 143.907 5.94231C143.907 5.94231 144.39 6.84267 144.873 7.92309C146.16 10.6241 148.734 15.486 150.021 17.4668C150.503 18.3671 151.308 19.6276 151.79 20.3479C152.434 21.6084 152.434 21.6084 152.112 21.7884C147.929 24.4895 145.999 29.5314 146.16 36.5542C146.321 39.9755 146.803 42.1363 148.09 44.6573C148.573 45.3776 148.894 46.0979 148.894 46.0979C148.894 46.0979 146.642 46.2779 143.907 46.2779C141.173 46.2779 138.921 46.0979 138.921 46.0979Z" fill="#8C90A0"/>
</svg>
