<svg width="185" height="32" fill="none" xmlns="http://www.w3.org/2000/svg"><path d="M184.349 31.076c.517-.34.621-.794.31-1.247-.517-.794-1.655-.454-1.655.34 0 .34.517 1.134.828 1.02 0 .114.31 0 .517-.113zM2.163 30.962c.62-.68.206-1.588-.621-1.588-.517.114-1.035.68-.828 1.134.104.34.724.794 1.035.794 0 0 .207-.113.414-.34zM172.555 31.075c3.517 0 5.173-.113 5.276-.227.207-.227.207-.794 0-1.02-.103-.114-3.517-.227-7.552-.227-4.035-.114-7.966-.114-8.794-.114-.828 0-9.208 0-18.726.114-18.518.113-18.104.113-21.415-.567-2.276-.454-3.724-1.134-5.276-2.042-1.449-.907-1.656-.907-1.862-.567-.207.227 0 .794 1.034 2.268l.724 1.021h-3.724c-3.725 0-3.725 0-5.38-.453-2.69-.681-4.655-1.815-6-3.516-.931-1.135-1.242-2.042-1.242-3.63 0-1.02.104-1.36.414-2.041.828-1.815 2.276-2.949 4.138-3.062 1.138-.114 1.863.113 2.897.907.724.567 1.448 1.474 1.448 2.042 0 1.134-.827 1.7-2.276 1.587-.724-.113-.827-.113-1.138.227-.517.567-.62.908-.207 1.475.932 1.247 2.587 1.247 3.828.113.725-.68 1.035-1.474 1.035-2.722 0-1.814-1.035-3.402-2.897-4.423-.827-.454-1.138-.567-2.069-.567-2.069-.114-3.517.567-4.966 2.155-.931 1.02-1.448 2.155-1.655 3.515-.31 1.929.414 4.31 1.862 6.011 1.862 2.269 3.828 3.176 7.139 3.63 1.034.113 51.003.227 65.384.113zM57.822 31.075c21.312-.113 21.209-.113 23.07-.68 2.277-.68 4.656-2.836 5.69-5.104 1.242-2.722.932-5.444-1.034-7.599-1.448-1.587-2.896-2.268-4.966-2.155-.93.114-1.241.114-2.069.568-1.965 1.02-2.897 2.495-2.897 4.423 0 1.247.31 1.928 1.035 2.722 1.242 1.134 3 1.134 3.828-.114.414-.567.31-.907-.207-1.474-.31-.34-.414-.34-1.138-.227-1.345.113-2.276-.454-2.276-1.588 0-.567.724-1.474 1.448-2.041 1.035-.68 1.76-.908 2.897-.908 1.759.114 3.31 1.248 4.138 3.063.31.68.414 1.02.414 2.041 0 1.588-.31 2.495-1.241 3.63-1.345 1.7-3.31 2.835-6 3.515-1.656.454-1.656.454-5.38.454h-3.725l.724-1.021c1.035-1.474 1.242-2.041 1.035-2.268-.31-.34-.517-.34-1.862.567-1.552.907-3.104 1.587-5.277 2.041-3.31.794-2.896.68-21.415.567-9.518-.113-18.001-.113-18.726-.113-.827 0-4.759.113-8.793.113-4.035.114-7.45.114-7.553.227-.207.114-.207.794 0 1.02.207.341 22.037.454 50.28.341z" fill="#fff"/><path d="M98.584 30.508c.207-.227.103-.453-.31-.68-.725-.34-1.552-1.361-1.966-2.495-.62-1.475-.828-2.722-.828-4.65 0-2.155.207-3.516.621-4.537.517-1.134 2.07-2.835 3.104-3.516.827-.453 1.138-.794.724-1.134-.104 0-.31-.454-.517-.794-.207-.453-.931-1.7-1.656-2.948-1.241-2.042-3-5.33-4.345-8.393C93.101.567 92.791 0 92.687 0c0 0-.31.567-.724 1.361-1.345 3.062-3.104 6.351-4.345 8.393-.725 1.247-1.449 2.495-1.656 2.948-.207.454-.414.794-.517.794-.31.227-.103.567.724 1.134.62.34 1.138.794 1.862 1.588 1.552 1.815 1.863 2.949 1.863 6.351 0 1.928-.207 3.176-.828 4.65-.414 1.02-1.345 2.155-1.966 2.495-.31.114-.414.34-.414.454 0 .227.518.227 5.897.34 3.311.114 5.897 0 6 0zm-9.104-1.474s.207-.454.517-.908c.828-1.587 1.242-2.948 1.242-5.103.103-4.423-1.139-7.599-3.828-9.3-.207-.113-.207-.227.207-.907.31-.454.827-1.248 1.138-1.815.827-1.247 2.483-4.196 3.31-6.01.31-.681.62-1.248.62-1.248s.311.567.622 1.247c.827 1.701 2.483 4.764 3.31 6.011.31.567.828 1.361 1.138 1.815.414.794.414.794.207.907-2.69 1.701-3.931 4.877-3.828 9.3.104 2.155.414 3.516 1.242 5.103.31.454.517.908.517.908s-1.448.113-3.207.113-3.207-.113-3.207-.113z" fill="#fff"/></svg>