<svg width="282" height="131" viewBox="0 0 282 131" fill="none" xmlns="http://www.w3.org/2000/svg">
<path d="M130.04 78.829C129.638 79.2313 129.839 79.6335 130.643 80.0357C131.85 80.639 133.459 82.449 134.263 84.259C135.47 86.8734 135.872 88.8845 135.872 92.1022C135.872 95.7221 135.47 98.1354 134.665 99.7443C133.66 101.755 130.844 104.571 128.833 105.778C127.224 106.582 126.822 107.185 127.425 107.588C127.627 107.588 128.029 108.392 128.431 108.995C128.833 109.8 130.241 112.012 131.649 114.023C134.062 117.442 137.28 123.274 139.693 128.503C140.296 129.709 140.9 130.916 140.9 130.916C140.9 130.916 141.503 129.911 142.106 128.503C144.721 123.274 147.939 117.643 150.151 114.023C151.559 112.012 152.966 109.8 153.368 108.995C153.771 108.392 154.173 107.588 154.374 107.588C154.977 107.185 154.575 106.582 152.966 105.778C151.76 105.174 150.754 104.37 149.547 102.962C146.732 99.7443 145.927 97.9343 145.927 92.1022C145.927 88.6834 146.33 86.6723 147.536 84.0579C148.341 82.2479 149.95 80.4379 151.156 79.8346C151.76 79.6335 151.961 79.2313 151.961 79.0301C151.961 78.6279 150.955 78.6279 140.9 78.6279C134.866 78.6279 129.839 78.6279 129.839 78.829H130.04ZM147.134 81.2423C147.134 81.2423 146.732 82.0468 146.33 82.8512C144.721 85.4656 144.117 87.8789 143.916 91.4989C143.715 98.9399 146.129 104.37 151.156 107.386C151.559 107.588 151.559 107.789 150.754 108.995C150.352 109.8 149.346 111.207 148.542 112.213C147.134 114.224 143.916 119.453 142.308 122.47C141.704 123.676 141.101 124.481 141.101 124.481C141.101 124.481 140.498 123.475 139.894 122.47C138.285 119.453 135.269 114.425 133.66 112.213C133.057 111.207 132.051 109.8 131.448 108.995C130.643 107.789 130.643 107.588 131.045 107.386C136.073 104.571 138.486 99.141 138.285 91.4989C138.084 87.8789 137.481 85.4656 135.872 82.8512C135.47 82.0468 135.068 81.2423 135.068 81.2423C135.068 81.2423 137.883 81.0412 141.101 81.0412C144.52 81.0412 147.134 81.0412 147.134 81.2423Z" fill="#8C90A0"/>
<path d="M259.956 76.4152C260.961 77.0185 261.162 77.823 260.559 78.6274C259.554 80.0352 257.341 79.4319 257.341 78.0241C257.341 77.4208 258.347 76.2141 258.95 76.2141C259.151 76.2141 259.554 76.4152 259.956 76.6163V76.4152Z" fill="#8C90A0"/>
<path d="M242.459 76.4154C249.096 76.4154 252.314 76.6165 252.515 76.8176C252.917 77.2198 252.917 78.2254 252.515 78.4265C251.71 79.0298 205.858 78.0243 196.003 80.0354C191.78 80.8398 188.763 81.8453 185.948 83.6553C183.333 85.2642 182.73 85.2642 182.328 84.6609C181.926 84.2586 182.328 83.2531 184.339 80.6387L185.747 78.8287H178.507C171.468 78.8287 171.267 78.8287 168.25 79.6331C163.223 80.8398 159.402 82.8509 156.787 85.8675C154.977 87.8786 154.374 89.4875 154.374 92.303C154.374 94.1129 154.575 94.5152 155.178 95.9229C156.787 99.1407 159.603 100.951 163.022 101.152C165.234 101.353 166.641 100.951 168.653 99.5429C170.06 98.5373 171.468 96.9285 171.468 96.124C171.468 94.1129 169.859 93.1074 167.245 93.3085C165.837 93.5096 165.636 93.5096 165.033 92.9063C164.027 91.9008 164.027 91.2974 164.63 90.493C166.44 88.4819 169.658 88.2808 172.071 90.2919C173.479 91.4985 174.082 92.9063 174.082 94.9174C174.082 98.1351 172.272 100.75 168.451 102.559C166.843 103.364 166.239 103.565 164.429 103.565C160.608 103.766 157.592 102.559 154.977 99.9451C153.167 98.1351 152.162 96.124 151.759 93.7107C151.156 90.2919 152.564 86.2697 155.379 83.2531C158.999 79.432 162.619 77.6221 169.055 76.8176C171.267 76.6165 215.31 76.2143 242.862 76.4154H242.459Z" fill="#8C90A0"/>
<path d="M22.2459 76.4152C21.2404 77.0185 21.0393 77.823 21.6426 78.6274C22.6481 80.0352 24.8603 79.4319 24.8603 78.0241C24.8603 77.4208 23.8548 76.2141 23.2515 76.2141C23.0504 76.2141 22.6481 76.4152 22.2459 76.6163V76.4152Z" fill="#8C90A0"/>
<path d="M39.5414 76.4154C32.9048 76.4154 29.6871 76.6165 29.486 76.8176C29.0838 77.2198 29.0838 78.2254 29.486 78.4265C30.2904 79.0298 76.1431 78.0243 85.9975 80.0354C90.2207 80.8398 93.2374 81.8453 96.0529 83.6553C98.6673 85.2642 99.2706 85.2642 99.6728 84.6609C100.075 84.2586 99.6728 83.2531 97.6617 80.6387L96.254 78.8287H103.494C110.533 78.8287 110.734 78.8287 113.75 79.6331C118.778 80.8398 122.599 82.8509 125.214 85.8675C127.024 87.8786 127.627 89.4875 127.627 92.303C127.627 94.1129 127.426 94.5152 126.822 95.9229C125.214 99.1407 122.398 100.951 118.979 101.152C116.767 101.353 115.359 100.951 113.348 99.5429C111.94 98.5373 110.533 96.9285 110.533 96.124C110.533 94.1129 112.142 93.1074 114.756 93.3085C116.164 93.5096 116.365 93.5096 116.968 92.9063C117.974 91.9008 117.974 91.2974 117.37 90.493C115.56 88.4819 112.343 88.2808 109.929 90.2919C108.522 91.4985 107.918 92.9063 107.918 94.9174C107.918 98.1351 109.728 100.75 113.549 102.559C115.158 103.364 115.761 103.565 117.571 103.565C121.393 103.766 124.409 102.559 127.024 99.9451C128.834 98.1351 129.839 96.124 130.241 93.7107C130.845 90.2919 129.437 86.2697 126.621 83.2531C123.001 79.432 119.381 77.6221 112.946 76.8176C110.734 76.6165 66.691 76.2143 39.1392 76.4154H39.5414Z" fill="#8C90A0"/>
<path d="M280.067 65.3538C281.072 64.7504 281.273 63.946 280.67 63.1416C279.664 61.7338 277.452 62.3371 277.452 63.7449C277.452 64.3482 278.458 65.5549 279.061 65.5549C279.262 65.5549 279.664 65.3538 280.067 65.1527V65.3538Z" fill="#8C90A0"/>
<path d="M262.57 65.1531C269.207 65.1531 272.425 64.952 272.626 64.7509C273.028 64.3487 273.028 63.3431 272.626 63.142C271.821 62.5387 225.969 63.5442 216.114 61.5332C211.891 60.7287 208.874 59.7232 206.059 57.9132C203.444 56.3043 202.841 56.3043 202.439 56.9077C202.037 57.3099 202.439 58.3154 204.45 60.9298L205.858 62.7398H198.618C191.579 62.7398 191.378 62.7398 188.361 61.9354C183.334 60.7287 179.513 58.7176 176.898 55.701C175.088 53.6899 174.485 52.0811 174.485 49.2656C174.485 47.4556 174.686 47.0534 175.289 45.6456C176.898 42.4279 179.714 40.6179 183.132 40.4168C185.345 40.2157 186.752 40.6179 188.764 42.0256C190.171 43.0312 191.579 44.6401 191.579 45.4445C191.579 47.4556 189.97 48.4611 187.356 48.26C185.948 48.0589 185.747 48.0589 185.144 48.6622C184.138 49.6678 184.138 50.2711 184.741 51.0755C186.551 53.0866 189.769 53.2877 192.182 51.2766C193.59 50.07 194.193 48.6622 194.193 46.6511C194.193 43.4334 192.383 40.819 188.562 39.009C186.954 38.2046 186.35 38.0035 184.54 38.0035C180.719 37.8024 177.703 39.009 175.088 41.6234C173.278 43.4334 172.273 45.4445 171.87 47.8578C171.267 51.2766 172.675 55.2988 175.49 58.3154C179.11 62.1365 182.73 63.9465 189.166 64.7509C191.378 64.952 235.421 65.3542 262.972 65.1531H262.57Z" fill="#8C90A0"/>
<path d="M1.93378 65.3538C0.928243 64.7504 0.727134 63.946 1.33046 63.1416C2.336 61.7338 4.54819 62.3371 4.54819 63.7449C4.54819 64.3482 3.54265 65.5549 2.93933 65.5549C2.73822 65.5549 2.336 65.3538 1.93378 65.1527V65.3538Z" fill="#8C90A0"/>
<path d="M19.4304 65.1531C12.7939 65.1531 9.57614 64.952 9.37503 64.7509C8.97281 64.3487 8.97281 63.3431 9.37503 63.142C10.1795 62.5387 56.0322 63.5442 65.8865 61.5332C70.1098 60.7287 73.1264 59.7232 75.9419 57.9132C78.5563 56.3043 79.1596 56.3043 79.5619 56.9077C79.9641 57.3099 79.5619 58.3154 77.5508 60.9298L76.143 62.7398H83.3829C90.4217 62.7398 90.6228 62.7398 93.6394 61.9354C98.6672 60.7287 102.488 58.7176 105.103 55.701C106.913 53.6899 107.516 52.0811 107.516 49.2656C107.516 47.4556 107.315 47.0534 106.711 45.6456C105.103 42.4279 102.287 40.6179 98.8683 40.4168C96.6561 40.2157 95.2483 40.6179 93.2372 42.0256C91.8295 43.0312 90.4217 44.6401 90.4217 45.4445C90.4217 47.4556 92.0306 48.4611 94.645 48.26C96.0527 48.0589 96.2539 48.0589 96.8572 48.6622C97.8627 49.6678 97.8627 50.2711 97.2594 51.0755C95.4494 53.0866 92.2317 53.2877 89.8184 51.2766C88.4106 50.07 87.8073 48.6622 87.8073 46.6511C87.8073 43.4334 89.6173 40.819 93.4383 39.009C95.0472 38.2046 95.6505 38.0035 97.4605 38.0035C101.282 37.8024 104.298 39.009 106.913 41.6234C108.723 43.4334 109.728 45.4445 110.13 47.8578C110.734 51.2766 109.326 55.2988 106.51 58.3154C102.89 62.1365 99.2705 63.9465 92.835 64.7509C90.6228 64.952 46.5801 65.3542 19.0282 65.1531H19.4304Z" fill="#8C90A0"/>
<path fill-rule="evenodd" clip-rule="evenodd" d="M167.647 25.3342L162.418 19.9042L163.424 12.4632C163.625 11.2566 162.82 10.251 161.614 10.0499L154.173 8.84328L150.553 2.20671C149.949 1.20116 148.743 0.798947 147.737 1.20116L140.899 4.4189L134.062 1.20116C133.056 0.597838 131.85 1.20116 131.246 2.20671L127.626 8.84328L120.185 10.0499C118.979 10.251 118.174 11.2566 118.375 12.4632L119.381 19.9042L114.152 25.3342C113.348 26.1386 113.348 27.5464 114.152 28.3508L119.381 33.7807L118.375 41.2217C118.174 42.4284 118.979 43.4339 120.185 43.635L126.219 44.6406V67.768C126.219 68.5725 126.621 69.1758 127.224 69.578C127.626 69.7791 128.029 69.9802 128.431 69.9802C128.833 69.9802 129.034 69.9802 129.436 69.7791L140.899 63.947L152.363 69.7791C152.966 70.1813 153.77 69.9802 154.374 69.7791C154.977 69.3769 155.379 68.7736 155.379 67.9692V44.8417L161.413 43.8361C162.619 43.635 163.424 42.6295 163.222 41.4228L162.217 33.9818L167.446 28.5519C168.25 27.7475 168.25 26.3397 167.446 25.5353L167.647 25.3342ZM142.106 59.7237C141.503 59.5226 140.698 59.5226 140.095 59.7237L130.643 64.3492V50.2716L131.447 51.6794C132.051 52.6849 133.257 53.0871 134.263 52.6849L141.101 49.4672L147.938 52.6849C148.34 52.886 148.542 52.886 148.944 52.886C149.748 52.886 150.352 52.4838 150.754 51.6794L151.558 50.2716V64.3492L142.106 59.7237ZM158.597 31.5685C158.195 31.9708 157.994 32.7752 157.994 33.3785L158.999 39.814L152.564 41.0206C151.96 41.2217 151.357 41.624 150.955 42.0262L147.938 47.8583L142.106 45.0428C141.905 44.8417 141.503 44.8417 141.101 44.8417C140.698 44.8417 140.497 44.8417 140.095 45.0428L134.263 47.8583L131.246 42.0262C130.844 41.4228 130.442 41.0206 129.637 41.0206L123.202 39.814L124.207 33.3785C124.207 32.7752 124.006 31.9708 123.604 31.5685L118.979 26.943L123.604 22.3175C124.006 21.9153 124.207 21.1109 124.207 20.5076L123.202 14.0721L129.637 12.8655C130.241 12.6643 130.844 12.2621 131.246 11.8599L134.263 6.02777L140.095 8.84328C140.698 9.04439 141.302 9.04439 141.905 8.84328L147.737 6.02777L150.754 11.8599C151.156 12.4632 151.558 12.8655 152.363 12.8655L158.798 14.0721L157.793 20.5076C157.793 21.1109 157.994 21.9153 158.396 22.3175L163.021 26.943L158.396 31.5685H158.597Z" fill="#8C90A0"/>
<path fill-rule="evenodd" clip-rule="evenodd" d="M141.101 12.262C133.056 12.262 126.42 18.8985 126.42 26.9429C126.42 34.9872 133.056 41.6238 141.101 41.6238C149.145 41.6238 155.782 34.9872 155.782 26.9429C155.782 18.8985 149.145 12.262 141.101 12.262ZM141.101 37.1994C135.47 37.1994 130.844 32.5739 130.844 26.9429C130.844 21.3118 135.47 16.6863 141.101 16.6863C146.732 16.6863 151.357 21.3118 151.357 26.9429C151.357 32.5739 146.732 37.1994 141.101 37.1994Z" fill="#8C90A0"/>
<path fill-rule="evenodd" clip-rule="evenodd" d="M145.324 21.5132L139.09 27.7475L136.676 25.3342C135.872 24.5298 134.464 24.5298 133.66 25.3342C132.855 26.1387 132.855 27.5464 133.66 28.3509L137.481 32.1719C137.883 32.5741 138.486 32.7752 139.09 32.7752C139.693 32.7752 140.095 32.5741 140.698 32.1719L148.542 24.3287C149.346 23.5243 149.346 22.1165 148.542 21.3121C147.737 20.5076 146.329 20.5076 145.525 21.3121L145.324 21.5132Z" fill="#8C90A0"/>
</svg>
