<svg width="80" height="80" viewBox="0 0 80 80" fill="none" xmlns="http://www.w3.org/2000/svg">
<rect width="80" height="80" fill="white"/>
<circle cx="30" cy="30" r="30" fill="#00AFEC"/>
<circle cx="46.5" cy="26.5" r="22.5" fill="#FF1037"/>
<path fill-rule="evenodd" clip-rule="evenodd" d="M41.5 18.8621C30.102 18.8621 20.8621 28.102 20.8621 39.5C20.8621 50.898 30.102 60.1379 41.5 60.1379C52.898 60.1379 62.1379 50.898 62.1379 39.5C62.1379 28.102 52.898 18.8621 41.5 18.8621ZM10 39.5C10 22.103 24.103 8 41.5 8C58.897 8 73 22.103 73 39.5C73 56.897 58.897 71 41.5 71C24.103 71 10 56.897 10 39.5Z" fill="#152438"/>
<path fill-rule="evenodd" clip-rule="evenodd" d="M57.5977 55.5311C59.7278 53.4896 63.1814 53.4896 65.3115 55.5311L78.4023 68.0765C80.5326 70.1179 80.5326 73.4276 78.4023 75.4689C76.2722 77.5104 72.8186 77.5104 70.6885 75.4689L57.5977 62.9235C55.4674 60.8821 55.4674 57.5724 57.5977 55.5311Z" fill="#152438"/>
</svg>
