<svg width="60" height="60" fill="none" xmlns="http://www.w3.org/2000/svg"><g clip-path="url(#clip0)"><path d="M46.25 23.75H11.248a3.755 3.755 0 00-3.75 3.75V30c0 8.92 4.927 17.01 12.857 21.112a1.252 1.252 0 001.148-2.222C14.409 45.22 9.999 37.982 9.999 30v-2.5c0-.69.56-1.25 1.25-1.25h35c.69 0 1.25.56 1.25 1.25V30c0 7.982-4.41 15.22-11.507 18.887a1.252 1.252 0 001.147 2.223C45.072 47.01 50 38.922 50 30v-2.5a3.755 3.755 0 00-3.75-3.75z" fill="#D0D2D8"/><path d="M46.25 23.75H11.248a3.755 3.755 0 00-3.75 3.75V30c0 8.92 4.927 17.01 12.857 21.112a1.252 1.252 0 001.148-2.222C14.409 45.22 9.999 37.982 9.999 30v-2.5c0-.69.56-1.25 1.25-1.25h35c.69 0 1.25.56 1.25 1.25V30c0 7.982-4.41 15.22-11.507 18.887a1.252 1.252 0 001.147 2.223C45.072 47.01 50 38.922 50 30v-2.5a3.755 3.755 0 00-3.75-3.75z" fill="url(#paint0_linear)"/><path d="M57.407 49.52a1.253 1.253 0 00-1.155-.773H1.251a1.253 1.253 0 00-.885 2.135l2.802 2.806a8.698 8.698 0 006.188 2.562h38.786c2.338 0 4.535-.91 6.193-2.563l2.802-2.805c.358-.357.465-.895.27-1.362zm-4.842 2.4a6.214 6.214 0 01-4.42 1.83H9.356c-1.667 0-3.24-.65-4.42-1.83l-.67-.67h48.969l-.67.67z" fill="#D0D2D8"/><path d="M57.407 49.52a1.253 1.253 0 00-1.155-.773H1.251a1.253 1.253 0 00-.885 2.135l2.802 2.806a8.698 8.698 0 006.188 2.562h38.786c2.338 0 4.535-.91 6.193-2.563l2.802-2.805c.358-.357.465-.895.27-1.362zm-4.842 2.4a6.214 6.214 0 01-4.42 1.83H9.356c-1.667 0-3.24-.65-4.42-1.83l-.67-.67h48.969l-.67.67z" fill="url(#paint1_linear)"/><path d="M57.582 29.652c-3.367-2.165-8.748.185-9.35.457a1.252 1.252 0 001.037 2.278c1.205-.548 5.07-1.845 6.96-.628.853.548 1.27 1.61 1.27 3.24 0 5.006-10.095 8.03-13.992 8.776l-.885.175a1.25 1.25 0 10.482 2.45l.878-.173c.654-.125 16.017-3.137 16.017-11.227 0-2.516-.814-4.313-2.417-5.348z" fill="#D0D2D8"/><path d="M57.582 29.652c-3.367-2.165-8.748.185-9.35.457a1.252 1.252 0 001.037 2.278c1.205-.548 5.07-1.845 6.96-.628.853.548 1.27 1.61 1.27 3.24 0 5.006-10.095 8.03-13.992 8.776l-.885.175a1.25 1.25 0 10.482 2.45l.878-.173c.654-.125 16.017-3.137 16.017-11.227 0-2.516-.814-4.313-2.417-5.348z" fill="url(#paint2_linear)"/><path d="M38.482 13.279c2.033-2.54 2.033-6.518 0-9.058a1.246 1.246 0 00-1.757-.195 1.249 1.249 0 00-.195 1.758c1.287 1.607 1.287 4.325-.003 5.937-2.035 2.54-2.035 6.518 0 9.058a1.245 1.245 0 001.758.195c.54-.433.627-1.22.195-1.757-1.29-1.608-1.29-4.326.002-5.938z" fill="#D0D2D8"/><path d="M38.482 13.279c2.033-2.54 2.033-6.518 0-9.058a1.246 1.246 0 00-1.757-.195 1.249 1.249 0 00-.195 1.758c1.287 1.607 1.287 4.325-.003 5.937-2.035 2.54-2.035 6.518 0 9.058a1.245 1.245 0 001.758.195c.54-.433.627-1.22.195-1.757-1.29-1.608-1.29-4.326.002-5.938z" fill="url(#paint3_linear)"/><path d="M30.972 13.279c2.035-2.54 2.035-6.518 0-9.058a1.248 1.248 0 00-1.758-.195 1.249 1.249 0 00-.195 1.758c1.29 1.607 1.29 4.325-.002 5.937-2.033 2.54-2.033 6.518 0 9.058a1.245 1.245 0 001.757.195c.54-.433.628-1.218.195-1.758-1.288-1.607-1.288-4.325.003-5.937z" fill="#D0D2D8"/><path d="M30.972 13.279c2.035-2.54 2.035-6.518 0-9.058a1.248 1.248 0 00-1.758-.195 1.249 1.249 0 00-.195 1.758c1.29 1.607 1.29 4.325-.002 5.937-2.033 2.54-2.033 6.518 0 9.058a1.245 1.245 0 001.757.195c.54-.433.628-1.218.195-1.758-1.288-1.607-1.288-4.325.003-5.937z" fill="url(#paint4_linear)"/><path d="M23.482 13.281c2.032-2.54 2.032-6.517 0-9.057a1.25 1.25 0 00-1.953 1.56c1.288 1.607 1.288 4.325-.002 5.937-2.035 2.54-2.035 6.518 0 9.058.247.31.61.47.977.47a1.249 1.249 0 00.975-2.03c-1.29-1.61-1.29-4.325.003-5.938z" fill="#D0D2D8"/><path d="M23.482 13.281c2.032-2.54 2.032-6.517 0-9.057a1.25 1.25 0 00-1.953 1.56c1.288 1.607 1.288 4.325-.002 5.937-2.035 2.54-2.035 6.518 0 9.058.247.31.61.47.977.47a1.249 1.249 0 00.975-2.03c-1.29-1.61-1.29-4.325.003-5.938z" fill="url(#paint5_linear)"/></g><defs><linearGradient id="paint0_linear" x1="28.749" y1="23.749" x2="28.749" y2="51.251" gradientUnits="userSpaceOnUse"><stop stop-color="#00AFEC"/><stop offset="1" stop-color="#307ABD"/></linearGradient><linearGradient id="paint1_linear" x1="28.752" y1="48.747" x2="28.752" y2="56.25" gradientUnits="userSpaceOnUse"><stop stop-color="#00AFEC"/><stop offset="1" stop-color="#307ABD"/></linearGradient><linearGradient id="paint2_linear" x1="50.806" y1="28.744" x2="50.806" y2="46.425" gradientUnits="userSpaceOnUse"><stop stop-color="#00AFEC"/><stop offset="1" stop-color="#307ABD"/></linearGradient><linearGradient id="paint3_linear" x1="37.504" y1="3.75" x2="37.504" y2="21.249" gradientUnits="userSpaceOnUse"><stop stop-color="#00AFEC"/><stop offset="1" stop-color="#307ABD"/></linearGradient><linearGradient id="paint4_linear" x1="29.995" y1="3.751" x2="29.995" y2="21.249" gradientUnits="userSpaceOnUse"><stop stop-color="#00AFEC"/><stop offset="1" stop-color="#307ABD"/></linearGradient><linearGradient id="paint5_linear" x1="22.503" y1="3.753" x2="22.503" y2="21.249" gradientUnits="userSpaceOnUse"><stop stop-color="#00AFEC"/><stop offset="1" stop-color="#307ABD"/></linearGradient><clipPath id="clip0"><path fill="#fff" d="M0 0h60v60H0z"/></clipPath></defs></svg>