<svg width="60" height="46" fill="none" xmlns="http://www.w3.org/2000/svg"><path d="M58.75 25.5H10V1.75C10 1.06 9.441.5 8.75.5h-7.5C.56.5 0 1.06 0 1.75v42.5c0 .69.56 1.25 1.25 1.25h7.5c.691 0 1.25-.56 1.25-1.25V35.5h40v8.75c0 .69.56 1.25 1.25 1.25h7.5c.691 0 1.25-.56 1.25-1.25v-17.5c0-.69-.56-1.25-1.25-1.25zM57.5 43h-5v-8.75c0-.69-.56-1.25-1.25-1.25H8.75c-.69 0-1.25.56-1.25 1.25V43h-5V3h5v23.75c0 .69.56 1.25 1.25 1.25H57.5v15z" fill="#D0D2D8"/><path d="M58.75 25.5H10V1.75C10 1.06 9.441.5 8.75.5h-7.5C.56.5 0 1.06 0 1.75v42.5c0 .69.56 1.25 1.25 1.25h7.5c.691 0 1.25-.56 1.25-1.25V35.5h40v8.75c0 .69.56 1.25 1.25 1.25h7.5c.691 0 1.25-.56 1.25-1.25v-17.5c0-.69-.56-1.25-1.25-1.25zM57.5 43h-5v-8.75c0-.69-.56-1.25-1.25-1.25H8.75c-.69 0-1.25.56-1.25 1.25V43h-5V3h5v23.75c0 .69.56 1.25 1.25 1.25H57.5v15z" fill="url(#paint0_linear)"/><path d="M20 23c4.136 0 7.5-3.364 7.5-7.5S24.136 8 20 8s-7.5 3.364-7.5 7.5S15.864 23 20 23zm0-12.5c2.757 0 5 2.242 5 5s-2.243 5-5 5c-2.758 0-5-2.242-5-5s2.242-5 5-5z" fill="#D0D2D8"/><path d="M20 23c4.136 0 7.5-3.364 7.5-7.5S24.136 8 20 8s-7.5 3.364-7.5 7.5S15.864 23 20 23zm0-12.5c2.757 0 5 2.242 5 5s-2.243 5-5 5c-2.758 0-5-2.242-5-5s2.242-5 5-5z" fill="url(#paint1_linear)"/><path d="M31.25 23h27.5c.691 0 1.25-.56 1.25-1.25C60 14.168 53.832 8 46.25 8h-15C30.56 8 30 8.56 30 9.25v12.5c0 .69.56 1.25 1.25 1.25zm1.25-12.5h13.75c5.781 0 10.556 4.382 11.18 10H32.5v-10z" fill="#D0D2D8"/><path d="M31.25 23h27.5c.691 0 1.25-.56 1.25-1.25C60 14.168 53.832 8 46.25 8h-15C30.56 8 30 8.56 30 9.25v12.5c0 .69.56 1.25 1.25 1.25zm1.25-12.5h13.75c5.781 0 10.556 4.382 11.18 10H32.5v-10z" fill="url(#paint2_linear)"/><defs><linearGradient id="paint0_linear" x1="30" y1=".5" x2="30" y2="45.5" gradientUnits="userSpaceOnUse"><stop stop-color="#00AFEC"/><stop offset="1" stop-color="#307ABD"/></linearGradient><linearGradient id="paint1_linear" x1="20" y1="8" x2="20" y2="23" gradientUnits="userSpaceOnUse"><stop stop-color="#00AFEC"/><stop offset="1" stop-color="#307ABD"/></linearGradient><linearGradient id="paint2_linear" x1="45" y1="8" x2="45" y2="23" gradientUnits="userSpaceOnUse"><stop stop-color="#00AFEC"/><stop offset="1" stop-color="#307ABD"/></linearGradient></defs></svg>