<svg width="52" height="40" viewBox="0 0 52 40" fill="none" xmlns="http://www.w3.org/2000/svg">
<path d="M50.9166 22.1666H8.66663V1.58337C8.66663 0.984555 8.18218 0.5 7.58337 0.5H1.08337C0.484555 0.5 0 0.984555 0 1.58337V38.4167C0 39.0154 0.484555 39.5 1.08337 39.5H7.58337C8.18218 39.5 8.66673 39.0154 8.66673 38.4166V30.8333H43.3334V38.4166C43.3334 39.0154 43.8179 39.5 44.4167 39.5H50.9167C51.5155 39.5 52.0001 39.0154 52.0001 38.4166V23.25C52 22.6512 51.5154 22.1666 50.9166 22.1666ZM49.8334 37.3334H45.5V29.75C45.5 29.1512 45.0154 28.6666 44.4166 28.6666H7.58337C6.98455 28.6666 6.5 29.1512 6.5 29.75V37.3334H2.16663V2.66663H6.5V23.25C6.5 23.8488 6.98455 24.3334 7.58337 24.3334H49.8334V37.3334Z" fill="#D0D2D8"/>
<path d="M50.9166 22.1666H8.66663V1.58337C8.66663 0.984555 8.18218 0.5 7.58337 0.5H1.08337C0.484555 0.5 0 0.984555 0 1.58337V38.4167C0 39.0154 0.484555 39.5 1.08337 39.5H7.58337C8.18218 39.5 8.66673 39.0154 8.66673 38.4166V30.8333H43.3334V38.4166C43.3334 39.0154 43.8179 39.5 44.4167 39.5H50.9167C51.5155 39.5 52.0001 39.0154 52.0001 38.4166V23.25C52 22.6512 51.5154 22.1666 50.9166 22.1666ZM49.8334 37.3334H45.5V29.75C45.5 29.1512 45.0154 28.6666 44.4166 28.6666H7.58337C6.98455 28.6666 6.5 29.1512 6.5 29.75V37.3334H2.16663V2.66663H6.5V23.25C6.5 23.8488 6.98455 24.3334 7.58337 24.3334H49.8334V37.3334Z" fill="#3692E4"/>
<path d="M17.334 20C20.9183 20 23.834 17.0843 23.834 13.5C23.834 9.91566 20.9183 7 17.334 7C13.7496 7 10.834 9.91566 10.834 13.5C10.834 17.0843 13.7496 20 17.334 20ZM17.334 9.16663C19.7239 9.16663 21.6674 11.11 21.6674 13.5C21.6674 15.89 19.724 17.8334 17.334 17.8334C14.944 17.8334 13.0006 15.8899 13.0006 13.5C13.0006 11.1101 14.944 9.16663 17.334 9.16663Z" fill="#D0D2D8"/>
<path d="M17.334 20C20.9183 20 23.834 17.0843 23.834 13.5C23.834 9.91566 20.9183 7 17.334 7C13.7496 7 10.834 9.91566 10.834 13.5C10.834 17.0843 13.7496 20 17.334 20ZM17.334 9.16663C19.7239 9.16663 21.6674 11.11 21.6674 13.5C21.6674 15.89 19.724 17.8334 17.334 17.8334C14.944 17.8334 13.0006 15.8899 13.0006 13.5C13.0006 11.1101 14.944 9.16663 17.334 9.16663Z" fill="#3692E4"/>
<path d="M27.0834 20H50.9167C51.5155 20 52.0001 19.5154 52.0001 18.9166C52 12.3457 46.6543 7 40.0834 7H27.0834C26.4846 7 26 7.48456 26 8.08337V18.9167C26 19.5154 26.4846 20 27.0834 20ZM28.1666 9.16663H40.0833C45.0936 9.16663 49.2323 12.9647 49.7729 17.8333H28.1665V9.16663H28.1666Z" fill="#D0D2D8"/>
<path d="M27.0834 20H50.9167C51.5155 20 52.0001 19.5154 52.0001 18.9166C52 12.3457 46.6543 7 40.0834 7H27.0834C26.4846 7 26 7.48456 26 8.08337V18.9167C26 19.5154 26.4846 20 27.0834 20ZM28.1666 9.16663H40.0833C45.0936 9.16663 49.2323 12.9647 49.7729 17.8333H28.1665V9.16663H28.1666Z" fill="#3692E4"/>
</svg>
