<svg width="60" height="60" viewBox="0 0 60 60" fill="none" xmlns="http://www.w3.org/2000/svg">
<g clip-path="url(#clip0)">
<path d="M55 2.49994H5.00004C2.24238 2.49994 0 4.74244 0 7.49998V42.5C0 45.2576 2.24238 47.5001 5.00004 47.5001H22.5034C22.4495 49.4983 22.0665 52.6922 20.6409 54.1919C20.1172 54.7436 19.5155 55.0001 18.7501 55.0001C18.0592 55.0001 17.5001 55.5592 17.5001 56.2501C17.5001 56.941 18.0592 57.5001 18.7501 57.5001H41.2501C41.9411 57.5001 42.5002 56.941 42.5002 56.2501C42.5002 55.5592 41.9411 55.0001 41.2501 55.0001C40.4848 55.0001 39.8829 54.7436 39.3593 54.1919C37.9337 52.6922 37.5506 49.4983 37.4968 47.5001H55.0002C57.7577 47.5001 60.0002 45.2577 60.0002 42.5V7.49998C60 4.74244 57.7576 2.49994 55 2.49994ZM23.1714 54.9999C24.6809 52.6856 24.973 49.3529 25.0106 47.4999H34.9893C35.027 49.353 35.319 52.6856 36.8285 54.9999H23.1714ZM57.5 42.5C57.5 43.8781 56.3782 45 55.0001 45H5.00004C3.62191 45 2.50008 43.8781 2.50008 42.5V37.5H57.5V42.5ZM57.5 35H2.49996V7.49998C2.49996 6.12185 3.6218 5.00002 4.99992 5.00002H55C56.3781 5.00002 57.4999 6.12185 57.4999 7.49998V35H57.5Z" fill="#3692E4"/>
<path d="M30 43.75C31.3806 43.75 32.4999 42.6307 32.4999 41.25C32.4999 39.8693 31.3806 38.7501 30 38.7501C28.6193 38.7501 27.5 39.8693 27.5 41.25C27.5 42.6307 28.6193 43.75 30 43.75Z" fill="#3692E4"/>
</g>
<defs>
<clipPath id="clip0">
<rect width="60" height="60" fill="white"/>
</clipPath>
</defs>
</svg>
