<svg width="60" height="60" fill="none" xmlns="http://www.w3.org/2000/svg"><path d="M54.873 43.992c.046-.236.127-.466.127-.71 0-4.32-3.26-9.904-4.119-11.298-.04-9.399-1.71-16.25-8.577-18.594.313-.979.879-2.283 1.404-3.485 1.009-2.307 1.96-4.486 1.96-5.933C45.669 1.995 44.442 0 41.697 0c-1.839 0-2.522.868-2.895 1.613l-.057-.066C38.232.968 37.377 0 35.342 0c-2.289 0-3.775 1.993-4.495 3.627-.929.046-2.279.267-3.159 1.085a2.644 2.644 0 00-.857 1.984c0 1.298.934 2.799 1.921 4.386.492.789 1.007 1.634 1.336 2.35-6.774 2.38-8.43 9.205-8.47 18.553a40.284 40.284 0 00-2.28 4.359 27.586 27.586 0 00-4.801.863 3.743 3.743 0 00-2.861-2.647l-10.18-2.035A1.252 1.252 0 000 33.75v20C-.001 54.441.558 55 1.249 55h7.832c1.543 0 2.857-.982 3.423-2.36C15.303 53.972 28.25 60 33.75 60c4.849 0 14.828-4.906 21.43-8.152 1.724-.847 3.149-1.548 4.073-1.953.454-.2.747-.65.747-1.145 0-2.377-2.03-4.154-5.127-4.758zm-42.695-5.578l-1.86 13.013A1.255 1.255 0 019.083 52.5H2.5V35.275l8.685 1.737c.65.13 1.087.746.993 1.402zM29.39 6.544c.37-.345 1.537-.458 2.234-.417.58.07 1.113-.328 1.283-.882.22-.711 1.14-2.745 2.435-2.745.908 0 1.141.265 1.528.703.392.443.984 1.112 2.102 1.112 1.392 0 1.844-1.067 2.013-1.468.04-.092.098-.231.124-.26 0-.001.133-.087.587-.087.403 0 1.473 0 1.473 1.472 0 .924-.97 3.146-1.75 4.932-.619 1.412-1.197 2.757-1.54 3.89a21.868 21.868 0 00-3.629-.294 21.81 21.81 0 00-3.716.307c-.383-.969-.999-1.985-1.659-3.046-.652-1.048-1.544-2.48-1.485-3.217zM23.918 33.02c.13-.201.2-.437.2-.676C24.117 19.539 27.292 15 36.25 15s12.133 4.539 12.133 17.344c0 .24.07.476.198.677.04.061 3.919 6.13 3.919 10.26 0 .161-.032.317-.093.473-2.471.031-7.437 1.364-9.972 2.092-.34-3.587-4.936-4.857-9.686-5.821-2.168-.44-3.78-1.218-5.34-1.97-1.687-.814-3.315-1.551-5.313-1.73a36.876 36.876 0 011.822-3.305zm30.16 16.584C48.07 52.558 38.017 57.5 33.75 57.5c-4.547 0-16.487-5.323-20.703-7.374-.005-.003-.01-.002-.016-.004l1.472-10.3c.909-.286 3.693-1.072 6.747-1.072 1.846 0 3.27.687 5.073 1.556 1.619.782 3.455 1.667 5.928 2.17 5.432 1.1 7.749 2.23 7.749 3.774 0 .305-.093.493-.33.67-.792.595-3.896 1.593-15.565-1.869a1.25 1.25 0 00-.71 2.397c5.757 1.707 10.16 2.558 13.28 2.558 2.035 0 3.524-.361 4.49-1.083.083-.062.144-.138.22-.205.078-.009.154 0 .233-.023 2.21-.68 8.472-2.445 10.882-2.445 2.039 0 4.183.62 4.816 1.782-.873.41-1.978.954-3.239 1.573z" fill="#D0D2D8"/><path d="M54.873 43.992c.046-.236.127-.466.127-.71 0-4.32-3.26-9.904-4.119-11.298-.04-9.399-1.71-16.25-8.577-18.594.313-.979.879-2.283 1.404-3.485 1.009-2.307 1.96-4.486 1.96-5.933C45.669 1.995 44.442 0 41.697 0c-1.839 0-2.522.868-2.895 1.613l-.057-.066C38.232.968 37.377 0 35.342 0c-2.289 0-3.775 1.993-4.495 3.627-.929.046-2.279.267-3.159 1.085a2.644 2.644 0 00-.857 1.984c0 1.298.934 2.799 1.921 4.386.492.789 1.007 1.634 1.336 2.35-6.774 2.38-8.43 9.205-8.47 18.553a40.284 40.284 0 00-2.28 4.359 27.586 27.586 0 00-4.801.863 3.743 3.743 0 00-2.861-2.647l-10.18-2.035A1.252 1.252 0 000 33.75v20C-.001 54.441.558 55 1.249 55h7.832c1.543 0 2.857-.982 3.423-2.36C15.303 53.972 28.25 60 33.75 60c4.849 0 14.828-4.906 21.43-8.152 1.724-.847 3.149-1.548 4.073-1.953.454-.2.747-.65.747-1.145 0-2.377-2.03-4.154-5.127-4.758zm-42.695-5.578l-1.86 13.013A1.255 1.255 0 019.083 52.5H2.5V35.275l8.685 1.737c.65.13 1.087.746.993 1.402zM29.39 6.544c.37-.345 1.537-.458 2.234-.417.58.07 1.113-.328 1.283-.882.22-.711 1.14-2.745 2.435-2.745.908 0 1.141.265 1.528.703.392.443.984 1.112 2.102 1.112 1.392 0 1.844-1.067 2.013-1.468.04-.092.098-.231.124-.26 0-.001.133-.087.587-.087.403 0 1.473 0 1.473 1.472 0 .924-.97 3.146-1.75 4.932-.619 1.412-1.197 2.757-1.54 3.89a21.868 21.868 0 00-3.629-.294 21.81 21.81 0 00-3.716.307c-.383-.969-.999-1.985-1.659-3.046-.652-1.048-1.544-2.48-1.485-3.217zM23.918 33.02c.13-.201.2-.437.2-.676C24.117 19.539 27.292 15 36.25 15s12.133 4.539 12.133 17.344c0 .24.07.476.198.677.04.061 3.919 6.13 3.919 10.26 0 .161-.032.317-.093.473-2.471.031-7.437 1.364-9.972 2.092-.34-3.587-4.936-4.857-9.686-5.821-2.168-.44-3.78-1.218-5.34-1.97-1.687-.814-3.315-1.551-5.313-1.73a36.876 36.876 0 011.822-3.305zm30.16 16.584C48.07 52.558 38.017 57.5 33.75 57.5c-4.547 0-16.487-5.323-20.703-7.374-.005-.003-.01-.002-.016-.004l1.472-10.3c.909-.286 3.693-1.072 6.747-1.072 1.846 0 3.27.687 5.073 1.556 1.619.782 3.455 1.667 5.928 2.17 5.432 1.1 7.749 2.23 7.749 3.774 0 .305-.093.493-.33.67-.792.595-3.896 1.593-15.565-1.869a1.25 1.25 0 00-.71 2.397c5.757 1.707 10.16 2.558 13.28 2.558 2.035 0 3.524-.361 4.49-1.083.083-.062.144-.138.22-.205.078-.009.154 0 .233-.023 2.21-.68 8.472-2.445 10.882-2.445 2.039 0 4.183.62 4.816 1.782-.873.41-1.978.954-3.239 1.573z" fill="url(#paint0_linear)"/><path d="M38.911 33.012h-2.2V34.2h-2.469v-1.188h-1.399v-1.899h1.4v-.386h-1.4V28.82h1.4v-4.859h4.063c.783 0 1.477.143 2.082.43.609.285 1.08.693 1.413 1.223.333.525.5 1.12.5 1.786 0 1.026-.367 1.837-1.098 2.433-.726.595-1.708.893-2.946.893H36.71v.386h2.201v1.899zm-2.2-4.191h1.51c1.05 0 1.576-.469 1.576-1.406 0-.46-.131-.83-.394-1.111-.262-.281-.62-.424-1.076-.43H36.71v2.947z" fill="#D0D2D8"/><path d="M38.911 33.012h-2.2V34.2h-2.469v-1.188h-1.399v-1.899h1.4v-.386h-1.4V28.82h1.4v-4.859h4.063c.783 0 1.477.143 2.082.43.609.285 1.08.693 1.413 1.223.333.525.5 1.12.5 1.786 0 1.026-.367 1.837-1.098 2.433-.726.595-1.708.893-2.946.893H36.71v.386h2.201v1.899zm-2.2-4.191h1.51c1.05 0 1.576-.469 1.576-1.406 0-.46-.131-.83-.394-1.111-.262-.281-.62-.424-1.076-.43H36.71v2.947z" fill="url(#paint1_linear)"/><defs><linearGradient id="paint0_linear" x1="30" y1="0" x2="30" y2="60" gradientUnits="userSpaceOnUse"><stop stop-color="#00AFEC"/><stop offset="1" stop-color="#307ABD"/></linearGradient><linearGradient id="paint1_linear" x1="37.572" y1="23.962" x2="37.572" y2="34.2" gradientUnits="userSpaceOnUse"><stop stop-color="#00AFEC"/><stop offset="1" stop-color="#307ABD"/></linearGradient></defs></svg>