<svg width="60" height="60" fill="none" xmlns="http://www.w3.org/2000/svg"><path d="M29.998 8.18a5.463 5.463 0 00-5.457 5.457 5.463 5.463 0 005.457 5.457 5.463 5.463 0 005.457-5.458 5.463 5.463 0 00-5.457-5.457zm0 8.186a2.734 2.734 0 01-2.73-2.73 2.734 2.734 0 012.73-2.73 2.734 2.734 0 012.73 2.73 2.734 2.734 0 01-2.73 2.73z" fill="#D0D2D8"/><path d="M29.998 8.18a5.463 5.463 0 00-5.457 5.457 5.463 5.463 0 005.457 5.457 5.463 5.463 0 005.457-5.458 5.463 5.463 0 00-5.457-5.457zm0 8.186a2.734 2.734 0 01-2.73-2.73 2.734 2.734 0 012.73-2.73 2.734 2.734 0 012.73 2.73 2.734 2.734 0 01-2.73 2.73z" fill="url(#paint0_linear)"/><path d="M58.636 24.546A1.36 1.36 0 0060 23.186v-5.454c0-.48-.253-.927-.667-1.172L32.658.72l-.036-.022c-1.658-.918-3.528-.946-5.281.02L.667 16.56A1.361 1.361 0 000 17.732v5.454c0 .753.61 1.36 1.364 1.36h4.09v24.546A5.46 5.46 0 000 54.546v4.09C0 59.39.61 60 1.364 60h57.272C59.39 60 60 59.39 60 58.637v-4.09a5.46 5.46 0 00-5.455-5.455V24.546h4.091zm-1.363 30v2.727H2.727v-2.727a2.73 2.73 0 012.727-2.727H54.545a2.73 2.73 0 012.728 2.727zM8.182 49.09V24.546h5.454V49.09H8.182zm8.182 0V24.546h8.181V49.09h-8.181zm10.909 0V24.546h5.454V49.09h-5.454zm8.182 0V24.546h8.181V49.09h-8.181zm10.909 0V24.546h5.454V49.09h-5.454zM2.727 21.818v-3.314L28.694 3.078c.85-.468 1.752-.466 2.591-.01l25.988 15.436v3.314H2.727z" fill="#D0D2D8"/><path d="M58.636 24.546A1.36 1.36 0 0060 23.186v-5.454c0-.48-.253-.927-.667-1.172L32.658.72l-.036-.022c-1.658-.918-3.528-.946-5.281.02L.667 16.56A1.361 1.361 0 000 17.732v5.454c0 .753.61 1.36 1.364 1.36h4.09v24.546A5.46 5.46 0 000 54.546v4.09C0 59.39.61 60 1.364 60h57.272C59.39 60 60 59.39 60 58.637v-4.09a5.46 5.46 0 00-5.455-5.455V24.546h4.091zm-1.363 30v2.727H2.727v-2.727a2.73 2.73 0 012.727-2.727H54.545a2.73 2.73 0 012.728 2.727zM8.182 49.09V24.546h5.454V49.09H8.182zm8.182 0V24.546h8.181V49.09h-8.181zm10.909 0V24.546h5.454V49.09h-5.454zm8.182 0V24.546h8.181V49.09h-8.181zm10.909 0V24.546h5.454V49.09h-5.454zM2.727 21.818v-3.314L28.694 3.078c.85-.468 1.752-.466 2.591-.01l25.988 15.436v3.314H2.727z" fill="url(#paint1_linear)"/><defs><linearGradient id="paint0_linear" x1="29.998" y1="8.179" x2="29.998" y2="19.094" gradientUnits="userSpaceOnUse"><stop stop-color="#00AFEC"/><stop offset="1" stop-color="#307ABD"/></linearGradient><linearGradient id="paint1_linear" x1="30" y1="0" x2="30" y2="60" gradientUnits="userSpaceOnUse"><stop stop-color="#00AFEC"/><stop offset="1" stop-color="#307ABD"/></linearGradient></defs></svg>