<?xml version="1.0" encoding="utf-8"?>
<!-- Generator: Adobe Illustrator 16.0.0, SVG Export Plug-In . SVG Version: 6.00 Build 0)  -->
<!DOCTYPE svg PUBLIC "-//W3C//DTD SVG 1.1//EN" "http://www.w3.org/Graphics/SVG/1.1/DTD/svg11.dtd">
<svg version="1.1" xmlns="http://www.w3.org/2000/svg" xmlns:xlink="http://www.w3.org/1999/xlink" x="0px" y="0px"
	 width="913.886px" height="593.775px" viewBox="0 0 913.886 593.775" enable-background="new 0 0 913.886 593.775"
	 xml:space="preserve">
<g id="Layer_2">
</g>
<g id="Layer_1">
	<line fill="none" stroke="#FFFFFF" stroke-miterlimit="10" x1="134.5" y1="9.615" x2="134.5" y2="584.551"/>
	<line fill="none" stroke="#FFFFFF" stroke-miterlimit="10" x1="171.534" y1="9.615" x2="171.534" y2="593.775"/>
	<line fill="none" stroke="#FFFFFF" stroke-miterlimit="10" x1="208.566" y1="9.615" x2="208.566" y2="593.775"/>
	<line fill="none" stroke="#FFFFFF" stroke-miterlimit="10" x1="245.6" y1="9.615" x2="245.6" y2="593.775"/>
	<line fill="none" stroke="#FFFFFF" stroke-miterlimit="10" x1="282.633" y1="9.615" x2="282.633" y2="593.775"/>
	<line fill="none" stroke="#FFFFFF" stroke-miterlimit="10" x1="319.667" y1="9.615" x2="319.667" y2="593.775"/>
	<line fill="none" stroke="#FFFFFF" stroke-miterlimit="10" x1="356.7" y1="9.615" x2="356.7" y2="593.775"/>
	<line fill="none" stroke="#FFFFFF" stroke-miterlimit="10" x1="393.733" y1="9.615" x2="393.733" y2="593.775"/>
	<line fill="none" stroke="#FFFFFF" stroke-miterlimit="10" x1="430.767" y1="9.615" x2="430.767" y2="593.775"/>
	<line fill="none" stroke="#FFFFFF" stroke-miterlimit="10" x1="467.8" y1="9.615" x2="467.8" y2="593.775"/>
	<line fill="none" stroke="#FFFFFF" stroke-miterlimit="10" x1="504.833" y1="9.615" x2="504.833" y2="593.775"/>
	<line fill="none" stroke="#FFFFFF" stroke-miterlimit="10" x1="541.867" y1="9.615" x2="541.867" y2="593.775"/>
	<line fill="none" stroke="#FFFFFF" stroke-miterlimit="10" x1="578.899" y1="9.615" x2="578.899" y2="593.775"/>
	<line fill="none" stroke="#FFFFFF" stroke-miterlimit="10" x1="615.933" y1="9.615" x2="615.933" y2="593.775"/>
	<line fill="none" stroke="#FFFFFF" stroke-miterlimit="10" x1="652.967" y1="9.615" x2="652.967" y2="593.775"/>
	<line fill="none" stroke="#FFFFFF" stroke-miterlimit="10" x1="764.066" y1="9.615" x2="764.066" y2="584.551"/>
	<line fill="none" stroke="#FFFFFF" stroke-miterlimit="10" x1="727.033" y1="9.615" x2="727.033" y2="593.84"/>
	<line fill="none" stroke="#FFFFFF" stroke-miterlimit="10" x1="764.066" y1="9.615" x2="764.066" y2="584.551"/>
	<line fill="none" stroke="#FFFFFF" stroke-miterlimit="10" x1="690" y1="9.615" x2="690" y2="593.84"/>
	<line fill="none" stroke="#FFFFFF" stroke-miterlimit="10" x1="773.438" y1="214.222" x2="125.129" y2="214.222"/>
	<line fill="none" stroke="#FFFFFF" stroke-miterlimit="10" x1="773.438" y1="240.669" x2="125.129" y2="240.669"/>
	<line fill="none" stroke="#FFFFFF" stroke-miterlimit="10" x1="773.438" y1="267.117" x2="125.129" y2="267.117"/>
	<line fill="none" stroke="#FFFFFF" stroke-miterlimit="10" x1="773.438" y1="293.564" x2="125.129" y2="293.564"/>
	<line fill="none" stroke="#FFFFFF" stroke-miterlimit="10" x1="773.438" y1="320.012" x2="125.129" y2="320.012"/>
	<line fill="none" stroke="#FFFFFF" stroke-miterlimit="10" x1="773.438" y1="346.459" x2="125.129" y2="346.459"/>
	<line fill="none" stroke="#FFFFFF" stroke-miterlimit="10" x1="773.438" y1="372.906" x2="125.129" y2="372.906"/>
	<line fill="none" stroke="#FFFFFF" stroke-miterlimit="10" x1="773.438" y1="81.986" x2="125.129" y2="81.986"/>
	<line fill="none" stroke="#FFFFFF" stroke-miterlimit="10" x1="773.438" y1="108.434" x2="125.129" y2="108.434"/>
	<line fill="none" stroke="#FFFFFF" stroke-miterlimit="10" x1="764.066" y1="10.26" x2="134.5" y2="10.26"/>
	<line fill="none" stroke="#FFFFFF" stroke-miterlimit="10" x1="773.438" y1="55.538" x2="125.129" y2="55.538"/>
	<line fill="none" stroke="#FFFFFF" stroke-miterlimit="10" x1="773.438" y1="134.881" x2="125.129" y2="134.881"/>
	<line fill="none" stroke="#FFFFFF" stroke-miterlimit="10" x1="773.438" y1="161.328" x2="125.129" y2="161.328"/>
	<line fill="none" stroke="#FFFFFF" stroke-miterlimit="10" x1="773.438" y1="187.775" x2="125.129" y2="187.775"/>
	<line fill="none" stroke="#FFFFFF" stroke-miterlimit="10" x1="773.438" y1="399.353" x2="125.129" y2="399.353"/>
	<line fill="none" stroke="#FFFFFF" stroke-miterlimit="10" x1="773.438" y1="425.8" x2="125.129" y2="425.8"/>
	<line fill="none" stroke="#FFFFFF" stroke-miterlimit="10" x1="773.438" y1="452.249" x2="125.129" y2="452.249"/>
	<line fill="none" stroke="#FFFFFF" stroke-miterlimit="10" x1="773.438" y1="478.696" x2="125.129" y2="478.696"/>
	<line fill="none" stroke="#FFFFFF" stroke-miterlimit="10" x1="773.438" y1="505.143" x2="125.129" y2="505.143"/>
	<line fill="none" stroke="#FFFFFF" stroke-miterlimit="10" x1="773.438" y1="531.592" x2="125.129" y2="531.592"/>
	<text transform="matrix(1 0 0 1 71.2822 60.9648)"><tspan x="0" y="0" font-family="'ArialMT'" font-size="16">800</tspan><tspan x="0" y="26.427" font-family="'ArialMT'" font-size="16">760</tspan><tspan x="0" y="52.855" font-family="'ArialMT'" font-size="16">720</tspan><tspan x="0" y="79.282" font-family="'ArialMT'" font-size="16">680</tspan><tspan x="0" y="105.709" font-family="'ArialMT'" font-size="16">640</tspan><tspan x="0" y="132.137" font-family="'ArialMT'" font-size="16">600</tspan><tspan x="0" y="158.564" font-family="'ArialMT'" font-size="16">560</tspan><tspan x="0" y="184.992" font-family="'ArialMT'" font-size="16">520</tspan><tspan x="0" y="211.419" font-family="'ArialMT'" font-size="16">480</tspan><tspan x="0" y="237.847" font-family="'ArialMT'" font-size="16">440</tspan><tspan x="0" y="264.274" font-family="'ArialMT'" font-size="16">400</tspan><tspan x="0" y="290.701" font-family="'ArialMT'" font-size="16">360</tspan><tspan x="0" y="317.129" font-family="'ArialMT'" font-size="16">320</tspan><tspan x="0" y="343.556" font-family="'ArialMT'" font-size="16">280</tspan><tspan x="0" y="369.983" font-family="'ArialMT'" font-size="16">240</tspan><tspan x="0" y="396.411" font-family="'ArialMT'" font-size="16">200</tspan><tspan x="0" y="422.838" font-family="'ArialMT'" font-size="16">160</tspan><tspan x="0" y="449.266" font-family="'ArialMT'" font-size="16">120</tspan><tspan x="8.898" y="475.693" font-family="'ArialMT'" font-size="16">80</tspan><tspan x="8.898" y="502.12" font-family="'ArialMT'" font-size="16">40</tspan></text>
	<text transform="matrix(1 0 0 1 796.4297 60.9648)"><tspan x="0" y="0" font-family="'ArialMT'" font-size="16">1000</tspan><tspan x="0" y="26.427" font-family="'ArialMT'" font-size="16">950</tspan><tspan x="0" y="52.855" font-family="'ArialMT'" font-size="16">900</tspan><tspan x="0" y="79.282" font-family="'ArialMT'" font-size="16">850</tspan><tspan x="0" y="105.709" font-family="'ArialMT'" font-size="16">800</tspan><tspan x="0" y="132.137" font-family="'ArialMT'" font-size="16">750</tspan><tspan x="0" y="158.564" font-family="'ArialMT'" font-size="16">700</tspan><tspan x="0" y="184.992" font-family="'ArialMT'" font-size="16">650</tspan><tspan x="0" y="211.419" font-family="'ArialMT'" font-size="16">600</tspan><tspan x="0" y="237.847" font-family="'ArialMT'" font-size="16">550</tspan><tspan x="0" y="264.274" font-family="'ArialMT'" font-size="16">500</tspan><tspan x="0" y="290.701" font-family="'ArialMT'" font-size="16">450</tspan><tspan x="0" y="317.129" font-family="'ArialMT'" font-size="16">400</tspan><tspan x="0" y="343.556" font-family="'ArialMT'" font-size="16">350</tspan><tspan x="0" y="369.983" font-family="'ArialMT'" font-size="16">300</tspan><tspan x="0" y="396.411" font-family="'ArialMT'" font-size="16">250</tspan><tspan x="0" y="422.838" font-family="'ArialMT'" font-size="16">200</tspan><tspan x="0" y="449.266" font-family="'ArialMT'" font-size="16">150</tspan><tspan x="0" y="475.693" font-family="'ArialMT'" font-size="16">100</tspan><tspan x="0" y="502.12" font-family="'ArialMT'" font-size="16">50</tspan></text>
	<line fill="none" stroke="#FFFFFF" stroke-miterlimit="10" x1="773.438" y1="558.039" x2="125.129" y2="558.039"/>
	<line fill="none" stroke="#FFFFFF" stroke-miterlimit="10" x1="773.438" y1="584.485" x2="125.129" y2="584.485"/>
	<polyline fill="none" stroke="#3360AA" stroke-width="2" stroke-miterlimit="10" points="171.534,582.713 208.566,580.793 
		245.6,569.475 282.633,536.477 319.667,496.422 356.7,480.842 393.733,451.149 430.767,442.038 467.8,424.546 504.833,413.081 
		541.867,413.963 578.899,404.262 615.933,350.319 652.967,278.737 690,159.688 727.033,81.986 	"/>
	<text transform="matrix(1 0 0 1 21.9458 14.4561)"><tspan x="0" y="0" font-family="'ArialMT'" font-size="16">Численность</tspan><tspan x="3.438" y="18.188" font-family="'ArialMT'" font-size="16">сотрудников</tspan></text>
	<text transform="matrix(1 0 0 1 783.4297 14.6084)"><tspan x="0" y="0" font-family="'ArialMT'" font-size="16">Годовая выручка,</tspan><tspan x="0" y="18.188" font-family="'ArialMT'" font-size="16">млн. руб.</tspan></text>
	<circle fill="#3360AA" cx="14.335" cy="27.212" r="4.335"/>
	<circle fill="#AA3349" cx="868.526" cy="30.521" r="4.916"/>
	<circle fill="#FFFFFF" stroke="#3360AA" stroke-width="2" stroke-miterlimit="10" cx="171.533" cy="582.713" r="3"/>
	<polyline fill="none" stroke="#AA3349" stroke-width="2" stroke-miterlimit="10" points="171.534,581.619 208.566,578.867 
		245.6,572.648 282.633,564.696 319.667,553.991 356.7,524.936 393.733,478.696 430.767,454.09 467.8,436.893 504.833,428.956 
		541.867,428.073 578.899,410.436 615.933,370.75 652.967,255.072 690,187.775 727.033,55.538 	"/>
	<circle fill="#FFFFFF" stroke="#AA3349" stroke-width="2" stroke-miterlimit="10" cx="171.533" cy="581.619" r="3"/>
	<circle fill="#FFFFFF" stroke="#AA3349" stroke-width="2" stroke-miterlimit="10" cx="282.633" cy="564.512" r="3"/>
	<circle fill="#FFFFFF" stroke="#AA3349" stroke-width="2" stroke-miterlimit="10" cx="319.667" cy="553.991" r="3"/>
	<circle fill="#FFFFFF" stroke="#AA3349" stroke-width="2" stroke-miterlimit="10" cx="356.7" cy="524.936" r="3"/>
	<circle fill="#FFFFFF" stroke="#AA3349" stroke-width="2" stroke-miterlimit="10" cx="393.733" cy="478.696" r="3"/>
	<circle fill="#FFFFFF" stroke="#AA3349" stroke-width="2" stroke-miterlimit="10" cx="430.767" cy="454.09" r="3"/>
	<circle fill="#FFFFFF" stroke="#AA3349" stroke-width="2" stroke-miterlimit="10" cx="467.8" cy="436.893" r="3"/>
	<circle fill="#FFFFFF" stroke="#AA3349" stroke-width="2" stroke-miterlimit="10" cx="504.833" cy="428.956" r="3"/>
	<circle fill="#FFFFFF" stroke="#AA3349" stroke-width="2" stroke-miterlimit="10" cx="541.867" cy="428.073" r="3"/>
	<circle fill="#FFFFFF" stroke="#AA3349" stroke-width="2" stroke-miterlimit="10" cx="578.9" cy="410.436" r="3"/>
	<circle fill="#FFFFFF" stroke="#AA3349" stroke-width="2" stroke-miterlimit="10" cx="615.934" cy="370.75" r="3"/>
	<circle fill="#FFFFFF" stroke="#AA3349" stroke-width="2" stroke-miterlimit="10" cx="652.967" cy="255.072" r="3"/>
	<circle fill="#FFFFFF" stroke="#AA3349" stroke-width="2" stroke-miterlimit="10" cx="690" cy="187.775" r="3"/>
	<circle fill="#FFFFFF" stroke="#AA3349" stroke-width="2" stroke-miterlimit="10" cx="727.033" cy="55.538" r="3"/>
	<circle fill="#FFFFFF" stroke="#3360AA" stroke-width="2" stroke-miterlimit="10" cx="652.967" cy="278.737" r="3"/>
	<circle fill="#FFFFFF" stroke="#3360AA" stroke-width="2" stroke-miterlimit="10" cx="690" cy="159.688" r="3"/>
	<circle fill="#FFFFFF" stroke="#3360AA" stroke-width="2" stroke-miterlimit="10" cx="727.033" cy="81.986" r="3"/>
	<circle fill="#FFFFFF" stroke="#3360AA" stroke-width="2" stroke-miterlimit="10" cx="615.934" cy="350.319" r="3"/>
	<circle fill="#FFFFFF" stroke="#3360AA" stroke-width="2" stroke-miterlimit="10" cx="578.9" cy="404.262" r="3"/>
	<circle fill="#FFFFFF" stroke="#3360AA" stroke-width="2" stroke-miterlimit="10" cx="541.867" cy="413.963" r="3"/>
	<circle fill="#FFFFFF" stroke="#3360AA" stroke-width="2" stroke-miterlimit="10" cx="504.833" cy="413.081" r="3"/>
	<circle fill="#FFFFFF" stroke="#3360AA" stroke-width="2" stroke-miterlimit="10" cx="467.8" cy="424.546" r="3"/>
	<circle fill="#FFFFFF" stroke="#3360AA" stroke-width="2" stroke-miterlimit="10" cx="430.767" cy="442.038" r="3"/>
	<circle fill="#FFFFFF" stroke="#3360AA" stroke-width="2" stroke-miterlimit="10" cx="393.733" cy="451.149" r="3"/>
	<circle fill="#FFFFFF" stroke="#3360AA" stroke-width="2" stroke-miterlimit="10" cx="356.7" cy="480.842" r="3"/>
	<circle fill="#FFFFFF" stroke="#3360AA" stroke-width="2" stroke-miterlimit="10" cx="319.667" cy="496.422" r="3"/>
	<circle fill="#FFFFFF" stroke="#3360AA" stroke-width="2" stroke-miterlimit="10" cx="282.633" cy="536.477" r="3"/>
	<circle fill="#FFFFFF" stroke="#3360AA" stroke-width="2" stroke-miterlimit="10" cx="245.6" cy="569.475" r="3"/>
	<circle fill="#FFFFFF" stroke="#3360AA" stroke-width="2" stroke-miterlimit="10" cx="208.566" cy="580.793" r="3"/>
	<circle fill="#FFFFFF" stroke="#AA3349" stroke-width="2" stroke-miterlimit="10" cx="245.6" cy="572.648" r="3"/>
	<circle fill="#FFFFFF" stroke="#AA3349" stroke-width="2" stroke-miterlimit="10" cx="208.566" cy="579.151" r="3"/>
</g>
<g id="Layer_3">
</g>
</svg>
