<svg width="50" height="68" viewBox="0 0 50 68" fill="none" xmlns="http://www.w3.org/2000/svg">
<path fill-rule="evenodd" clip-rule="evenodd" d="M41.1022 43.5596C37.4212 45.6186 28.4744 48.6042 23.5664 48.3469V58.2817C28.9345 56.686 37.9325 52.4135 40.9488 47.935L41.1022 43.611V43.5596Z" fill="#EE233E"/>
<path fill-rule="evenodd" clip-rule="evenodd" d="M41.1022 30.0137C37.4212 32.2786 28.4744 35.676 23.5664 35.676V44.1696C30.775 42.265 38.0347 38.1984 41.1022 34.6465V30.0137Z" fill="#1DADE4"/>
<path fill-rule="evenodd" clip-rule="evenodd" d="M41.1022 17.4463C37.4212 19.248 28.4744 21.6159 23.5664 21.0496V29.5432C30.775 28.4622 37.5746 25.734 41.1022 22.1821V17.4463Z" fill="#CDDADE"/>
<path fill-rule="evenodd" clip-rule="evenodd" d="M49.8978 20.0242V32.6359C49.8978 32.6874 49.8978 32.7388 49.8978 32.8418V46.2771L49.7955 46.5859C48.2618 51.3217 44.6319 55.3883 40.184 58.7858C34.6115 63.0068 27.6585 66.1469 22.2393 67.7941L21.5235 68L20.8589 67.7426C16.411 65.8895 11.7587 62.8009 7.92434 58.9917C4.39673 55.4913 1.53374 51.4247 0.102249 47.1007L0 46.7403V0H49.8978V2.05905L49.9489 8.28766C49.9489 12.5602 46.3701 15.5973 41.4622 17.7078C36.1452 19.9727 29.0389 21.1052 23.7219 21.3626V32.5329C28.0675 31.5549 33.5378 29.8047 38.0368 27.4883C41.3088 25.944 44.4785 23.7305 47.6483 19.7154H50C50 19.7668 50 19.8698 50 19.9213L49.8978 20.0242ZM23.6708 36.8569V47.2036C28.5276 45.7623 34.816 43.1885 39.5194 40.0999C43.0982 37.732 45.7055 35.2097 45.7566 32.7903V27.3853C44.5808 28.4148 43.2004 29.3929 41.6667 30.268C36.2474 33.408 28.9877 35.7244 23.6708 36.8569ZM23.6708 51.4762V62.9553C28.2209 61.3081 33.3845 58.7343 37.6789 55.4913C41.411 52.6601 44.4274 49.3142 45.7566 45.6593V40.4603C44.5808 41.5413 43.2515 42.5708 41.7689 43.5488C36.3497 47.1007 28.9877 49.9833 23.6708 51.4762ZM10.7873 56.0575C13.4458 58.6828 16.4622 60.8963 19.5808 62.5435V17.296H21.6258C26.636 17.2445 34.3558 16.215 39.8773 13.8986C43.3027 12.4572 45.8078 10.6041 45.8078 8.33914V4.22104H4.1411V46.1741C5.41922 49.726 7.82209 53.1234 10.8384 56.109L10.7873 56.0575Z" fill="#19476A"/>
</svg>
