<svg width="113" height="129" viewBox="0 0 113 129" fill="none" xmlns="http://www.w3.org/2000/svg">
<g filter="url(#filter0_d)">
<path fill-rule="evenodd" clip-rule="evenodd" d="M97.6506 29.6237C97.6057 26.8626 95.361 24.6435 92.6046 24.4769C79.6885 23.6961 69.1589 19.786 60.0316 12.2483C57.9443 10.5246 54.8826 10.5246 52.7954 12.2485C43.669 19.7859 33.1402 23.696 20.2254 24.4769C17.469 24.6435 15.2242 26.8626 15.1794 29.6237C15.1613 30.7341 15.1399 31.8589 15.1182 32.9962C14.6062 59.8167 13.9621 93.5608 55.086 108.529C55.9299 108.836 56.8963 108.836 57.7403 108.529C98.8677 93.5609 98.2237 59.8163 97.7118 32.9955C97.6901 31.8584 97.6686 30.7339 97.6506 29.6237ZM39.4629 40.9746V46.7539H43.2871V51.7812H39.4629V62.416C39.4629 63.2897 39.6204 63.8984 39.9355 64.2422C40.2507 64.5859 40.8737 64.7578 41.8047 64.7578C42.5208 64.7578 43.1224 64.7148 43.6094 64.6289V69.8066C42.306 70.222 40.9453 70.4297 39.5273 70.4297C37.0352 70.4297 35.1947 69.8424 34.0059 68.668C32.8171 67.4935 32.2227 65.7103 32.2227 63.3184V51.7812H29.2578V46.7539H32.2227V40.9746H39.4629ZM53.2344 49.4824L52.998 46.7539H46.209V70H53.4492V53.8223C54.1797 52.5475 55.2396 51.9102 56.6289 51.9102C57.7174 51.9102 58.4551 52.1823 58.8418 52.7266C59.2285 53.2708 59.4219 54.1517 59.4219 55.3691V70H66.6836V54.123L66.6621 53.8223C67.3639 52.5475 68.431 51.9102 69.8633 51.9102C70.9232 51.9102 71.6536 52.1823 72.0547 52.7266C72.4557 53.2708 72.6562 54.1374 72.6562 55.3262V70H79.918V54.875C79.7891 49.1745 77.3685 46.3242 72.6562 46.3242C69.6771 46.3242 67.3997 47.4915 65.8242 49.8262C64.793 47.4915 62.8092 46.3242 59.873 46.3242C57.0944 46.3242 54.8815 47.377 53.2344 49.4824Z" fill="url(#paint0_angular)"/>
</g>
<defs>
<filter id="filter0_d" x="0" y="0.955566" width="112.83" height="127.803" filterUnits="userSpaceOnUse" color-interpolation-filters="sRGB">
<feFlood flood-opacity="0" result="BackgroundImageFix"/>
<feColorMatrix in="SourceAlpha" type="matrix" values="0 0 0 0 0 0 0 0 0 0 0 0 0 0 0 0 0 0 127 0"/>
<feOffset dy="5"/>
<feGaussianBlur stdDeviation="7.5"/>
<feColorMatrix type="matrix" values="0 0 0 0 0.435294 0 0 0 0 0.517647 0 0 0 0 0.596078 0 0 0 0.15 0"/>
<feBlend mode="normal" in2="BackgroundImageFix" result="effect1_dropShadow"/>
<feBlend mode="normal" in="SourceGraphic" in2="effect1_dropShadow" result="shape"/>
</filter>
<radialGradient id="paint0_angular" cx="0" cy="0" r="1" gradientUnits="userSpaceOnUse" gradientTransform="translate(56.415 59) rotate(90) scale(50 41.415)">
<stop stop-color="white"/>
<stop offset="1" stop-color="#F4F5F7"/>
</radialGradient>
</defs>
</svg>
