<svg width="80" height="80" viewBox="0 0 80 80" fill="none" xmlns="http://www.w3.org/2000/svg">
<path d="M35.8079 53.1999C36.4973 53.1999 37.0561 52.6411 37.0561 51.9517C37.0561 51.2622 36.4973 50.7034 35.8079 50.7034C35.1184 50.7034 34.5596 51.2622 34.5596 51.9517C34.5596 52.6411 35.1184 53.1999 35.8079 53.1999Z" fill="#0E0E11"/>
<path d="M39.9407 44.352C40.6301 44.352 41.1889 43.7932 41.1889 43.1038C41.1889 42.4143 40.6301 41.8555 39.9407 41.8555C39.2513 41.8555 38.6924 42.4143 38.6924 43.1038C38.6924 43.7932 39.2513 44.352 39.9407 44.352Z" fill="#0E0E11"/>
<path d="M41.4878 23.0326C40.7948 23.0326 40.2334 23.594 40.2334 24.287V25.5502C40.2334 26.2432 40.7948 26.8046 41.4878 26.8046C42.1807 26.8046 42.7421 26.2432 42.7421 25.5502V24.287C42.7421 23.594 42.1807 23.0326 41.4878 23.0326Z" fill="#0E0E11"/>
<path d="M80 23.753C80 13.3101 71.5039 4.81396 61.0609 4.81396C54.5159 4.81396 48.5506 8.12615 45.0883 13.5701C42.0884 10.4049 37.8675 8.5599 33.4703 8.5599C24.6583 8.5599 17.4892 15.729 17.4892 24.5412C17.4892 27.1287 18.1041 29.6308 19.2764 31.8879C18.6666 33.1455 18.3242 34.5558 18.3242 36.0447C18.3242 36.7377 18.8858 37.2991 19.5786 37.2991C20.2712 37.2991 20.833 36.7377 20.833 36.0447C20.833 35.5624 20.882 35.0913 20.9747 34.6358C22.7563 37.7587 22.0455 40.5843 21.0717 42.4666C20.9616 42.6796 20.8411 42.8894 20.7153 43.0977H12.7509C12.0581 43.0977 11.4966 43.6591 11.4966 44.3521C11.4966 45.0451 12.0581 45.6065 12.7509 45.6065H18.7202C17.002 47.3129 14.7931 48.6762 12.4983 49.4493H1.25437C0.561562 49.4493 0 50.0107 0 50.7037C0 51.3966 0.561562 51.958 1.25437 51.958H4.15062C3.05531 53.0616 2.3775 54.5804 2.3775 56.2544C2.3775 59.6196 5.11531 62.3572 8.48031 62.3572C14.855 62.3572 19.9166 63.2362 25.0477 64.2633C24.8945 64.4715 24.8028 64.7274 24.8028 65.0057C24.8028 70.619 29.3697 75.186 34.9831 75.186C39.8058 75.186 43.8528 71.8143 44.8983 67.3051C46.9995 67.4377 49.2463 67.5137 51.6819 67.5137C63.0955 67.5137 72.3812 58.2279 72.3812 46.8143C72.3812 44.3908 71.9692 42.0294 71.1552 39.7797C76.638 36.3219 80 30.279 80 23.753ZM34.9833 72.6772C30.7531 72.6772 27.3117 69.2358 27.3117 65.0057C27.3117 64.9054 27.2987 64.8082 27.2764 64.7147C28.0023 64.8626 28.7314 65.0108 29.4673 65.1576C29.5425 65.7785 30.0705 66.2601 30.7117 66.2601C31.1842 66.2601 31.5953 65.9987 31.8092 65.6127C33.642 65.9576 35.5414 66.2829 37.5625 66.564C37.0331 67.4366 36.0767 68.023 34.9836 68.023C34.2908 68.023 33.7292 68.5844 33.7292 69.2774C33.7292 69.9704 34.2908 70.5318 34.9836 70.5318C37.3681 70.5318 39.4045 69.0135 40.1775 66.8932C40.8873 66.9729 41.6145 67.0457 42.3587 67.1121C41.4405 70.3207 38.483 72.6772 34.9833 72.6772ZM32.5697 63.2022C33.1205 62.4671 33.9958 61.9882 34.9831 61.9882C36.32 61.9882 37.4548 62.8629 37.8498 64.0694C36.0022 63.8113 34.2564 63.5158 32.5697 63.2022ZM68.9914 38.1452C68.4292 38.4557 68.1925 39.1405 68.4427 39.7319C69.3914 41.9746 69.8725 44.3576 69.8725 46.8143C69.8725 56.8446 61.7122 65.0049 51.6819 65.0049C49.345 65.0049 47.1834 64.933 45.1584 64.8069C45.0517 59.2851 40.53 54.8252 34.9831 54.8252H11.207C10.5142 54.8252 9.95266 55.3866 9.95266 56.0796C9.95266 56.7726 10.5142 57.334 11.207 57.334H34.9833C39.0831 57.334 42.442 60.5668 42.645 64.6174C41.9048 64.5516 41.1814 64.4794 40.4756 64.4004C40.1731 61.6369 37.8259 59.4794 34.9834 59.4794C32.7597 59.4794 30.8398 60.8004 29.9641 62.6983C29.1691 62.5397 28.3822 62.3797 27.5988 62.2201C21.6105 61.0004 15.9542 59.8483 8.48063 59.8483C6.49875 59.8483 4.88641 58.2358 4.88641 56.2541C4.88641 54.2721 6.49891 52.6597 8.48063 52.6597C9.89172 52.6597 11.3764 52.4169 12.8584 51.9579H25.4037C26.0966 51.9579 26.6581 51.3965 26.6581 50.7035C26.6581 50.0105 26.0966 49.4491 25.4037 49.4491H17.9853C19.5827 48.3462 20.9631 47.0335 22.0392 45.6063H27.8859C33.1583 45.6063 37.4477 41.3171 37.4477 36.0446C37.4477 30.7721 33.1583 26.4829 27.8859 26.4829C25.1498 26.4829 22.6802 27.6399 20.9356 29.4883C20.3186 27.9271 19.9978 26.2565 19.9978 24.541C19.9978 17.1122 26.0414 11.0683 33.4703 11.0683C37.7686 11.0683 41.7091 13.0482 44.2812 16.5002C44.5405 16.8479 44.9614 17.0376 45.3934 17.0005C45.8259 16.9637 46.2084 16.706 46.4052 16.3191C49.2259 10.7699 54.8417 7.32272 61.0611 7.32272C70.1209 7.32272 77.4914 14.6933 77.4914 23.753C77.4912 29.7349 74.2344 35.2494 68.9914 38.1452ZM27.8858 38.7499C26.3939 38.7499 25.1803 37.5362 25.1803 36.0446C25.1803 34.5527 26.3939 33.339 27.8858 33.339C29.3775 33.339 30.5911 34.5527 30.5911 36.0446C30.5911 36.7376 31.1527 37.299 31.8455 37.299C32.5381 37.299 33.0998 36.7376 33.0998 36.0446C33.0998 33.1694 30.7608 30.8304 27.8858 30.8304C25.8884 30.8304 24.1509 31.9596 23.2755 33.6127C23.0423 33.1824 22.7789 32.7576 22.4834 32.3404C22.3805 32.1955 22.2806 32.0488 22.1836 31.9007C23.4672 30.1394 25.5444 28.9916 27.8858 28.9916C31.7748 28.9916 34.9388 32.1555 34.9388 36.0446C34.9388 39.9337 31.7747 43.0976 27.8858 43.0976H23.553C24.0256 42.0707 24.3352 41.0294 24.4806 39.988C25.395 40.7787 26.5852 41.2587 27.8859 41.2587C28.5788 41.2587 29.1403 40.6972 29.1403 40.0043C29.1402 39.3116 28.5786 38.7499 27.8858 38.7499Z" fill="#0E0E11"/>
<path d="M57.9788 13.6601C58.6682 13.6601 59.227 13.1013 59.227 12.4119C59.227 11.7224 58.6682 11.1636 57.9788 11.1636C57.2893 11.1636 56.7305 11.7224 56.7305 12.4119C56.7305 13.1013 57.2893 13.6601 57.9788 13.6601Z" fill="#0E0E11"/>
<path d="M27.5579 21.6152C28.2473 21.6152 28.8061 21.0563 28.8061 20.3669C28.8061 19.6775 28.2473 19.1187 27.5579 19.1187C26.8684 19.1187 26.3096 19.6775 26.3096 20.3669C26.3096 21.0563 26.8684 21.6152 27.5579 21.6152Z" fill="#0E0E11"/>
<path d="M53.9758 58.576C54.6652 58.576 55.2241 58.0172 55.2241 57.3278C55.2241 56.6383 54.6652 56.0795 53.9758 56.0795C53.2864 56.0795 52.7275 56.6383 52.7275 57.3278C52.7275 58.0172 53.2864 58.576 53.9758 58.576Z" fill="#0E0E11"/>
<path d="M64.5852 53.6246C65.2746 53.6246 65.8335 53.0657 65.8335 52.3763C65.8335 51.6869 65.2746 51.1281 64.5852 51.1281C63.8958 51.1281 63.3369 51.6869 63.3369 52.3763C63.3369 53.0657 63.8958 53.6246 64.5852 53.6246Z" fill="#0E0E11"/>
<path d="M61.1728 28.7394C60.4798 28.7394 59.9184 29.3008 59.9184 29.9938C59.9184 30.9419 59.147 31.7133 58.1987 31.7133C57.2506 31.7133 56.4792 30.9419 56.4792 29.9938C56.4792 29.3008 55.9178 28.7394 55.2248 28.7394C54.5318 28.7394 53.9704 29.3008 53.9704 29.9938C53.9704 30.9419 53.199 31.7133 52.2507 31.7133C51.3026 31.7133 50.5312 30.9419 50.5312 29.9938C50.5312 29.3008 49.9698 28.7394 49.2768 28.7394C48.5839 28.7394 48.0225 29.3008 48.0225 29.9938C48.0225 31.1544 48.4928 32.207 49.2525 32.9719V33.9488C49.2525 37.242 51.9314 39.9209 55.2246 39.9209C58.5178 39.9209 61.1968 37.242 61.1968 33.9488V32.9717C61.9567 32.2069 62.4268 31.1542 62.4268 29.9936C62.4271 29.3008 61.8656 28.7394 61.1728 28.7394ZM55.225 37.4123C53.3979 37.4123 51.9007 35.9895 51.7739 34.1944C51.9306 34.212 52.0897 34.222 52.2509 34.222C53.4092 34.222 54.4604 33.7538 55.225 32.9966C55.9893 33.7538 57.0404 34.222 58.1987 34.222C58.3601 34.222 58.5192 34.212 58.6759 34.1944C58.5492 35.9895 57.0518 37.4123 55.225 37.4123Z" fill="#0E0E11"/>
<path d="M68.9604 23.0326C68.2676 23.0326 67.7061 23.594 67.7061 24.287V25.5502C67.7061 26.2432 68.2676 26.8046 68.9604 26.8046C69.6534 26.8046 70.2148 26.2432 70.2148 25.5502V24.287C70.2148 23.594 69.6532 23.0326 68.9604 23.0326Z" fill="#0E0E11"/>
<path d="M73.6291 21.6152C74.3185 21.6152 74.8774 21.0563 74.8774 20.3669C74.8774 19.6775 74.3185 19.1187 73.6291 19.1187C72.9397 19.1187 72.3809 19.6775 72.3809 20.3669C72.3809 21.0563 72.9397 21.6152 73.6291 21.6152Z" fill="#0E0E11"/>
<path d="M53.9758 20.8026C54.6652 20.8026 55.2241 20.2437 55.2241 19.5543C55.2241 18.8649 54.6652 18.306 53.9758 18.306C53.2864 18.306 52.7275 18.8649 52.7275 19.5543C52.7275 20.2437 53.2864 20.8026 53.9758 20.8026Z" fill="#0E0E11"/>
<path d="M50.1184 47.6037C50.8078 47.6037 51.3667 47.0449 51.3667 46.3555C51.3667 45.6661 50.8078 45.1072 50.1184 45.1072C49.429 45.1072 48.8701 45.6661 48.8701 46.3555C48.8701 47.0449 49.429 47.6037 50.1184 47.6037Z" fill="#0E0E11"/>
</svg>
