<svg width="80" height="80" viewBox="0 0 80 80" fill="none" xmlns="http://www.w3.org/2000/svg">
<g clip-path="url(#clip0)">
<path d="M55.4014 72.7871C56.2643 72.7871 56.9639 72.0876 56.9639 71.2246C56.9639 70.3617 56.2643 69.6621 55.4014 69.6621C54.5384 69.6621 53.8389 70.3617 53.8389 71.2246C53.8389 72.0876 54.5384 72.7871 55.4014 72.7871Z" fill="#0E0E11"/>
<path d="M75.1251 57.8154L72.6949 45.7842C72.5959 45.2935 72.2678 44.8803 71.8126 44.6723L62.7309 40.5238C62.6634 40.3231 62.5948 40.1228 62.5234 39.9232C61.914 38.2185 61.1578 36.5717 60.2781 35.031C59.782 34.1629 59.2426 33.3245 58.6676 32.5206L66.1782 24.1696C66.3332 23.9974 66.4479 23.7929 66.514 23.5709L70.5167 10.1334C70.7631 9.30635 70.2923 8.4362 69.4653 8.18979C68.6378 7.94354 67.7681 8.41432 67.5217 9.2412L63.6195 22.3415L56.684 30.0529C55.7457 29.0135 54.7354 28.0564 53.6704 27.2012C53.5063 27.0699 53.3407 26.9403 53.1735 26.8153C53.2439 26.3309 53.2813 25.8293 53.2813 25.3121C53.2813 24.5699 53.2188 23.8293 53.0954 23.0965C54.3548 22.2418 55.1563 20.7981 55.1563 19.2184C55.1563 16.8121 53.3329 14.8231 50.9954 14.5606C50.9782 14.5418 50.9626 14.5231 50.947 14.5059C50.7062 14.2343 50.3885 13.8764 49.9682 13.4823L51.9806 9.2562C54.0646 8.78057 55.6251 6.91323 55.6251 4.68713C55.6251 2.10245 53.5223 -0.000366211 50.9376 -0.000366211C48.3529 -0.000366211 46.2501 2.10245 46.2501 4.68713C46.2501 6.47292 47.2542 8.02823 48.7273 8.81948L47.3685 11.6728C46.8388 11.4065 46.244 11.1574 45.5751 10.9418C44.5829 9.06573 42.5595 7.96885 40.0001 7.96885C37.4407 7.96885 35.4173 9.06573 34.4251 10.9423C33.7562 11.1579 33.1614 11.407 32.6317 11.6732L31.2729 8.81995C32.746 8.0287 33.7501 6.47338 33.7501 4.6876C33.7501 2.10292 31.6473 0.000102539 29.0626 0.000102539C26.4779 0.000102539 24.3751 2.10292 24.3751 4.6876C24.3751 6.9137 25.9354 8.78104 28.0196 9.25667L30.032 13.4828C29.6117 13.8768 29.2938 14.2348 29.0532 14.5064C29.0376 14.5235 29.022 14.5423 29.0048 14.561C26.6673 14.8235 24.8438 16.8126 24.8438 19.2189C24.8438 20.7985 25.6454 22.2407 26.9048 23.097C26.7595 23.9532 26.7001 24.8251 26.7251 25.7001C26.7345 26.0235 26.7579 26.3407 26.797 26.6517C26.5564 26.8314 26.3189 27.0157 26.0845 27.2048C25.0649 28.0282 24.0971 28.9474 23.1957 29.9428L16.2465 22.3471L12.6299 9.27104C12.3998 8.43932 11.539 7.95182 10.7074 8.18166C9.87573 8.41166 9.38807 9.27245 9.61807 10.1042L13.3348 23.5417C13.4006 23.7792 13.5215 23.9979 13.6879 24.1798L21.2121 32.4039C20.6098 33.2446 20.0471 34.1246 19.5315 35.0374C18.6596 36.5781 17.9128 38.2234 17.3096 39.9296C17.2301 40.1543 17.1532 40.3799 17.0785 40.6065L8.05244 44.6689C7.58744 44.8781 7.25385 45.301 7.15869 45.8018L4.87151 57.8331C4.71041 58.6809 5.26697 59.4987 6.11463 59.6599C6.21322 59.6787 6.31135 59.6878 6.40823 59.6878C7.14369 59.6878 7.79901 59.1659 7.94151 58.4168L10.0767 47.1848L16.0624 44.4907C15.6384 46.6393 15.4229 48.8468 15.422 51.0937C15.4232 54.2737 15.8523 57.3756 16.6987 60.3417L11.6865 65.8203C11.5348 65.9862 11.4206 66.1828 11.3518 66.3967L7.6351 77.9592C7.37104 78.7807 7.82291 79.6609 8.64432 79.9249C8.80338 79.976 8.96448 80.0004 9.12291 80.0004C9.78338 80.0004 10.3971 79.5782 10.6099 78.9157L14.2223 67.6781L17.8612 63.7007C18.3499 64.8931 18.9079 66.0487 19.5314 67.1501C20.3954 68.6798 21.3892 70.1204 22.486 71.4314C23.5814 72.7439 24.7923 73.9392 26.086 74.9829C27.3939 76.0392 28.7938 76.947 30.2485 77.6829C31.7345 78.4329 33.2892 79.011 34.872 79.3985C36.5001 79.7985 38.1751 80.0001 39.8517 80.0001H39.8626C41.7782 80.0001 43.6907 79.736 45.547 79.2157C47.347 78.711 49.1001 77.9626 50.7563 76.9939C51.5001 76.5579 51.7517 75.6001 51.3173 74.8563C51.0376 74.3782 50.5204 74.0814 49.9673 74.0814C49.6907 74.0814 49.4188 74.1563 49.1798 74.2954C48.7493 74.547 48.3139 74.7779 47.8746 74.9929L41.5626 51.0473V36.9204C45.477 36.4026 50.0637 34.0123 52.1484 29.9953C53.1203 30.8187 54.0421 31.7437 54.9078 32.7671C59.0374 37.6578 61.3109 44.1671 61.3093 51.0935C61.3093 55.9357 60.1765 60.6576 58.0312 64.7528C57.8374 65.1215 57.7999 65.5449 57.9234 65.9434C58.0484 66.3418 58.3203 66.6684 58.6906 66.8606C58.914 66.9778 59.164 67.0403 59.414 67.0403C59.9984 67.0403 60.5281 66.7184 60.7999 66.2028C61.2438 65.3548 61.649 64.4818 62.0151 63.5882L66.0857 67.7196L69.9728 78.9482C70.1965 79.5945 70.8018 79.9999 71.4492 79.9999C71.6187 79.9999 71.791 79.9721 71.9604 79.9135C72.7759 79.6312 73.2081 78.7413 72.9257 77.9259L68.9232 66.3634C68.8471 66.1437 68.7229 65.9437 68.5598 65.7779L63.1548 60.2923C63.2709 59.887 63.3821 59.4798 63.4828 59.0685C64.114 56.4857 64.4343 53.8029 64.4343 51.0935C64.4343 48.8293 64.2123 46.6034 63.7757 44.4367L69.7896 47.1837L72.062 58.434C72.2118 59.1754 72.8635 59.6874 73.5918 59.6874C73.6943 59.6874 73.7985 59.6773 73.9029 59.6562C74.7487 59.4854 75.2959 58.6612 75.1251 57.8154ZM50.9374 3.1251C51.799 3.1251 52.4999 3.82604 52.4999 4.6876C52.4999 5.54917 51.799 6.2501 50.9374 6.2501C50.0759 6.2501 49.3749 5.54917 49.3749 4.6876C49.3749 3.82604 50.0759 3.1251 50.9374 3.1251ZM29.0628 3.1251C29.9243 3.1251 30.6253 3.82604 30.6253 4.6876C30.6253 5.54917 29.9243 6.2501 29.0628 6.2501C28.2012 6.2501 27.5003 5.54917 27.5003 4.6876C27.5003 3.82604 28.201 3.1251 29.0628 3.1251ZM24.8831 69.4262C20.7956 64.5434 18.5456 58.0324 18.5471 51.0935C18.5456 44.1545 20.7956 37.6435 24.8831 32.7609C25.7846 31.6859 26.7503 30.7187 27.7706 29.8671C29.8179 33.9565 34.4968 36.3931 38.4376 36.9192V51.0473L32.0953 75.1079C29.4323 73.8457 26.9818 71.9299 24.8831 69.4262ZM39.8579 76.8746C38.2157 76.8742 36.6009 76.6474 35.0365 76.2096L40.0001 57.3798L44.9445 76.1368C43.292 76.6251 41.5924 76.8739 39.8579 76.8746ZM40.0001 33.9031C36.5485 33.9031 31.9017 31.7124 30.3643 28.0078C30.0565 27.2671 29.8737 26.4671 29.8487 25.6109C29.8393 25.3078 29.844 25.0062 29.8628 24.7062C29.9034 24.0046 30.0174 23.3124 30.2018 22.6374C30.4268 21.8078 29.9409 20.9515 29.1128 20.7218C28.4393 20.5343 27.969 19.9156 27.969 19.2187C27.969 18.3578 28.6706 17.6562 29.5315 17.6562H29.6643C29.9378 17.6562 30.2081 17.5843 30.4456 17.4468C30.8096 17.2359 31.0674 16.9468 31.3924 16.5796C31.4162 16.5528 31.4421 16.5239 31.467 16.4957L33.902 21.6092C34.1698 22.1715 34.7298 22.5003 35.3139 22.5003C35.539 22.5003 35.7678 22.4514 35.9845 22.3481C36.7635 21.9771 37.0943 21.0446 36.7234 20.2656L33.9762 14.4964C34.5282 14.2135 35.1793 13.9542 35.9612 13.7484C36.4674 13.6156 36.8737 13.2374 37.0424 12.7421C37.5313 11.3079 39.1048 11.0939 40.0001 11.0939C40.8954 11.0939 42.4688 11.3079 42.9579 12.7423C43.1267 13.2376 43.5329 13.6157 44.0392 13.7485C44.821 13.9543 45.4721 14.2137 46.0242 14.4965L43.2768 20.2657C42.9059 21.0448 43.2367 21.9773 44.0157 22.3482C44.2326 22.4515 44.4612 22.5004 44.6864 22.5004C45.2703 22.5004 45.8304 22.1717 46.0982 21.6093L48.5332 16.4959C48.5582 16.524 48.584 16.5529 48.6078 16.5798C48.9328 16.947 49.1906 17.236 49.5546 17.447C49.7921 17.5845 50.0624 17.6564 50.3359 17.6564H50.4687C51.3296 17.6564 52.0312 18.3579 52.0312 19.2189C52.0312 19.9173 51.5609 20.5345 50.8874 20.722C50.0578 20.9517 49.5718 21.8079 49.7968 22.6376C49.9953 23.361 50.1109 24.1032 50.1437 24.8501C50.1531 25.0032 50.1562 25.1579 50.1562 25.3126C50.1562 26.3423 49.9453 27.2798 49.5765 28.1251C47.9048 31.9734 42.9892 33.9031 40.0001 33.9031Z" fill="#0E0E11"/>
</g>
<defs>
<clipPath id="clip0">
<rect width="80" height="80" fill="white"/>
</clipPath>
</defs>
</svg>
