<svg width="85" height="85" viewBox="0 0 85 85" fill="none" xmlns="http://www.w3.org/2000/svg">
<g clip-path="url(#clip0)">
<path d="M25.997 58.9372C23.4892 58.9372 20.0159 54.2162 20.0159 45.3519C20.0159 38.9545 43.009 15.8758 57.5022 2.83135C58.1688 2.2315 58.222 1.20428 57.6228 0.537625C57.0223 -0.129028 55.997 -0.182854 55.3297 0.417005C51.3817 3.96882 16.7676 35.4098 16.7676 45.3519C16.7676 56.2855 21.523 62.1856 25.997 62.1856C30.7264 62.1856 41.483 64.4443 41.483 68.166C41.483 70.4208 39.9117 72.8857 38.391 75.2696C36.5019 78.2313 34.548 81.2948 35.9514 84.1021C36.2367 84.6715 36.8093 85.0003 37.4059 85.0003C37.6498 85.0003 37.8975 84.9452 38.1303 84.8284C38.9332 84.4277 39.2581 83.4517 38.8566 82.6495C38.2762 81.4893 39.7276 79.2144 41.1296 77.016C42.817 74.3682 44.7314 71.3689 44.7314 68.166C44.7314 60.5416 29.0786 58.9372 25.997 58.9372Z" fill="#0E0E11"/>
<path d="M55.0509 59.3166C55.3096 58.7284 55.1981 58.0423 54.7655 57.5663C48.2656 50.4237 44.3383 47.9776 41.6425 49.3822C38.7548 50.8848 39.616 55.8348 39.9487 57.316C40.1451 58.1895 41.0161 58.744 41.8864 58.5429C42.7618 58.3484 43.3124 57.4794 43.1172 56.6052C42.6873 54.6681 42.7793 52.5929 43.1295 52.2687C43.1535 52.2648 44.6302 51.9023 49.7766 57.0358H46.6891C45.791 57.0358 45.0647 57.7628 45.0647 58.6597C45.0647 59.5565 45.791 60.2841 46.6891 60.2841H53.5645C54.2072 60.2841 54.7908 59.9048 55.0509 59.3166Z" fill="#0E0E11"/>
<path d="M66.5233 49.628C66.2587 48.7713 65.3527 48.2843 64.4935 48.5534C63.6355 48.8167 63.1543 49.7259 63.4183 50.5826C65.7892 58.2867 65.6809 63.7925 63.105 66.5065C59.9553 69.8222 53.8438 68.3463 53.7446 68.3197C52.8801 68.0985 51.9937 68.6225 51.7699 69.4915C51.5475 70.3598 52.0708 71.2444 52.9405 71.4675C53.0877 71.5057 54.7582 71.9195 56.9566 71.9195C59.5992 71.9195 63.0026 71.3216 65.4468 68.7574C68.9396 65.094 69.3021 58.6577 66.5233 49.628Z" fill="#0E0E11"/>
</g>
<defs>
<clipPath id="clip0">
<rect width="85" height="85" fill="white"/>
</clipPath>
</defs>
</svg>
