<svg width="80" height="80" viewBox="0 0 80 80" fill="none" xmlns="http://www.w3.org/2000/svg">
<path d="M28.7024 0.649561C27.6624 2.18006 3.2002 38.3061 3.2002 52.7856C3.2002 67.8154 15.1992 80 30.0002 80C44.8012 80 56.8002 67.8154 56.8002 52.7856C56.8002 38.3061 32.338 2.18006 31.298 0.649561C30.9878 0.23997 30.5082 0 30.0002 0C29.4922 0 29.0126 0.23997 28.7024 0.649561ZM30.0002 76.7983C16.9466 76.7835 6.36776 66.0411 6.35314 52.7856C6.35314 41.0998 24.8767 12.1885 30.0002 4.41483C35.1237 12.1885 53.6473 41.0998 53.6473 52.7856C53.6326 66.0411 43.0538 76.7835 30.0002 76.7983Z" fill="#0E0E11"/>
<path d="M76.7904 30.3393C76.2628 25.3945 69.5169 13.5902 66.642 8.74279C66.3232 8.27951 65.7811 8 65.2001 8C64.6191 8 64.077 8.27951 63.7582 8.74279C60.8833 13.5902 54.1374 25.3945 53.6098 30.3393C53.6033 30.4026 53.6001 30.4667 53.6001 30.5307C53.6001 36.6437 58.7932 41.6 65.2001 41.6C71.607 41.6 76.8001 36.6437 76.8001 30.5307C76.8001 30.4667 76.7969 30.4026 76.7904 30.3393ZM65.2001 38.2791C60.7117 38.2636 57.0447 34.8531 56.9144 30.5717C57.2607 27.8028 60.3792 21.12 65.2001 12.7664C70.0194 21.12 73.1379 27.8028 73.4858 30.5717C73.3555 34.8531 69.6885 38.2636 65.2001 38.2791Z" fill="#0E0E11"/>
<path d="M71.9847 56.7138C72.0114 56.5243 72.0028 56.3318 71.9603 56.1455C71.1348 53.3585 70.0255 50.6592 68.6481 48.0894C68.3792 47.5457 67.8163 47.2 67.1991 47.2C66.582 47.2 66.019 47.5457 65.7502 48.0894C64.3735 50.6592 63.2642 53.3585 62.4395 56.1455C62.3971 56.3318 62.3884 56.5243 62.4151 56.7138C62.7446 59.0557 64.7871 60.7999 67.2007 60.7999C69.6143 60.7999 71.6568 59.0557 71.9862 56.7138H71.9847ZM67.1991 57.641C66.4963 57.6387 65.8752 57.1928 65.6613 56.5367C66.0874 55.179 66.6008 53.849 67.1991 52.5545C67.7974 53.8475 68.3116 55.1767 68.7369 56.5336C68.5239 57.1905 67.9028 57.6379 67.1991 57.641Z" fill="#0E0E11"/>
</svg>
