<svg width="80" height="80" viewBox="0 0 80 80" fill="none" xmlns="http://www.w3.org/2000/svg">
<path d="M79.9933 15.9566C79.6295 12.4247 74.9771 3.99301 72.9944 0.530563C72.7746 0.199651 72.4007 0 72 0C71.5993 0 71.2254 0.199651 71.0056 0.530563C69.0229 3.99301 64.3705 12.4247 64.0067 15.9566C64.0022 16.0018 64 16.0476 64 16.0934C64 20.4598 67.5815 24 72 24C76.4185 24 80 20.4598 80 16.0934C80 16.0476 79.9978 16.0018 79.9933 15.9566ZM72 21.6279C68.9046 21.6169 66.3756 19.1808 66.2857 16.1226C66.5246 14.1449 68.6752 9.37145 72 3.40454C75.3237 9.37145 77.4743 14.1449 77.7143 16.1226C77.6244 19.1808 75.0954 21.6169 72 21.6279Z" fill="#0E0E11"/>
<path d="M58.9933 15.9566C58.6295 12.4247 53.9771 3.99301 51.9944 0.530563C51.7746 0.199651 51.4007 0 51 0C50.5993 0 50.2254 0.199651 50.0056 0.530563C48.0229 3.99301 43.3705 12.4247 43.0067 15.9566C43.0022 16.0018 43 16.0476 43 16.0934C43 20.4598 46.5815 24 51 24C55.4185 24 59 20.4598 59 16.0934C59 16.0476 58.9978 16.0018 58.9933 15.9566ZM51 21.6279C47.9046 21.6169 45.3756 19.1808 45.2857 16.1226C45.5246 14.1449 47.6752 9.37145 51 3.40454C54.3237 9.37145 56.4743 14.1449 56.7143 16.1226C56.6244 19.1808 54.0954 21.6169 51 21.6279Z" fill="#0E0E11"/>
<path d="M37.9933 15.9566C37.6295 12.4247 32.9771 3.99301 30.9944 0.530563C30.7746 0.199651 30.4007 0 30 0C29.5993 0 29.2254 0.199651 29.0056 0.530563C27.0229 3.99301 22.3705 12.4247 22.0067 15.9566C22.0022 16.0018 22 16.0476 22 16.0934C22 20.4598 25.5815 24 30 24C34.4185 24 38 20.4598 38 16.0934C38 16.0476 37.9978 16.0018 37.9933 15.9566ZM30 21.6279C26.9046 21.6169 24.3756 19.1808 24.2857 16.1226C24.5246 14.1449 26.6752 9.37145 30 3.40454C33.3237 9.37145 35.4743 14.1449 35.7143 16.1226C35.6244 19.1808 33.0954 21.6169 30 21.6279Z" fill="#0E0E11"/>
<path d="M16.9933 15.9566C16.6295 12.4247 11.9771 3.99301 9.99442 0.530563C9.77455 0.199651 9.40067 0 9 0C8.59933 0 8.22545 0.199651 8.00558 0.530563C6.02288 3.99301 1.37054 12.4247 1.0067 15.9566C1.00223 16.0018 1 16.0476 1 16.0934C1 20.4598 4.58147 24 9 24C13.4185 24 17 20.4598 17 16.0934C17 16.0476 16.9978 16.0018 16.9933 15.9566ZM9 21.6279C5.90458 21.6169 3.37556 19.1808 3.28571 16.1226C3.52455 14.1449 5.67522 9.37145 9 3.40454C12.3237 9.37145 14.4743 14.1449 14.7143 16.1226C14.6244 19.1808 12.0954 21.6169 9 21.6279Z" fill="#0E0E11"/>
<path d="M79.9933 43.6215C79.6295 39.9424 74.9771 31.1594 72.9944 27.5527C72.7746 27.208 72.4007 27 72 27C71.5993 27 71.2254 27.208 71.0056 27.5527C69.0229 31.1594 64.3705 39.9424 64.0067 43.6215C64.0022 43.6686 64 43.7163 64 43.7639C64 48.3123 67.5815 52 72 52C76.4185 52 80 48.3123 80 43.7639C80 43.7163 79.9978 43.6686 79.9933 43.6215ZM72 49.5291C68.9046 49.5176 66.3756 46.98 66.2857 43.7944C66.5246 41.7342 68.6752 36.7619 72 30.5464C75.3237 36.7619 77.4743 41.7342 77.7143 43.7944C77.6244 46.98 75.0954 49.5176 72 49.5291Z" fill="#0E0E11"/>
<path d="M58.9933 43.6215C58.6295 39.9424 53.9771 31.1594 51.9944 27.5527C51.7746 27.208 51.4007 27 51 27C50.5993 27 50.2254 27.208 50.0056 27.5527C48.0229 31.1594 43.3705 39.9424 43.0067 43.6215C43.0022 43.6686 43 43.7163 43 43.7639C43 48.3123 46.5815 52 51 52C55.4185 52 59 48.3123 59 43.7639C59 43.7163 58.9978 43.6686 58.9933 43.6215ZM51 49.5291C47.9046 49.5176 45.3756 46.98 45.2857 43.7944C45.5246 41.7342 47.6752 36.7619 51 30.5464C54.3237 36.7619 56.4743 41.7342 56.7143 43.7944C56.6244 46.98 54.0954 49.5176 51 49.5291Z" fill="#0E0E11"/>
<path d="M37.9933 43.6215C37.6295 39.9424 32.9771 31.1594 30.9944 27.5527C30.7746 27.208 30.4007 27 30 27C29.5993 27 29.2254 27.208 29.0056 27.5527C27.0229 31.1594 22.3705 39.9424 22.0067 43.6215C22.0022 43.6686 22 43.7163 22 43.7639C22 48.3123 25.5815 52 30 52C34.4185 52 38 48.3123 38 43.7639C38 43.7163 37.9978 43.6686 37.9933 43.6215ZM30 49.5291C26.9046 49.5176 24.3756 46.98 24.2857 43.7944C24.5246 41.7342 26.6752 36.7619 30 30.5464C33.3237 36.7619 35.4743 41.7342 35.7143 43.7944C35.6244 46.98 33.0954 49.5176 30 49.5291Z" fill="#0E0E11"/>
<path d="M16.9933 43.6215C16.6295 39.9424 11.9771 31.1594 9.99442 27.5527C9.77455 27.208 9.40067 27 9 27C8.59933 27 8.22545 27.208 8.00558 27.5527C6.02288 31.1594 1.37054 39.9424 1.0067 43.6215C1.00223 43.6686 1 43.7163 1 43.7639C1 48.3123 4.58147 52 9 52C13.4185 52 17 48.3123 17 43.7639C17 43.7163 16.9978 43.6686 16.9933 43.6215ZM9 49.5291C5.90458 49.5176 3.37556 46.98 3.28571 43.7944C3.52455 41.7342 5.67522 36.7619 9 30.5464C12.3237 36.7619 14.4743 41.7342 14.7143 43.7944C14.6244 46.98 12.0954 49.5176 9 49.5291Z" fill="#0E0E11"/>
<path d="M79.9933 70.9566C79.6295 67.4247 74.9771 58.993 72.9944 55.5306C72.7746 55.1997 72.4007 55 72 55C71.5993 55 71.2254 55.1997 71.0056 55.5306C69.0229 58.993 64.3705 67.4247 64.0067 70.9566C64.0022 71.0018 64 71.0476 64 71.0934C64 75.4598 67.5815 79 72 79C76.4185 79 80 75.4598 80 71.0934C80 71.0476 79.9978 71.0018 79.9933 70.9566ZM72 76.6279C68.9046 76.6169 66.3756 74.1808 66.2857 71.1226C66.5246 69.1449 68.6752 64.3714 72 58.4045C75.3237 64.3714 77.4743 69.1449 77.7143 71.1226C77.6244 74.1808 75.0954 76.6169 72 76.6279Z" fill="#0E0E11"/>
<path d="M58.9933 70.9566C58.6295 67.4247 53.9771 58.993 51.9944 55.5306C51.7746 55.1997 51.4007 55 51 55C50.5993 55 50.2254 55.1997 50.0056 55.5306C48.0229 58.993 43.3705 67.4247 43.0067 70.9566C43.0022 71.0018 43 71.0476 43 71.0934C43 75.4598 46.5815 79 51 79C55.4185 79 59 75.4598 59 71.0934C59 71.0476 58.9978 71.0018 58.9933 70.9566ZM51 76.6279C47.9046 76.6169 45.3756 74.1808 45.2857 71.1226C45.5246 69.1449 47.6752 64.3714 51 58.4045C54.3237 64.3714 56.4743 69.1449 56.7143 71.1226C56.6244 74.1808 54.0954 76.6169 51 76.6279Z" fill="#0E0E11"/>
<path d="M37.9933 70.9566C37.6295 67.4247 32.9771 58.993 30.9944 55.5306C30.7746 55.1997 30.4007 55 30 55C29.5993 55 29.2254 55.1997 29.0056 55.5306C27.0229 58.993 22.3705 67.4247 22.0067 70.9566C22.0022 71.0018 22 71.0476 22 71.0934C22 75.4598 25.5815 79 30 79C34.4185 79 38 75.4598 38 71.0934C38 71.0476 37.9978 71.0018 37.9933 70.9566ZM30 76.6279C26.9046 76.6169 24.3756 74.1808 24.2857 71.1226C24.5246 69.1449 26.6752 64.3714 30 58.4045C33.3237 64.3714 35.4743 69.1449 35.7143 71.1226C35.6244 74.1808 33.0954 76.6169 30 76.6279Z" fill="#0E0E11"/>
<path d="M16.9933 70.9566C16.6295 67.4247 11.9771 58.993 9.99442 55.5306C9.77455 55.1997 9.40067 55 9 55C8.59933 55 8.22545 55.1997 8.00558 55.5306C6.02288 58.993 1.37054 67.4247 1.0067 70.9566C1.00223 71.0018 1 71.0476 1 71.0934C1 75.4598 4.58147 79 9 79C13.4185 79 17 75.4598 17 71.0934C17 71.0476 16.9978 71.0018 16.9933 70.9566ZM9 76.6279C5.90458 76.6169 3.37556 74.1808 3.28571 71.1226C3.52455 69.1449 5.67522 64.3714 9 58.4045C12.3237 64.3714 14.4743 69.1449 14.7143 71.1226C14.6244 74.1808 12.0954 76.6169 9 76.6279Z" fill="#0E0E11"/>
</svg>
