<svg width="554" height="58" viewBox="0 0 554 58" fill="none" xmlns="http://www.w3.org/2000/svg">
<path opacity="0.02" d="M34.95 2H42.225V56H34.95V36.5H7.275V56H0V2H7.275V29.3H34.95V2Z" fill="#0E0E11"/>
<path opacity="0.02" d="M172.75 30.875H161.35V56H154V2H161.35V24.95H172.75L187.225 2H195.925L179.125 27.875L197.425 56H188.65L172.75 30.875Z" fill="#0E0E11"/>
<path opacity="0.02" d="M296.35 57.125C292.4 57.125 288.725 56.4 285.325 54.95C281.975 53.45 279.225 51.275 277.075 48.425C273.025 43.325 271 36.85 271 29C271 21.1 273.025 14.625 277.075 9.575C279.275 6.725 282.05 4.575 285.4 3.125C288.8 1.625 292.45 0.875 296.35 0.875C304.7 0.975001 311.15 3.875 315.7 9.575C319.6 14.475 321.6 20.95 321.7 29C321.7 36.95 319.7 43.425 315.7 48.425C311.1 54.225 304.65 57.125 296.35 57.125ZM296.35 50.225C299.1 50.225 301.675 49.7 304.075 48.65C306.475 47.55 308.4 46 309.85 44C312.55 40.45 313.95 35.45 314.05 29C314.05 22.6 312.65 17.6 309.85 14C308.4 12 306.475 10.475 304.075 9.425C301.675 8.325 299.1 7.8 296.35 7.85C293.65 7.8 291.075 8.325 288.625 9.425C286.225 10.475 284.3 12 282.85 14C280.15 17.4 278.75 22.4 278.65 29C278.65 35.4 280.05 40.4 282.85 44C284.3 46 286.225 47.55 288.625 48.65C291.075 49.75 293.65 50.275 296.35 50.225Z" fill="#0E0E11"/>
<path opacity="0.02" d="M417.95 2H425.225V56H417.95V36.5H390.275V56H383V2H390.275V29.3H417.95V2Z" fill="#0E0E11"/>
<path opacity="0.02" d="M528.75 30.875H517.35V56H510V2H517.35V24.95H528.75L543.225 2H551.925L535.125 27.875L553.425 56H544.65L528.75 30.875Z" fill="#0E0E11"/>
</svg>
