<svg width="40" height="40" viewBox="0 0 40 40" fill="none" xmlns="http://www.w3.org/2000/svg">
<circle cx="20" cy="20" r="19" stroke="#0F82CF" stroke-width="2"/>
<path d="M9.35326 19.4617L13.9617 21.2048L15.7454 27.0183C15.8595 27.3906 16.3088 27.5282 16.607 27.2811L19.1758 25.1589C19.4451 24.9365 19.8286 24.9255 20.11 25.1325L24.7432 28.5414C25.0622 28.7764 25.5141 28.5993 25.5941 28.2086L28.9882 11.6634C29.0756 11.2367 28.6618 10.8807 28.2609 11.0379L9.34786 18.4319C8.88113 18.6143 8.88519 19.2839 9.35326 19.4617ZM15.4579 20.2769L24.4645 14.6553C24.6263 14.5546 24.7929 14.7764 24.6539 14.907L17.2209 21.9091C16.9596 22.1556 16.7911 22.4854 16.7433 22.8434L16.4901 24.745C16.4566 24.9989 16.1047 25.0241 16.0355 24.7784L15.0617 21.3108C14.9502 20.9153 15.1127 20.4928 15.4579 20.2769Z" fill="#0F82CF"/>
</svg>
