<svg width="40" height="40" viewBox="0 0 40 40" fill="none" xmlns="http://www.w3.org/2000/svg">
<path d="M29.005 22.5826C28.9274 22.5453 26.0247 21.116 25.5089 20.9303C25.2984 20.8547 25.0728 20.7809 24.8328 20.7809C24.4409 20.7809 24.1116 20.9762 23.8551 21.3599C23.5652 21.7909 22.6874 22.8169 22.4162 23.1235C22.3808 23.1639 22.3324 23.2123 22.3035 23.2123C22.2775 23.2123 21.8283 23.0273 21.6923 22.9682C18.5785 21.6156 16.215 18.363 15.8909 17.8145C15.8446 17.7356 15.8426 17.6998 15.8423 17.6998C15.8536 17.658 15.9583 17.5531 16.0124 17.4989C16.1705 17.3425 16.3418 17.1363 16.5075 16.9368C16.586 16.8423 16.6646 16.7477 16.7417 16.6585C16.9822 16.3787 17.0892 16.1616 17.2133 15.91L17.2784 15.7793C17.5814 15.1773 17.3226 14.6692 17.2389 14.5052C17.1703 14.3679 15.9446 11.4099 15.8143 11.0991C15.501 10.3492 15.0869 10 14.5115 10C14.4581 10 14.5115 10 14.2876 10.0094C14.015 10.0209 12.5303 10.2164 11.8738 10.6302C11.1777 11.0691 10 12.4681 10 14.9284C10 17.1427 11.4052 19.2335 12.0085 20.0287C12.0235 20.0487 12.0511 20.0894 12.091 20.1478C14.4015 23.5221 17.2818 26.0228 20.2017 27.1892C23.0128 28.3121 24.3439 28.4419 25.1007 28.4419C25.1008 28.4419 25.1008 28.4419 25.1008 28.4419C25.4188 28.4419 25.6734 28.4169 25.8979 28.3948L26.0404 28.3813C27.0115 28.2952 29.1455 27.1894 29.631 25.8404C30.0133 24.7779 30.1142 23.617 29.8598 23.1957C29.6855 22.9093 29.3852 22.7651 29.005 22.5826Z" fill="#0F82CF"/>
<path d="M11.5272 35.7954L11.1551 35.5966L10.7531 35.7244L1.27971 38.7347L4.34898 29.6809L4.49645 29.2459L4.26253 28.8506C2.59111 26.0261 1.70828 22.7981 1.70828 19.4991C1.70828 9.30666 10.067 1 20.3551 1C30.6421 1 39 9.30657 39 19.4991C39 29.6904 30.6422 37.9961 20.3552 37.996C17.2694 37.996 14.2213 37.2349 11.5272 35.7954Z" stroke="#0F82CF" stroke-width="2"/>
</svg>
