<svg width="16" height="16" viewBox="0 0 16 16" fill="none" xmlns="http://www.w3.org/2000/svg">
<g clip-path="url(#clip0)">
<path d="M14.2023 9.86122L13.0189 8.67787L7.69404 3.35323C6.71268 2.37921 5.12855 2.38215 4.15086 3.35984C3.17316 4.33753 3.17023 5.92166 4.14424 6.90303L9.46888 12.2293C9.68667 12.4472 10.0399 12.4472 10.2578 12.2293C10.4756 12.0114 10.4756 11.6582 10.2578 11.4403L4.93318 6.11409C4.38861 5.56951 4.38861 4.68675 4.93318 4.14217C5.47776 3.59759 6.36053 3.59759 6.9051 4.14217L12.2313 9.46681L13.4147 10.65C14.3951 11.6308 14.3947 13.2205 13.4141 14.2008C12.4333 15.1811 10.8437 15.1808 9.86329 14.2001L8.87739 13.2138L3.35543 7.69185L2.96089 7.29744C1.58193 5.87536 1.59945 3.60984 3.00009 2.20907C4.40085 0.808434 6.66638 0.790918 8.08845 2.16988L14.0048 8.08638C14.1458 8.22724 14.3512 8.28223 14.5436 8.23067C14.7362 8.1791 14.8866 8.02881 14.9382 7.83626C14.9897 7.64371 14.9346 7.43842 14.7938 7.29744L8.87739 1.38106C7.02453 -0.463351 4.02837 -0.459921 2.17979 1.38878C0.331095 3.23735 0.327665 6.23351 2.17208 8.08638L8.08845 14.0028L9.07582 14.989C10.4997 16.3567 12.7563 16.3339 14.1522 14.9376C15.5482 13.5413 15.5703 11.2848 14.2023 9.86122Z" fill="white"/>
</g>
<defs>
<clipPath id="clip0">
<rect width="16" height="16" fill="white"/>
</clipPath>
</defs>
</svg>
