<svg width="335" height="314" viewBox="0 0 335 314" fill="none" xmlns="http://www.w3.org/2000/svg">
<rect width="335" height="312" rx="10" fill="#EBEDF2"/>
<path d="M0.5 10C0.5 4.7533 4.75329 0.5 10 0.5H325C330.247 0.5 334.5 4.7533 334.5 10V35.5H0.5V10Z" fill="url(#paint0_linear)" stroke="#CCDBDE"/>
<g filter="url(#filter0_d)">
<rect x="20" y="51" width="295" height="123" rx="5" fill="white"/>
</g>
<circle cx="272" cy="18" r="8" fill="#929FAB"/>
<circle cx="294" cy="18" r="8" fill="#929FAB"/>
<circle cx="316" cy="18" r="8" fill="#929FAB"/>
<g filter="url(#filter1_d)">
<rect x="20" y="184" width="295" height="50" rx="5" fill="white"/>
<rect x="20.5" y="184.5" width="294" height="49" rx="4.5" stroke="#FF1037"/>
</g>
<path d="M148.32 209.336C148.32 210.862 147.958 212.047 147.234 212.891C146.516 213.734 145.516 214.156 144.234 214.156C142.958 214.156 141.956 213.74 141.227 212.906C140.497 212.068 140.128 210.896 140.117 209.391V207.445C140.117 205.883 140.479 204.664 141.203 203.789C141.927 202.909 142.932 202.469 144.219 202.469C145.484 202.469 146.482 202.901 147.211 203.766C147.94 204.625 148.31 205.833 148.32 207.391V209.336ZM146.016 207.43C146.016 206.404 145.87 205.641 145.578 205.141C145.286 204.641 144.833 204.391 144.219 204.391C143.609 204.391 143.159 204.633 142.867 205.117C142.576 205.596 142.424 206.328 142.414 207.312V209.336C142.414 210.331 142.562 211.065 142.859 211.539C143.156 212.008 143.615 212.242 144.234 212.242C144.833 212.242 145.279 212.013 145.57 211.555C145.862 211.091 146.01 210.375 146.016 209.406V207.43ZM156.664 204.539H153.852V214H151.547V204.539H148.781V202.625H156.664V204.539ZM160.984 202.625L163.133 210.852L165.273 202.625H168.273V214H165.969V210.922L166.18 206.18L163.906 214H162.344L160.07 206.18L160.281 210.922V214H157.984V202.625H160.984ZM176 209.078H172.422V212.094H176.656V214H170.125V202.625H176.641V204.539H172.422V207.227H176V209.078ZM185.961 214H183.672V209.133H180.281V214H177.984V202.625H180.281V207.227H183.672V202.625H185.961V214ZM193.383 211.672H190.25L189.641 214H187.211L190.766 202.625H192.867L196.445 214H193.992L193.383 211.672ZM190.75 209.758H192.875L191.812 205.703L190.75 209.758Z" fill="#162942"/>
<path d="M20 56C20 53.2386 22.2386 51 25 51H310C312.761 51 315 53.2386 315 56V103H20V56Z" fill="#C4C4C4"/>
<path d="M20 56C20 53.2386 22.2386 51 25 51H310C312.761 51 315 53.2386 315 56V103H20V56Z" fill="url(#paint1_linear)"/>
<path d="M43.3535 74H41.4429V66.3003H37.7422V74H35.8379V64.7578H43.3535V74ZM44.623 70.5024C44.623 69.8211 44.7542 69.2139 45.0166 68.6807C45.279 68.1475 45.6556 67.7349 46.1465 67.4429C46.6416 67.1509 47.215 67.0049 47.8667 67.0049C48.7935 67.0049 49.5488 67.2884 50.1328 67.8555C50.721 68.4225 51.049 69.1927 51.1167 70.166L51.1294 70.6357C51.1294 71.6895 50.8353 72.5358 50.2471 73.1748C49.6589 73.8096 48.8696 74.127 47.8794 74.127C46.8892 74.127 46.0978 73.8096 45.5054 73.1748C44.9172 72.54 44.623 71.6768 44.623 70.585V70.5024ZM46.4575 70.6357C46.4575 71.2874 46.5802 71.7868 46.8257 72.1338C47.0711 72.4766 47.4224 72.6479 47.8794 72.6479C48.3237 72.6479 48.6707 72.4787 48.9204 72.1401C49.1701 71.7974 49.2949 71.2515 49.2949 70.5024C49.2949 69.8634 49.1701 69.3683 48.9204 69.0171C48.6707 68.6659 48.3195 68.4902 47.8667 68.4902C47.4181 68.4902 47.0711 68.6659 46.8257 69.0171C46.5802 69.3641 46.4575 69.9036 46.4575 70.6357ZM51.8975 72.521C52.3122 72.0809 52.5936 71.645 52.7417 71.2134C52.8898 70.7817 52.9723 70.1702 52.9893 69.3789L53.04 67.1318H58.0928V72.521H59.083V76.063H57.2485V74H53.1797V76.063H51.3071V72.521H51.8975ZM54.062 72.521H56.2646V68.6489H54.8364L54.8237 69.4741C54.7856 70.7352 54.5317 71.7508 54.062 72.521ZM63.9961 74C63.9115 73.835 63.8501 73.6297 63.812 73.3843C63.3677 73.8794 62.79 74.127 62.0791 74.127C61.4062 74.127 60.8477 73.9323 60.4033 73.543C59.9632 73.1536 59.7432 72.6628 59.7432 72.0703C59.7432 71.3424 60.0119 70.7839 60.5493 70.3945C61.091 70.0052 61.8717 69.8084 62.8916 69.8042H63.7358V69.4106C63.7358 69.0933 63.6533 68.8394 63.4883 68.6489C63.3275 68.4585 63.0715 68.3633 62.7202 68.3633C62.4113 68.3633 62.168 68.4373 61.9902 68.5854C61.8167 68.7336 61.73 68.9367 61.73 69.1948H59.8955C59.8955 68.797 60.0182 68.4289 60.2637 68.0903C60.5091 67.7518 60.8561 67.4873 61.3047 67.2969C61.7533 67.1022 62.2568 67.0049 62.8154 67.0049C63.6618 67.0049 64.3325 67.2186 64.8276 67.646C65.327 68.0692 65.5767 68.6659 65.5767 69.436V72.4131C65.5809 73.0648 65.6719 73.5578 65.8496 73.8921V74H63.9961ZM62.479 72.7241C62.7498 72.7241 62.9995 72.6649 63.228 72.5464C63.4565 72.4237 63.6258 72.2607 63.7358 72.0576V70.877H63.0503C62.132 70.877 61.6432 71.1943 61.584 71.8291L61.5776 71.937C61.5776 72.1655 61.658 72.3538 61.8188 72.502C61.9797 72.6501 62.1997 72.7241 62.479 72.7241ZM72.7749 74H70.9404V71.8418C70.5977 71.9053 70.2782 71.937 69.9819 71.937C68.9451 71.937 68.1644 71.717 67.6396 71.2769C67.1149 70.8368 66.8483 70.1935 66.8398 69.3472V67.1318H68.6743V69.3472C68.6785 69.745 68.7759 70.0306 68.9663 70.2041C69.1567 70.3734 69.4953 70.458 69.9819 70.458C70.2866 70.458 70.6061 70.422 70.9404 70.3501V67.1318H72.7749V74ZM78.1641 74C78.0794 73.835 78.0181 73.6297 77.98 73.3843C77.5356 73.8794 76.958 74.127 76.2471 74.127C75.5742 74.127 75.0156 73.9323 74.5713 73.543C74.1312 73.1536 73.9111 72.6628 73.9111 72.0703C73.9111 71.3424 74.1799 70.7839 74.7173 70.3945C75.259 70.0052 76.0397 69.8084 77.0596 69.8042H77.9038V69.4106C77.9038 69.0933 77.8213 68.8394 77.6562 68.6489C77.4954 68.4585 77.2394 68.3633 76.8882 68.3633C76.5793 68.3633 76.3359 68.4373 76.1582 68.5854C75.9847 68.7336 75.8979 68.9367 75.8979 69.1948H74.0635C74.0635 68.797 74.1862 68.4289 74.4316 68.0903C74.6771 67.7518 75.0241 67.4873 75.4727 67.2969C75.9212 67.1022 76.4248 67.0049 76.9834 67.0049C77.8298 67.0049 78.5005 67.2186 78.9956 67.646C79.495 68.0692 79.7446 68.6659 79.7446 69.436V72.4131C79.7489 73.0648 79.8398 73.5578 80.0176 73.8921V74H78.1641ZM76.647 72.7241C76.9178 72.7241 77.1675 72.6649 77.396 72.5464C77.6245 72.4237 77.7938 72.2607 77.9038 72.0576V70.877H77.2183C76.3 70.877 75.8112 71.1943 75.752 71.8291L75.7456 71.937C75.7456 72.1655 75.826 72.3538 75.9868 72.502C76.1476 72.6501 76.3677 72.7241 76.647 72.7241ZM84.1055 70.5024C84.1055 69.8211 84.2367 69.2139 84.499 68.6807C84.7614 68.1475 85.138 67.7349 85.6289 67.4429C86.124 67.1509 86.6974 67.0049 87.3491 67.0049C88.2759 67.0049 89.0312 67.2884 89.6152 67.8555C90.2035 68.4225 90.5314 69.1927 90.5991 70.166L90.6118 70.6357C90.6118 71.6895 90.3177 72.5358 89.7295 73.1748C89.1413 73.8096 88.3521 74.127 87.3618 74.127C86.3716 74.127 85.5802 73.8096 84.9878 73.1748C84.3996 72.54 84.1055 71.6768 84.1055 70.585V70.5024ZM85.9399 70.6357C85.9399 71.2874 86.0627 71.7868 86.3081 72.1338C86.5535 72.4766 86.9048 72.6479 87.3618 72.6479C87.8062 72.6479 88.1532 72.4787 88.4028 72.1401C88.6525 71.7974 88.7773 71.2515 88.7773 70.5024C88.7773 69.8634 88.6525 69.3683 88.4028 69.0171C88.1532 68.6659 87.8019 68.4902 87.3491 68.4902C86.9006 68.4902 86.5535 68.6659 86.3081 69.0171C86.0627 69.3641 85.9399 69.9036 85.9399 70.6357ZM97.7148 74H95.874V68.6172H93.5762V74H91.7417V67.1318H97.7148V74ZM105.091 74H103.25V68.6172H100.952V74H99.1177V67.1318H105.091V74ZM106.208 70.5024C106.208 69.8211 106.339 69.2139 106.602 68.6807C106.864 68.1475 107.241 67.7349 107.731 67.4429C108.227 67.1509 108.8 67.0049 109.452 67.0049C110.378 67.0049 111.134 67.2884 111.718 67.8555C112.306 68.4225 112.634 69.1927 112.702 70.166L112.714 70.6357C112.714 71.6895 112.42 72.5358 111.832 73.1748C111.244 73.8096 110.455 74.127 109.464 74.127C108.474 74.127 107.683 73.8096 107.09 73.1748C106.502 72.54 106.208 71.6768 106.208 70.585V70.5024ZM108.042 70.6357C108.042 71.2874 108.165 71.7868 108.411 72.1338C108.656 72.4766 109.007 72.6479 109.464 72.6479C109.909 72.6479 110.256 72.4787 110.505 72.1401C110.755 71.7974 110.88 71.2515 110.88 70.5024C110.88 69.8634 110.755 69.3683 110.505 69.0171C110.256 68.6659 109.904 68.4902 109.452 68.4902C109.003 68.4902 108.656 68.6659 108.411 69.0171C108.165 69.3641 108.042 69.9036 108.042 70.6357ZM117.45 69.1567C117.45 68.9155 117.369 68.7293 117.208 68.5981C117.052 68.4627 116.828 68.395 116.536 68.395C116.235 68.395 115.99 68.4585 115.799 68.5854C115.613 68.7082 115.52 68.8838 115.52 69.1123H113.686C113.686 68.4902 113.944 67.9845 114.46 67.5952C114.976 67.2059 115.636 67.0112 116.44 67.0112C117.325 67.0112 118.019 67.1847 118.522 67.5317C119.03 67.8787 119.284 68.3717 119.284 69.0107C119.284 69.3154 119.191 69.5968 119.005 69.855C118.823 70.1089 118.565 70.312 118.23 70.4644C119.013 70.7394 119.405 71.2705 119.405 72.0576C119.405 72.6882 119.134 73.1917 118.592 73.5684C118.055 73.9408 117.338 74.127 116.44 74.127C115.607 74.127 114.921 73.9323 114.384 73.543C113.846 73.1536 113.578 72.6289 113.578 71.9688H115.412C115.412 72.2015 115.516 72.3898 115.723 72.5337C115.931 72.6776 116.201 72.7495 116.536 72.7495C116.861 72.7495 117.115 72.6733 117.297 72.521C117.479 72.3687 117.57 72.1698 117.57 71.9243C117.57 71.6239 117.484 71.4102 117.31 71.2832C117.137 71.152 116.876 71.0864 116.529 71.0864H115.533V69.8931H116.593C117.164 69.8761 117.45 69.6307 117.45 69.1567ZM124.661 67.1318H126.495V74H124.661V69.7598L122.363 74H120.522V67.1318H122.363V71.3657L124.661 67.1318ZM127.898 67.1318H129.732V72.521H132.03V67.1318H133.871V72.5337H134.899L134.772 76.0376H133.065V74H127.898V67.1318ZM139.958 67.1318H141.793V74H139.958V69.7598L137.661 74H135.82V67.1318H137.661V71.3657L139.958 67.1318ZM147.334 67.1318H149.169V74H147.334V69.7598L145.037 74H143.196V67.1318H145.037V71.3657L147.334 67.1318ZM159.763 74H157.922V71.3594H155.644V74H153.809V67.1318H155.644V69.8867H157.922V67.1318H159.763V74ZM165.165 74C165.08 73.835 165.019 73.6297 164.981 73.3843C164.537 73.8794 163.959 74.127 163.248 74.127C162.575 74.127 162.017 73.9323 161.572 73.543C161.132 73.1536 160.912 72.6628 160.912 72.0703C160.912 71.3424 161.181 70.7839 161.718 70.3945C162.26 70.0052 163.041 69.8084 164.061 69.8042H164.905V69.4106C164.905 69.0933 164.822 68.8394 164.657 68.6489C164.496 68.4585 164.24 68.3633 163.889 68.3633C163.58 68.3633 163.337 68.4373 163.159 68.5854C162.986 68.7336 162.899 68.9367 162.899 69.1948H161.064C161.064 68.797 161.187 68.4289 161.433 68.0903C161.678 67.7518 162.025 67.4873 162.474 67.2969C162.922 67.1022 163.426 67.0049 163.984 67.0049C164.831 67.0049 165.501 67.2186 165.997 67.646C166.496 68.0692 166.746 68.6659 166.746 69.436V72.4131C166.75 73.0648 166.841 73.5578 167.019 73.8921V74H165.165ZM163.648 72.7241C163.919 72.7241 164.168 72.6649 164.397 72.5464C164.625 72.4237 164.795 72.2607 164.905 72.0576V70.877H164.219C163.301 70.877 162.812 71.1943 162.753 71.8291L162.747 71.937C162.747 72.1655 162.827 72.3538 162.988 72.502C163.149 72.6501 163.369 72.7241 163.648 72.7241ZM177.092 68.6045H174.89V74H173.049V68.6045H170.884V67.1318H177.092V68.6045ZM177.543 70.5024C177.543 69.8211 177.674 69.2139 177.937 68.6807C178.199 68.1475 178.576 67.7349 179.066 67.4429C179.562 67.1509 180.135 67.0049 180.787 67.0049C181.713 67.0049 182.469 67.2884 183.053 67.8555C183.641 68.4225 183.969 69.1927 184.037 70.166L184.049 70.6357C184.049 71.6895 183.755 72.5358 183.167 73.1748C182.579 73.8096 181.79 74.127 180.799 74.127C179.809 74.127 179.018 73.8096 178.425 73.1748C177.837 72.54 177.543 71.6768 177.543 70.585V70.5024ZM179.377 70.6357C179.377 71.2874 179.5 71.7868 179.746 72.1338C179.991 72.4766 180.342 72.6479 180.799 72.6479C181.244 72.6479 181.591 72.4787 181.84 72.1401C182.09 71.7974 182.215 71.2515 182.215 70.5024C182.215 69.8634 182.09 69.3683 181.84 69.0171C181.591 68.6659 181.239 68.4902 180.787 68.4902C180.338 68.4902 179.991 68.6659 179.746 69.0171C179.5 69.3641 179.377 69.9036 179.377 70.6357ZM185.3 74V67.1318H188.169C189.104 67.1318 189.821 67.2969 190.321 67.627C190.82 67.957 191.07 68.431 191.07 69.0488C191.07 69.3662 190.964 69.6519 190.752 69.9058C190.545 70.1554 190.24 70.348 189.838 70.4834C190.329 70.5765 190.714 70.7606 190.994 71.0356C191.277 71.3065 191.419 71.6408 191.419 72.0386C191.419 72.6776 191.178 73.1642 190.695 73.4985C190.217 73.8328 189.521 74 188.607 74H185.3ZM187.134 71.1499V72.5337H188.613C189.261 72.5337 189.584 72.3073 189.584 71.8545C189.584 71.3932 189.276 71.1584 188.658 71.1499H187.134ZM187.134 69.9185H188.271C188.914 69.91 189.235 69.7026 189.235 69.2964C189.235 69.0467 189.146 68.869 188.969 68.7632C188.795 68.6574 188.529 68.6045 188.169 68.6045H187.134V69.9185ZM196.522 74C196.438 73.835 196.376 73.6297 196.338 73.3843C195.894 73.8794 195.316 74.127 194.605 74.127C193.933 74.127 193.374 73.9323 192.93 73.543C192.49 73.1536 192.27 72.6628 192.27 72.0703C192.27 71.3424 192.538 70.7839 193.076 70.3945C193.617 70.0052 194.398 69.8084 195.418 69.8042H196.262V69.4106C196.262 69.0933 196.18 68.8394 196.015 68.6489C195.854 68.4585 195.598 68.3633 195.247 68.3633C194.938 68.3633 194.694 68.4373 194.517 68.5854C194.343 68.7336 194.256 68.9367 194.256 69.1948H192.422C192.422 68.797 192.545 68.4289 192.79 68.0903C193.035 67.7518 193.382 67.4873 193.831 67.2969C194.28 67.1022 194.783 67.0049 195.342 67.0049C196.188 67.0049 196.859 67.2186 197.354 67.646C197.853 68.0692 198.103 68.6659 198.103 69.436V72.4131C198.107 73.0648 198.198 73.5578 198.376 73.8921V74H196.522ZM195.005 72.7241C195.276 72.7241 195.526 72.6649 195.754 72.5464C195.983 72.4237 196.152 72.2607 196.262 72.0576V70.877H195.577C194.658 70.877 194.17 71.1943 194.11 71.8291L194.104 71.937C194.104 72.1655 194.184 72.3538 194.345 72.502C194.506 72.6501 194.726 72.7241 195.005 72.7241ZM205.695 70.6294C205.695 71.6873 205.454 72.5358 204.971 73.1748C204.493 73.8096 203.846 74.127 203.029 74.127C202.335 74.127 201.774 73.8857 201.347 73.4033V76.6406H199.512V67.1318H201.213L201.277 67.8047C201.721 67.2715 202.301 67.0049 203.016 67.0049C203.862 67.0049 204.521 67.318 204.99 67.9443C205.46 68.5706 205.695 69.4339 205.695 70.5342V70.6294ZM203.86 70.4961C203.86 69.8571 203.746 69.3641 203.518 69.0171C203.293 68.6701 202.965 68.4966 202.534 68.4966C201.958 68.4966 201.562 68.7166 201.347 69.1567V71.9688C201.571 72.4215 201.971 72.6479 202.546 72.6479C203.422 72.6479 203.86 71.9307 203.86 70.4961ZM212.792 74H210.951V71.3594H208.672V74H206.837V67.1318H208.672V69.8867H210.951V67.1318H212.792V74ZM216.175 69.144H217.489C218.081 69.144 218.602 69.2435 219.05 69.4424C219.499 69.6413 219.842 69.9269 220.079 70.2993C220.32 70.6675 220.44 71.097 220.44 71.5879C220.44 72.3115 220.172 72.8955 219.634 73.3398C219.101 73.7799 218.373 74 217.451 74H214.334V67.1318H216.175V69.144ZM223.36 74H221.526V67.1318H223.36V74ZM216.175 70.6167V72.5337H217.476C217.84 72.5337 218.119 72.4491 218.314 72.2798C218.509 72.1105 218.606 71.8799 218.606 71.5879C218.606 71.2917 218.511 71.0568 218.32 70.8833C218.13 70.7056 217.848 70.6167 217.476 70.6167H216.175ZM229.118 67.1318H230.952V74H229.118V69.7598L226.82 74H224.979V67.1318H226.82V71.3657L229.118 67.1318ZM230.197 64.3452C230.197 64.908 229.994 65.363 229.587 65.71C229.185 66.057 228.656 66.2305 228 66.2305C227.345 66.2305 226.813 66.0591 226.407 65.7163C226.005 65.3735 225.804 64.9165 225.804 64.3452H227.105C227.105 64.6118 227.184 64.8192 227.34 64.9673C227.501 65.1112 227.721 65.1831 228 65.1831C228.276 65.1831 228.491 65.1112 228.648 64.9673C228.805 64.8192 228.883 64.6118 228.883 64.3452H230.197ZM239.198 69.1567C239.198 68.9155 239.117 68.7293 238.957 68.5981C238.8 68.4627 238.576 68.395 238.284 68.395C237.983 68.395 237.738 68.4585 237.547 68.5854C237.361 68.7082 237.268 68.8838 237.268 69.1123H235.434C235.434 68.4902 235.692 67.9845 236.208 67.5952C236.724 67.2059 237.384 67.0112 238.188 67.0112C239.073 67.0112 239.767 67.1847 240.271 67.5317C240.778 67.8787 241.032 68.3717 241.032 69.0107C241.032 69.3154 240.939 69.5968 240.753 69.855C240.571 70.1089 240.313 70.312 239.979 70.4644C240.761 70.7394 241.153 71.2705 241.153 72.0576C241.153 72.6882 240.882 73.1917 240.34 73.5684C239.803 73.9408 239.086 74.127 238.188 74.127C237.355 74.127 236.669 73.9323 236.132 73.543C235.594 73.1536 235.326 72.6289 235.326 71.9688H237.16C237.16 72.2015 237.264 72.3898 237.471 72.5337C237.679 72.6776 237.949 72.7495 238.284 72.7495C238.61 72.7495 238.863 72.6733 239.045 72.521C239.227 72.3687 239.318 72.1698 239.318 71.9243C239.318 71.6239 239.232 71.4102 239.058 71.2832C238.885 71.152 238.624 71.0864 238.277 71.0864H237.281V69.8931H238.341C238.912 69.8761 239.198 69.6307 239.198 69.1567ZM248.224 74H246.383V71.3594H244.104V74H242.27V67.1318H244.104V69.8867H246.383V67.1318H248.224V74ZM253.626 74C253.541 73.835 253.48 73.6297 253.442 73.3843C252.998 73.8794 252.42 74.127 251.709 74.127C251.036 74.127 250.478 73.9323 250.033 73.543C249.593 73.1536 249.373 72.6628 249.373 72.0703C249.373 71.3424 249.642 70.7839 250.179 70.3945C250.721 70.0052 251.502 69.8084 252.521 69.8042H253.366V69.4106C253.366 69.0933 253.283 68.8394 253.118 68.6489C252.957 68.4585 252.701 68.3633 252.35 68.3633C252.041 68.3633 251.798 68.4373 251.62 68.5854C251.447 68.7336 251.36 68.9367 251.36 69.1948H249.525C249.525 68.797 249.648 68.4289 249.894 68.0903C250.139 67.7518 250.486 67.4873 250.935 67.2969C251.383 67.1022 251.887 67.0049 252.445 67.0049C253.292 67.0049 253.962 67.2186 254.458 67.646C254.957 68.0692 255.207 68.6659 255.207 69.436V72.4131C255.211 73.0648 255.302 73.5578 255.479 73.8921V74H253.626ZM252.109 72.7241C252.38 72.7241 252.629 72.6649 252.858 72.5464C253.086 72.4237 253.256 72.2607 253.366 72.0576V70.877H252.68C251.762 70.877 251.273 71.1943 251.214 71.8291L251.208 71.937C251.208 72.1655 251.288 72.3538 251.449 72.502C251.61 72.6501 251.83 72.7241 252.109 72.7241ZM259.307 71.4673H258.571V74H256.736V67.1318H258.571V69.7153H259.225L260.723 67.1318H263.04L260.792 70.4009L263.249 74H260.805L259.307 71.4673ZM36.9233 88.6738L38.4468 91.2065H37.2661L35.4888 88.731V88.6104L37.2661 86.1348H38.4468L36.9233 88.6738ZM39.3672 88.6738L40.8906 91.2065H39.71L37.9326 88.731V88.6104L39.71 86.1348H40.8906L39.3672 88.6738ZM47.1177 89.5752C47.1177 89.2155 46.9907 88.9404 46.7368 88.75C46.4829 88.5553 46.0259 88.3522 45.3657 88.1406C44.7056 87.9248 44.1829 87.7132 43.7979 87.5059C42.7484 86.9388 42.2236 86.175 42.2236 85.2144C42.2236 84.715 42.3633 84.2707 42.6426 83.8813C42.9261 83.4878 43.3302 83.181 43.855 82.9609C44.384 82.7409 44.9764 82.6309 45.6323 82.6309C46.2925 82.6309 46.8807 82.7515 47.397 82.9927C47.9132 83.2297 48.3132 83.5661 48.5967 84.002C48.8844 84.4378 49.0283 84.9329 49.0283 85.4873H47.124C47.124 85.0641 46.9907 84.7362 46.7241 84.5034C46.4575 84.2664 46.083 84.1479 45.6006 84.1479C45.1351 84.1479 44.7733 84.2474 44.5151 84.4463C44.257 84.641 44.1279 84.8991 44.1279 85.2207C44.1279 85.5212 44.2782 85.7729 44.5786 85.9761C44.8833 86.1792 45.3298 86.3696 45.918 86.5474C47.0013 86.8732 47.7905 87.2773 48.2856 87.7598C48.7808 88.2422 49.0283 88.8431 49.0283 89.5625C49.0283 90.3623 48.7257 90.9907 48.1206 91.4478C47.5155 91.9006 46.7008 92.127 45.6768 92.127C44.9658 92.127 44.3184 91.9979 43.7344 91.7397C43.1504 91.4774 42.7039 91.1198 42.395 90.667C42.0903 90.2142 41.938 89.6895 41.938 89.0928H43.8486C43.8486 90.1126 44.458 90.6226 45.6768 90.6226C46.1296 90.6226 46.4829 90.5316 46.7368 90.3496C46.9907 90.1634 47.1177 89.9053 47.1177 89.5752ZM51.9229 85.1318L51.98 85.8999C52.4666 85.3032 53.1247 85.0049 53.9541 85.0049C54.8385 85.0049 55.4458 85.354 55.7759 86.0522C56.2583 85.354 56.946 85.0049 57.8389 85.0049C58.5837 85.0049 59.138 85.2228 59.502 85.6587C59.8659 86.0903 60.0479 86.742 60.0479 87.6138V92H58.207V87.6201C58.207 87.2308 58.1309 86.9473 57.9785 86.7695C57.8262 86.5876 57.5575 86.4966 57.1724 86.4966C56.6222 86.4966 56.2414 86.759 56.0298 87.2837L56.0361 92H54.2017V87.6265C54.2017 87.2287 54.1234 86.9409 53.9668 86.7632C53.8102 86.5854 53.5436 86.4966 53.167 86.4966C52.6465 86.4966 52.2699 86.7124 52.0371 87.144V92H50.2026V85.1318H51.9229ZM65.4434 92C65.3587 91.835 65.2974 91.6297 65.2593 91.3843C64.8149 91.8794 64.2373 92.127 63.5264 92.127C62.8535 92.127 62.2949 91.9323 61.8506 91.543C61.4105 91.1536 61.1904 90.6628 61.1904 90.0703C61.1904 89.3424 61.4591 88.7839 61.9966 88.3945C62.5382 88.0052 63.319 87.8084 64.3389 87.8042H65.1831V87.4106C65.1831 87.0933 65.1006 86.8394 64.9355 86.6489C64.7747 86.4585 64.5187 86.3633 64.1675 86.3633C63.8586 86.3633 63.6152 86.4373 63.4375 86.5854C63.264 86.7336 63.1772 86.9367 63.1772 87.1948H61.3428C61.3428 86.797 61.4655 86.4289 61.7109 86.0903C61.9564 85.7518 62.3034 85.4873 62.752 85.2969C63.2005 85.1022 63.7041 85.0049 64.2627 85.0049C65.109 85.0049 65.7798 85.2186 66.2749 85.646C66.7743 86.0692 67.0239 86.6659 67.0239 87.436V90.4131C67.0282 91.0648 67.1191 91.5578 67.2969 91.8921V92H65.4434ZM63.9263 90.7241C64.1971 90.7241 64.4468 90.6649 64.6753 90.5464C64.9038 90.4237 65.0731 90.2607 65.1831 90.0576V88.877H64.4976C63.5793 88.877 63.0905 89.1943 63.0312 89.8291L63.0249 89.937C63.0249 90.1655 63.1053 90.3538 63.2661 90.502C63.4269 90.6501 63.647 90.7241 63.9263 90.7241ZM72.2925 86.8521C72.0428 86.8182 71.8228 86.8013 71.6323 86.8013C70.9383 86.8013 70.4834 87.0361 70.2676 87.5059V92H68.4331V85.1318H70.166L70.2168 85.9507C70.585 85.3201 71.0949 85.0049 71.7466 85.0049C71.9497 85.0049 72.1401 85.0324 72.3179 85.0874L72.2925 86.8521ZM75.6948 83.4434V85.1318H76.8691V86.4775H75.6948V89.9053C75.6948 90.1592 75.7435 90.3411 75.8408 90.4512C75.9382 90.5612 76.1243 90.6162 76.3994 90.6162C76.6025 90.6162 76.7824 90.6014 76.939 90.5718V91.9619C76.5793 92.0719 76.209 92.127 75.8281 92.127C74.5417 92.127 73.8857 91.4774 73.8604 90.1782V86.4775H72.8574V85.1318H73.8604V83.4434H75.6948ZM82.8042 89.5752C82.8042 89.2155 82.6772 88.9404 82.4233 88.75C82.1694 88.5553 81.7124 88.3522 81.0522 88.1406C80.3921 87.9248 79.8695 87.7132 79.4844 87.5059C78.4349 86.9388 77.9102 86.175 77.9102 85.2144C77.9102 84.715 78.0498 84.2707 78.3291 83.8813C78.6126 83.4878 79.0168 83.181 79.5415 82.9609C80.0705 82.7409 80.6629 82.6309 81.3188 82.6309C81.979 82.6309 82.5672 82.7515 83.0835 82.9927C83.5998 83.2297 83.9997 83.5661 84.2832 84.002C84.571 84.4378 84.7148 84.9329 84.7148 85.4873H82.8105C82.8105 85.0641 82.6772 84.7362 82.4106 84.5034C82.144 84.2664 81.7695 84.1479 81.2871 84.1479C80.8216 84.1479 80.4598 84.2474 80.2017 84.4463C79.9435 84.641 79.8145 84.8991 79.8145 85.2207C79.8145 85.5212 79.9647 85.7729 80.2651 85.9761C80.5698 86.1792 81.0163 86.3696 81.6045 86.5474C82.6878 86.8732 83.4771 87.2773 83.9722 87.7598C84.4673 88.2422 84.7148 88.8431 84.7148 89.5625C84.7148 90.3623 84.4123 90.9907 83.8071 91.4478C83.202 91.9006 82.3874 92.127 81.3633 92.127C80.6523 92.127 80.0049 91.9979 79.4209 91.7397C78.8369 91.4774 78.3905 91.1198 78.0815 90.667C77.7769 90.2142 77.6245 89.6895 77.6245 89.0928H79.5352C79.5352 90.1126 80.1445 90.6226 81.3633 90.6226C81.8161 90.6226 82.1694 90.5316 82.4233 90.3496C82.6772 90.1634 82.8042 89.9053 82.8042 89.5752ZM87.6792 85.8809C88.1659 85.2969 88.7773 85.0049 89.5137 85.0049C91.0033 85.0049 91.7586 85.8703 91.7798 87.6011V92H89.9453V87.6519C89.9453 87.2583 89.8607 86.9684 89.6914 86.7822C89.5221 86.5918 89.2407 86.4966 88.8472 86.4966C88.3097 86.4966 87.9204 86.7039 87.6792 87.1187V92H85.8447V82.25H87.6792V85.8809ZM97.2769 91.3018C96.8241 91.8519 96.1978 92.127 95.3979 92.127C94.6616 92.127 94.0988 91.9154 93.7095 91.4922C93.3244 91.069 93.1276 90.4491 93.1191 89.6323V85.1318H94.9536V89.5688C94.9536 90.284 95.2795 90.6416 95.9312 90.6416C96.5532 90.6416 96.9806 90.4258 97.2134 89.9941V85.1318H99.0542V92H97.3276L97.2769 91.3018ZM102.545 90.521H105.903V92H100.203V90.8828L103.434 86.6172H100.298V85.1318H105.802V86.2173L102.545 90.521ZM108.074 86.1411L109.852 88.6167V88.7373L108.074 91.2129H106.887L108.411 88.6802L106.887 86.1411H108.074ZM110.569 86.1411L112.346 88.6167V88.7373L110.569 91.2129H109.382L110.905 88.6802L109.382 86.1411H110.569Z" fill="white"/>
<path opacity="0.3" d="M35.0728 127V117.758H38.0942C39.0972 117.758 39.8504 117.965 40.354 118.38C40.8618 118.795 41.1157 119.408 41.1157 120.221C41.1157 120.652 40.993 121.035 40.7476 121.37C40.5021 121.7 40.1678 121.956 39.7446 122.138C40.244 122.277 40.6375 122.544 40.9253 122.938C41.2173 123.327 41.3633 123.792 41.3633 124.334C41.3633 125.163 41.0946 125.815 40.5571 126.289C40.0197 126.763 39.2601 127 38.2783 127H35.0728ZM36.2915 122.677V126.003H38.3037C38.8708 126.003 39.3172 125.857 39.6431 125.565C39.9731 125.269 40.1382 124.863 40.1382 124.347C40.1382 123.234 39.533 122.677 38.3228 122.677H36.2915ZM36.2915 121.7H38.1323C38.6655 121.7 39.0908 121.566 39.4082 121.3C39.7298 121.033 39.8906 120.671 39.8906 120.214C39.8906 119.707 39.7425 119.338 39.4463 119.11C39.1501 118.877 38.6994 118.761 38.0942 118.761H36.2915V121.7ZM45.8384 127.127C44.9074 127.127 44.1499 126.822 43.5659 126.213C42.9819 125.599 42.6899 124.78 42.6899 123.756V123.541C42.6899 122.859 42.819 122.252 43.0771 121.719C43.3395 121.181 43.7035 120.762 44.1689 120.462C44.6387 120.157 45.1465 120.005 45.6924 120.005C46.5853 120.005 47.2793 120.299 47.7744 120.887C48.2695 121.475 48.5171 122.318 48.5171 123.414V123.902H43.8643C43.8812 124.579 44.078 125.127 44.4546 125.546C44.8354 125.961 45.3179 126.168 45.9019 126.168C46.3166 126.168 46.6678 126.084 46.9556 125.915C47.2433 125.745 47.4951 125.521 47.7109 125.242L48.4282 125.8C47.8527 126.685 46.9894 127.127 45.8384 127.127ZM45.6924 120.97C45.2184 120.97 44.8206 121.143 44.499 121.49C44.1774 121.833 43.9785 122.315 43.9023 122.938H47.3428V122.849C47.3089 122.252 47.1481 121.791 46.8604 121.465C46.5726 121.135 46.1833 120.97 45.6924 120.97ZM49.8247 126.042L50.231 125.54C50.688 124.948 50.9482 124.059 51.0117 122.874L51.1196 120.132H55.5439V126.042H56.4263V129.019H55.252V127H50.4595V129.019H49.2852L49.2915 126.042H49.8247ZM51.2148 126.042H54.3696V121.217H52.2559L52.186 122.855C52.1141 124.222 51.7904 125.284 51.2148 126.042ZM57.4165 123.502C57.4165 122.83 57.5477 122.224 57.8101 121.687C58.0767 121.15 58.4448 120.735 58.9146 120.443C59.3885 120.151 59.9281 120.005 60.5332 120.005C61.4684 120.005 62.2238 120.329 62.7993 120.976C63.3791 121.624 63.6689 122.485 63.6689 123.56V123.642C63.6689 124.311 63.5399 124.912 63.2817 125.445C63.0278 125.974 62.6618 126.386 62.1836 126.683C61.7096 126.979 61.1637 127.127 60.5459 127.127C59.6149 127.127 58.8595 126.803 58.2798 126.156C57.7043 125.508 57.4165 124.651 57.4165 123.585V123.502ZM58.5972 123.642C58.5972 124.404 58.7728 125.015 59.124 125.477C59.4795 125.938 59.9535 126.168 60.5459 126.168C61.1426 126.168 61.6165 125.936 61.9678 125.47C62.319 125 62.4946 124.345 62.4946 123.502C62.4946 122.749 62.3148 122.14 61.9551 121.674C61.5996 121.205 61.1257 120.97 60.5332 120.97C59.9535 120.97 59.4858 121.2 59.1304 121.662C58.7749 122.123 58.5972 122.783 58.5972 123.642ZM69.0962 125.445L71.4321 120.132H72.8984V127H71.7241V122.004L69.5024 127H68.6899L66.4238 121.896V127H65.2495V120.132H66.7729L69.0962 125.445ZM77.5449 126.168C77.9639 126.168 78.3299 126.042 78.6431 125.788C78.9562 125.534 79.1297 125.216 79.1636 124.835H80.2744C80.2533 125.229 80.1178 125.604 79.8682 125.959C79.6185 126.314 79.2842 126.598 78.8652 126.81C78.4505 127.021 78.0104 127.127 77.5449 127.127C76.6097 127.127 75.8649 126.816 75.3105 126.194C74.7604 125.568 74.4854 124.713 74.4854 123.629V123.433C74.4854 122.764 74.6081 122.169 74.8535 121.649C75.099 121.128 75.4502 120.724 75.9072 120.437C76.3685 120.149 76.9123 120.005 77.5386 120.005C78.3088 120.005 78.9478 120.236 79.4556 120.697C79.9676 121.158 80.2406 121.757 80.2744 122.493H79.1636C79.1297 122.049 78.9604 121.685 78.6558 121.401C78.3553 121.114 77.9829 120.97 77.5386 120.97C76.9419 120.97 76.4785 121.186 76.1484 121.617C75.8226 122.045 75.6597 122.665 75.6597 123.477V123.699C75.6597 124.491 75.8226 125.1 76.1484 125.527C76.4743 125.955 76.9398 126.168 77.5449 126.168ZM86.6982 121.084H84.394V127H83.2197V121.084H80.96V120.132H86.6982V121.084ZM87.9487 127V120.132H90.6274C91.5415 120.132 92.2419 120.293 92.7285 120.614C93.2194 120.932 93.4648 121.399 93.4648 122.017C93.4648 122.334 93.3696 122.622 93.1792 122.88C92.9888 123.134 92.7074 123.329 92.335 123.464C92.7497 123.562 93.0819 123.752 93.3315 124.036C93.5854 124.319 93.7124 124.658 93.7124 125.051C93.7124 125.682 93.4797 126.164 93.0142 126.499C92.5529 126.833 91.8991 127 91.0527 127H87.9487ZM89.123 123.985V126.054H91.0654C91.5563 126.054 91.9224 125.963 92.1636 125.781C92.409 125.599 92.5317 125.343 92.5317 125.013C92.5317 124.328 92.0282 123.985 91.021 123.985H89.123ZM89.123 123.045H90.6401C91.7404 123.045 92.2905 122.724 92.2905 122.081C92.2905 121.437 91.77 121.105 90.729 121.084H89.123V123.045ZM94.9565 123.502C94.9565 122.83 95.0877 122.224 95.3501 121.687C95.6167 121.15 95.9849 120.735 96.4546 120.443C96.9285 120.151 97.4681 120.005 98.0732 120.005C99.0085 120.005 99.7638 120.329 100.339 120.976C100.919 121.624 101.209 122.485 101.209 123.56V123.642C101.209 124.311 101.08 124.912 100.822 125.445C100.568 125.974 100.202 126.386 99.7236 126.683C99.2497 126.979 98.7038 127.127 98.0859 127.127C97.1549 127.127 96.3996 126.803 95.8198 126.156C95.2443 125.508 94.9565 124.651 94.9565 123.585V123.502ZM96.1372 123.642C96.1372 124.404 96.3128 125.015 96.6641 125.477C97.0195 125.938 97.4935 126.168 98.0859 126.168C98.6826 126.168 99.1566 125.936 99.5078 125.47C99.859 125 100.035 124.345 100.035 123.502C100.035 122.749 99.8548 122.14 99.4951 121.674C99.1396 121.205 98.6657 120.97 98.0732 120.97C97.4935 120.97 97.0259 121.2 96.6704 121.662C96.3149 122.123 96.1372 122.783 96.1372 123.642Z" fill="#162941"/>
<path d="M135.637 118.685H135.833C136.532 118.689 137.169 118.852 137.744 119.173C138.32 119.495 138.766 119.939 139.083 120.506C139.405 121.069 139.566 121.7 139.566 122.398C139.566 123.1 139.405 123.737 139.083 124.309C138.762 124.88 138.318 125.326 137.75 125.648C137.183 125.965 136.553 126.128 135.859 126.137H135.637V127.381H134.456V126.137H134.278C133.572 126.137 132.928 125.976 132.349 125.654C131.773 125.333 131.325 124.888 131.003 124.321C130.686 123.754 130.527 123.117 130.527 122.411C130.527 121.704 130.686 121.067 131.003 120.5C131.325 119.933 131.773 119.489 132.349 119.167C132.928 118.845 133.572 118.685 134.278 118.685H134.456V117.377H135.637V118.685ZM134.278 119.643C133.483 119.643 132.852 119.889 132.387 120.379C131.925 120.866 131.695 121.543 131.695 122.411C131.695 123.282 131.925 123.962 132.387 124.448C132.848 124.931 133.483 125.172 134.291 125.172H134.456V119.643H134.278ZM135.637 119.643V125.172H135.814C136.623 125.172 137.253 124.924 137.706 124.429C138.163 123.93 138.392 123.253 138.392 122.398C138.392 121.552 138.163 120.881 137.706 120.386C137.253 119.891 136.614 119.643 135.789 119.643H135.637ZM146.834 118.761H142.378V127H141.153V117.758H146.834V118.761ZM153.975 118.761H149.519V121.528H151.817C152.782 121.541 153.535 121.789 154.077 122.271C154.618 122.753 154.889 123.409 154.889 124.239C154.889 125.072 154.616 125.737 154.07 126.232C153.524 126.727 152.78 126.983 151.836 127H148.294V117.758H153.975V118.761ZM149.519 122.531V126.003H151.747C152.352 126.003 152.822 125.843 153.156 125.521C153.495 125.199 153.664 124.768 153.664 124.226C153.664 123.706 153.501 123.295 153.175 122.995C152.854 122.694 152.395 122.54 151.798 122.531H149.519ZM159.599 123.122L161.726 117.758H163.141L159.872 125.458C159.652 125.948 159.447 126.298 159.256 126.505C159.066 126.708 158.842 126.865 158.583 126.975C158.33 127.08 158.01 127.133 157.625 127.133C157.291 127.133 157.077 127.114 156.984 127.076L157.022 126.111L157.6 126.137C158.044 126.137 158.374 125.923 158.59 125.496L158.749 125.166L158.99 124.601L155.841 117.758H157.206L159.599 123.122ZM168.53 123.521L170.168 126.042H169.273L167.4 123.579V123.458L169.273 120.989H170.168L168.53 123.521ZM170.625 123.521L172.263 126.042H171.368L169.495 123.579V123.458L171.368 120.989H172.263L170.625 123.521ZM178.496 118.685H178.693C179.391 118.689 180.028 118.852 180.604 119.173C181.179 119.495 181.625 119.939 181.943 120.506C182.264 121.069 182.425 121.7 182.425 122.398C182.425 123.1 182.264 123.737 181.943 124.309C181.621 124.88 181.177 125.326 180.61 125.648C180.043 125.965 179.412 126.128 178.718 126.137H178.496V127.381H177.315V126.137H177.138C176.431 126.137 175.788 125.976 175.208 125.654C174.632 125.333 174.184 124.888 173.862 124.321C173.545 123.754 173.386 123.117 173.386 122.411C173.386 121.704 173.545 121.067 173.862 120.5C174.184 119.933 174.632 119.489 175.208 119.167C175.788 118.845 176.431 118.685 177.138 118.685H177.315V117.377H178.496V118.685ZM177.138 119.643C176.342 119.643 175.712 119.889 175.246 120.379C174.785 120.866 174.554 121.543 174.554 122.411C174.554 123.282 174.785 123.962 175.246 124.448C175.707 124.931 176.342 125.172 177.15 125.172H177.315V119.643H177.138ZM178.496 119.643V125.172H178.674C179.482 125.172 180.113 124.924 180.565 124.429C181.022 123.93 181.251 123.253 181.251 122.398C181.251 121.552 181.022 120.881 180.565 120.386C180.113 119.891 179.474 119.643 178.648 119.643H178.496ZM186.627 127.127C185.696 127.127 184.939 126.822 184.355 126.213C183.771 125.599 183.479 124.78 183.479 123.756V123.541C183.479 122.859 183.608 122.252 183.866 121.719C184.129 121.181 184.493 120.762 184.958 120.462C185.428 120.157 185.936 120.005 186.481 120.005C187.374 120.005 188.068 120.299 188.563 120.887C189.059 121.475 189.306 122.318 189.306 123.414V123.902H184.653C184.67 124.579 184.867 125.127 185.244 125.546C185.625 125.961 186.107 126.168 186.691 126.168C187.106 126.168 187.457 126.084 187.745 125.915C188.032 125.745 188.284 125.521 188.5 125.242L189.217 125.8C188.642 126.685 187.778 127.127 186.627 127.127ZM186.481 120.97C186.007 120.97 185.61 121.143 185.288 121.49C184.966 121.833 184.768 122.315 184.691 122.938H188.132V122.849C188.098 122.252 187.937 121.791 187.649 121.465C187.362 121.135 186.972 120.97 186.481 120.97ZM190.614 126.042L191.02 125.54C191.477 124.948 191.737 124.059 191.801 122.874L191.909 120.132H196.333V126.042H197.215V129.019H196.041V127H191.249V129.019H190.074L190.081 126.042H190.614ZM192.004 126.042H195.159V121.217H193.045L192.975 122.855C192.903 124.222 192.579 125.284 192.004 126.042ZM201.367 127.127C200.436 127.127 199.678 126.822 199.094 126.213C198.51 125.599 198.218 124.78 198.218 123.756V123.541C198.218 122.859 198.347 122.252 198.605 121.719C198.868 121.181 199.232 120.762 199.697 120.462C200.167 120.157 200.675 120.005 201.221 120.005C202.114 120.005 202.808 120.299 203.303 120.887C203.798 121.475 204.045 122.318 204.045 123.414V123.902H199.393C199.41 124.579 199.606 125.127 199.983 125.546C200.364 125.961 200.846 126.168 201.43 126.168C201.845 126.168 202.196 126.084 202.484 125.915C202.772 125.745 203.023 125.521 203.239 125.242L203.957 125.8C203.381 126.685 202.518 127.127 201.367 127.127ZM201.221 120.97C200.747 120.97 200.349 121.143 200.027 121.49C199.706 121.833 199.507 122.315 199.431 122.938H202.871V122.849C202.837 122.252 202.676 121.791 202.389 121.465C202.101 121.135 201.712 120.97 201.221 120.97ZM211.212 123.642C211.212 124.687 210.973 125.529 210.495 126.168C210.016 126.807 209.369 127.127 208.552 127.127C207.719 127.127 207.063 126.862 206.584 126.333V129.641H205.41V120.132H206.483L206.54 120.894C207.018 120.301 207.683 120.005 208.533 120.005C209.358 120.005 210.01 120.316 210.488 120.938C210.971 121.56 211.212 122.425 211.212 123.534V123.642ZM210.038 123.509C210.038 122.734 209.873 122.123 209.542 121.674C209.212 121.226 208.76 121.001 208.184 121.001C207.473 121.001 206.94 121.317 206.584 121.947V125.229C206.936 125.855 207.473 126.168 208.197 126.168C208.76 126.168 209.206 125.946 209.536 125.502C209.87 125.053 210.038 124.389 210.038 123.509ZM216.95 127C216.882 126.865 216.827 126.623 216.785 126.276C216.239 126.843 215.588 127.127 214.83 127.127C214.153 127.127 213.597 126.937 213.161 126.556C212.729 126.171 212.513 125.684 212.513 125.096C212.513 124.381 212.784 123.826 213.326 123.433C213.872 123.035 214.638 122.836 215.624 122.836H216.766V122.296C216.766 121.886 216.643 121.56 216.398 121.319C216.153 121.073 215.791 120.951 215.312 120.951C214.894 120.951 214.542 121.056 214.259 121.268C213.975 121.48 213.833 121.736 213.833 122.036H212.653C212.653 121.693 212.773 121.363 213.015 121.046C213.26 120.724 213.59 120.47 214.005 120.284C214.424 120.098 214.883 120.005 215.382 120.005C216.174 120.005 216.794 120.204 217.242 120.602C217.691 120.995 217.924 121.539 217.94 122.233V125.394C217.94 126.025 218.021 126.526 218.182 126.898V127H216.95ZM215.001 126.105C215.37 126.105 215.719 126.01 216.049 125.819C216.379 125.629 216.618 125.381 216.766 125.077V123.667H215.846C214.407 123.667 213.688 124.089 213.688 124.931C213.688 125.299 213.81 125.587 214.056 125.794C214.301 126.001 214.616 126.105 215.001 126.105ZM225.412 120.132V127H224.231V121.103H221.895L221.755 123.674C221.679 124.854 221.48 125.699 221.159 126.207C220.841 126.714 220.336 126.979 219.642 127H219.172V125.965L219.508 125.94C219.889 125.898 220.162 125.678 220.327 125.28C220.492 124.882 220.598 124.146 220.645 123.071L220.771 120.132H225.412ZM228.579 122.5H230.363C231.141 122.508 231.757 122.711 232.21 123.109C232.663 123.507 232.889 124.046 232.889 124.728C232.889 125.413 232.656 125.963 232.191 126.378C231.725 126.793 231.099 127 230.312 127H227.405V120.132H228.579V122.5ZM228.579 123.458V126.042H230.325C230.765 126.042 231.105 125.929 231.347 125.705C231.588 125.477 231.708 125.166 231.708 124.772C231.708 124.391 231.59 124.08 231.353 123.839C231.12 123.593 230.792 123.466 230.369 123.458H228.579ZM239.967 127H238.792V124.067H235.638V127H234.457V120.132H235.638V123.109H238.792V120.132H239.967V127ZM243.141 122.5H244.924C245.703 122.508 246.319 122.711 246.771 123.109C247.224 123.507 247.451 124.046 247.451 124.728C247.451 125.413 247.218 125.963 246.752 126.378C246.287 126.793 245.661 127 244.874 127H241.966V120.132H243.141V122.5ZM249.901 127H248.72V120.132H249.901V127ZM243.141 123.458V126.042H244.886C245.326 126.042 245.667 125.929 245.908 125.705C246.149 125.477 246.27 125.166 246.27 124.772C246.27 124.391 246.152 124.08 245.915 123.839C245.682 123.593 245.354 123.466 244.931 123.458H243.141ZM256.395 120.132H257.569V127H256.395V121.992L253.227 127H252.053V120.132H253.227V125.146L256.395 120.132ZM256.712 117.631C256.712 118.143 256.536 118.556 256.185 118.869C255.838 119.178 255.381 119.332 254.814 119.332C254.247 119.332 253.788 119.175 253.437 118.862C253.085 118.549 252.91 118.139 252.91 117.631H253.868C253.868 117.927 253.949 118.16 254.109 118.329C254.27 118.494 254.505 118.577 254.814 118.577C255.11 118.577 255.341 118.494 255.506 118.329C255.675 118.164 255.76 117.931 255.76 117.631H256.712ZM267.122 120.132H268.296V127H267.122V121.992L263.955 127H262.78V120.132H263.955V125.146L267.122 120.132ZM275.793 127H274.619V124.067H271.464V127H270.283V120.132H271.464V123.109H274.619V120.132H275.793V127ZM280.439 126.168C280.858 126.168 281.224 126.042 281.538 125.788C281.851 125.534 282.024 125.216 282.058 124.835H283.169C283.148 125.229 283.012 125.604 282.763 125.959C282.513 126.314 282.179 126.598 281.76 126.81C281.345 127.021 280.905 127.127 280.439 127.127C279.504 127.127 278.759 126.816 278.205 126.194C277.655 125.568 277.38 124.713 277.38 123.629V123.433C277.38 122.764 277.503 122.169 277.748 121.649C277.993 121.128 278.345 120.724 278.802 120.437C279.263 120.149 279.807 120.005 280.433 120.005C281.203 120.005 281.842 120.236 282.35 120.697C282.862 121.158 283.135 121.757 283.169 122.493H282.058C282.024 122.049 281.855 121.685 281.55 121.401C281.25 121.114 280.877 120.97 280.433 120.97C279.836 120.97 279.373 121.186 279.043 121.617C278.717 122.045 278.554 122.665 278.554 123.477V123.699C278.554 124.491 278.717 125.1 279.043 125.527C279.369 125.955 279.834 126.168 280.439 126.168ZM289.593 121.084H287.289V127H286.114V121.084H283.854V120.132H289.593V121.084ZM290.761 126.384C290.761 126.181 290.82 126.012 290.938 125.876C291.061 125.741 291.243 125.673 291.484 125.673C291.726 125.673 291.908 125.741 292.03 125.876C292.157 126.012 292.221 126.181 292.221 126.384C292.221 126.579 292.157 126.742 292.03 126.873C291.908 127.004 291.726 127.07 291.484 127.07C291.243 127.07 291.061 127.004 290.938 126.873C290.82 126.742 290.761 126.579 290.761 126.384ZM294.188 126.384C294.188 126.181 294.248 126.012 294.366 125.876C294.489 125.741 294.671 125.673 294.912 125.673C295.153 125.673 295.335 125.741 295.458 125.876C295.585 126.012 295.648 126.181 295.648 126.384C295.648 126.579 295.585 126.742 295.458 126.873C295.335 127.004 295.153 127.07 294.912 127.07C294.671 127.07 294.489 127.004 294.366 126.873C294.248 126.742 294.188 126.579 294.188 126.384ZM297.616 126.384C297.616 126.181 297.675 126.012 297.794 125.876C297.917 125.741 298.099 125.673 298.34 125.673C298.581 125.673 298.763 125.741 298.886 125.876C299.013 126.012 299.076 126.181 299.076 126.384C299.076 126.579 299.013 126.742 298.886 126.873C298.763 127.004 298.581 127.07 298.34 127.07C298.099 127.07 297.917 127.004 297.794 126.873C297.675 126.742 297.616 126.579 297.616 126.384Z" fill="#162941"/>
<g filter="url(#filter2_d)">
<rect x="20" y="244" width="295" height="50" rx="5" fill="#FF1037"/>
</g>
<path d="M101.594 274H99.2969V264.539H95.9219V274H93.625V262.625H101.594V274ZM111.461 269.336C111.461 270.862 111.099 272.047 110.375 272.891C109.656 273.734 108.656 274.156 107.375 274.156C106.099 274.156 105.096 273.74 104.367 272.906C103.638 272.068 103.268 270.896 103.258 269.391V267.445C103.258 265.883 103.62 264.664 104.344 263.789C105.068 262.909 106.073 262.469 107.359 262.469C108.625 262.469 109.622 262.901 110.352 263.766C111.081 264.625 111.451 265.833 111.461 267.391V269.336ZM109.156 267.43C109.156 266.404 109.01 265.641 108.719 265.141C108.427 264.641 107.974 264.391 107.359 264.391C106.75 264.391 106.299 264.633 106.008 265.117C105.716 265.596 105.565 266.328 105.555 267.312V269.336C105.555 270.331 105.703 271.065 106 271.539C106.297 272.008 106.755 272.242 107.375 272.242C107.974 272.242 108.419 272.013 108.711 271.555C109.003 271.091 109.151 270.375 109.156 269.406V267.43ZM121.953 276.797H119.844V274H114.461V276.789H112.289L112.164 272.094H112.922C113.255 271.786 113.518 271.292 113.711 270.609C113.904 269.927 114.039 269.034 114.117 267.93L114.438 262.625H120.977V272.094H122.156L121.953 276.797ZM115.391 272.094H118.688V264.539H116.625L116.438 267.672C116.307 269.552 115.958 271.026 115.391 272.094ZM128.898 271.672H125.766L125.156 274H122.727L126.281 262.625H128.383L131.961 274H129.508L128.898 271.672ZM126.266 269.758H128.391L127.328 265.703L126.266 269.758ZM139.461 264.539H136.648V274H134.344V264.539H131.578V262.625H139.461V264.539ZM143.203 266.711H144.562C145.714 266.711 146.63 267.039 147.312 267.695C147.995 268.346 148.336 269.219 148.336 270.312C148.336 271.401 148.003 272.284 147.336 272.961C146.669 273.633 145.786 273.979 144.688 274H140.898V262.625H143.203V266.711ZM143.203 268.617V272.094H144.594C145.042 272.094 145.393 271.927 145.648 271.594C145.909 271.255 146.039 270.823 146.039 270.297C146.039 269.802 145.911 269.401 145.656 269.094C145.406 268.781 145.057 268.622 144.609 268.617H143.203ZM161.398 269.336C161.398 270.862 161.036 272.047 160.312 272.891C159.594 273.734 158.594 274.156 157.312 274.156C156.036 274.156 155.034 273.74 154.305 272.906C153.576 272.068 153.206 270.896 153.195 269.391V267.445C153.195 265.883 153.557 264.664 154.281 263.789C155.005 262.909 156.01 262.469 157.297 262.469C158.562 262.469 159.56 262.901 160.289 263.766C161.018 264.625 161.388 265.833 161.398 267.391V269.336ZM159.094 267.43C159.094 266.404 158.948 265.641 158.656 265.141C158.365 264.641 157.911 264.391 157.297 264.391C156.688 264.391 156.237 264.633 155.945 265.117C155.654 265.596 155.503 266.328 155.492 267.312V269.336C155.492 270.331 155.641 271.065 155.938 271.539C156.234 272.008 156.693 272.242 157.312 272.242C157.911 272.242 158.357 272.013 158.648 271.555C158.94 271.091 159.089 270.375 159.094 269.406V267.43ZM171.031 274H168.734V264.539H165.359V274H163.062V262.625H171.031V274ZM180.875 274H178.578V264.539H175.203V274H172.906V262.625H180.875V274ZM190.742 269.336C190.742 270.862 190.38 272.047 189.656 272.891C188.938 273.734 187.938 274.156 186.656 274.156C185.38 274.156 184.378 273.74 183.648 272.906C182.919 272.068 182.549 270.896 182.539 269.391V267.445C182.539 265.883 182.901 264.664 183.625 263.789C184.349 262.909 185.354 262.469 186.641 262.469C187.906 262.469 188.904 262.901 189.633 263.766C190.362 264.625 190.732 265.833 190.742 267.391V269.336ZM188.438 267.43C188.438 266.404 188.292 265.641 188 265.141C187.708 264.641 187.255 264.391 186.641 264.391C186.031 264.391 185.581 264.633 185.289 265.117C184.997 265.596 184.846 266.328 184.836 267.312V269.336C184.836 270.331 184.984 271.065 185.281 271.539C185.578 272.008 186.036 272.242 186.656 272.242C187.255 272.242 187.701 272.013 187.992 271.555C188.284 271.091 188.432 270.375 188.438 269.406V267.43ZM196.945 265.758C196.945 265.341 196.828 265.008 196.594 264.758C196.365 264.508 196.052 264.383 195.656 264.383C195.307 264.383 195.021 264.505 194.797 264.75C194.578 264.99 194.469 265.31 194.469 265.711H192.172C192.172 265.081 192.323 264.521 192.625 264.031C192.932 263.536 193.354 263.154 193.891 262.883C194.427 262.612 195.016 262.477 195.656 262.477C196.786 262.477 197.667 262.76 198.297 263.328C198.932 263.891 199.25 264.685 199.25 265.711C199.25 266.232 199.117 266.708 198.852 267.141C198.591 267.568 198.232 267.906 197.773 268.156C198.294 268.375 198.695 268.708 198.977 269.156C199.258 269.599 199.398 270.151 199.398 270.812C199.398 271.839 199.057 272.651 198.375 273.25C197.693 273.849 196.786 274.148 195.656 274.148C194.969 274.148 194.346 274.016 193.789 273.75C193.237 273.484 192.805 273.104 192.492 272.609C192.185 272.115 192.031 271.526 192.031 270.844H194.336C194.336 271.234 194.458 271.568 194.703 271.844C194.948 272.12 195.266 272.258 195.656 272.258C196.094 272.258 196.443 272.12 196.703 271.844C196.964 271.568 197.094 271.211 197.094 270.773C197.094 270.185 196.982 269.763 196.758 269.508C196.534 269.253 196.208 269.125 195.781 269.125H194.617V267.273H195.789C196.56 267.268 196.945 266.763 196.945 265.758ZM206.633 262.625H208.93V274H206.633V266.469L203.281 274H200.977V262.625H203.281V270.164L206.633 262.625ZM210.68 262.625H212.977V272.094H216.344V262.625H218.648V272.102H220.047L219.891 276.742H217.75V274H210.68V262.625ZM227.023 262.625H229.32V274H227.023V266.469L223.672 274H221.367V262.625H223.672V270.164L227.023 262.625ZM242.617 269.336C242.617 270.862 242.255 272.047 241.531 272.891C240.812 273.734 239.812 274.156 238.531 274.156C237.271 274.156 236.276 273.75 235.547 272.938C234.823 272.125 234.445 270.974 234.414 269.484H233.5V274H231.203V262.625H233.5V267.641H234.414V267.43C234.414 266.404 234.576 265.518 234.898 264.773C235.227 264.023 235.701 263.453 236.32 263.062C236.94 262.667 237.672 262.469 238.516 262.469C239.781 262.469 240.779 262.901 241.508 263.766C242.237 264.625 242.607 265.833 242.617 267.391V269.336ZM240.312 267.43C240.312 266.404 240.167 265.641 239.875 265.141C239.583 264.641 239.13 264.391 238.516 264.391C237.906 264.391 237.456 264.633 237.164 265.117C236.872 265.596 236.721 266.328 236.711 267.312V269.336C236.711 270.331 236.859 271.065 237.156 271.539C237.453 272.008 237.911 272.242 238.531 272.242C239.13 272.242 239.576 272.013 239.867 271.555C240.159 271.091 240.307 270.375 240.312 269.406V267.43Z" fill="white"/>
<path d="M139.182 147.677C139.182 148.583 139.03 149.374 138.725 150.051C138.42 150.724 137.989 151.238 137.43 151.594C136.872 151.949 136.22 152.127 135.475 152.127C134.747 152.127 134.102 151.949 133.539 151.594C132.976 151.234 132.538 150.724 132.225 150.064C131.916 149.4 131.757 148.632 131.749 147.76V147.093C131.749 146.205 131.903 145.42 132.212 144.738C132.521 144.057 132.957 143.536 133.52 143.177C134.087 142.813 134.735 142.631 135.462 142.631C136.203 142.631 136.855 142.811 137.417 143.17C137.985 143.526 138.42 144.044 138.725 144.726C139.03 145.403 139.182 146.192 139.182 147.093V147.677ZM137.97 147.081C137.97 145.985 137.75 145.145 137.31 144.561C136.869 143.972 136.254 143.678 135.462 143.678C134.692 143.678 134.085 143.972 133.641 144.561C133.201 145.145 132.974 145.957 132.961 146.998V147.677C132.961 148.739 133.184 149.575 133.628 150.185C134.076 150.79 134.692 151.092 135.475 151.092C136.262 151.092 136.872 150.807 137.303 150.235C137.735 149.66 137.957 148.837 137.97 147.766V147.081ZM148.12 147.677C148.12 148.583 147.967 149.374 147.663 150.051C147.358 150.724 146.926 151.238 146.368 151.594C145.809 151.949 145.157 152.127 144.413 152.127C143.685 152.127 143.039 151.949 142.477 151.594C141.914 151.234 141.476 150.724 141.163 150.064C140.854 149.4 140.695 148.632 140.687 147.76V147.093C140.687 146.205 140.841 145.42 141.15 144.738C141.459 144.057 141.895 143.536 142.458 143.177C143.025 142.813 143.672 142.631 144.4 142.631C145.14 142.631 145.792 142.811 146.355 143.17C146.922 143.526 147.358 144.044 147.663 144.726C147.967 145.403 148.12 146.192 148.12 147.093V147.677ZM146.907 147.081C146.907 145.985 146.687 145.145 146.247 144.561C145.807 143.972 145.191 143.678 144.4 143.678C143.63 143.678 143.022 143.972 142.578 144.561C142.138 145.145 141.912 145.957 141.899 146.998V147.677C141.899 148.739 142.121 149.575 142.565 150.185C143.014 150.79 143.63 151.092 144.413 151.092C145.2 151.092 145.809 150.807 146.241 150.235C146.672 149.66 146.895 148.837 146.907 147.766V147.081ZM157.057 147.677C157.057 148.583 156.905 149.374 156.6 150.051C156.295 150.724 155.864 151.238 155.305 151.594C154.747 151.949 154.095 152.127 153.35 152.127C152.622 152.127 151.977 151.949 151.414 151.594C150.851 151.234 150.413 150.724 150.1 150.064C149.791 149.4 149.632 148.632 149.624 147.76V147.093C149.624 146.205 149.778 145.42 150.087 144.738C150.396 144.057 150.832 143.536 151.395 143.177C151.962 142.813 152.61 142.631 153.337 142.631C154.078 142.631 154.73 142.811 155.292 143.17C155.86 143.526 156.295 144.044 156.6 144.726C156.905 145.403 157.057 146.192 157.057 147.093V147.677ZM155.845 147.081C155.845 145.985 155.625 145.145 155.185 144.561C154.744 143.972 154.129 143.678 153.337 143.678C152.567 143.678 151.96 143.972 151.516 144.561C151.076 145.145 150.849 145.957 150.836 146.998V147.677C150.836 148.739 151.059 149.575 151.503 150.185C151.951 150.79 152.567 151.092 153.35 151.092C154.137 151.092 154.747 150.807 155.178 150.235C155.61 149.66 155.832 148.837 155.845 147.766V147.081ZM162.814 148.521L164.452 151.042H163.557L161.685 148.579V148.458L163.557 145.989H164.452L162.814 148.521ZM164.909 148.521L166.547 151.042H165.652L163.779 148.579V148.458L165.652 145.989H166.547L164.909 148.521ZM175.015 149.067C174.9 150.045 174.539 150.8 173.929 151.333C173.324 151.862 172.518 152.127 171.511 152.127C170.419 152.127 169.543 151.736 168.883 150.953C168.227 150.17 167.899 149.122 167.899 147.811V146.922C167.899 146.063 168.051 145.307 168.356 144.656C168.665 144.004 169.101 143.505 169.664 143.158C170.226 142.806 170.878 142.631 171.619 142.631C172.6 142.631 173.388 142.906 173.98 143.456C174.572 144.002 174.917 144.759 175.015 145.729H173.79C173.684 144.992 173.453 144.459 173.098 144.129C172.746 143.799 172.253 143.634 171.619 143.634C170.84 143.634 170.229 143.922 169.784 144.497C169.344 145.073 169.124 145.891 169.124 146.954V147.849C169.124 148.852 169.333 149.649 169.752 150.242C170.171 150.834 170.757 151.13 171.511 151.13C172.188 151.13 172.706 150.978 173.066 150.673C173.43 150.364 173.671 149.829 173.79 149.067H175.015ZM180.455 150.445L182.791 145.132H184.257V152H183.083V147.004L180.861 152H180.048L177.782 146.896V152H176.608V145.132H178.131L180.455 150.445ZM190.389 152C190.321 151.865 190.266 151.623 190.224 151.276C189.678 151.843 189.026 152.127 188.269 152.127C187.591 152.127 187.035 151.937 186.599 151.556C186.167 151.171 185.952 150.684 185.952 150.096C185.952 149.381 186.222 148.826 186.764 148.433C187.31 148.035 188.076 147.836 189.062 147.836H190.205V147.296C190.205 146.886 190.082 146.56 189.836 146.319C189.591 146.073 189.229 145.951 188.751 145.951C188.332 145.951 187.981 146.056 187.697 146.268C187.414 146.48 187.272 146.736 187.272 147.036H186.091C186.091 146.693 186.212 146.363 186.453 146.046C186.699 145.724 187.029 145.47 187.443 145.284C187.862 145.098 188.321 145.005 188.821 145.005C189.612 145.005 190.232 145.204 190.681 145.602C191.129 145.995 191.362 146.539 191.379 147.233V150.394C191.379 151.025 191.459 151.526 191.62 151.898V152H190.389ZM188.44 151.105C188.808 151.105 189.157 151.01 189.487 150.819C189.817 150.629 190.056 150.381 190.205 150.077V148.667H189.284C187.845 148.667 187.126 149.089 187.126 149.931C187.126 150.299 187.249 150.587 187.494 150.794C187.74 151.001 188.055 151.105 188.44 151.105ZM199.021 148.642C199.021 149.687 198.782 150.529 198.304 151.168C197.826 151.807 197.179 152.127 196.362 152.127C195.528 152.127 194.872 151.862 194.394 151.333V154.641H193.22V145.132H194.292L194.35 145.894C194.828 145.301 195.492 145.005 196.343 145.005C197.168 145.005 197.82 145.316 198.298 145.938C198.78 146.56 199.021 147.425 199.021 148.534V148.642ZM197.847 148.509C197.847 147.734 197.682 147.123 197.352 146.674C197.022 146.226 196.569 146.001 195.994 146.001C195.283 146.001 194.75 146.317 194.394 146.947V150.229C194.745 150.855 195.283 151.168 196.006 151.168C196.569 151.168 197.016 150.946 197.346 150.502C197.68 150.053 197.847 149.389 197.847 148.509ZM205.115 146.084H202.811V152H201.637V146.084H199.377V145.132H205.115V146.084ZM207.711 142.758V151.003H210.892V142.758H212.104V151.003H215.265V142.758H216.484V152H206.486V142.758H207.711ZM220.743 150.28L222.343 145.132H223.6L220.838 153.06C220.411 154.203 219.732 154.774 218.801 154.774L218.579 154.755L218.141 154.672V153.72L218.458 153.746C218.856 153.746 219.165 153.665 219.385 153.504C219.609 153.344 219.793 153.049 219.937 152.622L220.197 151.924L217.747 145.132H219.029L220.743 150.28ZM228.43 147.011C228.43 146.689 228.307 146.435 228.062 146.249C227.817 146.059 227.48 145.963 227.053 145.963C226.638 145.963 226.291 146.071 226.012 146.287C225.737 146.503 225.599 146.757 225.599 147.049H224.431C224.431 146.452 224.681 145.963 225.18 145.583C225.68 145.202 226.304 145.011 227.053 145.011C227.857 145.011 228.483 145.185 228.932 145.532C229.38 145.875 229.604 146.365 229.604 147.004C229.604 147.313 229.511 147.597 229.325 147.855C229.139 148.113 228.875 148.318 228.532 148.471C229.332 148.742 229.731 149.275 229.731 150.07C229.731 150.701 229.488 151.2 229.001 151.568C228.515 151.937 227.865 152.121 227.053 152.121C226.261 152.121 225.608 151.928 225.091 151.543C224.579 151.154 224.323 150.629 224.323 149.969H225.491C225.491 150.303 225.639 150.591 225.936 150.832C226.236 151.069 226.608 151.188 227.053 151.188C227.501 151.188 227.863 151.084 228.138 150.876C228.413 150.669 228.551 150.4 228.551 150.07C228.551 149.685 228.434 149.41 228.202 149.245C227.973 149.076 227.616 148.991 227.129 148.991H225.955V148.001H227.23C228.03 147.98 228.43 147.65 228.43 147.011ZM235.882 148.382V152H234.664V142.758H238.072C239.084 142.758 239.875 143.016 240.446 143.532C241.022 144.049 241.31 144.732 241.31 145.583C241.31 146.48 241.028 147.172 240.465 147.658C239.907 148.141 239.105 148.382 238.06 148.382H235.882ZM235.882 147.385H238.072C238.724 147.385 239.223 147.233 239.57 146.928C239.917 146.619 240.091 146.175 240.091 145.595C240.091 145.045 239.917 144.605 239.57 144.275C239.223 143.945 238.747 143.773 238.142 143.761H235.882V147.385ZM246.845 152C246.777 151.865 246.722 151.623 246.68 151.276C246.134 151.843 245.482 152.127 244.725 152.127C244.048 152.127 243.491 151.937 243.055 151.556C242.624 151.171 242.408 150.684 242.408 150.096C242.408 149.381 242.679 148.826 243.22 148.433C243.766 148.035 244.532 147.836 245.518 147.836H246.661V147.296C246.661 146.886 246.538 146.56 246.292 146.319C246.047 146.073 245.685 145.951 245.207 145.951C244.788 145.951 244.437 146.056 244.153 146.268C243.87 146.48 243.728 146.736 243.728 147.036H242.547C242.547 146.693 242.668 146.363 242.909 146.046C243.155 145.724 243.485 145.47 243.899 145.284C244.318 145.098 244.778 145.005 245.277 145.005C246.068 145.005 246.688 145.204 247.137 145.602C247.585 145.995 247.818 146.539 247.835 147.233V150.394C247.835 151.025 247.915 151.526 248.076 151.898V152H246.845ZM244.896 151.105C245.264 151.105 245.613 151.01 245.943 150.819C246.273 150.629 246.513 150.381 246.661 150.077V148.667H245.74C244.301 148.667 243.582 149.089 243.582 149.931C243.582 150.299 243.705 150.587 243.95 150.794C244.196 151.001 244.511 151.105 244.896 151.105ZM250.958 145.132V151.042H253.472V145.132H254.646V151.042H257.153V145.132H258.334V152H249.777V145.132H250.958ZM264.428 152C264.36 151.865 264.305 151.623 264.263 151.276C263.717 151.843 263.065 152.127 262.308 152.127C261.631 152.127 261.074 151.937 260.638 151.556C260.207 151.171 259.991 150.684 259.991 150.096C259.991 149.381 260.262 148.826 260.803 148.433C261.349 148.035 262.115 147.836 263.101 147.836H264.244V147.296C264.244 146.886 264.121 146.56 263.875 146.319C263.63 146.073 263.268 145.951 262.79 145.951C262.371 145.951 262.02 146.056 261.736 146.268C261.453 146.48 261.311 146.736 261.311 147.036H260.13C260.13 146.693 260.251 146.363 260.492 146.046C260.738 145.724 261.068 145.47 261.482 145.284C261.901 145.098 262.361 145.005 262.86 145.005C263.651 145.005 264.271 145.204 264.72 145.602C265.168 145.995 265.401 146.539 265.418 147.233V150.394C265.418 151.025 265.498 151.526 265.659 151.898V152H264.428ZM262.479 151.105C262.847 151.105 263.196 151.01 263.526 150.819C263.856 150.629 264.096 150.381 264.244 150.077V148.667H263.323C261.884 148.667 261.165 149.089 261.165 149.931C261.165 150.299 261.288 150.587 261.533 150.794C261.779 151.001 262.094 151.105 262.479 151.105ZM267.919 145.976L269.792 148.445V148.566L267.919 151.035H267.018L268.655 148.509L267.018 145.976H267.919ZM270.134 145.976L272.007 148.445V148.566L270.134 151.035H269.233L270.871 148.509L269.233 145.976H270.134Z" fill="#307ABD"/>
<path opacity="0.3" d="M43.1758 152H41.9507V147.728H37.2915V152H36.0728V142.758H37.2915V146.731H41.9507V142.758H43.1758V152ZM49.3965 152C49.3288 151.865 49.2738 151.623 49.2314 151.276C48.6855 151.843 48.0339 152.127 47.2764 152.127C46.5993 152.127 46.0428 151.937 45.6069 151.556C45.1753 151.171 44.9595 150.684 44.9595 150.096C44.9595 149.381 45.2303 148.826 45.772 148.433C46.3179 148.035 47.0838 147.836 48.0698 147.836H49.2124V147.296C49.2124 146.886 49.0897 146.56 48.8442 146.319C48.5988 146.073 48.237 145.951 47.7588 145.951C47.3398 145.951 46.9886 146.056 46.7051 146.268C46.4215 146.48 46.2798 146.736 46.2798 147.036H45.0991C45.0991 146.693 45.2197 146.363 45.4609 146.046C45.7064 145.724 46.0365 145.47 46.4512 145.284C46.8701 145.098 47.3293 145.005 47.8286 145.005C48.62 145.005 49.2399 145.204 49.6885 145.602C50.137 145.995 50.3698 146.539 50.3867 147.233V150.394C50.3867 151.025 50.4671 151.526 50.6279 151.898V152H49.3965ZM47.4478 151.105C47.8159 151.105 48.165 151.01 48.4951 150.819C48.8252 150.629 49.0643 150.381 49.2124 150.077V148.667H48.292C46.8532 148.667 46.1338 149.089 46.1338 149.931C46.1338 150.299 46.2565 150.587 46.502 150.794C46.7474 151.001 47.0627 151.105 47.4478 151.105ZM58.0293 148.642C58.0293 149.687 57.7902 150.529 57.312 151.168C56.8338 151.807 56.1864 152.127 55.3696 152.127C54.536 152.127 53.88 151.862 53.4019 151.333V154.641H52.2275V145.132H53.3003L53.3574 145.894C53.8356 145.301 54.5 145.005 55.3506 145.005C56.1758 145.005 56.8275 145.316 57.3057 145.938C57.7881 146.56 58.0293 147.425 58.0293 148.534V148.642ZM56.855 148.509C56.855 147.734 56.6899 147.123 56.3599 146.674C56.0298 146.226 55.577 146.001 55.0015 146.001C54.2905 146.001 53.7573 146.317 53.4019 146.947V150.229C53.7531 150.855 54.2905 151.168 55.0142 151.168C55.577 151.168 56.0234 150.946 56.3535 150.502C56.6878 150.053 56.855 149.389 56.855 148.509ZM61.6982 150.28L63.2979 145.132H64.5547L61.7935 153.06C61.366 154.203 60.6868 154.774 59.7559 154.774L59.5337 154.755L59.0957 154.672V153.72L59.4131 153.746C59.8109 153.746 60.1198 153.665 60.3398 153.504C60.5641 153.344 60.7482 153.049 60.8921 152.622L61.1523 151.924L58.7021 145.132H59.9844L61.6982 150.28ZM66.8906 145.132V151.042H69.4043V145.132H70.5786V151.042H73.0859V145.132H74.2666V152H65.71V145.132H66.8906ZM80.5635 145.132H81.7378V152H80.5635V146.992L77.396 152H76.2217V145.132H77.396V150.146L80.5635 145.132ZM88.7266 146.084H86.4224V152H85.248V146.084H82.9883V145.132H88.7266V146.084ZM92.2114 152.127C91.2804 152.127 90.5229 151.822 89.939 151.213C89.355 150.599 89.063 149.78 89.063 148.756V148.541C89.063 147.859 89.1921 147.252 89.4502 146.719C89.7126 146.181 90.0765 145.762 90.542 145.462C91.0117 145.157 91.5195 145.005 92.0654 145.005C92.9583 145.005 93.6523 145.299 94.1475 145.887C94.6426 146.475 94.8901 147.318 94.8901 148.414V148.902H90.2373C90.2542 149.579 90.451 150.127 90.8276 150.546C91.2085 150.961 91.6909 151.168 92.2749 151.168C92.6896 151.168 93.0409 151.084 93.3286 150.915C93.6164 150.745 93.8682 150.521 94.084 150.242L94.8013 150.8C94.2257 151.685 93.3625 152.127 92.2114 152.127ZM92.0654 145.97C91.5915 145.97 91.1937 146.143 90.8721 146.49C90.5505 146.833 90.3516 147.315 90.2754 147.938H93.7158V147.849C93.682 147.252 93.5212 146.791 93.2334 146.465C92.9456 146.135 92.5563 145.97 92.0654 145.97ZM101.885 145.132V152H100.705V146.103H98.3687L98.229 148.674C98.1528 149.854 97.9539 150.699 97.6323 151.207C97.3149 151.714 96.8092 151.979 96.1152 152H95.6455V150.965L95.9819 150.94C96.3628 150.898 96.6357 150.678 96.8008 150.28C96.9658 149.882 97.0716 149.146 97.1182 148.071L97.2451 145.132H101.885ZM105.053 147.5H106.836C107.615 147.508 108.231 147.711 108.684 148.109C109.136 148.507 109.363 149.046 109.363 149.728C109.363 150.413 109.13 150.963 108.665 151.378C108.199 151.793 107.573 152 106.786 152H103.878V145.132H105.053V147.5ZM105.053 148.458V151.042H106.798C107.238 151.042 107.579 150.929 107.82 150.705C108.062 150.477 108.182 150.166 108.182 149.772C108.182 149.391 108.064 149.08 107.827 148.839C107.594 148.593 107.266 148.466 106.843 148.458H105.053Z" fill="#162941"/>
<defs>
<filter id="filter0_d" x="5" y="41" width="325" height="153" filterUnits="userSpaceOnUse" color-interpolation-filters="sRGB">
<feFlood flood-opacity="0" result="BackgroundImageFix"/>
<feColorMatrix in="SourceAlpha" type="matrix" values="0 0 0 0 0 0 0 0 0 0 0 0 0 0 0 0 0 0 127 0"/>
<feOffset dy="5"/>
<feGaussianBlur stdDeviation="7.5"/>
<feColorMatrix type="matrix" values="0 0 0 0 0.0823529 0 0 0 0 0.141176 0 0 0 0 0.219608 0 0 0 0.15 0"/>
<feBlend mode="normal" in2="BackgroundImageFix" result="effect1_dropShadow"/>
<feBlend mode="normal" in="SourceGraphic" in2="effect1_dropShadow" result="shape"/>
</filter>
<filter id="filter1_d" x="5" y="174" width="325" height="80" filterUnits="userSpaceOnUse" color-interpolation-filters="sRGB">
<feFlood flood-opacity="0" result="BackgroundImageFix"/>
<feColorMatrix in="SourceAlpha" type="matrix" values="0 0 0 0 0 0 0 0 0 0 0 0 0 0 0 0 0 0 127 0"/>
<feOffset dy="5"/>
<feGaussianBlur stdDeviation="7.5"/>
<feColorMatrix type="matrix" values="0 0 0 0 0.188235 0 0 0 0 0.478431 0 0 0 0 0.741176 0 0 0 0.2 0"/>
<feBlend mode="normal" in2="BackgroundImageFix" result="effect1_dropShadow"/>
<feBlend mode="normal" in="SourceGraphic" in2="effect1_dropShadow" result="shape"/>
</filter>
<filter id="filter2_d" x="5" y="234" width="325" height="80" filterUnits="userSpaceOnUse" color-interpolation-filters="sRGB">
<feFlood flood-opacity="0" result="BackgroundImageFix"/>
<feColorMatrix in="SourceAlpha" type="matrix" values="0 0 0 0 0 0 0 0 0 0 0 0 0 0 0 0 0 0 127 0"/>
<feOffset dy="5"/>
<feGaussianBlur stdDeviation="7.5"/>
<feColorMatrix type="matrix" values="0 0 0 0 0.188235 0 0 0 0 0.478431 0 0 0 0 0.741176 0 0 0 0.2 0"/>
<feBlend mode="normal" in2="BackgroundImageFix" result="effect1_dropShadow"/>
<feBlend mode="normal" in="SourceGraphic" in2="effect1_dropShadow" result="shape"/>
</filter>
<linearGradient id="paint0_linear" x1="167.5" y1="0" x2="167.5" y2="36" gradientUnits="userSpaceOnUse">
<stop stop-color="#ECECEB"/>
<stop offset="1" stop-color="#D7D7D7"/>
</linearGradient>
<linearGradient id="paint1_linear" x1="20" y1="103" x2="101.317" y2="-57.358" gradientUnits="userSpaceOnUse">
<stop stop-color="#152438"/>
<stop offset="1" stop-color="#18355B"/>
</linearGradient>
</defs>
</svg>
