<svg width="335" height="312" viewBox="0 0 335 312" fill="none" xmlns="http://www.w3.org/2000/svg">
<rect x="0.5" y="0.5" width="334" height="311" rx="9.5" fill="#FAFAFA" stroke="#CCDBDE"/>
<path d="M0.5 10C0.5 4.7533 4.75329 0.5 10 0.5H325C330.247 0.5 334.5 4.7533 334.5 10V35.5H0.5V10Z" fill="url(#paint0_linear)" stroke="#CCDBDE"/>
<rect x="21" y="241" width="295" height="50" rx="5" fill="#FF1037"/>
<path d="M100.164 265.57C100.164 266.69 99.9661 267.672 99.5703 268.516C99.1745 269.359 98.6068 270.01 97.8672 270.469C97.1328 270.927 96.2891 271.156 95.3359 271.156C94.3932 271.156 93.5521 270.93 92.8125 270.477C92.0729 270.023 91.5 269.378 91.0938 268.539C90.6875 267.695 90.4818 266.727 90.4766 265.633V265.07C90.4766 263.951 90.6771 262.966 91.0781 262.117C91.4844 261.263 92.0547 260.609 92.7891 260.156C93.5286 259.698 94.3724 259.469 95.3203 259.469C96.2682 259.469 97.1094 259.698 97.8438 260.156C98.5833 260.609 99.1536 261.263 99.5547 262.117C99.9609 262.966 100.164 263.948 100.164 265.062V265.57ZM97.7891 265.055C97.7891 263.862 97.5755 262.956 97.1484 262.336C96.7214 261.716 96.112 261.406 95.3203 261.406C94.5339 261.406 93.9271 261.714 93.5 262.328C93.0729 262.938 92.8568 263.833 92.8516 265.016V265.57C92.8516 266.732 93.0651 267.633 93.4922 268.273C93.9193 268.914 94.5339 269.234 95.3359 269.234C96.1224 269.234 96.7266 268.927 97.1484 268.312C97.5703 267.693 97.7839 266.792 97.7891 265.609V265.055ZM109.758 261.523H106.273V271H103.93V261.523H100.492V259.625H109.758V261.523ZM120.367 271H118.016V261.523H113.461V271H111.117V259.625H120.367V271ZM124.773 266.992V271H122.43V259.625H126.867C127.721 259.625 128.471 259.781 129.117 260.094C129.768 260.406 130.268 260.852 130.617 261.43C130.966 262.003 131.141 262.656 131.141 263.391C131.141 264.505 130.758 265.385 129.992 266.031C129.232 266.672 128.177 266.992 126.828 266.992H124.773ZM124.773 265.094H126.867C127.487 265.094 127.958 264.948 128.281 264.656C128.609 264.365 128.773 263.948 128.773 263.406C128.773 262.849 128.609 262.398 128.281 262.055C127.953 261.711 127.5 261.534 126.922 261.523H124.773V265.094ZM137.789 268.656H133.68L132.898 271H130.406L134.641 259.625H136.812L141.07 271H138.578L137.789 268.656ZM134.312 266.758H137.156L135.727 262.5L134.312 266.758ZM142.133 271V259.625H146.117C147.497 259.625 148.544 259.891 149.258 260.422C149.971 260.948 150.328 261.721 150.328 262.742C150.328 263.299 150.185 263.792 149.898 264.219C149.612 264.641 149.214 264.951 148.703 265.148C149.286 265.294 149.745 265.589 150.078 266.031C150.417 266.474 150.586 267.016 150.586 267.656C150.586 268.75 150.237 269.578 149.539 270.141C148.841 270.703 147.846 270.99 146.555 271H142.133ZM144.477 266.047V269.117H146.484C147.036 269.117 147.466 268.987 147.773 268.727C148.086 268.461 148.242 268.096 148.242 267.633C148.242 266.591 147.703 266.062 146.625 266.047H144.477ZM144.477 264.391H146.211C147.393 264.37 147.984 263.898 147.984 262.977C147.984 262.461 147.833 262.091 147.531 261.867C147.234 261.638 146.763 261.523 146.117 261.523H144.477V264.391ZM159.172 259.625H161.523V271H159.172V263.445L154.617 271H152.273V259.625H154.617V267.195L159.172 259.625ZM171.883 261.523H168.398V271H166.055V261.523H162.617V259.625H171.883V261.523ZM175.695 263.727H177.523C178.862 263.727 179.922 264.052 180.703 264.703C181.49 265.349 181.883 266.221 181.883 267.32C181.883 268.424 181.492 269.312 180.711 269.984C179.935 270.651 178.901 270.99 177.609 271H173.336V259.625H175.695V263.727ZM175.695 265.617V269.117H177.562C178.161 269.117 178.638 268.953 178.992 268.625C179.352 268.297 179.531 267.857 179.531 267.305C179.531 266.789 179.359 266.383 179.016 266.086C178.677 265.784 178.211 265.628 177.617 265.617H175.695ZM192.961 262.758C192.961 262.326 192.792 261.987 192.453 261.742C192.115 261.492 191.667 261.367 191.109 261.367C190.609 261.367 190.193 261.492 189.859 261.742C189.531 261.987 189.367 262.307 189.367 262.703H187.023C187.023 262.089 187.195 261.536 187.539 261.047C187.888 260.552 188.38 260.167 189.016 259.891C189.656 259.615 190.354 259.477 191.109 259.477C192.422 259.477 193.451 259.758 194.195 260.32C194.94 260.883 195.312 261.68 195.312 262.711C195.312 263.216 195.159 263.685 194.852 264.117C194.549 264.549 194.117 264.896 193.555 265.156C194.18 265.375 194.659 265.708 194.992 266.156C195.326 266.599 195.492 267.151 195.492 267.812C195.492 268.833 195.091 269.646 194.289 270.25C193.492 270.849 192.432 271.148 191.109 271.148C190.281 271.148 189.536 271.008 188.875 270.727C188.214 270.44 187.711 270.052 187.367 269.562C187.029 269.068 186.859 268.495 186.859 267.844H189.219C189.219 268.25 189.396 268.591 189.75 268.867C190.104 269.138 190.557 269.273 191.109 269.273C191.734 269.273 192.227 269.133 192.586 268.852C192.951 268.57 193.133 268.214 193.133 267.781C193.133 267.188 192.971 266.763 192.648 266.508C192.326 266.247 191.854 266.117 191.234 266.117H189.836V264.281H191.281C192.401 264.266 192.961 263.758 192.961 262.758ZM203.648 268.656H199.539L198.758 271H196.266L200.5 259.625H202.672L206.93 271H204.438L203.648 268.656ZM200.172 266.758H203.016L201.586 262.5L200.172 266.758ZM213.25 271V266.898H211.344L209.289 271H206.758L209.188 266.148C208.016 265.503 207.43 264.5 207.43 263.141C207.43 262.026 207.794 261.164 208.523 260.555C209.253 259.945 210.271 259.635 211.578 259.625H215.602V271H213.25ZM209.773 263.312C209.773 263.948 209.927 264.409 210.234 264.695C210.547 264.982 211.013 265.125 211.633 265.125H213.25V261.523H211.633C210.393 261.523 209.773 262.12 209.773 263.312ZM217.539 271V259.625H221.523C222.904 259.625 223.951 259.891 224.664 260.422C225.378 260.948 225.734 261.721 225.734 262.742C225.734 263.299 225.591 263.792 225.305 264.219C225.018 264.641 224.62 264.951 224.109 265.148C224.693 265.294 225.151 265.589 225.484 266.031C225.823 266.474 225.992 267.016 225.992 267.656C225.992 268.75 225.643 269.578 224.945 270.141C224.247 270.703 223.253 270.99 221.961 271H217.539ZM219.883 266.047V269.117H221.891C222.443 269.117 222.872 268.987 223.18 268.727C223.492 268.461 223.648 268.096 223.648 267.633C223.648 266.591 223.109 266.062 222.031 266.047H219.883ZM219.883 264.391H221.617C222.799 264.37 223.391 263.898 223.391 262.977C223.391 262.461 223.24 262.091 222.938 261.867C222.641 261.638 222.169 261.523 221.523 261.523H219.883V264.391ZM231.469 266.352H230.117V271H227.773V259.625H230.117V264.18H231.188L233.969 259.625H236.828L233.32 265.008L237.195 271H234.398L231.469 266.352ZM242.367 265L244.438 259.625H246.969L242.992 269.008L242.672 269.625C242.083 270.651 241.182 271.164 239.969 271.164L239.148 271.133L239.125 269.25C239.25 269.271 239.453 269.281 239.734 269.281C240.062 269.281 240.326 269.224 240.523 269.109C240.727 268.995 240.896 268.784 241.031 268.477L241.32 267.734L237.328 259.625H239.852L242.367 265Z" fill="white"/>
<g filter="url(#filter0_d)">
<rect x="20" y="56" width="295" height="40" fill="white"/>
</g>
<g filter="url(#filter1_d)">
<rect x="21" y="106" width="295" height="40" fill="white"/>
</g>
<path d="M30.5088 76.6533L31.0508 71.3359H36.5146V72.5884H32.2007L31.8784 75.4961C32.4009 75.1885 32.9941 75.0347 33.6582 75.0347C34.6299 75.0347 35.4014 75.3569 35.9727 76.0015C36.5439 76.6411 36.8296 77.5078 36.8296 78.6016C36.8296 79.7002 36.5317 80.5669 35.936 81.2017C35.3452 81.8315 34.5176 82.1465 33.4531 82.1465C32.5107 82.1465 31.7417 81.8853 31.146 81.3628C30.5503 80.8403 30.2109 80.1177 30.1279 79.1948H31.4097C31.4927 79.8052 31.71 80.2666 32.0615 80.5791C32.4131 80.8867 32.877 81.0405 33.4531 81.0405C34.083 81.0405 34.5762 80.8257 34.9326 80.396C35.2939 79.9663 35.4746 79.373 35.4746 78.6162C35.4746 77.9033 35.2793 77.332 34.8887 76.9023C34.5029 76.4678 33.9878 76.2505 33.3433 76.2505C32.7524 76.2505 32.2886 76.3799 31.9517 76.6387L31.5928 76.9316L30.5088 76.6533ZM44.9961 77.4517C44.9961 79.0386 44.7251 80.2178 44.1831 80.9893C43.6411 81.7607 42.7939 82.1465 41.6416 82.1465C40.5039 82.1465 39.6616 81.7705 39.1147 81.0186C38.5679 80.2617 38.2847 79.1338 38.2651 77.6348V75.8257C38.2651 74.2583 38.5361 73.0938 39.0781 72.332C39.6201 71.5703 40.4697 71.1895 41.627 71.1895C42.7744 71.1895 43.6191 71.5581 44.1611 72.2954C44.7031 73.0278 44.9814 74.1606 44.9961 75.6938V77.4517ZM43.6411 75.5986C43.6411 74.4512 43.48 73.6162 43.1577 73.0938C42.8354 72.5664 42.3252 72.3027 41.627 72.3027C40.9336 72.3027 40.4282 72.564 40.1108 73.0864C39.7935 73.6089 39.6299 74.4121 39.6201 75.4961V77.6641C39.6201 78.8164 39.7861 79.6685 40.1182 80.2202C40.4551 80.7671 40.9629 81.0405 41.6416 81.0405C42.3105 81.0405 42.8062 80.7817 43.1284 80.2642C43.4556 79.7466 43.6265 78.9312 43.6411 77.8179V75.5986ZM51.1851 82H49.8228V72.9692L47.0908 73.9727V72.7422L50.9727 71.2847H51.1851V82ZM62.1421 82H55.1548V81.0259L58.8462 76.9243C59.3931 76.3042 59.769 75.8013 59.9741 75.4155C60.1841 75.0249 60.2891 74.6221 60.2891 74.207C60.2891 73.6504 60.1206 73.1938 59.7837 72.8374C59.4468 72.481 58.9976 72.3027 58.436 72.3027C57.7622 72.3027 57.2373 72.4956 56.8613 72.8813C56.4902 73.2622 56.3047 73.7944 56.3047 74.478H54.9497C54.9497 73.4966 55.2646 72.7031 55.8945 72.0977C56.5293 71.4922 57.3765 71.1895 58.436 71.1895C59.4272 71.1895 60.2109 71.4507 60.7871 71.9731C61.3633 72.4907 61.6514 73.1816 61.6514 74.0459C61.6514 75.0957 60.9824 76.3457 59.6445 77.7959L56.7881 80.894H62.1421V82ZM70.2646 77.4517C70.2646 79.0386 69.9937 80.2178 69.4517 80.9893C68.9097 81.7607 68.0625 82.1465 66.9102 82.1465C65.7725 82.1465 64.9302 81.7705 64.3833 81.0186C63.8364 80.2617 63.5532 79.1338 63.5337 77.6348V75.8257C63.5337 74.2583 63.8047 73.0938 64.3467 72.332C64.8887 71.5703 65.7383 71.1895 66.8955 71.1895C68.043 71.1895 68.8877 71.5581 69.4297 72.2954C69.9717 73.0278 70.25 74.1606 70.2646 75.6938V77.4517ZM68.9097 75.5986C68.9097 74.4512 68.7485 73.6162 68.4263 73.0938C68.104 72.5664 67.5938 72.3027 66.8955 72.3027C66.2021 72.3027 65.6968 72.564 65.3794 73.0864C65.062 73.6089 64.8984 74.4121 64.8887 75.4961V77.6641C64.8887 78.8164 65.0547 79.6685 65.3867 80.2202C65.7236 80.7671 66.2314 81.0405 66.9102 81.0405C67.5791 81.0405 68.0747 80.7817 68.397 80.2642C68.7241 79.7466 68.895 78.9312 68.9097 77.8179V75.5986ZM77.7207 78.4185H79.2002V79.5244H77.7207V82H76.3584V79.5244H71.5024V78.7261L76.2778 71.3359H77.7207V78.4185ZM73.0405 78.4185H76.3584V73.189L76.1973 73.4819L73.0405 78.4185ZM85.6162 77.3125C85.333 77.6494 84.9937 77.9204 84.5981 78.1255C84.2075 78.3306 83.7778 78.4331 83.3091 78.4331C82.6938 78.4331 82.1567 78.2817 81.6978 77.979C81.2437 77.6763 80.8921 77.2515 80.6431 76.7046C80.394 76.1528 80.2695 75.5449 80.2695 74.8809C80.2695 74.168 80.4038 73.5259 80.6724 72.9546C80.9458 72.3833 81.3315 71.9463 81.8296 71.6436C82.3276 71.3408 82.9087 71.1895 83.5728 71.1895C84.6274 71.1895 85.4575 71.585 86.063 72.376C86.6733 73.1621 86.9785 74.2363 86.9785 75.5986V75.9941C86.9785 78.0693 86.5684 79.5854 85.748 80.5425C84.9277 81.4946 83.6899 81.9829 82.0347 82.0073H81.771V80.8647H82.0566C83.1748 80.8452 84.0342 80.5547 84.6348 79.9932C85.2354 79.4268 85.5625 78.5332 85.6162 77.3125ZM83.5288 77.3125C83.9829 77.3125 84.4004 77.1733 84.7812 76.895C85.167 76.6167 85.4478 76.2725 85.6235 75.8623V75.3203C85.6235 74.4316 85.4307 73.709 85.0449 73.1523C84.6592 72.5957 84.1709 72.3174 83.5801 72.3174C82.9844 72.3174 82.5059 72.5469 82.1445 73.0059C81.7832 73.46 81.6025 74.0605 81.6025 74.8076C81.6025 75.5352 81.7759 76.1357 82.1226 76.6094C82.4741 77.0781 82.9429 77.3125 83.5288 77.3125ZM90.8164 76.0088H91.8345C92.4741 75.999 92.9771 75.8306 93.3433 75.5034C93.7095 75.1763 93.8926 74.7344 93.8926 74.1777C93.8926 72.9277 93.27 72.3027 92.0249 72.3027C91.439 72.3027 90.9702 72.4712 90.6187 72.8081C90.272 73.1401 90.0986 73.582 90.0986 74.1338H88.7437C88.7437 73.2891 89.0513 72.5884 89.6665 72.0317C90.2866 71.4702 91.0728 71.1895 92.0249 71.1895C93.0308 71.1895 93.8193 71.4556 94.3906 71.9878C94.9619 72.52 95.2476 73.2598 95.2476 74.207C95.2476 74.6709 95.0962 75.1201 94.7935 75.5547C94.4956 75.9893 94.0879 76.314 93.5703 76.5288C94.1562 76.7144 94.6079 77.022 94.9253 77.4517C95.2476 77.8813 95.4087 78.4062 95.4087 79.0264C95.4087 79.9834 95.0962 80.7427 94.4712 81.3042C93.8462 81.8657 93.0332 82.1465 92.0322 82.1465C91.0312 82.1465 90.2158 81.8755 89.5859 81.3335C88.9609 80.7915 88.6484 80.0762 88.6484 79.1875H90.0107C90.0107 79.749 90.1938 80.1982 90.5601 80.5352C90.9263 80.8721 91.417 81.0405 92.0322 81.0405C92.6865 81.0405 93.187 80.8696 93.5337 80.5278C93.8804 80.186 94.0537 79.6953 94.0537 79.0557C94.0537 78.4355 93.8633 77.9595 93.4824 77.6274C93.1016 77.2954 92.5522 77.1245 91.8345 77.1147H90.8164V76.0088ZM97.8916 76.6533L98.4336 71.3359H103.897V72.5884H99.5835L99.2612 75.4961C99.7837 75.1885 100.377 75.0347 101.041 75.0347C102.013 75.0347 102.784 75.3569 103.355 76.0015C103.927 76.6411 104.212 77.5078 104.212 78.6016C104.212 79.7002 103.915 80.5669 103.319 81.2017C102.728 81.8315 101.9 82.1465 100.836 82.1465C99.8936 82.1465 99.1245 81.8853 98.5288 81.3628C97.9331 80.8403 97.5938 80.1177 97.5107 79.1948H98.7925C98.8755 79.8052 99.0928 80.2666 99.4443 80.5791C99.7959 80.8867 100.26 81.0405 100.836 81.0405C101.466 81.0405 101.959 80.8257 102.315 80.396C102.677 79.9663 102.857 79.373 102.857 78.6162C102.857 77.9033 102.662 77.332 102.271 76.9023C101.886 76.4678 101.371 76.2505 100.726 76.2505C100.135 76.2505 99.6714 76.3799 99.3345 76.6387L98.9756 76.9316L97.8916 76.6533Z" fill="#162941"/>
<path d="M39.4336 132H38.02V127.071H32.644V132H31.2378V121.336H32.644V125.921H38.02V121.336H39.4336V132ZM46.6113 132C46.5332 131.844 46.4697 131.565 46.4209 131.165C45.791 131.819 45.0391 132.146 44.165 132.146C43.3838 132.146 42.7417 131.927 42.2388 131.487C41.7407 131.043 41.4917 130.481 41.4917 129.803C41.4917 128.978 41.8042 128.338 42.4292 127.884C43.0591 127.425 43.9429 127.195 45.0806 127.195H46.3989V126.573C46.3989 126.099 46.2573 125.723 45.9741 125.445C45.6909 125.162 45.2734 125.02 44.7217 125.02C44.2383 125.02 43.833 125.142 43.5059 125.386C43.1787 125.63 43.0151 125.926 43.0151 126.272H41.6528C41.6528 125.877 41.792 125.496 42.0703 125.13C42.3535 124.759 42.7344 124.466 43.2129 124.251C43.6963 124.036 44.2261 123.929 44.8022 123.929C45.7153 123.929 46.4307 124.158 46.9482 124.617C47.4658 125.071 47.7344 125.699 47.7539 126.5V130.147C47.7539 130.875 47.8467 131.453 48.0322 131.883V132H46.6113ZM44.3628 130.967C44.7876 130.967 45.1904 130.857 45.5713 130.638C45.9521 130.418 46.228 130.132 46.3989 129.781V128.155H45.3369C43.6768 128.155 42.8467 128.641 42.8467 129.612C42.8467 130.037 42.9883 130.369 43.2715 130.608C43.5547 130.848 43.9185 130.967 44.3628 130.967ZM54.2358 126.243C54.2358 125.872 54.0942 125.579 53.811 125.364C53.5278 125.145 53.1396 125.035 52.6465 125.035C52.168 125.035 51.7676 125.159 51.4453 125.408C51.1279 125.657 50.9692 125.95 50.9692 126.287H49.6216C49.6216 125.599 49.9097 125.035 50.4858 124.595C51.062 124.156 51.7822 123.936 52.6465 123.936C53.5742 123.936 54.2969 124.136 54.8145 124.537C55.332 124.932 55.5908 125.499 55.5908 126.236C55.5908 126.592 55.4834 126.919 55.2686 127.217C55.0537 127.515 54.7485 127.752 54.353 127.928C55.2759 128.24 55.7373 128.855 55.7373 129.773C55.7373 130.501 55.4565 131.077 54.895 131.502C54.3335 131.927 53.584 132.139 52.6465 132.139C51.7334 132.139 50.979 131.917 50.3833 131.473C49.7925 131.023 49.4971 130.418 49.4971 129.656H50.8447C50.8447 130.042 51.0156 130.374 51.3574 130.652C51.7041 130.926 52.1338 131.062 52.6465 131.062C53.1641 131.062 53.5815 130.943 53.8989 130.704C54.2163 130.464 54.375 130.154 54.375 129.773C54.375 129.329 54.2407 129.012 53.9722 128.821C53.7085 128.626 53.2959 128.528 52.7344 128.528H51.3794V127.386H52.8516C53.7744 127.361 54.2358 126.98 54.2358 126.243ZM57.6196 132V124.075H60.7104C61.7651 124.075 62.5732 124.261 63.1348 124.632C63.7012 124.998 63.9844 125.538 63.9844 126.25C63.9844 126.617 63.8745 126.949 63.6548 127.247C63.4351 127.54 63.1104 127.764 62.6807 127.92C63.1592 128.033 63.5425 128.252 63.8306 128.58C64.1235 128.907 64.27 129.297 64.27 129.751C64.27 130.479 64.0015 131.036 63.4644 131.421C62.9321 131.807 62.1777 132 61.2012 132H57.6196ZM58.9746 128.521V130.909H61.2158C61.7822 130.909 62.2046 130.804 62.4829 130.594C62.7661 130.384 62.9077 130.088 62.9077 129.708C62.9077 128.917 62.3267 128.521 61.1646 128.521H58.9746ZM58.9746 127.437H60.7251C61.9946 127.437 62.6294 127.066 62.6294 126.324C62.6294 125.582 62.0288 125.198 60.8276 125.174H58.9746V127.437ZM70.957 132C70.8789 131.844 70.8154 131.565 70.7666 131.165C70.1367 131.819 69.3848 132.146 68.5107 132.146C67.7295 132.146 67.0874 131.927 66.5845 131.487C66.0864 131.043 65.8374 130.481 65.8374 129.803C65.8374 128.978 66.1499 128.338 66.7749 127.884C67.4048 127.425 68.2886 127.195 69.4263 127.195H70.7446V126.573C70.7446 126.099 70.603 125.723 70.3198 125.445C70.0366 125.162 69.6191 125.02 69.0674 125.02C68.584 125.02 68.1787 125.142 67.8516 125.386C67.5244 125.63 67.3608 125.926 67.3608 126.272H65.9985C65.9985 125.877 66.1377 125.496 66.416 125.13C66.6992 124.759 67.0801 124.466 67.5586 124.251C68.042 124.036 68.5718 123.929 69.1479 123.929C70.061 123.929 70.7764 124.158 71.2939 124.617C71.8115 125.071 72.0801 125.699 72.0996 126.5V130.147C72.0996 130.875 72.1924 131.453 72.3779 131.883V132H70.957ZM68.7085 130.967C69.1333 130.967 69.5361 130.857 69.917 130.638C70.2979 130.418 70.5737 130.132 70.7446 129.781V128.155H69.6826C68.0225 128.155 67.1924 128.641 67.1924 129.612C67.1924 130.037 67.334 130.369 67.6172 130.608C67.9004 130.848 68.2642 130.967 68.7085 130.967ZM80.6982 132H79.3433V128.616H75.7031V132H74.3408V124.075H75.7031V127.51H79.3433V124.075H80.6982V132ZM88.0078 124.075H89.3628V132H88.0078V126.221L84.353 132H82.998V124.075H84.353V129.861L88.0078 124.075ZM94.8267 132.146C93.7524 132.146 92.8784 131.795 92.2046 131.092C91.5308 130.384 91.1938 129.439 91.1938 128.257V128.008C91.1938 127.222 91.3428 126.521 91.6406 125.906C91.9434 125.286 92.3633 124.803 92.9004 124.456C93.4424 124.104 94.0283 123.929 94.6582 123.929C95.6885 123.929 96.4893 124.268 97.0605 124.947C97.6318 125.625 97.9175 126.597 97.9175 127.862V128.426H92.5488C92.5684 129.207 92.7954 129.839 93.23 130.323C93.6694 130.801 94.2261 131.041 94.8999 131.041C95.3784 131.041 95.7837 130.943 96.1157 130.748C96.4478 130.552 96.7383 130.293 96.9873 129.971L97.8149 130.616C97.1509 131.636 96.1548 132.146 94.8267 132.146ZM94.6582 125.042C94.1113 125.042 93.6523 125.242 93.2812 125.643C92.9102 126.038 92.6807 126.595 92.5928 127.312H96.5625V127.21C96.5234 126.521 96.3379 125.989 96.0059 125.613C95.6738 125.232 95.2246 125.042 94.6582 125.042ZM105.681 128.624H104.692V132H103.33V124.075H104.692V127.43H105.579L108.245 124.075H109.885L106.75 127.884L110.149 132H108.428L105.681 128.624ZM110.793 127.964C110.793 127.188 110.945 126.49 111.248 125.87C111.555 125.25 111.98 124.771 112.522 124.434C113.069 124.097 113.691 123.929 114.39 123.929C115.469 123.929 116.34 124.302 117.004 125.049C117.673 125.796 118.008 126.79 118.008 128.03V128.125C118.008 128.897 117.859 129.59 117.561 130.206C117.268 130.816 116.846 131.292 116.294 131.634C115.747 131.976 115.117 132.146 114.404 132.146C113.33 132.146 112.458 131.773 111.79 131.026C111.125 130.279 110.793 129.29 110.793 128.06V127.964ZM112.156 128.125C112.156 129.004 112.358 129.71 112.764 130.242C113.174 130.774 113.721 131.041 114.404 131.041C115.093 131.041 115.64 130.772 116.045 130.235C116.45 129.693 116.653 128.936 116.653 127.964C116.653 127.095 116.445 126.392 116.03 125.855C115.62 125.313 115.073 125.042 114.39 125.042C113.721 125.042 113.181 125.308 112.771 125.84C112.361 126.373 112.156 127.134 112.156 128.125ZM124.27 130.206L126.965 124.075H128.657V132H127.302V126.236L124.739 132H123.801L121.187 126.111V132H119.832V124.075H121.589L124.27 130.206ZM137.322 132H135.967V125.196H132.319V132H130.957V124.075H137.322V132ZM144.39 132C144.312 131.844 144.248 131.565 144.199 131.165C143.569 131.819 142.817 132.146 141.943 132.146C141.162 132.146 140.52 131.927 140.017 131.487C139.519 131.043 139.27 130.481 139.27 129.803C139.27 128.978 139.583 128.338 140.208 127.884C140.837 127.425 141.721 127.195 142.859 127.195H144.177V126.573C144.177 126.099 144.036 125.723 143.752 125.445C143.469 125.162 143.052 125.02 142.5 125.02C142.017 125.02 141.611 125.142 141.284 125.386C140.957 125.63 140.793 125.926 140.793 126.272H139.431C139.431 125.877 139.57 125.496 139.849 125.13C140.132 124.759 140.513 124.466 140.991 124.251C141.475 124.036 142.004 123.929 142.581 123.929C143.494 123.929 144.209 124.158 144.727 124.617C145.244 125.071 145.513 125.699 145.532 126.5V130.147C145.532 130.875 145.625 131.453 145.811 131.883V132H144.39ZM142.141 130.967C142.566 130.967 142.969 130.857 143.35 130.638C143.73 130.418 144.006 130.132 144.177 129.781V128.155H143.115C141.455 128.155 140.625 128.641 140.625 129.612C140.625 130.037 140.767 130.369 141.05 130.608C141.333 130.848 141.697 130.967 142.141 130.967ZM154.131 132H152.776V128.616H149.136V132H147.773V124.075H149.136V127.51H152.776V124.075H154.131V132ZM161.44 124.075H162.795V132H161.44V126.221L157.786 132H156.431V124.075H157.786V129.861L161.44 124.075ZM170.098 124.075H171.453V132H170.098V126.221L166.443 132H165.088V124.075H166.443V129.861L170.098 124.075ZM182.476 124.075H183.831V132H182.476V126.221L178.821 132H177.466V124.075H178.821V129.861L182.476 124.075ZM192.502 124.075V132H191.14V125.196H188.445L188.284 128.162C188.196 129.524 187.966 130.499 187.595 131.084C187.229 131.67 186.646 131.976 185.845 132H185.303V130.806L185.691 130.777C186.13 130.728 186.445 130.474 186.636 130.015C186.826 129.556 186.948 128.707 187.002 127.466L187.148 124.075H192.502ZM199.805 124.075H201.16V132H199.805V126.221L196.15 132H194.795V124.075H196.15V129.861L199.805 124.075ZM212.534 122.405H212.761C213.567 122.41 214.302 122.598 214.966 122.969C215.63 123.34 216.145 123.853 216.511 124.507C216.882 125.157 217.068 125.884 217.068 126.69C217.068 127.5 216.882 128.235 216.511 128.895C216.14 129.554 215.627 130.069 214.973 130.44C214.319 130.806 213.591 130.994 212.791 131.004H212.534V132.439H211.172V131.004H210.967C210.151 131.004 209.409 130.818 208.74 130.447C208.076 130.076 207.559 129.563 207.188 128.909C206.821 128.255 206.638 127.52 206.638 126.705C206.638 125.889 206.821 125.154 207.188 124.5C207.559 123.846 208.076 123.333 208.74 122.962C209.409 122.591 210.151 122.405 210.967 122.405H211.172V120.896H212.534V122.405ZM210.967 123.511C210.049 123.511 209.321 123.794 208.784 124.361C208.252 124.922 207.986 125.704 207.986 126.705C207.986 127.71 208.252 128.494 208.784 129.056C209.316 129.612 210.049 129.891 210.981 129.891H211.172V123.511H210.967ZM212.534 123.511V129.891H212.739C213.672 129.891 214.399 129.605 214.922 129.034C215.449 128.458 215.713 127.676 215.713 126.69C215.713 125.713 215.449 124.939 214.922 124.368C214.399 123.797 213.662 123.511 212.71 123.511H212.534ZM225.564 121.336H226.97V132H225.564V123.782L220.312 132H218.899V121.336H220.312V129.554L225.564 121.336ZM237.737 127.012C237.737 128.057 237.561 128.97 237.209 129.751C236.858 130.528 236.36 131.121 235.715 131.531C235.071 131.941 234.319 132.146 233.459 132.146C232.62 132.146 231.875 131.941 231.226 131.531C230.576 131.116 230.071 130.528 229.709 129.766C229.353 129 229.17 128.113 229.16 127.107V126.338C229.16 125.313 229.338 124.407 229.695 123.621C230.051 122.835 230.554 122.234 231.204 121.819C231.858 121.399 232.605 121.189 233.445 121.189C234.299 121.189 235.051 121.397 235.701 121.812C236.355 122.222 236.858 122.82 237.209 123.606C237.561 124.388 237.737 125.298 237.737 126.338V127.012ZM236.338 126.324C236.338 125.059 236.084 124.09 235.576 123.416C235.068 122.737 234.358 122.398 233.445 122.398C232.556 122.398 231.855 122.737 231.343 123.416C230.835 124.09 230.574 125.027 230.559 126.229V127.012C230.559 128.238 230.815 129.202 231.328 129.905C231.846 130.604 232.556 130.953 233.459 130.953C234.368 130.953 235.071 130.623 235.569 129.964C236.067 129.3 236.323 128.35 236.338 127.115V126.324ZM250.291 121.336H251.697V132H250.291V123.782L245.039 132H243.625V121.336H245.039V129.554L250.291 121.336ZM262.405 132H260.991V122.493H255.732V132H254.326V121.336H262.405V132Z" fill="#8B94A0"/>
<g filter="url(#filter2_d)">
<rect x="21" y="156" width="295" height="40" fill="white"/>
</g>
<path d="M42.8467 177.012C42.8467 178.057 42.6709 178.97 42.3193 179.751C41.9678 180.528 41.4697 181.121 40.8252 181.531C40.1807 181.941 39.4287 182.146 38.5693 182.146C37.7588 182.146 37.0312 181.951 36.3867 181.561C35.7471 181.17 35.2441 180.611 34.8779 179.883C34.5166 179.156 34.3164 178.306 34.2773 177.334H32.7466V182H31.3403V171.336H32.7466V176.229H34.27C34.2847 175.223 34.4678 174.341 34.8193 173.584C35.1709 172.823 35.6714 172.234 36.3208 171.819C36.9702 171.399 37.7148 171.189 38.5547 171.189C39.4092 171.189 40.1611 171.397 40.8105 171.812C41.4648 172.222 41.9678 172.82 42.3193 173.606C42.6709 174.388 42.8467 175.298 42.8467 176.338V177.012ZM41.4478 176.324C41.4478 175.059 41.1938 174.09 40.686 173.416C40.1782 172.737 39.4678 172.398 38.5547 172.398C37.666 172.398 36.9653 172.737 36.4526 173.416C35.9448 174.09 35.6836 175.027 35.6689 176.229V177.012C35.6689 178.238 35.9253 179.202 36.438 179.905C36.9556 180.604 37.666 180.953 38.5693 180.953C39.4775 180.953 40.1807 180.623 40.6787 179.964C41.1768 179.3 41.4331 178.35 41.4478 177.115V176.324ZM51.1377 178.125C51.1377 179.332 50.8618 180.303 50.3101 181.041C49.7583 181.778 49.0112 182.146 48.0688 182.146C47.1069 182.146 46.3501 181.841 45.7983 181.231V185.047H44.4434V174.075H45.6812L45.7471 174.954C46.2988 174.271 47.0654 173.929 48.0469 173.929C48.999 173.929 49.751 174.288 50.3027 175.005C50.8594 175.723 51.1377 176.722 51.1377 178.001V178.125ZM49.7827 177.972C49.7827 177.078 49.5923 176.373 49.2114 175.855C48.8306 175.337 48.3081 175.079 47.644 175.079C46.8237 175.079 46.2085 175.442 45.7983 176.17V179.957C46.2036 180.679 46.8237 181.041 47.6587 181.041C48.3081 181.041 48.8232 180.784 49.2041 180.271C49.5898 179.754 49.7827 178.987 49.7827 177.972ZM57.9932 174.075H59.3481V182H57.9932V176.221L54.3384 182H52.9834V174.075H54.3384V179.861L57.9932 174.075ZM61.4575 180.894L61.9263 180.315C62.4536 179.632 62.7539 178.606 62.8271 177.239L62.9517 174.075H68.0566V180.894H69.0747V184.329H67.7197V182H62.1899V184.329H60.835L60.8423 180.894H61.4575ZM63.0615 180.894H66.7017V175.328H64.2627L64.1821 177.217C64.0991 178.794 63.7256 180.02 63.0615 180.894ZM75.7031 174.075H77.0581V182H75.7031V176.221L72.0483 182H70.6934V174.075H72.0483V179.861L75.7031 174.075ZM85.2173 182H83.855V179.129C83.2593 179.285 82.6489 179.363 82.0239 179.363C81.0327 179.363 80.2759 179.109 79.7534 178.602C79.2358 178.094 78.9722 177.371 78.9624 176.434V174.068H80.3174V176.478C80.3418 177.659 80.9106 178.25 82.0239 178.25C82.6489 178.25 83.2593 178.172 83.855 178.016V174.075H85.2173V182ZM90.6812 182.146C89.6069 182.146 88.7329 181.795 88.0591 181.092C87.3853 180.384 87.0483 179.439 87.0483 178.257V178.008C87.0483 177.222 87.1973 176.521 87.4951 175.906C87.7979 175.286 88.2178 174.803 88.7549 174.456C89.2969 174.104 89.8828 173.929 90.5127 173.929C91.543 173.929 92.3438 174.268 92.915 174.947C93.4863 175.625 93.772 176.597 93.772 177.862V178.426H88.4033C88.4229 179.207 88.6499 179.839 89.0845 180.323C89.5239 180.801 90.0806 181.041 90.7544 181.041C91.2329 181.041 91.6382 180.943 91.9702 180.748C92.3022 180.552 92.5928 180.293 92.8418 179.971L93.6694 180.616C93.0054 181.636 92.0093 182.146 90.6812 182.146ZM90.5127 175.042C89.9658 175.042 89.5068 175.242 89.1357 175.643C88.7646 176.038 88.5352 176.595 88.4473 177.312H92.417V177.21C92.3779 176.521 92.1924 175.989 91.8604 175.613C91.5283 175.232 91.0791 175.042 90.5127 175.042ZM98.5254 181.041C99.0088 181.041 99.4312 180.894 99.7925 180.601C100.154 180.308 100.354 179.942 100.393 179.502H101.675C101.65 179.957 101.494 180.389 101.206 180.799C100.918 181.209 100.532 181.536 100.049 181.78C99.5703 182.024 99.0625 182.146 98.5254 182.146C97.4463 182.146 96.5869 181.788 95.9473 181.07C95.3125 180.347 94.9951 179.361 94.9951 178.111V177.884C94.9951 177.112 95.1367 176.426 95.4199 175.826C95.7031 175.225 96.1084 174.759 96.6357 174.427C97.168 174.095 97.7954 173.929 98.5181 173.929C99.4067 173.929 100.144 174.195 100.73 174.727C101.321 175.259 101.636 175.95 101.675 176.8H100.393C100.354 176.287 100.159 175.867 99.8071 175.54C99.4604 175.208 99.0308 175.042 98.5181 175.042C97.8296 175.042 97.2949 175.291 96.9141 175.789C96.5381 176.282 96.3501 176.998 96.3501 177.935V178.191C96.3501 179.104 96.5381 179.808 96.9141 180.301C97.29 180.794 97.8271 181.041 98.5254 181.041ZM105.667 178.624H104.678V182H103.315V174.075H104.678V177.43H105.564L108.23 174.075H109.871L106.736 177.884L110.134 182H108.413L105.667 178.624ZM116.426 174.075H117.781V182H116.426V176.221L112.771 182H111.416V174.075H112.771V179.861L116.426 174.075ZM125.083 174.075H126.438V182H125.083V176.221L121.428 182H120.073V174.075H121.428V179.861L125.083 174.075ZM125.449 171.189C125.449 171.78 125.247 172.256 124.841 172.618C124.441 172.974 123.914 173.152 123.259 173.152C122.605 173.152 122.075 172.972 121.67 172.61C121.265 172.249 121.062 171.775 121.062 171.189H122.168C122.168 171.531 122.261 171.8 122.446 171.995C122.632 172.186 122.903 172.281 123.259 172.281C123.601 172.281 123.867 172.186 124.058 171.995C124.253 171.805 124.351 171.536 124.351 171.189H125.449ZM137.227 182C137.148 181.844 137.085 181.565 137.036 181.165C136.406 181.819 135.654 182.146 134.78 182.146C133.999 182.146 133.357 181.927 132.854 181.487C132.356 181.043 132.107 180.481 132.107 179.803C132.107 178.978 132.419 178.338 133.044 177.884C133.674 177.425 134.558 177.195 135.696 177.195H137.014V176.573C137.014 176.099 136.873 175.723 136.589 175.445C136.306 175.162 135.889 175.02 135.337 175.02C134.854 175.02 134.448 175.142 134.121 175.386C133.794 175.63 133.63 175.926 133.63 176.272H132.268C132.268 175.877 132.407 175.496 132.686 175.13C132.969 174.759 133.35 174.466 133.828 174.251C134.312 174.036 134.841 173.929 135.417 173.929C136.331 173.929 137.046 174.158 137.563 174.617C138.081 175.071 138.35 175.699 138.369 176.5V180.147C138.369 180.875 138.462 181.453 138.647 181.883V182H137.227ZM134.978 180.967C135.403 180.967 135.806 180.857 136.187 180.638C136.567 180.418 136.843 180.132 137.014 179.781V178.155H135.952C134.292 178.155 133.462 178.641 133.462 179.612C133.462 180.037 133.604 180.369 133.887 180.608C134.17 180.848 134.534 180.967 134.978 180.967ZM140.427 180.894L140.896 180.315C141.423 179.632 141.724 178.606 141.797 177.239L141.921 174.075H147.026V180.894H148.044V184.329H146.689V182H141.16V184.329H139.805L139.812 180.894H140.427ZM142.031 180.894H145.671V175.328H143.232L143.152 177.217C143.069 178.794 142.695 180.02 142.031 180.894ZM156.24 178.125C156.24 179.332 155.964 180.303 155.413 181.041C154.861 181.778 154.114 182.146 153.171 182.146C152.209 182.146 151.453 181.841 150.901 181.231V185.047H149.546V174.075H150.784L150.85 174.954C151.401 174.271 152.168 173.929 153.149 173.929C154.102 173.929 154.854 174.288 155.405 175.005C155.962 175.723 156.24 176.722 156.24 178.001V178.125ZM154.885 177.972C154.885 177.078 154.695 176.373 154.314 175.855C153.933 175.337 153.411 175.079 152.747 175.079C151.926 175.079 151.311 175.442 150.901 176.17V179.957C151.306 180.679 151.926 181.041 152.761 181.041C153.411 181.041 153.926 180.784 154.307 180.271C154.692 179.754 154.885 178.987 154.885 177.972ZM161.257 182.146C160.183 182.146 159.309 181.795 158.635 181.092C157.961 180.384 157.625 179.439 157.625 178.257V178.008C157.625 177.222 157.773 176.521 158.071 175.906C158.374 175.286 158.794 174.803 159.331 174.456C159.873 174.104 160.459 173.929 161.089 173.929C162.119 173.929 162.92 174.268 163.491 174.947C164.062 175.625 164.348 176.597 164.348 177.862V178.426H158.979C158.999 179.207 159.226 179.839 159.661 180.323C160.1 180.801 160.657 181.041 161.331 181.041C161.809 181.041 162.214 180.943 162.546 180.748C162.878 180.552 163.169 180.293 163.418 179.971L164.246 180.616C163.582 181.636 162.585 182.146 161.257 182.146ZM161.089 175.042C160.542 175.042 160.083 175.242 159.712 175.643C159.341 176.038 159.111 176.595 159.023 177.312H162.993V177.21C162.954 176.521 162.769 175.989 162.437 175.613C162.104 175.232 161.655 175.042 161.089 175.042ZM169.102 181.041C169.585 181.041 170.007 180.894 170.369 180.601C170.73 180.308 170.93 179.942 170.969 179.502H172.251C172.227 179.957 172.07 180.389 171.782 180.799C171.494 181.209 171.108 181.536 170.625 181.78C170.146 182.024 169.639 182.146 169.102 182.146C168.022 182.146 167.163 181.788 166.523 181.07C165.889 180.347 165.571 179.361 165.571 178.111V177.884C165.571 177.112 165.713 176.426 165.996 175.826C166.279 175.225 166.685 174.759 167.212 174.427C167.744 174.095 168.372 173.929 169.094 173.929C169.983 173.929 170.72 174.195 171.306 174.727C171.897 175.259 172.212 175.95 172.251 176.8H170.969C170.93 176.287 170.735 175.867 170.383 175.54C170.037 175.208 169.607 175.042 169.094 175.042C168.406 175.042 167.871 175.291 167.49 175.789C167.114 176.282 166.926 176.998 166.926 177.935V178.191C166.926 179.104 167.114 179.808 167.49 180.301C167.866 180.794 168.403 181.041 169.102 181.041ZM182.622 174.075H183.977V182H182.622V176.221L178.967 182H177.612V174.075H178.967V179.861L182.622 174.075ZM192.649 174.075V182H191.287V175.196H188.591L188.43 178.162C188.342 179.524 188.113 180.499 187.742 181.084C187.375 181.67 186.792 181.976 185.991 182H185.449V180.806L185.837 180.777C186.277 180.728 186.592 180.474 186.782 180.015C186.973 179.556 187.095 178.707 187.148 177.466L187.295 174.075H192.649ZM199.951 174.075H201.306V182H199.951V176.221L196.296 182H194.941V174.075H196.296V179.861L199.951 174.075ZM212.095 182C212.017 181.844 211.953 181.565 211.904 181.165C211.274 181.819 210.522 182.146 209.648 182.146C208.867 182.146 208.225 181.927 207.722 181.487C207.224 181.043 206.975 180.481 206.975 179.803C206.975 178.978 207.288 178.338 207.913 177.884C208.542 177.425 209.426 177.195 210.564 177.195H211.882V176.573C211.882 176.099 211.741 175.723 211.458 175.445C211.174 175.162 210.757 175.02 210.205 175.02C209.722 175.02 209.316 175.142 208.989 175.386C208.662 175.63 208.499 175.926 208.499 176.272H207.136C207.136 175.877 207.275 175.496 207.554 175.13C207.837 174.759 208.218 174.466 208.696 174.251C209.18 174.036 209.709 173.929 210.286 173.929C211.199 173.929 211.914 174.158 212.432 174.617C212.949 175.071 213.218 175.699 213.237 176.5V180.147C213.237 180.875 213.33 181.453 213.516 181.883V182H212.095ZM209.846 180.967C210.271 180.967 210.674 180.857 211.055 180.638C211.436 180.418 211.711 180.132 211.882 179.781V178.155H210.82C209.16 178.155 208.33 178.641 208.33 179.612C208.33 180.037 208.472 180.369 208.755 180.608C209.038 180.848 209.402 180.967 209.846 180.967ZM215.295 180.894L215.764 180.315C216.292 179.632 216.592 178.606 216.665 177.239L216.79 174.075H221.895V180.894H222.913V184.329H221.558V182H216.028V184.329H214.673L214.68 180.894H215.295ZM216.899 180.894H220.54V175.328H218.101L218.02 177.217C217.937 178.794 217.563 180.02 216.899 180.894ZM231.108 178.125C231.108 179.332 230.833 180.303 230.281 181.041C229.729 181.778 228.982 182.146 228.04 182.146C227.078 182.146 226.321 181.841 225.769 181.231V185.047H224.414V174.075H225.652L225.718 174.954C226.27 174.271 227.036 173.929 228.018 173.929C228.97 173.929 229.722 174.288 230.273 175.005C230.83 175.723 231.108 176.722 231.108 178.001V178.125ZM229.753 177.972C229.753 177.078 229.563 176.373 229.182 175.855C228.801 175.337 228.279 175.079 227.615 175.079C226.794 175.079 226.179 175.442 225.769 176.17V179.957C226.174 180.679 226.794 181.041 227.629 181.041C228.279 181.041 228.794 180.784 229.175 180.271C229.561 179.754 229.753 178.987 229.753 177.972ZM236.125 182.146C235.051 182.146 234.177 181.795 233.503 181.092C232.83 180.384 232.493 179.439 232.493 178.257V178.008C232.493 177.222 232.642 176.521 232.939 175.906C233.242 175.286 233.662 174.803 234.199 174.456C234.741 174.104 235.327 173.929 235.957 173.929C236.987 173.929 237.788 174.268 238.359 174.947C238.931 175.625 239.216 176.597 239.216 177.862V178.426H233.848C233.867 179.207 234.094 179.839 234.529 180.323C234.968 180.801 235.525 181.041 236.199 181.041C236.677 181.041 237.083 180.943 237.415 180.748C237.747 180.552 238.037 180.293 238.286 179.971L239.114 180.616C238.45 181.636 237.454 182.146 236.125 182.146ZM235.957 175.042C235.41 175.042 234.951 175.242 234.58 175.643C234.209 176.038 233.979 176.595 233.892 177.312H237.861V177.21C237.822 176.521 237.637 175.989 237.305 175.613C236.973 175.232 236.523 175.042 235.957 175.042ZM243.97 181.041C244.453 181.041 244.875 180.894 245.237 180.601C245.598 180.308 245.798 179.942 245.837 179.502H247.119C247.095 179.957 246.938 180.389 246.65 180.799C246.362 181.209 245.977 181.536 245.493 181.78C245.015 182.024 244.507 182.146 243.97 182.146C242.891 182.146 242.031 181.788 241.392 181.07C240.757 180.347 240.439 179.361 240.439 178.111V177.884C240.439 177.112 240.581 176.426 240.864 175.826C241.147 175.225 241.553 174.759 242.08 174.427C242.612 174.095 243.24 173.929 243.962 173.929C244.851 173.929 245.588 174.195 246.174 174.727C246.765 175.259 247.08 175.95 247.119 176.8H245.837C245.798 176.287 245.603 175.867 245.251 175.54C244.905 175.208 244.475 175.042 243.962 175.042C243.274 175.042 242.739 175.291 242.358 175.789C241.982 176.282 241.794 176.998 241.794 177.935V178.191C241.794 179.104 241.982 179.808 242.358 180.301C242.734 180.794 243.271 181.041 243.97 181.041ZM259.299 171.336H260.706V182H259.299V173.782L254.048 182H252.634V171.336H254.048V179.554L259.299 171.336ZM271.414 182H270V172.493H264.741V182H263.335V171.336H271.414V182Z" fill="#8B94A0"/>
<rect x="106" y="66" width="2" height="18" fill="#162941"/>
<path d="M55.2466 217.122L57.373 211.758H58.7886L55.5195 219.458C55.2995 219.948 55.0942 220.298 54.9038 220.505C54.7134 220.708 54.4891 220.865 54.231 220.975C53.9771 221.08 53.6576 221.133 53.2725 221.133C52.9382 221.133 52.7244 221.114 52.6313 221.076L52.6694 220.111L53.2471 220.137C53.6914 220.137 54.0215 219.923 54.2373 219.496L54.396 219.166L54.6372 218.601L51.4888 211.758H52.8535L55.2466 217.122ZM61.5562 218.074H60.6992V221H59.5186V214.132H60.6992V217.039H61.4673L63.7778 214.132H65.1997L62.4829 217.433L65.4282 221H63.9365L61.5562 218.074ZM70.6777 221C70.61 220.865 70.555 220.623 70.5127 220.276C69.9668 220.843 69.3151 221.127 68.5576 221.127C67.8805 221.127 67.3241 220.937 66.8882 220.556C66.4565 220.171 66.2407 219.684 66.2407 219.096C66.2407 218.381 66.5116 217.826 67.0532 217.433C67.5991 217.035 68.3651 216.836 69.3511 216.836H70.4937V216.296C70.4937 215.886 70.3709 215.56 70.1255 215.319C69.88 215.073 69.5182 214.951 69.04 214.951C68.6211 214.951 68.2699 215.056 67.9863 215.268C67.7028 215.48 67.561 215.736 67.561 216.036H66.3804C66.3804 215.693 66.501 215.363 66.7422 215.046C66.9876 214.724 67.3177 214.47 67.7324 214.284C68.1514 214.098 68.6105 214.005 69.1099 214.005C69.9012 214.005 70.5212 214.204 70.9697 214.602C71.4183 214.995 71.651 215.539 71.668 216.233V219.394C71.668 220.025 71.7484 220.526 71.9092 220.898V221H70.6777ZM68.729 220.105C69.0972 220.105 69.4463 220.01 69.7764 219.819C70.1064 219.629 70.3455 219.381 70.4937 219.077V217.667H69.5732C68.1344 217.667 67.415 218.089 67.415 218.931C67.415 219.299 67.5378 219.587 67.7832 219.794C68.0286 220.001 68.3439 220.105 68.729 220.105ZM77.2856 216.011C77.2856 215.689 77.1629 215.435 76.9175 215.249C76.672 215.059 76.3356 214.963 75.9082 214.963C75.4935 214.963 75.1465 215.071 74.8672 215.287C74.5921 215.503 74.4546 215.757 74.4546 216.049H73.2866C73.2866 215.452 73.5363 214.963 74.0356 214.583C74.535 214.202 75.1592 214.011 75.9082 214.011C76.7122 214.011 77.3385 214.185 77.7871 214.532C78.2357 214.875 78.46 215.365 78.46 216.004C78.46 216.313 78.3669 216.597 78.1807 216.855C77.9945 217.113 77.73 217.318 77.3872 217.471C78.187 217.742 78.5869 218.275 78.5869 219.07C78.5869 219.701 78.3436 220.2 77.8569 220.568C77.3703 220.937 76.7207 221.121 75.9082 221.121C75.1169 221.121 74.4631 220.928 73.9468 220.543C73.4347 220.154 73.1787 219.629 73.1787 218.969H74.3467C74.3467 219.303 74.4948 219.591 74.791 219.832C75.0915 220.069 75.4639 220.188 75.9082 220.188C76.3568 220.188 76.7186 220.084 76.9937 219.876C77.2687 219.669 77.4062 219.4 77.4062 219.07C77.4062 218.685 77.2899 218.41 77.0571 218.245C76.8286 218.076 76.471 217.991 75.9844 217.991H74.8101V217.001H76.0859C76.8857 216.98 77.2856 216.65 77.2856 216.011ZM84.3506 221C84.2829 220.865 84.2279 220.623 84.1855 220.276C83.6396 220.843 82.988 221.127 82.2305 221.127C81.5534 221.127 80.9969 220.937 80.561 220.556C80.1294 220.171 79.9136 219.684 79.9136 219.096C79.9136 218.381 80.1844 217.826 80.7261 217.433C81.272 217.035 82.0379 216.836 83.0239 216.836H84.1665V216.296C84.1665 215.886 84.0438 215.56 83.7983 215.319C83.5529 215.073 83.1911 214.951 82.7129 214.951C82.2939 214.951 81.9427 215.056 81.6592 215.268C81.3757 215.48 81.2339 215.736 81.2339 216.036H80.0532C80.0532 215.693 80.1738 215.363 80.415 215.046C80.6605 214.724 80.9906 214.47 81.4053 214.284C81.8242 214.098 82.2834 214.005 82.7827 214.005C83.5741 214.005 84.194 214.204 84.6426 214.602C85.0911 214.995 85.3239 215.539 85.3408 216.233V219.394C85.3408 220.025 85.4212 220.526 85.582 220.898V221H84.3506ZM82.4019 220.105C82.77 220.105 83.1191 220.01 83.4492 219.819C83.7793 219.629 84.0184 219.381 84.1665 219.077V217.667H83.2461C81.8073 217.667 81.0879 218.089 81.0879 218.931C81.0879 219.299 81.2106 219.587 81.4561 219.794C81.7015 220.001 82.0168 220.105 82.4019 220.105ZM92.1836 215.084H89.8794V221H88.7051V215.084H86.4453V214.132H92.1836V215.084ZM94.6084 216.5H96.3921C97.1707 216.508 97.7865 216.711 98.2393 217.109C98.6921 217.507 98.9185 218.046 98.9185 218.728C98.9185 219.413 98.6857 219.963 98.2202 220.378C97.7547 220.793 97.1284 221 96.3413 221H93.4341V214.132H94.6084V216.5ZM94.6084 217.458V220.042H96.354C96.7941 220.042 97.1348 219.929 97.376 219.705C97.6172 219.477 97.7378 219.166 97.7378 218.772C97.7378 218.391 97.6193 218.08 97.3823 217.839C97.1496 217.593 96.8216 217.466 96.3984 217.458H94.6084ZM103.552 220.042L103.958 219.54C104.416 218.948 104.676 218.059 104.739 216.874L104.847 214.132H109.271V220.042H110.154V223.019H108.979V221H104.187V223.019H103.013L103.019 220.042H103.552ZM104.942 220.042H108.097V215.217H105.983L105.914 216.855C105.842 218.222 105.518 219.284 104.942 220.042ZM111.144 217.502C111.144 216.83 111.275 216.224 111.538 215.687C111.804 215.15 112.172 214.735 112.642 214.443C113.116 214.151 113.656 214.005 114.261 214.005C115.196 214.005 115.951 214.329 116.527 214.976C117.107 215.624 117.396 216.485 117.396 217.56V217.642C117.396 218.311 117.267 218.912 117.009 219.445C116.755 219.974 116.389 220.386 115.911 220.683C115.437 220.979 114.891 221.127 114.273 221.127C113.342 221.127 112.587 220.803 112.007 220.156C111.432 219.508 111.144 218.651 111.144 217.585V217.502ZM112.325 217.642C112.325 218.404 112.5 219.015 112.852 219.477C113.207 219.938 113.681 220.168 114.273 220.168C114.87 220.168 115.344 219.936 115.695 219.47C116.047 219 116.222 218.345 116.222 217.502C116.222 216.749 116.042 216.14 115.683 215.674C115.327 215.205 114.853 214.97 114.261 214.97C113.681 214.97 113.213 215.2 112.858 215.662C112.502 216.123 112.325 216.783 112.325 217.642ZM124.487 221H123.312V215.103H120.151V221H118.971V214.132H124.487V221ZM126.061 217.502C126.061 216.83 126.192 216.224 126.455 215.687C126.721 215.15 127.089 214.735 127.559 214.443C128.033 214.151 128.573 214.005 129.178 214.005C130.113 214.005 130.868 214.329 131.444 214.976C132.024 215.624 132.313 216.485 132.313 217.56V217.642C132.313 218.311 132.184 218.912 131.926 219.445C131.672 219.974 131.306 220.386 130.828 220.683C130.354 220.979 129.808 221.127 129.19 221.127C128.259 221.127 127.504 220.803 126.924 220.156C126.349 219.508 126.061 218.651 126.061 217.585V217.502ZM127.242 217.642C127.242 218.404 127.417 219.015 127.769 219.477C128.124 219.938 128.598 220.168 129.19 220.168C129.787 220.168 130.261 219.936 130.612 219.47C130.964 219 131.139 218.345 131.139 217.502C131.139 216.749 130.959 216.14 130.6 215.674C130.244 215.205 129.77 214.97 129.178 214.97C128.598 214.97 128.13 215.2 127.775 215.662C127.419 216.123 127.242 216.783 127.242 217.642ZM139.315 214.132V221H138.134V215.103H135.798L135.659 217.674C135.583 218.854 135.384 219.699 135.062 220.207C134.745 220.714 134.239 220.979 133.545 221H133.075V219.965L133.412 219.94C133.792 219.898 134.065 219.678 134.23 219.28C134.396 218.882 134.501 218.146 134.548 217.071L134.675 214.132H139.315ZM146.812 221H145.637V218.067H142.482V221H141.302V214.132H142.482V217.109H145.637V214.132H146.812V221ZM153.146 214.132H154.321V221H153.146V215.992L149.979 221H148.805V214.132H149.979V219.146L153.146 214.132ZM161.31 215.084H159.005V221H157.831V215.084H155.571V214.132H161.31V215.084ZM164.794 221.127C163.863 221.127 163.106 220.822 162.522 220.213C161.938 219.599 161.646 218.78 161.646 217.756V217.541C161.646 216.859 161.775 216.252 162.033 215.719C162.296 215.181 162.66 214.762 163.125 214.462C163.595 214.157 164.103 214.005 164.648 214.005C165.541 214.005 166.235 214.299 166.73 214.887C167.226 215.475 167.473 216.318 167.473 217.414V217.902H162.82C162.837 218.579 163.034 219.127 163.411 219.546C163.792 219.961 164.274 220.168 164.858 220.168C165.273 220.168 165.624 220.084 165.912 219.915C166.199 219.745 166.451 219.521 166.667 219.242L167.384 219.8C166.809 220.685 165.945 221.127 164.794 221.127ZM164.648 214.97C164.174 214.97 163.777 215.143 163.455 215.49C163.133 215.833 162.935 216.315 162.858 216.938H166.299V216.849C166.265 216.252 166.104 215.791 165.816 215.465C165.529 215.135 165.139 214.97 164.648 214.97ZM174.468 214.132V221H173.288V215.103H170.952L170.812 217.674C170.736 218.854 170.537 219.699 170.215 220.207C169.898 220.714 169.392 220.979 168.698 221H168.229V219.965L168.565 219.94C168.946 219.898 169.219 219.678 169.384 219.28C169.549 218.882 169.655 218.146 169.701 217.071L169.828 214.132H174.468ZM177.636 216.5H179.419C180.198 216.508 180.814 216.711 181.267 217.109C181.719 217.507 181.946 218.046 181.946 218.728C181.946 219.413 181.713 219.963 181.248 220.378C180.782 220.793 180.156 221 179.369 221H176.461V214.132H177.636V216.5ZM177.636 217.458V220.042H179.381C179.821 220.042 180.162 219.929 180.403 219.705C180.645 219.477 180.765 219.166 180.765 218.772C180.765 218.391 180.647 218.08 180.41 217.839C180.177 217.593 179.849 217.466 179.426 217.458H177.636ZM189.023 221H187.849V218.067H184.694V221H183.514V214.132H184.694V217.109H187.849V214.132H189.023V221ZM193.162 219.28L194.762 214.132H196.019L193.257 222.06C192.83 223.203 192.151 223.774 191.22 223.774L190.998 223.755L190.56 223.672V222.72L190.877 222.746C191.275 222.746 191.584 222.665 191.804 222.504C192.028 222.344 192.212 222.049 192.356 221.622L192.616 220.924L190.166 214.132H191.448L193.162 219.28ZM198.354 217.045H200.005C200.094 216.131 200.417 215.397 200.976 214.843C201.539 214.284 202.248 214.005 203.103 214.005C204 214.005 204.734 214.307 205.305 214.913C205.876 215.518 206.185 216.305 206.232 217.274L206.238 217.642C206.238 218.311 206.107 218.914 205.845 219.451C205.582 219.989 205.214 220.403 204.74 220.695C204.266 220.983 203.725 221.127 203.115 221.127C202.231 221.127 201.507 220.839 200.944 220.264C200.382 219.684 200.066 218.933 199.999 218.01H198.354V221H197.18V214.132H198.354V217.045ZM201.16 217.642C201.16 218.404 201.336 219.015 201.687 219.477C202.042 219.938 202.519 220.168 203.115 220.168C203.712 220.168 204.184 219.934 204.531 219.464C204.882 218.994 205.058 218.34 205.058 217.502C205.058 216.753 204.88 216.144 204.524 215.674C204.169 215.205 203.695 214.97 203.103 214.97C202.519 214.97 202.049 215.2 201.693 215.662C201.338 216.123 201.16 216.783 201.16 217.642ZM215.354 214.132H216.528V221H215.354V215.992L212.186 221H211.012V214.132H212.186V219.146L215.354 214.132ZM224.024 221H222.85V218.067H219.695V221H218.515V214.132H219.695V217.109H222.85V214.132H224.024V221ZM225.662 217.693C225.662 216.546 225.884 215.645 226.329 214.989C226.773 214.333 227.382 214.005 228.157 214.005C228.516 214.005 228.832 214.066 229.103 214.189V211.25H230.277V214.227C230.573 214.079 230.92 214.005 231.318 214.005C232.097 214.005 232.708 214.333 233.152 214.989C233.597 215.645 233.819 216.59 233.819 217.826C233.819 218.838 233.597 219.642 233.152 220.238C232.712 220.835 232.105 221.133 231.331 221.133C230.92 221.133 230.569 221.066 230.277 220.93V223.641H229.103V220.949C228.823 221.072 228.504 221.133 228.144 221.133C227.374 221.133 226.767 220.835 226.322 220.238C225.882 219.642 225.662 218.825 225.662 217.788V217.693ZM232.645 217.693C232.645 216.83 232.496 216.161 232.2 215.687C231.904 215.209 231.496 214.97 230.975 214.97C230.708 214.97 230.476 215.012 230.277 215.097V220.067C230.467 220.139 230.704 220.175 230.988 220.175C231.513 220.175 231.919 219.972 232.207 219.565C232.499 219.159 232.645 218.535 232.645 217.693ZM226.836 217.826C226.836 218.596 226.974 219.18 227.249 219.578C227.524 219.976 227.92 220.175 228.436 220.175C228.681 220.175 228.904 220.137 229.103 220.061V215.078C228.925 215.006 228.707 214.97 228.449 214.97C227.932 214.97 227.535 215.2 227.255 215.662C226.976 216.123 226.836 216.844 226.836 217.826ZM235.038 217.502C235.038 216.83 235.169 216.224 235.431 215.687C235.698 215.15 236.066 214.735 236.536 214.443C237.01 214.151 237.549 214.005 238.154 214.005C239.09 214.005 239.845 214.329 240.42 214.976C241 215.624 241.29 216.485 241.29 217.56V217.642C241.29 218.311 241.161 218.912 240.903 219.445C240.649 219.974 240.283 220.386 239.805 220.683C239.331 220.979 238.785 221.127 238.167 221.127C237.236 221.127 236.481 220.803 235.901 220.156C235.325 219.508 235.038 218.651 235.038 217.585V217.502ZM236.218 217.642C236.218 218.404 236.394 219.015 236.745 219.477C237.101 219.938 237.575 220.168 238.167 220.168C238.764 220.168 239.238 219.936 239.589 219.47C239.94 219 240.116 218.345 240.116 217.502C240.116 216.749 239.936 216.14 239.576 215.674C239.221 215.205 238.747 214.97 238.154 214.97C237.575 214.97 237.107 215.2 236.751 215.662C236.396 216.123 236.218 216.783 236.218 217.642ZM248.564 217.642C248.564 218.687 248.325 219.529 247.847 220.168C247.369 220.807 246.722 221.127 245.905 221.127C245.071 221.127 244.415 220.862 243.937 220.333V223.641H242.763V214.132H243.835L243.893 214.894C244.371 214.301 245.035 214.005 245.886 214.005C246.711 214.005 247.363 214.316 247.841 214.938C248.323 215.56 248.564 216.425 248.564 217.534V217.642ZM247.39 217.509C247.39 216.734 247.225 216.123 246.895 215.674C246.565 215.226 246.112 215.001 245.537 215.001C244.826 215.001 244.292 215.317 243.937 215.947V219.229C244.288 219.855 244.826 220.168 245.549 220.168C246.112 220.168 246.559 219.946 246.889 219.502C247.223 219.053 247.39 218.389 247.39 217.509ZM254.017 219.445L256.353 214.132H257.819V221H256.645V216.004L254.423 221H253.611L251.345 215.896V221H250.17V214.132H251.694L254.017 219.445ZM263.951 221C263.883 220.865 263.828 220.623 263.786 220.276C263.24 220.843 262.589 221.127 261.831 221.127C261.154 221.127 260.597 220.937 260.162 220.556C259.73 220.171 259.514 219.684 259.514 219.096C259.514 218.381 259.785 217.826 260.327 217.433C260.873 217.035 261.639 216.836 262.625 216.836H263.767V216.296C263.767 215.886 263.644 215.56 263.399 215.319C263.153 215.073 262.792 214.951 262.313 214.951C261.895 214.951 261.543 215.056 261.26 215.268C260.976 215.48 260.834 215.736 260.834 216.036H259.654C259.654 215.693 259.774 215.363 260.016 215.046C260.261 214.724 260.591 214.47 261.006 214.284C261.425 214.098 261.884 214.005 262.383 214.005C263.175 214.005 263.795 214.204 264.243 214.602C264.692 214.995 264.924 215.539 264.941 216.233V219.394C264.941 220.025 265.022 220.526 265.183 220.898V221H263.951ZM262.002 220.105C262.371 220.105 262.72 220.01 263.05 219.819C263.38 219.629 263.619 219.381 263.767 219.077V217.667H262.847C261.408 217.667 260.688 218.089 260.688 218.931C260.688 219.299 260.811 219.587 261.057 219.794C261.302 220.001 261.617 220.105 262.002 220.105ZM266.884 214.132H268.064V220.042H271.226V214.132H272.4V220.042H273.219L273.104 223.038H272.051V221H266.884V214.132ZM278.932 214.132H280.106V221H278.932V215.992L275.764 221H274.59V214.132H275.764V219.146L278.932 214.132ZM283.273 217.045H284.924C285.013 216.131 285.336 215.397 285.895 214.843C286.458 214.284 287.167 214.005 288.021 214.005C288.919 214.005 289.653 214.307 290.224 214.913C290.795 215.518 291.104 216.305 291.151 217.274L291.157 217.642C291.157 218.311 291.026 218.914 290.764 219.451C290.501 219.989 290.133 220.403 289.659 220.695C289.185 220.983 288.644 221.127 288.034 221.127C287.15 221.127 286.426 220.839 285.863 220.264C285.3 219.684 284.985 218.933 284.917 218.01H283.273V221H282.099V214.132H283.273V217.045ZM286.079 217.642C286.079 218.404 286.255 219.015 286.606 219.477C286.961 219.938 287.438 220.168 288.034 220.168C288.631 220.168 289.103 219.934 289.45 219.464C289.801 218.994 289.977 218.34 289.977 217.502C289.977 216.753 289.799 216.144 289.443 215.674C289.088 215.205 288.614 214.97 288.021 214.97C287.438 214.97 286.968 215.2 286.612 215.662C286.257 216.123 286.079 216.783 286.079 217.642Z" fill="#162941"/>
<g filter="url(#filter3_d)">
<rect x="21" y="206" width="20" height="20" fill="white"/>
<rect x="21.5" y="206.5" width="19" height="19" stroke="#F3F3F3"/>
</g>
<circle cx="272" cy="18" r="8" fill="#929FAB"/>
<circle cx="294" cy="18" r="8" fill="#929FAB"/>
<circle cx="316" cy="18" r="8" fill="#929FAB"/>
<defs>
<filter id="filter0_d" x="5" y="46" width="325" height="70" filterUnits="userSpaceOnUse" color-interpolation-filters="sRGB">
<feFlood flood-opacity="0" result="BackgroundImageFix"/>
<feColorMatrix in="SourceAlpha" type="matrix" values="0 0 0 0 0 0 0 0 0 0 0 0 0 0 0 0 0 0 127 0"/>
<feOffset dy="5"/>
<feGaussianBlur stdDeviation="7.5"/>
<feColorMatrix type="matrix" values="0 0 0 0 0.0823529 0 0 0 0 0.141176 0 0 0 0 0.219608 0 0 0 0.15 0"/>
<feBlend mode="normal" in2="BackgroundImageFix" result="effect1_dropShadow"/>
<feBlend mode="normal" in="SourceGraphic" in2="effect1_dropShadow" result="shape"/>
</filter>
<filter id="filter1_d" x="6" y="96" width="325" height="70" filterUnits="userSpaceOnUse" color-interpolation-filters="sRGB">
<feFlood flood-opacity="0" result="BackgroundImageFix"/>
<feColorMatrix in="SourceAlpha" type="matrix" values="0 0 0 0 0 0 0 0 0 0 0 0 0 0 0 0 0 0 127 0"/>
<feOffset dy="5"/>
<feGaussianBlur stdDeviation="7.5"/>
<feColorMatrix type="matrix" values="0 0 0 0 0.0823529 0 0 0 0 0.141176 0 0 0 0 0.219608 0 0 0 0.15 0"/>
<feBlend mode="normal" in2="BackgroundImageFix" result="effect1_dropShadow"/>
<feBlend mode="normal" in="SourceGraphic" in2="effect1_dropShadow" result="shape"/>
</filter>
<filter id="filter2_d" x="6" y="146" width="325" height="70" filterUnits="userSpaceOnUse" color-interpolation-filters="sRGB">
<feFlood flood-opacity="0" result="BackgroundImageFix"/>
<feColorMatrix in="SourceAlpha" type="matrix" values="0 0 0 0 0 0 0 0 0 0 0 0 0 0 0 0 0 0 127 0"/>
<feOffset dy="5"/>
<feGaussianBlur stdDeviation="7.5"/>
<feColorMatrix type="matrix" values="0 0 0 0 0.0823529 0 0 0 0 0.141176 0 0 0 0 0.219608 0 0 0 0.15 0"/>
<feBlend mode="normal" in2="BackgroundImageFix" result="effect1_dropShadow"/>
<feBlend mode="normal" in="SourceGraphic" in2="effect1_dropShadow" result="shape"/>
</filter>
<filter id="filter3_d" x="15" y="203" width="32" height="32" filterUnits="userSpaceOnUse" color-interpolation-filters="sRGB">
<feFlood flood-opacity="0" result="BackgroundImageFix"/>
<feColorMatrix in="SourceAlpha" type="matrix" values="0 0 0 0 0 0 0 0 0 0 0 0 0 0 0 0 0 0 127 0"/>
<feOffset dy="3"/>
<feGaussianBlur stdDeviation="3"/>
<feColorMatrix type="matrix" values="0 0 0 0 0.435294 0 0 0 0 0.517647 0 0 0 0 0.596078 0 0 0 0.1 0"/>
<feBlend mode="normal" in2="BackgroundImageFix" result="effect1_dropShadow"/>
<feBlend mode="normal" in="SourceGraphic" in2="effect1_dropShadow" result="shape"/>
</filter>
<linearGradient id="paint0_linear" x1="167.5" y1="0" x2="167.5" y2="36" gradientUnits="userSpaceOnUse">
<stop stop-color="#ECECEB"/>
<stop offset="1" stop-color="#D7D7D7"/>
</linearGradient>
</defs>
</svg>
