<svg width="335" height="312" viewBox="0 0 335 312" fill="none" xmlns="http://www.w3.org/2000/svg">
<rect x="0.5" y="0.5" width="334" height="311" rx="9.5" fill="#EBEDF2" stroke="#CCDBDE"/>
<path d="M0.5 10C0.5 4.7533 4.75329 0.5 10 0.5H325C330.247 0.5 334.5 4.7533 334.5 10V35.5H0.5V10Z" fill="url(#paint0_linear)" stroke="#CCDBDE"/>
<g filter="url(#filter0_d)">
<rect x="20" y="65" width="295" height="40" rx="3" fill="#F4F6FA"/>
</g>
<rect x="29" y="71" width="188.485" height="28" rx="5" fill="#959BAA"/>
<path d="M44.4585 80.7607H41.4878V89H40.2754V80.7607H37.311V79.7578H44.4585V80.7607ZM47.0483 85.3818V89H45.8296V79.7578H49.2383C50.2497 79.7578 51.041 80.016 51.6123 80.5322C52.1878 81.0485 52.4756 81.7319 52.4756 82.5825C52.4756 83.4797 52.1942 84.1715 51.6313 84.6582C51.0728 85.1406 50.2708 85.3818 49.2256 85.3818H47.0483ZM47.0483 84.3853H49.2383C49.89 84.3853 50.3893 84.2329 50.7363 83.9282C51.0833 83.6193 51.2568 83.175 51.2568 82.5952C51.2568 82.0451 51.0833 81.605 50.7363 81.2749C50.3893 80.9448 49.9132 80.7734 49.3081 80.7607H47.0483V84.3853ZM59.2549 84.728H55.2495V88.0034H59.9023V89H54.0308V79.7578H59.8389V80.7607H55.2495V83.7314H59.2549V84.728ZM67.0562 80.7607H62.6001V83.5283H64.8979C65.8628 83.541 66.616 83.7886 67.1577 84.271C67.6994 84.7534 67.9702 85.4093 67.9702 86.2388C67.9702 87.0724 67.6973 87.7368 67.1514 88.2319C66.6055 88.7271 65.8607 88.9831 64.917 89H61.375V79.7578H67.0562V80.7607ZM62.6001 84.5312V88.0034H64.8281C65.4333 88.0034 65.903 87.8426 66.2373 87.521C66.5758 87.1994 66.7451 86.7677 66.7451 86.2261C66.7451 85.7056 66.5822 85.2951 66.2563 84.9946C65.9347 84.6942 65.4756 84.5397 64.8789 84.5312H62.6001ZM72.6802 85.1216L74.8066 79.7578H76.2222L72.9531 87.4575C72.7331 87.9484 72.5278 88.2975 72.3374 88.5049C72.147 88.708 71.9227 88.8646 71.6646 88.9746C71.4106 89.0804 71.0911 89.1333 70.7061 89.1333C70.3717 89.1333 70.158 89.1143 70.0649 89.0762L70.103 88.1113L70.6807 88.1367C71.125 88.1367 71.4551 87.923 71.6709 87.4956L71.8296 87.1655L72.0708 86.6006L68.9224 79.7578H70.2871L72.6802 85.1216ZM82.9062 84.728H78.9009V88.0034H83.5537V89H77.6821V79.7578H83.4902V80.7607H78.9009V83.7314H82.9062V84.728ZM91.5835 80.7607H88.6128V89H87.4004V80.7607H84.436V79.7578H91.5835V80.7607ZM99.5752 86.0674C99.4609 87.0449 99.0991 87.8003 98.4897 88.3335C97.8846 88.8625 97.0785 89.127 96.0713 89.127C94.9795 89.127 94.1035 88.7355 93.4434 87.9526C92.7874 87.1698 92.4595 86.1224 92.4595 84.8105V83.9219C92.4595 83.0628 92.6118 82.3075 92.9165 81.6558C93.2254 81.0041 93.6613 80.5047 94.2241 80.1577C94.7869 79.8065 95.4386 79.6309 96.1792 79.6309C97.161 79.6309 97.9481 79.9059 98.5405 80.4561C99.133 81.002 99.4779 81.7594 99.5752 82.7285H98.3501C98.2443 81.9922 98.0137 81.459 97.6582 81.1289C97.307 80.7988 96.814 80.6338 96.1792 80.6338C95.4006 80.6338 94.7891 80.9215 94.3447 81.4971C93.9046 82.0726 93.6846 82.8914 93.6846 83.9536V84.8486C93.6846 85.8516 93.894 86.6493 94.313 87.2417C94.7319 87.8341 95.318 88.1304 96.0713 88.1304C96.7484 88.1304 97.2668 87.978 97.6265 87.6733C97.9904 87.3644 98.2316 86.8291 98.3501 86.0674H99.5752ZM106.082 89V85.4009H103.949L102.038 89H100.737L102.882 85.0645C101.689 84.5947 101.092 83.7547 101.092 82.5444C101.092 81.6642 101.38 80.9808 101.956 80.4941C102.535 80.0033 103.339 79.7578 104.368 79.7578H107.307V89H106.082ZM102.311 82.5444C102.311 83.103 102.485 83.5516 102.832 83.8901C103.183 84.2287 103.669 84.4001 104.292 84.4043H106.082V80.7607H104.349C103.688 80.7607 103.183 80.9173 102.832 81.2305C102.485 81.5436 102.311 81.9816 102.311 82.5444ZM119.805 89H118.58V80.7607H114.022V89H112.804V79.7578H119.805V89ZM123.246 85.3818V89H122.027V79.7578H125.436C126.447 79.7578 127.238 80.016 127.81 80.5322C128.385 81.0485 128.673 81.7319 128.673 82.5825C128.673 83.4797 128.391 84.1715 127.829 84.6582C127.27 85.1406 126.468 85.3818 125.423 85.3818H123.246ZM123.246 84.3853H125.436C126.087 84.3853 126.587 84.2329 126.934 83.9282C127.281 83.6193 127.454 83.175 127.454 82.5952C127.454 82.0451 127.281 81.605 126.934 81.2749C126.587 80.9448 126.111 80.7734 125.505 80.7607H123.246V84.3853ZM137.337 84.6772C137.337 85.5828 137.185 86.3742 136.88 87.0513C136.576 87.7241 136.144 88.2383 135.585 88.5938C135.027 88.9492 134.375 89.127 133.63 89.127C132.903 89.127 132.257 88.9492 131.694 88.5938C131.132 88.234 130.694 87.7241 130.38 87.064C130.071 86.3996 129.913 85.6315 129.904 84.7598V84.0933C129.904 83.2046 130.059 82.4196 130.368 81.7383C130.677 81.057 131.112 80.5365 131.675 80.1768C132.242 79.8128 132.89 79.6309 133.618 79.6309C134.358 79.6309 135.01 79.8107 135.573 80.1704C136.14 80.5259 136.576 81.0443 136.88 81.7256C137.185 82.4027 137.337 83.1919 137.337 84.0933V84.6772ZM136.125 84.0806C136.125 82.9845 135.905 82.1445 135.465 81.5605C135.025 80.9723 134.409 80.6782 133.618 80.6782C132.847 80.6782 132.24 80.9723 131.796 81.5605C131.356 82.1445 131.129 82.957 131.117 83.998V84.6772C131.117 85.7394 131.339 86.5752 131.783 87.1846C132.232 87.7897 132.847 88.0923 133.63 88.0923C134.417 88.0923 135.027 87.8066 135.458 87.2354C135.89 86.6598 136.112 85.8368 136.125 84.7661V84.0806ZM147.265 91.2661H146.053V89H139.419V91.2725H138.201L138.194 88.0034H138.95C139.347 87.5549 139.663 86.9539 139.896 86.2007C140.132 85.4432 140.281 84.6138 140.34 83.7124L140.543 79.7578H146.072V88.0034H147.278L147.265 91.2661ZM140.34 88.0034H144.847V80.7607H141.717L141.584 83.4775C141.529 84.5397 141.387 85.4453 141.159 86.1943C140.934 86.9434 140.661 87.5464 140.34 88.0034ZM155.815 79.7578V89H154.597V80.7607H151.283L151.118 84.4233C151.055 85.6506 150.928 86.5731 150.737 87.1909C150.551 87.8088 150.276 88.2637 149.912 88.5557C149.548 88.8434 149.062 88.9915 148.452 89H148.052V88.0034L148.306 87.9907C148.7 87.9611 149.002 87.8341 149.214 87.6099C149.425 87.3813 149.586 87.0195 149.696 86.5244C149.806 86.0293 149.885 85.2676 149.931 84.2393L150.122 79.7578H155.815ZM163.255 84.728H159.25V88.0034H163.902V89H158.031V79.7578H163.839V80.7607H159.25V83.7314H163.255V84.728ZM172.522 89H171.297V84.728H166.638V89H165.419V79.7578H166.638V83.7314H171.297V79.7578H172.522V89ZM180.514 79.7578H181.733V89H180.514V81.8779L175.963 89H174.738V79.7578H175.963V86.8799L180.514 79.7578ZM189.179 84.728H185.173V88.0034H189.826V89H183.955V79.7578H189.763V80.7607H185.173V83.7314H189.179V84.728Z" fill="white"/>
<rect x="202.414" y="80.7572" width="10" height="2" transform="rotate(45 202.414 80.7572)" fill="white"/>
<rect x="201" y="87.8285" width="10" height="2" transform="rotate(-45 201 87.8285)" fill="white"/>
<path d="M244.871 86.0674C244.757 87.0449 244.395 87.8003 243.786 88.3335C243.181 88.8625 242.374 89.127 241.367 89.127C240.275 89.127 239.399 88.7355 238.739 87.9526C238.083 87.1698 237.755 86.1224 237.755 84.8105V83.9219C237.755 83.0628 237.908 82.3075 238.212 81.6558C238.521 81.0041 238.957 80.5047 239.52 80.1577C240.083 79.8065 240.735 79.6309 241.475 79.6309C242.457 79.6309 243.244 79.9059 243.836 80.4561C244.429 81.002 244.774 81.7594 244.871 82.7285H243.646C243.54 81.9922 243.31 81.459 242.954 81.1289C242.603 80.7988 242.11 80.6338 241.475 80.6338C240.696 80.6338 240.085 80.9215 239.641 81.4971C239.201 82.0726 238.98 82.8914 238.98 83.9536V84.8486C238.98 85.8516 239.19 86.6493 239.609 87.2417C240.028 87.8341 240.614 88.1304 241.367 88.1304C242.044 88.1304 242.563 87.978 242.922 87.6733C243.286 87.3644 243.528 86.8291 243.646 86.0674H244.871ZM250.311 87.4448L252.647 82.1318H254.113V89H252.939V84.0044L250.717 89H249.905L247.639 83.8965V89H246.464V82.1318H247.988L250.311 87.4448ZM260.245 89C260.177 88.8646 260.122 88.6234 260.08 88.2764C259.534 88.8434 258.882 89.127 258.125 89.127C257.448 89.127 256.891 88.9365 256.456 88.5557C256.024 88.1706 255.808 87.6839 255.808 87.0957C255.808 86.3805 256.079 85.8262 256.621 85.4326C257.167 85.0348 257.932 84.8359 258.918 84.8359H260.061V84.2964C260.061 83.8859 259.938 83.5601 259.693 83.3188C259.447 83.0734 259.086 82.9507 258.607 82.9507C258.188 82.9507 257.837 83.0565 257.554 83.2681C257.27 83.4797 257.128 83.7357 257.128 84.0361H255.948C255.948 83.6934 256.068 83.3633 256.31 83.0459C256.555 82.7243 256.885 82.4704 257.3 82.2842C257.719 82.098 258.178 82.0049 258.677 82.0049C259.469 82.0049 260.089 82.2038 260.537 82.6016C260.986 82.9951 261.218 83.5389 261.235 84.2329V87.394C261.235 88.0246 261.316 88.526 261.477 88.8984V89H260.245ZM258.296 88.105C258.665 88.105 259.014 88.0098 259.344 87.8193C259.674 87.6289 259.913 87.3813 260.061 87.0767V85.6675H259.141C257.702 85.6675 256.982 86.0885 256.982 86.9307C256.982 87.2988 257.105 87.5866 257.351 87.7939C257.596 88.0013 257.911 88.105 258.296 88.105ZM268.878 85.6421C268.878 86.6873 268.639 87.5295 268.161 88.1685C267.682 88.8075 267.035 89.127 266.218 89.127C265.385 89.127 264.729 88.8625 264.25 88.3335V91.6406H263.076V82.1318H264.149L264.206 82.8936C264.684 82.3011 265.349 82.0049 266.199 82.0049C267.024 82.0049 267.676 82.3159 268.154 82.938C268.637 83.5601 268.878 84.4255 268.878 85.5342V85.6421ZM267.704 85.5088C267.704 84.7344 267.539 84.1229 267.208 83.6743C266.878 83.2257 266.426 83.0015 265.85 83.0015C265.139 83.0015 264.606 83.3167 264.25 83.9473V87.229C264.602 87.8553 265.139 88.1685 265.863 88.1685C266.426 88.1685 266.872 87.9463 267.202 87.502C267.536 87.0534 267.704 86.389 267.704 85.5088ZM274.972 83.084H272.667V89H271.493V83.084H269.233V82.1318H274.972V83.084Z" fill="#172B47"/>
<g filter="url(#filter1_d)">
<rect x="20" y="115" width="295" height="167" fill="white"/>
</g>
<rect x="20" y="159" width="295" height="1" fill="#E6E8EE"/>
<rect x="224" y="125" width="81" height="24" rx="5" fill="#F5BF4F"/>
<path d="M238.9 131.758H240.119V141H238.9V133.878L234.349 141H233.124V131.758H234.349V138.88L238.9 131.758ZM249.139 138.067C249.024 139.045 248.663 139.8 248.053 140.333C247.448 140.862 246.642 141.127 245.635 141.127C244.543 141.127 243.667 140.736 243.007 139.953C242.351 139.17 242.023 138.122 242.023 136.811V135.922C242.023 135.063 242.175 134.307 242.48 133.656C242.789 133.004 243.225 132.505 243.788 132.158C244.35 131.806 245.002 131.631 245.743 131.631C246.724 131.631 247.512 131.906 248.104 132.456C248.696 133.002 249.041 133.759 249.139 134.729H247.914C247.808 133.992 247.577 133.459 247.222 133.129C246.87 132.799 246.377 132.634 245.743 132.634C244.964 132.634 244.353 132.922 243.908 133.497C243.468 134.073 243.248 134.891 243.248 135.954V136.849C243.248 137.852 243.458 138.649 243.876 139.242C244.295 139.834 244.882 140.13 245.635 140.13C246.312 140.13 246.83 139.978 247.19 139.673C247.554 139.364 247.795 138.829 247.914 138.067H249.139ZM257.003 132.761H254.033V141H252.82V132.761H249.856V131.758H257.003V132.761ZM263.599 136.728H259.593V140.003H264.246V141H258.375V131.758H264.183V132.761H259.593V135.731H263.599V136.728ZM268.163 136.849H267.039V141H265.82V131.758H267.039V135.833H267.991L271.222 131.758H272.739L269.21 136.239L273 141H271.508L268.163 136.849ZM279.22 138.588H275.348L274.479 141H273.222L276.751 131.758H277.817L281.353 141H280.103L279.22 138.588ZM275.716 137.585H278.858L277.284 133.262L275.716 137.585ZM287.821 136.728H283.816V140.003H288.469V141H282.597V131.758H288.405V132.761H283.816V135.731H287.821V136.728ZM296.499 132.761H293.528V141H292.315V132.761H289.351V131.758H296.499V132.761Z" fill="white"/>
<path d="M45.6177 138.575C45.6177 138.215 45.4907 137.94 45.2368 137.75C44.9829 137.555 44.5259 137.352 43.8657 137.141C43.2056 136.925 42.6829 136.713 42.2979 136.506C41.2484 135.939 40.7236 135.175 40.7236 134.214C40.7236 133.715 40.8633 133.271 41.1426 132.881C41.4261 132.488 41.8302 132.181 42.355 131.961C42.884 131.741 43.4764 131.631 44.1323 131.631C44.7925 131.631 45.3807 131.751 45.897 131.993C46.4132 132.23 46.8132 132.566 47.0967 133.002C47.3844 133.438 47.5283 133.933 47.5283 134.487H45.624C45.624 134.064 45.4907 133.736 45.2241 133.503C44.9575 133.266 44.583 133.148 44.1006 133.148C43.6351 133.148 43.2733 133.247 43.0151 133.446C42.757 133.641 42.6279 133.899 42.6279 134.221C42.6279 134.521 42.7782 134.773 43.0786 134.976C43.3833 135.179 43.8298 135.37 44.418 135.547C45.5013 135.873 46.2905 136.277 46.7856 136.76C47.2808 137.242 47.5283 137.843 47.5283 138.562C47.5283 139.362 47.2257 139.991 46.6206 140.448C46.0155 140.901 45.2008 141.127 44.1768 141.127C43.4658 141.127 42.8184 140.998 42.2344 140.74C41.6504 140.477 41.2039 140.12 40.895 139.667C40.5903 139.214 40.438 138.689 40.438 138.093H42.3486C42.3486 139.113 42.958 139.623 44.1768 139.623C44.6296 139.623 44.9829 139.532 45.2368 139.35C45.4907 139.163 45.6177 138.905 45.6177 138.575ZM50.4229 134.132L50.48 134.9C50.9666 134.303 51.6247 134.005 52.4541 134.005C53.3385 134.005 53.9458 134.354 54.2759 135.052C54.7583 134.354 55.446 134.005 56.3389 134.005C57.0837 134.005 57.638 134.223 58.002 134.659C58.3659 135.09 58.5479 135.742 58.5479 136.614V141H56.707V136.62C56.707 136.231 56.6309 135.947 56.4785 135.77C56.3262 135.588 56.0575 135.497 55.6724 135.497C55.1222 135.497 54.7414 135.759 54.5298 136.284L54.5361 141H52.7017V136.626C52.7017 136.229 52.6234 135.941 52.4668 135.763C52.3102 135.585 52.0436 135.497 51.667 135.497C51.1465 135.497 50.7699 135.712 50.5371 136.144V141H48.7026V134.132H50.4229ZM63.9434 141C63.8587 140.835 63.7974 140.63 63.7593 140.384C63.3149 140.879 62.7373 141.127 62.0264 141.127C61.3535 141.127 60.7949 140.932 60.3506 140.543C59.9105 140.154 59.6904 139.663 59.6904 139.07C59.6904 138.342 59.9591 137.784 60.4966 137.395C61.0382 137.005 61.819 136.808 62.8389 136.804H63.6831V136.411C63.6831 136.093 63.6006 135.839 63.4355 135.649C63.2747 135.458 63.0187 135.363 62.6675 135.363C62.3586 135.363 62.1152 135.437 61.9375 135.585C61.764 135.734 61.6772 135.937 61.6772 136.195H59.8428C59.8428 135.797 59.9655 135.429 60.2109 135.09C60.4564 134.752 60.8034 134.487 61.252 134.297C61.7005 134.102 62.2041 134.005 62.7627 134.005C63.609 134.005 64.2798 134.219 64.7749 134.646C65.2743 135.069 65.5239 135.666 65.5239 136.436V139.413C65.5282 140.065 65.6191 140.558 65.7969 140.892V141H63.9434ZM62.4263 139.724C62.6971 139.724 62.9468 139.665 63.1753 139.546C63.4038 139.424 63.5731 139.261 63.6831 139.058V137.877H62.9976C62.0793 137.877 61.5905 138.194 61.5312 138.829L61.5249 138.937C61.5249 139.166 61.6053 139.354 61.7661 139.502C61.9269 139.65 62.147 139.724 62.4263 139.724ZM70.7925 135.852C70.5428 135.818 70.3228 135.801 70.1323 135.801C69.4383 135.801 68.9834 136.036 68.7676 136.506V141H66.9331V134.132H68.666L68.7168 134.951C69.085 134.32 69.5949 134.005 70.2466 134.005C70.4497 134.005 70.6401 134.032 70.8179 134.087L70.7925 135.852ZM74.1948 132.443V134.132H75.3691V135.478H74.1948V138.905C74.1948 139.159 74.2435 139.341 74.3408 139.451C74.4382 139.561 74.6243 139.616 74.8994 139.616C75.1025 139.616 75.2824 139.601 75.439 139.572V140.962C75.0793 141.072 74.709 141.127 74.3281 141.127C73.0417 141.127 72.3857 140.477 72.3604 139.178V135.478H71.3574V134.132H72.3604V132.443H74.1948ZM76.5117 141V131.758H79.749C80.8704 131.758 81.721 131.974 82.3008 132.405C82.8805 132.833 83.1704 133.461 83.1704 134.291C83.1704 134.743 83.054 135.143 82.8213 135.49C82.5885 135.833 82.2648 136.085 81.8501 136.246C82.3241 136.364 82.6965 136.603 82.9673 136.963C83.2424 137.323 83.3799 137.763 83.3799 138.283C83.3799 139.172 83.0964 139.845 82.5293 140.302C81.9622 140.759 81.154 140.992 80.1045 141H76.5117ZM78.416 136.976V139.47H80.0474C80.4959 139.47 80.8451 139.364 81.0947 139.153C81.3486 138.937 81.4756 138.641 81.4756 138.264C81.4756 137.418 81.0376 136.988 80.1616 136.976H78.416ZM78.416 135.63H79.8252C80.7858 135.613 81.2661 135.23 81.2661 134.481C81.2661 134.062 81.1434 133.762 80.8979 133.58C80.6567 133.393 80.2738 133.3 79.749 133.3H78.416V135.63ZM84.4082 137.502C84.4082 136.821 84.5394 136.214 84.8018 135.681C85.0641 135.147 85.4408 134.735 85.9316 134.443C86.4268 134.151 87.0002 134.005 87.6519 134.005C88.5786 134.005 89.334 134.288 89.918 134.855C90.5062 135.423 90.8341 136.193 90.9019 137.166L90.9146 137.636C90.9146 138.689 90.6204 139.536 90.0322 140.175C89.444 140.81 88.6548 141.127 87.6646 141.127C86.6743 141.127 85.883 140.81 85.2905 140.175C84.7023 139.54 84.4082 138.677 84.4082 137.585V137.502ZM86.2427 137.636C86.2427 138.287 86.3654 138.787 86.6108 139.134C86.8563 139.477 87.2075 139.648 87.6646 139.648C88.1089 139.648 88.4559 139.479 88.7056 139.14C88.9552 138.797 89.0801 138.251 89.0801 137.502C89.0801 136.863 88.9552 136.368 88.7056 136.017C88.4559 135.666 88.1047 135.49 87.6519 135.49C87.2033 135.49 86.8563 135.666 86.6108 136.017C86.3654 136.364 86.2427 136.904 86.2427 137.636ZM91.7588 137.502C91.7588 136.821 91.89 136.214 92.1523 135.681C92.4147 135.147 92.7913 134.735 93.2822 134.443C93.7773 134.151 94.3507 134.005 95.0024 134.005C95.9292 134.005 96.6846 134.288 97.2686 134.855C97.8568 135.423 98.1847 136.193 98.2524 137.166L98.2651 137.636C98.2651 138.689 97.971 139.536 97.3828 140.175C96.7946 140.81 96.0054 141.127 95.0151 141.127C94.0249 141.127 93.2336 140.81 92.6411 140.175C92.0529 139.54 91.7588 138.677 91.7588 137.585V137.502ZM93.5933 137.636C93.5933 138.287 93.716 138.787 93.9614 139.134C94.2069 139.477 94.5581 139.648 95.0151 139.648C95.4595 139.648 95.8065 139.479 96.0562 139.14C96.3058 138.797 96.4307 138.251 96.4307 137.502C96.4307 136.863 96.3058 136.368 96.0562 136.017C95.8065 135.666 95.4552 135.49 95.0024 135.49C94.5539 135.49 94.2069 135.666 93.9614 136.017C93.716 136.364 93.5933 136.904 93.5933 137.636ZM101.591 132.443V134.132H102.766V135.478H101.591V138.905C101.591 139.159 101.64 139.341 101.737 139.451C101.835 139.561 102.021 139.616 102.296 139.616C102.499 139.616 102.679 139.601 102.835 139.572V140.962C102.476 141.072 102.105 141.127 101.725 141.127C100.438 141.127 99.7822 140.477 99.7568 139.178V135.478H98.7539V134.132H99.7568V132.443H101.591ZM107.507 139.102C107.507 138.878 107.395 138.702 107.171 138.575C106.951 138.444 106.595 138.328 106.104 138.226C104.471 137.883 103.654 137.189 103.654 136.144C103.654 135.535 103.906 135.027 104.41 134.621C104.917 134.21 105.58 134.005 106.396 134.005C107.268 134.005 107.964 134.21 108.485 134.621C109.01 135.031 109.272 135.564 109.272 136.22H107.438C107.438 135.958 107.353 135.742 107.184 135.573C107.014 135.399 106.75 135.312 106.39 135.312C106.081 135.312 105.842 135.382 105.673 135.522C105.504 135.662 105.419 135.839 105.419 136.055C105.419 136.258 105.514 136.423 105.705 136.55C105.899 136.673 106.225 136.781 106.682 136.874C107.139 136.963 107.524 137.064 107.837 137.179C108.806 137.534 109.291 138.15 109.291 139.026C109.291 139.652 109.022 140.16 108.485 140.549C107.947 140.934 107.253 141.127 106.403 141.127C105.827 141.127 105.315 141.025 104.867 140.822C104.422 140.615 104.073 140.333 103.819 139.978C103.565 139.618 103.438 139.231 103.438 138.816H105.178C105.195 139.142 105.315 139.392 105.54 139.565C105.764 139.739 106.064 139.826 106.441 139.826C106.792 139.826 107.057 139.76 107.234 139.629C107.416 139.493 107.507 139.318 107.507 139.102Z" fill="#162941"/>
<path opacity="0.5" d="M47.23 186H45.3638V178.313H42.6216V186H40.7554V176.758H47.23V186ZM54.0029 182.782C54.0029 183.861 53.8167 184.688 53.4443 185.264C53.0762 185.839 52.526 186.127 51.7939 186.127C51.2354 186.127 50.7868 185.901 50.4482 185.448V188.641H48.6519V179.132H50.3149L50.3784 179.76C50.7212 179.257 51.1888 179.005 51.7812 179.005C52.5133 179.005 53.0635 179.271 53.4316 179.805C53.804 180.338 53.9945 181.155 54.0029 182.255V182.782ZM52.2129 182.331C52.2129 181.667 52.1388 181.197 51.9907 180.922C51.8468 180.647 51.6014 180.509 51.2544 180.509C50.8862 180.509 50.6175 180.664 50.4482 180.973V184.191C50.609 184.487 50.882 184.635 51.2671 184.635C51.6226 184.635 51.868 184.485 52.0034 184.185C52.1431 183.884 52.2129 183.417 52.2129 182.782V182.331ZM58.3511 186C58.3003 185.894 58.2495 185.716 58.1987 185.467C57.8771 185.907 57.4412 186.127 56.8911 186.127C56.3156 186.127 55.8374 185.937 55.4565 185.556C55.0799 185.175 54.8916 184.682 54.8916 184.077C54.8916 183.357 55.1201 182.801 55.5771 182.407C56.0384 182.014 56.7007 181.813 57.564 181.804H58.1099V181.252C58.1099 180.943 58.057 180.725 57.9512 180.598C57.8454 180.471 57.6909 180.408 57.4878 180.408C57.0392 180.408 56.8149 180.67 56.8149 181.195H55.0186C55.0186 180.56 55.2555 180.037 55.7295 179.627C56.2077 179.212 56.8107 179.005 57.5386 179.005C58.2918 179.005 58.8737 179.202 59.2842 179.595C59.6989 179.985 59.9062 180.543 59.9062 181.271V184.502C59.9147 185.094 59.9993 185.558 60.1602 185.892V186H58.3511ZM57.291 184.718C57.4899 184.718 57.6592 184.678 57.7988 184.597C57.9385 184.517 58.0422 184.422 58.1099 184.312V182.883H57.6782C57.3735 182.883 57.1323 182.981 56.9546 183.175C56.7811 183.37 56.6943 183.63 56.6943 183.956C56.6943 184.464 56.8932 184.718 57.291 184.718ZM61.3218 186V179.132H63.8164C64.6162 179.132 65.2298 179.297 65.6572 179.627C66.0889 179.957 66.3047 180.431 66.3047 181.049C66.3047 181.366 66.2116 181.652 66.0254 181.906C65.8434 182.155 65.5768 182.348 65.2256 182.483C65.653 182.572 65.9894 182.752 66.2349 183.023C66.4845 183.29 66.6094 183.628 66.6094 184.039C66.6094 185.346 65.7863 186 64.1401 186H61.3218ZM63.1118 183.156V184.521H64.1846C64.4173 184.521 64.5802 184.464 64.6733 184.35C64.7664 184.235 64.813 184.068 64.813 183.848C64.813 183.594 64.7622 183.417 64.6606 183.315C64.5591 183.213 64.4131 183.16 64.2227 183.156H63.1118ZM63.1118 181.918H63.8418C64.083 181.918 64.2523 181.868 64.3496 181.766C64.4512 181.66 64.502 181.506 64.502 181.303C64.502 180.858 64.2946 180.628 63.8799 180.611H63.1118V181.918ZM67.4727 182.344C67.4727 181.303 67.7181 180.486 68.209 179.894C68.6999 179.301 69.3791 179.005 70.2466 179.005C71.1226 179.005 71.806 179.301 72.2969 179.894C72.7878 180.486 73.0332 181.307 73.0332 182.356V182.794C73.0332 183.84 72.7899 184.656 72.3032 185.245C71.8166 185.833 71.1353 186.127 70.2593 186.127C69.3791 186.127 68.6935 185.833 68.2026 185.245C67.716 184.652 67.4727 183.831 67.4727 182.782V182.344ZM69.2754 182.794C69.2754 184.022 69.6034 184.635 70.2593 184.635C70.8644 184.635 71.1903 184.123 71.2368 183.099L71.2432 182.344C71.2432 181.717 71.1564 181.254 70.9829 180.954C70.8094 180.649 70.564 180.497 70.2466 180.497C69.9419 180.497 69.7028 180.649 69.5293 180.954C69.36 181.254 69.2754 181.717 69.2754 182.344V182.794ZM73.9473 182.344C73.9473 181.303 74.1927 180.486 74.6836 179.894C75.1745 179.301 75.8537 179.005 76.7212 179.005C77.5972 179.005 78.2806 179.301 78.7715 179.894C79.2624 180.486 79.5078 181.307 79.5078 182.356V182.794C79.5078 183.84 79.2645 184.656 78.7778 185.245C78.2912 185.833 77.6099 186.127 76.7339 186.127C75.8537 186.127 75.1681 185.833 74.6772 185.245C74.1906 184.652 73.9473 183.831 73.9473 182.782V182.344ZM75.75 182.794C75.75 184.022 76.078 184.635 76.7339 184.635C77.339 184.635 77.6649 184.123 77.7114 183.099L77.7178 182.344C77.7178 181.717 77.631 181.254 77.4575 180.954C77.284 180.649 77.0386 180.497 76.7212 180.497C76.4165 180.497 76.1774 180.649 76.0039 180.954C75.8346 181.254 75.75 181.717 75.75 182.344V182.794ZM83.6465 179.513C84.387 179.513 84.9731 179.805 85.4048 180.389C85.8407 180.968 86.0586 181.76 86.0586 182.763V182.858C86.0586 183.857 85.811 184.652 85.3159 185.245C84.8208 185.837 84.1479 186.133 83.2974 186.133C82.4425 186.133 81.7676 185.812 81.2725 185.168C80.7816 184.525 80.5361 183.643 80.5361 182.521V182.236C80.5446 180.704 80.7646 179.496 81.1963 178.611C81.6279 177.723 82.2775 177.166 83.145 176.942C83.5597 176.815 83.8263 176.694 83.9448 176.58C84.0633 176.462 84.1226 176.305 84.1226 176.11H85.5571C85.5571 176.787 85.4048 177.293 85.1001 177.627C84.7954 177.958 84.2516 178.209 83.4688 178.383C83.0329 178.493 82.6965 178.702 82.4595 179.011C82.2225 179.316 82.0638 179.739 81.9834 180.281C82.4616 179.769 83.016 179.513 83.6465 179.513ZM83.291 181.004C82.6774 181.004 82.36 181.544 82.3389 182.623V182.858C82.3389 183.488 82.4193 183.943 82.5801 184.223C82.7451 184.502 82.9842 184.642 83.2974 184.642C83.9194 184.642 84.241 184.089 84.2622 182.985V182.725C84.2622 181.578 83.9385 181.004 83.291 181.004ZM92.3491 179.132V186H90.5527V180.63H89.4863L89.3848 182.75C89.3213 183.85 89.1245 184.665 88.7944 185.194C88.4644 185.719 87.9735 185.987 87.3218 186H86.7378L86.7188 184.502L86.9219 184.477C87.1631 184.443 87.3408 184.267 87.4551 183.95C87.5693 183.632 87.6434 183.112 87.6772 182.388L87.7979 179.132H92.3491ZM96.9194 186C96.8687 185.894 96.8179 185.716 96.7671 185.467C96.4455 185.907 96.0096 186.127 95.4595 186.127C94.884 186.127 94.4058 185.937 94.0249 185.556C93.6483 185.175 93.46 184.682 93.46 184.077C93.46 183.357 93.6885 182.801 94.1455 182.407C94.6068 182.014 95.269 181.813 96.1323 181.804H96.6782V181.252C96.6782 180.943 96.6253 180.725 96.5195 180.598C96.4137 180.471 96.2593 180.408 96.0562 180.408C95.6076 180.408 95.3833 180.67 95.3833 181.195H93.5869C93.5869 180.56 93.8239 180.037 94.2979 179.627C94.776 179.212 95.3791 179.005 96.1069 179.005C96.8602 179.005 97.4421 179.202 97.8525 179.595C98.2673 179.985 98.4746 180.543 98.4746 181.271V184.502C98.4831 185.094 98.5677 185.558 98.7285 185.892V186H96.9194ZM95.8594 184.718C96.0583 184.718 96.2275 184.678 96.3672 184.597C96.5068 184.517 96.6105 184.422 96.6782 184.312V182.883H96.2466C95.9419 182.883 95.7007 182.981 95.5229 183.175C95.3494 183.37 95.2627 183.63 95.2627 183.956C95.2627 184.464 95.4616 184.718 95.8594 184.718ZM99.9155 184.508C100.212 184.17 100.423 183.829 100.55 183.486C100.677 183.144 100.751 182.663 100.772 182.045L100.823 179.132H105.298V184.508H106.206V188.063H104.41V186H101.242V188.063H99.4014V184.508H99.9155ZM101.909 184.508H103.508V180.662H102.594L102.588 181.341C102.575 182.653 102.349 183.708 101.909 184.508ZM110.389 186C110.338 185.894 110.288 185.716 110.237 185.467C109.915 185.907 109.479 186.127 108.929 186.127C108.354 186.127 107.875 185.937 107.495 185.556C107.118 185.175 106.93 184.682 106.93 184.077C106.93 183.357 107.158 182.801 107.615 182.407C108.076 182.014 108.739 181.813 109.602 181.804H110.148V181.252C110.148 180.943 110.095 180.725 109.989 180.598C109.883 180.471 109.729 180.408 109.526 180.408C109.077 180.408 108.853 180.67 108.853 181.195H107.057C107.057 180.56 107.294 180.037 107.768 179.627C108.246 179.212 108.849 179.005 109.577 179.005C110.33 179.005 110.912 179.202 111.322 179.595C111.737 179.985 111.944 180.543 111.944 181.271V184.502C111.953 185.094 112.037 185.558 112.198 185.892V186H110.389ZM109.329 184.718C109.528 184.718 109.697 184.678 109.837 184.597C109.977 184.517 110.08 184.422 110.148 184.312V182.883H109.716C109.412 182.883 109.17 182.981 108.993 183.175C108.819 183.37 108.732 183.63 108.732 183.956C108.732 184.464 108.931 184.718 109.329 184.718ZM118.089 180.611H116.324V186H114.528V180.611H112.776V179.132H118.089V180.611ZM121.415 186.127C120.493 186.127 119.773 185.852 119.257 185.302C118.741 184.752 118.482 183.965 118.482 182.94V182.395C118.482 181.311 118.719 180.475 119.193 179.887C119.667 179.299 120.347 179.005 121.231 179.005C122.094 179.005 122.744 179.282 123.18 179.836C123.616 180.387 123.838 181.203 123.846 182.287V183.169H120.272C120.298 183.677 120.41 184.049 120.609 184.286C120.808 184.519 121.115 184.635 121.529 184.635C122.13 184.635 122.632 184.43 123.034 184.02L123.738 185.105C123.518 185.41 123.199 185.657 122.78 185.848C122.361 186.034 121.906 186.127 121.415 186.127ZM120.285 181.912H122.082V181.747C122.073 181.337 122.005 181.026 121.878 180.814C121.751 180.602 121.531 180.497 121.218 180.497C120.905 180.497 120.677 180.609 120.533 180.833C120.393 181.057 120.311 181.417 120.285 181.912ZM130.054 179.132V186H128.258V180.63H127.191L127.09 182.75C127.026 183.85 126.83 184.665 126.5 185.194C126.169 185.719 125.679 185.987 125.027 186H124.443L124.424 184.502L124.627 184.477C124.868 184.443 125.046 184.267 125.16 183.95C125.274 183.632 125.348 183.112 125.382 182.388L125.503 179.132H130.054ZM133.272 181.131H134.193C135.001 181.131 135.636 181.354 136.097 181.798C136.563 182.242 136.795 182.837 136.795 183.582C136.795 184.309 136.561 184.896 136.091 185.34C135.625 185.78 134.991 186 134.187 186H131.476V179.132H133.272V181.131ZM133.272 182.623V184.521H134.212C134.462 184.521 134.656 184.438 134.796 184.273C134.936 184.108 135.005 183.88 135.005 183.588C135.005 182.945 134.724 182.623 134.161 182.623H133.272Z" fill="#162941"/>
<path opacity="0.5" d="M47.2236 212H45.3638V208.045H42.6089V212H40.7427V202.758H42.6089V206.497H45.3638V202.758H47.2236V212ZM48.4297 208.344C48.4297 207.303 48.6751 206.486 49.166 205.894C49.6569 205.301 50.3361 205.005 51.2036 205.005C52.0796 205.005 52.763 205.301 53.2539 205.894C53.7448 206.486 53.9902 207.307 53.9902 208.356V208.794C53.9902 209.84 53.7469 210.656 53.2603 211.245C52.7736 211.833 52.0923 212.127 51.2163 212.127C50.3361 212.127 49.6506 211.833 49.1597 211.245C48.673 210.652 48.4297 209.831 48.4297 208.782V208.344ZM50.2324 208.794C50.2324 210.022 50.5604 210.635 51.2163 210.635C51.8215 210.635 52.1473 210.123 52.1938 209.099L52.2002 208.344C52.2002 207.717 52.1134 207.254 51.9399 206.954C51.7664 206.649 51.521 206.497 51.2036 206.497C50.8989 206.497 50.6598 206.649 50.4863 206.954C50.3171 207.254 50.2324 207.717 50.2324 208.344V208.794ZM58.7129 209.816L60.0015 205.132H62.2549V212H60.4585V208.325L59.3159 212H58.1162L57.0181 208.445V212H55.228V205.132H57.4434L58.7129 209.816ZM66.5205 212.127C65.598 212.127 64.8786 211.852 64.3623 211.302C63.846 210.752 63.5879 209.965 63.5879 208.94V208.395C63.5879 207.311 63.8249 206.475 64.2988 205.887C64.7728 205.299 65.452 205.005 66.3364 205.005C67.1997 205.005 67.8493 205.282 68.2852 205.836C68.721 206.387 68.9432 207.203 68.9517 208.287V209.169H65.3779C65.4033 209.677 65.5155 210.049 65.7144 210.286C65.9132 210.519 66.2201 210.635 66.6348 210.635C67.2357 210.635 67.7371 210.43 68.1392 210.02L68.8438 211.105C68.6237 211.41 68.3042 211.657 67.8853 211.848C67.4663 212.034 67.0114 212.127 66.5205 212.127ZM65.3906 207.912H67.187V207.747C67.1785 207.337 67.1108 207.026 66.9839 206.814C66.8569 206.602 66.6369 206.497 66.3237 206.497C66.0106 206.497 65.7821 206.609 65.6382 206.833C65.4985 207.057 65.416 207.417 65.3906 207.912ZM75.3184 208.782C75.3184 209.861 75.1322 210.688 74.7598 211.264C74.3916 211.839 73.8415 212.127 73.1094 212.127C72.5508 212.127 72.1022 211.901 71.7637 211.448V214.641H69.9673V205.132H71.6304L71.6938 205.76C72.0366 205.257 72.5042 205.005 73.0967 205.005C73.8288 205.005 74.3789 205.271 74.7471 205.805C75.1195 206.338 75.3099 207.155 75.3184 208.255V208.782ZM73.5283 208.331C73.5283 207.667 73.4543 207.197 73.3062 206.922C73.1623 206.647 72.9168 206.509 72.5698 206.509C72.2017 206.509 71.9329 206.664 71.7637 206.973V210.191C71.9245 210.487 72.1974 210.635 72.5825 210.635C72.938 210.635 73.1834 210.485 73.3188 210.185C73.4585 209.884 73.5283 209.417 73.5283 208.782V208.331ZM84.751 208.782C84.751 209.861 84.5648 210.688 84.1924 211.264C83.8242 211.839 83.2741 212.127 82.542 212.127C81.9834 212.127 81.5348 211.901 81.1963 211.448V214.641H79.3999V205.132H81.063L81.1265 205.76C81.4692 205.257 81.9368 205.005 82.5293 205.005C83.2614 205.005 83.8115 205.271 84.1797 205.805C84.5521 206.338 84.7425 207.155 84.751 208.255V208.782ZM82.9609 208.331C82.9609 207.667 82.8869 207.197 82.7388 206.922C82.5949 206.647 82.3494 206.509 82.0024 206.509C81.6343 206.509 81.3656 206.664 81.1963 206.973V210.191C81.3571 210.487 81.63 210.635 82.0151 210.635C82.3706 210.635 82.616 210.485 82.7515 210.185C82.8911 209.884 82.9609 209.417 82.9609 208.782V208.331ZM88.6104 212.127C87.6878 212.127 86.9684 211.852 86.4521 211.302C85.9359 210.752 85.6777 209.965 85.6777 208.94V208.395C85.6777 207.311 85.9147 206.475 86.3887 205.887C86.8626 205.299 87.5418 205.005 88.4263 205.005C89.2896 205.005 89.9391 205.282 90.375 205.836C90.8109 206.387 91.033 207.203 91.0415 208.287V209.169H87.4678C87.4932 209.677 87.6053 210.049 87.8042 210.286C88.0031 210.519 88.3099 210.635 88.7246 210.635C89.3255 210.635 89.827 210.43 90.229 210.02L90.9336 211.105C90.7135 211.41 90.394 211.657 89.9751 211.848C89.5562 212.034 89.1012 212.127 88.6104 212.127ZM87.4805 207.912H89.2769V207.747C89.2684 207.337 89.2007 207.026 89.0737 206.814C88.9468 206.602 88.7267 206.497 88.4136 206.497C88.1004 206.497 87.8719 206.609 87.728 206.833C87.5884 207.057 87.5059 207.417 87.4805 207.912ZM96.0752 206.63H93.8472V212H92.0508V205.132H96.0752V206.63ZM100.277 205.132H102.067V212H100.277V207.779L98.6777 212H96.875V205.132H98.6777V209.347L100.277 205.132ZM105.863 210.635C106.384 210.635 106.648 210.297 106.657 209.62H108.345C108.337 210.369 108.106 210.974 107.653 211.435C107.201 211.896 106.617 212.127 105.901 212.127C105.017 212.127 104.342 211.852 103.876 211.302C103.411 210.752 103.174 209.941 103.166 208.871V208.325C103.166 207.246 103.394 206.423 103.851 205.855C104.312 205.288 104.992 205.005 105.889 205.005C106.646 205.005 107.243 205.24 107.679 205.709C108.115 206.175 108.337 206.837 108.345 207.696H106.657C106.653 207.311 106.589 207.015 106.466 206.808C106.344 206.6 106.14 206.497 105.857 206.497C105.544 206.497 105.319 206.609 105.184 206.833C105.049 207.053 104.977 207.483 104.968 208.122V208.82C104.968 209.378 104.996 209.77 105.051 209.994C105.106 210.214 105.197 210.377 105.324 210.483C105.451 210.584 105.631 210.635 105.863 210.635ZM114.306 206.611H112.541V212H110.745V206.611H108.993V205.132H114.306V206.611ZM120.615 208.782C120.615 209.861 120.429 210.688 120.057 211.264C119.688 211.839 119.138 212.127 118.406 212.127C117.848 212.127 117.399 211.901 117.061 211.448V214.641H115.264V205.132H116.927L116.991 205.76C117.333 205.257 117.801 205.005 118.394 205.005C119.126 205.005 119.676 205.271 120.044 205.805C120.416 206.338 120.607 207.155 120.615 208.255V208.782ZM118.825 208.331C118.825 207.667 118.751 207.197 118.603 206.922C118.459 206.647 118.214 206.509 117.867 206.509C117.499 206.509 117.23 206.664 117.061 206.973V210.191C117.221 210.487 117.494 210.635 117.879 210.635C118.235 210.635 118.48 210.485 118.616 210.185C118.755 209.884 118.825 209.417 118.825 208.782V208.331ZM124.963 212C124.913 211.894 124.862 211.716 124.811 211.467C124.489 211.907 124.054 212.127 123.503 212.127C122.928 212.127 122.45 211.937 122.069 211.556C121.692 211.175 121.504 210.682 121.504 210.077C121.504 209.357 121.732 208.801 122.189 208.407C122.651 208.014 123.313 207.813 124.176 207.804H124.722V207.252C124.722 206.943 124.669 206.725 124.563 206.598C124.458 206.471 124.303 206.408 124.1 206.408C123.652 206.408 123.427 206.67 123.427 207.195H121.631C121.631 206.56 121.868 206.037 122.342 205.627C122.82 205.212 123.423 205.005 124.151 205.005C124.904 205.005 125.486 205.202 125.896 205.595C126.311 205.985 126.519 206.543 126.519 207.271V210.502C126.527 211.094 126.612 211.558 126.772 211.892V212H124.963ZM123.903 210.718C124.102 210.718 124.271 210.678 124.411 210.597C124.551 210.517 124.654 210.422 124.722 210.312V208.883H124.291C123.986 208.883 123.745 208.981 123.567 209.175C123.393 209.37 123.307 209.63 123.307 209.956C123.307 210.464 123.506 210.718 123.903 210.718ZM127.813 205.132H129.616V210.508H131.209V205.132H133.006V210.521H133.945L133.818 214.038H132.155V212H127.813V205.132ZM138.262 205.132H140.052V212H138.262V207.779L136.662 212H134.859V205.132H136.662V209.347L138.262 205.132ZM144.762 205.132H146.552V212H144.762V207.779L143.162 212H141.359V205.132H143.162V209.347L144.762 205.132Z" fill="#162941"/>
<path opacity="0.5" d="M47.0078 234.921C46.9613 235.975 46.665 236.773 46.1191 237.314C45.5732 237.856 44.8031 238.127 43.8086 238.127C42.7633 238.127 41.9614 237.784 41.4028 237.099C40.8485 236.409 40.5713 235.427 40.5713 234.153V232.598C40.5713 231.329 40.859 230.351 41.4346 229.666C42.0101 228.976 42.8099 228.631 43.834 228.631C44.8411 228.631 45.605 228.912 46.1255 229.475C46.6502 230.038 46.9486 230.846 47.0205 231.9H45.1479C45.131 231.248 45.0295 230.8 44.8433 230.554C44.6613 230.305 44.3249 230.18 43.834 230.18C43.3346 230.18 42.9813 230.355 42.7739 230.707C42.5666 231.054 42.4565 231.627 42.4438 232.427V234.172C42.4438 235.091 42.5454 235.721 42.7485 236.064C42.9559 236.407 43.3092 236.578 43.8086 236.578C44.2995 236.578 44.638 236.46 44.8242 236.223C45.0104 235.981 45.1162 235.548 45.1416 234.921H47.0078ZM53.4189 234.782C53.4189 235.861 53.2327 236.688 52.8604 237.264C52.4922 237.839 51.9421 238.127 51.21 238.127C50.6514 238.127 50.2028 237.901 49.8643 237.448V240.641H48.0679V231.132H49.731L49.7944 231.76C50.1372 231.257 50.6048 231.005 51.1973 231.005C51.9294 231.005 52.4795 231.271 52.8477 231.805C53.2201 232.338 53.4105 233.155 53.4189 234.255V234.782ZM51.6289 234.331C51.6289 233.667 51.5549 233.197 51.4067 232.922C51.2629 232.647 51.0174 232.509 50.6704 232.509C50.3022 232.509 50.0335 232.664 49.8643 232.973V236.191C50.0251 236.487 50.298 236.635 50.6831 236.635C51.0386 236.635 51.284 236.485 51.4194 236.185C51.5591 235.884 51.6289 235.417 51.6289 234.782V234.331ZM54.2949 234.344C54.2949 233.303 54.5404 232.486 55.0312 231.894C55.5221 231.301 56.2013 231.005 57.0688 231.005C57.9448 231.005 58.6283 231.301 59.1191 231.894C59.61 232.486 59.8555 233.307 59.8555 234.356V234.794C59.8555 235.84 59.6121 236.656 59.1255 237.245C58.6388 237.833 57.9575 238.127 57.0815 238.127C56.2013 238.127 55.5158 237.833 55.0249 237.245C54.5382 236.652 54.2949 235.831 54.2949 234.782V234.344ZM56.0977 234.794C56.0977 236.022 56.4256 236.635 57.0815 236.635C57.6867 236.635 58.0125 236.123 58.0591 235.099L58.0654 234.344C58.0654 233.717 57.9787 233.254 57.8052 232.954C57.6317 232.649 57.3862 232.497 57.0688 232.497C56.7642 232.497 56.5251 232.649 56.3516 232.954C56.1823 233.254 56.0977 233.717 56.0977 234.344V234.794ZM63.3657 235.48H62.896V238H61.106V231.132H62.896V233.709H63.3403L64.3813 231.132H66.6348L64.8257 234.299L66.7744 238H64.394L63.3657 235.48ZM75.877 234.782C75.877 235.861 75.6908 236.688 75.3184 237.264C74.9502 237.839 74.4001 238.127 73.668 238.127C73.1094 238.127 72.6608 237.901 72.3223 237.448V240.641H70.5259V231.132H72.189L72.2524 231.76C72.5952 231.257 73.0628 231.005 73.6553 231.005C74.3874 231.005 74.9375 231.271 75.3057 231.805C75.6781 232.338 75.8685 233.155 75.877 234.255V234.782ZM74.0869 234.331C74.0869 233.667 74.0129 233.197 73.8647 232.922C73.7209 232.647 73.4754 232.509 73.1284 232.509C72.7603 232.509 72.4915 232.664 72.3223 232.973V236.191C72.4831 236.487 72.756 236.635 73.1411 236.635C73.4966 236.635 73.742 236.485 73.8774 236.185C74.0171 235.884 74.0869 235.417 74.0869 234.782V234.331ZM79.7363 238.127C78.8138 238.127 78.0944 237.852 77.5781 237.302C77.0618 236.752 76.8037 235.965 76.8037 234.94V234.395C76.8037 233.311 77.0407 232.475 77.5146 231.887C77.9886 231.299 78.6678 231.005 79.5522 231.005C80.4155 231.005 81.0651 231.282 81.501 231.836C81.9368 232.387 82.159 233.203 82.1675 234.287V235.169H78.5938C78.6191 235.677 78.7313 236.049 78.9302 236.286C79.1291 236.519 79.4359 236.635 79.8506 236.635C80.4515 236.635 80.953 236.43 81.355 236.02L82.0596 237.105C81.8395 237.41 81.52 237.657 81.1011 237.848C80.6821 238.034 80.2272 238.127 79.7363 238.127ZM78.6064 233.912H80.4028V233.747C80.3944 233.337 80.3267 233.026 80.1997 232.814C80.0728 232.602 79.8527 232.497 79.5396 232.497C79.2264 232.497 78.9979 232.609 78.854 232.833C78.7144 233.057 78.6318 233.417 78.6064 233.912ZM87.2012 232.63H84.9731V238H83.1768V231.132H87.2012V232.63ZM91.4033 231.132H93.1934V238H91.4033V233.779L89.8037 238H88.001V231.132H89.8037V235.347L91.4033 231.132ZM96.9893 236.635C97.5098 236.635 97.7743 236.297 97.7827 235.62H99.4712C99.4627 236.369 99.2321 236.974 98.7793 237.435C98.3265 237.896 97.7425 238.127 97.0273 238.127C96.1429 238.127 95.4679 237.852 95.0024 237.302C94.5369 236.752 94.3 235.941 94.2915 234.871V234.325C94.2915 233.246 94.52 232.423 94.9771 231.855C95.4383 231.288 96.1175 231.005 97.0146 231.005C97.7721 231.005 98.3688 231.24 98.8047 231.709C99.2406 232.175 99.4627 232.837 99.4712 233.696H97.7827C97.7785 233.311 97.715 233.015 97.5923 232.808C97.4696 232.6 97.2664 232.497 96.9829 232.497C96.6698 232.497 96.4455 232.609 96.3101 232.833C96.1746 233.053 96.1027 233.483 96.0942 234.122V234.82C96.0942 235.378 96.1217 235.77 96.1768 235.994C96.2318 236.214 96.3228 236.377 96.4497 236.483C96.5767 236.584 96.7565 236.635 96.9893 236.635ZM105.432 232.611H103.667V238H101.871V232.611H100.119V231.132H105.432V232.611ZM111.741 234.782C111.741 235.861 111.555 236.688 111.183 237.264C110.814 237.839 110.264 238.127 109.532 238.127C108.974 238.127 108.525 237.901 108.187 237.448V240.641H106.39V231.132H108.053L108.117 231.76C108.459 231.257 108.927 231.005 109.52 231.005C110.252 231.005 110.802 231.271 111.17 231.805C111.542 232.338 111.733 233.155 111.741 234.255V234.782ZM109.951 234.331C109.951 233.667 109.877 233.197 109.729 232.922C109.585 232.647 109.34 232.509 108.993 232.509C108.625 232.509 108.356 232.664 108.187 232.973V236.191C108.347 236.487 108.62 236.635 109.005 236.635C109.361 236.635 109.606 236.485 109.742 236.185C109.881 235.884 109.951 235.417 109.951 234.782V234.331ZM116.089 238C116.039 237.894 115.988 237.716 115.937 237.467C115.615 237.907 115.18 238.127 114.629 238.127C114.054 238.127 113.576 237.937 113.195 237.556C112.818 237.175 112.63 236.682 112.63 236.077C112.63 235.357 112.858 234.801 113.315 234.407C113.777 234.014 114.439 233.813 115.302 233.804H115.848V233.252C115.848 232.943 115.795 232.725 115.689 232.598C115.584 232.471 115.429 232.408 115.226 232.408C114.778 232.408 114.553 232.67 114.553 233.195H112.757C112.757 232.56 112.994 232.037 113.468 231.627C113.946 231.212 114.549 231.005 115.277 231.005C116.03 231.005 116.612 231.202 117.022 231.595C117.437 231.985 117.645 232.543 117.645 233.271V236.502C117.653 237.094 117.738 237.558 117.898 237.892V238H116.089ZM115.029 236.718C115.228 236.718 115.397 236.678 115.537 236.597C115.677 236.517 115.78 236.422 115.848 236.312V234.883H115.417C115.112 234.883 114.871 234.981 114.693 235.175C114.519 235.37 114.433 235.63 114.433 235.956C114.433 236.464 114.632 236.718 115.029 236.718ZM118.939 231.132H120.742V236.508H122.335V231.132H124.132V236.521H125.071L124.944 240.038H123.281V238H118.939V231.132ZM129.388 231.132H131.178V238H129.388V233.779L127.788 238H125.985V231.132H127.788V235.347L129.388 231.132ZM135.888 231.132H137.678V238H135.888V233.779L134.288 238H132.485V231.132H134.288V235.347L135.888 231.132Z" fill="#162941"/>
<path opacity="0.5" d="M43.4341 260.229H42.6216V264H40.7554V254.758H42.6216V258.452H43.25L44.856 254.758H47.1284L44.8687 259.062L47.3823 264H45.1606L43.4341 260.229ZM53.1841 257.132V264H51.3877V258.63H50.3213L50.2197 260.75C50.1562 261.85 49.9595 262.665 49.6294 263.194C49.2993 263.719 48.8084 263.987 48.1567 264H47.5728L47.5537 262.502L47.7568 262.477C47.998 262.443 48.1758 262.267 48.29 261.95C48.4043 261.632 48.4784 261.112 48.5122 260.388L48.6328 257.132H53.1841ZM57.7544 264C57.7036 263.894 57.6528 263.716 57.6021 263.467C57.2804 263.907 56.8446 264.127 56.2944 264.127C55.7189 264.127 55.2407 263.937 54.8599 263.556C54.4832 263.175 54.2949 262.682 54.2949 262.077C54.2949 261.357 54.5234 260.801 54.9805 260.407C55.4417 260.014 56.104 259.813 56.9673 259.804H57.5132V259.252C57.5132 258.943 57.4603 258.725 57.3545 258.598C57.2487 258.471 57.0942 258.408 56.8911 258.408C56.4425 258.408 56.2183 258.67 56.2183 259.195H54.4219C54.4219 258.56 54.6589 258.037 55.1328 257.627C55.611 257.212 56.214 257.005 56.9419 257.005C57.6951 257.005 58.277 257.202 58.6875 257.595C59.1022 257.985 59.3096 258.543 59.3096 259.271V262.502C59.318 263.094 59.4027 263.558 59.5635 263.892V264H57.7544ZM56.6943 262.718C56.8932 262.718 57.0625 262.678 57.2021 262.597C57.3418 262.517 57.4455 262.422 57.5132 262.312V260.883H57.0815C56.7769 260.883 56.5356 260.981 56.3579 261.175C56.1844 261.37 56.0977 261.63 56.0977 261.956C56.0977 262.464 56.2965 262.718 56.6943 262.718ZM63.0928 262.635C63.6133 262.635 63.8778 262.297 63.8862 261.62H65.5747C65.5662 262.369 65.3356 262.974 64.8828 263.435C64.43 263.896 63.846 264.127 63.1309 264.127C62.2464 264.127 61.5715 263.852 61.106 263.302C60.6405 262.752 60.4035 261.941 60.395 260.871V260.325C60.395 259.246 60.6235 258.423 61.0806 257.855C61.5418 257.288 62.221 257.005 63.1182 257.005C63.8757 257.005 64.4723 257.24 64.9082 257.709C65.3441 258.175 65.5662 258.837 65.5747 259.696H63.8862C63.882 259.311 63.8185 259.015 63.6958 258.808C63.5731 258.6 63.37 258.497 63.0864 258.497C62.7733 258.497 62.549 258.609 62.4136 258.833C62.2782 259.053 62.2062 259.483 62.1978 260.122V260.82C62.1978 261.378 62.2253 261.77 62.2803 261.994C62.3353 262.214 62.4263 262.377 62.5532 262.483C62.6802 262.584 62.86 262.635 63.0928 262.635ZM69.0723 262.635C69.5928 262.635 69.8573 262.297 69.8657 261.62H71.5542C71.5457 262.369 71.3151 262.974 70.8623 263.435C70.4095 263.896 69.8255 264.127 69.1104 264.127C68.2259 264.127 67.5509 263.852 67.0854 263.302C66.62 262.752 66.383 261.941 66.3745 260.871V260.325C66.3745 259.246 66.603 258.423 67.0601 257.855C67.5213 257.288 68.2005 257.005 69.0977 257.005C69.8551 257.005 70.4518 257.24 70.8877 257.709C71.3236 258.175 71.5457 258.837 71.5542 259.696H69.8657C69.8615 259.311 69.798 259.015 69.6753 258.808C69.5526 258.6 69.3494 258.497 69.0659 258.497C68.7528 258.497 68.5285 258.609 68.3931 258.833C68.2576 259.053 68.1857 259.483 68.1772 260.122V260.82C68.1772 261.378 68.2048 261.77 68.2598 261.994C68.3148 262.214 68.4058 262.377 68.5327 262.483C68.6597 262.584 68.8395 262.635 69.0723 262.635ZM74.4805 259.131H75.4009C76.2091 259.131 76.8439 259.354 77.3052 259.798C77.7707 260.242 78.0034 260.837 78.0034 261.582C78.0034 262.309 77.7686 262.896 77.2988 263.34C76.8333 263.78 76.1986 264 75.3945 264H72.6841V257.132H74.4805V259.131ZM80.5806 264H78.7842V257.132H80.5806V264ZM74.4805 260.623V262.521H75.4199C75.6696 262.521 75.8643 262.438 76.0039 262.273C76.1436 262.108 76.2134 261.88 76.2134 261.588C76.2134 260.945 75.932 260.623 75.3691 260.623H74.4805Z" fill="#162941"/>
<path d="M185.182 181.677C185.182 182.583 185.03 183.374 184.725 184.051C184.42 184.724 183.989 185.238 183.43 185.594C182.872 185.949 182.22 186.127 181.475 186.127C180.747 186.127 180.102 185.949 179.539 185.594C178.976 185.234 178.538 184.724 178.225 184.064C177.916 183.4 177.757 182.632 177.749 181.76V181.093C177.749 180.205 177.903 179.42 178.212 178.738C178.521 178.057 178.957 177.536 179.52 177.177C180.087 176.813 180.735 176.631 181.462 176.631C182.203 176.631 182.855 176.811 183.417 177.17C183.985 177.526 184.42 178.044 184.725 178.726C185.03 179.403 185.182 180.192 185.182 181.093V181.677ZM183.97 181.081C183.97 179.985 183.75 179.145 183.31 178.561C182.869 177.972 182.254 177.678 181.462 177.678C180.692 177.678 180.085 177.972 179.641 178.561C179.201 179.145 178.974 179.957 178.961 180.998V181.677C178.961 182.739 179.184 183.575 179.628 184.185C180.076 184.79 180.692 185.092 181.475 185.092C182.262 185.092 182.872 184.807 183.303 184.235C183.735 183.66 183.957 182.837 183.97 181.766V181.081ZM194.12 181.677C194.12 182.583 193.967 183.374 193.663 184.051C193.358 184.724 192.926 185.238 192.368 185.594C191.809 185.949 191.157 186.127 190.413 186.127C189.685 186.127 189.039 185.949 188.477 185.594C187.914 185.234 187.476 184.724 187.163 184.064C186.854 183.4 186.695 182.632 186.687 181.76V181.093C186.687 180.205 186.841 179.42 187.15 178.738C187.459 178.057 187.895 177.536 188.458 177.177C189.025 176.813 189.672 176.631 190.4 176.631C191.14 176.631 191.792 176.811 192.355 177.17C192.922 177.526 193.358 178.044 193.663 178.726C193.967 179.403 194.12 180.192 194.12 181.093V181.677ZM192.907 181.081C192.907 179.985 192.687 179.145 192.247 178.561C191.807 177.972 191.191 177.678 190.4 177.678C189.63 177.678 189.022 177.972 188.578 178.561C188.138 179.145 187.912 179.957 187.899 180.998V181.677C187.899 182.739 188.121 183.575 188.565 184.185C189.014 184.79 189.63 185.092 190.413 185.092C191.2 185.092 191.809 184.807 192.241 184.235C192.672 183.66 192.895 182.837 192.907 181.766V181.081ZM203.057 181.677C203.057 182.583 202.905 183.374 202.6 184.051C202.295 184.724 201.864 185.238 201.305 185.594C200.747 185.949 200.095 186.127 199.35 186.127C198.622 186.127 197.977 185.949 197.414 185.594C196.851 185.234 196.413 184.724 196.1 184.064C195.791 183.4 195.632 182.632 195.624 181.76V181.093C195.624 180.205 195.778 179.42 196.087 178.738C196.396 178.057 196.832 177.536 197.395 177.177C197.962 176.813 198.61 176.631 199.337 176.631C200.078 176.631 200.73 176.811 201.292 177.17C201.86 177.526 202.295 178.044 202.6 178.726C202.905 179.403 203.057 180.192 203.057 181.093V181.677ZM201.845 181.081C201.845 179.985 201.625 179.145 201.185 178.561C200.744 177.972 200.129 177.678 199.337 177.678C198.567 177.678 197.96 177.972 197.516 178.561C197.076 179.145 196.849 179.957 196.836 180.998V181.677C196.836 182.739 197.059 183.575 197.503 184.185C197.951 184.79 198.567 185.092 199.35 185.092C200.137 185.092 200.747 184.807 201.178 184.235C201.61 183.66 201.832 182.837 201.845 181.766V181.081ZM208.814 182.521L210.452 185.042H209.557L207.685 182.579V182.458L209.557 179.989H210.452L208.814 182.521ZM210.909 182.521L212.547 185.042H211.652L209.779 182.579V182.458L211.652 179.989H212.547L210.909 182.521ZM221.015 183.067C220.9 184.045 220.539 184.8 219.929 185.333C219.324 185.862 218.518 186.127 217.511 186.127C216.419 186.127 215.543 185.736 214.883 184.953C214.227 184.17 213.899 183.122 213.899 181.811V180.922C213.899 180.063 214.051 179.307 214.356 178.656C214.665 178.004 215.101 177.505 215.664 177.158C216.226 176.806 216.878 176.631 217.619 176.631C218.6 176.631 219.388 176.906 219.98 177.456C220.572 178.002 220.917 178.759 221.015 179.729H219.79C219.684 178.992 219.453 178.459 219.098 178.129C218.746 177.799 218.253 177.634 217.619 177.634C216.84 177.634 216.229 177.922 215.784 178.497C215.344 179.073 215.124 179.891 215.124 180.954V181.849C215.124 182.852 215.333 183.649 215.752 184.242C216.171 184.834 216.757 185.13 217.511 185.13C218.188 185.13 218.706 184.978 219.066 184.673C219.43 184.364 219.671 183.829 219.79 183.067H221.015ZM226.455 184.445L228.791 179.132H230.257V186H229.083V181.004L226.861 186H226.048L223.782 180.896V186H222.608V179.132H224.131L226.455 184.445ZM236.389 186C236.321 185.865 236.266 185.623 236.224 185.276C235.678 185.843 235.026 186.127 234.269 186.127C233.591 186.127 233.035 185.937 232.599 185.556C232.167 185.171 231.952 184.684 231.952 184.096C231.952 183.381 232.222 182.826 232.764 182.433C233.31 182.035 234.076 181.836 235.062 181.836H236.205V181.296C236.205 180.886 236.082 180.56 235.836 180.319C235.591 180.073 235.229 179.951 234.751 179.951C234.332 179.951 233.981 180.056 233.697 180.268C233.414 180.48 233.272 180.736 233.272 181.036H232.091C232.091 180.693 232.212 180.363 232.453 180.046C232.699 179.724 233.029 179.47 233.443 179.284C233.862 179.098 234.321 179.005 234.821 179.005C235.612 179.005 236.232 179.204 236.681 179.602C237.129 179.995 237.362 180.539 237.379 181.233V184.394C237.379 185.025 237.459 185.526 237.62 185.898V186H236.389ZM234.44 185.105C234.808 185.105 235.157 185.01 235.487 184.819C235.817 184.629 236.056 184.381 236.205 184.077V182.667H235.284C233.845 182.667 233.126 183.089 233.126 183.931C233.126 184.299 233.249 184.587 233.494 184.794C233.74 185.001 234.055 185.105 234.44 185.105ZM245.021 182.642C245.021 183.687 244.782 184.529 244.304 185.168C243.826 185.807 243.179 186.127 242.362 186.127C241.528 186.127 240.872 185.862 240.394 185.333V188.641H239.22V179.132H240.292L240.35 179.894C240.828 179.301 241.492 179.005 242.343 179.005C243.168 179.005 243.82 179.316 244.298 179.938C244.78 180.56 245.021 181.425 245.021 182.534V182.642ZM243.847 182.509C243.847 181.734 243.682 181.123 243.352 180.674C243.022 180.226 242.569 180.001 241.994 180.001C241.283 180.001 240.75 180.317 240.394 180.947V184.229C240.745 184.855 241.283 185.168 242.006 185.168C242.569 185.168 243.016 184.946 243.346 184.502C243.68 184.053 243.847 183.389 243.847 182.509ZM251.115 180.084H248.811V186H247.637V180.084H245.377V179.132H251.115V180.084ZM258.079 177.761H253.623V180.528H255.92C256.885 180.541 257.639 180.789 258.18 181.271C258.722 181.753 258.993 182.409 258.993 183.239C258.993 184.072 258.72 184.737 258.174 185.232C257.628 185.727 256.883 185.983 255.939 186H252.397V176.758H258.079V177.761ZM253.623 181.531V185.003H255.851C256.456 185.003 256.925 184.843 257.26 184.521C257.598 184.199 257.768 183.768 257.768 183.226C257.768 182.706 257.605 182.295 257.279 181.995C256.957 181.694 256.498 181.54 255.901 181.531H253.623ZM262.706 184.28L264.306 179.132H265.562L262.801 187.06C262.374 188.203 261.695 188.774 260.764 188.774L260.542 188.755L260.104 188.672V187.72L260.421 187.746C260.819 187.746 261.128 187.665 261.348 187.504C261.572 187.344 261.756 187.049 261.9 186.622L262.16 185.924L259.71 179.132H260.992L262.706 184.28ZM271.72 180.084H269.416V186H268.241V180.084H265.981V179.132H271.72V180.084ZM275.109 185.168C275.528 185.168 275.894 185.042 276.208 184.788C276.521 184.534 276.694 184.216 276.728 183.835H277.839C277.818 184.229 277.682 184.604 277.433 184.959C277.183 185.314 276.849 185.598 276.43 185.81C276.015 186.021 275.575 186.127 275.109 186.127C274.174 186.127 273.429 185.816 272.875 185.194C272.325 184.568 272.05 183.713 272.05 182.629V182.433C272.05 181.764 272.173 181.169 272.418 180.649C272.663 180.128 273.015 179.724 273.472 179.437C273.933 179.149 274.477 179.005 275.103 179.005C275.873 179.005 276.512 179.236 277.02 179.697C277.532 180.158 277.805 180.757 277.839 181.493H276.728C276.694 181.049 276.525 180.685 276.22 180.401C275.92 180.114 275.547 179.97 275.103 179.97C274.506 179.97 274.043 180.186 273.713 180.617C273.387 181.045 273.224 181.665 273.224 182.477V182.699C273.224 183.491 273.387 184.1 273.713 184.527C274.039 184.955 274.504 185.168 275.109 185.168ZM279.819 179.976L281.692 182.445V182.566L279.819 185.035H278.918L280.556 182.509L278.918 179.976H279.819ZM282.035 179.976L283.907 182.445V182.566L282.035 185.035H281.133L282.771 182.509L281.133 179.976H282.035Z" fill="#162941"/>
<path d="M182.726 208.896H184.008V209.854H182.726V212H181.545V209.854H177.336V209.163L181.475 202.758H182.726V208.896ZM178.669 208.896H181.545V204.364L181.405 204.618L178.669 208.896ZM185.607 207.366L186.077 202.758H190.812V203.843H187.074L186.794 206.363C187.247 206.097 187.761 205.963 188.337 205.963C189.179 205.963 189.848 206.243 190.343 206.801C190.838 207.356 191.085 208.107 191.085 209.055C191.085 210.007 190.827 210.758 190.311 211.308C189.799 211.854 189.082 212.127 188.159 212.127C187.342 212.127 186.676 211.901 186.16 211.448C185.643 210.995 185.349 210.369 185.277 209.569H186.388C186.46 210.098 186.648 210.498 186.953 210.769C187.258 211.035 187.66 211.168 188.159 211.168C188.705 211.168 189.132 210.982 189.441 210.61C189.755 210.237 189.911 209.723 189.911 209.067C189.911 208.45 189.742 207.954 189.403 207.582C189.069 207.205 188.623 207.017 188.064 207.017C187.552 207.017 187.15 207.129 186.858 207.354L186.547 207.607L185.607 207.366ZM197.973 205.17C197.973 205.631 197.85 206.042 197.604 206.401C197.363 206.761 197.035 207.042 196.621 207.246C197.103 207.453 197.484 207.756 197.763 208.153C198.047 208.551 198.188 209.002 198.188 209.505C198.188 210.305 197.918 210.942 197.376 211.416C196.839 211.89 196.13 212.127 195.25 212.127C194.361 212.127 193.648 211.89 193.11 211.416C192.577 210.938 192.311 210.301 192.311 209.505C192.311 209.006 192.446 208.555 192.717 208.153C192.992 207.751 193.371 207.447 193.853 207.239C193.443 207.036 193.119 206.755 192.882 206.395C192.645 206.035 192.526 205.627 192.526 205.17C192.526 204.391 192.776 203.773 193.275 203.316C193.775 202.859 194.433 202.631 195.25 202.631C196.062 202.631 196.718 202.859 197.217 203.316C197.721 203.773 197.973 204.391 197.973 205.17ZM197.014 209.48C197.014 208.964 196.849 208.543 196.519 208.217C196.193 207.891 195.766 207.728 195.237 207.728C194.708 207.728 194.283 207.889 193.961 208.21C193.644 208.532 193.485 208.955 193.485 209.48C193.485 210.005 193.639 210.417 193.948 210.718C194.261 211.018 194.695 211.168 195.25 211.168C195.8 211.168 196.231 211.018 196.544 210.718C196.858 210.413 197.014 210 197.014 209.48ZM195.25 203.596C194.788 203.596 194.414 203.74 194.126 204.027C193.842 204.311 193.701 204.698 193.701 205.189C193.701 205.659 193.84 206.04 194.12 206.332C194.403 206.619 194.78 206.763 195.25 206.763C195.719 206.763 196.094 206.619 196.373 206.332C196.657 206.04 196.798 205.659 196.798 205.189C196.798 204.719 196.652 204.336 196.36 204.04C196.068 203.744 195.698 203.596 195.25 203.596ZM205.463 208.058C205.463 209.433 205.228 210.455 204.758 211.124C204.289 211.793 203.554 212.127 202.556 212.127C201.57 212.127 200.84 211.801 200.366 211.149C199.892 210.493 199.646 209.516 199.629 208.217V206.649C199.629 205.291 199.864 204.281 200.334 203.621C200.804 202.961 201.54 202.631 202.543 202.631C203.537 202.631 204.27 202.95 204.739 203.589C205.209 204.224 205.45 205.206 205.463 206.535V208.058ZM204.289 206.452C204.289 205.458 204.149 204.734 203.87 204.281C203.59 203.824 203.148 203.596 202.543 203.596C201.942 203.596 201.504 203.822 201.229 204.275C200.954 204.728 200.812 205.424 200.804 206.363V208.242C200.804 209.241 200.948 209.979 201.235 210.458C201.527 210.931 201.967 211.168 202.556 211.168C203.135 211.168 203.565 210.944 203.844 210.496C204.128 210.047 204.276 209.34 204.289 208.375V206.452ZM208.675 206.808H209.557C210.111 206.799 210.547 206.653 210.865 206.37C211.182 206.086 211.341 205.703 211.341 205.221C211.341 204.137 210.801 203.596 209.722 203.596C209.214 203.596 208.808 203.742 208.503 204.034C208.203 204.321 208.053 204.704 208.053 205.183H206.878C206.878 204.451 207.145 203.843 207.678 203.361C208.216 202.874 208.897 202.631 209.722 202.631C210.594 202.631 211.277 202.861 211.772 203.323C212.268 203.784 212.515 204.425 212.515 205.246C212.515 205.648 212.384 206.037 212.122 206.414C211.863 206.791 211.51 207.072 211.062 207.258C211.569 207.419 211.961 207.686 212.236 208.058C212.515 208.431 212.655 208.885 212.655 209.423C212.655 210.252 212.384 210.91 211.842 211.397C211.301 211.884 210.596 212.127 209.729 212.127C208.861 212.127 208.154 211.892 207.608 211.422C207.067 210.953 206.796 210.333 206.796 209.562H207.977C207.977 210.049 208.135 210.438 208.453 210.73C208.77 211.022 209.195 211.168 209.729 211.168C210.296 211.168 210.729 211.02 211.03 210.724C211.33 210.428 211.48 210.003 211.48 209.448C211.48 208.911 211.315 208.498 210.985 208.21C210.655 207.923 210.179 207.775 209.557 207.766H208.675V206.808ZM219.872 205.17C219.872 205.631 219.749 206.042 219.504 206.401C219.263 206.761 218.935 207.042 218.52 207.246C219.002 207.453 219.383 207.756 219.663 208.153C219.946 208.551 220.088 209.002 220.088 209.505C220.088 210.305 219.817 210.942 219.275 211.416C218.738 211.89 218.029 212.127 217.149 212.127C216.26 212.127 215.547 211.89 215.01 211.416C214.477 210.938 214.21 210.301 214.21 209.505C214.21 209.006 214.345 208.555 214.616 208.153C214.891 207.751 215.27 207.447 215.752 207.239C215.342 207.036 215.018 206.755 214.781 206.395C214.544 206.035 214.426 205.627 214.426 205.17C214.426 204.391 214.675 203.773 215.175 203.316C215.674 202.859 216.332 202.631 217.149 202.631C217.961 202.631 218.617 202.859 219.117 203.316C219.62 203.773 219.872 204.391 219.872 205.17ZM218.914 209.48C218.914 208.964 218.749 208.543 218.418 208.217C218.093 207.891 217.665 207.728 217.136 207.728C216.607 207.728 216.182 207.889 215.86 208.21C215.543 208.532 215.384 208.955 215.384 209.48C215.384 210.005 215.539 210.417 215.848 210.718C216.161 211.018 216.595 211.168 217.149 211.168C217.699 211.168 218.131 211.018 218.444 210.718C218.757 210.413 218.914 210 218.914 209.48ZM217.149 203.596C216.688 203.596 216.313 203.74 216.025 204.027C215.742 204.311 215.6 204.698 215.6 205.189C215.6 205.659 215.74 206.04 216.019 206.332C216.303 206.619 216.679 206.763 217.149 206.763C217.619 206.763 217.993 206.619 218.272 206.332C218.556 206.04 218.698 205.659 218.698 205.189C218.698 204.719 218.552 204.336 218.26 204.04C217.968 203.744 217.597 203.596 217.149 203.596ZM227.534 203.418L223.706 212H222.475L226.29 203.723H221.288V202.758H227.534V203.418ZM232.726 212H231.545V204.173L229.178 205.043V203.977L232.542 202.713H232.726V212ZM240.775 202.751V203.748H240.559C239.645 203.765 238.917 204.036 238.375 204.561C237.834 205.085 237.521 205.824 237.436 206.776C237.923 206.217 238.587 205.938 239.429 205.938C240.233 205.938 240.874 206.222 241.353 206.789C241.835 207.356 242.076 208.088 242.076 208.985C242.076 209.937 241.816 210.699 241.295 211.27C240.779 211.841 240.085 212.127 239.213 212.127C238.329 212.127 237.612 211.788 237.062 211.111C236.511 210.43 236.236 209.554 236.236 208.483V208.033C236.236 206.332 236.598 205.032 237.322 204.135C238.05 203.234 239.131 202.773 240.565 202.751H240.775ZM239.232 206.916C238.83 206.916 238.46 207.036 238.122 207.277C237.783 207.519 237.548 207.821 237.417 208.185V208.617C237.417 209.378 237.588 209.992 237.931 210.458C238.274 210.923 238.701 211.156 239.213 211.156C239.742 211.156 240.157 210.961 240.458 210.572C240.762 210.182 240.915 209.673 240.915 209.042C240.915 208.407 240.76 207.895 240.451 207.506C240.146 207.112 239.74 206.916 239.232 206.916ZM248.424 208.896H249.706V209.854H248.424V212H247.243V209.854H243.035V209.163L247.173 202.758H248.424V208.896ZM244.368 208.896H247.243V204.364L247.104 204.618L244.368 208.896ZM255.267 207.938C255.021 208.229 254.727 208.464 254.384 208.642C254.046 208.82 253.673 208.909 253.267 208.909C252.734 208.909 252.268 208.778 251.871 208.515C251.477 208.253 251.172 207.885 250.957 207.411C250.741 206.932 250.633 206.406 250.633 205.83C250.633 205.212 250.749 204.656 250.982 204.161C251.219 203.666 251.553 203.287 251.985 203.024C252.417 202.762 252.92 202.631 253.496 202.631C254.41 202.631 255.129 202.974 255.654 203.659C256.183 204.34 256.447 205.271 256.447 206.452V206.795C256.447 208.593 256.092 209.907 255.381 210.737C254.67 211.562 253.597 211.985 252.163 212.006H251.934V211.016H252.182C253.151 210.999 253.896 210.747 254.416 210.261C254.937 209.77 255.22 208.995 255.267 207.938ZM253.458 207.938C253.851 207.938 254.213 207.817 254.543 207.576C254.877 207.334 255.121 207.036 255.273 206.681V206.211C255.273 205.441 255.106 204.814 254.771 204.332C254.437 203.85 254.014 203.608 253.502 203.608C252.986 203.608 252.571 203.807 252.258 204.205C251.945 204.599 251.788 205.119 251.788 205.767C251.788 206.397 251.938 206.918 252.239 207.328C252.543 207.734 252.95 207.938 253.458 207.938Z" fill="#162941"/>
<path d="M181.627 238H180.447V230.173L178.079 231.043V229.977L181.443 228.713H181.627V238ZM185.607 233.366L186.077 228.758H190.812V229.843H187.074L186.794 232.363C187.247 232.097 187.761 231.963 188.337 231.963C189.179 231.963 189.848 232.243 190.343 232.801C190.838 233.356 191.085 234.107 191.085 235.055C191.085 236.007 190.827 236.758 190.311 237.308C189.799 237.854 189.082 238.127 188.159 238.127C187.342 238.127 186.676 237.901 186.16 237.448C185.643 236.995 185.349 236.369 185.277 235.569H186.388C186.46 236.098 186.648 236.498 186.953 236.769C187.258 237.035 187.66 237.168 188.159 237.168C188.705 237.168 189.132 236.982 189.441 236.61C189.755 236.237 189.911 235.723 189.911 235.067C189.911 234.45 189.742 233.954 189.403 233.582C189.069 233.205 188.623 233.017 188.064 233.017C187.552 233.017 187.15 233.129 186.858 233.354L186.547 233.607L185.607 233.366ZM192.514 237.384C192.514 237.181 192.573 237.012 192.691 236.876C192.814 236.741 192.996 236.673 193.237 236.673C193.479 236.673 193.66 236.741 193.783 236.876C193.91 237.012 193.974 237.181 193.974 237.384C193.974 237.579 193.91 237.742 193.783 237.873C193.66 238.004 193.479 238.07 193.237 238.07C192.996 238.07 192.814 238.004 192.691 237.873C192.573 237.742 192.514 237.579 192.514 237.384ZM201.591 234.058C201.591 235.433 201.356 236.455 200.886 237.124C200.417 237.793 199.682 238.127 198.684 238.127C197.698 238.127 196.968 237.801 196.494 237.149C196.02 236.493 195.774 235.516 195.757 234.217V232.649C195.757 231.291 195.992 230.281 196.462 229.621C196.932 228.961 197.668 228.631 198.671 228.631C199.665 228.631 200.397 228.95 200.867 229.589C201.337 230.224 201.578 231.206 201.591 232.535V234.058ZM200.417 232.452C200.417 231.458 200.277 230.734 199.998 230.281C199.718 229.824 199.276 229.596 198.671 229.596C198.07 229.596 197.632 229.822 197.357 230.275C197.082 230.728 196.94 231.424 196.932 232.363V234.242C196.932 235.241 197.076 235.979 197.363 236.458C197.655 236.931 198.095 237.168 198.684 237.168C199.263 237.168 199.693 236.944 199.972 236.496C200.256 236.047 200.404 235.34 200.417 234.375V232.452ZM208.053 234.896H209.335V235.854H208.053V238H206.872V235.854H202.664V235.163L206.802 228.758H208.053V234.896ZM203.997 234.896H206.872V230.364L206.732 230.618L203.997 234.896ZM210.541 237.384C210.541 237.181 210.6 237.012 210.719 236.876C210.841 236.741 211.023 236.673 211.265 236.673C211.506 236.673 211.688 236.741 211.811 236.876C211.938 237.012 212.001 237.181 212.001 237.384C212.001 237.579 211.938 237.742 211.811 237.873C211.688 238.004 211.506 238.07 211.265 238.07C211.023 238.07 210.841 238.004 210.719 237.873C210.6 237.742 210.541 237.579 210.541 237.384ZM219.878 238H213.823V237.156L217.022 233.601C217.496 233.064 217.822 232.628 218 232.293C218.181 231.955 218.272 231.606 218.272 231.246C218.272 230.764 218.126 230.368 217.834 230.059C217.542 229.75 217.153 229.596 216.667 229.596C216.083 229.596 215.628 229.763 215.302 230.097C214.98 230.427 214.819 230.889 214.819 231.481H213.645C213.645 230.63 213.918 229.943 214.464 229.418C215.014 228.893 215.748 228.631 216.667 228.631C217.526 228.631 218.205 228.857 218.704 229.31C219.203 229.759 219.453 230.357 219.453 231.106C219.453 232.016 218.873 233.1 217.714 234.356L215.238 237.042H219.878V238ZM226.918 234.058C226.918 235.433 226.683 236.455 226.213 237.124C225.744 237.793 225.009 238.127 224.011 238.127C223.025 238.127 222.295 237.801 221.821 237.149C221.347 236.493 221.101 235.516 221.084 234.217V232.649C221.084 231.291 221.319 230.281 221.789 229.621C222.259 228.961 222.995 228.631 223.998 228.631C224.993 228.631 225.725 228.95 226.194 229.589C226.664 230.224 226.905 231.206 226.918 232.535V234.058ZM225.744 232.452C225.744 231.458 225.604 230.734 225.325 230.281C225.045 229.824 224.603 229.596 223.998 229.596C223.397 229.596 222.959 229.822 222.684 230.275C222.409 230.728 222.267 231.424 222.259 232.363V234.242C222.259 235.241 222.403 235.979 222.69 236.458C222.982 236.931 223.423 237.168 224.011 237.168C224.59 237.168 225.02 236.944 225.299 236.496C225.583 236.047 225.731 235.34 225.744 234.375V232.452ZM234.478 238H228.422V237.156L231.622 233.601C232.096 233.064 232.421 232.628 232.599 232.293C232.781 231.955 232.872 231.606 232.872 231.246C232.872 230.764 232.726 230.368 232.434 230.059C232.142 229.75 231.753 229.596 231.266 229.596C230.682 229.596 230.227 229.763 229.901 230.097C229.58 230.427 229.419 230.889 229.419 231.481H228.245C228.245 230.63 228.518 229.943 229.063 229.418C229.614 228.893 230.348 228.631 231.266 228.631C232.125 228.631 232.804 228.857 233.304 229.31C233.803 229.759 234.053 230.357 234.053 231.106C234.053 232.016 233.473 233.1 232.313 234.356L229.838 237.042H234.478V238ZM241.518 234.058C241.518 235.433 241.283 236.455 240.813 237.124C240.343 237.793 239.609 238.127 238.61 238.127C237.624 238.127 236.894 237.801 236.42 237.149C235.946 236.493 235.701 235.516 235.684 234.217V232.649C235.684 231.291 235.919 230.281 236.389 229.621C236.858 228.961 237.595 228.631 238.598 228.631C239.592 228.631 240.324 228.95 240.794 229.589C241.264 230.224 241.505 231.206 241.518 232.535V234.058ZM240.343 232.452C240.343 231.458 240.204 230.734 239.924 230.281C239.645 229.824 239.203 229.596 238.598 229.596C237.997 229.596 237.559 229.822 237.284 230.275C237.009 230.728 236.867 231.424 236.858 232.363V234.242C236.858 235.241 237.002 235.979 237.29 236.458C237.582 236.931 238.022 237.168 238.61 237.168C239.19 237.168 239.62 236.944 239.899 236.496C240.182 236.047 240.331 235.34 240.343 234.375V232.452Z" fill="#162941"/>
<path d="M182.269 259.938C182.023 260.229 181.729 260.464 181.386 260.642C181.048 260.82 180.675 260.909 180.269 260.909C179.736 260.909 179.27 260.778 178.873 260.515C178.479 260.253 178.174 259.885 177.958 259.411C177.743 258.932 177.635 258.406 177.635 257.83C177.635 257.212 177.751 256.656 177.984 256.161C178.221 255.666 178.555 255.287 178.987 255.024C179.418 254.762 179.922 254.631 180.498 254.631C181.412 254.631 182.131 254.974 182.656 255.659C183.185 256.34 183.449 257.271 183.449 258.452V258.795C183.449 260.593 183.094 261.907 182.383 262.737C181.672 263.562 180.599 263.985 179.165 264.006H178.936V263.016H179.184C180.153 262.999 180.897 262.747 181.418 262.261C181.938 261.77 182.222 260.995 182.269 259.938ZM180.459 259.938C180.853 259.938 181.215 259.817 181.545 259.576C181.879 259.334 182.123 259.036 182.275 258.681V258.211C182.275 257.441 182.108 256.814 181.773 256.332C181.439 255.85 181.016 255.608 180.504 255.608C179.988 255.608 179.573 255.807 179.26 256.205C178.947 256.599 178.79 257.119 178.79 257.767C178.79 258.397 178.94 258.918 179.241 259.328C179.545 259.734 179.952 259.938 180.459 259.938ZM185.15 265.841L184.484 265.384C184.882 264.829 185.089 264.258 185.106 263.67V262.61H186.255V263.53C186.255 263.958 186.149 264.385 185.938 264.812C185.73 265.24 185.468 265.583 185.15 265.841ZM192.552 258.808H193.434C193.988 258.799 194.424 258.653 194.742 258.37C195.059 258.086 195.218 257.703 195.218 257.221C195.218 256.137 194.678 255.596 193.599 255.596C193.091 255.596 192.685 255.742 192.38 256.034C192.08 256.321 191.93 256.704 191.93 257.183H190.755C190.755 256.451 191.022 255.843 191.555 255.361C192.093 254.874 192.774 254.631 193.599 254.631C194.471 254.631 195.154 254.861 195.649 255.323C196.145 255.784 196.392 256.425 196.392 257.246C196.392 257.648 196.261 258.037 195.999 258.414C195.74 258.791 195.387 259.072 194.938 259.258C195.446 259.419 195.838 259.686 196.113 260.058C196.392 260.431 196.532 260.885 196.532 261.423C196.532 262.252 196.261 262.91 195.719 263.397C195.178 263.884 194.473 264.127 193.605 264.127C192.738 264.127 192.031 263.892 191.485 263.422C190.944 262.953 190.673 262.333 190.673 261.562H191.854C191.854 262.049 192.012 262.438 192.33 262.73C192.647 263.022 193.072 263.168 193.605 263.168C194.173 263.168 194.606 263.02 194.907 262.724C195.207 262.428 195.357 262.003 195.357 261.448C195.357 260.911 195.192 260.498 194.862 260.21C194.532 259.923 194.056 259.775 193.434 259.766H192.552V258.808ZM198.684 259.366L199.153 254.758H203.889V255.843H200.15L199.871 258.363C200.323 258.097 200.838 257.963 201.413 257.963C202.255 257.963 202.924 258.243 203.419 258.801C203.914 259.356 204.162 260.107 204.162 261.055C204.162 262.007 203.903 262.758 203.387 263.308C202.875 263.854 202.158 264.127 201.235 264.127C200.419 264.127 199.752 263.901 199.236 263.448C198.72 262.995 198.425 262.369 198.354 261.569H199.464C199.536 262.098 199.725 262.498 200.029 262.769C200.334 263.035 200.736 263.168 201.235 263.168C201.781 263.168 202.209 262.982 202.518 262.61C202.831 262.237 202.987 261.723 202.987 261.067C202.987 260.45 202.818 259.954 202.479 259.582C202.145 259.205 201.699 259.017 201.14 259.017C200.628 259.017 200.226 259.129 199.934 259.354L199.623 259.607L198.684 259.366Z" fill="#162941"/>
<circle cx="272" cy="18" r="8" fill="#929FAB"/>
<circle cx="294" cy="18" r="8" fill="#929FAB"/>
<circle cx="316" cy="18" r="8" fill="#929FAB"/>
<defs>
<filter id="filter0_d" x="5" y="55" width="325" height="70" filterUnits="userSpaceOnUse" color-interpolation-filters="sRGB">
<feFlood flood-opacity="0" result="BackgroundImageFix"/>
<feColorMatrix in="SourceAlpha" type="matrix" values="0 0 0 0 0 0 0 0 0 0 0 0 0 0 0 0 0 0 127 0"/>
<feOffset dy="5"/>
<feGaussianBlur stdDeviation="7.5"/>
<feColorMatrix type="matrix" values="0 0 0 0 0.0823529 0 0 0 0 0.141176 0 0 0 0 0.219608 0 0 0 0.15 0"/>
<feBlend mode="normal" in2="BackgroundImageFix" result="effect1_dropShadow"/>
<feBlend mode="normal" in="SourceGraphic" in2="effect1_dropShadow" result="shape"/>
</filter>
<filter id="filter1_d" x="5" y="105" width="325" height="197" filterUnits="userSpaceOnUse" color-interpolation-filters="sRGB">
<feFlood flood-opacity="0" result="BackgroundImageFix"/>
<feColorMatrix in="SourceAlpha" type="matrix" values="0 0 0 0 0 0 0 0 0 0 0 0 0 0 0 0 0 0 127 0"/>
<feOffset dy="5"/>
<feGaussianBlur stdDeviation="7.5"/>
<feColorMatrix type="matrix" values="0 0 0 0 0.0823529 0 0 0 0 0.141176 0 0 0 0 0.219608 0 0 0 0.15 0"/>
<feBlend mode="normal" in2="BackgroundImageFix" result="effect1_dropShadow"/>
<feBlend mode="normal" in="SourceGraphic" in2="effect1_dropShadow" result="shape"/>
</filter>
<linearGradient id="paint0_linear" x1="167.5" y1="0" x2="167.5" y2="36" gradientUnits="userSpaceOnUse">
<stop stop-color="#ECECEB"/>
<stop offset="1" stop-color="#D7D7D7"/>
</linearGradient>
</defs>
</svg>
