<svg width="335" height="312" viewBox="0 0 335 312" fill="none" xmlns="http://www.w3.org/2000/svg">
<rect x="0.5" y="0.5" width="334" height="311" rx="9.5" fill="#EBEDF2" stroke="#CCDBDE"/>
<path d="M0.5 10C0.5 4.7533 4.75329 0.5 10 0.5H325C330.247 0.5 334.5 4.7533 334.5 10V35.5H0.5V10Z" fill="url(#paint0_linear)" stroke="#CCDBDE"/>
<g filter="url(#filter0_d)">
<rect x="20" y="61" width="295" height="72" rx="5" fill="white"/>
</g>
<path d="M51.9155 88H50.9165V81.3774L48.9131 82.1133V81.2109L51.7598 80.1421H51.9155V88ZM59.7305 84.6646C59.7305 85.8283 59.5317 86.693 59.1343 87.2588C58.7368 87.8245 58.1156 88.1074 57.2705 88.1074C56.4362 88.1074 55.8185 87.8317 55.4175 87.2803C55.0164 86.7253 54.8088 85.8981 54.7944 84.7988V83.4722C54.7944 82.3228 54.9932 81.4688 55.3906 80.9102C55.7881 80.3516 56.4111 80.0723 57.2598 80.0723C58.1012 80.0723 58.7207 80.3426 59.1182 80.8833C59.5156 81.4204 59.7197 82.2511 59.7305 83.3755V84.6646ZM58.7368 83.3057C58.7368 82.4642 58.6187 81.8519 58.3823 81.4688C58.146 81.082 57.7718 80.8887 57.2598 80.8887C56.7513 80.8887 56.3807 81.0802 56.1479 81.4634C55.9152 81.8465 55.7952 82.4355 55.7881 83.2305V84.8203C55.7881 85.6654 55.9098 86.2902 56.1533 86.6948C56.4004 87.0959 56.7728 87.2964 57.2705 87.2964C57.7611 87.2964 58.1245 87.1066 58.3608 86.7271C58.6007 86.3475 58.7261 85.7495 58.7368 84.9331V83.3057ZM61.127 87.479C61.127 87.3071 61.1771 87.1639 61.2773 87.0493C61.3812 86.9347 61.5352 86.8774 61.7393 86.8774C61.9434 86.8774 62.0973 86.9347 62.2012 87.0493C62.3086 87.1639 62.3623 87.3071 62.3623 87.479C62.3623 87.6437 62.3086 87.7816 62.2012 87.8926C62.0973 88.0036 61.9434 88.0591 61.7393 88.0591C61.5352 88.0591 61.3812 88.0036 61.2773 87.8926C61.1771 87.7816 61.127 87.6437 61.127 87.479ZM68.8076 84.6646C68.8076 85.8283 68.6089 86.693 68.2114 87.2588C67.814 87.8245 67.1927 88.1074 66.3477 88.1074C65.5133 88.1074 64.8957 87.8317 64.4946 87.2803C64.0936 86.7253 63.8859 85.8981 63.8716 84.7988V83.4722C63.8716 82.3228 64.0703 81.4688 64.4678 80.9102C64.8652 80.3516 65.4883 80.0723 66.3369 80.0723C67.1784 80.0723 67.7979 80.3426 68.1953 80.8833C68.5928 81.4204 68.7969 82.2511 68.8076 83.3755V84.6646ZM67.814 83.3057C67.814 82.4642 67.6958 81.8519 67.4595 81.4688C67.2231 81.082 66.849 80.8887 66.3369 80.8887C65.8285 80.8887 65.4578 81.0802 65.2251 81.4634C64.9924 81.8465 64.8724 82.4355 64.8652 83.2305V84.8203C64.8652 85.6654 64.987 86.2902 65.2305 86.6948C65.4775 87.0959 65.8499 87.2964 66.3477 87.2964C66.8382 87.2964 67.2017 87.1066 67.438 86.7271C67.6779 86.3475 67.8032 85.7495 67.814 84.9331V83.3057ZM73.3462 88H72.3472V81.3774L70.3438 82.1133V81.2109L73.1904 80.1421H73.3462V88ZM76.3809 87.479C76.3809 87.3071 76.431 87.1639 76.5312 87.0493C76.6351 86.9347 76.7891 86.8774 76.9932 86.8774C77.1973 86.8774 77.3512 86.9347 77.4551 87.0493C77.5625 87.1639 77.6162 87.3071 77.6162 87.479C77.6162 87.6437 77.5625 87.7816 77.4551 87.8926C77.3512 88.0036 77.1973 88.0591 76.9932 88.0591C76.7891 88.0591 76.6351 88.0036 76.5312 87.8926C76.431 87.7816 76.3809 87.6437 76.3809 87.479ZM84.2817 88H79.1577V87.2856L81.8647 84.2778C82.2658 83.8231 82.5415 83.4543 82.6919 83.1714C82.8459 82.8849 82.9229 82.5895 82.9229 82.2852C82.9229 81.877 82.7993 81.5422 82.5522 81.2808C82.3052 81.0194 81.9757 80.8887 81.564 80.8887C81.0698 80.8887 80.6849 81.0301 80.4092 81.313C80.137 81.5923 80.001 81.9826 80.001 82.4839H79.0073C79.0073 81.7642 79.2383 81.1823 79.7002 80.7383C80.1657 80.2943 80.7869 80.0723 81.564 80.0723C82.2909 80.0723 82.8656 80.2638 83.2881 80.647C83.7106 81.0265 83.9219 81.5332 83.9219 82.167C83.9219 82.9368 83.4313 83.8535 82.4502 84.917L80.3555 87.189H84.2817V88ZM90.2383 84.6646C90.2383 85.8283 90.0396 86.693 89.6421 87.2588C89.2446 87.8245 88.6234 88.1074 87.7783 88.1074C86.944 88.1074 86.3263 87.8317 85.9253 87.2803C85.5243 86.7253 85.3166 85.8981 85.3022 84.7988V83.4722C85.3022 82.3228 85.501 81.4688 85.8984 80.9102C86.2959 80.3516 86.9189 80.0723 87.7676 80.0723C88.609 80.0723 89.2285 80.3426 89.626 80.8833C90.0234 81.4204 90.2275 82.2511 90.2383 83.3755V84.6646ZM89.2446 83.3057C89.2446 82.4642 89.1265 81.8519 88.8901 81.4688C88.6538 81.082 88.2796 80.8887 87.7676 80.8887C87.2591 80.8887 86.8885 81.0802 86.6558 81.4634C86.423 81.8465 86.3031 82.4355 86.2959 83.2305V84.8203C86.2959 85.6654 86.4176 86.2902 86.6611 86.6948C86.9082 87.0959 87.2806 87.2964 87.7783 87.2964C88.2689 87.2964 88.6323 87.1066 88.8687 86.7271C89.1086 86.3475 89.2339 85.7495 89.2446 84.9331V83.3057ZM96.6353 88H91.5112V87.2856L94.2183 84.2778C94.6193 83.8231 94.895 83.4543 95.0454 83.1714C95.1994 82.8849 95.2764 82.5895 95.2764 82.2852C95.2764 81.877 95.1528 81.5422 94.9058 81.2808C94.6587 81.0194 94.3293 80.8887 93.9175 80.8887C93.4233 80.8887 93.0384 81.0301 92.7627 81.313C92.4906 81.5923 92.3545 81.9826 92.3545 82.4839H91.3608C91.3608 81.7642 91.5918 81.1823 92.0537 80.7383C92.5192 80.2943 93.1405 80.0723 93.9175 80.0723C94.6444 80.0723 95.2191 80.2638 95.6416 80.647C96.0641 81.0265 96.2754 81.5332 96.2754 82.167C96.2754 82.9368 95.7848 83.8535 94.8037 84.917L92.709 87.189H96.6353V88ZM102.592 84.6646C102.592 85.8283 102.393 86.693 101.996 87.2588C101.598 87.8245 100.977 88.1074 100.132 88.1074C99.2975 88.1074 98.6799 87.8317 98.2788 87.2803C97.8778 86.7253 97.6701 85.8981 97.6558 84.7988V83.4722C97.6558 82.3228 97.8545 81.4688 98.252 80.9102C98.6494 80.3516 99.2725 80.0723 100.121 80.0723C100.963 80.0723 101.582 80.3426 101.979 80.8833C102.377 81.4204 102.581 82.2511 102.592 83.3755V84.6646ZM101.598 83.3057C101.598 82.4642 101.48 81.8519 101.244 81.4688C101.007 81.082 100.633 80.8887 100.121 80.8887C99.6126 80.8887 99.242 81.0802 99.0093 81.4634C98.7765 81.8465 98.6566 82.4355 98.6494 83.2305V84.8203C98.6494 85.6654 98.7712 86.2902 99.0146 86.6948C99.2617 87.0959 99.6341 87.2964 100.132 87.2964C100.622 87.2964 100.986 87.1066 101.222 86.7271C101.462 86.3475 101.587 85.7495 101.598 84.9331V83.3057Z" fill="#162941"/>
<rect x="35" y="98" width="41" height="22" rx="5" fill="#62C655"/>
<path d="M45.0039 112H44.25V106.93H41.4453V112H40.6953V106.312H45.0039V112ZM49.5117 110.516H47.1289L46.5938 112H45.8203L47.9922 106.312H48.6484L50.8242 112H50.0547L49.5117 110.516ZM47.3555 109.898H49.2891L48.3203 107.238L47.3555 109.898ZM55.0117 106.93H53.1836V112H52.4375V106.93H50.6133V106.312H55.0117V106.93ZM59.0703 109.371H56.6055V111.387H59.4688V112H55.8555V106.312H59.4297V106.93H56.6055V108.758H59.0703V109.371ZM64.7734 112H64.0195V109.371H61.1523V112H60.4023V106.312H61.1523V108.758H64.0195V106.312H64.7734V112ZM69.918 106.93H68.0898V112H67.3438V106.93H65.5195V106.312H69.918V106.93Z" fill="white"/>
<path d="M132.838 84.1797H133.87V92H132.838V85.9736L128.987 92H127.951V84.1797H128.987V90.2061L132.838 84.1797ZM137.925 91.2964C138.279 91.2964 138.589 91.189 138.854 90.9741C139.119 90.7593 139.266 90.4907 139.294 90.1685H140.234C140.216 90.5015 140.102 90.8184 139.891 91.1191C139.679 91.4199 139.396 91.6598 139.042 91.8389C138.691 92.0179 138.319 92.1074 137.925 92.1074C137.133 92.1074 136.503 91.8442 136.034 91.3179C135.569 90.7879 135.336 90.0646 135.336 89.1479V88.9814C135.336 88.4157 135.44 87.9126 135.647 87.4722C135.855 87.0317 136.152 86.6898 136.539 86.4463C136.929 86.2028 137.389 86.0811 137.919 86.0811C138.571 86.0811 139.112 86.2762 139.542 86.6665C139.975 87.0568 140.206 87.5635 140.234 88.1865H139.294C139.266 87.8105 139.123 87.5026 138.865 87.2627C138.611 87.0192 138.295 86.8975 137.919 86.8975C137.415 86.8975 137.022 87.0801 136.743 87.4453C136.467 87.807 136.33 88.3315 136.33 89.019V89.207C136.33 89.8766 136.467 90.3923 136.743 90.7539C137.019 91.1156 137.413 91.2964 137.925 91.2964ZM145.67 86.9941H143.72V92H142.727V86.9941H140.814V86.1885H145.67V86.9941ZM148.619 92.1074C147.831 92.1074 147.19 91.8496 146.696 91.334C146.202 90.8148 145.955 90.1219 145.955 89.2554V89.0728C145.955 88.4963 146.064 87.9824 146.282 87.5312C146.504 87.0765 146.812 86.722 147.206 86.4678C147.604 86.21 148.033 86.0811 148.495 86.0811C149.251 86.0811 149.838 86.3299 150.257 86.8276C150.676 87.3254 150.885 88.0379 150.885 88.9653V89.3789H146.948C146.963 89.9518 147.129 90.4155 147.448 90.77C147.77 91.1209 148.178 91.2964 148.672 91.2964C149.023 91.2964 149.32 91.2248 149.564 91.0815C149.807 90.9383 150.021 90.7485 150.203 90.5122L150.81 90.9849C150.323 91.7332 149.593 92.1074 148.619 92.1074ZM148.495 86.8975C148.094 86.8975 147.757 87.0443 147.485 87.3379C147.213 87.6279 147.045 88.0361 146.98 88.5625H149.892V88.4873C149.863 87.9824 149.727 87.5921 149.483 87.3164C149.24 87.0371 148.91 86.8975 148.495 86.8975ZM153.85 89.5239H153.125V92H152.126V86.1885H153.125V88.6484H153.775L155.73 86.1885H156.933L154.634 88.9814L157.126 92H155.864L153.85 89.5239ZM161.568 92C161.511 91.8854 161.465 91.6813 161.429 91.3877C160.967 91.8675 160.415 92.1074 159.774 92.1074C159.201 92.1074 158.731 91.9463 158.362 91.624C157.997 91.2982 157.814 90.8864 157.814 90.3887C157.814 89.7835 158.043 89.3145 158.501 88.9814C158.963 88.6449 159.611 88.4766 160.446 88.4766H161.413V88.02C161.413 87.6727 161.309 87.397 161.101 87.1929C160.893 86.9852 160.587 86.8813 160.183 86.8813C159.828 86.8813 159.531 86.9709 159.291 87.1499C159.051 87.3289 158.931 87.5456 158.931 87.7998H157.932C157.932 87.5098 158.034 87.2305 158.238 86.9619C158.446 86.6898 158.725 86.4749 159.076 86.3174C159.431 86.1598 159.819 86.0811 160.242 86.0811C160.911 86.0811 161.436 86.2493 161.815 86.5859C162.195 86.9189 162.392 87.3791 162.406 87.9663V90.6411C162.406 91.1746 162.474 91.599 162.61 91.9141V92H161.568ZM159.919 91.2427C160.231 91.2427 160.526 91.1621 160.806 91.001C161.085 90.8398 161.287 90.6304 161.413 90.3726V89.1802H160.634C159.416 89.1802 158.808 89.5365 158.808 90.249C158.808 90.5605 158.911 90.804 159.119 90.9795C159.327 91.1549 159.594 91.2427 159.919 91.2427ZM166.375 92.1074C165.588 92.1074 164.947 91.8496 164.453 91.334C163.958 90.8148 163.711 90.1219 163.711 89.2554V89.0728C163.711 88.4963 163.821 87.9824 164.039 87.5312C164.261 87.0765 164.569 86.722 164.963 86.4678C165.36 86.21 165.79 86.0811 166.252 86.0811C167.007 86.0811 167.595 86.3299 168.014 86.8276C168.433 87.3254 168.642 88.0379 168.642 88.9653V89.3789H164.705C164.719 89.9518 164.886 90.4155 165.205 90.77C165.527 91.1209 165.935 91.2964 166.429 91.2964C166.78 91.2964 167.077 91.2248 167.321 91.0815C167.564 90.9383 167.777 90.7485 167.96 90.5122L168.567 90.9849C168.08 91.7332 167.349 92.1074 166.375 92.1074ZM166.252 86.8975C165.851 86.8975 165.514 87.0443 165.242 87.3379C164.97 87.6279 164.802 88.0361 164.737 88.5625H167.648V88.4873C167.62 87.9824 167.484 87.5921 167.24 87.3164C166.997 87.0371 166.667 86.8975 166.252 86.8975ZM174.051 86.9941H172.101V92H171.107V86.9941H169.195V86.1885H174.051V86.9941ZM180.077 91.2964C180.432 91.2964 180.741 91.189 181.006 90.9741C181.271 90.7593 181.418 90.4907 181.447 90.1685H182.387C182.369 90.5015 182.254 90.8184 182.043 91.1191C181.832 91.4199 181.549 91.6598 181.194 91.8389C180.843 92.0179 180.471 92.1074 180.077 92.1074C179.286 92.1074 178.656 91.8442 178.187 91.3179C177.721 90.7879 177.488 90.0646 177.488 89.1479V88.9814C177.488 88.4157 177.592 87.9126 177.8 87.4722C178.007 87.0317 178.305 86.6898 178.691 86.4463C179.082 86.2028 179.542 86.0811 180.072 86.0811C180.723 86.0811 181.264 86.2762 181.694 86.6665C182.127 87.0568 182.358 87.5635 182.387 88.1865H181.447C181.418 87.8105 181.275 87.5026 181.017 87.2627C180.763 87.0192 180.448 86.8975 180.072 86.8975C179.567 86.8975 179.175 87.0801 178.896 87.4453C178.62 87.807 178.482 88.3315 178.482 89.019V89.207C178.482 89.8766 178.62 90.3923 178.896 90.7539C179.171 91.1156 179.565 91.2964 180.077 91.2964ZM188.413 89.1587C188.413 90.0431 188.211 90.7557 187.806 91.2964C187.402 91.8371 186.854 92.1074 186.163 92.1074C185.457 92.1074 184.902 91.8836 184.498 91.436V94.2344H183.504V86.1885H184.412L184.46 86.833C184.865 86.3317 185.427 86.0811 186.146 86.0811C186.845 86.0811 187.396 86.3442 187.801 86.8706C188.209 87.397 188.413 88.1292 188.413 89.0674V89.1587ZM187.419 89.0459C187.419 88.3906 187.28 87.8732 187 87.4937C186.721 87.1141 186.338 86.9243 185.851 86.9243C185.25 86.9243 184.798 87.1911 184.498 87.7246V90.5015C184.795 91.0314 185.25 91.2964 185.862 91.2964C186.338 91.2964 186.716 91.1084 186.995 90.7324C187.278 90.3529 187.419 89.7907 187.419 89.0459ZM189.417 89.0405C189.417 88.4712 189.528 87.9591 189.75 87.5044C189.976 87.0496 190.288 86.6987 190.685 86.4517C191.086 86.2046 191.543 86.0811 192.055 86.0811C192.846 86.0811 193.485 86.355 193.972 86.9028C194.463 87.4507 194.708 88.1794 194.708 89.0889V89.1587C194.708 89.7244 194.599 90.2329 194.38 90.6841C194.166 91.1317 193.856 91.4808 193.451 91.7314C193.05 91.9821 192.588 92.1074 192.065 92.1074C191.278 92.1074 190.639 91.8335 190.148 91.2856C189.661 90.7378 189.417 90.0127 189.417 89.1104V89.0405ZM190.417 89.1587C190.417 89.8032 190.565 90.3206 190.862 90.7109C191.163 91.1012 191.564 91.2964 192.065 91.2964C192.57 91.2964 192.971 91.0994 193.269 90.7056C193.566 90.3081 193.714 89.7531 193.714 89.0405C193.714 88.4032 193.562 87.8875 193.258 87.4937C192.957 87.0962 192.556 86.8975 192.055 86.8975C191.564 86.8975 191.168 87.0926 190.868 87.4829C190.567 87.8732 190.417 88.4318 190.417 89.1587ZM197.764 89.5239H197.039V92H196.04V86.1885H197.039V88.6484H197.689L199.644 86.1885H200.847L198.548 88.9814L201.041 92H199.778L197.764 89.5239ZM209.763 92H204.403V90.9365L206.933 88.2402C207.28 87.8607 207.536 87.5295 207.701 87.2466C207.869 86.9637 207.953 86.6951 207.953 86.4409C207.953 86.0936 207.865 85.8215 207.69 85.6245C207.514 85.424 207.264 85.3237 206.938 85.3237C206.587 85.3237 206.31 85.4455 206.105 85.689C205.905 85.9289 205.805 86.2458 205.805 86.6396H204.247C204.247 86.1634 204.36 85.7284 204.585 85.3345C204.815 84.9406 205.137 84.6326 205.552 84.4106C205.968 84.1851 206.438 84.0723 206.965 84.0723C207.771 84.0723 208.395 84.2656 208.839 84.6523C209.287 85.0391 209.511 85.5851 209.511 86.2905C209.511 86.6772 209.41 87.0711 209.21 87.4722C209.009 87.8732 208.666 88.3405 208.179 88.874L206.401 90.7485H209.763V92ZM216.08 92H210.719V90.9365L213.249 88.2402C213.596 87.8607 213.852 87.5295 214.017 87.2466C214.185 86.9637 214.27 86.6951 214.27 86.4409C214.27 86.0936 214.182 85.8215 214.006 85.6245C213.831 85.424 213.58 85.3237 213.254 85.3237C212.903 85.3237 212.626 85.4455 212.422 85.689C212.221 85.9289 212.121 86.2458 212.121 86.6396H210.563C210.563 86.1634 210.676 85.7284 210.902 85.3345C211.131 84.9406 211.453 84.6326 211.869 84.4106C212.284 84.1851 212.755 84.0723 213.281 84.0723C214.087 84.0723 214.712 84.2656 215.156 84.6523C215.603 85.0391 215.827 85.5851 215.827 86.2905C215.827 86.6772 215.727 87.0711 215.526 87.4722C215.326 87.8732 214.982 88.3405 214.495 88.874L212.717 90.7485H216.08V92ZM222.133 86.2583C222.133 86.6379 222.038 86.9744 221.848 87.2681C221.658 87.5617 221.397 87.7962 221.064 87.9717C221.444 88.1543 221.744 88.4067 221.966 88.729C222.188 89.0477 222.299 89.4237 222.299 89.8569C222.299 90.5516 222.063 91.1012 221.59 91.5059C221.118 91.9069 220.475 92.1074 219.662 92.1074C218.849 92.1074 218.205 91.9051 217.729 91.5005C217.252 91.0959 217.014 90.548 217.014 89.8569C217.014 89.4237 217.125 89.0459 217.347 88.7236C217.569 88.4014 217.868 88.1507 218.244 87.9717C217.911 87.7962 217.65 87.5617 217.46 87.2681C217.274 86.9744 217.181 86.6379 217.181 86.2583C217.181 85.5923 217.403 85.0623 217.847 84.6685C218.291 84.271 218.894 84.0723 219.657 84.0723C220.416 84.0723 221.017 84.2692 221.461 84.6631C221.909 85.0534 222.133 85.5851 222.133 86.2583ZM220.742 89.7441C220.742 89.404 220.643 89.1318 220.446 88.9277C220.249 88.7236 219.984 88.6216 219.651 88.6216C219.322 88.6216 219.059 88.7236 218.862 88.9277C218.665 89.1283 218.566 89.4004 218.566 89.7441C218.566 90.0771 218.663 90.3457 218.856 90.5498C219.05 90.7539 219.318 90.856 219.662 90.856C219.999 90.856 220.262 90.7575 220.452 90.5605C220.645 90.3636 220.742 90.0915 220.742 89.7441ZM220.581 86.3335C220.581 86.0291 220.5 85.7856 220.339 85.603C220.178 85.4168 219.95 85.3237 219.657 85.3237C219.367 85.3237 219.141 85.4132 218.98 85.5923C218.819 85.7713 218.738 86.0184 218.738 86.3335C218.738 86.645 218.819 86.8957 218.98 87.0854C219.141 87.2752 219.368 87.3701 219.662 87.3701C219.956 87.3701 220.181 87.2752 220.339 87.0854C220.5 86.8957 220.581 86.645 220.581 86.3335ZM227.563 84.0991V85.3774H227.413C226.711 85.3882 226.145 85.5708 225.715 85.9253C225.289 86.2798 225.033 86.7721 224.947 87.4023C225.363 86.9798 225.887 86.7686 226.521 86.7686C227.201 86.7686 227.742 87.012 228.143 87.499C228.544 87.986 228.745 88.627 228.745 89.4219C228.745 89.9303 228.634 90.3905 228.412 90.8022C228.193 91.214 227.882 91.5345 227.477 91.7637C227.076 91.9928 226.621 92.1074 226.113 92.1074C225.289 92.1074 224.623 91.821 224.115 91.248C223.61 90.6751 223.357 89.9106 223.357 88.9546V88.396C223.357 87.5474 223.517 86.799 223.835 86.1509C224.158 85.4992 224.618 84.9961 225.216 84.6416C225.817 84.2835 226.514 84.1027 227.305 84.0991H227.563ZM226.048 88.0146C225.798 88.0146 225.57 88.0809 225.366 88.2134C225.162 88.3423 225.012 88.5142 224.915 88.729V89.2017C224.915 89.7209 225.017 90.1273 225.221 90.4209C225.425 90.7109 225.712 90.856 226.081 90.856C226.414 90.856 226.682 90.7253 226.886 90.4639C227.094 90.1989 227.198 89.8569 227.198 89.438C227.198 89.0119 227.094 88.6681 226.886 88.4067C226.679 88.1453 226.399 88.0146 226.048 88.0146ZM234.986 85.0498L231.962 92H230.324L233.353 85.4365H229.464V84.1797H234.986V85.0498ZM241.249 88.7666C241.249 89.848 241.025 90.6751 240.577 91.248C240.13 91.821 239.474 92.1074 238.611 92.1074C237.759 92.1074 237.107 91.8263 236.656 91.2642C236.205 90.702 235.974 89.8963 235.963 88.8472V87.4077C235.963 86.3156 236.189 85.4867 236.64 84.9209C237.095 84.3551 237.748 84.0723 238.601 84.0723C239.453 84.0723 240.104 84.3534 240.556 84.9155C241.007 85.4741 241.238 86.278 241.249 87.3271V88.7666ZM239.696 87.1875C239.696 86.5394 239.607 86.0685 239.428 85.7749C239.252 85.4777 238.977 85.3291 238.601 85.3291C238.235 85.3291 237.965 85.4705 237.79 85.7534C237.618 86.0327 237.526 86.4714 237.516 87.0693V88.9707C237.516 89.6081 237.602 90.0825 237.773 90.394C237.949 90.702 238.228 90.856 238.611 90.856C238.991 90.856 239.265 90.7074 239.433 90.4102C239.601 90.113 239.689 89.6582 239.696 89.0459V87.1875ZM243.88 87.4023H244.708C245.101 87.4023 245.393 87.3039 245.583 87.1069C245.773 86.91 245.868 86.6486 245.868 86.3228C245.868 86.0076 245.773 85.7624 245.583 85.5869C245.397 85.4115 245.139 85.3237 244.81 85.3237C244.512 85.3237 244.264 85.4061 244.063 85.5708C243.862 85.7319 243.762 85.9432 243.762 86.2046H242.21C242.21 85.7964 242.319 85.4312 242.538 85.1089C242.76 84.783 243.068 84.5288 243.461 84.3462C243.859 84.1636 244.296 84.0723 244.772 84.0723C245.599 84.0723 246.247 84.271 246.716 84.6685C247.185 85.0623 247.42 85.6066 247.42 86.3013C247.42 86.6593 247.311 86.9888 247.092 87.2896C246.874 87.5903 246.587 87.8213 246.233 87.9824C246.673 88.14 247.001 88.3763 247.216 88.6914C247.434 89.0065 247.543 89.3789 247.543 89.8086C247.543 90.5033 247.289 91.0601 246.781 91.479C246.276 91.8979 245.606 92.1074 244.772 92.1074C243.991 92.1074 243.352 91.9015 242.854 91.4897C242.36 91.078 242.113 90.5337 242.113 89.8569H243.666C243.666 90.1506 243.775 90.3905 243.993 90.5767C244.215 90.7629 244.487 90.856 244.81 90.856C245.178 90.856 245.467 90.7593 245.674 90.5659C245.886 90.369 245.991 90.1094 245.991 89.7871C245.991 89.0065 245.562 88.6162 244.702 88.6162H243.88V87.4023ZM127.698 112V104.18H130.438C131.386 104.18 132.106 104.362 132.597 104.728C133.087 105.089 133.333 105.621 133.333 106.323C133.333 106.706 133.234 107.044 133.037 107.338C132.84 107.628 132.566 107.841 132.215 107.977C132.616 108.077 132.931 108.28 133.161 108.584C133.393 108.888 133.51 109.261 133.51 109.701C133.51 110.453 133.27 111.022 132.79 111.409C132.31 111.796 131.626 111.993 130.738 112H127.698ZM129.31 108.595V110.706H130.69C131.069 110.706 131.365 110.616 131.576 110.437C131.791 110.254 131.898 110.004 131.898 109.685C131.898 108.969 131.528 108.605 130.787 108.595H129.31ZM129.31 107.456H130.502C131.315 107.442 131.721 107.118 131.721 106.484C131.721 106.129 131.617 105.875 131.41 105.721C131.206 105.564 130.882 105.485 130.438 105.485H129.31V107.456ZM141.088 112H139.477V108.648H136.335V112H134.724V104.18H136.335V107.349H139.477V104.18H141.088V112ZM145.434 107.875L146.857 104.18H148.597L145.863 110.63L145.643 111.055C145.238 111.76 144.619 112.113 143.785 112.113L143.221 112.091L143.205 110.797C143.291 110.811 143.43 110.818 143.624 110.818C143.849 110.818 144.03 110.779 144.166 110.7C144.306 110.621 144.422 110.476 144.515 110.265L144.714 109.755L141.969 104.18H143.704L145.434 107.875ZM155.435 105.485H153.039V112H151.428V105.485H149.064V104.18H155.435V105.485ZM157.97 109.245V112H156.358V104.18H159.409C159.996 104.18 160.512 104.287 160.956 104.502C161.404 104.717 161.747 105.023 161.987 105.42C162.227 105.814 162.347 106.264 162.347 106.769C162.347 107.535 162.084 108.14 161.558 108.584C161.035 109.024 160.31 109.245 159.382 109.245H157.97ZM157.97 107.939H159.409C159.835 107.939 160.159 107.839 160.381 107.639C160.607 107.438 160.72 107.152 160.72 106.779C160.72 106.396 160.607 106.086 160.381 105.85C160.156 105.614 159.844 105.492 159.447 105.485H157.97V107.939ZM168.164 108.611H165.07V110.706H168.701V112H163.459V104.18H168.69V105.485H165.07V107.349H168.164V108.611ZM176.011 112H174.4V108.648H171.258V112H169.646V104.18H171.258V107.349H174.4V104.18H176.011V112ZM183.789 112H182.177V108.648H179.035V112H177.424V104.18H179.035V107.349H182.177V104.18H183.789V112ZM188.816 112V109.18H187.505L186.093 112H184.353L186.023 108.665C185.217 108.221 184.814 107.531 184.814 106.597C184.814 105.83 185.065 105.238 185.566 104.819C186.068 104.4 186.768 104.187 187.667 104.18H190.433V112H188.816ZM186.426 106.715C186.426 107.152 186.531 107.469 186.743 107.666C186.958 107.862 187.278 107.961 187.704 107.961H188.816V105.485H187.704C186.852 105.485 186.426 105.895 186.426 106.715ZM195.379 112V109.18H194.069L192.656 112H190.916L192.586 108.665C191.781 108.221 191.378 107.531 191.378 106.597C191.378 105.83 191.629 105.238 192.13 104.819C192.631 104.4 193.331 104.187 194.23 104.18H196.996V112H195.379ZM192.989 106.715C192.989 107.152 193.095 107.469 193.306 107.666C193.521 107.862 193.841 107.961 194.268 107.961H195.379V105.485H194.268C193.415 105.485 192.989 105.895 192.989 106.715ZM207.438 112H205.821V105.485H202.689V112H201.078V104.18H207.438V112ZM215.279 108.267C215.279 109.037 215.143 109.712 214.871 110.292C214.599 110.872 214.209 111.32 213.7 111.635C213.195 111.95 212.615 112.107 211.96 112.107C211.312 112.107 210.734 111.952 210.225 111.64C209.717 111.329 209.323 110.885 209.043 110.308C208.764 109.728 208.623 109.062 208.619 108.31V107.923C208.619 107.153 208.757 106.477 209.033 105.893C209.312 105.306 209.704 104.856 210.209 104.545C210.717 104.23 211.298 104.072 211.949 104.072C212.601 104.072 213.179 104.23 213.684 104.545C214.193 104.856 214.585 105.306 214.86 105.893C215.14 106.477 215.279 107.152 215.279 107.918V108.267ZM213.646 107.913C213.646 107.093 213.5 106.47 213.206 106.043C212.912 105.617 212.493 105.404 211.949 105.404C211.409 105.404 210.991 105.616 210.698 106.038C210.404 106.457 210.256 107.073 210.252 107.886V108.267C210.252 109.066 210.399 109.685 210.692 110.125C210.986 110.566 211.409 110.786 211.96 110.786C212.501 110.786 212.916 110.575 213.206 110.152C213.496 109.726 213.643 109.107 213.646 108.294V107.913ZM223.519 113.923H222.031V112H217.315V113.917H215.79L215.704 110.706H216.294C216.613 110.441 216.858 110.052 217.03 109.54C217.206 109.024 217.324 108.387 217.385 107.628L217.61 104.18H222.734V110.706H223.647L223.519 113.923ZM218.142 110.706H221.123V105.485H219.141L219.007 107.542C218.899 108.921 218.611 109.975 218.142 110.706ZM230.791 108.267C230.791 109.037 230.655 109.712 230.383 110.292C230.111 110.872 229.72 111.32 229.212 111.635C228.707 111.95 228.127 112.107 227.472 112.107C226.824 112.107 226.245 111.952 225.737 111.64C225.228 111.329 224.834 110.885 224.555 110.308C224.276 109.728 224.134 109.062 224.131 108.31V107.923C224.131 107.153 224.269 106.477 224.544 105.893C224.824 105.306 225.216 104.856 225.721 104.545C226.229 104.23 226.809 104.072 227.461 104.072C228.113 104.072 228.691 104.23 229.196 104.545C229.704 104.856 230.096 105.306 230.372 105.893C230.651 106.477 230.791 107.152 230.791 107.918V108.267ZM229.158 107.913C229.158 107.093 229.011 106.47 228.718 106.043C228.424 105.617 228.005 105.404 227.461 105.404C226.92 105.404 226.503 105.616 226.209 106.038C225.916 106.457 225.767 107.073 225.764 107.886V108.267C225.764 109.066 225.91 109.685 226.204 110.125C226.498 110.566 226.92 110.786 227.472 110.786C228.012 110.786 228.428 110.575 228.718 110.152C229.008 109.726 229.155 109.107 229.158 108.294V107.913ZM233.568 104.18V110.706H235.738V104.18H237.354V110.706H239.503V104.18H241.114V112H231.951V104.18H233.568ZM242.511 112V104.18H245.25C246.199 104.18 246.919 104.362 247.409 104.728C247.9 105.089 248.145 105.621 248.145 106.323C248.145 106.706 248.047 107.044 247.85 107.338C247.653 107.628 247.379 107.841 247.028 107.977C247.429 108.077 247.744 108.28 247.973 108.584C248.206 108.888 248.322 109.261 248.322 109.701C248.322 110.453 248.082 111.022 247.603 111.409C247.123 111.796 246.439 111.993 245.551 112H242.511ZM244.122 108.595V110.706H245.502C245.882 110.706 246.177 110.616 246.389 110.437C246.604 110.254 246.711 110.004 246.711 109.685C246.711 108.969 246.34 108.605 245.599 108.595H244.122ZM244.122 107.456H245.314C246.127 107.442 246.534 107.118 246.534 106.484C246.534 106.129 246.43 105.875 246.222 105.721C246.018 105.564 245.694 105.485 245.25 105.485H244.122V107.456ZM253.951 110.389H251.126L250.589 112H248.875L251.787 104.18H253.28L256.207 112H254.494L253.951 110.389ZM251.561 109.083H253.516L252.533 106.156L251.561 109.083ZM266.101 108.267C266.101 109.037 265.965 109.712 265.692 110.292C265.42 110.872 265.03 111.32 264.521 111.635C264.017 111.95 263.437 112.107 262.781 112.107C262.133 112.107 261.555 111.952 261.046 111.64C260.538 111.329 260.144 110.885 259.865 110.308C259.585 109.728 259.444 109.062 259.44 108.31V107.923C259.44 107.153 259.578 106.477 259.854 105.893C260.133 105.306 260.525 104.856 261.03 104.545C261.539 104.23 262.119 104.072 262.771 104.072C263.422 104.072 264 104.23 264.505 104.545C265.014 104.856 265.406 105.306 265.682 105.893C265.961 106.477 266.101 107.152 266.101 107.918V108.267ZM264.468 107.913C264.468 107.093 264.321 106.47 264.027 106.043C263.734 105.617 263.315 105.404 262.771 105.404C262.23 105.404 261.813 105.616 261.519 106.038C261.225 106.457 261.077 107.073 261.073 107.886V108.267C261.073 109.066 261.22 109.685 261.514 110.125C261.807 110.566 262.23 110.786 262.781 110.786C263.322 110.786 263.737 110.575 264.027 110.152C264.317 109.726 264.464 109.107 264.468 108.294V107.913ZM272.374 105.485H268.883V107H270.14C271.06 107 271.789 107.223 272.326 107.671C272.866 108.115 273.137 108.715 273.137 109.47C273.137 110.229 272.868 110.84 272.331 111.302C271.798 111.76 271.087 111.993 270.199 112H267.255V104.18H272.374V105.485ZM268.883 108.299V110.706H270.167C270.578 110.706 270.906 110.593 271.149 110.367C271.396 110.142 271.52 109.839 271.52 109.459C271.52 109.105 271.402 108.826 271.166 108.622C270.933 108.414 270.612 108.306 270.204 108.299H268.883ZM277.004 107.875L278.427 104.18H280.167L277.434 110.63L277.213 111.055C276.809 111.76 276.189 112.113 275.355 112.113L274.791 112.091L274.775 110.797C274.861 110.811 275 110.818 275.194 110.818C275.419 110.818 275.6 110.779 275.736 110.7C275.876 110.621 275.992 110.476 276.085 110.265L276.284 109.755L273.54 104.18H275.274L277.004 107.875ZM281.021 112V104.18H283.761C284.71 104.18 285.429 104.362 285.92 104.728C286.41 105.089 286.656 105.621 286.656 106.323C286.656 106.706 286.557 107.044 286.36 107.338C286.163 107.628 285.889 107.841 285.539 107.977C285.94 108.077 286.255 108.28 286.484 108.584C286.717 108.888 286.833 109.261 286.833 109.701C286.833 110.453 286.593 111.022 286.113 111.409C285.633 111.796 284.95 111.993 284.062 112H281.021ZM282.633 108.595V110.706H284.013C284.393 110.706 284.688 110.616 284.899 110.437C285.114 110.254 285.222 110.004 285.222 109.685C285.222 108.969 284.851 108.605 284.11 108.595H282.633ZM282.633 107.456H283.825C284.638 107.442 285.044 107.118 285.044 106.484C285.044 106.129 284.941 105.875 284.733 105.721C284.529 105.564 284.205 105.485 283.761 105.485H282.633V107.456ZM292.736 104.18H294.353V112H292.736V106.806L289.604 112H287.993V104.18H289.604V109.384L292.736 104.18Z" fill="#162941"/>
<g filter="url(#filter1_d)">
<rect x="20" y="215" width="295" height="70" rx="5" fill="white"/>
</g>
<path d="M53.7739 241H48.6499V240.286L51.3569 237.278C51.758 236.823 52.0337 236.454 52.1841 236.171C52.3381 235.885 52.415 235.59 52.415 235.285C52.415 234.877 52.2915 234.542 52.0444 234.281C51.7974 234.019 51.4679 233.889 51.0562 233.889C50.562 233.889 50.1771 234.03 49.9014 234.313C49.6292 234.592 49.4932 234.983 49.4932 235.484H48.4995C48.4995 234.764 48.7305 234.182 49.1924 233.738C49.6579 233.294 50.2791 233.072 51.0562 233.072C51.783 233.072 52.3577 233.264 52.7803 233.647C53.2028 234.027 53.4141 234.533 53.4141 235.167C53.4141 235.937 52.9235 236.854 51.9424 237.917L49.8477 240.189H53.7739V241ZM58.7261 233.174V234.018H58.5435C57.77 234.032 57.1541 234.261 56.6958 234.705C56.2375 235.149 55.9725 235.774 55.9009 236.58C56.3127 236.107 56.8748 235.871 57.5874 235.871C58.2677 235.871 58.8102 236.111 59.2148 236.59C59.623 237.07 59.8271 237.69 59.8271 238.449C59.8271 239.254 59.6069 239.899 59.1665 240.382C58.7297 240.866 58.1424 241.107 57.4048 241.107C56.6564 241.107 56.0495 240.821 55.584 240.248C55.1185 239.672 54.8857 238.93 54.8857 238.024V237.643C54.8857 236.204 55.1919 235.104 55.8042 234.345C56.4201 233.583 57.335 233.192 58.5488 233.174H58.7261ZM57.4209 236.698C57.0807 236.698 56.7674 236.8 56.481 237.004C56.1945 237.208 55.9958 237.464 55.8848 237.772V238.137C55.8848 238.782 56.0298 239.301 56.3198 239.695C56.6099 240.089 56.9715 240.286 57.4048 240.286C57.8524 240.286 58.2033 240.121 58.4575 239.792C58.7153 239.462 58.8442 239.031 58.8442 238.497C58.8442 237.96 58.7135 237.527 58.4521 237.197C58.1943 236.864 57.8506 236.698 57.4209 236.698ZM61.127 240.479C61.127 240.307 61.1771 240.164 61.2773 240.049C61.3812 239.935 61.5352 239.877 61.7393 239.877C61.9434 239.877 62.0973 239.935 62.2012 240.049C62.3086 240.164 62.3623 240.307 62.3623 240.479C62.3623 240.644 62.3086 240.782 62.2012 240.893C62.0973 241.004 61.9434 241.059 61.7393 241.059C61.5352 241.059 61.3812 241.004 61.2773 240.893C61.1771 240.782 61.127 240.644 61.127 240.479ZM67.1694 241H66.1704V234.377L64.167 235.113V234.211L67.0137 233.142H67.1694V241ZM75.2046 241H70.0806V240.286L72.7876 237.278C73.1886 236.823 73.4644 236.454 73.6147 236.171C73.7687 235.885 73.8457 235.59 73.8457 235.285C73.8457 234.877 73.7222 234.542 73.4751 234.281C73.228 234.019 72.8986 233.889 72.4868 233.889C71.9927 233.889 71.6077 234.03 71.332 234.313C71.0599 234.592 70.9238 234.983 70.9238 235.484H69.9302C69.9302 234.764 70.1611 234.182 70.623 233.738C71.0885 233.294 71.7098 233.072 72.4868 233.072C73.2137 233.072 73.7884 233.264 74.2109 233.647C74.6335 234.027 74.8447 234.533 74.8447 235.167C74.8447 235.937 74.3542 236.854 73.373 237.917L71.2783 240.189H75.2046V241ZM76.3809 240.479C76.3809 240.307 76.431 240.164 76.5312 240.049C76.6351 239.935 76.7891 239.877 76.9932 239.877C77.1973 239.877 77.3512 239.935 77.4551 240.049C77.5625 240.164 77.6162 240.307 77.6162 240.479C77.6162 240.644 77.5625 240.782 77.4551 240.893C77.3512 241.004 77.1973 241.059 76.9932 241.059C76.7891 241.059 76.6351 241.004 76.5312 240.893C76.431 240.782 76.3809 240.644 76.3809 240.479ZM84.2817 241H79.1577V240.286L81.8647 237.278C82.2658 236.823 82.5415 236.454 82.6919 236.171C82.8459 235.885 82.9229 235.59 82.9229 235.285C82.9229 234.877 82.7993 234.542 82.5522 234.281C82.3052 234.019 81.9757 233.889 81.564 233.889C81.0698 233.889 80.6849 234.03 80.4092 234.313C80.137 234.592 80.001 234.983 80.001 235.484H79.0073C79.0073 234.764 79.2383 234.182 79.7002 233.738C80.1657 233.294 80.7869 233.072 81.564 233.072C82.2909 233.072 82.8656 233.264 83.2881 233.647C83.7106 234.027 83.9219 234.533 83.9219 235.167C83.9219 235.937 83.4313 236.854 82.4502 237.917L80.3555 240.189H84.2817V241ZM90.2383 237.665C90.2383 238.828 90.0396 239.693 89.6421 240.259C89.2446 240.825 88.6234 241.107 87.7783 241.107C86.944 241.107 86.3263 240.832 85.9253 240.28C85.5243 239.725 85.3166 238.898 85.3022 237.799V236.472C85.3022 235.323 85.501 234.469 85.8984 233.91C86.2959 233.352 86.9189 233.072 87.7676 233.072C88.609 233.072 89.2285 233.343 89.626 233.883C90.0234 234.42 90.2275 235.251 90.2383 236.375V237.665ZM89.2446 236.306C89.2446 235.464 89.1265 234.852 88.8901 234.469C88.6538 234.082 88.2796 233.889 87.7676 233.889C87.2591 233.889 86.8885 234.08 86.6558 234.463C86.423 234.847 86.3031 235.436 86.2959 236.23V237.82C86.2959 238.665 86.4176 239.29 86.6611 239.695C86.9082 240.096 87.2806 240.296 87.7783 240.296C88.2689 240.296 88.6323 240.107 88.8687 239.727C89.1086 239.347 89.2339 238.75 89.2446 237.933V236.306ZM94.7769 241H93.7778V234.377L91.7744 235.113V234.211L94.6211 233.142H94.7769V241ZM101.496 237.562C101.288 237.81 101.04 238.008 100.75 238.159C100.463 238.309 100.148 238.384 99.8042 238.384C99.353 238.384 98.9591 238.273 98.6226 238.051C98.2896 237.829 98.0317 237.518 97.8491 237.117C97.6665 236.712 97.5752 236.266 97.5752 235.779C97.5752 235.257 97.6737 234.786 97.8706 234.367C98.0711 233.948 98.354 233.627 98.7192 233.405C99.0845 233.183 99.5106 233.072 99.9976 233.072C100.771 233.072 101.38 233.362 101.824 233.942C102.271 234.519 102.495 235.307 102.495 236.306V236.596C102.495 238.118 102.194 239.229 101.593 239.931C100.991 240.629 100.083 240.987 98.8696 241.005H98.6763V240.167H98.8857C99.7057 240.153 100.336 239.94 100.776 239.528C101.217 239.113 101.457 238.458 101.496 237.562ZM99.9653 237.562C100.298 237.562 100.604 237.46 100.884 237.256C101.167 237.052 101.373 236.8 101.501 236.499V236.102C101.501 235.45 101.36 234.92 101.077 234.512C100.794 234.104 100.436 233.899 100.003 233.899C99.5661 233.899 99.2152 234.068 98.9502 234.404C98.6852 234.737 98.5527 235.178 98.5527 235.726C98.5527 236.259 98.6799 236.7 98.9341 237.047C99.1919 237.391 99.5356 237.562 99.9653 237.562Z" fill="#162941"/>
<path d="M131.92 239.28C131.92 238.864 131.768 238.535 131.463 238.292C131.163 238.044 130.738 237.921 130.19 237.921C129.732 237.921 129.347 238.048 129.036 238.302C128.728 238.553 128.574 238.864 128.574 239.237H127.542C127.542 238.821 127.655 238.449 127.881 238.12C128.11 237.79 128.429 237.534 128.837 237.352C129.245 237.165 129.696 237.072 130.19 237.072C131.064 237.072 131.743 237.269 132.226 237.663C132.709 238.053 132.951 238.598 132.951 239.296C132.951 239.658 132.84 239.987 132.618 240.284C132.396 240.581 132.086 240.816 131.689 240.988C132.609 241.296 133.069 241.906 133.069 242.819C133.069 243.521 132.808 244.078 132.285 244.49C131.762 244.902 131.064 245.107 130.19 245.107C129.671 245.107 129.199 245.016 128.772 244.833C128.35 244.647 128.021 244.384 127.784 244.044C127.548 243.704 127.43 243.299 127.43 242.83H128.461C128.461 243.242 128.624 243.586 128.95 243.861C129.276 244.133 129.689 244.27 130.19 244.27C130.753 244.27 131.2 244.139 131.533 243.877C131.87 243.616 132.038 243.271 132.038 242.841C132.038 241.924 131.471 241.457 130.335 241.439H129.369V240.59H130.33C130.853 240.58 131.249 240.461 131.517 240.236C131.786 240.01 131.92 239.692 131.92 239.28ZM137.871 245C137.814 244.885 137.767 244.681 137.731 244.388C137.27 244.868 136.718 245.107 136.077 245.107C135.504 245.107 135.033 244.946 134.665 244.624C134.299 244.298 134.117 243.886 134.117 243.389C134.117 242.784 134.346 242.314 134.804 241.981C135.266 241.645 135.914 241.477 136.749 241.477H137.715V241.02C137.715 240.673 137.611 240.397 137.404 240.193C137.196 239.985 136.89 239.881 136.485 239.881C136.131 239.881 135.834 239.971 135.594 240.15C135.354 240.329 135.234 240.546 135.234 240.8H134.235C134.235 240.51 134.337 240.23 134.541 239.962C134.749 239.69 135.028 239.475 135.379 239.317C135.733 239.16 136.122 239.081 136.544 239.081C137.214 239.081 137.739 239.249 138.118 239.586C138.498 239.919 138.695 240.379 138.709 240.966V243.641C138.709 244.175 138.777 244.599 138.913 244.914V245H137.871ZM136.222 244.243C136.534 244.243 136.829 244.162 137.108 244.001C137.388 243.84 137.59 243.63 137.715 243.373V242.18H136.937C135.719 242.18 135.11 242.536 135.11 243.249C135.11 243.561 135.214 243.804 135.422 243.979C135.63 244.155 135.896 244.243 136.222 244.243ZM144.708 239.188V245H143.709V242.739H142.211L140.841 245H139.767L141.228 242.588C140.856 242.452 140.569 242.243 140.369 241.96C140.172 241.674 140.073 241.34 140.073 240.961C140.073 240.431 140.272 240.005 140.669 239.683C141.067 239.357 141.599 239.192 142.265 239.188H144.708ZM141.072 240.972C141.072 241.255 141.169 241.484 141.362 241.659C141.556 241.831 141.812 241.919 142.13 241.922H143.709V239.994H142.281C141.912 239.994 141.618 240.085 141.4 240.268C141.181 240.447 141.072 240.682 141.072 240.972ZM146.395 245V239.188H148.662C149.435 239.188 150.028 239.325 150.439 239.597C150.855 239.865 151.062 240.261 151.062 240.784C151.062 241.052 150.982 241.296 150.821 241.514C150.66 241.729 150.422 241.894 150.106 242.008C150.457 242.091 150.738 242.252 150.95 242.492C151.165 242.732 151.272 243.018 151.272 243.351C151.272 243.885 151.075 244.293 150.681 244.576C150.291 244.859 149.738 245 149.021 245H146.395ZM147.389 242.449V244.2H149.032C149.448 244.2 149.757 244.123 149.961 243.969C150.169 243.815 150.273 243.598 150.273 243.319C150.273 242.739 149.847 242.449 148.995 242.449H147.389ZM147.389 241.654H148.672C149.603 241.654 150.069 241.382 150.069 240.837C150.069 240.293 149.628 240.012 148.748 239.994H147.389V241.654ZM154.398 242.524H153.673V245H152.674V239.188H153.673V241.648H154.323L156.278 239.188H157.481L155.182 241.981L157.674 245H156.412L154.398 242.524ZM162.116 245C162.059 244.885 162.012 244.681 161.977 244.388C161.515 244.868 160.963 245.107 160.322 245.107C159.749 245.107 159.278 244.946 158.91 244.624C158.544 244.298 158.362 243.886 158.362 243.389C158.362 242.784 158.591 242.314 159.049 241.981C159.511 241.645 160.159 241.477 160.994 241.477H161.96V241.02C161.96 240.673 161.857 240.397 161.649 240.193C161.441 239.985 161.135 239.881 160.73 239.881C160.376 239.881 160.079 239.971 159.839 240.15C159.599 240.329 159.479 240.546 159.479 240.8H158.48C158.48 240.51 158.582 240.23 158.786 239.962C158.994 239.69 159.273 239.475 159.624 239.317C159.979 239.16 160.367 239.081 160.79 239.081C161.459 239.081 161.984 239.249 162.363 239.586C162.743 239.919 162.94 240.379 162.954 240.966V243.641C162.954 244.175 163.022 244.599 163.158 244.914V245H162.116ZM160.467 244.243C160.779 244.243 161.074 244.162 161.354 244.001C161.633 243.84 161.835 243.63 161.96 243.373V242.18H161.182C159.964 242.18 159.355 242.536 159.355 243.249C159.355 243.561 159.459 243.804 159.667 243.979C159.875 244.155 160.141 244.243 160.467 244.243ZM171.988 245H170.995V242.519H168.325V245H167.326V239.188H168.325V241.708H170.995V239.188H171.988V245ZM177.177 245C177.119 244.885 177.073 244.681 177.037 244.388C176.575 244.868 176.024 245.107 175.383 245.107C174.81 245.107 174.339 244.946 173.97 244.624C173.605 244.298 173.422 243.886 173.422 243.389C173.422 242.784 173.652 242.314 174.11 241.981C174.572 241.645 175.22 241.477 176.054 241.477H177.021V241.02C177.021 240.673 176.917 240.397 176.709 240.193C176.502 239.985 176.196 239.881 175.791 239.881C175.437 239.881 175.139 239.971 174.899 240.15C174.66 240.329 174.54 240.546 174.54 240.8H173.541C173.541 240.51 173.643 240.23 173.847 239.962C174.054 239.69 174.334 239.475 174.685 239.317C175.039 239.16 175.428 239.081 175.85 239.081C176.52 239.081 177.044 239.249 177.424 239.586C177.803 239.919 178 240.379 178.015 240.966V243.641C178.015 244.175 178.083 244.599 178.219 244.914V245H177.177ZM175.528 244.243C175.839 244.243 176.135 244.162 176.414 244.001C176.693 243.84 176.896 243.63 177.021 243.373V242.18H176.242C175.025 242.18 174.416 242.536 174.416 243.249C174.416 243.561 174.52 243.804 174.728 243.979C174.935 244.155 175.202 244.243 175.528 244.243ZM187.21 242.159C187.21 243.043 187.008 243.756 186.603 244.296C186.198 244.837 185.651 245.107 184.959 245.107C184.254 245.107 183.699 244.884 183.294 244.436V247.234H182.301V239.188H183.208L183.257 239.833C183.661 239.332 184.224 239.081 184.943 239.081C185.642 239.081 186.193 239.344 186.598 239.871C187.006 240.397 187.21 241.129 187.21 242.067V242.159ZM186.216 242.046C186.216 241.391 186.077 240.873 185.797 240.494C185.518 240.114 185.135 239.924 184.648 239.924C184.046 239.924 183.595 240.191 183.294 240.725V243.501C183.592 244.031 184.046 244.296 184.659 244.296C185.135 244.296 185.513 244.108 185.792 243.732C186.075 243.353 186.216 242.791 186.216 242.046ZM190.889 245.107C190.101 245.107 189.46 244.85 188.966 244.334C188.472 243.815 188.225 243.122 188.225 242.255V242.073C188.225 241.496 188.334 240.982 188.553 240.531C188.775 240.076 189.083 239.722 189.477 239.468C189.874 239.21 190.304 239.081 190.766 239.081C191.521 239.081 192.108 239.33 192.527 239.828C192.946 240.325 193.156 241.038 193.156 241.965V242.379H189.219C189.233 242.952 189.4 243.416 189.718 243.77C190.041 244.121 190.449 244.296 190.943 244.296C191.294 244.296 191.591 244.225 191.834 244.082C192.078 243.938 192.291 243.749 192.474 243.512L193.081 243.985C192.594 244.733 191.863 245.107 190.889 245.107ZM190.766 239.897C190.365 239.897 190.028 240.044 189.756 240.338C189.484 240.628 189.315 241.036 189.251 241.562H192.162V241.487C192.133 240.982 191.997 240.592 191.754 240.316C191.51 240.037 191.181 239.897 190.766 239.897ZM198.065 240.01H195.385V245H194.386V239.188H198.065V240.01ZM202.689 239.188H203.683V245H202.689V240.762L200.009 245H199.016V239.188H200.009V243.432L202.689 239.188ZM207.609 244.296C207.964 244.296 208.274 244.189 208.539 243.974C208.804 243.759 208.95 243.491 208.979 243.168H209.919C209.901 243.501 209.786 243.818 209.575 244.119C209.364 244.42 209.081 244.66 208.727 244.839C208.376 245.018 208.003 245.107 207.609 245.107C206.818 245.107 206.188 244.844 205.719 244.318C205.253 243.788 205.021 243.065 205.021 242.148V241.981C205.021 241.416 205.124 240.913 205.332 240.472C205.54 240.032 205.837 239.69 206.224 239.446C206.614 239.203 207.074 239.081 207.604 239.081C208.256 239.081 208.796 239.276 209.226 239.667C209.659 240.057 209.89 240.563 209.919 241.187H208.979C208.95 240.811 208.807 240.503 208.549 240.263C208.295 240.019 207.98 239.897 207.604 239.897C207.099 239.897 206.707 240.08 206.428 240.445C206.152 240.807 206.014 241.332 206.014 242.019V242.207C206.014 242.877 206.152 243.392 206.428 243.754C206.703 244.116 207.097 244.296 207.609 244.296ZM215.354 239.994H213.405V245H212.411V239.994H210.499V239.188H215.354V239.994ZM221.23 242.159C221.23 243.043 221.028 243.756 220.624 244.296C220.219 244.837 219.671 245.107 218.98 245.107C218.275 245.107 217.72 244.884 217.315 244.436V247.234H216.321V239.188H217.229L217.277 239.833C217.682 239.332 218.244 239.081 218.964 239.081C219.662 239.081 220.214 239.344 220.618 239.871C221.026 240.397 221.23 241.129 221.23 242.067V242.159ZM220.237 242.046C220.237 241.391 220.097 240.873 219.818 240.494C219.539 240.114 219.155 239.924 218.668 239.924C218.067 239.924 217.616 240.191 217.315 240.725V243.501C217.612 244.031 218.067 244.296 218.679 244.296C219.155 244.296 219.533 244.108 219.812 243.732C220.095 243.353 220.237 242.791 220.237 242.046ZM226.086 245C226.029 244.885 225.982 244.681 225.946 244.388C225.484 244.868 224.933 245.107 224.292 245.107C223.719 245.107 223.248 244.946 222.879 244.624C222.514 244.298 222.332 243.886 222.332 243.389C222.332 242.784 222.561 242.314 223.019 241.981C223.481 241.645 224.129 241.477 224.963 241.477H225.93V241.02C225.93 240.673 225.826 240.397 225.619 240.193C225.411 239.985 225.105 239.881 224.7 239.881C224.346 239.881 224.049 239.971 223.809 240.15C223.569 240.329 223.449 240.546 223.449 240.8H222.45C222.45 240.51 222.552 240.23 222.756 239.962C222.964 239.69 223.243 239.475 223.594 239.317C223.948 239.16 224.337 239.081 224.759 239.081C225.429 239.081 225.953 239.249 226.333 239.586C226.713 239.919 226.91 240.379 226.924 240.966V243.641C226.924 244.175 226.992 244.599 227.128 244.914V245H226.086ZM224.437 244.243C224.749 244.243 225.044 244.162 225.323 244.001C225.603 243.84 225.805 243.63 225.93 243.373V242.18H225.151C223.934 242.18 223.325 242.536 223.325 243.249C223.325 243.561 223.429 243.804 223.637 243.979C223.844 244.155 224.111 244.243 224.437 244.243ZM228.567 239.188H229.566V244.189H232.241V239.188H233.235V244.189H233.928L233.831 246.724H232.939V245H228.567V239.188ZM238.762 239.188H239.755V245H238.762V240.762L236.082 245H235.088V239.188H236.082V243.432L238.762 239.188ZM242.436 241.654H243.832C243.907 240.88 244.181 240.259 244.654 239.79C245.13 239.317 245.73 239.081 246.453 239.081C247.212 239.081 247.833 239.337 248.317 239.849C248.8 240.361 249.062 241.027 249.101 241.847L249.106 242.159C249.106 242.724 248.995 243.235 248.773 243.689C248.551 244.144 248.24 244.495 247.839 244.742C247.438 244.986 246.979 245.107 246.464 245.107C245.715 245.107 245.103 244.864 244.627 244.377C244.151 243.886 243.884 243.251 243.827 242.47H242.436V245H241.442V239.188H242.436V241.654ZM244.81 242.159C244.81 242.803 244.958 243.321 245.255 243.711C245.556 244.101 245.959 244.296 246.464 244.296C246.969 244.296 247.368 244.098 247.662 243.7C247.959 243.303 248.107 242.75 248.107 242.041C248.107 241.407 247.957 240.891 247.656 240.494C247.355 240.096 246.954 239.897 246.453 239.897C245.959 239.897 245.562 240.093 245.261 240.483C244.96 240.873 244.81 241.432 244.81 242.159ZM132.07 259.994H130.121V265H129.127V259.994H127.215V259.188H132.07V259.994ZM132.548 262.041C132.548 261.471 132.659 260.959 132.881 260.504C133.107 260.05 133.418 259.699 133.816 259.452C134.217 259.205 134.674 259.081 135.186 259.081C135.977 259.081 136.616 259.355 137.103 259.903C137.594 260.451 137.839 261.179 137.839 262.089V262.159C137.839 262.724 137.73 263.233 137.511 263.684C137.296 264.132 136.987 264.481 136.582 264.731C136.181 264.982 135.719 265.107 135.196 265.107C134.409 265.107 133.769 264.833 133.279 264.286C132.792 263.738 132.548 263.013 132.548 262.11V262.041ZM133.547 262.159C133.547 262.803 133.696 263.321 133.993 263.711C134.294 264.101 134.695 264.296 135.196 264.296C135.701 264.296 136.102 264.099 136.399 263.706C136.697 263.308 136.845 262.753 136.845 262.041C136.845 261.403 136.693 260.888 136.389 260.494C136.088 260.096 135.687 259.897 135.186 259.897C134.695 259.897 134.299 260.093 133.999 260.483C133.698 260.873 133.547 261.432 133.547 262.159ZM139.176 265V259.188H141.443C142.216 259.188 142.809 259.325 143.221 259.597C143.636 259.865 143.844 260.261 143.844 260.784C143.844 261.052 143.763 261.296 143.602 261.514C143.441 261.729 143.203 261.894 142.888 262.008C143.239 262.091 143.52 262.252 143.731 262.492C143.946 262.732 144.053 263.018 144.053 263.351C144.053 263.885 143.856 264.293 143.462 264.576C143.072 264.859 142.519 265 141.803 265H139.176ZM140.17 262.449V264.2H141.813C142.229 264.2 142.539 264.123 142.743 263.969C142.95 263.815 143.054 263.598 143.054 263.319C143.054 262.739 142.628 262.449 141.776 262.449H140.17ZM140.17 261.654H141.454C142.385 261.654 142.85 261.382 142.85 260.837C142.85 260.293 142.41 260.012 141.529 259.994H140.17V261.654ZM148.957 265C148.9 264.885 148.853 264.681 148.817 264.388C148.355 264.868 147.804 265.107 147.163 265.107C146.59 265.107 146.119 264.946 145.75 264.624C145.385 264.298 145.203 263.886 145.203 263.389C145.203 262.784 145.432 262.314 145.89 261.981C146.352 261.645 147 261.477 147.834 261.477H148.801V261.02C148.801 260.673 148.697 260.397 148.49 260.193C148.282 259.985 147.976 259.881 147.571 259.881C147.217 259.881 146.92 259.971 146.68 260.15C146.44 260.329 146.32 260.546 146.32 260.8H145.321C145.321 260.51 145.423 260.23 145.627 259.962C145.835 259.69 146.114 259.475 146.465 259.317C146.819 259.16 147.208 259.081 147.63 259.081C148.3 259.081 148.825 259.249 149.204 259.586C149.584 259.919 149.781 260.379 149.795 260.966V263.641C149.795 264.175 149.863 264.599 149.999 264.914V265H148.957ZM147.308 264.243C147.62 264.243 147.915 264.162 148.194 264.001C148.474 263.84 148.676 263.63 148.801 263.373V262.18H148.022C146.805 262.18 146.196 262.536 146.196 263.249C146.196 263.561 146.3 263.804 146.508 263.979C146.715 264.155 146.982 264.243 147.308 264.243ZM156.262 262.159C156.262 263.043 156.059 263.756 155.655 264.296C155.25 264.837 154.702 265.107 154.011 265.107C153.306 265.107 152.751 264.884 152.346 264.436V267.234H151.353V259.188H152.26L152.309 259.833C152.713 259.332 153.275 259.081 153.995 259.081C154.693 259.081 155.245 259.344 155.649 259.871C156.058 260.397 156.262 261.129 156.262 262.067V262.159ZM155.268 262.046C155.268 261.391 155.128 260.873 154.849 260.494C154.57 260.114 154.187 259.924 153.7 259.924C153.098 259.924 152.647 260.191 152.346 260.725V263.501C152.643 264.031 153.098 264.296 153.71 264.296C154.187 264.296 154.564 264.108 154.844 263.732C155.127 263.353 155.268 262.791 155.268 262.046ZM162.277 265H161.284V262.519H158.614V265H157.615V259.188H158.614V261.708H161.284V259.188H162.277V265ZM163.615 262.041C163.615 261.471 163.726 260.959 163.948 260.504C164.173 260.05 164.485 259.699 164.882 259.452C165.283 259.205 165.74 259.081 166.252 259.081C167.043 259.081 167.682 259.355 168.169 259.903C168.66 260.451 168.905 261.179 168.905 262.089V262.159C168.905 262.724 168.796 263.233 168.578 263.684C168.363 264.132 168.053 264.481 167.648 264.731C167.247 264.982 166.785 265.107 166.263 265.107C165.475 265.107 164.836 264.833 164.345 264.286C163.858 263.738 163.615 263.013 163.615 262.11V262.041ZM164.614 262.159C164.614 262.803 164.762 263.321 165.06 263.711C165.36 264.101 165.761 264.296 166.263 264.296C166.768 264.296 167.169 264.099 167.466 263.706C167.763 263.308 167.912 262.753 167.912 262.041C167.912 261.403 167.759 260.888 167.455 260.494C167.154 260.096 166.753 259.897 166.252 259.897C165.761 259.897 165.366 260.093 165.065 260.483C164.764 260.873 164.614 261.432 164.614 262.159ZM173.906 260.01H171.226V265H170.227V259.188H173.906V260.01ZM174.4 262.041C174.4 261.471 174.511 260.959 174.733 260.504C174.958 260.05 175.27 259.699 175.667 259.452C176.069 259.205 176.525 259.081 177.037 259.081C177.828 259.081 178.468 259.355 178.955 259.903C179.445 260.451 179.69 261.179 179.69 262.089V262.159C179.69 262.724 179.581 263.233 179.363 263.684C179.148 264.132 178.838 264.481 178.434 264.731C178.033 264.982 177.571 265.107 177.048 265.107C176.26 265.107 175.621 264.833 175.13 264.286C174.643 263.738 174.4 263.013 174.4 262.11V262.041ZM175.399 262.159C175.399 262.803 175.548 263.321 175.845 263.711C176.146 264.101 176.547 264.296 177.048 264.296C177.553 264.296 177.954 264.099 178.251 263.706C178.548 263.308 178.697 262.753 178.697 262.041C178.697 261.403 178.545 260.888 178.24 260.494C177.939 260.096 177.538 259.897 177.037 259.897C176.547 259.897 176.151 260.093 175.85 260.483C175.549 260.873 175.399 261.432 175.399 262.159ZM186.861 260.778C186.861 260.506 186.757 260.291 186.549 260.134C186.342 259.973 186.057 259.892 185.695 259.892C185.344 259.892 185.051 259.983 184.814 260.166C184.582 260.349 184.465 260.563 184.465 260.811H183.477C183.477 260.306 183.688 259.892 184.111 259.57C184.533 259.248 185.062 259.086 185.695 259.086C186.376 259.086 186.906 259.233 187.285 259.527C187.665 259.817 187.854 260.232 187.854 260.773C187.854 261.034 187.776 261.274 187.618 261.493C187.461 261.711 187.237 261.885 186.947 262.014C187.624 262.243 187.962 262.694 187.962 263.367C187.962 263.901 187.756 264.323 187.344 264.635C186.932 264.946 186.383 265.102 185.695 265.102C185.026 265.102 184.472 264.939 184.036 264.613C183.602 264.284 183.386 263.84 183.386 263.281H184.374C184.374 263.564 184.499 263.808 184.75 264.012C185.004 264.212 185.319 264.312 185.695 264.312C186.075 264.312 186.381 264.225 186.614 264.049C186.847 263.874 186.963 263.646 186.963 263.367C186.963 263.041 186.864 262.809 186.667 262.669C186.474 262.526 186.172 262.454 185.76 262.454H184.766V261.616H185.846C186.522 261.598 186.861 261.319 186.861 260.778ZM193.999 265H193.005V262.519H190.336V265H189.337V259.188H190.336V261.708H193.005V259.188H193.999V265ZM199.188 265C199.13 264.885 199.084 264.681 199.048 264.388C198.586 264.868 198.035 265.107 197.394 265.107C196.821 265.107 196.35 264.946 195.981 264.624C195.616 264.298 195.433 263.886 195.433 263.389C195.433 262.784 195.662 262.314 196.121 261.981C196.583 261.645 197.231 261.477 198.065 261.477H199.032V261.02C199.032 260.673 198.928 260.397 198.72 260.193C198.513 259.985 198.206 259.881 197.802 259.881C197.447 259.881 197.15 259.971 196.91 260.15C196.67 260.329 196.55 260.546 196.55 260.8H195.551C195.551 260.51 195.653 260.23 195.857 259.962C196.065 259.69 196.344 259.475 196.695 259.317C197.05 259.16 197.438 259.081 197.861 259.081C198.53 259.081 199.055 259.249 199.435 259.586C199.814 259.919 200.011 260.379 200.025 260.966V263.641C200.025 264.175 200.093 264.599 200.229 264.914V265H199.188ZM197.539 264.243C197.85 264.243 198.146 264.162 198.425 264.001C198.704 263.84 198.906 263.63 199.032 263.373V262.18H198.253C197.035 262.18 196.427 262.536 196.427 263.249C196.427 263.561 196.531 263.804 196.738 263.979C196.946 264.155 197.213 264.243 197.539 264.243ZM203.393 262.524H202.668V265H201.669V259.188H202.668V261.648H203.318L205.273 259.188H206.476L204.177 261.981L206.669 265H205.407L203.393 262.524ZM211.111 265C211.054 264.885 211.007 264.681 210.972 264.388C210.51 264.868 209.958 265.107 209.317 265.107C208.744 265.107 208.274 264.946 207.905 264.624C207.54 264.298 207.357 263.886 207.357 263.389C207.357 262.784 207.586 262.314 208.044 261.981C208.506 261.645 209.154 261.477 209.989 261.477H210.956V261.02C210.956 260.673 210.852 260.397 210.644 260.193C210.436 259.985 210.13 259.881 209.726 259.881C209.371 259.881 209.074 259.971 208.834 260.15C208.594 260.329 208.474 260.546 208.474 260.8H207.475C207.475 260.51 207.577 260.23 207.781 259.962C207.989 259.69 208.268 259.475 208.619 259.317C208.974 259.16 209.362 259.081 209.785 259.081C210.454 259.081 210.979 259.249 211.358 259.586C211.738 259.919 211.935 260.379 211.949 260.966V263.641C211.949 264.175 212.017 264.599 212.153 264.914V265H211.111ZM209.462 264.243C209.774 264.243 210.069 264.162 210.349 264.001C210.628 263.84 210.83 263.63 210.956 263.373V262.18H210.177C208.959 262.18 208.351 262.536 208.351 263.249C208.351 263.561 208.454 263.804 208.662 263.979C208.87 264.155 209.137 264.243 209.462 264.243ZM218.695 261.514C217.811 261.26 217.166 260.948 216.762 260.58C216.361 260.207 216.16 259.749 216.16 259.205C216.16 258.589 216.405 258.08 216.896 257.679C217.39 257.275 218.031 257.072 218.819 257.072C219.356 257.072 219.834 257.176 220.253 257.384C220.675 257.591 221.001 257.878 221.23 258.243C221.463 258.608 221.58 259.008 221.58 259.441H220.543C220.543 258.968 220.393 258.598 220.092 258.329C219.791 258.057 219.367 257.921 218.819 257.921C218.31 257.921 217.913 258.034 217.626 258.259C217.344 258.481 217.202 258.791 217.202 259.188C217.202 259.507 217.336 259.778 217.605 260C217.877 260.218 218.337 260.418 218.985 260.601C219.637 260.784 220.146 260.986 220.511 261.208C220.88 261.426 221.152 261.682 221.327 261.976C221.506 262.27 221.596 262.615 221.596 263.013C221.596 263.646 221.349 264.155 220.854 264.538C220.36 264.918 219.7 265.107 218.873 265.107C218.335 265.107 217.834 265.005 217.369 264.801C216.903 264.594 216.543 264.311 216.289 263.953C216.038 263.595 215.913 263.188 215.913 262.733H216.95C216.95 263.206 217.123 263.58 217.471 263.856C217.822 264.128 218.289 264.264 218.873 264.264C219.417 264.264 219.834 264.153 220.124 263.931C220.414 263.709 220.559 263.407 220.559 263.023C220.559 262.64 220.425 262.345 220.156 262.137C219.888 261.926 219.401 261.718 218.695 261.514ZM223.701 259.188L223.728 259.833C224.154 259.332 224.729 259.081 225.452 259.081C226.265 259.081 226.818 259.393 227.112 260.016C227.305 259.736 227.556 259.511 227.864 259.339C228.175 259.167 228.542 259.081 228.965 259.081C230.24 259.081 230.888 259.756 230.909 261.106V265H229.916V261.165C229.916 260.75 229.821 260.44 229.631 260.236C229.441 260.028 229.122 259.924 228.675 259.924C228.306 259.924 228 260.035 227.756 260.257C227.513 260.476 227.371 260.771 227.332 261.144V265H226.333V261.192C226.333 260.347 225.919 259.924 225.092 259.924C224.441 259.924 223.995 260.202 223.755 260.757V265H222.761V259.188H223.701ZM236.001 265C235.944 264.885 235.897 264.681 235.861 264.388C235.399 264.868 234.848 265.107 234.207 265.107C233.634 265.107 233.163 264.946 232.794 264.624C232.429 264.298 232.247 263.886 232.247 263.389C232.247 262.784 232.476 262.314 232.934 261.981C233.396 261.645 234.044 261.477 234.878 261.477H235.845V261.02C235.845 260.673 235.741 260.397 235.534 260.193C235.326 259.985 235.02 259.881 234.615 259.881C234.261 259.881 233.964 259.971 233.724 260.15C233.484 260.329 233.364 260.546 233.364 260.8H232.365C232.365 260.51 232.467 260.23 232.671 259.962C232.879 259.69 233.158 259.475 233.509 259.317C233.863 259.16 234.252 259.081 234.674 259.081C235.344 259.081 235.868 259.249 236.248 259.586C236.628 259.919 236.825 260.379 236.839 260.966V263.641C236.839 264.175 236.907 264.599 237.043 264.914V265H236.001ZM234.352 264.243C234.664 264.243 234.959 264.162 235.238 264.001C235.518 263.84 235.72 263.63 235.845 263.373V262.18H235.066C233.849 262.18 233.24 262.536 233.24 263.249C233.24 263.561 233.344 263.804 233.552 263.979C233.759 264.155 234.026 264.243 234.352 264.243ZM241.206 260.08C241.055 260.055 240.892 260.042 240.717 260.042C240.065 260.042 239.623 260.32 239.39 260.875V265H238.396V259.188H239.363L239.379 259.86C239.705 259.341 240.167 259.081 240.765 259.081C240.958 259.081 241.105 259.106 241.206 259.156V260.08ZM243.741 257.781V259.188H244.826V259.957H243.741V263.561C243.741 263.793 243.789 263.969 243.886 264.087C243.982 264.201 244.147 264.259 244.38 264.259C244.494 264.259 244.652 264.237 244.853 264.194V265C244.591 265.072 244.337 265.107 244.09 265.107C243.646 265.107 243.311 264.973 243.085 264.705C242.86 264.436 242.747 264.055 242.747 263.561V259.957H241.689V259.188H242.747V257.781H243.741ZM248.451 261.514C247.567 261.26 246.922 260.948 246.518 260.58C246.117 260.207 245.916 259.749 245.916 259.205C245.916 258.589 246.161 258.08 246.652 257.679C247.146 257.275 247.787 257.072 248.575 257.072C249.112 257.072 249.59 257.176 250.009 257.384C250.431 257.591 250.757 257.878 250.986 258.243C251.219 258.608 251.335 259.008 251.335 259.441H250.299C250.299 258.968 250.148 258.598 249.848 258.329C249.547 258.057 249.123 257.921 248.575 257.921C248.066 257.921 247.669 258.034 247.382 258.259C247.099 258.481 246.958 258.791 246.958 259.188C246.958 259.507 247.092 259.778 247.361 260C247.633 260.218 248.093 260.418 248.741 260.601C249.393 260.784 249.901 260.986 250.267 261.208C250.635 261.426 250.908 261.682 251.083 261.976C251.262 262.27 251.352 262.615 251.352 263.013C251.352 263.646 251.104 264.155 250.61 264.538C250.116 264.918 249.456 265.107 248.628 265.107C248.091 265.107 247.59 265.005 247.125 264.801C246.659 264.594 246.299 264.311 246.045 263.953C245.794 263.595 245.669 263.188 245.669 262.733H246.706C246.706 263.206 246.879 263.58 247.227 263.856C247.577 264.128 248.045 264.264 248.628 264.264C249.173 264.264 249.59 264.153 249.88 263.931C250.17 263.709 250.315 263.407 250.315 263.023C250.315 262.64 250.181 262.345 249.912 262.137C249.644 261.926 249.157 261.718 248.451 261.514ZM253.516 259.892C253.957 259.351 254.529 259.081 255.235 259.081C256.463 259.081 257.083 259.774 257.093 261.16V265H256.1V261.154C256.096 260.735 255.999 260.426 255.81 260.225C255.623 260.025 255.332 259.924 254.934 259.924C254.612 259.924 254.329 260.01 254.085 260.182C253.842 260.354 253.652 260.58 253.516 260.859V265H252.522V256.75H253.516V259.892ZM258.318 262.041C258.318 261.471 258.429 260.959 258.651 260.504C258.876 260.05 259.188 259.699 259.585 259.452C259.986 259.205 260.443 259.081 260.955 259.081C261.746 259.081 262.386 259.355 262.873 259.903C263.363 260.451 263.608 261.179 263.608 262.089V262.159C263.608 262.724 263.499 263.233 263.281 263.684C263.066 264.132 262.756 264.481 262.352 264.731C261.951 264.982 261.489 265.107 260.966 265.107C260.178 265.107 259.539 264.833 259.048 264.286C258.561 263.738 258.318 263.013 258.318 262.11V262.041ZM259.317 262.159C259.317 262.803 259.465 263.321 259.763 263.711C260.063 264.101 260.465 264.296 260.966 264.296C261.471 264.296 261.872 264.099 262.169 263.706C262.466 263.308 262.615 262.753 262.615 262.041C262.615 261.403 262.463 260.888 262.158 260.494C261.857 260.096 261.456 259.897 260.955 259.897C260.465 259.897 260.069 260.093 259.768 260.483C259.467 260.873 259.317 261.432 259.317 262.159ZM267.266 265.107C266.478 265.107 265.837 264.85 265.343 264.334C264.849 263.815 264.602 263.122 264.602 262.255V262.073C264.602 261.496 264.711 260.982 264.93 260.531C265.152 260.076 265.46 259.722 265.854 259.468C266.251 259.21 266.681 259.081 267.143 259.081C267.898 259.081 268.485 259.33 268.904 259.828C269.323 260.325 269.533 261.038 269.533 261.965V262.379H265.596C265.61 262.952 265.777 263.416 266.095 263.77C266.417 264.121 266.826 264.296 267.32 264.296C267.671 264.296 267.968 264.225 268.211 264.082C268.455 263.938 268.668 263.749 268.851 263.512L269.458 263.985C268.971 264.733 268.24 265.107 267.266 265.107ZM267.143 259.897C266.742 259.897 266.405 260.044 266.133 260.338C265.861 260.628 265.692 261.036 265.628 261.562H268.539V261.487C268.51 260.982 268.374 260.592 268.131 260.316C267.887 260.037 267.558 259.897 267.143 259.897ZM274.071 263.458C274.071 263.19 273.969 262.982 273.765 262.835C273.565 262.685 273.212 262.556 272.707 262.449C272.206 262.341 271.806 262.212 271.509 262.062C271.216 261.912 270.997 261.733 270.854 261.525C270.714 261.317 270.645 261.07 270.645 260.784C270.645 260.307 270.845 259.905 271.246 259.575C271.651 259.246 272.166 259.081 272.793 259.081C273.452 259.081 273.985 259.251 274.394 259.591C274.805 259.931 275.011 260.367 275.011 260.896H274.012C274.012 260.624 273.896 260.39 273.663 260.193C273.434 259.996 273.144 259.897 272.793 259.897C272.431 259.897 272.148 259.976 271.944 260.134C271.74 260.291 271.638 260.497 271.638 260.751C271.638 260.991 271.733 261.172 271.923 261.294C272.113 261.416 272.455 261.532 272.949 261.643C273.446 261.754 273.849 261.887 274.157 262.041C274.465 262.194 274.693 262.381 274.839 262.599C274.99 262.814 275.065 263.077 275.065 263.389C275.065 263.908 274.857 264.325 274.442 264.64C274.027 264.952 273.488 265.107 272.825 265.107C272.36 265.107 271.948 265.025 271.59 264.86C271.232 264.696 270.951 264.466 270.747 264.173C270.546 263.876 270.446 263.555 270.446 263.211H271.439C271.457 263.544 271.59 263.809 271.837 264.006C272.088 264.2 272.417 264.296 272.825 264.296C273.201 264.296 273.502 264.221 273.728 264.071C273.957 263.917 274.071 263.713 274.071 263.458Z" fill="#162941"/>
<rect x="35" y="251" width="77" height="22" rx="5" fill="#F5BF4F"/>
<path d="M44.5898 259.93H42.7617V265H42.0156V259.93H40.1914V259.312H44.5898V259.93ZM49.6992 262.34C49.6992 262.897 49.6055 263.384 49.418 263.801C49.2305 264.215 48.9648 264.531 48.6211 264.75C48.2773 264.969 47.8763 265.078 47.418 265.078C46.9701 265.078 46.5729 264.969 46.2266 264.75C45.8802 264.529 45.6107 264.215 45.418 263.809C45.2279 263.4 45.1302 262.927 45.125 262.391V261.98C45.125 261.434 45.2201 260.951 45.4102 260.531C45.6003 260.112 45.8685 259.792 46.2148 259.57C46.5638 259.346 46.9622 259.234 47.4102 259.234C47.8659 259.234 48.2669 259.345 48.6133 259.566C48.9622 259.785 49.2305 260.104 49.418 260.523C49.6055 260.94 49.6992 261.426 49.6992 261.98V262.34ZM48.9531 261.973C48.9531 261.298 48.8177 260.781 48.5469 260.422C48.276 260.06 47.8971 259.879 47.4102 259.879C46.9362 259.879 46.5625 260.06 46.2891 260.422C46.0182 260.781 45.8789 261.281 45.8711 261.922V262.34C45.8711 262.993 46.0078 263.508 46.2812 263.883C46.5573 264.255 46.9362 264.441 47.418 264.441C47.9023 264.441 48.2773 264.266 48.543 263.914C48.8086 263.56 48.9453 263.053 48.9531 262.395V261.973ZM50.8242 265V259.312H52.6836C53.3008 259.312 53.7643 259.44 54.0742 259.695C54.3867 259.951 54.543 260.328 54.543 260.828C54.543 261.094 54.4674 261.329 54.3164 261.535C54.1654 261.738 53.9596 261.896 53.6992 262.008C54.0065 262.094 54.2487 262.258 54.4258 262.5C54.6055 262.74 54.6953 263.026 54.6953 263.359C54.6953 263.87 54.5299 264.271 54.1992 264.562C53.8685 264.854 53.401 265 52.7969 265H50.8242ZM51.5742 262.34V264.387H52.8125C53.1615 264.387 53.4362 264.297 53.6367 264.117C53.8398 263.935 53.9414 263.685 53.9414 263.367C53.9414 262.682 53.569 262.34 52.8242 262.34H51.5742ZM51.5742 261.738H52.707C53.0352 261.738 53.2969 261.656 53.4922 261.492C53.6901 261.328 53.7891 261.105 53.7891 260.824C53.7891 260.512 53.6979 260.285 53.5156 260.145C53.3333 260.001 53.056 259.93 52.6836 259.93H51.5742V261.738ZM58.9492 263.516H56.5664L56.0312 265H55.2578L57.4297 259.312H58.0859L60.2617 265H59.4922L58.9492 263.516ZM56.793 262.898H58.7266L57.7578 260.238L56.793 262.898ZM61.7773 262.773V265H61.0273V259.312H63.125C63.7474 259.312 64.2344 259.471 64.5859 259.789C64.9401 260.107 65.1172 260.527 65.1172 261.051C65.1172 261.603 64.944 262.029 64.5977 262.328C64.2539 262.625 63.7604 262.773 63.1172 262.773H61.7773ZM61.7773 262.16H63.125C63.526 262.16 63.8333 262.066 64.0469 261.879C64.2604 261.689 64.3672 261.415 64.3672 261.059C64.3672 260.72 64.2604 260.449 64.0469 260.246C63.8333 260.043 63.5404 259.938 63.168 259.93H61.7773V262.16ZM70.4453 265H69.6914V262.371H66.8242V265H66.0742V259.312H66.8242V261.758H69.6914V259.312H70.4453V265ZM72.5625 261.633H73.9766C74.5703 261.641 75.0339 261.793 75.3672 262.09C75.7005 262.387 75.8672 262.79 75.8672 263.301C75.8672 263.814 75.6992 264.223 75.3633 264.527C75.0273 264.832 74.569 264.99 73.9883 265H71.8125V259.312H72.5625V261.633ZM72.5625 262.25V264.387H73.9336C74.306 264.387 74.5951 264.288 74.8008 264.09C75.0091 263.892 75.1133 263.626 75.1133 263.293C75.1133 262.973 75.013 262.72 74.8125 262.535C74.6146 262.35 74.332 262.255 73.9648 262.25H72.5625ZM77.3047 265H76.5547V259.312H77.3047V265ZM82.2852 259.312H83.0352V265H82.2852V260.617L79.4844 265H78.7305V259.312H79.4844V263.695L82.2852 259.312ZM82.0742 257.898C82.0742 258.214 81.9661 258.467 81.75 258.66C81.5365 258.85 81.2552 258.945 80.9062 258.945C80.5573 258.945 80.2747 258.849 80.0586 258.656C79.8424 258.464 79.7344 258.211 79.7344 257.898H80.3242C80.3242 258.081 80.3737 258.224 80.4727 258.328C80.5716 258.43 80.7161 258.48 80.9062 258.48C81.0885 258.48 81.2305 258.43 81.332 258.328C81.4362 258.227 81.4883 258.083 81.4883 257.898H82.0742ZM89.3047 260.84C89.3047 260.538 89.194 260.298 88.9727 260.121C88.7539 259.941 88.4453 259.852 88.0469 259.852C87.7135 259.852 87.4336 259.944 87.207 260.129C86.9831 260.311 86.8711 260.538 86.8711 260.809H86.1211C86.1211 260.507 86.2031 260.236 86.3672 259.996C86.5339 259.757 86.7656 259.57 87.0625 259.438C87.3594 259.302 87.6875 259.234 88.0469 259.234C88.6823 259.234 89.1758 259.378 89.5273 259.664C89.8789 259.948 90.0547 260.344 90.0547 260.852C90.0547 261.115 89.974 261.354 89.8125 261.57C89.651 261.786 89.4258 261.957 89.1367 262.082C89.806 262.306 90.1406 262.75 90.1406 263.414C90.1406 263.924 89.9505 264.329 89.5703 264.629C89.1901 264.928 88.6823 265.078 88.0469 265.078C87.6693 265.078 87.3255 265.012 87.0156 264.879C86.7083 264.743 86.4688 264.552 86.2969 264.305C86.125 264.057 86.0391 263.763 86.0391 263.422H86.7891C86.7891 263.721 86.9076 263.971 87.1445 264.172C87.3815 264.37 87.6823 264.469 88.0469 264.469C88.4557 264.469 88.7812 264.374 89.0234 264.184C89.2682 263.993 89.3906 263.742 89.3906 263.43C89.3906 262.763 88.9779 262.423 88.1523 262.41H87.4492V261.793H88.1484C88.5286 261.785 88.8164 261.699 89.0117 261.535C89.207 261.371 89.3047 261.139 89.3047 260.84ZM95.5078 265H94.7539V262.371H91.8867V265H91.1367V259.312H91.8867V261.758H94.7539V259.312H95.5078V265ZM100.051 263.516H97.668L97.1328 265H96.3594L98.5312 259.312H99.1875L101.363 265H100.594L100.051 263.516ZM97.8945 262.898H99.8281L98.8594 260.238L97.8945 262.898ZM103.605 262.445H102.914V265H102.164V259.312H102.914V261.82H103.5L105.488 259.312H106.422L104.25 262.07L106.582 265H105.664L103.605 262.445Z" fill="white"/>
<g filter="url(#filter2_d)">
<rect x="20" y="139" width="295" height="70" rx="5" fill="white"/>
</g>
<path d="M52.9155 165H51.9165V158.377L49.9131 159.113V158.211L52.7598 157.142H52.9155V165ZM56.2832 161.079L56.6807 157.18H60.6875V158.098H57.5239L57.2876 160.23C57.6707 160.005 58.1058 159.892 58.5928 159.892C59.3053 159.892 59.8711 160.128 60.29 160.601C60.709 161.07 60.9185 161.706 60.9185 162.508C60.9185 163.313 60.7 163.949 60.2632 164.415C59.8299 164.876 59.223 165.107 58.4424 165.107C57.7513 165.107 57.1873 164.916 56.7505 164.533C56.3136 164.15 56.0648 163.62 56.0039 162.943H56.9438C57.0047 163.39 57.1641 163.729 57.4219 163.958C57.6797 164.184 58.0199 164.296 58.4424 164.296C58.9043 164.296 59.266 164.139 59.5273 163.824C59.7923 163.509 59.9248 163.074 59.9248 162.519C59.9248 161.996 59.7816 161.577 59.4951 161.262C59.2122 160.943 58.8345 160.784 58.3618 160.784C57.9285 160.784 57.5884 160.879 57.3413 161.068L57.0781 161.283L56.2832 161.079ZM62.127 164.479C62.127 164.307 62.1771 164.164 62.2773 164.049C62.3812 163.935 62.5352 163.877 62.7393 163.877C62.9434 163.877 63.0973 163.935 63.2012 164.049C63.3086 164.164 63.3623 164.307 63.3623 164.479C63.3623 164.644 63.3086 164.782 63.2012 164.893C63.0973 165.004 62.9434 165.059 62.7393 165.059C62.5352 165.059 62.3812 165.004 62.2773 164.893C62.1771 164.782 62.127 164.644 62.127 164.479ZM68.1694 165H67.1704V158.377L65.167 159.113V158.211L68.0137 157.142H68.1694V165ZM76.2046 165H71.0806V164.286L73.7876 161.278C74.1886 160.823 74.4644 160.454 74.6147 160.171C74.7687 159.885 74.8457 159.59 74.8457 159.285C74.8457 158.877 74.7222 158.542 74.4751 158.281C74.228 158.019 73.8986 157.889 73.4868 157.889C72.9927 157.889 72.6077 158.03 72.332 158.313C72.0599 158.592 71.9238 158.983 71.9238 159.484H70.9302C70.9302 158.764 71.1611 158.182 71.623 157.738C72.0885 157.294 72.7098 157.072 73.4868 157.072C74.2137 157.072 74.7884 157.264 75.2109 157.647C75.6335 158.027 75.8447 158.533 75.8447 159.167C75.8447 159.937 75.3542 160.854 74.373 161.917L72.2783 164.189H76.2046V165ZM77.3809 164.479C77.3809 164.307 77.431 164.164 77.5312 164.049C77.6351 163.935 77.7891 163.877 77.9932 163.877C78.1973 163.877 78.3512 163.935 78.4551 164.049C78.5625 164.164 78.6162 164.307 78.6162 164.479C78.6162 164.644 78.5625 164.782 78.4551 164.893C78.3512 165.004 78.1973 165.059 77.9932 165.059C77.7891 165.059 77.6351 165.004 77.5312 164.893C77.431 164.782 77.3809 164.644 77.3809 164.479ZM85.2817 165H80.1577V164.286L82.8647 161.278C83.2658 160.823 83.5415 160.454 83.6919 160.171C83.8459 159.885 83.9229 159.59 83.9229 159.285C83.9229 158.877 83.7993 158.542 83.5522 158.281C83.3052 158.019 82.9757 157.889 82.564 157.889C82.0698 157.889 81.6849 158.03 81.4092 158.313C81.137 158.592 81.001 158.983 81.001 159.484H80.0073C80.0073 158.764 80.2383 158.182 80.7002 157.738C81.1657 157.294 81.7869 157.072 82.564 157.072C83.2909 157.072 83.8656 157.264 84.2881 157.647C84.7106 158.027 84.9219 158.533 84.9219 159.167C84.9219 159.937 84.4313 160.854 83.4502 161.917L81.3555 164.189H85.2817V165ZM91.2383 161.665C91.2383 162.828 91.0396 163.693 90.6421 164.259C90.2446 164.825 89.6234 165.107 88.7783 165.107C87.944 165.107 87.3263 164.832 86.9253 164.28C86.5243 163.725 86.3166 162.898 86.3022 161.799V160.472C86.3022 159.323 86.501 158.469 86.8984 157.91C87.2959 157.352 87.9189 157.072 88.7676 157.072C89.609 157.072 90.2285 157.343 90.626 157.883C91.0234 158.42 91.2275 159.251 91.2383 160.375V161.665ZM90.2446 160.306C90.2446 159.464 90.1265 158.852 89.8901 158.469C89.6538 158.082 89.2796 157.889 88.7676 157.889C88.2591 157.889 87.8885 158.08 87.6558 158.463C87.423 158.847 87.3031 159.436 87.2959 160.23V161.82C87.2959 162.665 87.4176 163.29 87.6611 163.695C87.9082 164.096 88.2806 164.296 88.7783 164.296C89.2689 164.296 89.6323 164.107 89.8687 163.727C90.1086 163.347 90.2339 162.75 90.2446 161.933V160.306ZM95.7769 165H94.7778V158.377L92.7744 159.113V158.211L95.6211 157.142H95.7769V165ZM102.496 161.562C102.288 161.81 102.04 162.008 101.75 162.159C101.463 162.309 101.148 162.384 100.804 162.384C100.353 162.384 99.9591 162.273 99.6226 162.051C99.2896 161.829 99.0317 161.518 98.8491 161.117C98.6665 160.712 98.5752 160.266 98.5752 159.779C98.5752 159.257 98.6737 158.786 98.8706 158.367C99.0711 157.948 99.354 157.627 99.7192 157.405C100.084 157.183 100.511 157.072 100.998 157.072C101.771 157.072 102.38 157.362 102.824 157.942C103.271 158.519 103.495 159.307 103.495 160.306V160.596C103.495 162.118 103.194 163.229 102.593 163.931C101.991 164.629 101.083 164.987 99.8696 165.005H99.6763V164.167H99.8857C100.706 164.153 101.336 163.94 101.776 163.528C102.217 163.113 102.457 162.458 102.496 161.562ZM100.965 161.562C101.298 161.562 101.604 161.46 101.884 161.256C102.167 161.052 102.373 160.8 102.501 160.499V160.102C102.501 159.45 102.36 158.92 102.077 158.512C101.794 158.104 101.436 157.899 101.003 157.899C100.566 157.899 100.215 158.068 99.9502 158.404C99.6852 158.737 99.5527 159.178 99.5527 159.726C99.5527 160.259 99.6799 160.7 99.9341 161.047C100.192 161.391 100.536 161.562 100.965 161.562Z" fill="#162941"/>
<path d="M131.92 163.28C131.92 162.864 131.768 162.535 131.463 162.292C131.163 162.044 130.738 161.921 130.19 161.921C129.732 161.921 129.347 162.048 129.036 162.302C128.728 162.553 128.574 162.864 128.574 163.237H127.542C127.542 162.821 127.655 162.449 127.881 162.12C128.11 161.79 128.429 161.534 128.837 161.352C129.245 161.165 129.696 161.072 130.19 161.072C131.064 161.072 131.743 161.269 132.226 161.663C132.709 162.053 132.951 162.598 132.951 163.296C132.951 163.658 132.84 163.987 132.618 164.284C132.396 164.581 132.086 164.816 131.689 164.988C132.609 165.296 133.069 165.906 133.069 166.819C133.069 167.521 132.808 168.078 132.285 168.49C131.762 168.902 131.064 169.107 130.19 169.107C129.671 169.107 129.199 169.016 128.772 168.833C128.35 168.647 128.021 168.384 127.784 168.044C127.548 167.704 127.43 167.299 127.43 166.83H128.461C128.461 167.242 128.624 167.586 128.95 167.861C129.276 168.133 129.689 168.27 130.19 168.27C130.753 168.27 131.2 168.139 131.533 167.877C131.87 167.616 132.038 167.271 132.038 166.841C132.038 165.924 131.471 165.457 130.335 165.439H129.369V164.59H130.33C130.853 164.58 131.249 164.461 131.517 164.236C131.786 164.01 131.92 163.692 131.92 163.28ZM137.871 169C137.814 168.885 137.767 168.681 137.731 168.388C137.27 168.868 136.718 169.107 136.077 169.107C135.504 169.107 135.033 168.946 134.665 168.624C134.299 168.298 134.117 167.886 134.117 167.389C134.117 166.784 134.346 166.314 134.804 165.981C135.266 165.645 135.914 165.477 136.749 165.477H137.715V165.02C137.715 164.673 137.611 164.397 137.404 164.193C137.196 163.985 136.89 163.881 136.485 163.881C136.131 163.881 135.834 163.971 135.594 164.15C135.354 164.329 135.234 164.546 135.234 164.8H134.235C134.235 164.51 134.337 164.23 134.541 163.962C134.749 163.69 135.028 163.475 135.379 163.317C135.733 163.16 136.122 163.081 136.544 163.081C137.214 163.081 137.739 163.249 138.118 163.586C138.498 163.919 138.695 164.379 138.709 164.966V167.641C138.709 168.175 138.777 168.599 138.913 168.914V169H137.871ZM136.222 168.243C136.534 168.243 136.829 168.162 137.108 168.001C137.388 167.84 137.59 167.63 137.715 167.373V166.18H136.937C135.719 166.18 135.11 166.536 135.11 167.249C135.11 167.561 135.214 167.804 135.422 167.979C135.63 168.155 135.896 168.243 136.222 168.243ZM145.176 166.159C145.176 167.043 144.973 167.756 144.569 168.296C144.164 168.837 143.616 169.107 142.925 169.107C142.22 169.107 141.665 168.884 141.26 168.436V171.234H140.267V163.188H141.174L141.223 163.833C141.627 163.332 142.189 163.081 142.909 163.081C143.607 163.081 144.159 163.344 144.563 163.871C144.972 164.397 145.176 165.129 145.176 166.067V166.159ZM144.182 166.046C144.182 165.391 144.042 164.873 143.763 164.494C143.484 164.114 143.101 163.924 142.614 163.924C142.012 163.924 141.561 164.191 141.26 164.725V167.501C141.557 168.031 142.012 168.296 142.625 168.296C143.101 168.296 143.479 168.108 143.758 167.732C144.041 167.353 144.182 166.791 144.182 166.046ZM148.855 169.107C148.067 169.107 147.426 168.85 146.932 168.334C146.438 167.815 146.191 167.122 146.191 166.255V166.073C146.191 165.496 146.3 164.982 146.519 164.531C146.741 164.076 147.049 163.722 147.442 163.468C147.84 163.21 148.27 163.081 148.731 163.081C149.487 163.081 150.074 163.33 150.493 163.828C150.912 164.325 151.122 165.038 151.122 165.965V166.379H147.185C147.199 166.952 147.365 167.416 147.684 167.77C148.006 168.121 148.415 168.296 148.909 168.296C149.26 168.296 149.557 168.225 149.8 168.082C150.044 167.938 150.257 167.749 150.439 167.512L151.046 167.985C150.559 168.733 149.829 169.107 148.855 169.107ZM148.731 163.897C148.33 163.897 147.994 164.044 147.722 164.338C147.45 164.628 147.281 165.036 147.217 165.562H150.128V165.487C150.099 164.982 149.963 164.592 149.72 164.316C149.476 164.037 149.147 163.897 148.731 163.897ZM156.031 164.01H153.351V169H152.352V163.188H156.031V164.01ZM160.655 163.188H161.649V169H160.655V164.762L157.975 169H156.981V163.188H157.975V167.432L160.655 163.188ZM165.575 168.296C165.93 168.296 166.239 168.189 166.504 167.974C166.769 167.759 166.916 167.491 166.945 167.168H167.885C167.867 167.501 167.752 167.818 167.541 168.119C167.33 168.42 167.047 168.66 166.692 168.839C166.341 169.018 165.969 169.107 165.575 169.107C164.784 169.107 164.154 168.844 163.685 168.318C163.219 167.788 162.986 167.065 162.986 166.148V165.981C162.986 165.416 163.09 164.913 163.298 164.472C163.506 164.032 163.803 163.69 164.189 163.446C164.58 163.203 165.04 163.081 165.57 163.081C166.222 163.081 166.762 163.276 167.192 163.667C167.625 164.057 167.856 164.563 167.885 165.187H166.945C166.916 164.811 166.773 164.503 166.515 164.263C166.261 164.019 165.946 163.897 165.57 163.897C165.065 163.897 164.673 164.08 164.394 164.445C164.118 164.807 163.98 165.332 163.98 166.019V166.207C163.98 166.877 164.118 167.392 164.394 167.754C164.669 168.116 165.063 168.296 165.575 168.296ZM173.32 163.994H171.371V169H170.377V163.994H168.465V163.188H173.32V163.994ZM179.196 166.159C179.196 167.043 178.994 167.756 178.589 168.296C178.185 168.837 177.637 169.107 176.946 169.107C176.24 169.107 175.685 168.884 175.281 168.436V171.234H174.287V163.188H175.195L175.243 163.833C175.648 163.332 176.21 163.081 176.93 163.081C177.628 163.081 178.179 163.344 178.584 163.871C178.992 164.397 179.196 165.129 179.196 166.067V166.159ZM178.203 166.046C178.203 165.391 178.063 164.873 177.784 164.494C177.504 164.114 177.121 163.924 176.634 163.924C176.033 163.924 175.582 164.191 175.281 164.725V167.501C175.578 168.031 176.033 168.296 176.645 168.296C177.121 168.296 177.499 168.108 177.778 167.732C178.061 167.353 178.203 166.791 178.203 166.046ZM184.224 163.188H185.217V169H184.224V164.762L181.543 169H180.55V163.188H181.543V167.432L184.224 163.188ZM191.722 166.159C191.722 167.043 191.519 167.756 191.115 168.296C190.71 168.837 190.162 169.107 189.471 169.107C188.766 169.107 188.211 168.884 187.806 168.436V171.234H186.812V163.188H187.72L187.769 163.833C188.173 163.332 188.735 163.081 189.455 163.081C190.153 163.081 190.705 163.344 191.109 163.871C191.518 164.397 191.722 165.129 191.722 166.067V166.159ZM190.728 166.046C190.728 165.391 190.588 164.873 190.309 164.494C190.03 164.114 189.647 163.924 189.16 163.924C188.558 163.924 188.107 164.191 187.806 164.725V167.501C188.103 168.031 188.558 168.296 189.17 168.296C189.647 168.296 190.024 168.108 190.304 167.732C190.587 167.353 190.728 166.791 190.728 166.046ZM192.726 166.041C192.726 165.471 192.837 164.959 193.059 164.504C193.285 164.05 193.596 163.699 193.994 163.452C194.395 163.205 194.851 163.081 195.363 163.081C196.155 163.081 196.794 163.355 197.281 163.903C197.771 164.451 198.017 165.179 198.017 166.089V166.159C198.017 166.724 197.907 167.233 197.689 167.684C197.474 168.132 197.164 168.481 196.76 168.731C196.359 168.982 195.897 169.107 195.374 169.107C194.586 169.107 193.947 168.833 193.457 168.286C192.97 167.738 192.726 167.013 192.726 166.11V166.041ZM193.725 166.159C193.725 166.803 193.874 167.321 194.171 167.711C194.472 168.101 194.873 168.296 195.374 168.296C195.879 168.296 196.28 168.099 196.577 167.706C196.874 167.308 197.023 166.753 197.023 166.041C197.023 165.403 196.871 164.888 196.566 164.494C196.266 164.096 195.865 163.897 195.363 163.897C194.873 163.897 194.477 164.093 194.176 164.483C193.875 164.873 193.725 165.432 193.725 166.159ZM199.354 169V163.188H201.621C202.394 163.188 202.987 163.325 203.398 163.597C203.814 163.865 204.021 164.261 204.021 164.784C204.021 165.052 203.941 165.296 203.78 165.514C203.619 165.729 203.381 165.894 203.065 166.008C203.416 166.091 203.697 166.252 203.909 166.492C204.124 166.732 204.231 167.018 204.231 167.351C204.231 167.885 204.034 168.293 203.64 168.576C203.25 168.859 202.697 169 201.98 169H199.354ZM200.348 166.449V168.2H201.991C202.407 168.2 202.716 168.123 202.92 167.969C203.128 167.815 203.232 167.598 203.232 167.319C203.232 166.739 202.806 166.449 201.954 166.449H200.348ZM200.348 165.654H201.631C202.562 165.654 203.028 165.382 203.028 164.837C203.028 164.293 202.587 164.012 201.707 163.994H200.348V165.654ZM209.135 169C209.077 168.885 209.031 168.681 208.995 168.388C208.533 168.868 207.982 169.107 207.341 169.107C206.768 169.107 206.297 168.946 205.928 168.624C205.563 168.298 205.38 167.886 205.38 167.389C205.38 166.784 205.61 166.314 206.068 165.981C206.53 165.645 207.178 165.477 208.012 165.477H208.979V165.02C208.979 164.673 208.875 164.397 208.667 164.193C208.46 163.985 208.154 163.881 207.749 163.881C207.395 163.881 207.097 163.971 206.857 164.15C206.618 164.329 206.498 164.546 206.498 164.8H205.499C205.499 164.51 205.601 164.23 205.805 163.962C206.012 163.69 206.292 163.475 206.643 163.317C206.997 163.16 207.386 163.081 207.808 163.081C208.478 163.081 209.002 163.249 209.382 163.586C209.761 163.919 209.958 164.379 209.973 164.966V167.641C209.973 168.175 210.041 168.599 210.177 168.914V169H209.135ZM207.486 168.243C207.797 168.243 208.093 168.162 208.372 168.001C208.651 167.84 208.854 167.63 208.979 167.373V166.18H208.2C206.983 166.18 206.374 166.536 206.374 167.249C206.374 167.561 206.478 167.804 206.686 167.979C206.893 168.155 207.16 168.243 207.486 168.243ZM216.278 169H215.285V166.519H212.615V169H211.616V163.188H212.615V165.708H215.285V163.188H216.278V169ZM220.559 168.189L220.903 167.765C221.29 167.263 221.51 166.511 221.563 165.509L221.655 163.188H225.398V168.189H226.145V170.708H225.151V169H221.096V170.708H220.103L220.108 168.189H220.559ZM221.735 168.189H224.405V164.107H222.616L222.557 165.493C222.496 166.649 222.222 167.548 221.735 168.189ZM226.983 166.041C226.983 165.471 227.094 164.959 227.316 164.504C227.542 164.05 227.853 163.699 228.25 163.452C228.652 163.205 229.108 163.081 229.62 163.081C230.411 163.081 231.051 163.355 231.538 163.903C232.028 164.451 232.273 165.179 232.273 166.089V166.159C232.273 166.724 232.164 167.233 231.946 167.684C231.731 168.132 231.421 168.481 231.017 168.731C230.616 168.982 230.154 169.107 229.631 169.107C228.843 169.107 228.204 168.833 227.713 168.286C227.226 167.738 226.983 167.013 226.983 166.11V166.041ZM227.982 166.159C227.982 166.803 228.131 167.321 228.428 167.711C228.729 168.101 229.13 168.296 229.631 168.296C230.136 168.296 230.537 168.099 230.834 167.706C231.131 167.308 231.28 166.753 231.28 166.041C231.28 165.403 231.128 164.888 230.823 164.494C230.522 164.096 230.121 163.897 229.62 163.897C229.13 163.897 228.734 164.093 228.433 164.483C228.132 164.873 227.982 165.432 227.982 166.159ZM237.274 164.01H234.594V169H233.595V163.188H237.274V164.01ZM237.768 166.041C237.768 165.471 237.879 164.959 238.101 164.504C238.327 164.05 238.638 163.699 239.036 163.452C239.437 163.205 239.893 163.081 240.405 163.081C241.197 163.081 241.836 163.355 242.323 163.903C242.813 164.451 243.059 165.179 243.059 166.089V166.159C243.059 166.724 242.949 167.233 242.731 167.684C242.516 168.132 242.206 168.481 241.802 168.731C241.401 168.982 240.939 169.107 240.416 169.107C239.628 169.107 238.989 168.833 238.499 168.286C238.012 167.738 237.768 167.013 237.768 166.11V166.041ZM238.767 166.159C238.767 166.803 238.916 167.321 239.213 167.711C239.514 168.101 239.915 168.296 240.416 168.296C240.921 168.296 241.322 168.099 241.619 167.706C241.916 167.308 242.065 166.753 242.065 166.041C242.065 165.403 241.913 164.888 241.608 164.494C241.308 164.096 240.907 163.897 240.405 163.897C239.915 163.897 239.519 164.093 239.218 164.483C238.917 164.873 238.767 165.432 238.767 166.159ZM244.396 169V163.188H246.663C247.436 163.188 248.029 163.325 248.44 163.597C248.856 163.865 249.063 164.261 249.063 164.784C249.063 165.052 248.983 165.296 248.822 165.514C248.661 165.729 248.423 165.894 248.107 166.008C248.458 166.091 248.739 166.252 248.951 166.492C249.166 166.732 249.273 167.018 249.273 167.351C249.273 167.885 249.076 168.293 248.682 168.576C248.292 168.859 247.739 169 247.022 169H244.396ZM245.39 166.449V168.2H247.033C247.449 168.2 247.758 168.123 247.962 167.969C248.17 167.815 248.274 167.598 248.274 167.319C248.274 166.739 247.848 166.449 246.996 166.449H245.39ZM245.39 165.654H246.673C247.604 165.654 248.07 165.382 248.07 164.837C248.07 164.293 247.629 164.012 246.749 163.994H245.39V165.654ZM250.326 166.041C250.326 165.471 250.437 164.959 250.659 164.504C250.884 164.05 251.196 163.699 251.593 163.452C251.994 163.205 252.451 163.081 252.963 163.081C253.754 163.081 254.393 163.355 254.88 163.903C255.371 164.451 255.616 165.179 255.616 166.089V166.159C255.616 166.724 255.507 167.233 255.289 167.684C255.074 168.132 254.764 168.481 254.359 168.731C253.958 168.982 253.496 169.107 252.974 169.107C252.186 169.107 251.547 168.833 251.056 168.286C250.569 167.738 250.326 167.013 250.326 166.11V166.041ZM251.325 166.159C251.325 166.803 251.473 167.321 251.771 167.711C252.071 168.101 252.472 168.296 252.974 168.296C253.479 168.296 253.88 168.099 254.177 167.706C254.474 167.308 254.623 166.753 254.623 166.041C254.623 165.403 254.47 164.888 254.166 164.494C253.865 164.096 253.464 163.897 252.963 163.897C252.472 163.897 252.077 164.093 251.776 164.483C251.475 164.873 251.325 165.432 251.325 166.159ZM261.771 166.159C261.771 167.043 261.569 167.756 261.165 168.296C260.76 168.837 260.212 169.107 259.521 169.107C258.816 169.107 258.261 168.884 257.856 168.436V171.234H256.862V163.188H257.77L257.818 163.833C258.223 163.332 258.785 163.081 259.505 163.081C260.203 163.081 260.755 163.344 261.159 163.871C261.567 164.397 261.771 165.129 261.771 166.067V166.159ZM260.778 166.046C260.778 165.391 260.638 164.873 260.359 164.494C260.08 164.114 259.696 163.924 259.209 163.924C258.608 163.924 258.157 164.191 257.856 164.725V167.501C258.153 168.031 258.608 168.296 259.22 168.296C259.696 168.296 260.074 168.108 260.354 167.732C260.636 167.353 260.778 166.791 260.778 166.046ZM127.489 186.041C127.489 185.471 127.6 184.959 127.822 184.504C128.047 184.05 128.359 183.699 128.756 183.452C129.157 183.205 129.614 183.081 130.126 183.081C130.917 183.081 131.556 183.355 132.043 183.903C132.534 184.451 132.779 185.179 132.779 186.089V186.159C132.779 186.724 132.67 187.233 132.452 187.684C132.237 188.132 131.927 188.481 131.522 188.731C131.121 188.982 130.66 189.107 130.137 189.107C129.349 189.107 128.71 188.833 128.219 188.286C127.732 187.738 127.489 187.013 127.489 186.11V186.041ZM128.488 186.159C128.488 186.803 128.636 187.321 128.934 187.711C129.234 188.101 129.635 188.296 130.137 188.296C130.642 188.296 131.043 188.099 131.34 187.706C131.637 187.308 131.786 186.753 131.786 186.041C131.786 185.403 131.633 184.888 131.329 184.494C131.028 184.096 130.627 183.897 130.126 183.897C129.635 183.897 129.24 184.093 128.939 184.483C128.638 184.873 128.488 185.432 128.488 186.159ZM138.226 183.994H136.276V189H135.282V183.994H133.37V183.188H138.226V183.994ZM143.581 189H142.582V186.895C142.145 187.009 141.697 187.066 141.239 187.066C140.512 187.066 139.957 186.88 139.574 186.508C139.194 186.135 139.001 185.605 138.994 184.918V183.183H139.987V184.95C140.005 185.817 140.422 186.25 141.239 186.25C141.697 186.25 142.145 186.193 142.582 186.078V183.188H143.581V189ZM147.077 187.544L148.431 183.188H149.494L147.158 189.897C146.796 190.864 146.221 191.347 145.434 191.347L145.246 191.331L144.875 191.261V190.456L145.144 190.477C145.48 190.477 145.742 190.409 145.928 190.273C146.118 190.137 146.273 189.888 146.395 189.526L146.615 188.936L144.542 183.188H145.627L147.077 187.544ZM155.021 186.476H154.323V189H153.329V186.476H152.631L151.003 189H149.747L151.825 185.992L149.945 183.188H151.148L152.647 185.595H153.329V183.188H154.323V185.595H155L156.509 183.188H157.712L155.827 185.998L157.905 189H156.648L155.021 186.476ZM158.759 188.189L159.103 187.765C159.49 187.263 159.71 186.511 159.764 185.509L159.855 183.188H163.599V188.189H164.345V190.708H163.352V189H159.296V190.708H158.303L158.308 188.189H158.759ZM159.936 188.189H162.605V184.107H160.816L160.757 185.493C160.696 186.649 160.423 187.548 159.936 188.189ZM167.858 189.107C167.07 189.107 166.429 188.85 165.935 188.334C165.441 187.815 165.194 187.122 165.194 186.255V186.073C165.194 185.496 165.303 184.982 165.521 184.531C165.743 184.076 166.051 183.722 166.445 183.468C166.843 183.21 167.272 183.081 167.734 183.081C168.49 183.081 169.077 183.33 169.496 183.828C169.915 184.325 170.125 185.038 170.125 185.965V186.379H166.188C166.202 186.952 166.368 187.416 166.687 187.77C167.009 188.121 167.417 188.296 167.912 188.296C168.263 188.296 168.56 188.225 168.803 188.082C169.047 187.938 169.26 187.749 169.442 187.512L170.049 187.985C169.562 188.733 168.832 189.107 167.858 189.107ZM167.734 183.897C167.333 183.897 166.997 184.044 166.725 184.338C166.452 184.628 166.284 185.036 166.22 185.562H169.131V185.487C169.102 184.982 168.966 184.592 168.723 184.316C168.479 184.037 168.15 183.897 167.734 183.897ZM176.027 189H175.034V186.519H172.364V189H171.365V183.188H172.364V185.708H175.034V183.188H176.027V189ZM181.388 183.188H182.381V189H181.388V184.762L178.708 189H177.714V183.188H178.708V187.432L181.388 183.188ZM188.418 183.188V189H187.419V186.739H185.921L184.551 189H183.477L184.938 186.588C184.566 186.452 184.279 186.243 184.079 185.96C183.882 185.674 183.783 185.34 183.783 184.961C183.783 184.431 183.982 184.005 184.379 183.683C184.777 183.357 185.309 183.192 185.975 183.188H188.418ZM184.782 184.972C184.782 185.255 184.879 185.484 185.072 185.659C185.266 185.831 185.522 185.919 185.84 185.922H187.419V183.994H185.991C185.622 183.994 185.328 184.085 185.11 184.268C184.891 184.447 184.782 184.682 184.782 184.972ZM197.49 189H196.497V186.519H193.827V189H192.828V183.188H193.827V185.708H196.497V183.188H197.49V189ZM202.679 189C202.621 188.885 202.575 188.681 202.539 188.388C202.077 188.868 201.526 189.107 200.885 189.107C200.312 189.107 199.841 188.946 199.472 188.624C199.107 188.298 198.924 187.886 198.924 187.389C198.924 186.784 199.153 186.314 199.612 185.981C200.074 185.645 200.722 185.477 201.556 185.477H202.523V185.02C202.523 184.673 202.419 184.397 202.211 184.193C202.004 183.985 201.698 183.881 201.293 183.881C200.938 183.881 200.641 183.971 200.401 184.15C200.161 184.329 200.042 184.546 200.042 184.8H199.042C199.042 184.51 199.145 184.23 199.349 183.962C199.556 183.69 199.836 183.475 200.187 183.317C200.541 183.16 200.93 183.081 201.352 183.081C202.022 183.081 202.546 183.249 202.926 183.586C203.305 183.919 203.502 184.379 203.517 184.966V187.641C203.517 188.175 203.585 188.599 203.721 188.914V189H202.679ZM201.03 188.243C201.341 188.243 201.637 188.162 201.916 188.001C202.195 187.84 202.398 187.63 202.523 187.373V186.18H201.744C200.527 186.18 199.918 186.536 199.918 187.249C199.918 187.561 200.022 187.804 200.229 187.979C200.437 188.155 200.704 188.243 201.03 188.243ZM212.556 189H211.562V184.01H208.888V189H207.889V183.188H212.556V189ZM217.739 189C217.682 188.885 217.635 188.681 217.6 188.388C217.138 188.868 216.586 189.107 215.945 189.107C215.372 189.107 214.902 188.946 214.533 188.624C214.167 188.298 213.985 187.886 213.985 187.389C213.985 186.784 214.214 186.314 214.672 185.981C215.134 185.645 215.782 185.477 216.617 185.477H217.583V185.02C217.583 184.673 217.48 184.397 217.272 184.193C217.064 183.985 216.758 183.881 216.354 183.881C215.999 183.881 215.702 183.971 215.462 184.15C215.222 184.329 215.102 184.546 215.102 184.8H214.103C214.103 184.51 214.205 184.23 214.409 183.962C214.617 183.69 214.896 183.475 215.247 183.317C215.602 183.16 215.99 183.081 216.413 183.081C217.082 183.081 217.607 183.249 217.986 183.586C218.366 183.919 218.563 184.379 218.577 184.966V187.641C218.577 188.175 218.645 188.599 218.781 188.914V189H217.739ZM216.09 188.243C216.402 188.243 216.697 188.162 216.977 188.001C217.256 187.84 217.458 187.63 217.583 187.373V186.18H216.805C215.587 186.18 214.979 186.536 214.979 187.249C214.979 187.561 215.082 187.804 215.29 187.979C215.498 188.155 215.764 188.243 216.09 188.243ZM224.367 183.994H222.417V189H221.424V183.994H219.512V183.188H224.367V183.994ZM227.316 189.107C226.528 189.107 225.887 188.85 225.393 188.334C224.899 187.815 224.652 187.122 224.652 186.255V186.073C224.652 185.496 224.761 184.982 224.979 184.531C225.201 184.076 225.509 183.722 225.903 183.468C226.301 183.21 226.73 183.081 227.192 183.081C227.948 183.081 228.535 183.33 228.954 183.828C229.373 184.325 229.583 185.038 229.583 185.965V186.379H225.646C225.66 186.952 225.826 187.416 226.145 187.77C226.467 188.121 226.875 188.296 227.37 188.296C227.721 188.296 228.018 188.225 228.261 188.082C228.505 187.938 228.718 187.749 228.9 187.512L229.507 187.985C229.02 188.733 228.29 189.107 227.316 189.107ZM227.192 183.897C226.791 183.897 226.455 184.044 226.183 184.338C225.91 184.628 225.742 185.036 225.678 185.562H228.589V185.487C228.56 184.982 228.424 184.592 228.181 184.316C227.937 184.037 227.608 183.897 227.192 183.897ZM235.485 189H234.492V186.519H231.822V189H230.823V183.188H231.822V185.708H234.492V183.188H235.485V189ZM241.404 183.994H239.455V189H238.461V183.994H236.549V183.188H241.404V183.994ZM250.046 181.738L246.808 189H245.766L248.994 181.996H244.761V181.18H250.046V181.738ZM256.223 181.738L252.984 189H251.942L255.17 181.996H250.938V181.18H256.223V181.738ZM262.4 181.738L259.161 189H258.119L261.347 181.996H257.115V181.18H262.4V181.738ZM263.984 185.079L264.382 181.18H268.389V182.098H265.225L264.989 184.23C265.372 184.005 265.807 183.892 266.294 183.892C267.007 183.892 267.572 184.128 267.991 184.601C268.41 185.07 268.62 185.706 268.62 186.508C268.62 187.313 268.401 187.949 267.964 188.415C267.531 188.876 266.924 189.107 266.144 189.107C265.452 189.107 264.889 188.916 264.452 188.533C264.015 188.15 263.766 187.62 263.705 186.943H264.645C264.706 187.39 264.865 187.729 265.123 187.958C265.381 188.184 265.721 188.296 266.144 188.296C266.605 188.296 266.967 188.139 267.229 187.824C267.493 187.509 267.626 187.074 267.626 186.519C267.626 185.996 267.483 185.577 267.196 185.262C266.913 184.943 266.536 184.784 266.063 184.784C265.63 184.784 265.29 184.879 265.042 185.068L264.779 185.283L263.984 185.079ZM273.899 186.374H274.984V187.185H273.899V189H272.9V187.185H269.339V186.599L272.841 181.18H273.899V186.374ZM270.467 186.374H272.9V182.539L272.782 182.753L270.467 186.374Z" fill="#162941"/>
<rect x="35" y="175" width="41" height="22" rx="5" fill="#62C655"/>
<path d="M45.0039 189H44.25V183.93H41.4453V189H40.6953V183.312H45.0039V189ZM49.5117 187.516H47.1289L46.5938 189H45.8203L47.9922 183.312H48.6484L50.8242 189H50.0547L49.5117 187.516ZM47.3555 186.898H49.2891L48.3203 184.238L47.3555 186.898ZM55.0117 183.93H53.1836V189H52.4375V183.93H50.6133V183.312H55.0117V183.93ZM59.0703 186.371H56.6055V188.387H59.4688V189H55.8555V183.312H59.4297V183.93H56.6055V185.758H59.0703V186.371ZM64.7734 189H64.0195V186.371H61.1523V189H60.4023V183.312H61.1523V185.758H64.0195V183.312H64.7734V189ZM69.918 183.93H68.0898V189H67.3438V183.93H65.5195V183.312H69.918V183.93Z" fill="white"/>
<circle cx="273" cy="18" r="8" fill="#929FAB"/>
<circle cx="295" cy="18" r="8" fill="#929FAB"/>
<circle cx="317" cy="18" r="8" fill="#929FAB"/>
<circle cx="39" cy="84" r="4" fill="#FF1037"/>
<path d="M44 161C44 163.209 42.2091 165 40 165C37.7909 165 36 163.209 36 161C36 158.791 37.7909 157 40 157C42.2091 157 44 158.791 44 161Z" fill="#DCDEE4"/>
<circle cx="39" cy="237" r="4" fill="#DCDEE4"/>
<defs>
<filter id="filter0_d" x="5" y="51" width="325" height="102" filterUnits="userSpaceOnUse" color-interpolation-filters="sRGB">
<feFlood flood-opacity="0" result="BackgroundImageFix"/>
<feColorMatrix in="SourceAlpha" type="matrix" values="0 0 0 0 0 0 0 0 0 0 0 0 0 0 0 0 0 0 127 0"/>
<feOffset dy="5"/>
<feGaussianBlur stdDeviation="7.5"/>
<feColorMatrix type="matrix" values="0 0 0 0 0.0823529 0 0 0 0 0.141176 0 0 0 0 0.219608 0 0 0 0.15 0"/>
<feBlend mode="normal" in2="BackgroundImageFix" result="effect1_dropShadow"/>
<feBlend mode="normal" in="SourceGraphic" in2="effect1_dropShadow" result="shape"/>
</filter>
<filter id="filter1_d" x="5" y="205" width="325" height="100" filterUnits="userSpaceOnUse" color-interpolation-filters="sRGB">
<feFlood flood-opacity="0" result="BackgroundImageFix"/>
<feColorMatrix in="SourceAlpha" type="matrix" values="0 0 0 0 0 0 0 0 0 0 0 0 0 0 0 0 0 0 127 0"/>
<feOffset dy="5"/>
<feGaussianBlur stdDeviation="7.5"/>
<feColorMatrix type="matrix" values="0 0 0 0 0.0823529 0 0 0 0 0.141176 0 0 0 0 0.219608 0 0 0 0.15 0"/>
<feBlend mode="normal" in2="BackgroundImageFix" result="effect1_dropShadow"/>
<feBlend mode="normal" in="SourceGraphic" in2="effect1_dropShadow" result="shape"/>
</filter>
<filter id="filter2_d" x="5" y="129" width="325" height="100" filterUnits="userSpaceOnUse" color-interpolation-filters="sRGB">
<feFlood flood-opacity="0" result="BackgroundImageFix"/>
<feColorMatrix in="SourceAlpha" type="matrix" values="0 0 0 0 0 0 0 0 0 0 0 0 0 0 0 0 0 0 127 0"/>
<feOffset dy="5"/>
<feGaussianBlur stdDeviation="7.5"/>
<feColorMatrix type="matrix" values="0 0 0 0 0.0823529 0 0 0 0 0.141176 0 0 0 0 0.219608 0 0 0 0.15 0"/>
<feBlend mode="normal" in2="BackgroundImageFix" result="effect1_dropShadow"/>
<feBlend mode="normal" in="SourceGraphic" in2="effect1_dropShadow" result="shape"/>
</filter>
<linearGradient id="paint0_linear" x1="167.5" y1="0" x2="167.5" y2="36" gradientUnits="userSpaceOnUse">
<stop stop-color="#ECECEB"/>
<stop offset="1" stop-color="#D7D7D7"/>
</linearGradient>
</defs>
</svg>
