<svg width="53" height="50" viewBox="0 0 53 50" fill="none" xmlns="http://www.w3.org/2000/svg">
<path d="M9.49999 23.5343L17.9422 23.5342C17.4491 27.7735 13.8548 31.0603 9.5 31.0603C5.14523 31.0603 1.55091 27.7735 1.05775 23.5342L9.49999 23.5343Z" stroke="#929FAB" stroke-width="2" stroke-linecap="round" stroke-linejoin="round"/>
<path d="M1.74598 23.5396L9.95401 9.54743L17.3412 23.5396H1.74598Z" stroke="#929FAB" stroke-width="2" stroke-linecap="round" stroke-linejoin="round"/>
<path d="M43.5 32.5587L51.9422 32.5586C51.4491 36.7979 47.8548 40.0847 43.5 40.0847C39.1452 40.0847 35.5509 36.7979 35.0578 32.5586L43.5 32.5587Z" stroke="#929FAB" stroke-width="2" stroke-linecap="round" stroke-linejoin="round"/>
<path d="M35.746 32.5645L43.954 18.5723L51.3412 32.5645H35.746Z" stroke="#929FAB" stroke-width="2" stroke-linecap="round" stroke-linejoin="round"/>
<path d="M27 11V40" stroke="#929FAB" stroke-width="2" stroke-linecap="round"/>
<path d="M19 43C19 41.8954 19.8954 41 21 41H33C34.1046 41 35 41.8954 35 43V45H19V43Z" stroke="#929FAB" stroke-width="2"/>
<path d="M14 47C14 45.8954 14.8954 45 16 45H38C39.1046 45 40 45.8954 40 47V49H14V47Z" stroke="#929FAB" stroke-width="2"/>
<circle cx="27" cy="6" r="4" stroke="#FF1037" stroke-width="2"/>
<path d="M8 1L22.9282 5M46.637 11.3528L31 7.16283" stroke="#FF1037" stroke-width="2" stroke-linecap="round"/>
</svg>
