<?xml version="1.0" encoding="UTF-8" standalone="no"?>
<!DOCTYPE svg  PUBLIC '-//W3C//DTD SVG 1.1//EN'  'http://www.w3.org/Graphics/SVG/1.1/DTD/svg11.dtd'>
<svg xmlns="http://www.w3.org/2000/svg">
<defs>
<font id="OpenSans-CondensedLightItalic" horiz-adv-x="737">
<font-face slope="-12" underline-position="-103" font-weight="300" descent="-410" panose-1="2 11 3 6 3 5 4 2 2 4" units-per-em="2048" unicode-range="U+000D-2122" font-stretch="condensed" bbox="-227 -508 1919 2091" x-height="1085" underline-thickness="102" font-family="OpenSans" ascent="1638" font-style="italic" cap-height="1462"/>
<missing-glyph horiz-adv-x="2048"/>
<glyph glyph-name=".notdef" horiz-adv-x="2048"/>
<glyph glyph-name="glyph1" horiz-adv-x="2048"/>
<glyph glyph-name="glyph1" horiz-adv-x="2048"/>
<glyph glyph-name="uni000D" horiz-adv-x="2048" unicode=""/>
<glyph glyph-name="space" horiz-adv-x="346" unicode=" "/>
<glyph glyph-name="exclam" horiz-adv-x="477" unicode="!" d="M205 367l203 1095h122l-264 -1095h-61zM96 53q0 61 28 102.5t75 41.5q27 0 42 -21t15 -55q0 -61 -27.5 -99t-70.5 -38q-25 0 -43.5 17.5t-18.5 51.5z"/>
<glyph glyph-name="quotedbl" horiz-adv-x="616" unicode='&quot;' d="M479 934l84 528h117l-139 -528h-62zM213 934l82 528h117l-138 -528h-61z"/>
<glyph glyph-name="numbersign" horiz-adv-x="782" unicode="#" d="M305 557h201l129 399h-205zM51 0l146 467h-144l19 90h151l127 399h-151l18 86h162l129 420h82l-131 -420h203l133 420h75l-129 -420h148l-19 -86h-157l-127 -399h157l-18 -90h-166l-147 -467h-82l149 467h-203l-145 -467h-80z"/>
<glyph glyph-name="dollar" d="M377 219q102 14 156.5 73t54.5 157q0 85 -32.5 141.5t-80.5 97.5zM319 1040q0 -51 25 -96t84 -94l92 428q-201 -27 -201 -238zM53 176v103q29 -22 89.5 -42t150.5 -22l113 528q-85 65 -116 102.5t-49 83.5t-18 105q0 143 83.5 231t232.5 105l41 186h82l-39 -182 q119 -3 211 -57l-48 -90q-99 54 -184 57l-104 -489q81 -66 113.5 -111.5t51.5 -102t19 -130.5q0 -137 -84 -223.5t-242 -102.5l-51 -244h-82l51 242q-152 5 -221 53z" unicode="$"/>
<glyph glyph-name="percent" horiz-adv-x="1087" unicode="%" d="M702 180q0 -117 62 -117q53 0 102.5 98t84 260.5t34.5 272.5q0 125 -61 125q-48 0 -97 -96t-87 -266t-38 -277zM623 182q0 158 45.5 335.5t117 278.5t152.5 101q63 0 96 -55t33 -146q0 -166 -46.5 -341.5t-118 -275t-152.5 -99.5q-63 0 -95 54t-32 148zM231 766 q0 -117 62 -117q53 0 102.5 98t84 260.5t34.5 272.5q0 125 -61 125q-48 0 -97 -96t-87 -266t-38 -277zM190 0l740 1462h84l-735 -1462h-89zM152 768q0 156 45 332.5t116.5 279.5t153.5 103q61 0 95 -53.5t34 -147.5q0 -167 -47 -343.5t-118.5 -275t-151.5 -98.5 q-61 0 -94 53t-33 150z"/>
<glyph glyph-name="ampersand" horiz-adv-x="750" unicode="&amp;" d="M395 1081q0 -123 33 -229q86 80 132 194.5t46 239.5q0 107 -69 107q-65 0 -103.5 -84t-38.5 -228zM135 254q0 -182 133 -182q60 0 111.5 37t128.5 151l-135 457q-238 -190 -238 -463zM41 236q0 165 71.5 299t237.5 260q-41 142 -41 268q0 197 65 308.5t179 111.5 q62 0 100.5 -46t38.5 -134q0 -144 -63 -284.5t-178 -248.5l118 -420q68 125 113 295h84q-20 -95 -73.5 -215.5t-94.5 -177.5l82 -252h-98l-47 166q-77 -108 -138 -147t-135 -39q-104 0 -162.5 69t-58.5 187z"/>
<glyph glyph-name="quotesingle" horiz-adv-x="350" unicode="&apos;" d="M213 934l82 528h117l-138 -528h-61z"/>
<glyph glyph-name="parenleft" horiz-adv-x="508" unicode="(" d="M102 219q0 336 130.5 657t373.5 586h76q-235 -287 -355 -601.5t-120 -641.5q0 -146 24 -291.5t70 -251.5h-76q-55 97 -89 247t-34 296z"/>
<glyph glyph-name="parenright" horiz-adv-x="508" unicode=")" d="M-82 -324q235 287 355 601.5t120 642.5q0 147 -24.5 293.5t-69.5 248.5h76q55 -98 89 -247t34 -295q0 -333 -128.5 -653t-375.5 -591h-76z"/>
<glyph glyph-name="asterisk" horiz-adv-x="672" unicode="*" d="M221 1307l29 98l211 -82l4 240l113 -17l-58 -231l223 24v-104l-215 22l117 -233l-96 -31l-70 238l-141 -211l-82 55l170 195z"/>
<glyph glyph-name="plus" d="M131 709v73h277v338h77v-338h279v-73h-279v-336h-77v336h-277z" unicode="+"/>
<glyph glyph-name="comma" horiz-adv-x="379" unicode="," d="M-20 -264q41 88 96.5 224t89.5 245h115l8 -23q-102 -214 -244 -446h-65z"/>
<glyph glyph-name="hyphen" horiz-adv-x="465" unicode="-" d="M94 502l23 102h368l-22 -102h-369z"/>
<glyph glyph-name="period" horiz-adv-x="379" unicode="." d="M98 53q0 61 28 102.5t75 41.5q27 0 42 -21t15 -55q0 -61 -27.5 -99t-70.5 -38q-25 0 -43.5 17.5t-18.5 51.5z"/>
<glyph glyph-name="slash" horiz-adv-x="641" unicode="/" d="M-33 0l778 1462h93l-779 -1462h-92z"/>
<glyph glyph-name="zero" d="M193 289q0 -109 25.5 -162t84.5 -53q96 0 182 157t146.5 442.5t60.5 504.5q0 100 -24.5 155.5t-83.5 55.5q-96 0 -182.5 -163.5t-147.5 -447.5t-61 -489zM94 289q0 249 74 557t184 472.5t238 164.5q97 0 149 -77.5t52 -227.5q0 -197 -42.5 -431t-114 -413.5 t-157.5 -266.5t-182 -87q-102 0 -151.5 77t-49.5 232z" unicode="0"/>
<glyph glyph-name="one" d="M287 0l225 1063l33 148l33 135q-27 -29 -55 -56.5t-191 -163.5l-45 68l313 268h92l-309 -1462h-96z" unicode="1"/>
<glyph glyph-name="two" d="M-8 0l10 78l352 434q161 197 221.5 293t96 192.5t35.5 198.5q0 197 -164 197q-49 0 -95 -17t-116 -67l-45 77q55 39 120 68t148 29q118 0 184 -72.5t66 -204.5q0 -142 -78.5 -306t-284.5 -417l-321 -393h473l-19 -90h-583z" unicode="2"/>
<glyph glyph-name="three" d="M16 29v108q93 -69 226 -69q100 0 173 48.5t112.5 136t39.5 196.5q0 131 -56.5 196.5t-162.5 65.5h-65l18 92h59q149 0 249 112t100 279q0 94 -42 147.5t-122 53.5q-66 0 -119 -22.5t-111 -65.5l-45 71q58 46 124.5 75.5t152.5 29.5q119 0 188.5 -76t69.5 -201 q0 -172 -83.5 -290.5t-223.5 -151.5l-2 -6q170 -63 170 -295q0 -138 -52 -249.5t-146 -172.5t-214 -61q-153 0 -238 49z" unicode="3"/>
<glyph glyph-name="four" d="M131 422h358l156 720l55 224h-8l-25 -48l-75 -140zM16 332l17 84l651 1063h125l-225 -1057h139l-18 -90h-140l-71 -332h-95l72 332h-455z" unicode="4"/>
<glyph glyph-name="five" d="M16 27v110q76 -69 217 -69q163 0 263 116.5t100 307.5q0 141 -53.5 220t-163.5 79q-33 0 -63.5 -5t-96.5 -28l-39 63l178 641h457l-20 -94h-365l-145 -508q56 14 118 14q140 0 215.5 -94.5t75.5 -271.5q0 -151 -56.5 -272t-162 -188.5t-246.5 -67.5q-64 0 -122.5 14 t-90.5 33z" unicode="5"/>
<glyph glyph-name="six" d="M197 317q0 -115 39 -180t108 -65q77 0 139 68t103 205.5t41 262.5q0 94 -37.5 148.5t-104.5 54.5q-85 0 -152.5 -60t-101.5 -159t-34 -275zM104 317q0 292 85 577.5t217 437t290 151.5q91 0 144 -23l-27 -94q-46 23 -115 23q-148 0 -263 -165.5t-195 -482.5h6 q46 75 115.5 118.5t150.5 43.5q96 0 152.5 -77.5t56.5 -204.5q0 -169 -53.5 -325.5t-140.5 -236t-195 -79.5q-106 0 -167 89.5t-61 247.5z" unicode="6"/>
<glyph glyph-name="seven" d="M125 0l637 1368h-518l18 94h615l-11 -82l-639 -1380h-102z" unicode="7"/>
<glyph glyph-name="eight" d="M336 1116q0 -92 31 -164t92 -137q130 68 198 166t68 211q0 93 -42.5 147t-117.5 54q-109 0 -169 -73t-60 -204zM133 293q0 -99 54.5 -161t144.5 -62q118 0 187 81.5t69 221.5q0 95 -35 174.5t-123 169.5q-162 -84 -229.5 -183t-67.5 -241zM35 287q0 169 82 285t258 204 q-71 79 -104 162.5t-33 183.5q0 157 92 259t241 102q113 0 181.5 -73t68.5 -200q0 -142 -80 -257.5t-227 -192.5q94 -94 133 -187t39 -196q0 -174 -97.5 -285.5t-254.5 -111.5q-144 0 -221.5 81.5t-77.5 225.5z" unicode="8"/>
<glyph glyph-name="nine" d="M262 877q0 -108 37 -167t104 -59q84 0 152.5 62t102.5 172.5t34 265.5q0 113 -36.5 176.5t-106.5 63.5q-79 0 -142 -67t-104 -196.5t-41 -250.5zM49 2v94q49 -22 154 -22q153 0 266.5 165.5t181.5 483.5h-6q-46 -74 -116.5 -119t-147.5 -45q-95 0 -153 85t-58 222 q0 166 54.5 316.5t140.5 225.5t196 75q109 0 166 -82t57 -238q0 -310 -78.5 -598t-208.5 -436.5t-294 -148.5q-98 0 -154 22z" unicode="9"/>
<glyph glyph-name="colon" horiz-adv-x="379" unicode=":" d="M260 944q0 61 28 102t74 41q31 0 44.5 -23.5t13.5 -51.5q0 -60 -27 -99t-71 -39q-25 0 -43.5 18t-18.5 52zM70 53q0 60 27 102t75 42q27 0 42 -21t15 -55q0 -61 -27.5 -99t-70.5 -38q-25 0 -43 17.5t-18 51.5z"/>
<glyph glyph-name="semicolon" horiz-adv-x="379" unicode=";" d="M274 944q0 61 28 102t75 41q31 0 44 -23.5t13 -51.5q0 -60 -27 -99t-71 -39q-25 0 -43.5 18t-18.5 52zM-33 -264q122 263 187 469h114l8 -23q-97 -207 -243 -446h-66z"/>
<glyph glyph-name="less" d="M76 711v67l633 400v-101l-541 -334l541 -333v-103z" unicode="&lt;"/>
<glyph glyph-name="equal" d="M135 895v82h633v-82h-633zM135 465v82h633v-82h-633z" unicode="="/>
<glyph glyph-name="greater" d="M170 287v102l541 334l-541 334v100l633 -399v-68z" unicode="&gt;"/>
<glyph glyph-name="question" horiz-adv-x="520" unicode="?" d="M164 367l10 51q40 199 176 383l70 94q87 118 115 193t28 159q0 76 -35.5 111t-89.5 35q-40 0 -73 -11t-91 -53l-38 78q107 76 210 76q104 0 161 -60t57 -166q0 -70 -18.5 -131.5t-51.5 -120t-133 -188.5q-83 -106 -120.5 -170t-64 -133t-38.5 -147h-74zM72 53 q0 60 27 102t75 42q27 0 42 -21t15 -55q0 -61 -27.5 -99t-70.5 -38q-25 0 -43 17.5t-18 51.5z"/>
<glyph glyph-name="at" horiz-adv-x="1110" unicode="@" d="M477 428q0 -109 58 -109q44 0 84 83.5t88 263.5l81 307q-24 8 -63 8q-60 0 -116.5 -79t-94 -215t-37.5 -259zM111 279q0 328 99.5 602.5t267.5 433t356 158.5q140 0 221.5 -118.5t81.5 -330.5q0 -167 -51 -365.5t-127 -310.5t-160 -112q-57 0 -85 32t-28 86q0 42 10 90 q-73 -213 -192 -213q-111 0 -111 179q0 144 53.5 312.5t131.5 253.5t172 85q80 0 141 -29l-118 -471q-25 -97 -25 -149q0 -97 65 -97q51 0 105.5 108t95.5 287t41 302q0 184 -60.5 280.5t-181.5 96.5q-156 0 -297.5 -145t-229 -402.5t-87.5 -550.5q0 -185 68.5 -288 t187.5 -103q58 0 112.5 15.5t89.5 37.5l11 -78q-104 -55 -222 -55q-152 0 -243.5 122.5t-91.5 336.5z"/>
<glyph glyph-name="A" horiz-adv-x="731" unicode="A" d="M283 629h272v370l6 355q-15 -52 -52 -152t-226 -573zM-78 0l606 1468h123v-1468h-96v530h-307l-221 -530h-105z"/>
<glyph glyph-name="B" horiz-adv-x="817" unicode="B" d="M336 813h147q90 0 158 46t105.5 129.5t37.5 187.5q0 97 -51 143.5t-155 46.5h-123zM184 94h158q154 0 240 107.5t86 292.5q0 104 -51 164.5t-142 60.5h-158zM66 0l309 1462h225q130 0 208.5 -75t78.5 -199q0 -167 -74.5 -279t-204.5 -137l-2 -6q73 -19 118.5 -89.5 t45.5 -166.5q0 -151 -51 -267t-148 -179.5t-233 -63.5h-272z"/>
<glyph glyph-name="C" horiz-adv-x="727" unicode="C" d="M135 449q0 256 85.5 504.5t226 390t303.5 141.5q122 0 196 -62l-61 -86q-60 52 -146 52q-130 0 -245.5 -129t-188 -355.5t-72.5 -437.5q0 -204 51.5 -299.5t172.5 -95.5q76 0 172 39v-95q-94 -36 -187 -36q-153 0 -230 115.5t-77 353.5z"/>
<glyph glyph-name="D" horiz-adv-x="895" unicode="D" d="M184 94h92q151 0 270.5 116t191 345t71.5 492q0 319 -231 319h-123zM66 0l309 1462h217q154 0 237.5 -105t83.5 -310q0 -300 -82.5 -544.5t-230 -373.5t-344.5 -129h-190z"/>
<glyph glyph-name="E" horiz-adv-x="709" unicode="E" d="M66 0l309 1462h477l-21 -96h-376l-117 -553h354l-20 -94h-355l-133 -625h377l-18 -94h-477z"/>
<glyph glyph-name="F" horiz-adv-x="655" unicode="F" d="M66 0l309 1462h479l-20 -96h-379l-129 -614h356l-20 -95h-357l-139 -657h-100z"/>
<glyph glyph-name="G" horiz-adv-x="967" unicode="G" d="M135 438q0 184 51 389t138.5 357t199 226.5t240.5 74.5q170 0 301 -94l-64 -88q-68 50 -124.5 68t-118.5 18q-111 0 -204.5 -72t-165 -208.5t-113.5 -321t-42 -355.5q0 -191 68.5 -275.5t208.5 -84.5q100 0 192 28l117 547h-194l20 94h295l-152 -708q-137 -53 -288 -53 q-365 0 -365 458z"/>
<glyph glyph-name="H" horiz-adv-x="924" unicode="H" d="M66 0l309 1462h98l-137 -647h440l137 647h99l-310 -1462h-98l152 717h-441l-151 -717h-98z"/>
<glyph glyph-name="I" horiz-adv-x="418" unicode="I" d="M66 0l309 1462h98l-309 -1462h-98z"/>
<glyph glyph-name="J" horiz-adv-x="360" unicode="J" d="M-227 -344l28 92q42 -20 90 -20q68 0 105 55t63 182l318 1497h98l-321 -1519q-34 -161 -98 -236.5t-169 -75.5q-70 0 -114 25z"/>
<glyph glyph-name="K" horiz-adv-x="743" unicode="K" d="M66 0l309 1462h98l-164 -774l123 180l416 594h100l-452 -667l170 -795h-101l-149 709l-129 -129l-123 -580h-98z"/>
<glyph glyph-name="L" horiz-adv-x="639" unicode="L" d="M66 0l309 1462h98l-289 -1368h359l-19 -94h-458z"/>
<glyph glyph-name="M" horiz-adv-x="1255" unicode="M" d="M66 0l309 1462h160l34 -1108l4 -164l-2 -88h2q17 50 107 250l494 1110h169l-309 -1462h-100l238 1122l49 207h-4l-596 -1329h-127l-52 1331h-6l-44 -240l-230 -1091h-96z"/>
<glyph glyph-name="N" horiz-adv-x="981" unicode="N" d="M66 0l309 1462h131l192 -1296h7l14 86l35 188l217 1022h98l-309 -1462h-121l-201 1311h-8q-14 -115 -45 -262l-221 -1049h-98z"/>
<glyph glyph-name="O" horiz-adv-x="958" unicode="O" d="M233 377q0 -303 187 -303q92 0 173.5 80.5t144.5 230t102 349.5t39 366q0 289 -187 289q-91 0 -171.5 -73.5t-144.5 -220.5t-103.5 -350t-39.5 -368zM135 379q0 196 46 414t124.5 376.5t178.5 236t218 77.5q275 0 275 -383q0 -284 -80 -557t-207 -418t-278 -145 q-277 0 -277 399z"/>
<glyph glyph-name="P" horiz-adv-x="772" unicode="P" d="M311 698h70q178 0 275.5 115.5t97.5 325.5q0 107 -58.5 167t-165.5 60h-77zM66 0l309 1462h170q145 0 229 -83.5t84 -223.5q0 -157 -57 -283t-164 -197t-250 -71h-96l-127 -604h-98z"/>
<glyph glyph-name="Q" horiz-adv-x="958" unicode="Q" d="M233 371q0 -297 187 -297q124 0 228 147t167.5 404t63.5 483q0 281 -187 281q-127 0 -230 -140.5t-166 -398t-63 -479.5zM135 379q0 196 46 414t124.5 376.5t178.5 236t218 77.5q275 0 275 -402q0 -232 -60 -471.5t-158 -395t-218 -206.5l114 -356h-116l-97 330l-30 -2 q-277 0 -277 399z"/>
<glyph glyph-name="R" horiz-adv-x="795" unicode="R" d="M317 729h105q157 0 244.5 108.5t87.5 307.5q0 107 -58.5 164t-165.5 57h-77zM66 0l309 1462h180q140 0 220.5 -82t80.5 -227q0 -120 -38.5 -228t-109.5 -179t-161 -89l121 -657h-107l-117 639h-145l-135 -639h-98z"/>
<glyph glyph-name="S" horiz-adv-x="727" unicode="S" d="M10 37v108q121 -71 262 -71q133 0 207 86.5t74 236.5q0 64 -16 115t-44 95.5t-110 131.5q-78 83 -108 130t-46 99.5t-16 116.5q0 114 48.5 206.5t136 142t204.5 49.5q65 0 136 -18t106 -42l-53 -94q-91 57 -199 57q-84 0 -146.5 -37t-96.5 -103t-34 -146q0 -75 30 -138 t116 -149q92 -94 124 -147t51 -117.5t19 -149.5q0 -196 -104 -307.5t-287 -111.5q-79 0 -148 17t-106 40z"/>
<glyph glyph-name="T" horiz-adv-x="639" unicode="T" d="M190 0l289 1366h-256l21 96h612l-20 -96h-256l-289 -1366h-101z"/>
<glyph glyph-name="U" horiz-adv-x="911" unicode="U" d="M129 276q0 75 18 164l220 1022h98l-221 -1034q-19 -80 -19 -152q0 -202 172 -202q114 0 186.5 90t114.5 293l215 1005h99l-215 -1003q-55 -253 -151.5 -366t-260.5 -113q-125 0 -190.5 78t-65.5 218z"/>
<glyph glyph-name="V" horiz-adv-x="729" unicode="V" d="M231 0v1462h99v-909q0 -167 -23 -432q34 105 125 334l418 1007h100l-610 -1462h-109z"/>
<glyph glyph-name="W" horiz-adv-x="1270" unicode="W" d="M205 0l26 1462h101l-27 -1007q-7 -211 -18 -344l26 74l99 266l389 1011h108l-32 -970q-11 -253 -25 -381q85 241 127 344l397 1007h101l-588 -1462h-121l47 1094l16 239l-79 -237l-426 -1096h-121z"/>
<glyph glyph-name="X" horiz-adv-x="651" unicode="X" d="M-57 0l419 791l-81 671h100l68 -606l307 606h100l-377 -719l68 -743h-101l-53 666l-348 -666h-102z"/>
<glyph glyph-name="Y" horiz-adv-x="616" unicode="Y" d="M180 0l121 571l-74 891h101l51 -755l366 755h103l-447 -891l-120 -571h-101z"/>
<glyph glyph-name="Z" horiz-adv-x="580" unicode="Z" d="M-25 0l19 88l641 1278h-367l21 96h473l-19 -90l-651 -1278h391l-18 -94h-490z"/>
<glyph glyph-name="bracketleft" horiz-adv-x="580" unicode="[" d="M25 -324l381 1786h358l-21 -90h-262l-342 -1605h264l-20 -91h-358z"/>
<glyph glyph-name="backslash" horiz-adv-x="641" unicode="\" d="M270 1462h95l163 -1462h-96z"/>
<glyph glyph-name="bracketright" horiz-adv-x="580" unicode="]" d="M-63 -324l20 91h260l342 1605h-264l20 90h359l-381 -1786h-356z"/>
<glyph glyph-name="asciicircum" d="M111 758l432 704h82l159 -704h-92l-123 590l-352 -590h-106z" unicode="^"/>
<glyph glyph-name="underscore" horiz-adv-x="758" unicode="_" d="M-35 -266l17 82h763l-16 -82h-764z"/>
<glyph glyph-name="grave" horiz-adv-x="1014" unicode="`" d="M571 1552v17h127q26 -156 84 -309v-19h-39q-48 57 -101.5 151t-70.5 160z"/>
<glyph glyph-name="a" horiz-adv-x="817" unicode="a" d="M217 248q0 -91 26.5 -138t94.5 -47q90 0 168 104t132 304t54 377q0 83 -35.5 125.5t-99.5 42.5q-88 0 -163 -101.5t-126 -297.5t-51 -369zM119 262q0 209 62.5 414t162 317.5t217.5 112.5q134 0 174 -150h6l39 129h80l-229 -1085h-76l18 156h-4q-114 -176 -250 -176 q-200 0 -200 282z"/>
<glyph glyph-name="b" horiz-adv-x="803" unicode="b" d="M240 252q0 -186 135 -186q88 0 163.5 103.5t126 299.5t50.5 369q0 91 -26.5 137.5t-94.5 46.5q-94 0 -173 -104.5t-130 -294t-51 -371.5zM72 0l327 1556h95l-119 -555l-21 -81h4q52 91 118 138.5t136 47.5q201 0 201 -283q0 -211 -63 -415.5t-162.5 -316t-216.5 -111.5 q-68 0 -115 41t-59 110h-7l-45 -131h-73z"/>
<glyph glyph-name="c" horiz-adv-x="588" unicode="c" d="M119 291q0 217 63 413.5t163 299t224 102.5q86 0 144 -33l-39 -86q-53 29 -113 29q-92 0 -168.5 -97t-126 -277t-49.5 -353q0 -223 160 -223q63 0 143 40v-86q-75 -40 -162 -40q-116 0 -177.5 80t-61.5 231z"/>
<glyph glyph-name="d" horiz-adv-x="817" unicode="d" d="M217 248q0 -91 26.5 -138t94.5 -47q90 0 168 102.5t132 300t54 378.5q0 85 -32 128.5t-103 43.5q-88 0 -163 -101.5t-126 -297.5t-51 -369zM119 262q0 209 62.5 414t162 317.5t217.5 112.5q69 0 115.5 -42t58.5 -110h6l125 602h95l-330 -1556h-76l18 156h-4 q-114 -176 -250 -176q-200 0 -200 282z"/>
<glyph glyph-name="e" horiz-adv-x="723" unicode="e" d="M250 588q399 0 399 317q0 53 -22.5 83t-81.5 30q-89 0 -169 -118t-126 -312zM119 297q0 214 60.5 401.5t164 297.5t217.5 110q87 0 134.5 -50.5t47.5 -152.5q0 -123 -59.5 -215t-170 -137t-263.5 -45h-12q-21 -99 -21 -199q0 -241 184 -241q47 0 88.5 13t94.5 44v-96 q-84 -47 -211 -47q-120 0 -187 83.5t-67 233.5z"/>
<glyph glyph-name="f" horiz-adv-x="408" unicode="f" d="M-201 -389q37 -12 84 -12t73 26.5t47.5 88.5t47.5 186l236 1101h-121l10 54l131 41l21 98q29 143 63.5 223t80.5 115t126 35q66 0 111 -25l-41 -88q-42 21 -82 21q-47 0 -72.5 -26.5t-47 -89.5t-65.5 -274h144l-19 -84h-143l-240 -1107q-34 -160 -65 -239t-73 -113 t-118 -34q-51 0 -88 11v92z"/>
<glyph glyph-name="g" horiz-adv-x="668" unicode="g" d="M266 612q0 -74 28.5 -112.5t82.5 -38.5q62 0 112.5 52.5t83.5 158t33 202.5q0 154 -108 154q-61 0 -112.5 -56t-85.5 -164.5t-34 -195.5zM16 -229q0 -98 49.5 -141.5t145.5 -43.5q122 0 202.5 74t80.5 193q0 64 -40.5 111t-123.5 71l-90 24q-96 -32 -160 -113t-64 -175z M-74 -236q0 105 65 191.5t185 140.5q-63 42 -63 113q0 52 32 101t115 108q-86 72 -86 209q0 123 49.5 240.5t125 178t167.5 60.5q64 0 98 -21h207l-14 -67l-137 -17q30 -57 30 -143q0 -109 -44.5 -224.5t-118 -181t-162.5 -65.5h-25l-22 2q-125 -87 -125 -158q0 -23 8 -37.5 t25 -24t118 -40.5q126 -39 177 -98.5t51 -159.5q0 -161 -106 -262t-273 -101q-132 0 -204.5 67t-72.5 189z"/>
<glyph glyph-name="h" horiz-adv-x="784" unicode="h" d="M74 0l329 1556h95l-99 -454l-41 -168h4q93 172 242 172q84 0 130 -48.5t46 -139.5q0 -56 -14 -121l-168 -797h-94l172 815q10 40 10 84q0 113 -100 113q-105 0 -176 -101t-115 -315l-127 -596h-94z"/>
<glyph glyph-name="i" horiz-adv-x="348" unicode="i" d="M346 1356q0 51 23 88t59 37q47 0 47 -58q0 -57 -22 -94t-58 -37q-49 0 -49 64zM68 0l231 1085h94l-231 -1085h-94z"/>
<glyph glyph-name="j" horiz-adv-x="348" unicode="j" d="M346 1356q0 51 23 88t59 37q47 0 47 -58q0 -57 -22 -94t-58 -37q-49 0 -49 64zM-205 -389q37 -12 84 -12t73 26.5t47.5 88.5t47.5 186l252 1185h94l-254 -1191q-34 -160 -65 -238t-73.5 -113t-117.5 -35q-51 0 -88 11v92z"/>
<glyph glyph-name="k" horiz-adv-x="639" unicode="k" d="M72 0l331 1556h95l-179 -817q-8 -40 -45 -190h2l48 59l82 105l270 372h102l-307 -430l96 -655h-98l-84 573l-127 -139l-92 -434h-94z"/>
<glyph glyph-name="l" horiz-adv-x="346" unicode="l" d="M72 0l331 1556h95l-332 -1556h-94z"/>
<glyph glyph-name="m" horiz-adv-x="1171" unicode="m" d="M72 0l229 1085h80l-25 -151h4q91 172 240 172q73 0 114.5 -36t51.5 -114q51 75 107 112.5t131 37.5q77 0 119 -50t42 -149q0 -57 -14 -121l-166 -786h-94l172 813q10 47 10 84q0 115 -94 115q-82 0 -146 -71.5t-88 -188.5l-157 -752h-94l168 799q12 58 12 98 q0 115 -99 115q-101 0 -168 -96t-114 -320l-127 -596h-94z"/>
<glyph glyph-name="n" horiz-adv-x="782" unicode="n" d="M72 0l229 1085h80l-25 -151h4q93 172 242 172q84 0 130 -48.5t46 -139.5q0 -56 -14 -121l-168 -797h-94l172 815q10 40 10 84q0 113 -100 113q-105 0 -176 -101t-115 -315l-127 -596h-94z"/>
<glyph glyph-name="o" horiz-adv-x="780" unicode="o" d="M217 268q0 -202 135 -202q89 0 164 101.5t122.5 286.5t47.5 357q0 205 -139 205q-84 0 -157.5 -98t-123 -286t-49.5 -364zM119 287q0 142 36 305t94 276.5t136 175.5t174 62q106 0 165.5 -82.5t59.5 -232.5q0 -139 -36.5 -298.5t-95.5 -274t-138 -176.5t-174 -62 q-107 0 -164 80t-57 227z"/>
<glyph glyph-name="p" horiz-adv-x="803" unicode="p" d="M242 252q0 -186 135 -186q88 0 163.5 103.5t126 299.5t50.5 369q0 91 -26.5 137.5t-94.5 46.5q-94 0 -173 -104.5t-130 -294t-51 -371.5zM-27 -471l330 1556h82l-25 -155h5q114 176 249 176q201 0 201 -283q0 -210 -63 -414.5t-162 -316.5t-217 -112q-68 0 -115 41 t-59 110h-6l-125 -602h-95z"/>
<glyph glyph-name="q" horiz-adv-x="817" unicode="q" d="M217 248q0 -91 26.5 -138t94.5 -47q90 0 168 104t132 304t54 377q0 83 -35.5 125.5t-99.5 42.5q-88 0 -163 -101.5t-126 -297.5t-51 -369zM119 262q0 209 62.5 414t162 317.5t217.5 112.5q134 0 174 -150h6l39 129h80l-334 -1577h-94l103 488l43 162h-5 q-115 -178 -254 -178q-200 0 -200 282z"/>
<glyph glyph-name="r" horiz-adv-x="504" unicode="r" d="M72 0l229 1085h70l-29 -190h4q88 211 236 211q39 0 73 -12l-26 -97q-30 15 -66 15q-85 0 -158 -117t-116 -320l-123 -575h-94z"/>
<glyph glyph-name="s" horiz-adv-x="594" unicode="s" d="M29 25v110q24 -24 80.5 -44.5t113.5 -20.5q97 0 151 56.5t54 160.5q0 44 -11 80.5t-28.5 67.5t-77.5 97q-65 71 -88 107.5t-36 78.5t-13 97q0 130 80 210.5t207 80.5q136 0 219 -62l-51 -86q-71 58 -172 58q-82 0 -135.5 -51.5t-53.5 -137.5q0 -59 21.5 -107t81.5 -114 q72 -78 97.5 -118t40.5 -87t15 -104q0 -152 -76.5 -234.5t-218.5 -82.5q-56 0 -117 14t-83 31z"/>
<glyph glyph-name="t" horiz-adv-x="403" unicode="t" d="M96 131q0 38 13 100l163 770h-98l12 56l103 28l80 258h69l-55 -258h143l-18 -84h-143l-158 -743q-14 -64 -14 -106q0 -45 16.5 -64.5t52.5 -19.5q31 0 66 12v-80q-56 -20 -105 -20q-127 0 -127 151z"/>
<glyph glyph-name="u" horiz-adv-x="786" unicode="u" d="M123 178q0 79 20 166l158 741h94l-162 -755q-18 -78 -18 -135q0 -123 94 -123q209 0 297 417l127 596h94l-231 -1085h-74l8 135h-4q-101 -155 -239 -155q-164 0 -164 198z"/>
<glyph glyph-name="v" horiz-adv-x="588" unicode="v" d="M178 0v1085h94v-659q0 -38 -4.5 -141.5t-11.5 -161.5h6q21 62 51 141t338 821h99l-459 -1085h-113z"/>
<glyph glyph-name="w" horiz-adv-x="1012" unicode="w" d="M170 0l20 1085h95l-13 -632q-4 -176 -22 -330h4q8 28 39.5 115t324.5 847h109l-16 -632q-3 -90 -15 -262l-4 -68h4l60 157l313 805h96l-436 -1085h-121l29 735l12 228q-40 -118 -54 -158t-308 -805h-117z"/>
<glyph glyph-name="x" horiz-adv-x="608" unicode="x" d="M-27 0l340 571l-92 514h96l70 -434l250 434h100l-327 -538l108 -547h-96l-80 461l-268 -461h-101z"/>
<glyph glyph-name="y" horiz-adv-x="588" unicode="y" d="M-158 -387q37 -16 88 -16q54 0 92.5 43.5t94.5 173.5l71 170l-8 1101h94v-639q0 -161 -12 -323h6q53 157 97 264l288 698h99l-562 -1329q-58 -138 -116 -193t-142 -55q-46 0 -90 19v86z"/>
<glyph glyph-name="z" horiz-adv-x="487" unicode="z" d="M-4 0l14 76l475 925h-264l19 84h364l-16 -77l-477 -924h297l-19 -84h-393z"/>
<glyph glyph-name="braceleft" horiz-adv-x="664" unicode="{" d="M125 535l16 69q119 0 182.5 54.5t86.5 160.5l79 371q30 145 111 208.5t238 63.5l-19 -80q-113 -2 -164.5 -48t-72.5 -150l-76 -353q-23 -111 -82.5 -174.5t-167.5 -85.5v-4q77 -17 113.5 -59t36.5 -113q0 -33 -11 -88l-67 -315q-11 -55 -11 -86q0 -75 35.5 -111.5 t116.5 -38.5v-80q-129 4 -187.5 60t-58.5 164q0 45 13 96l67 323q8 32 8 70q0 146 -186 146z"/>
<glyph glyph-name="bar" d="M133 -492l434 2048h92l-434 -2048h-92z" unicode="|"/>
<glyph glyph-name="braceright" horiz-adv-x="664" unicode="}" d="M-59 -324l18 80q112 2 164 47t74 152l75 352q23 112 82.5 175.5t167.5 84.5v4q-77 17 -113 59t-36 113q0 40 10 88l68 316q10 50 10 86q0 74 -35.5 110.5t-116.5 38.5v80q129 -3 187.5 -59.5t58.5 -163.5q0 -44 -12 -96l-68 -324q-8 -32 -8 -69q0 -146 186 -146l-16 -69 q-119 0 -182 -54.5t-86 -161.5l-80 -370q-30 -146 -111.5 -209.5t-236.5 -63.5z"/>
<glyph glyph-name="asciitilde" d="M111 618v99q86 106 188 106q49 0 95.5 -19.5t95.5 -48.5q73 -44 131 -44q43 0 82.5 29t84.5 87v-98q-82 -104 -186 -104q-81 0 -168 55q-38 22 -74 40.5t-79 18.5q-71 0 -170 -121z" unicode="~"/>
<glyph glyph-name="cent" d="M193 487q0 196 52.5 382t140 300t198.5 140l37 174h84l-35 -170q70 -6 116 -31l-38 -86q-53 29 -113 29q-93 0 -169.5 -100t-125.5 -282.5t-49 -353.5q0 -115 37.5 -165t109.5 -50q45 0 77.5 13.5t55.5 25.5l23 -84q-26 -16 -72 -27.5t-92 -13.5l-45 -208h-84l47 219 q-155 44 -155 288z" unicode="¢"/>
<glyph glyph-name="sterling" d="M8 0l19 82q63 28 112.5 107.5t75.5 203.5l61 289h-141l19 86h141l82 385q34 158 106 244t197 86q60 0 106.5 -17.5t100.5 -64.5l-64 -78q-63 70 -151 70q-81 0 -128.5 -66t-76.5 -207l-74 -352h223l-18 -86h-223l-62 -287q-47 -223 -159 -301h456l-20 -94h-582z" unicode="£"/>
<glyph glyph-name="yen" d="M104 291l17 82h194l41 200h-192l18 82h176l-36 807h92l24 -745l338 745h94l-376 -807h180l-19 -82h-200l-41 -200h198l-16 -82h-199l-63 -291h-96l61 291h-195z" unicode="¥"/>
<glyph glyph-name="dieresis" horiz-adv-x="1014" unicode="¨" d="M725 1362q0 49 23 81t59 32q47 0 47 -58q0 -53 -21.5 -86t-58.5 -33q-49 0 -49 64zM453 1362q0 49 22.5 81t59.5 32q47 0 47 -58q0 -53 -21.5 -86t-58.5 -33q-49 0 -49 64z"/>
<glyph glyph-name="copyright" horiz-adv-x="1704" unicode="©" d="M563 725q0 208 111 332.5t297 124.5q119 0 227 -52l-37 -83q-98 45 -190 45q-142 0 -222.5 -94.5t-80.5 -264.5q0 -186 74.5 -275t220.5 -89q84 0 198 43v-88q-102 -45 -209 -45q-187 0 -288 116t-101 330zM266 731q0 -182 92 -335t243 -238.5t325 -85.5 q178 0 329.5 88.5t240.5 240.5t89 330q0 174 -85.5 325t-239 243t-334.5 92q-178 0 -330 -89t-241 -240.5t-89 -330.5zM174 731q0 200 100 375t275 276t377 101q199 0 373.5 -99t276 -275.5t101.5 -377.5q0 -199 -98.5 -373t-272.5 -276t-380 -102q-207 0 -382 103.5 t-272.5 276.5t-97.5 371z"/>
<glyph glyph-name="guillemotleft" horiz-adv-x="770" unicode="«" d="M436 514l4 27l336 366l55 -41l-274 -340l123 -350l-62 -29zM127 514l4 27l334 366l57 -41l-276 -340l125 -350l-64 -29z"/>
<glyph glyph-name="registered" horiz-adv-x="1704" unicode="®" d="M782 731h113q91 0 143 46.5t52 135.5q0 172 -197 172h-111v-354zM682 291v880h211q142 0 221.5 -62t79.5 -191q0 -79 -39 -140t-111 -94l238 -393h-121l-211 360h-168v-360h-100zM266 731q0 -182 92 -335t243 -238.5t325 -85.5q178 0 329.5 88.5t240.5 240.5t89 330 q0 174 -85.5 325t-239 243t-334.5 92q-178 0 -330 -89t-241 -240.5t-89 -330.5zM174 731q0 200 100 375t275 276t377 101q199 0 373.5 -99t276 -275.5t101.5 -377.5q0 -199 -98.5 -373t-272.5 -276t-380 -102q-207 0 -382 103.5t-272.5 276.5t-97.5 371z"/>
<glyph glyph-name="acute" horiz-adv-x="1014" unicode="´" d="M500 1241v16q154 186 223 312h139v-17q-42 -63 -136 -156t-175 -155h-51z"/>
<glyph glyph-name="cedilla" horiz-adv-x="418" unicode="¸" d="M-27 -403q26 -11 103 -11q78 0 122 36.5t44 98.5q0 45 -35 74t-117 45l103 160h81l-79 -115q65 -18 100 -58.5t35 -92.5q0 -100 -68.5 -163t-179.5 -63q-24 0 -60 3.5t-49 7.5v78z"/>
<glyph glyph-name="guillemotright" horiz-adv-x="770" unicode="»" d="M358 188l277 340l-125 351l63 28l181 -366l-4 -27l-334 -367zM49 188l275 340l-123 351l61 28l182 -366l-4 -27l-336 -367z"/>
<glyph glyph-name="circumflex" horiz-adv-x="1040" unicode="ˆ" d="M414 1241l4 19q160 182 239 309h86q11 -51 47.5 -150.5t63.5 -158.5l-4 -19h-47q-59 88 -125 203q-132 -132 -219 -203h-45z"/>
<glyph glyph-name="tilde" horiz-adv-x="1040" unicode="˜" d="M387 1249q31 120 75.5 175t104.5 55q36 0 65 -20.5t54.5 -45t49.5 -45t48 -20.5q30 0 47.5 22.5t40.5 112.5h70q-29 -134 -65.5 -183t-92.5 -49q-35 0 -64.5 20.5t-57 45t-53 45t-50.5 20.5q-40 0 -62.5 -35t-39.5 -98h-70z"/>
<glyph glyph-name="uni0400" horiz-adv-x="709" unicode="Ѐ" d="M466 1890v17h127q26 -156 84 -309v-19h-39q-48 57 -101.5 151t-70.5 160zM66 0l309 1462h477l-21 -96h-376l-117 -553h354l-20 -94h-355l-133 -625h377l-18 -94h-477z"/>
<glyph glyph-name="afii10023" horiz-adv-x="709" unicode="Ё" d="M731 1700q0 49 23 81t59 32q47 0 47 -58q0 -53 -21.5 -86t-58.5 -33q-49 0 -49 64zM459 1700q0 49 22.5 81t59.5 32q47 0 47 -58q0 -53 -21.5 -86t-58.5 -33q-49 0 -49 64zM66 0l309 1462h477l-21 -96h-376l-117 -553h354l-20 -94h-355l-133 -625h377l-18 -94h-477z"/>
<glyph glyph-name="afii10051" horiz-adv-x="838" unicode="Ђ" d="M131 0l291 1368h-217l20 94h555l-20 -94h-240l-104 -491h82q149 0 217.5 -53t68.5 -167q0 -39 -14 -114l-53 -250q-38 -176 -101.5 -244.5t-169.5 -68.5q-52 0 -122 22l20 92q42 -20 98 -20q74 0 115 57t70 193l47 219q12 55 12 98q0 68 -38 104.5t-132 36.5h-121 l-166 -782h-98z"/>
<glyph glyph-name="afii10052" horiz-adv-x="598" unicode="Ѓ" d="M520 1579v16q154 186 223 312h139v-17q-42 -63 -136 -156t-175 -155h-51zM66 0l309 1462h409l-22 -100h-311l-287 -1362h-98z"/>
<glyph glyph-name="afii10053" horiz-adv-x="774" unicode="Є" d="M141 449q0 264 83 511t221.5 386t302.5 139q130 0 204 -62l-61 -86q-60 52 -146 52q-149 0 -271 -154.5t-189 -421.5h413l-20 -94h-414q-24 -132 -24 -252q0 -212 53.5 -303.5t171.5 -91.5q100 0 182 41v-93q-38 -18 -90.5 -29t-101.5 -11q-162 0 -238 115.5t-76 353.5z "/>
<glyph glyph-name="afii10054" horiz-adv-x="727" unicode="Ѕ" d="M10 37v108q121 -71 262 -71q133 0 207 86.5t74 236.5q0 64 -16 115t-44 95.5t-110 131.5q-78 83 -108 130t-46 99.5t-16 116.5q0 114 48.5 206.5t136 142t204.5 49.5q65 0 136 -18t106 -42l-53 -94q-91 57 -199 57q-84 0 -146.5 -37t-96.5 -103t-34 -146q0 -75 30 -138 t116 -149q92 -94 124 -147t51 -117.5t19 -149.5q0 -196 -104 -307.5t-287 -111.5q-79 0 -148 17t-106 40z"/>
<glyph glyph-name="afii10055" horiz-adv-x="418" unicode="І" d="M66 0l309 1462h98l-309 -1462h-98z"/>
<glyph glyph-name="afii10056" horiz-adv-x="418" unicode="Ї" d="M527 1700q0 49 23 81t59 32q47 0 47 -58q0 -53 -21.5 -86t-58.5 -33q-49 0 -49 64zM255 1700q0 49 22.5 81t59.5 32q47 0 47 -58q0 -53 -21.5 -86t-58.5 -33q-49 0 -49 64zM66 0l309 1462h98l-309 -1462h-98z"/>
<glyph glyph-name="afii10057" horiz-adv-x="360" unicode="Ј" d="M-227 -344l28 92q42 -20 90 -20q68 0 105 55t63 182l318 1497h98l-321 -1519q-34 -161 -98 -236.5t-169 -75.5q-70 0 -114 25z"/>
<glyph glyph-name="afii10058" horiz-adv-x="1155" unicode="Љ" d="M588 90h98q154 0 239 108.5t85 299.5q0 115 -61.5 170t-188.5 55h-37zM-84 2v94q31 -12 66 -12q103 0 177 235l38 119q36 112 120 400l181 624h379l-136 -649h43q160 0 244 -80t84 -233q0 -230 -119.5 -365t-326.5 -135h-195l287 1368h-193q-92 -328 -194 -673.5 t-149.5 -471.5t-98 -179.5t-125.5 -53.5q-36 0 -82 12z"/>
<glyph glyph-name="afii10059" horiz-adv-x="1206" unicode="Њ" d="M643 90h98q154 0 239 108.5t85 299.5q0 115 -61.5 170t-188.5 55h-37zM66 0l309 1462h98l-137 -649h360l138 649h98l-135 -649h43q160 0 243.5 -80.5t83.5 -232.5q0 -232 -119 -366t-327 -134h-195l152 723h-361l-153 -723h-98z"/>
<glyph glyph-name="afii10060" horiz-adv-x="856" unicode="Ћ" d="M152 0l290 1368h-217l19 94h555l-19 -94h-239l-105 -491h84q138 0 201 -52t63 -161q0 -60 -14 -121l-115 -543h-98l115 543q12 61 12 104q0 76 -38.5 105.5t-119.5 29.5h-110l-166 -782h-98z"/>
<glyph glyph-name="afii10061" horiz-adv-x="729" unicode="Ќ" d="M586 1579v16q154 186 223 312h139v-17q-42 -63 -136 -156t-175 -155h-51zM66 0l309 1462h98l-149 -706l499 706h109l-506 -714l229 -748h-108l-225 748l-158 -748h-98z"/>
<glyph glyph-name="uni040D" horiz-adv-x="981" unicode="Ѝ" d="M604 1890v17h127q26 -156 84 -309v-19h-39q-48 57 -101.5 151t-70.5 160zM66 0l309 1462h96l-209 -989q-32 -150 -65 -274h8l745 1263h119l-309 -1462h-96l215 1018q36 169 69 262h-8l-758 -1280h-116z"/>
<glyph glyph-name="afii10062" horiz-adv-x="616" unicode="Ў" d="M347 1788q0 34 6 72h82q-4 -25 -4 -68q0 -66 28.5 -101.5t96.5 -35.5q71 0 113 50.5t67 154.5h86q-35 -146 -99.5 -213.5t-172.5 -67.5q-99 0 -151 56.5t-52 152.5zM-39 0v92q34 -18 80 -18q52 0 88 42t82 144l74 168l-58 1034h99l30 -680l2 -111v-102h9q17 51 77 201 l308 692h98l-555 -1237q-61 -134 -115.5 -187.5t-132.5 -53.5q-54 0 -86 16z"/>
<glyph glyph-name="afii10145" horiz-adv-x="924" unicode="Џ" d="M68 0l311 1462h98l-291 -1368h441l291 1368h98l-311 -1462h-271l-78 -369h-96l78 369h-270z"/>
<glyph glyph-name="afii10017" horiz-adv-x="731" unicode="А" d="M283 629h272v370l6 355q-15 -52 -52 -152t-226 -573zM-78 0l606 1468h123v-1468h-96v530h-307l-221 -530h-105z"/>
<glyph glyph-name="afii10018" horiz-adv-x="778" unicode="Б" d="M182 90h135q154 0 239 108.5t85 299.5q0 115 -61.5 170t-188.5 55h-74zM66 0l309 1462h514l-19 -94h-415l-119 -555h84q158 0 240.5 -79t82.5 -234q0 -232 -119 -366t-327 -134h-231z"/>
<glyph glyph-name="afii10019" horiz-adv-x="817" unicode="В" d="M336 813h147q90 0 158 46t105.5 129.5t37.5 187.5q0 97 -51 143.5t-155 46.5h-123zM184 94h158q154 0 240 107.5t86 292.5q0 104 -51 164.5t-142 60.5h-158zM66 0l309 1462h225q130 0 208.5 -75t78.5 -199q0 -167 -74.5 -279t-204.5 -137l-2 -6q73 -19 118.5 -89.5 t45.5 -166.5q0 -151 -51 -267t-148 -179.5t-233 -63.5h-272z"/>
<glyph glyph-name="afii10020" horiz-adv-x="598" unicode="Г" d="M66 0l309 1462h409l-22 -100h-311l-287 -1362h-98z"/>
<glyph glyph-name="afii10021" horiz-adv-x="844" unicode="Д" d="M150 94h407l270 1274h-213q-59 -248 -141 -497.5t-166 -448t-157 -328.5zM-127 -369l98 463h78q150 273 278.5 630t209.5 738h409l-291 -1368h113l-98 -463h-99l80 369h-602l-78 -369h-98z"/>
<glyph glyph-name="afii10022" horiz-adv-x="709" unicode="Е" d="M66 0l309 1462h477l-21 -96h-376l-117 -553h354l-20 -94h-355l-133 -625h377l-18 -94h-477z"/>
<glyph glyph-name="afii10024" horiz-adv-x="1010" unicode="Ж" d="M-76 0l516 760l-200 702h100l199 -706l149 706h98l-149 -704l491 704h103l-498 -712l199 -750h-105l-192 750l-158 -750h-98l158 748l-500 -748h-113z"/>
<glyph glyph-name="afii10025" horiz-adv-x="731" unicode="З" d="M-6 29v114q90 -69 225 -69q151 0 237.5 103.5t86.5 271.5q0 131 -56.5 196.5t-162.5 65.5h-105l19 94h100q147 0 246.5 111t99.5 278q0 195 -176 195q-55 0 -98.5 -15t-114.5 -69l-47 81q116 97 260 97q128 0 201 -74.5t73 -202.5q0 -172 -83.5 -290.5t-223.5 -151.5 l-2 -6q170 -63 170 -295q0 -214 -113.5 -348.5t-298.5 -134.5q-152 0 -237 49z"/>
<glyph glyph-name="afii10026" horiz-adv-x="981" unicode="И" d="M66 0l309 1462h96l-209 -989q-32 -150 -65 -274h8l745 1263h119l-309 -1462h-96l215 1018q36 169 69 262h-8l-758 -1280h-116z"/>
<glyph glyph-name="afii10027" horiz-adv-x="981" unicode="Й" d="M545 1788q0 34 6 72h82q-4 -25 -4 -68q0 -66 28.5 -101.5t96.5 -35.5q71 0 113 50.5t67 154.5h86q-35 -146 -99.5 -213.5t-172.5 -67.5q-99 0 -151 56.5t-52 152.5zM66 0l309 1462h96l-209 -989q-32 -150 -65 -274h8l745 1263h119l-309 -1462h-96l215 1018q36 169 69 262 h-8l-758 -1280h-116z"/>
<glyph glyph-name="afii10028" horiz-adv-x="729" unicode="К" d="M66 0l309 1462h98l-149 -706l499 706h109l-506 -714l229 -748h-108l-225 748l-158 -748h-98z"/>
<glyph glyph-name="afii10029" horiz-adv-x="838" unicode="Л" d="M-63 2v94q30 -12 65 -12q53 0 97 59.5t81 175.5q106 340 242 811l96 332h428l-311 -1462h-98l290 1368h-241q-133 -470 -229.5 -789.5t-137.5 -412t-88 -134.5t-113 -42q-36 0 -81 12z"/>
<glyph glyph-name="afii10030" horiz-adv-x="1255" unicode="М" d="M66 0l309 1462h160l34 -1108l4 -164l-2 -88h2q17 50 107 250l494 1110h169l-309 -1462h-100l238 1122l49 207h-4l-596 -1329h-127l-52 1331h-6l-44 -240l-230 -1091h-96z"/>
<glyph glyph-name="afii10031" horiz-adv-x="924" unicode="Н" d="M66 0l309 1462h98l-137 -647h440l137 647h99l-310 -1462h-98l152 717h-441l-151 -717h-98z"/>
<glyph glyph-name="afii10032" horiz-adv-x="958" unicode="О" d="M233 377q0 -303 187 -303q92 0 173.5 80.5t144.5 230t102 349.5t39 366q0 289 -187 289q-91 0 -171.5 -73.5t-144.5 -220.5t-103.5 -350t-39.5 -368zM135 379q0 196 46 414t124.5 376.5t178.5 236t218 77.5q275 0 275 -383q0 -284 -80 -557t-207 -418t-278 -145 q-277 0 -277 399z"/>
<glyph glyph-name="afii10033" horiz-adv-x="924" unicode="П" d="M66 0l309 1462h637l-310 -1462h-98l291 1368h-442l-289 -1368h-98z"/>
<glyph glyph-name="afii10034" horiz-adv-x="772" unicode="Р" d="M311 698h70q178 0 275.5 115.5t97.5 325.5q0 107 -58.5 167t-165.5 60h-77zM66 0l309 1462h170q145 0 229 -83.5t84 -223.5q0 -157 -57 -283t-164 -197t-250 -71h-96l-127 -604h-98z"/>
<glyph glyph-name="afii10035" horiz-adv-x="727" unicode="С" d="M135 449q0 256 85.5 504.5t226 390t303.5 141.5q122 0 196 -62l-61 -86q-60 52 -146 52q-130 0 -245.5 -129t-188 -355.5t-72.5 -437.5q0 -204 51.5 -299.5t172.5 -95.5q76 0 172 39v-95q-94 -36 -187 -36q-153 0 -230 115.5t-77 353.5z"/>
<glyph glyph-name="afii10036" horiz-adv-x="639" unicode="Т" d="M190 0l289 1366h-256l21 96h612l-20 -96h-256l-289 -1366h-101z"/>
<glyph glyph-name="afii10037" horiz-adv-x="616" unicode="У" d="M-39 0v92q34 -18 80 -18q52 0 88 42t82 144l74 168l-58 1034h99l30 -680l2 -111v-102h9q17 51 77 201l308 692h98l-555 -1237q-61 -134 -115.5 -187.5t-132.5 -53.5q-54 0 -86 16z"/>
<glyph glyph-name="afii10038" horiz-adv-x="1083" unicode="Ф" d="M565 295q117 2 209.5 82t149.5 234t57 321q0 135 -56 207.5t-165 72.5zM250 582q0 -276 219 -287l195 917q-121 -3 -213.5 -81.5t-146.5 -226.5t-54 -322zM150 592q0 193 70 358.5t190 255.5t274 97l37 180h96l-37 -180q303 -21 303 -385q0 -190 -73 -359.5t-193.5 -260 t-269.5 -93.5l-49 -225h-97l50 225q-301 21 -301 387z"/>
<glyph glyph-name="afii10039" horiz-adv-x="651" unicode="Х" d="M-57 0l419 791l-81 671h100l68 -606l307 606h100l-377 -719l68 -743h-101l-53 666l-348 -666h-102z"/>
<glyph glyph-name="afii10040" horiz-adv-x="942" unicode="Ц" d="M76 0l311 1462h98l-290 -1368h440l291 1368h98l-291 -1368h98l-98 -463h-98l80 369h-639z"/>
<glyph glyph-name="afii10041" horiz-adv-x="901" unicode="Ч" d="M209 776q0 64 14 123l119 563h100l-123 -575q-12 -56 -12 -99q0 -78 40.5 -119.5t119.5 -41.5q58 0 114.5 17.5t141.5 68.5l158 749h98l-309 -1462h-99l134 627q-87 -55 -146 -75t-113 -20q-109 0 -173 60.5t-64 183.5z"/>
<glyph glyph-name="afii10042" horiz-adv-x="1266" unicode="Ш" d="M66 0l309 1462h98l-291 -1368h342l291 1368h98l-290 -1368h342l290 1368h99l-310 -1462h-978z"/>
<glyph glyph-name="afii10043" horiz-adv-x="1274" unicode="Щ" d="M66 0l309 1462h98l-291 -1368h342l291 1368h98l-290 -1368h344l290 1368h99l-291 -1368h100l-98 -463h-94l78 369h-985z"/>
<glyph glyph-name="afii10044" horiz-adv-x="928" unicode="Ъ" d="M295 90h135q154 0 239 108.5t85 299.5q0 115 -61.5 170t-188.5 55h-74zM178 0l289 1366h-262l20 96h361l-137 -649h83q158 0 241 -78.5t83 -234.5q0 -230 -119.5 -365t-326.5 -135h-232z"/>
<glyph glyph-name="afii10045" horiz-adv-x="1155" unicode="Ы" d="M836 0l309 1462h98l-309 -1462h-98zM182 90h135q154 0 239 108.5t85 299.5q0 115 -61.5 170t-188.5 55h-74zM66 0l309 1462h98l-137 -649h84q158 0 240.5 -79t82.5 -234q0 -232 -119 -366t-327 -134h-231z"/>
<glyph glyph-name="afii10046" horiz-adv-x="786" unicode="Ь" d="M182 90h135q154 0 239 108.5t85 299.5q0 115 -61.5 170t-188.5 55h-74zM66 0l307 1462h98l-135 -649h80q160 0 243.5 -80.5t83.5 -232.5q0 -232 -119 -366t-327 -134h-231z"/>
<glyph glyph-name="afii10047" horiz-adv-x="774" unicode="Э" d="M0 14v99q105 -39 199 -39q169 0 287 159.5t171 485.5h-415l20 94h408q20 118 20 231q0 169 -57 258t-162 89q-90 0 -180 -56l-35 90q99 60 236 60q140 0 218 -110t78 -320q0 -318 -73.5 -566.5t-206 -378.5t-309.5 -130q-112 0 -199 34z"/>
<glyph glyph-name="afii10048" horiz-adv-x="1245" unicode="Ю" d="M575 340q0 -266 158 -266q107 0 206 147t167 412t68 491q0 126 -38 195.5t-126 69.5q-109 0 -208.5 -159.5t-163 -424t-63.5 -465.5zM66 0l309 1462h98l-137 -649h207q83 348 201.5 509t281.5 161q119 0 182.5 -95t63.5 -272q0 -256 -75 -532.5t-200 -440t-272 -163.5 q-248 0 -248 364q0 152 47 375h-209l-151 -719h-98z"/>
<glyph glyph-name="afii10049" horiz-adv-x="788" unicode="Я" d="M319 995q0 -270 226 -270h78l137 647h-96q-160 0 -252.5 -99.5t-92.5 -277.5zM-37 0l426 662q-83 36 -127.5 120.5t-44.5 206.5q0 141 54 248.5t156.5 166t244.5 58.5h205l-310 -1462h-98l135 637h-127l-401 -637h-113z"/>
<glyph glyph-name="afii10065" horiz-adv-x="817" unicode="а" d="M217 248q0 -91 26.5 -138t94.5 -47q90 0 168 104t132 304t54 377q0 83 -35.5 125.5t-99.5 42.5q-88 0 -163 -101.5t-126 -297.5t-51 -369zM119 262q0 209 62.5 414t162 317.5t217.5 112.5q134 0 174 -150h6l39 129h80l-229 -1085h-76l18 156h-4q-114 -176 -250 -176 q-200 0 -200 282z"/>
<glyph glyph-name="afii10066" horiz-adv-x="766" unicode="б" d="M213 291q0 -225 127 -225q87 0 156 85t113 254t44 314q0 103 -35 149.5t-104 46.5q-66 0 -133.5 -54.5t-114.5 -153.5q-53 -267 -53 -416zM119 293q0 190 71 499.5t152.5 458.5t207.5 218t378 94v-86q-210 -20 -319 -74t-177.5 -171t-134.5 -374h8q97 148 242 148 q100 0 152.5 -74t52.5 -213q0 -127 -34.5 -275t-89.5 -250t-129 -158t-165 -56q-97 0 -156 77.5t-59 235.5z"/>
<glyph glyph-name="afii10067" horiz-adv-x="803" unicode="в" d="M252 588h182q81 0 148.5 33.5t107 96.5t39.5 156q0 69 -37.5 106.5t-107.5 37.5q-116 0 -197 -104t-135 -326zM217 293q0 -119 45 -174.5t133 -55.5q102 0 167 72.5t65 181.5q0 92 -54 140.5t-155 48.5h-180q-21 -141 -21 -213zM119 287q0 230 64.5 423t172.5 294.5 t242 101.5q101 0 163 -59.5t62 -155.5q0 -136 -71 -228t-193 -116v-4q78 -17 120 -76t42 -148q0 -148 -94 -243.5t-244 -95.5q-264 0 -264 307z"/>
<glyph glyph-name="afii10068" horiz-adv-x="584" unicode="г" d="M55 225q0 90 27 154.5t74 114t176 127.5q97 58 134.5 94t58 79.5t20.5 102.5q0 57 -31.5 88t-91.5 31q-51 0 -93.5 -16t-84.5 -39l-27 81q105 64 213 64q97 0 153 -53t56 -152q0 -74 -25 -131t-69.5 -102t-155.5 -113q-46 -29 -89 -57t-76.5 -65t-53.5 -86.5t-20 -121.5 q0 -77 40 -117t115 -40q59 0 103 21t79 46v-102q-90 -53 -196 -53q-108 0 -172 65t-64 180z"/>
<glyph glyph-name="afii10069" horiz-adv-x="793" unicode="д" d="M217 291q0 -116 34.5 -170.5t104.5 -54.5q90 0 163.5 89.5t126 272t65.5 395.5q-23 64 -73.5 101t-115.5 37q-86 0 -154 -84.5t-109.5 -251t-41.5 -334.5zM119 289q0 188 55.5 380t145.5 287t208 95q63 0 119 -33t80 -86l2 184q0 367 -231 367q-66 0 -144 -39l-30 84 q90 45 184 45q159 0 234 -118t75 -390q0 -306 -61 -564.5t-164 -389.5t-236 -131q-110 0 -173.5 83t-63.5 226z"/>
<glyph glyph-name="afii10070" horiz-adv-x="723" unicode="е" d="M250 588q399 0 399 317q0 53 -22.5 83t-81.5 30q-89 0 -169 -118t-126 -312zM119 297q0 214 60.5 401.5t164 297.5t217.5 110q87 0 134.5 -50.5t47.5 -152.5q0 -123 -59.5 -215t-170 -137t-263.5 -45h-12q-21 -99 -21 -199q0 -241 184 -241q47 0 88.5 13t94.5 44v-96 q-84 -47 -211 -47q-120 0 -187 83.5t-67 233.5z"/>
<glyph glyph-name="afii10072" horiz-adv-x="1092" unicode="ж" d="M-25 -10l19 86l16 -2h17q92 0 167.5 95.5t121.5 274.5t46 361q0 115 -39.5 163t-111.5 48h-17l-16 -2v80q22 4 49 4q224 0 224 -291q0 -101 -19 -219h137l107 497h90l-107 -497h136q53 245 156.5 377.5t242.5 132.5h22l21 -2l-18 -86l-16 2h-17q-93 0 -168 -95 t-121.5 -274t-46.5 -362q0 -109 37 -160t114 -51h18l15 2v-80q-22 -4 -49 -4q-223 0 -223 291q0 112 18 229h-139l-106 -508h-91l109 508h-135q-54 -253 -157 -386.5t-243 -133.5h-21z"/>
<glyph glyph-name="afii10073" horiz-adv-x="580" unicode="з" d="M8 31v106q90 -67 189 -67q112 0 168.5 71.5t56.5 202.5q0 88 -37 138t-100 50h-84l18 86h72q87 0 148 76t61 183q0 139 -125 139q-74 0 -131 -37l-33 82q82 45 178 45q100 0 152.5 -57t52.5 -160q0 -110 -51 -190.5t-144 -114.5l-2 -9q64 -26 91.5 -82.5t27.5 -148.5 q0 -102 -37.5 -185.5t-106 -131t-161.5 -47.5q-136 0 -203 51z"/>
<glyph glyph-name="afii10074" horiz-adv-x="786" unicode="и" d="M123 178q0 79 20 166l158 741h94l-162 -755q-18 -78 -18 -135q0 -123 94 -123q209 0 297 417l127 596h94l-231 -1085h-74l8 135h-4q-101 -155 -239 -155q-164 0 -164 198z"/>
<glyph glyph-name="afii10075" horiz-adv-x="786" unicode="й" d="M380 1450q0 34 6 72h82q-4 -25 -4 -68q0 -66 28.5 -101.5t96.5 -35.5q71 0 113 50.5t67 154.5h86q-35 -146 -99.5 -213.5t-172.5 -67.5q-99 0 -151 56.5t-52 152.5zM123 178q0 79 20 166l158 741h94l-162 -755q-18 -78 -18 -135q0 -123 94 -123q209 0 297 417l127 596h94 l-231 -1085h-74l8 135h-4q-101 -155 -239 -155q-164 0 -164 198z"/>
<glyph glyph-name="afii10076" horiz-adv-x="623" unicode="к" d="M72 0l231 1085h94l-108 -510l375 510h106l-385 -518l178 -567h-104l-172 567l-121 -567h-94z"/>
<glyph glyph-name="afii10077" horiz-adv-x="698" unicode="л" d="M-39 -2v88q18 -6 45 -6q50 0 83 42.5t65.5 136t70.5 257.5q51 225 86 315t78 145t99 84.5t128 29.5q60 0 150 -15l-227 -1075h-95l211 993q-24 6 -55 6q-70 0 -117.5 -47t-83 -136.5t-82.5 -311.5q-41 -187 -83 -298.5t-93 -163.5t-127 -52q-32 0 -53 8z"/>
<glyph glyph-name="afii10078" horiz-adv-x="948" unicode="м" d="M72 0l231 1085h135l3 -794l-7 -176h6q10 26 44 112t370 858h137l-231 -1085h-92l139 651q15 73 67 273h-8l-401 -924h-100l-5 924h-8l-47 -267l-141 -657h-92z"/>
<glyph glyph-name="afii10079" horiz-adv-x="795" unicode="н" d="M72 0l231 1085h94l-100 -475h344l100 475h95l-232 -1085h-94l113 524h-344l-113 -524h-94z"/>
<glyph glyph-name="afii10080" horiz-adv-x="780" unicode="о" d="M217 268q0 -202 135 -202q89 0 164 101.5t122.5 286.5t47.5 357q0 205 -139 205q-84 0 -157.5 -98t-123 -286t-49.5 -364zM119 287q0 142 36 305t94 276.5t136 175.5t174 62q106 0 165.5 -82.5t59.5 -232.5q0 -139 -36.5 -298.5t-95.5 -274t-138 -176.5t-174 -62 q-107 0 -164 80t-57 227z"/>
<glyph glyph-name="afii10081" horiz-adv-x="795" unicode="п" d="M72 0l231 1085h533l-232 -1085h-94l213 999h-344l-213 -999h-94z"/>
<glyph glyph-name="afii10082" horiz-adv-x="803" unicode="р" d="M242 252q0 -186 135 -186q88 0 163.5 103.5t126 299.5t50.5 369q0 91 -26.5 137.5t-94.5 46.5q-94 0 -173 -104.5t-130 -294t-51 -371.5zM-27 -471l330 1556h82l-25 -155h5q114 176 249 176q201 0 201 -283q0 -210 -63 -414.5t-162 -316.5t-217 -112q-68 0 -115 41 t-59 110h-6l-125 -602h-95z"/>
<glyph glyph-name="afii10083" horiz-adv-x="588" unicode="с" d="M119 291q0 217 63 413.5t163 299t224 102.5q86 0 144 -33l-39 -86q-53 29 -113 29q-92 0 -168.5 -97t-126 -277t-49.5 -353q0 -223 160 -223q63 0 143 40v-86q-75 -40 -162 -40q-116 0 -177.5 80t-61.5 231z"/>
<glyph glyph-name="afii10084" horiz-adv-x="1171" unicode="т" d="M72 0l229 1085h80l-25 -151h4q91 172 240 172q73 0 114.5 -36t51.5 -114q51 75 107 112.5t131 37.5q77 0 119 -50t42 -149q0 -57 -14 -121l-166 -786h-94l172 813q10 47 10 84q0 115 -94 115q-82 0 -146 -71.5t-88 -188.5l-157 -752h-94l168 799q12 58 12 98 q0 115 -99 115q-101 0 -168 -96t-114 -320l-127 -596h-94z"/>
<glyph glyph-name="afii10085" horiz-adv-x="588" unicode="у" d="M-158 -387q37 -16 88 -16q54 0 92.5 43.5t94.5 173.5l71 170l-8 1101h94v-639q0 -161 -12 -323h6q53 157 97 264l288 698h99l-562 -1329q-58 -138 -116 -193t-142 -55q-46 0 -90 19v86z"/>
<glyph glyph-name="afii10086" horiz-adv-x="899" unicode="ф" d="M455 66q91 6 168.5 99t128.5 262t51 327q0 124 -35 189t-111 77zM215 338q0 -120 38 -190.5t109 -81.5l203 954q-98 -17 -175 -107t-126 -250.5t-49 -324.5zM119 338q0 193 64 375.5t168 281t237 111.5l90 450h92l-94 -452q223 -28 223 -350q0 -189 -66.5 -379.5 t-170.5 -292t-228 -107.5l-98 -467h-86l100 472q-110 12 -170.5 106t-60.5 252z"/>
<glyph glyph-name="afii10087" horiz-adv-x="608" unicode="х" d="M-27 0l340 571l-92 514h96l70 -434l250 434h100l-327 -538l108 -547h-96l-80 461l-268 -461h-101z"/>
<glyph glyph-name="afii10088" horiz-adv-x="807" unicode="ц" d="M123 178q0 79 20 166l158 741h94l-162 -755q-18 -78 -18 -135q0 -123 94 -123q209 0 297 417l127 596h94l-194 -909l-4 -31q0 -55 63 -55l41 4l-98 -463h-96l75 365q-43 10 -63.5 41t-20.5 98h-4q-101 -155 -239 -155q-164 0 -164 198z"/>
<glyph glyph-name="afii10089" horiz-adv-x="776" unicode="ч" d="M180 561q0 46 13 98l90 426h94l-96 -448q-7 -32 -7 -59q0 -117 105 -117q213 0 289 362l55 262h94l-231 -1085h-94l110 510q-43 -61 -111 -99t-143 -38t-121.5 47t-46.5 141z"/>
<glyph glyph-name="afii10090" horiz-adv-x="1182" unicode="ш" d="M123 178q0 79 20 166l158 741h94l-162 -755q-18 -78 -18 -135q0 -123 94 -123q89 0 149.5 83.5t108.5 290.5l138 639h94l-162 -755q-19 -82 -19 -135q0 -123 95 -123q98 0 160 98t108 319l127 596h94l-233 -1085h-74l8 117h-4q-49 -74 -96 -105.5t-113 -31.5 q-138 0 -162 145q-54 -74 -109.5 -109.5t-131.5 -35.5q-164 0 -164 198z"/>
<glyph glyph-name="afii10091" horiz-adv-x="1182" unicode="щ" d="M123 178q0 79 20 166l158 741h94l-162 -755q-18 -78 -18 -135q0 -123 94 -123q89 0 149.5 83.5t108.5 290.5l138 639h94l-162 -755q-19 -82 -19 -135q0 -123 95 -123q98 0 160 98t108 319l127 596h94l-194 -909l-4 -31q0 -55 63 -55l41 4l-98 -463h-97l76 365 q-31 7 -48.5 20t-25.5 33t-10 68h-4q-45 -71 -94 -104t-117 -33q-138 0 -162 145q-54 -74 -109.5 -109.5t-131.5 -35.5q-164 0 -164 198z"/>
<glyph glyph-name="afii10092" horiz-adv-x="801" unicode="ъ" d="M309 213q0 -152 131 -152q91 0 147 70.5t56 187.5q0 193 -160 193q-41 0 -118 -8l-39 -166q-17 -66 -17 -125zM160 999l18 86h303l-100 -493q50 6 115 6q241 -5 241 -272q0 -151 -84.5 -248.5t-216.5 -97.5q-221 0 -221 227q0 71 16 141l140 651h-211z"/>
<glyph glyph-name="afii10093" horiz-adv-x="1004" unicode="ы" d="M717 0l231 1085h96l-231 -1085h-96zM223 213q0 -152 131 -152q88 0 145.5 72.5t57.5 185.5q0 193 -160 193q-44 0 -121 -8l-36 -166q-17 -66 -17 -125zM129 207q0 71 16 141l158 737h94l-104 -493q50 6 117 6q241 -5 241 -272q0 -146 -86 -246t-215 -100q-221 0 -221 227 z"/>
<glyph glyph-name="afii10094" horiz-adv-x="707" unicode="ь" d="M223 213q0 -152 131 -152q92 0 150.5 70.5t58.5 187.5q0 193 -160 193q-47 0 -124 -8l-39 -166q-17 -66 -17 -125zM129 207q0 71 16 141l158 737h94l-104 -493q49 6 123 6q241 -5 241 -272q0 -150 -87.5 -248t-219.5 -98q-221 0 -221 227z"/>
<glyph glyph-name="afii10095" horiz-adv-x="614" unicode="э" d="M2 6v94q67 -30 139 -30q130 0 216 106t135 348h-265l19 86h258q18 108 18 189q0 217 -168 217q-69 0 -131 -35l-20 84q85 41 178 41q112 0 173.5 -76t61.5 -219q0 -232 -59 -428t-162 -299.5t-239 -103.5q-81 0 -154 26z"/>
<glyph glyph-name="afii10096" horiz-adv-x="1057" unicode="ю" d="M520 264q0 -99 29 -148.5t94 -49.5q85 0 157.5 102t120.5 289.5t48 353.5q0 109 -30.5 157t-92.5 48q-85 0 -157.5 -102.5t-120.5 -292t-48 -357.5zM72 0l231 1085h92l-100 -475h180q56 239 152.5 367.5t226.5 128.5q207 0 207 -295q0 -200 -58 -401.5t-154 -315.5 t-206 -114q-215 0 -215 286q0 122 29 258h-181l-112 -524h-92z"/>
<glyph glyph-name="afii10097" horiz-adv-x="717" unicode="я" d="M279 727q0 -82 43 -122t139 -40h92l92 434h-115q-117 0 -184 -72t-67 -200zM-29 0v82q13 -6 45 -6q74 2 122 127q54 143 77 188.5t47.5 77t48.5 41.5q-131 47 -131 225q0 158 98.5 254t268.5 96h211l-232 -1085h-94l103 479h-99q-37 0 -65 -21t-51.5 -58.5t-69.5 -153.5 l-38 -96q-31 -78 -74 -116t-107 -40q-32 0 -60 6z"/>
<glyph glyph-name="uni0450" horiz-adv-x="723" unicode="ѐ" d="M445 1552v17h127q26 -156 84 -309v-19h-39q-48 57 -101.5 151t-70.5 160zM250 588q399 0 399 317q0 53 -22.5 83t-81.5 30q-89 0 -169 -118t-126 -312zM119 297q0 214 60.5 401.5t164 297.5t217.5 110q87 0 134.5 -50.5t47.5 -152.5q0 -123 -59.5 -215t-170 -137 t-263.5 -45h-12q-21 -99 -21 -199q0 -241 184 -241q47 0 88.5 13t94.5 44v-96q-84 -47 -211 -47q-120 0 -187 83.5t-67 233.5z"/>
<glyph glyph-name="afii10071" horiz-adv-x="723" unicode="ё" d="M679 1362q0 49 23 81t59 32q47 0 47 -58q0 -53 -21.5 -86t-58.5 -33q-49 0 -49 64zM407 1362q0 49 22.5 81t59.5 32q47 0 47 -58q0 -53 -21.5 -86t-58.5 -33q-49 0 -49 64zM250 588q399 0 399 317q0 53 -22.5 83t-81.5 30q-89 0 -169 -118t-126 -312zM119 297 q0 214 60.5 401.5t164 297.5t217.5 110q87 0 134.5 -50.5t47.5 -152.5q0 -123 -59.5 -215t-170 -137t-263.5 -45h-12q-21 -99 -21 -199q0 -241 184 -241q47 0 88.5 13t94.5 44v-96q-84 -47 -211 -47q-120 0 -187 83.5t-67 233.5z"/>
<glyph glyph-name="afii10099" horiz-adv-x="782" unicode="ђ" d="M74 0l268 1270h-104l16 84h106l43 202h95l-45 -202h227l-16 -84h-230l-35 -168l-41 -168h4q93 172 242 172q84 0 130 -48.5t46 -139.5q0 -56 -14 -121l-188 -885q-36 -165 -67.5 -242.5t-73.5 -110t-115 -32.5q-55 0 -89 10v92q37 -12 84 -12t73 26.5t47.5 88.5t47.5 186 l191 897q10 40 10 84q0 113 -100 113q-105 0 -176 -101t-115 -315l-127 -596h-94z"/>
<glyph glyph-name="afii10100" horiz-adv-x="584" unicode="ѓ" d="M421 1241v16q154 186 223 312h139v-17q-42 -63 -136 -156t-175 -155h-51zM55 225q0 90 27 154.5t74 114t176 127.5q97 58 134.5 94t58 79.5t20.5 102.5q0 57 -31.5 88t-91.5 31q-51 0 -93.5 -16t-84.5 -39l-27 81q105 64 213 64q97 0 153 -53t56 -152q0 -74 -25 -131 t-69.5 -102t-155.5 -113q-46 -29 -89 -57t-76.5 -65t-53.5 -86.5t-20 -121.5q0 -77 40 -117t115 -40q59 0 103 21t79 46v-102q-90 -53 -196 -53q-108 0 -172 65t-64 180z"/>
<glyph glyph-name="afii10101" horiz-adv-x="618" unicode="є" d="M119 279q0 217 63 416.5t163 305t224 105.5q86 0 144 -33l-39 -86q-53 29 -113 29q-98 0 -177.5 -107t-125.5 -299h258l-18 -86h-258q-23 -115 -23 -243q0 -116 37.5 -165.5t110.5 -49.5q75 0 155 40v-86q-30 -17 -81 -28.5t-91 -11.5q-106 0 -167.5 72.5t-61.5 226.5z "/>
<glyph glyph-name="afii10102" horiz-adv-x="594" unicode="ѕ" d="M29 25v110q24 -24 80.5 -44.5t113.5 -20.5q97 0 151 56.5t54 160.5q0 44 -11 80.5t-28.5 67.5t-77.5 97q-65 71 -88 107.5t-36 78.5t-13 97q0 130 80 210.5t207 80.5q136 0 219 -62l-51 -86q-71 58 -172 58q-82 0 -135.5 -51.5t-53.5 -137.5q0 -59 21.5 -107t81.5 -114 q72 -78 97.5 -118t40.5 -87t15 -104q0 -152 -76.5 -234.5t-218.5 -82.5q-56 0 -117 14t-83 31z"/>
<glyph glyph-name="afii10103" horiz-adv-x="348" unicode="і" d="M346 1356q0 51 23 88t59 37q47 0 47 -58q0 -57 -22 -94t-58 -37q-49 0 -49 64zM68 0l231 1085h94l-231 -1085h-94z"/>
<glyph glyph-name="afii10104" horiz-adv-x="348" unicode="ї" d="M464 1362q0 49 23 81t59 32q47 0 47 -58q0 -53 -21.5 -86t-58.5 -33q-49 0 -49 64zM192 1362q0 49 22.5 81t59.5 32q47 0 47 -58q0 -53 -21.5 -86t-58.5 -33q-49 0 -49 64zM68 0l231 1085h94l-231 -1085h-94z"/>
<glyph glyph-name="afii10105" horiz-adv-x="348" unicode="ј" d="M346 1356q0 51 23 88t59 37q47 0 47 -58q0 -57 -22 -94t-58 -37q-49 0 -49 64zM-205 -389q37 -12 84 -12t73 26.5t47.5 88.5t47.5 186l252 1185h94l-254 -1191q-34 -160 -65 -238t-73.5 -113t-117.5 -35q-51 0 -88 11v92z"/>
<glyph glyph-name="afii10106" horiz-adv-x="1028" unicode="љ" d="M573 213q0 -82 28 -117t89 -35q92 0 150.5 70.5t58.5 187.5q0 193 -160 193q-33 0 -110 -8l-39 -166q-17 -68 -17 -125zM-39 -2v88q18 -6 45 -6q50 0 83 42.5t65.5 136t70.5 257.5q51 225 86 315t78 145t99 84.5t128 29.5q26 0 68 -5t61 -10l-102 -483q50 6 109 6 q241 -5 241 -272q0 -150 -87.5 -248t-219.5 -98q-104 0 -155.5 52.5t-51.5 174.5q0 68 17 141l139 647q-10 4 -35 4q-70 0 -117.5 -47t-83 -136.5t-82.5 -311.5q-41 -187 -83 -298.5t-93 -163.5t-127 -52q-32 0 -53 8z"/>
<glyph glyph-name="afii10107" horiz-adv-x="1133" unicode="њ" d="M649 213q0 -152 127 -152q91 0 145 70t54 188q0 95 -39 147t-119 52q-33 0 -110 -8l-41 -172q-17 -66 -17 -125zM72 0l231 1085h94l-100 -475h330l102 475h94l-102 -487q50 6 108 6q121 -3 180.5 -75.5t59.5 -202.5q0 -149 -83.5 -247.5t-215.5 -98.5q-215 0 -215 227 q0 71 16 141l37 176h-329l-113 -524h-94z"/>
<glyph glyph-name="afii10108" horiz-adv-x="782" unicode="ћ" d="M74 0l270 1278h-131l16 84h131l43 194h95l-43 -194h200l-16 -84h-203l-37 -176l-41 -168h4q93 172 242 172q84 0 130 -48.5t46 -139.5q0 -56 -14 -121l-168 -797h-94l172 815q10 40 10 84q0 113 -100 113q-105 0 -176 -101t-115 -315l-127 -596h-94z"/>
<glyph glyph-name="afii10109" horiz-adv-x="623" unicode="ќ" d="M464 1241v16q154 186 223 312h139v-17q-42 -63 -136 -156t-175 -155h-51zM72 0l231 1085h94l-108 -510l375 510h106l-385 -518l178 -567h-104l-172 567l-121 -567h-94z"/>
<glyph glyph-name="uni045D" horiz-adv-x="795" unicode="ѝ" d="M379 1552v17h127q26 -156 84 -309v-19h-39q-48 57 -101.5 151t-70.5 160z"/>
<glyph glyph-name="afii10110" horiz-adv-x="588" unicode="ў" d="M294 1450q0 34 6 72h82q-4 -25 -4 -68q0 -66 28.5 -101.5t96.5 -35.5q71 0 113 50.5t67 154.5h86q-35 -146 -99.5 -213.5t-172.5 -67.5q-99 0 -151 56.5t-52 152.5zM-158 -387q37 -16 88 -16q54 0 92.5 43.5t94.5 173.5l71 170l-8 1101h94v-639q0 -161 -12 -323h6 q53 157 97 264l288 698h99l-562 -1329q-58 -138 -116 -193t-142 -55q-46 0 -90 19v86z"/>
<glyph glyph-name="afii10193" horiz-adv-x="782" unicode="џ" d="M184 -473l109 364l78 37h14l-106 -401h-95zM123 178q0 79 20 166l158 741h94l-162 -755q-18 -78 -18 -135q0 -123 94 -123q209 0 297 417l127 596h94l-231 -1085h-74l8 135h-4q-101 -155 -239 -155q-164 0 -164 198z"/>
<glyph glyph-name="uni0460" horiz-adv-x="1262" unicode="Ѡ" d="M133 367q0 255 78.5 535.5t193 431.5t240.5 151q104 0 166 -51l-57 -82q-39 39 -111 39q-101 0 -194 -152t-155.5 -411t-62.5 -468q0 -147 40.5 -216.5t103.5 -69.5q142 0 176 164l82 389h98l-76 -351q-2 -6 -9.5 -46.5t-4.5 -41.5q0 -58 35.5 -86t95.5 -28 q101 0 195.5 151t153.5 400.5t59 492.5q0 273 -138 273q-44 0 -74 -13t-53 -26l-28 84q91 49 172 49q106 0 162.5 -94t56.5 -281q0 -286 -69.5 -553.5t-186.5 -422t-252 -154.5t-192 86q-47 -44 -98 -65t-118 -21q-110 0 -169.5 100t-59.5 287z"/>
<glyph glyph-name="uni0461" horiz-adv-x="1044" unicode="ѡ" d="M188 0l11 1085h94l-8 -571q-6 -207 -15 -377h6l310 525l8 423h94q-25 -876 -31 -962h9q146 206 243.5 435t161.5 527h94q-69 -330 -187.5 -589t-313.5 -496h-95l17 512l-303 -512h-95z"/>
<glyph glyph-name="afii10146" horiz-adv-x="860" unicode="Ѣ" d="M252 90h135q154 0 239 108.5t85 299.5q0 115 -61.5 170t-188.5 55h-74zM135 0l242 1155h-201l17 82h202l68 319h98l-67 -319h221l-19 -82h-219l-71 -342h79q160 0 244 -80t84 -233q0 -230 -119.5 -365t-326.5 -135h-232z"/>
<glyph glyph-name="afii10194" horiz-adv-x="707" unicode="ѣ" d="M209 213q0 -152 131 -152q92 0 150.5 70.5t58.5 187.5q0 193 -160 193q-48 0 -125 -8l-39 -166q-16 -64 -16 -125zM115 207q0 71 16 141l141 656h-129l19 81h129l51 234h94l-51 -234h152l-19 -81h-151l-88 -412q48 6 122 6q242 -5 242 -272q0 -150 -87.5 -248t-219.5 -98 q-221 0 -221 227z"/>
<glyph glyph-name="uni0464" horiz-adv-x="1124" unicode="Ѥ" d="M66 0l309 1462h98l-137 -649h196q48 196 135.5 351t200 238t236.5 83t196 -62l-61 -86q-60 52 -145 52q-146 0 -270.5 -157.5t-190.5 -418.5h414l-21 -94h-414q-24 -132 -24 -252q0 -208 51 -301.5t164 -93.5q98 0 176 39l16 -91q-84 -40 -215 -40q-138 0 -214.5 114.5 t-76.5 354.5q0 128 25 270h-199l-151 -719h-98z"/>
<glyph glyph-name="uni0465" horiz-adv-x="930" unicode="ѥ" d="M72 0l231 1085h94l-100 -475h170q57 236 165.5 366t246.5 130q85 0 143 -33l-39 -86q-53 29 -113 29q-98 0 -177.5 -107t-125.5 -299h258l-18 -86h-258q-23 -115 -23 -243q0 -116 38 -165.5t110 -49.5q37 0 81.5 12t73.5 28v-86q-28 -16 -77.5 -28t-94.5 -12 q-106 0 -167.5 72.5t-61.5 226.5q0 113 23 245h-172l-113 -524h-94z"/>
<glyph glyph-name="uni0466" horiz-adv-x="805" unicode="Ѧ" d="M387 813h215v420l2 102q-20 -61 -36.5 -101t-180.5 -421zM-76 0l660 1462h94l49 -1462h-98l-23 719h-80l-151 -719h-99l152 719h-84l-321 -719h-99z"/>
<glyph glyph-name="uni0467" horiz-adv-x="700" unicode="ѧ" d="M338 610h166l-3 220q0 118 5 155h-8l-16 -42q-19 -49 -37 -93t-107 -240zM-49 0l522 1085h98l60 -1085h-94l-27 524h-61l-113 -524h-92l112 524h-61l-248 -524h-96z"/>
<glyph glyph-name="uni0468" horiz-adv-x="1155" unicode="Ѩ" d="M737 813h215v420l2 102q-20 -61 -36.5 -101t-180.5 -421zM66 0l309 1462h98l-137 -649h305l293 649h94l49 -1462h-98l-23 719h-79l-152 -719h-98l151 719h-84l-321 -719h-99l324 719h-283l-151 -719h-98z"/>
<glyph glyph-name="uni0469" horiz-adv-x="1014" unicode="ѩ" d="M651 610h166l-3 220q0 118 5 155h-8q-8 -23 -33 -87.5t-45.5 -109.5t-81.5 -178zM72 0l231 1085h94l-100 -475h260l229 475h99l59 -1085h-94l-27 524h-61l-113 -524h-92l113 524h-62l-248 -524h-96l252 524h-237l-113 -524h-94z"/>
<glyph glyph-name="uni046A" horiz-adv-x="909" unicode="Ѫ" d="M426 1368l135 -520l352 520h-487zM-61 0l200 489q63 158 105.5 220t94.5 91t130 31l-147 545l18 86h702l-18 -86l-373 -545q73 -13 111 -41t55 -79.5t17 -193.5l-7 -517h-94l8 508q0 108 -13.5 153t-44 63.5t-87.5 18.5h-8l-158 -743h-98l157 743h-10q-87 0 -134 -51 t-109 -209l-195 -483h-102z"/>
<glyph glyph-name="uni046B" horiz-adv-x="864" unicode="ѫ" d="M377 999l133 -358l272 358h-405zM-43 0l182 397q47 106 80 145t81 62.5t120 26.5l-148 383l15 71h628l-10 -71l-305 -383q59 -6 93.5 -33.5t52.5 -74t24.5 -157.5t20.5 -366h-93l-18 354q-7 122 -32.5 156.5t-96.5 34.5h-16l-115 -545h-94l116 545h-18q-42 0 -71 -12 t-53 -38t-50 -75.5t-197 -419.5h-96z"/>
<glyph glyph-name="uni046C" horiz-adv-x="1286" unicode="Ѭ" d="M799 1368l131 -537l356 537h-487zM66 0l309 1462h98l-137 -647h502l-144 561l19 86h702l-18 -86l-377 -561q77 -14 115 -40.5t54.5 -77t16.5 -183.5l-6 -514h-94l8 506q0 102 -13 144t-43 59.5t-93 17.5h-9l-153 -727h-98l153 727h-10q-64 0 -99 -18.5t-64.5 -64.5 t-76.5 -161l-194 -483h-103l201 489q43 107 58.5 136.5t32.5 51t40 40.5h-328l-151 -717h-98z"/>
<glyph glyph-name="uni046D" horiz-adv-x="1196" unicode="ѭ" d="M707 999l129 -378l276 378h-405zM72 0l231 1085h94l-100 -475h448l-143 404l14 71h629l-10 -71l-309 -404q59 -6 95.5 -34.5t55 -75.5t25.5 -152l18 -348h-92l-16 334q-7 117 -34.5 153.5t-100.5 36.5h-17l-110 -524h-95l113 524h-18q-74 0 -114.5 -32t-92.5 -146 l-160 -346h-96l182 397q40 92 80 127h-270l-113 -524h-94z"/>
<glyph glyph-name="uni046E" horiz-adv-x="731" unicode="Ѯ" d="M-57 -178q0 72 25.5 117t68 73t96.5 44t111 30q125 31 182 73.5t87 113t30 176.5q0 131 -56.5 196.5t-162.5 65.5h-105l19 94h100q147 0 246.5 111t99.5 278q0 94 -41.5 144.5t-122.5 50.5q-62 0 -109 -18.5t-116 -72.5l-47 82q97 84 221 99q-31 133 -84 235l4 17h74 q44 -72 90 -222q63 120 110 168.5t95 48.5q29 0 47 -6v-88q-16 8 -39 8q-29 0 -61 -32.5t-91 -139.5q80 -25 124 -94t44 -168q0 -172 -83.5 -290.5t-223.5 -151.5l-2 -6q170 -63 170 -295q0 -99 -20 -173t-58.5 -128t-101 -91.5t-189.5 -70.5q-101 -26 -143 -48.5t-64 -54 t-22 -75.5q0 -105 117 -105q43 0 81 7.5t83 7.5t82 -8v-101q-47 15 -93 15q-45 0 -87.5 -8.5t-80.5 -8.5q-100 0 -152 55t-52 146z"/>
<glyph glyph-name="uni046F" horiz-adv-x="580" unicode="ѯ" d="M-45 -145q0 84 47.5 137.5t167.5 87.5q52 15 98 29.5t80 41t54 71.5t20 122q0 88 -37 138t-100 50h-84l18 86h72q87 0 148 76t61 183q0 139 -125 139q-42 0 -70.5 -10.5t-60.5 -30.5l-27 82q63 35 123 45q-15 76 -74 233v17h70q50 -82 88 -222q57 99 110.5 158.5 t110.5 59.5q23 0 39 -9v-86q-13 9 -31 9q-70 -3 -170 -170q53 -20 82 -71.5t29 -131.5q0 -110 -51 -188.5t-144 -112.5l-2 -8q61 -25 90 -82t29 -154q0 -71 -16.5 -124.5t-46.5 -91.5t-79.5 -67t-176.5 -65q-87 -24 -118.5 -54.5t-31.5 -80.5q0 -94 107 -94q35 0 70 5t61 5 q50 0 80 -8v-93q-26 11 -84 11q-29 0 -64 -5.5t-74 -5.5q-88 0 -138 47t-50 132z"/>
<glyph glyph-name="uni0470" horiz-adv-x="1047" unicode="Ѱ" d="M215 756q0 105 31 248l96 458h98l-96 -456q-31 -151 -31 -242q0 -116 46.5 -167.5t146.5 -51.5l194 917h99l-195 -917q102 0 164 42.5t106.5 139.5t83.5 279l97 456h98l-102 -489q-39 -189 -99.5 -303t-146 -166.5t-221.5 -52.5l-95 -451h-98l94 451q-146 11 -208 84.5 t-62 220.5z"/>
<glyph glyph-name="uni0471" horiz-adv-x="879" unicode="ѱ" d="M121 260q0 97 33 252l122 573h95l-121 -565q-31 -140 -31 -248q0 -97 31 -147t96 -57l316 1488h94l-316 -1488q98 0 179 122.5t133.5 360.5t52.5 481v53h94v-67q0 -280 -64 -534t-170 -380.5t-243 -126.5l-100 -469h-95l101 472q-106 15 -156.5 82.5t-50.5 197.5z"/>
<glyph glyph-name="afii10147" horiz-adv-x="958" unicode="Ѳ" d="M283 793h567q29 172 29 307q0 289 -187 289q-136 0 -241.5 -154.5t-167.5 -441.5zM233 377q0 -303 187 -303q136 0 244.5 171t166.5 453h-567q-31 -188 -31 -321zM135 379q0 196 46 414t124.5 376.5t178.5 236t218 77.5q275 0 275 -383q0 -284 -80 -557t-207 -418 t-278 -145q-277 0 -277 399z"/>
<glyph glyph-name="afii10195" horiz-adv-x="766" unicode="ѳ" d="M260 610h410q16 108 16 201q0 205 -139 205q-89 0 -164.5 -105.5t-122.5 -300.5zM217 268q0 -202 135 -202q98 0 177 121t124 337h-411q-25 -133 -25 -256zM119 287q0 142 36 305t94 276.5t136 175.5t174 62q106 0 165.5 -82.5t59.5 -232.5q0 -139 -36.5 -298.5 t-95.5 -274t-138 -176.5t-174 -62q-107 0 -164 80t-57 227z"/>
<glyph glyph-name="afii10148" horiz-adv-x="799" unicode="Ѵ" d="M231 0v1462h99v-909q0 -167 -23 -432q50 153 125 334l303 727q50 120 87.5 182t74.5 87.5t100 25.5q36 0 62 -15v-90q-27 14 -60 14q-49 0 -86 -49t-94 -186l-479 -1151h-109z"/>
<glyph glyph-name="afii10196" horiz-adv-x="659" unicode="ѵ" d="M178 0v1085h94v-659q0 -38 -4.5 -141.5t-11.5 -161.5h6q21 61 50.5 138t62.5 157.5t132 318.5t149.5 301.5t122.5 63.5h7q38 0 64 -15v-86q-26 15 -62 15q-31 0 -52 -19t-50 -71t-70 -146l-325 -780h-113z"/>
<glyph glyph-name="uni0476" horiz-adv-x="799" unicode="Ѷ" d="M596 1890l2 17h114q39 -206 88 -307l-6 -21h-47q-41 48 -85.5 141.5t-65.5 169.5zM356 1890l2 17h115q15 -88 39.5 -173t48.5 -134l-6 -21h-47q-38 46 -84 138t-68 173zM231 0v1462h99v-909q0 -167 -23 -432q50 153 125 334l303 727q50 120 87.5 182t74.5 87.5t100 25.5 q36 0 62 -15v-90q-27 14 -60 14q-49 0 -86 -49t-94 -186l-479 -1151h-109z"/>
<glyph glyph-name="uni0477" horiz-adv-x="659" unicode="ѷ" d="M478 1552l2 17h114q39 -206 88 -307l-6 -21h-47q-41 48 -85.5 141.5t-65.5 169.5zM238 1552l2 17h115q15 -88 39.5 -173t48.5 -134l-6 -21h-47q-38 46 -84 138t-68 173zM178 0v1085h94v-659q0 -38 -4.5 -141.5t-11.5 -161.5h6q21 61 50.5 138t62.5 157.5t132 318.5 t149.5 301.5t122.5 63.5h7q38 0 64 -15v-86q-26 15 -62 15q-31 0 -52 -19t-50 -71t-70 -146l-325 -780h-113z"/>
<glyph glyph-name="uni0478" horiz-adv-x="1546" unicode="Ѹ" d="M800 -387q37 -16 88 -16q54 0 92.5 43.5t94.5 173.5l71 170l-8 1101h94v-639q0 -161 -12 -323h6q53 157 97 264l288 698h99l-562 -1329q-58 -138 -116 -193t-142 -55q-46 0 -90 19v86zM233 377q0 -303 187 -303q92 0 173.5 80.5t144.5 230t102 349.5t39 366 q0 289 -187 289q-91 0 -171.5 -73.5t-144.5 -220.5t-103.5 -350t-39.5 -368zM135 379q0 196 46 414t124.5 376.5t178.5 236t218 77.5q275 0 275 -383q0 -284 -80 -557t-207 -418t-278 -145q-277 0 -277 399z"/>
<glyph glyph-name="uni0479" horiz-adv-x="1352" unicode="ѹ" d="M606 -387q37 -16 88 -16q54 0 92.5 43.5t94.5 173.5l71 170l-8 1101h94v-639q0 -161 -12 -323h6q53 157 97 264l288 698h99l-562 -1329q-58 -138 -116 -193t-142 -55q-46 0 -90 19v86zM217 268q0 -202 135 -202q89 0 164 101.5t122.5 286.5t47.5 357q0 205 -139 205 q-84 0 -157.5 -98t-123 -286t-49.5 -364zM119 287q0 142 36 305t94 276.5t136 175.5t174 62q106 0 165.5 -82.5t59.5 -232.5q0 -139 -36.5 -298.5t-95.5 -274t-138 -176.5t-174 -62q-107 0 -164 80t-57 227z"/>
<glyph glyph-name="uni047A" horiz-adv-x="1051" unicode="Ѻ" d="M233 377q0 -277 160 -299q11 45 34 66.5t48 21.5t40.5 -19t15.5 -52l-1 -17q119 11 219 159t161 401t61 462q0 269 -162 286q-11 -48 -34 -69t-48 -21t-40 18t-15 75q-119 -11 -215 -145.5t-160 -385.5t-64 -481zM135 379q0 270 71 538.5t195.5 413.5t288.5 152 q23 73 82 73q57 0 57 -70v-5q240 -33 240 -381q0 -282 -76.5 -549t-202.5 -416t-278 -155q-15 -45 -33 -59.5t-43 -14.5t-42 16t-17 52v8q-242 24 -242 397z"/>
<glyph glyph-name="uni047B" horiz-adv-x="846" unicode="ѻ" d="M211 268q0 -170 96 -198q29 94 86 94q62 0 62 -72l-2 -24q79 19 146 125t109 282t42 336q0 172 -99 201q-30 -94 -86 -94q-26 0 -41.5 21t-15.5 52l2 23q-77 -19 -142.5 -121t-111 -281t-45.5 -344zM113 287q0 136 33.5 294t89.5 272.5t131.5 180t167.5 72.5 q13 41 31 55.5t46 14.5q54 0 54 -62v-12q90 -18 136 -100t46 -211q0 -190 -57.5 -386.5t-149 -302t-205.5 -114.5q-28 -82 -84 -82q-27 0 -43.5 17.5t-16.5 48.5l1 14q-89 16 -134.5 92t-45.5 209z"/>
<glyph glyph-name="uni047C" horiz-adv-x="1296" unicode="Ѽ" d="M799 1554v56q55 14 91 48.5t36 74.5q0 16 -9 24t-19.5 15.5t-19 19t-8.5 35.5q0 31 21.5 50t52.5 19q38 0 56 -25.5t18 -64.5q0 -90 -59 -157t-160 -95zM707 1892q23 108 70.5 153.5t127.5 45.5q40 0 78.5 -14t88.5 -46q50 -33 89 -47t78 -14v-78h-25q-86 0 -173 61 q-50 34 -79.5 47t-58.5 13q-46 0 -72 -30.5t-38 -90.5h-86zM137 367q0 255 78.5 535.5t193 431.5t240.5 151q104 0 166 -51l-57 -82q-39 39 -111 39q-100 0 -193 -152.5t-155.5 -410t-62.5 -468.5q0 -147 40.5 -216.5t106.5 -69.5q71 0 119.5 37.5t93.5 119.5 q26 -87 62 -122t100 -35q102 0 201 152.5t162 404.5t63 487q0 133 -34.5 203t-102.5 70q-63 0 -127 -39l-29 84q91 49 172 49q106 0 162.5 -94t56.5 -281q0 -280 -77.5 -548.5t-200 -425t-252.5 -156.5q-128 0 -187 86q-51 -48 -95 -67t-103 -19q-110 0 -170 100t-60 287z "/>
<glyph glyph-name="uni047D" horiz-adv-x="1014" unicode="ѽ" d="M590 1227l10 55q57 19 92 50t35 71q0 22 -27 40q-28 18 -28 42q0 33 22 58.5t54 25.5q30 0 46.5 -22.5t16.5 -59.5q0 -85 -53 -155t-168 -105zM514 1565q41 198 188 198q74 0 156 -51q57 -37 99 -53.5t90 -16.5l-17 -77h-8q-44 0 -92 16.5t-111 56.5q-75 48 -119 48 q-47 0 -71.5 -29t-36.5 -92h-78zM68 240q0 166 59 396t148 350t200 120q65 0 119 -43l-47 -82q-35 35 -80 35q-83 0 -147 -108.5t-113 -316.5t-49 -339q0 -186 92 -186q54 0 104.5 36.5t100.5 92.5q24 -54 60.5 -91.5t82.5 -37.5q73 0 138.5 110t114 319.5t48.5 335.5 q0 185 -106 185q-48 0 -99 -35l-8 82q67 43 135 43q166 0 166 -264q0 -173 -59.5 -399.5t-145 -344.5t-190.5 -118q-51 0 -90 22t-74 72q-94 -94 -205 -94q-155 0 -155 260z"/>
<glyph glyph-name="uni047E" horiz-adv-x="1262" unicode="Ѿ" d="M608 1749v27h543v-27l-82 -152h-16l-19 97h-127l-51 -97h-16l-19 97h-127l-45 -97h-16zM133 367q0 255 78.5 535.5t193 431.5t240.5 151q104 0 166 -51l-57 -82q-39 39 -111 39q-101 0 -194 -152t-155.5 -411t-62.5 -468q0 -147 40.5 -216.5t103.5 -69.5q142 0 176 164 l82 389h98l-84 -389q-7 -32 -7 -58q0 -39 21 -72.5t93 -33.5q102 0 201 152.5t162 404.5t63 487q0 273 -138 273q-44 0 -74 -13t-53 -26l-28 84q91 49 172 49q106 0 162.5 -94t56.5 -281q0 -280 -77.5 -548.5t-200 -425t-252.5 -156.5q-128 0 -187 86q-52 -50 -97.5 -68 t-101.5 -18q-110 0 -169.5 100t-59.5 287z"/>
<glyph glyph-name="uni047F" horiz-adv-x="1044" unicode="ѿ" d="M418 1395v26h543v-26l-82 -152h-17l-18 96h-127l-51 -96h-17l-18 96h-127l-45 -96h-17zM188 0l11 1085h94l-8 -571q-6 -207 -15 -377h6l310 525l8 423h94q-25 -876 -31 -962h9q146 206 243.5 435t161.5 527h94q-69 -330 -187.5 -589t-313.5 -496h-95l17 512l-303 -512 h-95z"/>
<glyph glyph-name="uni0480" horiz-adv-x="760" unicode="Ҁ" d="M141 449q0 256 85.5 504.5t226 390t303.5 141.5q122 0 196 -62l-61 -86q-60 52 -146 52q-126 0 -240 -124t-189.5 -350.5t-75.5 -447.5q0 -208 51 -301.5t164 -93.5q87 0 149 32l-127 -596h-100l102 478q-22 -6 -47 -6q-138 0 -214.5 114.5t-76.5 354.5z"/>
<glyph glyph-name="uni0481" horiz-adv-x="586" unicode="ҁ" d="M115 279q0 217 63 416.5t163 305t224 105.5q86 0 144 -33l-39 -86q-53 29 -113 29q-92 0 -168.5 -98.5t-126 -280.5t-49.5 -356q0 -215 154 -215q66 0 118 24l-123 -582h-96l101 472q-252 0 -252 299z"/>
<glyph glyph-name="uni0482" horiz-adv-x="831" unicode="҂" d="M84 446l37 84l196 -94l228 443l-197 94l37 84l203 -96l168 327l86 -37l-170 -329l194 -93l-37 -84l-200 95l-228 -443l201 -94l-37 -84l-207 96l-161 -315l-84 41l161 315z"/>
<glyph glyph-name="uni0483" horiz-adv-x="1001" unicode="҃" d="M414 1255q0 41 21.5 66t58.5 25h256q0 37 17.5 60.5t45.5 23.5q22 0 41.5 -15.5t19.5 -52.5q0 -42 -22 -66t-57 -24h-256q0 -37 -17.5 -60.5t-46.5 -23.5q-22 0 -41.5 15t-19.5 52z"/>
<glyph glyph-name="uni0484" horiz-adv-x="1014" unicode="҄" d="M362 1257v78q65 0 114.5 19t93.5 41.5t88.5 41.5t99.5 19q68 0 99.5 -35t31.5 -94q0 -25 -8 -70h-86q6 31 6 54q0 67 -64 67q-32 0 -68 -19t-80.5 -41.5t-100 -41.5t-126.5 -19z"/>
<glyph glyph-name="uni0485" horiz-adv-x="1063" unicode="҅" d="M598 1452q0 66 28 101.5t76 35.5q35 0 53.5 -17.5t18.5 -45.5q0 -33 -15.5 -46.5t-34.5 -22.5t-34.5 -21t-15.5 -41q0 -31 30.5 -57t79.5 -35v-56q-89 14 -137.5 68t-48.5 137z"/>
<glyph glyph-name="uni0486" horiz-adv-x="1063" unicode="҆" d="M598 1247v56q48 9 79.5 34.5t31.5 57.5q0 22 -11.5 36t-38.5 26q-51 20 -51 69q0 28 19 45.5t53 17.5q48 0 76 -35.5t28 -101.5q0 -82 -48 -136t-138 -69z"/>
<glyph glyph-name="uni0488" horiz-adv-x="1927" unicode="҈" d="M1485 457q3 89 56 141.5t149 52.5q187 0 196 -194h-67q-15 110 -133 110q-59 0 -91.5 -25.5t-42.5 -84.5h-67zM1294 946q3 90 56 142.5t149 52.5q188 0 197 -195h-68q-15 111 -133 111q-59 0 -91.5 -26t-41.5 -85h-68zM1294 -41q3 90 56 142.5t149 52.5q188 0 197 -195 h-68q-15 111 -133 111q-59 0 -91.5 -26t-41.5 -85h-68zM754 1231q3 90 55.5 142t148.5 52q188 0 197 -194h-68q-15 110 -133 110q-58 0 -90.5 -25.5t-42.5 -84.5h-67zM754 -319q3 89 55.5 141.5t148.5 52.5q188 0 197 -194h-68q-15 110 -133 110q-58 0 -90.5 -26t-42.5 -84 h-67zM229 946q3 90 56 142.5t149 52.5q188 0 197 -195h-68q-15 111 -133 111q-59 0 -91.5 -26t-41.5 -85h-68zM229 -41q3 90 56 142.5t149 52.5q188 0 197 -195h-68q-15 111 -133 111q-59 0 -91.5 -26t-41.5 -85h-68zM41 457q3 89 56 141.5t149 52.5q187 0 196 -194h-67 q-15 110 -133 110q-59 0 -91.5 -25.5t-41.5 -84.5h-68z"/>
<glyph glyph-name="uni0489" horiz-adv-x="1958" unicode="҉" d="M1591 528v113h21q62 -11 161 -51.5t146 -71.5v-37h-21q-72 17 -161.5 30.5t-145.5 16.5zM1403 121l80 78l14 -15q33 -45 75 -143t56 -160l-26 -26l-15 14q-78 127 -184 252zM1360 1030l14 14q52 37 141.5 75.5t163.5 54.5l27 -25l-16 -14q-41 -27 -124.5 -87.5 t-127.5 -97.5zM934 -342q9 38 25.5 136.5t23.5 170.5h113v-20q-10 -56 -49.5 -154t-75.5 -153h-37v20zM918 1141v20q11 60 49.5 155.5t74.5 151.5h37v-20q-35 -148 -49 -307h-112zM383 1225l27 26l14 -14q27 -43 80.5 -119t101.5 -133l-80 -80l-14 15q-36 50 -77.5 149.5 t-51.5 155.5zM307 -43l15 14q54 33 131 89t120 94l80 -80l-14 -15q-49 -34 -140.5 -73.5t-164.5 -55.5zM92 588v37h21q155 -36 307 -50v-112h-21q-62 11 -157 50t-150 75z"/>
<glyph glyph-name="uni048A" horiz-adv-x="981" unicode="Ҋ" d="M545 1788q0 34 6 72h82q-4 -25 -4 -68q0 -66 28.5 -101.5t96.5 -35.5q71 0 113 50.5t67 154.5h86q-35 -146 -99.5 -213.5t-172.5 -67.5q-100 0 -151.5 56.5t-51.5 152.5zM66 0l309 1462h96l-209 -989q-32 -150 -65 -274h8l745 1263h119l-289 -1368h99l-203 -463h-103 l170 369h-79l215 1018q36 169 69 262h-8l-758 -1280h-116z"/>
<glyph glyph-name="uni048B" horiz-adv-x="782" unicode="ҋ" d="M381 1450q0 34 6 72h82q-4 -25 -4 -68q0 -66 28.5 -101.5t96.5 -35.5q71 0 113 50.5t67 154.5h86q-35 -146 -99.5 -213.5t-172.5 -67.5q-99 0 -151 56.5t-52 152.5zM123 178q0 79 20 166l158 741h94l-162 -755q-18 -78 -18 -135q0 -123 94 -123q209 0 297 417l127 596h94 l-211 -991h99l-203 -463h-102l170 369h-58l8 135h-4q-101 -155 -239 -155q-164 0 -164 198z"/>
<glyph glyph-name="uni048C" horiz-adv-x="786" unicode="Ҍ" d="M182 90h135q154 0 239 108.5t85 299.5q0 115 -61.5 170t-188.5 55h-74zM66 0l241 1155h-141l18 82h142l47 225h98l-47 -225h211l-19 -82h-208l-72 -342h80q160 0 243.5 -80.5t83.5 -232.5q0 -232 -119 -366t-327 -134h-231z"/>
<glyph glyph-name="uni048D" horiz-adv-x="707" unicode="ҍ" d="M199 213q0 -152 127 -152q92 0 150.5 70.5t58.5 187.5q0 193 -160 193q-44 0 -121 -8l-39 -166q-16 -64 -16 -125zM104 207q0 67 17 141l182 860h-121l17 82h123l57 266h94l-57 -266h153l-16 -82h-154l-131 -616q50 6 119 6q242 -5 242 -272q0 -150 -87.5 -248 t-219.5 -98q-106 0 -162 58t-56 169z"/>
<glyph glyph-name="uni048E" horiz-adv-x="756" unicode="Ҏ" d="M311 698h70q71 0 133 21l-68 158l84 38l66 -155q77 52 117.5 148.5t40.5 230.5q0 107 -58.5 167t-165.5 60h-77zM66 0l309 1462h170q145 0 229 -83.5t84 -223.5q0 -158 -60 -286.5t-165 -196.5l80 -187l-84 -36l-78 182q-71 -27 -164 -27h-96l-127 -604h-98z"/>
<glyph glyph-name="uni048F" horiz-adv-x="803" unicode="ҏ" d="M242 252q0 -186 135 -186q41 0 80 22l-86 205l84 39l73 -178q83 104 136 305t53 379q0 91 -26.5 137.5t-94.5 46.5q-94 0 -173 -104.5t-130 -294t-51 -371.5zM-27 -471l330 1556h82l-25 -155h5q114 176 249 176q201 0 201 -283q0 -224 -70 -437.5t-180 -319.5l72 -164 l-84 -37l-61 145q-60 -30 -119 -30q-68 0 -115 41t-59 110h-6l-125 -602h-95z"/>
<glyph glyph-name="afii10050" horiz-adv-x="616" unicode="Ґ" d="M63 0l312 1462h344l63 301h97l-84 -395h-342l-291 -1368h-99z"/>
<glyph glyph-name="afii10098" horiz-adv-x="532" unicode="ґ" d="M55 0l232 1085h266l68 326h90l-88 -416h-263l-210 -995h-95z"/>
<glyph glyph-name="uni0492" horiz-adv-x="616" unicode="Ғ" d="M66 0l143 680h-88l18 90h88l148 692h461l-21 -96h-360l-125 -596h196l-18 -90h-197l-145 -680h-100z"/>
<glyph glyph-name="uni0493" horiz-adv-x="532" unicode="ғ" d="M57 512l19 82h123l104 491h387l-18 -90h-293l-86 -401h156l-19 -82h-156l-108 -512h-94l108 512h-123z"/>
<glyph glyph-name="uni0494" horiz-adv-x="819" unicode="Ҕ" d="M92 0l311 1462h459l-20 -94h-361l-125 -584q66 19 123 19q264 0 264 -361q0 -280 -58.5 -497t-169 -332t-261.5 -115q-85 0 -154 29v98q80 -35 156 -35q116 0 202.5 98t135.5 297t49 459q0 130 -44.5 199.5t-145.5 69.5q-52 0 -117 -21l-146 -692h-98z"/>
<glyph glyph-name="uni0495" horiz-adv-x="725" unicode="ҕ" d="M72 0l231 1085h387l-18 -90h-293l-82 -385q64 27 119 27q114 0 169.5 -70.5t55.5 -216.5q0 -237 -55 -436t-151 -302.5t-220 -103.5q-65 0 -133 35v101q64 -47 139 -47q96 0 168.5 90.5t115 272t42.5 390.5q0 107 -35 153t-106 46q-72 0 -130 -29l-110 -520h-94z"/>
<glyph glyph-name="uni0496" horiz-adv-x="1010" unicode="Җ" d="M-76 0l516 760l-200 702h100l199 -706l149 706h98l-149 -704l491 704h103l-498 -712l174 -656h76l-98 -463h-99l78 369h-37l-192 750l-158 -750h-98l158 748l-500 -748h-113z"/>
<glyph glyph-name="uni0497" horiz-adv-x="1092" unicode="җ" d="M-25 -10l19 86l16 -2h17q92 0 167.5 95.5t121.5 274.5t46 361q0 115 -39.5 163t-111.5 48h-17l-16 -2v80q22 4 49 4q224 0 224 -291q0 -101 -19 -219h137l107 497h90l-107 -497h136q53 245 156.5 377.5t242.5 132.5h22l21 -2l-18 -86l-16 2h-17q-93 0 -168 -95 t-121.5 -274t-46.5 -362q0 -109 37 -160t114 -51q31 0 48 4l-93 -443h-94l76 361q-176 25 -176 287q0 112 18 229h-139l-106 -508h-91l109 508h-135q-54 -253 -157 -386.5t-243 -133.5h-21z"/>
<glyph glyph-name="uni0498" horiz-adv-x="731" unicode="Ҙ" d="M74 -360q23 -9 53 -9q60 2 90.5 44t30.5 108q0 107 -53 198q-126 5 -201 48v114q90 -69 225 -69q151 0 237.5 103.5t86.5 271.5q0 131 -56.5 196.5t-162.5 65.5h-105l19 94h100q147 0 246.5 111t99.5 278q0 195 -176 195q-55 0 -98.5 -15t-114.5 -69l-47 81 q116 97 260 97q128 0 201 -74.5t73 -202.5q0 -172 -83.5 -290.5t-223.5 -151.5l-2 -6q170 -63 170 -295q1 -215 -113 -349q-100 -119 -256 -132q62 -83 62 -205q0 -103 -51 -163t-143 -60q-42 0 -68 12v74z"/>
<glyph glyph-name="uni0499" horiz-adv-x="580" unicode="ҙ" d="M45 -360q23 -9 53 -9q60 2 90 44t31 108q0 108 -53 199q22 -2 45 -2q17 0 34 2q62 -83 62 -205q0 -103 -51 -163t-143 -60q-42 0 -68 12v74zM245 -18q71 8 127 46q68 48 106 130q38 84 38 186q0 92 -28 148t-91 83l2 9q93 34 144 114t51 191q0 103 -52 160t-153 57 q-96 0 -178 -45l33 -82q57 37 131 37q125 0 125 -139q0 -107 -61 -183t-148 -76h-72l-18 -86h84q63 0 100 -50t37 -138q0 -130 -56 -202t-169 -72q-99 0 -189 67v-106q55 -42 158 -49q-5 9 -12 18h76q8 -9 15 -18z"/>
<glyph glyph-name="uni049A" horiz-adv-x="788" unicode="Қ" d="M66 0l309 1462h98l-164 -774l123 180l416 594h100l-452 -667l149 -701h76l-98 -463h-99l78 369h-37l-149 709l-129 -129l-123 -580h-98z"/>
<glyph glyph-name="uni049B" horiz-adv-x="649" unicode="қ" d="M72 0l231 1085h94l-108 -510l375 510h106l-385 -518l150 -477h71l-96 -459h-94l78 369h-35l-172 567l-121 -567h-94z"/>
<glyph glyph-name="uni049C" horiz-adv-x="743" unicode="Ҝ" d="M66 0l309 1462h98l-164 -774l105 141l86 410h86l-49 -233l311 456h100l-452 -667l170 -795h-101l-121 580l-59 -289h-86l80 381l-92 -92l-123 -580h-98z"/>
<glyph glyph-name="uni049D" horiz-adv-x="715" unicode="ҝ" d="M72 0l231 1085h94l-108 -510l106 119l70 320h82l-43 -199l241 270h107l-383 -432l-37 -174l213 -479h-104l-144 317l-45 -211h-82l72 336l-55 125l-121 -567h-94z"/>
<glyph glyph-name="uni049E" horiz-adv-x="743" unicode="Ҟ" d="M66 0l249 1182h-118l20 90h117l41 190h98l-41 -190h164l-21 -90h-161l-105 -494l123 180l416 594h100l-452 -667l170 -795h-101l-149 709l-129 -129l-123 -580h-98z"/>
<glyph glyph-name="uni049F" horiz-adv-x="639" unicode="ҟ" d="M72 0l270 1270h-131l18 84h131l43 202h95l-45 -202h202l-18 -84h-203l-115 -531l-45 -190h2l130 164l270 372h102l-307 -430l96 -655h-98l-84 573l-127 -139l-92 -434h-94z"/>
<glyph glyph-name="uni04A0" horiz-adv-x="860" unicode="Ҡ" d="M197 0l288 1368h-260l19 94h360l-149 -706l499 706h109l-506 -714l229 -748h-108l-225 748l-158 -748h-98z"/>
<glyph glyph-name="uni04A1" horiz-adv-x="680" unicode="ҡ" d="M129 0l213 999h-174l18 86h269l-109 -510l375 510h106l-385 -518l179 -567h-105l-172 567l-121 -567h-94z"/>
<glyph glyph-name="uni04A2" horiz-adv-x="924" unicode="Ң" d="M66 0l309 1462h98l-137 -647h440l137 647h99l-291 -1368h115l-99 -463h-98l78 369h-113l152 717h-441l-151 -717h-98z"/>
<glyph glyph-name="uni04A3" horiz-adv-x="803" unicode="ң" d="M72 0l231 1085h94l-100 -475h344l100 475h95l-213 -995h100l-96 -459h-95l78 369h-100l113 524h-344l-113 -524h-94z"/>
<glyph glyph-name="uni04A4" horiz-adv-x="1057" unicode="Ҥ" d="M66 0l309 1462h98l-137 -647h440l137 647h359l-19 -94h-262l-289 -1368h-98l152 717h-441l-151 -717h-98z"/>
<glyph glyph-name="uni04A5" horiz-adv-x="852" unicode="ҥ" d="M72 0l231 1085h94l-100 -475h344l100 475h269l-19 -86h-174l-213 -999h-94l113 524h-344l-113 -524h-94z"/>
<glyph glyph-name="uni04A6" horiz-adv-x="1317" unicode="Ҧ" d="M98 0l310 1462h587l-143 -678q65 19 127 19q264 0 264 -361q0 -280 -58.5 -497t-169 -332t-261.5 -115q-87 0 -154 29v98q78 -35 156 -35q116 0 203 100.5t135.5 298.5t48.5 455q0 269 -191 269q-54 0 -121 -21l-145 -692h-98l291 1368h-394l-288 -1368h-99z"/>
<glyph glyph-name="uni04A7" horiz-adv-x="1159" unicode="ҧ" d="M72 0l231 1085h533l-101 -475q64 27 119 27q114 0 169.5 -70.5t55.5 -216.5q0 -237 -55 -436t-151 -302.5t-220 -103.5q-65 0 -133 35v101q64 -47 139 -47q96 0 168.5 90.5t115 272t42.5 390.5q0 107 -35 153t-106 46t-129 -29l-111 -520h-94l213 999h-344l-213 -999h-94 z"/>
<glyph glyph-name="uni04A8" horiz-adv-x="1030" unicode="Ҩ" d="M594 408q0 -169 47 -269q82 67 152.5 189t114.5 287.5t44 316.5q0 168 -92 168q-69 0 -130 -97t-98.5 -262t-37.5 -333zM141 424q0 278 83.5 525t223 391.5t291.5 144.5q98 0 158 -39l-49 -86q-42 31 -113 31q-128 0 -243.5 -137t-183.5 -358.5t-68 -453.5 q0 -370 206 -370q57 0 113 22q-63 124 -63 312q0 213 49.5 395t136.5 287.5t192 105.5q84 0 130.5 -66t46.5 -188q0 -253 -99 -493t-264 -377q42 -62 117 -62q45 0 96 23v-92q-62 -23 -121 -23t-106 27.5t-76 76.5q-75 -40 -166 -40q-136 0 -213.5 115t-77.5 329z"/>
<glyph glyph-name="uni04A9" horiz-adv-x="885" unicode="ҩ" d="M518 342q0 -121 43 -201q105 86 162 227t57 296q0 57 -18.5 90.5t-52.5 33.5q-54 0 -97 -53.5t-68.5 -164t-25.5 -228.5zM119 313q0 207 58.5 390.5t162 293t227.5 109.5q72 0 117 -19l-37 -90q-40 19 -84 19q-92 0 -168.5 -92.5t-127 -273t-50.5 -341.5q0 -127 40 -185 t122 -58q57 0 106 26q-59 107 -59 262q0 132 40 260.5t104 196.5t145 68q159 0 159 -209q0 -165 -69.5 -324.5t-196.5 -267.5q33 -41 107 -41q39 0 69 12v-88q-45 -14 -96 -14q-103 0 -160 76q-66 -43 -170 -43q-117 0 -178 85t-61 248z"/>
<glyph glyph-name="uni04AA" horiz-adv-x="727" unicode="Ҫ" d="M262 -360q23 -9 53 -9q61 2 91 44t30 108q0 110 -56 202q29 -5 62 -5h21q61 -83 61 -203q0 -103 -51 -163t-143 -60q-42 0 -68 12v74zM135 449q0 -237 77 -353q61 -91 168 -111q-4 7 -9 15h76l16 -20q83 4 166 36v95q-96 -39 -172 -39q-121 0 -173 96t-51 299 q1 211 73 437t188 356q116 129 245 129q86 0 146 -52l61 86q-74 62 -196 62q-164 1 -304 -141t-226 -390t-85 -505z"/>
<glyph glyph-name="uni04AB" horiz-adv-x="588" unicode="ҫ" d="M162 -350q23 -9 53 -9q61 2 91 44t30 108q0 107 -52 197q34 -10 74 -10h12q54 -80 54 -193q0 -103 -51 -163t-143 -60q-42 0 -68 12v74zM119 291q-1 -151 61 -231q40 -52 104 -70q-6 10 -13 20h76q12 -14 23 -30q80 3 150 40v86q-80 -40 -143 -40q-160 0 -160 223 q-1 173 49 353t126 277t169 97q60 0 113 -29l39 86q-58 33 -144 33q-124 0 -224 -102t-163 -300q-63 -196 -63 -413z"/>
<glyph glyph-name="uni04AC" horiz-adv-x="639" unicode="Ҭ" d="M190 0l289 1366h-256l21 96h612l-20 -96h-256l-269 -1272h115l-98 -463h-99l78 369h-117z"/>
<glyph glyph-name="uni04AD" horiz-adv-x="1171" unicode="ҭ" d="M72 0l229 1085h80l-25 -151h4q91 172 240 172q73 0 114.5 -36t51.5 -114q51 75 107 112.5t131 37.5q77 0 119 -50t42 -149q0 -57 -14 -121l-145 -696h92l-97 -459h-94l78 369h-94l172 813q10 47 10 84q0 115 -94 115q-82 0 -146 -71.5t-88 -188.5l-157 -752h-94l168 799 q12 58 12 98q0 115 -99 115q-101 0 -168 -96t-114 -320l-127 -596h-94z"/>
<glyph glyph-name="uni04AE" horiz-adv-x="616" unicode="Ү" d="M180 0l121 571l-74 891h101l51 -755l366 755h103l-447 -891l-120 -571h-101z"/>
<glyph glyph-name="uni04AF" horiz-adv-x="588" unicode="ү" d="M80 -492l104 492l-6 1085h94v-659q0 -93 -14 -289h6q44 130 98 262l289 686h99l-471 -1085l-105 -492h-94z"/>
<glyph glyph-name="uni04B0" horiz-adv-x="616" unicode="Ұ" d="M121 406l18 90h146l16 75l-74 891h101l51 -755l366 755h103l-447 -891l-16 -75h156l-19 -90h-155l-86 -406h-101l86 406h-145z"/>
<glyph glyph-name="uni04B1" horiz-adv-x="588" unicode="ұ" d="M20 -82l17 82h147l-6 1085h94v-659q0 -93 -14 -289h6q44 130 98 262l289 686h99l-471 -1085h151l-16 -82h-154l-86 -410h-94l86 410h-146z"/>
<glyph glyph-name="uni04B2" horiz-adv-x="643" unicode="Ҳ" d="M-57 0l419 791l-81 671h100l68 -606l307 606h100l-377 -719l60 -649h106l-98 -463h-98l77 369h-80l-53 666l-348 -666h-102z"/>
<glyph glyph-name="uni04B3" horiz-adv-x="608" unicode="ҳ" d="M-27 0l340 571l-92 514h96l70 -434l250 434h100l-327 -538l90 -457h73l-96 -459h-94l78 369h-39l-80 461l-268 -461h-101z"/>
<glyph glyph-name="uni04B4" horiz-adv-x="1059" unicode="Ҵ" d="M188 0l291 1368h-262l21 94h618l-20 -94h-258l-271 -1274h441l290 1368h99l-291 -1368h98l-98 -463h-98l79 369h-639z"/>
<glyph glyph-name="uni04B5" horiz-adv-x="844" unicode="ҵ" d="M143 999l19 86h442l-18 -86h-174l-144 -669q-18 -78 -18 -135q0 -123 94 -123q209 0 297 417l127 596h94l-194 -909l-4 -31q0 -55 63 -55l41 4l-98 -463h-97l76 365q-43 9 -63.5 39.5t-20.5 99.5h-4q-103 -155 -239 -155q-164 0 -164 198q0 79 20 166l139 655h-174z"/>
<glyph glyph-name="uni04B6" horiz-adv-x="901" unicode="Ҷ" d="M209 776q0 64 14 123l119 563h100l-123 -575q-12 -56 -12 -99q0 -78 40.5 -119.5t119.5 -41.5q58 0 114.5 17.5t141.5 68.5l158 749h98l-289 -1368h98l-98 -463h-98l78 369h-99l134 627q-87 -55 -146 -75t-113 -20q-109 0 -173 60.5t-64 183.5z"/>
<glyph glyph-name="uni04B7" horiz-adv-x="776" unicode="ҷ" d="M180 561q0 46 13 98l90 426h94l-96 -448q-7 -32 -7 -59q0 -117 105 -117q213 0 289 362l55 262h94l-213 -995h94l-96 -459h-94l78 369h-94l110 510q-43 -61 -111 -99t-143 -38t-121.5 47t-46.5 141z"/>
<glyph glyph-name="uni04B8" horiz-adv-x="901" unicode="Ҹ" d="M209 776q0 64 14 123l119 563h100l-123 -575q-12 -56 -12 -99q0 -146 131 -161l80 372h88l-78 -368q56 8 101.5 30.5t93.5 51.5l158 749h98l-309 -1462h-99l134 627q-112 -71 -197 -88l-68 -326h-88l68 319q-99 8 -155 68.5t-56 175.5z"/>
<glyph glyph-name="uni04B9" horiz-adv-x="776" unicode="ҹ" d="M180 561q0 46 13 98l90 426h94l-96 -448q-7 -32 -7 -59q0 -104 84 -117l66 313h80l-64 -305q158 43 228 354l55 262h94l-231 -1085h-94l110 510q-68 -98 -180 -127l-53 -254h-80l51 244q-72 2 -116 48.5t-44 139.5z"/>
<glyph glyph-name="uni04BA" horiz-adv-x="901" unicode="Һ" d="M66 0l309 1462h98l-133 -626q149 94 258 94t173.5 -60.5t64.5 -183.5q0 -56 -15 -123l-119 -563h-100l123 575q12 55 12 99q0 162 -159 162q-58 0 -113.5 -16.5t-142.5 -69.5l-158 -750h-98z"/>
<glyph glyph-name="uni04BB" horiz-adv-x="776" unicode="һ" d="M72 0l231 1085h94l-110 -510q46 66 116 102t138 36q75 0 121.5 -47.5t46.5 -141.5q0 -46 -13 -98l-90 -426h-94l96 449q6 33 6 59q0 117 -104 117q-213 0 -289 -363l-55 -262h-94z"/>
<glyph glyph-name="uni04BC" horiz-adv-x="1067" unicode="Ҽ" d="M406 780q279 0 435 109.5t156 316.5q0 88 -41.5 136.5t-119.5 48.5q-138 0 -253.5 -164.5t-176.5 -446.5zM113 838q0 81 45 163h94q-47 -83 -47 -141q0 -46 24.5 -63t75.5 -17q72 328 216.5 516.5t322.5 188.5q117 0 184.5 -71.5t67.5 -199.5q0 -162 -81 -279.5 t-245 -182t-383 -64.5q-20 -135 -20 -262q0 -354 245 -354q59 0 115.5 14.5t142.5 56.5v-98q-128 -65 -262 -65q-174 0 -257 115.5t-83 346.5q0 117 19 246q-83 0 -128.5 40t-45.5 110z"/>
<glyph glyph-name="uni04BD" horiz-adv-x="850" unicode="ҽ" d="M371 588q399 0 399 317q0 53 -23 83t-81 30q-89 0 -169 -118t-126 -312zM82 657q0 67 49 152h94q-47 -80 -47 -139q0 -82 86 -82h4q50 228 165 373t249 145q87 0 134.5 -50.5t47.5 -152.5q0 -123 -59.5 -215t-170 -137t-263.5 -45h-13q-20 -104 -20 -199q0 -241 184 -241 q47 0 88.5 13t94.5 44v-96q-84 -47 -211 -47q-120 0 -187 83.5t-67 233.5q0 120 14 209q-85 2 -128.5 42t-43.5 109z"/>
<glyph glyph-name="uni04BE" horiz-adv-x="1067" unicode="Ҿ" d="M406 780q279 0 435 109.5t156 316.5q0 88 -41.5 136.5t-119.5 48.5q-138 0 -253.5 -164.5t-176.5 -446.5zM113 838q0 81 45 163h94q-47 -83 -47 -141q0 -46 24.5 -63t75.5 -17q72 328 216.5 516.5t322.5 188.5q117 0 184.5 -71.5t67.5 -199.5q0 -162 -81 -279.5 t-245 -182t-383 -64.5q-20 -135 -20 -262q0 -354 245 -354q59 0 115.5 14.5t142.5 56.5v-98q-113 -58 -229 -63l-74 -351h-98l76 353q-137 18 -207 129t-70 329q0 117 19 246q-83 0 -128.5 40t-45.5 110z"/>
<glyph glyph-name="uni04BF" horiz-adv-x="850" unicode="ҿ" d="M371 588q399 0 399 317q0 53 -23 83t-81 30q-89 0 -169 -118t-126 -312zM82 657q0 67 49 152h94q-47 -80 -47 -139q0 -82 86 -82h4q50 228 165 373t249 145q87 0 134.5 -50.5t47.5 -152.5q0 -123 -59.5 -215t-170 -137t-263.5 -45h-13q-20 -104 -20 -199q0 -241 184 -241 q47 0 88.5 13t94.5 44v-96q-70 -38 -173 -45l-71 -351h-94l73 353q-93 17 -146.5 96.5t-53.5 216.5q0 120 14 209q-85 2 -128.5 42t-43.5 109z"/>
<glyph glyph-name="uni04C0" horiz-adv-x="418" unicode="Ӏ" d="M66 0l309 1462h98l-309 -1462h-98z"/>
<glyph glyph-name="uni04C1" horiz-adv-x="1010" unicode="Ӂ" d="M551 1788q0 34 6 72h82q-4 -25 -4 -68q0 -66 28.5 -101.5t96.5 -35.5q71 0 113 50.5t67 154.5h86q-35 -146 -99.5 -213.5t-172.5 -67.5q-99 0 -151 56.5t-52 152.5zM-76 0l516 760l-200 702h100l199 -706l149 706h98l-149 -704l491 704h103l-498 -712l199 -750h-105 l-192 750l-158 -750h-98l158 748l-500 -748h-113z"/>
<glyph glyph-name="uni04C2" horiz-adv-x="1092" unicode="ӂ" d="M543 1450q0 34 6 72h82q-4 -25 -4 -68q0 -66 28.5 -101.5t96.5 -35.5q71 0 113 50.5t67 154.5h86q-35 -146 -99.5 -213.5t-172.5 -67.5q-99 0 -151 56.5t-52 152.5zM-25 -10l19 86l16 -2h17q92 0 167.5 95.5t121.5 274.5t46 361q0 115 -39.5 163t-111.5 48h-17l-16 -2v80 q22 4 49 4q224 0 224 -291q0 -101 -19 -219h137l107 497h90l-107 -497h136q53 245 156.5 377.5t242.5 132.5h22l21 -2l-18 -86l-16 2h-17q-93 0 -168 -95t-121.5 -274t-46.5 -362q0 -109 37 -160t114 -51h18l15 2v-80q-22 -4 -49 -4q-223 0 -223 291q0 112 18 229h-139 l-106 -508h-91l109 508h-135q-54 -253 -157 -386.5t-243 -133.5h-21z"/>
<glyph glyph-name="uni04C3" horiz-adv-x="815" unicode="Ӄ" d="M66 0l309 1462h98l-139 -645l514 645h100l-526 -665l53 4q268 0 268 -359q0 -280 -58.5 -497t-169 -332t-261.5 -115q-85 0 -154 29v98q80 -35 156 -35q116 0 202.5 98t135.5 297t49 459q0 269 -207 269q-60 0 -127 -21l-145 -692h-98z"/>
<glyph glyph-name="uni04C4" horiz-adv-x="727" unicode="ӄ" d="M72 0l231 1085h94l-108 -510l375 510h106l-344 -462h23q192 0 192 -273q0 -237 -55 -436t-151 -302.5t-220 -103.5q-65 0 -133 35v101q64 -47 139 -47q96 0 168.5 90.5t115 272t42.5 390.5q0 107 -35 153t-106 46q-72 0 -130 -29l-110 -520h-94z"/>
<glyph glyph-name="uni04C5" horiz-adv-x="838" unicode="Ӆ" d="M-63 2v94q30 -12 65 -12q53 0 97 59.5t81 175.5q106 340 242 811l96 332h428l-291 -1368h99l-203 -463h-102l169 369h-81l290 1368h-241q-133 -470 -229.5 -789.5t-137.5 -412t-88 -134.5t-113 -42q-36 0 -81 12z"/>
<glyph glyph-name="uni04C6" horiz-adv-x="698" unicode="ӆ" d="M-39 -2v88q18 -6 45 -6q50 0 83 42.5t65.5 136t70.5 257.5q51 225 86 315t78 145t99 84.5t128 29.5q60 0 150 -15l-207 -981h98l-202 -463h-103l170 369h-78l211 993q-24 6 -55 6q-70 0 -117.5 -47t-83 -136.5t-82.5 -311.5q-41 -187 -83 -298.5t-93 -163.5t-127 -52 q-32 0 -53 8z"/>
<glyph glyph-name="uni04C7" horiz-adv-x="924" unicode="Ӈ" d="M66 0l309 1462h98l-137 -647h440l137 647h99l-314 -1478q-39 -180 -91 -287t-123 -156t-183 -49q-96 0 -168 39v100q72 -49 174 -49q80 0 132 41t92 131t71 238l154 725h-441l-151 -717h-98z"/>
<glyph glyph-name="uni04C8" horiz-adv-x="795" unicode="ӈ" d="M72 0l231 1085h94l-100 -475h344l100 475h95l-232 -1089q-40 -191 -85.5 -298t-106 -153.5t-164.5 -46.5q-45 0 -89 15t-65 30v105q73 -60 158 -60q71 0 113.5 37t76 125t74.5 273l107 501h-344l-113 -524h-94z"/>
<glyph glyph-name="uni04C9" horiz-adv-x="924" unicode="Ӊ" d="M66 0l309 1462h98l-137 -647h440l137 647h99l-289 -1368h98l-203 -463h-102l170 369h-82l152 717h-441l-151 -717h-98z"/>
<glyph glyph-name="uni04CA" horiz-adv-x="795" unicode="ӊ" d="M72 0l231 1085h94l-100 -475h344l100 475h95l-211 -991h98l-203 -463h-102l170 369h-78l113 524h-344l-113 -524h-94z"/>
<glyph glyph-name="uni04CB" horiz-adv-x="901" unicode="Ӌ" d="M209 776q0 64 14 123l119 563h100l-123 -575q-12 -56 -12 -99q0 -78 40.5 -119.5t119.5 -41.5q58 0 114.5 17.5t141.5 68.5l158 749h98l-309 -1462h-76l-78 -369h-98l98 463h76l113 533q-87 -55 -146 -75t-113 -20q-109 0 -173 60.5t-64 183.5z"/>
<glyph glyph-name="uni04CC" horiz-adv-x="776" unicode="ӌ" d="M180 561q0 46 13 98l90 426h94l-96 -448q-7 -32 -7 -59q0 -117 105 -117q213 0 289 362l55 262h94l-233 -1085h-72l-78 -369h-94l96 459h74l92 420q-43 -61 -111 -99t-143 -38t-121.5 47t-46.5 141z"/>
<glyph glyph-name="uni04CD" horiz-adv-x="1255" unicode="Ӎ" d="M66 0l309 1462h160l34 -1108l4 -164l-2 -88h2q17 50 107 250l494 1110h169l-288 -1368h96l-203 -463h-102l170 369h-82l238 1122l49 207h-4l-596 -1329h-127l-52 1331h-6l-44 -240l-230 -1091h-96z"/>
<glyph glyph-name="uni04CE" horiz-adv-x="948" unicode="ӎ" d="M72 0l231 1085h135l2 -700q0 -204 -6 -270h6q10 26 44 112t370 858h137l-211 -991h101l-203 -463h-103l170 369h-77l139 651q15 73 67 273h-8l-401 -924h-100l-5 924h-8l-47 -267l-141 -657h-92z"/>
<glyph glyph-name="uni04CF" horiz-adv-x="418" unicode="ӏ" d="M66 0l309 1462h98l-309 -1462h-98z"/>
<glyph glyph-name="uni04D0" horiz-adv-x="731" unicode="Ӑ" d="M407 1788q0 34 6 72h82q-4 -25 -4 -68q0 -66 28.5 -101.5t96.5 -35.5q71 0 113 50.5t67 154.5h86q-35 -146 -99.5 -213.5t-172.5 -67.5q-99 0 -151 56.5t-52 152.5zM283 629h272v370l6 355q-15 -52 -52 -152t-226 -573zM-78 0l606 1468h123v-1468h-96v530h-307l-221 -530 h-105z"/>
<glyph glyph-name="uni04D1" horiz-adv-x="817" unicode="ӑ" d="M411 1450q0 34 6 72h82q-4 -25 -4 -68q0 -66 28.5 -101.5t96.5 -35.5q71 0 113 50.5t67 154.5h86q-35 -146 -99.5 -213.5t-172.5 -67.5q-99 0 -151 56.5t-52 152.5zM217 248q0 -91 26.5 -138t94.5 -47q90 0 168 104t132 304t54 377q0 83 -35.5 125.5t-99.5 42.5 q-88 0 -163 -101.5t-126 -297.5t-51 -369zM119 262q0 209 62.5 414t162 317.5t217.5 112.5q134 0 174 -150h6l39 129h80l-229 -1085h-76l18 156h-4q-114 -176 -250 -176q-200 0 -200 282z"/>
<glyph glyph-name="uni04D2" horiz-adv-x="731" unicode="Ӓ" d="M699 1700q0 49 23 81t59 32q47 0 47 -58q0 -53 -21.5 -86t-58.5 -33q-49 0 -49 64zM427 1700q0 49 22.5 81t59.5 32q47 0 47 -58q0 -53 -21.5 -86t-58.5 -33q-49 0 -49 64zM283 629h272v370l6 355q-15 -52 -52 -152t-226 -573zM-78 0l606 1468h123v-1468h-96v530h-307 l-221 -530h-105z"/>
<glyph glyph-name="uni04D3" horiz-adv-x="817" unicode="ӓ" d="M706 1362q0 49 23 81t59 32q47 0 47 -58q0 -53 -21.5 -86t-58.5 -33q-49 0 -49 64zM434 1362q0 49 22.5 81t59.5 32q47 0 47 -58q0 -53 -21.5 -86t-58.5 -33q-49 0 -49 64zM217 248q0 -91 26.5 -138t94.5 -47q90 0 168 104t132 304t54 377q0 83 -35.5 125.5t-99.5 42.5 q-88 0 -163 -101.5t-126 -297.5t-51 -369zM119 262q0 209 62.5 414t162 317.5t217.5 112.5q134 0 174 -150h6l39 129h80l-229 -1085h-76l18 156h-4q-114 -176 -250 -176q-200 0 -200 282z"/>
<glyph glyph-name="uni04D4" horiz-adv-x="1036" unicode="Ӕ" d="M313 629h213l156 735h-29zM-76 0l684 1462h572l-21 -96h-377l-116 -553h356l-21 -94h-356l-133 -625h377l-19 -94h-477l113 530h-236l-245 -530h-101z"/>
<glyph glyph-name="uni04D5" horiz-adv-x="1192" unicode="ӕ" d="M721 588q195 0 296 79.5t101 237.5q0 53 -22.5 83t-81.5 30q-84 0 -160 -108.5t-133 -321.5zM217 248q0 -91 26.5 -138t94.5 -47q88 0 159.5 101t116.5 297t45 387q0 81 -26.5 124.5t-75.5 43.5q-88 0 -163 -101.5t-126 -297.5t-51 -369zM119 262q0 209 62.5 414 t162 317.5t217.5 112.5q59 0 96.5 -34.5t57.5 -119.5l39 133h80l-33 -141q110 162 229 162q87 0 134.5 -50.5t47.5 -152.5q0 -123 -59.5 -215t-170 -137t-263.5 -45h-12q-21 -99 -21 -199q0 -124 47 -182.5t141 -58.5q89 0 185 55v-86q-51 -29 -96 -42t-105 -13 q-88 0 -146 48t-75 136l-33 -164h-76l23 156q-88 -176 -232 -176q-200 0 -200 282z"/>
<glyph glyph-name="uni04D6" horiz-adv-x="709" unicode="Ӗ" d="M435 1788q0 34 6 72h82q-4 -25 -4 -68q0 -66 28.5 -101.5t96.5 -35.5q71 0 113 50.5t67 154.5h86q-35 -146 -99.5 -213.5t-172.5 -67.5q-99 0 -151 56.5t-52 152.5zM66 0l309 1462h477l-21 -96h-376l-117 -553h354l-20 -94h-355l-133 -625h377l-18 -94h-477z"/>
<glyph glyph-name="uni04D7" horiz-adv-x="723" unicode="ӗ" d="M382 1450q0 34 6 72h82q-4 -25 -4 -68q0 -66 28.5 -101.5t96.5 -35.5q71 0 113 50.5t67 154.5h86q-35 -146 -99.5 -213.5t-172.5 -67.5q-99 0 -151 56.5t-52 152.5zM250 588q399 0 399 317q0 53 -22.5 83t-81.5 30q-89 0 -169 -118t-126 -312zM119 297q0 214 60.5 401.5 t164 297.5t217.5 110q87 0 134.5 -50.5t47.5 -152.5q0 -123 -59.5 -215t-170 -137t-263.5 -45h-12q-21 -99 -21 -199q0 -241 184 -241q47 0 88.5 13t94.5 44v-96q-84 -47 -211 -47q-120 0 -187 83.5t-67 233.5z"/>
<glyph glyph-name="uni04D8" horiz-adv-x="942" unicode="Ә" d="M207 258q0 -88 42.5 -136t119.5 -48q145 0 258.5 160.5t171.5 449.5q-274 0 -433 -111t-159 -315zM109 250q0 164 78 281.5t240.5 181t389.5 63.5q21 147 21 262q0 353 -246 353q-61 0 -117 -14.5t-141 -57.5v100q132 66 262 66q167 0 253.5 -111t86.5 -352 q0 -275 -79 -525t-209.5 -383.5t-287.5 -133.5q-121 0 -186 72.5t-65 197.5z"/>
<glyph glyph-name="afii10846" horiz-adv-x="723" unicode="ә" d="M170 180q0 -112 104 -112q89 0 169 118t126 312q-399 0 -399 -318zM76 182q0 124 59.5 216t170.5 137t263 45h13q20 102 20 198q0 242 -184 242q-47 0 -88.5 -13t-93.5 -44v96q82 47 210 47q121 0 187.5 -85t66.5 -233q0 -210 -59 -396.5t-163.5 -299t-219.5 -112.5 q-87 0 -134.5 50t-47.5 152z"/>
<glyph glyph-name="uni04DA" horiz-adv-x="942" unicode="Ӛ" d="M760 1700q0 49 23 81t59 32q47 0 47 -58q0 -53 -21.5 -86t-58.5 -33q-49 0 -49 64zM488 1700q0 49 22.5 81t59.5 32q47 0 47 -58q0 -53 -21.5 -86t-58.5 -33q-49 0 -49 64zM207 258q0 -88 42.5 -136t119.5 -48q145 0 258.5 160.5t171.5 449.5q-274 0 -433 -111t-159 -315 zM109 250q0 164 78 281.5t240.5 181t389.5 63.5q21 147 21 262q0 353 -246 353q-61 0 -117 -14.5t-141 -57.5v100q132 66 262 66q167 0 253.5 -111t86.5 -352q0 -275 -79 -525t-209.5 -383.5t-287.5 -133.5q-121 0 -186 72.5t-65 197.5z"/>
<glyph glyph-name="uni04DB" horiz-adv-x="723" unicode="ӛ" d="M601 1362q0 49 23 81t59 32q47 0 47 -58q0 -53 -21.5 -86t-58.5 -33q-49 0 -49 64zM329 1362q0 49 22.5 81t59.5 32q47 0 47 -58q0 -53 -21.5 -86t-58.5 -33q-49 0 -49 64zM170 180q0 -112 104 -112q89 0 169 118t126 312q-399 0 -399 -318zM76 182q0 124 59.5 216 t170.5 137t263 45h13q20 102 20 198q0 242 -184 242q-47 0 -88.5 -13t-93.5 -44v96q82 47 210 47q121 0 187.5 -85t66.5 -233q0 -210 -59 -396.5t-163.5 -299t-219.5 -112.5q-87 0 -134.5 50t-47.5 152z"/>
<glyph glyph-name="uni04DC" horiz-adv-x="1010" unicode="Ӝ" d="M842 1700q0 49 23 81t59 32q47 0 47 -58q0 -53 -21.5 -86t-58.5 -33q-49 0 -49 64zM570 1700q0 49 22.5 81t59.5 32q47 0 47 -58q0 -53 -21.5 -86t-58.5 -33q-49 0 -49 64zM-76 0l516 760l-200 702h100l199 -706l149 706h98l-149 -704l491 704h103l-498 -712l199 -750 h-105l-192 750l-158 -750h-98l158 748l-500 -748h-113z"/>
<glyph glyph-name="uni04DD" horiz-adv-x="1092" unicode="ӝ" d="M821 1362q0 49 23 81t59 32q47 0 47 -58q0 -53 -21.5 -86t-58.5 -33q-49 0 -49 64zM549 1362q0 49 22.5 81t59.5 32q47 0 47 -58q0 -53 -21.5 -86t-58.5 -33q-49 0 -49 64zM-25 -10l19 86l16 -2h17q92 0 167.5 95.5t121.5 274.5t46 361q0 115 -39.5 163t-111.5 48h-17 l-16 -2v80q22 4 49 4q224 0 224 -291q0 -101 -19 -219h137l107 497h90l-107 -497h136q53 245 156.5 377.5t242.5 132.5h22l21 -2l-18 -86l-16 2h-17q-93 0 -168 -95t-121.5 -274t-46.5 -362q0 -109 37 -160t114 -51h18l15 2v-80q-22 -4 -49 -4q-223 0 -223 291q0 112 18 229 h-139l-106 -508h-91l109 508h-135q-54 -253 -157 -386.5t-243 -133.5h-21z"/>
<glyph glyph-name="uni04DE" horiz-adv-x="731" unicode="Ӟ" d="M652 1700q0 49 23 81t59 32q47 0 47 -58q0 -53 -21.5 -86t-58.5 -33q-49 0 -49 64zM380 1700q0 49 22.5 81t59.5 32q47 0 47 -58q0 -53 -21.5 -86t-58.5 -33q-49 0 -49 64zM-6 29v114q90 -69 225 -69q151 0 237.5 103.5t86.5 271.5q0 131 -56.5 196.5t-162.5 65.5h-105 l19 94h100q147 0 246.5 111t99.5 278q0 195 -176 195q-55 0 -98.5 -15t-114.5 -69l-47 81q116 97 260 97q128 0 201 -74.5t73 -202.5q0 -172 -83.5 -290.5t-223.5 -151.5l-2 -6q170 -63 170 -295q0 -214 -113.5 -348.5t-298.5 -134.5q-152 0 -237 49z"/>
<glyph glyph-name="uni04DF" horiz-adv-x="580" unicode="ӟ" d="M540 1362q0 49 23 81t59 32q47 0 47 -58q0 -53 -21.5 -86t-58.5 -33q-49 0 -49 64zM268 1362q0 49 22.5 81t59.5 32q47 0 47 -58q0 -53 -21.5 -86t-58.5 -33q-49 0 -49 64zM8 31v106q90 -67 189 -67q112 0 168.5 71.5t56.5 202.5q0 88 -37 138t-100 50h-84l18 86h72 q87 0 148 76t61 183q0 139 -125 139q-74 0 -131 -37l-33 82q82 45 178 45q100 0 152.5 -57t52.5 -160q0 -110 -51 -190.5t-144 -114.5l-2 -9q64 -26 91.5 -82.5t27.5 -148.5q0 -102 -37.5 -185.5t-106 -131t-161.5 -47.5q-136 0 -203 51z"/>
<glyph glyph-name="uni04E0" horiz-adv-x="717" unicode="Ӡ" d="M-6 29v114q88 -69 223 -69q157 0 246.5 109t89.5 292q0 97 -27 149t-83 79.5t-148 27.5h-45l14 86l416 549h-387l20 96h500l-16 -94l-418 -547q140 -10 207 -102t67 -250q0 -139 -53 -251t-153 -175t-232 -63q-61 0 -122 14t-99 35z"/>
<glyph glyph-name="uni04E1" horiz-adv-x="608" unicode="ӡ" d="M-94 -330q85 -71 194 -71q94 0 164 55.5t111 163.5t41 237q0 162 -57.5 229.5t-188.5 67.5h-25l15 74l409 573h-333l18 86h442l-14 -75l-414 -574q133 -27 189.5 -113.5t56.5 -252.5q0 -157 -53.5 -290.5t-145.5 -202.5t-213 -69q-59 0 -114 15.5t-82 40.5v106z"/>
<glyph glyph-name="uni04E2" horiz-adv-x="981" unicode="Ӣ" d="M488 1589l16 82h500l-16 -82h-500zM66 0l309 1462h96l-209 -989q-32 -150 -65 -274h8l745 1263h119l-309 -1462h-96l215 1018q36 169 69 262h-8l-758 -1280h-116z"/>
<glyph glyph-name="uni04E3" horiz-adv-x="786" unicode="ӣ" d="M333 1251l16 82h500l-16 -82h-500zM123 178q0 79 20 166l158 741h94l-162 -755q-18 -78 -18 -135q0 -123 94 -123q209 0 297 417l127 596h94l-231 -1085h-74l8 135h-4q-101 -155 -239 -155q-164 0 -164 198z"/>
<glyph glyph-name="uni04E4" horiz-adv-x="981" unicode="Ӥ" d="M823 1700q0 49 23 81t59 32q47 0 47 -58q0 -53 -21.5 -86t-58.5 -33q-49 0 -49 64zM551 1700q0 49 22.5 81t59.5 32q47 0 47 -58q0 -53 -21.5 -86t-58.5 -33q-49 0 -49 64zM66 0l309 1462h96l-209 -989q-32 -150 -65 -274h8l745 1263h119l-309 -1462h-96l215 1018 q36 169 69 262h-8l-758 -1280h-116z"/>
<glyph glyph-name="uni04E5" horiz-adv-x="786" unicode="ӥ" d="M673 1362q0 49 23 81t59 32q47 0 47 -58q0 -53 -21.5 -86t-58.5 -33q-49 0 -49 64zM401 1362q0 49 22.5 81t59.5 32q47 0 47 -58q0 -53 -21.5 -86t-58.5 -33q-49 0 -49 64zM123 178q0 79 20 166l158 741h94l-162 -755q-18 -78 -18 -135q0 -123 94 -123q209 0 297 417 l127 596h94l-231 -1085h-74l8 135h-4q-101 -155 -239 -155q-164 0 -164 198z"/>
<glyph glyph-name="uni04E6" horiz-adv-x="958" unicode="Ӧ" d="M821 1700q0 49 23 81t59 32q47 0 47 -58q0 -53 -21.5 -86t-58.5 -33q-49 0 -49 64zM549 1700q0 49 22.5 81t59.5 32q47 0 47 -58q0 -53 -21.5 -86t-58.5 -33q-49 0 -49 64zM233 377q0 -303 187 -303q92 0 173.5 80.5t144.5 230t102 349.5t39 366q0 289 -187 289 q-91 0 -171.5 -73.5t-144.5 -220.5t-103.5 -350t-39.5 -368zM135 379q0 196 46 414t124.5 376.5t178.5 236t218 77.5q275 0 275 -383q0 -284 -80 -557t-207 -418t-278 -145q-277 0 -277 399z"/>
<glyph glyph-name="uni04E7" horiz-adv-x="780" unicode="ӧ" d="M695 1362q0 49 23 81t59 32q47 0 47 -58q0 -53 -21.5 -86t-58.5 -33q-49 0 -49 64zM423 1362q0 49 22.5 81t59.5 32q47 0 47 -58q0 -53 -21.5 -86t-58.5 -33q-49 0 -49 64zM217 268q0 -202 135 -202q89 0 164 101.5t122.5 286.5t47.5 357q0 205 -139 205 q-84 0 -157.5 -98t-123 -286t-49.5 -364zM119 287q0 142 36 305t94 276.5t136 175.5t174 62q106 0 165.5 -82.5t59.5 -232.5q0 -139 -36.5 -298.5t-95.5 -274t-138 -176.5t-174 -62q-107 0 -164 80t-57 227z"/>
<glyph glyph-name="uni04E8" horiz-adv-x="958" unicode="Ө" d="M283 793h567q29 172 29 307q0 289 -187 289q-136 0 -241.5 -154.5t-167.5 -441.5zM233 377q0 -303 187 -303q136 0 244.5 171t166.5 453h-567q-31 -188 -31 -321zM135 379q0 196 46 414t124.5 376.5t178.5 236t218 77.5q275 0 275 -383q0 -284 -80 -557t-207 -418 t-278 -145q-277 0 -277 399z"/>
<glyph glyph-name="uni04E9" horiz-adv-x="766" unicode="ө" d="M260 610h410q16 108 16 201q0 205 -139 205q-89 0 -164.5 -105.5t-122.5 -300.5zM217 268q0 -202 135 -202q98 0 177 121t124 337h-411q-25 -133 -25 -256zM119 287q0 142 36 305t94 276.5t136 175.5t174 62q106 0 165.5 -82.5t59.5 -232.5q0 -139 -36.5 -298.5 t-95.5 -274t-138 -176.5t-174 -62q-107 0 -164 80t-57 227z"/>
<glyph glyph-name="uni04EA" horiz-adv-x="958" unicode="Ӫ" d="M819 1700q0 49 23 81t59 32q47 0 47 -58q0 -53 -21.5 -86t-58.5 -33q-49 0 -49 64zM547 1700q0 49 22.5 81t59.5 32q47 0 47 -58q0 -53 -21.5 -86t-58.5 -33q-49 0 -49 64zM283 793h567q29 172 29 307q0 289 -187 289q-136 0 -241.5 -154.5t-167.5 -441.5zM233 377 q0 -303 187 -303q136 0 244.5 171t166.5 453h-567q-31 -188 -31 -321zM135 379q0 196 46 414t124.5 376.5t178.5 236t218 77.5q275 0 275 -383q0 -284 -80 -557t-207 -418t-278 -145q-277 0 -277 399z"/>
<glyph glyph-name="uni04EB" horiz-adv-x="766" unicode="ӫ" d="M677 1362q0 49 23 81t59 32q47 0 47 -58q0 -53 -21.5 -86t-58.5 -33q-49 0 -49 64zM405 1362q0 49 22.5 81t59.5 32q47 0 47 -58q0 -53 -21.5 -86t-58.5 -33q-49 0 -49 64zM260 610h410q16 108 16 201q0 205 -139 205q-89 0 -164.5 -105.5t-122.5 -300.5zM217 268 q0 -202 135 -202q98 0 177 121t124 337h-411q-25 -133 -25 -256zM119 287q0 142 36 305t94 276.5t136 175.5t174 62q106 0 165.5 -82.5t59.5 -232.5q0 -139 -36.5 -298.5t-95.5 -274t-138 -176.5t-174 -62q-107 0 -164 80t-57 227z"/>
<glyph glyph-name="uni04EC" horiz-adv-x="774" unicode="Ӭ" d="M634 1700q0 49 23 81t59 32q47 0 47 -58q0 -53 -21.5 -86t-58.5 -33q-49 0 -49 64zM362 1700q0 49 22.5 81t59.5 32q47 0 47 -58q0 -53 -21.5 -86t-58.5 -33q-49 0 -49 64zM0 14v99q105 -39 199 -39q169 0 287 159.5t171 485.5h-415l20 94h408q20 118 20 231 q0 169 -57 258t-162 89q-90 0 -180 -56l-35 90q99 60 236 60q140 0 218 -110t78 -320q0 -318 -73.5 -566.5t-206 -378.5t-309.5 -130q-112 0 -199 34z"/>
<glyph glyph-name="uni04ED" horiz-adv-x="614" unicode="ӭ" d="M544 1362q0 49 23 81t59 32q47 0 47 -58q0 -53 -21.5 -86t-58.5 -33q-49 0 -49 64zM272 1362q0 49 22.5 81t59.5 32q47 0 47 -58q0 -53 -21.5 -86t-58.5 -33q-49 0 -49 64zM2 6v94q67 -30 139 -30q130 0 216 106t135 348h-265l19 86h258q18 108 18 189q0 217 -168 217 q-69 0 -131 -35l-20 84q85 41 178 41q112 0 173.5 -76t61.5 -219q0 -232 -59 -428t-162 -299.5t-239 -103.5q-81 0 -154 26z"/>
<glyph glyph-name="uni04EE" horiz-adv-x="616" unicode="Ӯ" d="M306 1589l16 82h500l-16 -82h-500zM-39 0v92q34 -18 80 -18q52 0 88 42t82 144l74 168l-58 1034h99l30 -680l2 -111v-102h9q17 51 77 201l308 692h98l-555 -1237q-61 -134 -115.5 -187.5t-132.5 -53.5q-54 0 -86 16z"/>
<glyph glyph-name="uni04EF" horiz-adv-x="588" unicode="ӯ" d="M230 1251l16 82h500l-16 -82h-500zM-158 -387q37 -16 88 -16q54 0 92.5 43.5t94.5 173.5l71 170l-8 1101h94v-639q0 -161 -12 -323h6q53 157 97 264l288 698h99l-562 -1329q-58 -138 -116 -193t-142 -55q-46 0 -90 19v86z"/>
<glyph glyph-name="uni04F0" horiz-adv-x="616" unicode="Ӱ" d="M640 1700q0 49 23 81t59 32q47 0 47 -58q0 -53 -21.5 -86t-58.5 -33q-49 0 -49 64zM368 1700q0 49 22.5 81t59.5 32q47 0 47 -58q0 -53 -21.5 -86t-58.5 -33q-49 0 -49 64zM-39 0v92q34 -18 80 -18q52 0 88 42t82 144l74 168l-58 1034h99l30 -680l2 -111v-102h9 q17 51 77 201l308 692h98l-555 -1237q-61 -134 -115.5 -187.5t-132.5 -53.5q-54 0 -86 16z"/>
<glyph glyph-name="uni04F1" horiz-adv-x="588" unicode="ӱ" d="M562 1362q0 49 23 81t59 32q47 0 47 -58q0 -53 -21.5 -86t-58.5 -33q-49 0 -49 64zM290 1362q0 49 22.5 81t59.5 32q47 0 47 -58q0 -53 -21.5 -86t-58.5 -33q-49 0 -49 64zM-158 -387q37 -16 88 -16q54 0 92.5 43.5t94.5 173.5l71 170l-8 1101h94v-639q0 -161 -12 -323h6 q53 157 97 264l288 698h99l-562 -1329q-58 -138 -116 -193t-142 -55q-46 0 -90 19v86z"/>
<glyph glyph-name="uni04F2" horiz-adv-x="616" unicode="Ӳ" d="M615 1579l5 19q147 178 219 309h139l-2 -17q-47 -67 -137.5 -157.5t-171.5 -153.5h-52zM341 1579l4 19q147 178 219 309h140l-3 -17q-44 -67 -137 -158.5t-172 -152.5h-51zM-39 0v92q34 -18 80 -18q52 0 88 42t82 144l74 168l-58 1034h99l30 -680l2 -111v-102h9 q17 51 77 201l308 692h98l-555 -1237q-61 -134 -115.5 -187.5t-132.5 -53.5q-54 0 -86 16z"/>
<glyph glyph-name="uni04F3" horiz-adv-x="588" unicode="ӳ" d="M551 1241l5 19q147 178 219 309h139l-2 -17q-47 -67 -137.5 -157.5t-171.5 -153.5h-52zM277 1241l4 19q147 178 219 309h140l-3 -17q-44 -67 -137 -158.5t-172 -152.5h-51zM-158 -387q37 -16 88 -16q54 0 92.5 43.5t94.5 173.5l71 170l-8 1101h94v-639q0 -161 -12 -323h6 q53 157 97 264l288 698h99l-562 -1329q-58 -138 -116 -193t-142 -55q-46 0 -90 19v86z"/>
<glyph glyph-name="uni04F4" horiz-adv-x="901" unicode="Ӵ" d="M772 1700q0 49 23 81t59 32q47 0 47 -58q0 -53 -21.5 -86t-58.5 -33q-49 0 -49 64zM500 1700q0 49 22.5 81t59.5 32q47 0 47 -58q0 -53 -21.5 -86t-58.5 -33q-49 0 -49 64zM209 776q0 64 14 123l119 563h100l-123 -575q-12 -56 -12 -99q0 -78 40.5 -119.5t119.5 -41.5 q58 0 114.5 17.5t141.5 68.5l158 749h98l-309 -1462h-99l134 627q-87 -55 -146 -75t-113 -20q-109 0 -173 60.5t-64 183.5z"/>
<glyph glyph-name="uni04F5" horiz-adv-x="776" unicode="ӵ" d="M667 1362q0 49 23 81t59 32q47 0 47 -58q0 -53 -21.5 -86t-58.5 -33q-49 0 -49 64zM395 1362q0 49 22.5 81t59.5 32q47 0 47 -58q0 -53 -21.5 -86t-58.5 -33q-49 0 -49 64zM180 561q0 46 13 98l90 426h94l-96 -448q-7 -32 -7 -59q0 -117 105 -117q213 0 289 362l55 262 h94l-231 -1085h-94l110 510q-43 -61 -111 -99t-143 -38t-121.5 47t-46.5 141z"/>
<glyph glyph-name="uni04F6" horiz-adv-x="616" unicode="Ӷ" d="M66 0l311 1462h459l-21 -100h-360l-271 -1268h101l-99 -463h-94l78 369h-104z"/>
<glyph glyph-name="uni04F7" horiz-adv-x="532" unicode="ӷ" d="M55 0l232 1085h387l-21 -90h-293l-192 -905h100l-96 -459h-96l78 369h-99z"/>
<glyph glyph-name="uni04F8" horiz-adv-x="1155" unicode="Ӹ" d="M918 1700q0 49 23 81t59 32q47 0 47 -58q0 -53 -21.5 -86t-58.5 -33q-49 0 -49 64zM836 0l309 1462h98l-309 -1462h-98zM646 1700q0 49 22.5 81t59.5 32q47 0 47 -58q0 -53 -21.5 -86t-58.5 -33q-49 0 -49 64zM182 90h135q154 0 239 108.5t85 299.5q0 115 -61.5 170 t-188.5 55h-74zM66 0l309 1462h98l-137 -649h84q158 0 240.5 -79t82.5 -234q0 -232 -119 -366t-327 -134h-231z"/>
<glyph glyph-name="uni04F9" horiz-adv-x="1004" unicode="ӹ" d="M793 1362q0 49 23 81t59 32q47 0 47 -58q0 -53 -21.5 -86t-58.5 -33q-49 0 -49 64zM717 0l231 1085h96l-231 -1085h-96zM521 1362q0 49 22.5 81t59.5 32q47 0 47 -58q0 -53 -21.5 -86t-58.5 -33q-49 0 -49 64zM223 213q0 -152 131 -152q88 0 145.5 72.5t57.5 185.5 q0 193 -160 193q-44 0 -121 -8l-36 -166q-17 -66 -17 -125zM129 207q0 71 16 141l158 737h94l-104 -493q50 6 117 6q241 -5 241 -272q0 -146 -86 -246t-215 -100q-221 0 -221 227z"/>
<glyph glyph-name="uni04FA" horiz-adv-x="616" unicode="Ӻ" d="M-53 -256q42 -18 82 -18q43 0 68 26.5t36 83.5l33 164h-100l143 680h-88l18 90h88l148 692h461l-21 -96h-360l-125 -596h196l-18 -90h-197l-125 -586h97l-56 -264q-36 -182 -188 -182q-51 0 -92 16v80z"/>
<glyph glyph-name="uni04FB" horiz-adv-x="532" unicode="ӻ" d="M-43 -256q34 -18 76 -18q40 0 63.5 25.5t38.5 90.5l33 158h-96l108 512h-123l19 82h123l104 491h387l-18 -90h-293l-86 -401h156l-19 -82h-156l-90 -426h90l-51 -242q-21 -103 -64 -149.5t-120 -46.5q-53 0 -82 16v80z"/>
<glyph glyph-name="uni04FC" horiz-adv-x="686" unicode="Ӽ" d="M-57 0l419 791l-81 671h100l68 -606l307 606h100l-377 -719l60 -649h125l-52 -252q-18 -91 -68 -142.5t-124 -51.5q-51 0 -92 16v80q42 -18 82 -18q43 0 68 26.5t36 83.5l33 164h-101l-53 666l-348 -666h-102z"/>
<glyph glyph-name="uni04FD" horiz-adv-x="631" unicode="ӽ" d="M-27 0l340 571l-92 514h96l70 -434l250 434h100l-327 -538l90 -461h102l-51 -242q-22 -103 -64.5 -149.5t-119.5 -46.5q-53 0 -82 16v80q34 -18 75 -18q43 0 66 28.5t37 87.5l33 158h-74l-80 461l-268 -461h-101z"/>
<glyph glyph-name="uni04FE" horiz-adv-x="643" unicode="Ӿ" d="M-57 0l389 733h-154l19 90h161l-77 639h100l68 -606l307 606h100l-336 -639h156l-19 -90h-178l68 -733h-101l-53 666l-348 -666h-102z"/>
<glyph glyph-name="endash" horiz-adv-x="922" unicode="–" d="M123 512l16 82h774l-16 -82h-774z"/>
<glyph glyph-name="emdash" horiz-adv-x="1843" unicode="—" d="M123 512l16 82h1696l-16 -82h-1696z"/>
<glyph glyph-name="quoteleft" horiz-adv-x="285" unicode="‘" d="M147 1016q112 230 246 446h66q-43 -86 -98.5 -218.5t-92.5 -250.5h-112z"/>
<glyph glyph-name="quotesinglbase" horiz-adv-x="379" unicode="‚" d="M-20 -264q41 88 96.5 224t89.5 245h115l8 -23q-102 -214 -244 -446h-65z"/>
<glyph glyph-name="quotedblleft" horiz-adv-x="539" unicode="“" d="M414 1016q115 237 245 446h64q-43 -86 -98.5 -218.5t-92.5 -250.5h-110zM160 1016q118 243 246 446h63q-49 -97 -103 -229.5t-87 -239.5h-111z"/>
<glyph glyph-name="quotedblright" horiz-adv-x="539" unicode="”" d="M397 993q112 232 191 469h110l7 -22q-95 -202 -244 -447h-64zM143 993q112 232 191 469h108l9 -22q-95 -202 -244 -447h-64z"/>
<glyph glyph-name="ellipsis" horiz-adv-x="1139" unicode="…" d="M879 53q0 60 27 102t75 42q27 0 42 -21t15 -55q0 -61 -27.5 -99t-70.5 -38q-25 0 -43 17.5t-18 51.5zM498 53q0 60 27 102t75 42q27 0 42 -21t15 -55q0 -61 -27.5 -99t-70.5 -38q-25 0 -43 17.5t-18 51.5zM117 53q0 60 27 102t75 42q27 0 42 -21t15 -55q0 -61 -27.5 -99 t-70.5 -38q-25 0 -43 17.5t-18 51.5z"/>
<glyph glyph-name="guilsinglleft" horiz-adv-x="461" unicode="‹" d="M127 514l4 27l334 366l57 -41l-276 -340l125 -350l-64 -29z"/>
<glyph glyph-name="guilsinglright" horiz-adv-x="461" unicode="›" d="M49 188l277 340l-125 351l63 28l180 -366l-4 -27l-334 -367z"/>
<glyph glyph-name="Euro" d="M43 535l18 81h119q11 112 31 201h-109l19 82h110q73 271 208.5 428.5t295.5 157.5q116 0 180 -62l-55 -86q-52 52 -131 52q-122 0 -227.5 -131t-169.5 -359h323l-18 -82h-326q-17 -72 -35 -201h291l-18 -81h-279v-68q0 -213 46 -304t151 -91q91 0 158 39l16 -91 q-78 -40 -195 -40q-137 0 -205.5 120t-68.5 349l2 86h-131z" unicode="€"/>
<glyph glyph-name="trademark" horiz-adv-x="1378" unicode="™" d="M768 815v647h113l198 -544l203 544h111v-647h-76v356l2 187h-4l-205 -543h-68l-198 547h-4l2 -180v-367h-74zM231 1393v69h469v-69h-196v-578h-78v578h-195z"/>
</font>
</defs>
</svg>
