<?xml version="1.0" encoding="UTF-8" standalone="no"?>
<!DOCTYPE svg  PUBLIC '-//W3C//DTD SVG 1.1//EN'  'http://www.w3.org/Graphics/SVG/1.1/DTD/svg11.dtd'>
<svg xmlns="http://www.w3.org/2000/svg">
<defs>
<font id="OpenSansLight-Italic" horiz-adv-x="1128">
<font-face slope="-12" underline-position="-103" font-weight="300" descent="-410" panose-1="2 11 3 6 3 5 4 2 2 4" units-per-em="2048" unicode-range="U+0020-2122" bbox="-324 -518 2478 2056" x-height="1087" underline-thickness="102" font-family="OpenSansLight" ascent="1638" font-style="italic" cap-height="1462"/>
<missing-glyph horiz-adv-x="2048"/>
<glyph glyph-name=".notdef" horiz-adv-x="2048"/>
<glyph glyph-name="glyph1" horiz-adv-x="0"/>
<glyph glyph-name="glyph2" horiz-adv-x="2048"/>
<glyph glyph-name="space" horiz-adv-x="532" unicode=" "/>
<glyph glyph-name="exclam" horiz-adv-x="502" unicode="!" d="M186 377l203 1085h119l-260 -1085h-62zM80 57q0 56 25 88.5t69 32.5q66 0 66 -72q0 -53 -25 -87.5t-68 -34.5q-67 0 -67 73z"/>
<glyph glyph-name="quotedbl" horiz-adv-x="721" unicode='&quot;' d="M578 934l79 528h127l-145 -528h-61zM248 934l80 528h127l-146 -528h-61z"/>
<glyph glyph-name="numbersign" horiz-adv-x="1323" unicode="#" d="M475 530h363l120 398h-362zM82 451l8 79h299l119 398h-297l8 80h311l134 454h90l-136 -454h365l135 454h86l-135 -454h285l-8 -80h-302l-118 -398h303l-8 -79h-320l-133 -451h-90l135 451h-360l-134 -451h-88l134 451h-283z"/>
<glyph glyph-name="dollar" d="M537 203q142 7 223.5 74.5t81.5 183.5q0 76 -48 129.5t-157 97.5zM410 1018q0 -78 37 -128.5t137 -96.5l102 491q-134 -9 -205 -80t-71 -186zM141 182v94q65 -34 153.5 -53.5t160.5 -19.5l110 512q-110 53 -153 91q-90 80 -90 219.5t105.5 235t272.5 99.5l41 192h80 l-41 -192q149 -5 277 -68l-35 -78q-110 61 -256 70l-109 -514q124 -60 173 -100q98 -80 98 -217t-110.5 -229t-297.5 -103l-53 -240h-82l51 240q-173 4 -295 61z" unicode="$"/>
<glyph glyph-name="percent" horiz-adv-x="1556" unicode="%" d="M991 291.5q0 -124.5 41 -182.5t113 -58q130 0 209.5 166.5t79.5 386.5q0 109 -36 163t-115 54t-145.5 -72.5t-106.5 -202.5t-40 -254.5zM905 282q0 154 52 306t138 229.5t200 77.5t169.5 -71.5t55.5 -229t-50 -309.5t-136 -230t-197.5 -78t-171.5 75.5t-60 229.5z M231 877q0 -124 41 -182t119 -58t142.5 72t102.5 204t38 259t-36 181t-114.5 54t-144.5 -71.5t-107 -203t-41 -255.5zM213 0l1135 1462h110l-1139 -1462h-106zM145 868q0 154 52 306t138 229.5t193 77.5q232 0 232 -283q0 -175 -50 -327t-136 -230t-197.5 -78t-171.5 75.5 t-60 229.5z"/>
<glyph glyph-name="ampersand" horiz-adv-x="1331" unicode="&amp;" d="M485 1131q0 -128 109 -277q203 89 279.5 163.5t76.5 174t-56.5 151.5t-163.5 52t-176 -68t-69 -196zM176 328q0 -119 78 -192t198.5 -73t224 42.5t222.5 146.5l-352 493q-164 -79 -232 -135q-139 -113 -139 -282zM78 327q0 159 99 274.5t325 215.5l-41 67 q-78 128 -78 268t101 236.5t255 96.5t236 -76.5t82 -206.5q0 -163 -162 -282q-80 -59 -256 -138l330 -463q73 75 135.5 176.5t91.5 186.5h111q-102 -247 -285 -436l184 -246h-123l-131 184q-121 -108 -242 -156t-277 -48t-255.5 94t-99.5 253z"/>
<glyph glyph-name="quotesingle" horiz-adv-x="403" unicode="&apos;" d="M254 934l80 528h127l-146 -528h-61z"/>
<glyph glyph-name="parenleft" horiz-adv-x="526" unicode="(" d="M104 275.5q0 337.5 122 627.5t382 559h105q-259 -276 -384.5 -568t-125.5 -613.5t127 -604.5h-80q-146 262 -146 599.5z"/>
<glyph glyph-name="parenright" horiz-adv-x="526" unicode=")" d="M-156 -324q510 544 510 1186q0 310 -127 600h80q146 -262 146 -600.5t-123.5 -629.5t-380.5 -556h-105z"/>
<glyph glyph-name="asterisk" horiz-adv-x="1137" unicode="*" d="M233 1217l39 102l394 -168l47 408l121 -19l-109 -405l438 8l-8 -107l-416 29l181 -401l-115 -37l-135 417l-285 -348l-78 78l318 318z"/>
<glyph glyph-name="plus" d="M162 672v100h401v404h101v-404h401v-100h-401v-400h-101v400h-401z" unicode="+"/>
<glyph glyph-name="comma" horiz-adv-x="451" unicode="," d="M-90 -264q79 132 141 271t88 231h111l8 -23q-34 -92 -114 -233.5t-160 -245.5h-74z"/>
<glyph glyph-name="hyphen" horiz-adv-x="629" unicode="-" d="M82 502l18 90h457l-16 -90h-459z"/>
<glyph glyph-name="period" horiz-adv-x="485" unicode="." d="M82 55q0 56 25 88.5t69 32.5q66 0 66 -72q0 -53 -25 -87.5t-67 -34.5q-68 0 -68 73z"/>
<glyph glyph-name="slash" horiz-adv-x="641" unicode="/" d="M-100 0l815 1462h112l-817 -1462h-110z"/>
<glyph glyph-name="zero" d="M242 510.5q0 -228.5 62.5 -335.5t199.5 -107t242 112t166 337t61 456.5t-59.5 327.5t-192 96t-240 -113t-173.5 -329t-66 -444.5zM139 494q0 186 44.5 381.5t124.5 334.5q158 275 427 275q340 0 340 -469q0 -201 -41 -405t-116 -346q-152 -285 -426 -285q-353 0 -353 514 z" unicode="0"/>
<glyph glyph-name="one" d="M354 1204l406 258h90l-313 -1462h-105l225 1055q19 92 74 293q-42 -36 -75.5 -61t-249.5 -161z" unicode="1"/>
<glyph glyph-name="two" d="M39 0l22 104l449 402q198 177 284 276.5t126.5 186.5t40.5 189.5t-66 168.5t-197 66q-176 0 -333 -129l-54 73q180 146 394 146q173 0 268.5 -85t95.5 -237q0 -110 -43.5 -208.5t-141.5 -211.5t-311 -303l-383 -338v-4h736l-17 -96h-870z" unicode="2"/>
<glyph glyph-name="three" d="M55 53v101q172 -86 356.5 -86t291 89.5t106.5 243.5t-89 232t-247 78h-117l21 96h110q209 0 333 95.5t124 258.5q0 114 -63.5 175t-188.5 61q-167 0 -344 -131l-49 75q178 142 406 142q161 0 252.5 -82.5t91.5 -235.5t-106 -266t-286 -143v-4q117 -24 185.5 -115.5 t68.5 -226t-64 -233.5q-127 -197 -454 -197q-190 0 -338 73z" unicode="3"/>
<glyph glyph-name="four" d="M150 459h579q79 369 119 558.5t86 354.5h-4q-66 -91 -129 -166zM23 371l20 96l881 1010h118l-215 -1018h265l-21 -88h-264l-80 -371h-96l80 371h-688z" unicode="4"/>
<glyph glyph-name="five" d="M88 51v107q170 -90 359 -90t309.5 114.5t120.5 313.5q0 140 -85 219.5t-221.5 79.5t-246.5 -41l-66 49l193 659h624l-18 -96h-541l-149 -516q98 29 215 29q188 0 292.5 -102t104.5 -279q0 -237 -148 -377.5t-407 -140.5q-84 0 -177.5 20t-158.5 51z" unicode="5"/>
<glyph glyph-name="six" d="M270 414q0 -164 72.5 -255t192.5 -91t204.5 58.5t130 162t45.5 239.5t-67 214.5t-195 78.5q-163 0 -283 -119q-56 -55 -78 -114.5t-22 -173.5zM170 428q0 283 105 544q204 509 653 509q123 0 182 -21l-18 -90q-86 23 -170 23q-233 0 -393.5 -174t-233.5 -502h8 q139 192 375 192q161 0 250.5 -100.5t89.5 -269.5t-60 -294t-171 -195t-269.5 -70t-253 119t-94.5 329z" unicode="6"/>
<glyph glyph-name="seven" d="M244 0l796 1366h-766l23 96h858l-20 -110l-779 -1352h-112z" unicode="7"/>
<glyph glyph-name="eight" d="M428 1129q0 -106 41.5 -174t157.5 -142q192 62 279 144t87 198.5t-70.5 180t-198 63.5t-212 -82t-84.5 -188zM201 337.5q0 -133.5 77.5 -204t232.5 -70.5t257 91t102 233q0 208 -260 346q-218 -73 -313.5 -167.5t-95.5 -228zM98 325q0 160 100.5 269.5t321.5 187.5 q-100 72 -144 152t-44 180q0 159 114 265t284 106t265 -85t95 -226t-84 -237.5t-285 -172.5q130 -78 190 -170.5t60 -208.5t-58 -208t-165.5 -144.5t-273 -52.5t-271 92.5t-105.5 252.5z" unicode="8"/>
<glyph glyph-name="nine" d="M313 932.5q0 -135.5 67.5 -215.5t192.5 -80q168 0 287 120q54 55 76 114t22 200.5t-71 231.5t-192 90t-206.5 -58.5t-130.5 -162.5t-45 -239.5zM115 2v90q87 -29 192 -29q474 0 627 674h-8q-140 -192 -367 -192q-162 0 -255 105t-93 272t59.5 293t170.5 196t271 70 t253.5 -115.5t93.5 -333.5q0 -288 -101.5 -548t-263.5 -382t-393 -122q-114 0 -186 22z" unicode="9"/>
<glyph glyph-name="colon" horiz-adv-x="485" unicode=":" d="M260 989q0 57 25.5 89t68.5 32q66 0 66 -72q0 -55 -25 -89t-67 -34q-68 0 -68 74zM102 55q0 56 25.5 88.5t69.5 32.5q65 0 65 -72q0 -55 -25.5 -88.5t-66.5 -33.5q-68 0 -68 73z"/>
<glyph glyph-name="semicolon" horiz-adv-x="485" unicode=";" d="M266 989q0 57 25.5 89t68.5 32q66 0 66 -72q0 -55 -25 -89t-67 -34q-68 0 -68 74zM-53 -264q79 132 141 271t88 231h111l8 -23q-35 -96 -118.5 -242t-156.5 -237h-73z"/>
<glyph glyph-name="less" d="M137 676v74l914 471v-103l-801 -399l801 -350v-107z" unicode="&lt;"/>
<glyph glyph-name="equal" d="M168 885v100h903v-100h-903zM168 461v98h903v-98h-903z" unicode="="/>
<glyph glyph-name="greater" d="M170 262v107l801 350l-801 399v103l915 -471v-74z" unicode="&gt;"/>
<glyph glyph-name="question" horiz-adv-x="799" unicode="?" d="M182 1376q186 107 352 107t257.5 -84.5t91.5 -220.5t-66 -243t-231 -226q-157 -112 -206 -203q-25 -48 -46 -144h-92l6 29q29 132 82 206.5t164 153t168 139.5q116 126 116 269q0 108 -67.5 170t-194.5 62t-295 -101zM170 59q0 56 25 88.5t69 32.5q66 0 66 -71 q0 -54 -24.5 -88.5t-67.5 -34.5q-68 0 -68 73z"/>
<glyph glyph-name="at" horiz-adv-x="1724" unicode="@" d="M610 526q0 -213 154 -213q101 0 180.5 89t124.5 255l78 289q-66 23 -159 23t-184.5 -59t-142.5 -165.5t-51 -218.5zM125 508q0 276 121.5 493.5t337 337t473.5 119.5q189 0 330.5 -72.5t221 -213t79.5 -317t-56 -321t-154.5 -227t-204 -82.5t-162 55t-56.5 144h-4 q-54 -97 -132.5 -148t-179.5 -51t-167 73t-66 215.5t63 269.5t178 198.5t249 71.5t264 -52l-84 -315q-39 -140 -39 -216q0 -157 135 -157q86 0 160 73.5t117.5 198t43.5 266t-65 262.5t-187 188t-292 67q-235 0 -424.5 -108.5t-295.5 -304t-106 -439.5q0 -288 155 -449 t435 -161q207 0 420 82v-90q-210 -82 -420.5 -82t-365 82.5t-238.5 239t-84 370.5z"/>
<glyph glyph-name="A" horiz-adv-x="1059" unicode="A" d="M344 612h449l-39 291q-31 242 -39 402q-60 -125 -371 -693zM-111 0l822 1468h67l201 -1468h-105l-69 520h-512l-287 -520h-117z"/>
<glyph glyph-name="B" horiz-adv-x="1202" unicode="B" d="M377 811h278q206 0 313 81t107 238q0 119 -78 180.5t-229 61.5h-272zM223 90h342q201 0 309.5 87.5t108.5 256.5q0 287 -365 287h-260zM102 0l310 1462h379q190 0 290.5 -84t100.5 -239t-90 -251t-254 -124v-4q125 -31 188.5 -113.5t63.5 -204.5q0 -205 -140.5 -323.5 t-390.5 -118.5h-457z"/>
<glyph glyph-name="C" horiz-adv-x="1169" unicode="C" d="M170 535.5q0 265.5 104.5 487.5t284.5 341t379.5 119t329.5 -68l-45 -90q-117 64 -262 64q-197 0 -351.5 -104.5t-245 -304.5t-90.5 -433t110.5 -354t317.5 -121q140 0 304 51v-94q-156 -49 -316 -49q-252 0 -386 145t-134 410.5z"/>
<glyph glyph-name="D" horiz-adv-x="1350" unicode="D" d="M221 90h209q226 0 394.5 94.5t261 275.5t92.5 412q0 498 -476 498h-206zM102 0l310 1462h305q282 0 426.5 -147.5t144.5 -418t-109.5 -479t-300.5 -313t-446 -104.5h-330z"/>
<glyph glyph-name="E" horiz-adv-x="1067" unicode="E" d="M102 0l310 1462h727l-21 -94h-624l-117 -553h590l-21 -94h-588l-135 -627h627l-21 -94h-727z"/>
<glyph glyph-name="F" horiz-adv-x="981" unicode="F" d="M102 0l310 1462h708l-20 -94h-604l-134 -620h570l-21 -95h-569l-137 -653h-103z"/>
<glyph glyph-name="G" horiz-adv-x="1374" unicode="G" d="M170 542q0 270 105 488.5t283.5 335.5t395.5 117q204 0 387 -78l-38 -94q-110 46 -189.5 62t-167.5 16q-184 0 -339 -107.5t-244 -301.5t-89 -428t114.5 -357t326.5 -123q155 0 309 47l117 526h-303l18 90h406l-150 -682q-211 -73 -405 -73q-257 0 -397 146t-140 416z "/>
<glyph glyph-name="H" horiz-adv-x="1366" unicode="H" d="M102 0l310 1462h102l-139 -649h760l137 649h100l-309 -1462h-100l151 719h-760l-149 -719h-103z"/>
<glyph glyph-name="I" horiz-adv-x="504" unicode="I" d="M102 0l310 1462h98l-309 -1462h-99z"/>
<glyph glyph-name="J" horiz-adv-x="477" unicode="J" d="M-324 -336l11 92q57 -20 137 -20q213 0 262 241l309 1485h105l-314 -1491q-35 -170 -125 -250.5t-241 -80.5q-96 0 -144 24z"/>
<glyph glyph-name="K" horiz-adv-x="1122" unicode="K" d="M102 0l310 1462h102l-158 -723l133 121l680 602h138l-699 -610l371 -852h-111l-342 788l-190 -153l-131 -635h-103z"/>
<glyph glyph-name="L" horiz-adv-x="938" unicode="L" d="M102 0l310 1462h102l-289 -1366h621l-23 -96h-721z"/>
<glyph glyph-name="M" horiz-adv-x="1669" unicode="M" d="M109 0l309 1462h143l205 -1257h6l733 1257h150l-301 -1462h-101l191 901q79 369 100 447h-6l-780 -1348h-51l-222 1348h-6q-20 -154 -78 -426l-196 -922h-96z"/>
<glyph glyph-name="N" horiz-adv-x="1372" unicode="N" d="M102 0l310 1462h80l522 -1294h8q23 176 74 416l188 878h94l-309 -1462h-86l-516 1284h-8q-23 -149 -48 -273t-214 -1011h-95z"/>
<glyph glyph-name="O" horiz-adv-x="1464" unicode="O" d="M276 560.5q0 -232.5 109.5 -360.5t319.5 -128q169 0 300 98.5t210 300t79 436t-104.5 358.5t-294.5 124t-324.5 -101t-214.5 -298t-80 -429.5zM172 549.5q0 271.5 93 487t255 331t391 115.5t360.5 -148.5t131.5 -413.5t-94 -491.5t-252 -338t-365 -111.5q-250 0 -385 149 t-135 420.5z"/>
<glyph glyph-name="P" horiz-adv-x="1145" unicode="P" d="M350 694h191q252 0 373.5 96.5t121.5 305.5q0 274 -329 274h-211zM102 0l310 1462h315q202 0 310 -92.5t108 -267.5q0 -500 -610 -500h-201l-129 -602h-103z"/>
<glyph glyph-name="Q" horiz-adv-x="1464" unicode="Q" d="M276 560.5q0 -232.5 109.5 -360.5t319.5 -128q169 0 300 98.5t210 300t79 436t-104.5 358.5t-294.5 124t-324.5 -101t-214.5 -298t-80 -429.5zM172 549.5q0 271.5 93 487t255 331t391 115.5t360.5 -148.5t131.5 -423.5q0 -216 -70 -418q-138 -399 -461 -491l267 -350 h-142l-231 332l-74 -4q-250 0 -385 149t-135 420.5z"/>
<glyph glyph-name="R" horiz-adv-x="1145" unicode="R" d="M358 725h252q208 0 317 95.5t109 281.5q0 268 -329 268h-211zM102 0l310 1462h303q430 0 430 -360q0 -182 -103.5 -303t-281.5 -152q201 -591 221 -647h-111l-211 633h-323l-131 -633h-103z"/>
<glyph glyph-name="S" horiz-adv-x="1020" unicode="S" d="M37 55v109q163 -92 349.5 -92t294 86.5t107.5 232.5q0 114 -70 183q-35 35 -90.5 68t-131.5 75q-150 76 -209.5 164t-59.5 206t59 207.5t165 139t221 49.5t196 -17.5t168 -60.5l-32 -94q-142 86 -310.5 86t-265 -82.5t-96.5 -218.5q0 -103 49 -170t192.5 -139.5 t202.5 -123.5q119 -102 119 -260q0 -126 -65 -225q-132 -198 -449 -198q-185 0 -344 75z"/>
<glyph glyph-name="T" horiz-adv-x="985" unicode="T" d="M193 1368l20 94h973l-19 -94h-440l-289 -1368h-102l289 1368h-432z"/>
<glyph glyph-name="U" horiz-adv-x="1370" unicode="U" d="M176 381q0 83 27 201l186 880h103l-193 -899q-20 -89 -20 -184q0 -309 342 -309q195 0 307.5 96.5t158.5 318.5l207 977h101l-207 -977q-58 -270 -197 -387.5t-375 -117.5q-440 0 -440 401z"/>
<glyph glyph-name="V" horiz-adv-x="1079" unicode="V" d="M201 1462h100l117 -950q26 -217 35 -365h4q51 111 124 247l572 1068h117l-799 -1462h-88z"/>
<glyph glyph-name="W" horiz-adv-x="1702" unicode="W" d="M238 1462h100l47 -1031l4 -165l-2 -86h6q85 226 170 398l434 884h105l61 -878q19 -266 19 -410h6q30 86 61.5 163t493.5 1125h108q-169 -365 -330.5 -731t-328.5 -731h-78l-78 1075q-11 142 -11 219l1 47h-8q-27 -76 -62 -153.5t-563 -1187.5h-82z"/>
<glyph glyph-name="X" horiz-adv-x="971" unicode="X" d="M-135 0l608 766l-272 696h106l240 -626l483 626h119l-555 -719l285 -743h-107l-254 678l-526 -678h-127z"/>
<glyph glyph-name="Y" horiz-adv-x="965" unicode="Y" d="M193 1462h100l201 -817l544 817h117l-631 -932l-108 -530h-105l119 545z"/>
<glyph glyph-name="Z" d="M-12 0l22 92l1069 1276h-764l23 94h887l-19 -88l-1069 -1280h799l-23 -94h-925z" unicode="Z"/>
<glyph glyph-name="bracketleft" horiz-adv-x="537" unicode="[" d="M-57 -324l376 1786h429l-19 -90h-330l-340 -1605h330l-20 -91h-426z"/>
<glyph glyph-name="backslash" horiz-adv-x="641" unicode="\" d="M209 1462h86l242 -1462h-82z"/>
<glyph glyph-name="bracketright" horiz-adv-x="537" unicode="]" d="M-176 -324l18 91h330l340 1605h-330l21 90h426l-377 -1786h-428z"/>
<glyph glyph-name="asciicircum" horiz-adv-x="1047" unicode="^" d="M70 569l587 906h91l260 -906h-105l-217 809l-500 -809h-116z"/>
<glyph glyph-name="underscore" horiz-adv-x="801" unicode="_" d="M-182 -291l18 86h807l-18 -86h-807z"/>
<glyph glyph-name="grave" horiz-adv-x="1135" unicode="`" d="M487 1548v21h115q46 -129 164 -303v-25h-66q-50 52 -114 144.5t-99 162.5z"/>
<glyph glyph-name="a" horiz-adv-x="1133" unicode="a" d="M205 365q0 -295 201 -295q89 0 177.5 62t159 166t107.5 230t37 209t-26 145q-56 136 -204 136q-124 0 -224 -82t-164 -245.5t-64 -325.5zM102 354q0 197 75 376t200.5 276.5t277.5 97.5q232 0 279 -219h6l59 202h80l-229 -1087h-82l45 274h-6q-174 -294 -424 -294 q-281 0 -281 374z"/>
<glyph glyph-name="b" horiz-adv-x="1151" unicode="b" d="M268 346q0 -129 64 -202.5t177 -73.5t213 83t164 245t64 325q0 295 -194 295q-97 0 -186 -61.5t-160.5 -169.5t-106.5 -235t-35 -206zM76 0l327 1556h95q-131 -628 -162 -751h6q181 303 430 303q281 0 281 -375q0 -203 -76 -380t-201 -273t-257 -96q-252 0 -302 225h-6 l-55 -209h-80z"/>
<glyph glyph-name="c" horiz-adv-x="887" unicode="c" d="M102 395.5q0 194.5 73.5 363t198.5 257t274.5 88.5t256.5 -43l-28 -90q-107 47 -227 47t-223.5 -77t-162.5 -222t-59 -311.5t73.5 -252t209 -85.5t262.5 59v-92q-116 -57 -281.5 -57t-266 110.5t-100.5 305z"/>
<glyph glyph-name="d" horiz-adv-x="1133" unicode="d" d="M205 365q0 -295 201 -295q89 0 178.5 62.5t160 168t106.5 231t36 230.5t-61.5 180.5t-177 75.5t-215.5 -83t-164 -242.5t-64 -327.5zM102 354q0 193 71.5 370t197.5 278.5t284 101.5q230 0 279 -219h4q12 66 143 671h99l-330 -1556h-82l45 274h-6q-173 -294 -424 -294 q-281 0 -281 374z"/>
<glyph glyph-name="e" horiz-adv-x="928" unicode="e" d="M225 594h49q517 0 517 270q0 67 -43.5 110.5t-116.5 43.5q-131 0 -243.5 -115.5t-162.5 -308.5zM102 387.5q0 188.5 71 354.5t195.5 264t256.5 98t200 -61t68 -166q0 -181 -163.5 -276t-485.5 -95h-33q-6 -44 -6 -98q0 -165 74 -251.5t209.5 -86.5t279.5 73v-94 q-140 -69 -306 -69t-263 109.5t-97 298z"/>
<glyph glyph-name="f" horiz-adv-x="578" unicode="f" d="M-233 -383q53 -16 100 -16q88 0 134 53t75 186l246 1166h-205l14 67l205 14l35 160q35 168 116.5 244t227.5 76q73 0 166 -31l-25 -80q-87 27 -165 27q-170 0 -220 -232l-35 -164h248l-16 -81h-248l-252 -1190q-33 -161 -104 -234.5t-195 -73.5q-48 0 -102 19v90z"/>
<glyph glyph-name="g" horiz-adv-x="1040" unicode="g" d="M285 694.5q0 -95.5 58.5 -153.5t155.5 -58t163 37t102.5 114t36.5 175t-56 155.5t-153 57.5t-165 -43t-105 -116t-37 -168.5zM14 -208q0 -100 81 -149t254 -49t287 74.5t114 204.5q0 85 -62.5 130.5t-218.5 57.5l-160 15q-157 -45 -226 -114.5t-69 -169.5zM-88 -217 q0 236 309 334q-78 42 -78 123q0 123 191 202q-71 36 -110.5 105.5t-39.5 169t53.5 192.5t148 146t185 53t168.5 -21h361l-17 -79l-243 -11q26 -28 43.5 -84t17.5 -114q0 -109 -55 -207q-108 -193 -361 -193q-63 0 -77 9q-168 -69 -168 -154q0 -41 31.5 -64.5t113.5 -31.5 l121 -11q346 -31 346 -264q0 -112 -65 -197q-135 -178 -478 -178q-186 0 -291.5 72t-105.5 203z"/>
<glyph glyph-name="h" horiz-adv-x="1143" unicode="h" d="M76 0l332 1556h96l-86 -411q-44 -200 -66 -279h6q78 113 186.5 175.5t231 62.5t190.5 -65t68 -183q0 -70 -24 -182l-148 -674h-98l149 692q21 92 21 164t-43.5 117t-145 45t-199.5 -67q-196 -133 -270 -474l-102 -477h-98z"/>
<glyph glyph-name="i" horiz-adv-x="475" unicode="i" d="M350 1366q0 55 22 88t60 33q57 0 57 -64.5t-22 -97.5t-57 -33q-60 0 -60 74zM76 0l231 1087h96l-229 -1087h-98z"/>
<glyph glyph-name="j" horiz-adv-x="475" unicode="j" d="M350 1366q0 55 22 88t60 33q57 0 57 -64.5t-22 -97.5t-57 -33q-60 0 -60 74zM-279 -381q47 -22 121 -22t120.5 51.5t72.5 177.5l266 1261h96l-268 -1271q-35 -165 -106.5 -236.5t-188.5 -71.5q-62 0 -113 19v92z"/>
<glyph glyph-name="k" horiz-adv-x="944" unicode="k" d="M76 0l330 1556h96l-166 -780l-70 -299h4l609 610h125l-474 -469l297 -618h-106l-264 559l-205 -188l-80 -371h-96z"/>
<glyph glyph-name="l" horiz-adv-x="475" unicode="l" d="M76 0l334 1556h94l-334 -1556h-94z"/>
<glyph glyph-name="m" horiz-adv-x="1751" unicode="m" d="M72 0l231 1087h80l-33 -210h6q161 227 394 227q106 0 163 -67t60 -195h6q77 129 181 195.5t221.5 66.5t183 -61.5t65.5 -176.5q0 -57 -22 -176l-152 -690h-100l149 680q25 120 25 186.5t-43 109t-119 42.5q-157 0 -277.5 -137.5t-168.5 -362.5l-109 -518h-102l147 674 q25 125 25 162q0 182 -154 182q-106 0 -200 -68q-187 -134 -259 -475l-100 -475h-98z"/>
<glyph glyph-name="n" horiz-adv-x="1143" unicode="n" d="M76 0l231 1087h82l-37 -221h6q164 238 416 238q130 0 195 -64t65 -184q0 -70 -24 -182l-148 -674h-98l149 692q21 92 21 164t-43.5 117t-145 45t-199.5 -67q-196 -133 -270 -474l-102 -477h-98z"/>
<glyph glyph-name="o" horiz-adv-x="1124" unicode="o" d="M201 408q0 -342 282 -342q127 0 225.5 77.5t157 228t58.5 317.5t-73 250t-203.5 83t-229.5 -78.5t-158 -225t-59 -310.5zM98 396.5q0 197.5 73 364.5t197 257t292.5 90t267 -108.5t98.5 -302.5t-71.5 -365.5t-195.5 -261.5t-297 -90t-268.5 109.5t-95.5 307z"/>
<glyph glyph-name="p" horiz-adv-x="1149" unicode="p" d="M266 323.5q0 -102.5 61.5 -178t177 -75.5t216.5 84t164 243.5t63 325.5q0 295 -200 295q-87 0 -174 -58.5t-161.5 -167.5t-110.5 -237.5t-36 -231zM-33 -492l336 1579h82l-45 -274h6q175 295 424 295q135 0 208 -92.5t73 -285t-72 -368.5t-197.5 -277t-283.5 -101 q-230 0 -279 219h-4q-13 -72 -149 -695h-99z"/>
<glyph glyph-name="q" horiz-adv-x="1157" unicode="q" d="M201 365q0 -295 191 -295q101 0 191 62.5t160.5 171.5t105 236.5t34.5 200.5q0 130 -63.5 203.5t-177 73.5t-213.5 -83t-164 -245t-64 -325zM98 354q0 201 75.5 379t200.5 274.5t277 96.5q109 0 183.5 -58t99.5 -167h6l55 208h80l-327 -1556h-95l98 470l64 282h-6 q-181 -303 -430 -303q-281 0 -281 374z"/>
<glyph glyph-name="r" horiz-adv-x="752" unicode="r" d="M72 0l231 1087h80l-29 -204h6q73 94 123 135.5t106.5 64.5t124.5 23t122 -14l-21 -93q-47 15 -127 15t-165 -64t-153 -192t-100 -277l-100 -481h-98z"/>
<glyph glyph-name="s" horiz-adv-x="827" unicode="s" d="M25 55v107q154 -96 296.5 -96t215.5 57.5t73 163.5q0 79 -66 135q-34 30 -132 86q-148 80 -200 145.5t-52 159.5q0 128 98.5 209.5t259.5 81.5q75 0 158.5 -17.5t140.5 -46.5l-35 -88q-136 64 -258 64t-192 -53t-70 -138q0 -55 17 -88q34 -66 164 -137t177 -112 q93 -78 93 -207.5t-103 -215t-278 -85.5t-307 75z"/>
<glyph glyph-name="t" horiz-adv-x="616" unicode="t" d="M113 1006l14 67l184 17l97 253h55l-55 -256h286l-18 -81h-283l-135 -635q-22 -99 -22 -164q0 -139 126 -139q68 0 152 26v-86q-101 -28 -185 -28t-138 54.5t-54 143t29 221.5l129 607h-182z"/>
<glyph glyph-name="u" horiz-adv-x="1143" unicode="u" d="M109 227q0 60 22 170l150 690h100l-152 -698q-22 -106 -22 -169t47.5 -106.5t148 -43.5t197.5 66q194 129 264 466l105 485h98l-231 -1087h-80l28 205h-6q-167 -221 -403 -221q-131 0 -198.5 62t-67.5 181z"/>
<glyph glyph-name="v" horiz-adv-x="895" unicode="v" d="M104 1087h101l108 -735q26 -165 33 -254h6q51 115 129 256l406 733h102l-600 -1087h-113z"/>
<glyph glyph-name="w" horiz-adv-x="1393" unicode="w" d="M121 1087h92l13 -821l-3 -157h6q61 134 150 297l373 681h77l64 -681q14 -147 14 -297h6l125 297l320 681h96l-508 -1087h-108l-60 686q-14 224 -14 266h-6q-34 -92 -144 -290l-356 -662h-117z"/>
<glyph glyph-name="x" horiz-adv-x="922" unicode="x" d="M-72 0l471 559l-245 528h100l207 -462l373 462h120l-448 -534l258 -553h-98l-224 483l-393 -483h-121z"/>
<glyph glyph-name="y" horiz-adv-x="920" unicode="y" d="M-217 -379q71 -27 144 -27t140 49.5t130 164.5t100 184l-174 1095h100l82 -548q51 -351 55 -449h11q43 105 186 367l348 630h103l-713 -1290q-72 -127 -123 -178q-109 -111 -260 -111q-68 0 -129 21v92z"/>
<glyph glyph-name="z" horiz-adv-x="887" unicode="z" d="M-29 0l15 72l776 932h-543l17 83h659l-18 -83l-762 -920h602l-17 -84h-729z"/>
<glyph glyph-name="braceleft" horiz-adv-x="709" unicode="{" d="M59 528l21 78q126 0 191 49t89 158l89 393q30 135 106 195.5t215 60.5h29l-17 -86q-86 -2 -129 -20q-80 -35 -114 -182l-74 -338q-30 -134 -91.5 -194.5t-164.5 -78.5v-4q68 -18 105.5 -68.5t37.5 -112t-24 -173.5l-47 -225q-13 -58 -13 -110t37.5 -80t138.5 -28v-86h-20 q-256 0 -256 199q0 45 16 115l56 252q18 90 18 127q0 159 -199 159z"/>
<glyph glyph-name="bar" d="M584 -510v2071h100v-2071h-100z" unicode="|"/>
<glyph glyph-name="braceright" horiz-adv-x="709" unicode="}" d="M-41 -238q96 2 138 21q81 37 112 182l74 338q27 126 87.5 189.5t168.5 82.5v5q-75 20 -109.5 72.5t-34.5 112.5t18 136l54 258q12 61 12 103t-18 67t-54 36t-116 11l20 86h21q248 0 248 -198q0 -41 -17 -115l-55 -252q-19 -95 -19 -127q0 -160 199 -160l-20 -78 q-125 0 -191 -48.5t-90 -157.5l-88 -394q-32 -139 -108.5 -197.5t-213.5 -58.5h-18v86z"/>
<glyph glyph-name="asciitilde" d="M127 625v94q108 110 233 110q61 0 115 -13.5t168 -64.5t213.5 -51t218.5 125v-96q-111 -113 -230.5 -113t-273.5 72q-122 57 -226 57t-218 -120z" unicode="~"/>
<glyph glyph-name="uni00A0" horiz-adv-x="532" unicode=" "/>
<glyph glyph-name="cent" d="M250 609.5q0 174.5 63.5 331.5t178 253t256.5 111l36 178h90l-38 -176q116 -4 217 -43l-29 -90q-107 47 -227 47t-223 -76t-162.5 -221t-59.5 -315.5t74.5 -253.5t205 -83t267.5 60v-92q-118 -58 -281 -58l-40 -202h-93l45 215q-132 25 -206 132.5t-74 282z" unicode="¢"/>
<glyph glyph-name="sterling" d="M-4 0l16 84q93 11 165.5 95.5t107.5 236.5l57 260h-199l17 82h198l76 350q41 187 155 279t287 92t316 -78l-39 -84l-54 26q-108 50 -236.5 50t-215 -74.5t-117.5 -220.5l-73 -340h409l-18 -82h-408l-57 -268q-50 -225 -188 -314h759l-20 -94h-938z" unicode="£"/>
<glyph glyph-name="yen" d="M166 289l18 84h299l41 190h-301l17 76h258l-215 823h100l201 -817l544 817h117l-559 -823h266l-16 -76h-315l-39 -190h317l-18 -84h-316l-59 -289h-105l64 289h-299z" unicode="¥"/>
<glyph glyph-name="dieresis" horiz-adv-x="1135" unicode="¨" d="M836 1359q0 114 77 114q54 0 54 -56t-21 -85t-55 -29q-55 0 -55 56zM492 1359q0 114 77 114q54 0 54 -56t-21 -85t-55 -29q-55 0 -55 56z"/>
<glyph glyph-name="copyright" horiz-adv-x="1704" unicode="©" d="M537 721.5q0 210.5 110 335.5t297 125q119 0 227 -52l-36 -83q-99 45 -191 45q-142 0 -222.5 -94.5t-80.5 -264.5q0 -364 295 -364q85 0 199 43v-88q-104 -45 -209 -45q-187 0 -288 116t-101 326.5zM240 729q0 -176 88.5 -327.5t240.5 -240.5t328 -89t327 85.5t243 239 t92 333t-89 331.5t-240.5 241t-332 89t-333.5 -92t-238.5 -243t-85.5 -327zM147 732q0 199 100 374t275 276t376 101t376 -100t276 -275t101 -374.5t-97 -372.5t-272 -277t-382.5 -104t-382.5 103.5t-272.5 276.5t-97.5 372z"/>
<glyph glyph-name="guillemotleft" horiz-adv-x="860" unicode="«" d="M422 541l2 26l362 365l58 -49l-314 -336l209 -385l-63 -39zM61 541l2 26l363 365l57 -49l-317 -336l213 -385l-64 -39z"/>
<glyph glyph-name="uni00AD" horiz-adv-x="629" unicode="­" d="M82 502l18 90h457l-16 -90h-459z"/>
<glyph glyph-name="registered" horiz-adv-x="1704" unicode="®" d="M758 731h112q93 0 144 46.5t51 135.5q0 172 -197 172h-110v-354zM657 291v880h211q301 0 301 -253q0 -80 -39.5 -141t-109.5 -93l237 -393h-120l-211 360h-168v-360h-101zM242 729q0 -176 88.5 -327.5t240.5 -240.5t328 -89t327 85.5t243 239t92 333t-89 331.5 t-240.5 241t-332 89t-333.5 -92t-238.5 -243t-85.5 -327zM150 732q0 206 103.5 381t276.5 272.5t372 97.5t374 -100t276 -275t101 -374.5t-97 -372.5t-272 -277t-381 -104t-378.5 100.5t-273.5 273t-101 378.5z"/>
<glyph glyph-name="acute" horiz-adv-x="1135" unicode="´" d="M580 1241v21q66 51 150.5 142t129.5 165h137v-23q-51 -66 -157.5 -158.5t-192.5 -146.5h-67z"/>
<glyph glyph-name="cedilla" horiz-adv-x="420" unicode="¸" d="M-174 -406q30 -6 72 -6q198 0 198 115q0 97 -151 107l110 190h80l-78 -137q140 -30 140 -152q0 -94 -75.5 -148.5t-217.5 -54.5q-46 0 -78 7v79z"/>
<glyph glyph-name="guillemotright" horiz-adv-x="860" unicode="»" d="M393 172l314 336l-209 385l63 39l254 -418l-2 -27l-362 -364zM33 172l313 336l-209 385l64 39l254 -418l-2 -27l-363 -364z"/>
<glyph glyph-name="circumflex" horiz-adv-x="1135" unicode="ˆ" d="M444 1241v29q68 56 157.5 148.5t127.5 150.5h64q23 -64 72.5 -152.5t92.5 -146.5v-29h-49q-70 60 -161 207q-120 -124 -250 -207h-54z"/>
<glyph glyph-name="tilde" horiz-adv-x="1135" unicode="˜" d="M346 1243q40 225 205 225q41 0 73.5 -14t101 -61t110.5 -47q84 0 118 131h76q-26 -118 -74.5 -173t-124.5 -55q-59 0 -153 64q-34 23 -64.5 41t-72 18t-70.5 -28.5t-51 -100.5h-74z"/>
<glyph glyph-name="uni0400" horiz-adv-x="1067" unicode="Ѐ" d="M612 1886v21h115q46 -129 164 -303v-25h-66q-50 52 -114 144.5t-99 162.5zM102 0l310 1462h727l-21 -94h-624l-117 -553h590l-21 -94h-588l-135 -627h627l-21 -94h-727z"/>
<glyph glyph-name="afii10023" horiz-adv-x="1067" unicode="Ё" d="M902 1697q0 114 77 114q54 0 54 -56t-21 -85t-55 -29q-55 0 -55 56zM558 1697q0 114 77 114q54 0 54 -56t-21 -85t-55 -29q-55 0 -55 56zM102 0l310 1462h727l-21 -94h-624l-117 -553h590l-21 -94h-588l-135 -627h627l-21 -94h-727z"/>
<glyph glyph-name="afii10051" horiz-adv-x="1292" unicode="Ђ" d="M197 1368l20 94h850l-18 -94h-443l-106 -496h305q167 0 248.5 -76.5t81.5 -211.5q0 -75 -15 -148l-24 -129q-32 -164 -120 -242.5t-245 -78.5q-59 0 -129 14v98q84 -18 129 -18q121 0 183.5 60t89.5 210l16 90q12 64 12 133q0 109 -59.5 159t-190.5 50h-301l-164 -782 h-102l289 1368h-307z"/>
<glyph glyph-name="afii10052" horiz-adv-x="981" unicode="Ѓ" d="M664 1579v21q66 51 150.5 142t129.5 165h137v-23q-51 -66 -157.5 -158.5t-192.5 -146.5h-67zM102 0l310 1462h708l-20 -94h-604l-291 -1368h-103z"/>
<glyph glyph-name="afii10053" horiz-adv-x="1169" unicode="Є" d="M170 529.5q0 263.5 101 484.5t280.5 345t409.5 124q177 0 307 -68l-45 -90q-113 64 -262 64q-241 0 -411 -151t-239 -415h676l-18 -94h-678q-17 -85 -17 -190q0 -226 111.5 -346.5t316.5 -120.5q140 0 304 51v-94q-156 -49 -316 -49q-252 0 -386 143t-134 406.5z"/>
<glyph glyph-name="afii10054" horiz-adv-x="1020" unicode="Ѕ" d="M37 55v109q163 -92 349.5 -92t294 86.5t107.5 232.5q0 114 -70 183q-35 35 -90.5 68t-131.5 75q-150 76 -209.5 164t-59.5 206t59 207.5t165 139t221 49.5t196 -17.5t168 -60.5l-32 -94q-142 86 -310.5 86t-265 -82.5t-96.5 -218.5q0 -103 49 -170t192.5 -139.5 t202.5 -123.5q119 -102 119 -260q0 -126 -65 -225q-132 -198 -449 -198q-185 0 -344 75z"/>
<glyph glyph-name="afii10055" horiz-adv-x="504" unicode="І" d="M102 0l310 1462h98l-309 -1462h-99z"/>
<glyph glyph-name="afii10056" horiz-adv-x="504" unicode="Ї" d="M604 1697q0 114 77 114q54 0 54 -56t-21 -85t-55 -29q-55 0 -55 56zM260 1697q0 114 77 114q54 0 54 -56t-21 -85t-55 -29q-55 0 -55 56zM102 0l310 1462h98l-309 -1462h-99z"/>
<glyph glyph-name="afii10057" horiz-adv-x="477" unicode="Ј" d="M-324 -336l11 92q57 -20 137 -20q213 0 262 241l309 1485h105l-314 -1491q-35 -170 -125 -250.5t-241 -80.5q-96 0 -144 24z"/>
<glyph glyph-name="afii10058" horiz-adv-x="1817" unicode="Љ" d="M922 90h239q205 0 315.5 92t110.5 277q0 134 -74.5 198t-224.5 64h-231zM-84 -6v96q45 -16 112.5 -16t122 44t103.5 144q96 192 387 1200h573l-139 -651h232q187 0 287 -89.5t100 -256.5q0 -223 -140 -344t-391 -121h-362l289 1368h-371l-40 -137q-257 -881 -359 -1061 q-57 -100 -129 -146.5t-149.5 -46.5t-125.5 17z"/>
<glyph glyph-name="afii10059" horiz-adv-x="1894" unicode="Њ" d="M999 90h240q204 0 315 92t111 277q0 132 -73.5 196t-225.5 64h-231zM102 0l310 1462h102l-139 -649h676l137 649h104l-139 -649h231q186 0 287 -90.5t101 -257.5q0 -223 -140 -344t-391 -121h-362l151 719h-676l-149 -719h-103z"/>
<glyph glyph-name="afii10060" horiz-adv-x="1313" unicode="Ћ" d="M197 1368l20 94h850l-18 -94h-443l-106 -496h305q332 0 332 -294q0 -41 -6.5 -82.5t-108.5 -495.5h-98l84 379q28 117 28 184q0 115 -59.5 167t-194.5 52h-301l-164 -782h-102l289 1368h-307z"/>
<glyph glyph-name="afii10061" horiz-adv-x="1106" unicode="Ќ" d="M721 1579v21q66 51 150.5 142t129.5 165h137v-23q-51 -66 -157.5 -158.5t-192.5 -146.5h-67zM102 0l310 1462h102l-158 -727l787 727h143l-809 -733l563 -729h-129l-555 729l-151 -729h-103z"/>
<glyph glyph-name="uni040D" horiz-adv-x="1368" unicode="Ѝ" d="M690 1886v21h115q46 -129 164 -303v-25h-66q-50 52 -114 144.5t-99 162.5zM102 0l310 1462h102l-186 -878q-79 -346 -95 -406l1035 1284h110l-309 -1462h-100q120 569 184.5 876t99.5 431l-1050 -1307h-101z"/>
<glyph glyph-name="afii10062" horiz-adv-x="1145" unicode="Ў" d="M503 1792q0 38 13 74h82q-8 -45 -8 -62q0 -68 42.5 -103.5t143.5 -35.5q231 0 258 201h94q-17 -137 -110.5 -212t-238.5 -75t-210.5 58t-65.5 155zM-23 10v111q67 -37 170 -37t195 71.5t209 264.5l-318 1042h105l194 -651q13 -41 89 -319q33 61 88.5 156t507.5 814h116 l-723 -1140q-112 -180 -223.5 -261t-253.5 -81q-93 0 -156 30z"/>
<glyph glyph-name="afii10145" horiz-adv-x="1374" unicode="Џ" d="M102 0l310 1462h100l-289 -1366h758l289 1366h102l-309 -1462h-424l-76 -356h-100l78 356h-439z"/>
<glyph glyph-name="afii10017" horiz-adv-x="1059" unicode="А" d="M344 612h449l-39 291q-31 242 -39 402q-60 -125 -371 -693zM-111 0l822 1468h67l201 -1468h-105l-69 520h-512l-287 -520h-117z"/>
<glyph glyph-name="afii10018" horiz-adv-x="1112" unicode="Б" d="M223 90h240q204 0 315 92t111 277q0 134 -74.5 198t-224.5 64h-232zM102 0l310 1462h680l-21 -94h-575l-119 -557h231q187 0 287 -89.5t100 -256.5q0 -222 -139 -343.5t-391 -121.5h-363z"/>
<glyph glyph-name="afii10019" horiz-adv-x="1202" unicode="В" d="M377 811h278q206 0 313 81t107 238q0 119 -78 180.5t-229 61.5h-272zM223 90h342q201 0 309.5 87.5t108.5 256.5q0 287 -365 287h-260zM102 0l310 1462h379q190 0 290.5 -84t100.5 -239t-90 -251t-254 -124v-4q125 -31 188.5 -113.5t63.5 -204.5q0 -205 -140.5 -323.5 t-390.5 -118.5h-457z"/>
<glyph glyph-name="afii10020" horiz-adv-x="981" unicode="Г" d="M102 0l310 1462h708l-20 -94h-604l-291 -1368h-103z"/>
<glyph glyph-name="afii10021" horiz-adv-x="1165" unicode="Д" d="M139 94h697l270 1274h-344q-146 -435 -308.5 -765.5t-314.5 -508.5zM-164 -356l105 450h79q352 409 670 1368h539l-291 -1368h170l-98 -450h-105l80 356h-967l-81 -356h-101z"/>
<glyph glyph-name="afii10022" horiz-adv-x="1067" unicode="Е" d="M102 0l310 1462h727l-21 -94h-624l-117 -553h590l-21 -94h-588l-135 -627h627l-21 -94h-727z"/>
<glyph glyph-name="afii10024" horiz-adv-x="1491" unicode="Ж" d="M-88 0l729 760l-424 702h125l414 -704l147 704h103l-152 -706l692 706h140l-717 -725l434 -737h-123l-430 737l-154 -737h-102l158 739l-699 -739h-141z"/>
<glyph glyph-name="afii10025" horiz-adv-x="1020" unicode="З" d="M-31 59v117q183 -106 394.5 -106t321.5 93.5t110 260.5q0 287 -373 287h-182l18 96h178q131 0 237 45q210 89 210 307q0 114 -67 176t-191 62q-168 0 -340 -119l-54 76q190 129 406 129q165 0 257.5 -82t92.5 -237t-91 -258.5t-267 -145.5v-4q130 -23 199 -110.5 t69 -222.5t-67 -237q-136 -206 -472 -206q-211 0 -389 79z"/>
<glyph glyph-name="afii10026" horiz-adv-x="1368" unicode="И" d="M102 0l310 1462h102l-186 -878q-79 -346 -95 -406l1035 1284h110l-309 -1462h-100q120 569 184.5 876t99.5 431l-1050 -1307h-101z"/>
<glyph glyph-name="afii10027" horiz-adv-x="1368" unicode="Й" d="M628 1792q0 38 13 74h82q-8 -45 -8 -62q0 -68 42.5 -103.5t143.5 -35.5q231 0 258 201h94q-17 -137 -110.5 -212t-238.5 -75t-210.5 58t-65.5 155zM102 0l310 1462h102l-186 -878q-79 -346 -95 -406l1035 1284h110l-309 -1462h-100q120 569 184.5 876t99.5 431 l-1050 -1307h-101z"/>
<glyph glyph-name="afii10028" horiz-adv-x="1106" unicode="К" d="M102 0l310 1462h102l-158 -727l787 727h143l-809 -733l563 -729h-129l-555 729l-151 -729h-103z"/>
<glyph glyph-name="afii10029" horiz-adv-x="1266" unicode="Л" d="M-84 -6v96q45 -16 112.5 -16t122 44t103.5 144q96 192 387 1200h633l-309 -1462h-101l289 1368h-434l-40 -137q-257 -881 -359 -1061q-57 -100 -129 -146.5t-149.5 -46.5t-125.5 17z"/>
<glyph glyph-name="afii10030" horiz-adv-x="1669" unicode="М" d="M109 0l309 1462h143l205 -1257h6l733 1257h150l-301 -1462h-101l191 901q79 369 100 447h-6l-780 -1348h-51l-222 1348h-6q-20 -154 -78 -426l-196 -922h-96z"/>
<glyph glyph-name="afii10031" horiz-adv-x="1366" unicode="Н" d="M102 0l310 1462h102l-139 -649h760l137 649h100l-309 -1462h-100l151 719h-760l-149 -719h-103z"/>
<glyph glyph-name="afii10032" horiz-adv-x="1464" unicode="О" d="M276 560.5q0 -232.5 109.5 -360.5t319.5 -128q169 0 300 98.5t210 300t79 436t-104.5 358.5t-294.5 124t-324.5 -101t-214.5 -298t-80 -429.5zM172 549.5q0 271.5 93 487t255 331t391 115.5t360.5 -148.5t131.5 -413.5t-94 -491.5t-252 -338t-365 -111.5q-250 0 -385 149 t-135 420.5z"/>
<glyph glyph-name="afii10033" horiz-adv-x="1374" unicode="П" d="M102 0l310 1462h960l-309 -1462h-100l288 1366h-757l-289 -1366h-103z"/>
<glyph glyph-name="afii10034" horiz-adv-x="1145" unicode="Р" d="M350 694h191q252 0 373.5 96.5t121.5 305.5q0 274 -329 274h-211zM102 0l310 1462h315q202 0 310 -92.5t108 -267.5q0 -500 -610 -500h-201l-129 -602h-103z"/>
<glyph glyph-name="afii10035" horiz-adv-x="1169" unicode="С" d="M170 535.5q0 265.5 104.5 487.5t284.5 341t379.5 119t329.5 -68l-45 -90q-117 64 -262 64q-197 0 -351.5 -104.5t-245 -304.5t-90.5 -433t110.5 -354t317.5 -121q140 0 304 51v-94q-156 -49 -316 -49q-252 0 -386 145t-134 410.5z"/>
<glyph glyph-name="afii10036" horiz-adv-x="985" unicode="Т" d="M193 1368l20 94h973l-19 -94h-440l-289 -1368h-102l289 1368h-432z"/>
<glyph glyph-name="afii10037" horiz-adv-x="1145" unicode="У" d="M-23 10v111q67 -37 170 -37t195 71.5t209 264.5l-318 1042h105l194 -651q13 -41 89 -319q33 61 88.5 156t507.5 814h116l-723 -1140q-112 -180 -223.5 -261t-253.5 -81q-93 0 -156 30z"/>
<glyph glyph-name="afii10038" horiz-adv-x="1446" unicode="Ф" d="M733 305q264 8 409.5 147t145.5 388q0 163 -92 257.5t-274 100.5zM258 671.5q0 -163.5 100 -263t273 -103.5l188 893q-351 -6 -491 -245q-70 -118 -70 -281.5zM156 674q0 177 82 318q168 288 602 300l41 191h100l-39 -191q218 -14 334.5 -129.5t116.5 -309.5t-84 -337.5 t-237 -219.5t-357 -83l-51 -233h-103l49 233q-144 8 -246 69q-208 127 -208 392z"/>
<glyph glyph-name="afii10039" horiz-adv-x="971" unicode="Х" d="M-135 0l608 766l-272 696h106l240 -626l483 626h119l-555 -719l285 -743h-107l-254 678l-526 -678h-127z"/>
<glyph glyph-name="afii10040" horiz-adv-x="1423" unicode="Ц" d="M102 0l310 1462h100l-289 -1368h758l291 1368h100l-289 -1368h168l-98 -450h-104l79 356h-1026z"/>
<glyph glyph-name="afii10041" horiz-adv-x="1192" unicode="Ч" d="M205 801q0 64 22 164l105 497h102l-102 -483q-25 -116 -25 -172q0 -92 57 -139t162 -47q195 0 412 90l160 751h100l-309 -1462h-101l132 621q-219 -91 -386 -91q-329 0 -329 271z"/>
<glyph glyph-name="afii10042" horiz-adv-x="1905" unicode="Ш" d="M102 0l310 1462h100l-289 -1368h600l291 1368h100l-288 -1368h602l291 1368h100l-309 -1462h-1508z"/>
<glyph glyph-name="afii10043" horiz-adv-x="1970" unicode="Щ" d="M102 0l310 1462h100l-289 -1368h600l291 1368h100l-288 -1368h602l291 1368h100l-289 -1368h168l-98 -450h-105l80 356h-1573z"/>
<glyph glyph-name="afii10044" horiz-adv-x="1262" unicode="Ъ" d="M367 90h239q205 0 315.5 92t110.5 277q0 134 -74.5 198t-224.5 64h-231zM193 1368l20 94h446l-139 -651h232q187 0 287 -89.5t100 -256.5q0 -223 -140 -344t-391 -121h-362l289 1368h-342z"/>
<glyph glyph-name="afii10045" horiz-adv-x="1536" unicode="Ы" d="M1141 0l309 1462h102l-309 -1462h-102zM223 90h240q204 0 315 92t111 277q0 134 -74.5 198t-224.5 64h-232zM102 0l310 1462h104l-139 -651h231q187 0 287 -89.5t100 -256.5q0 -222 -139 -343.5t-391 -121.5h-363z"/>
<glyph glyph-name="afii10046" horiz-adv-x="1118" unicode="Ь" d="M223 90h240q204 0 315 92t111 277q0 134 -74.5 198t-224.5 64h-232zM102 0l310 1462h104l-139 -651h231q187 0 287 -89.5t100 -256.5q0 -222 -139 -343.5t-391 -121.5h-363z"/>
<glyph glyph-name="afii10047" horiz-adv-x="1169" unicode="Э" d="M14 55v109q184 -92 351 -92q254 0 410.5 168t205.5 493h-666l17 96h659l2 72q0 239 -105.5 363.5t-309.5 124.5q-128 0 -306 -64l-26 94q192 64 346 64q250 0 380 -148.5t130 -422t-95.5 -493.5t-259.5 -329.5t-376 -109.5t-357 75z"/>
<glyph glyph-name="afii10048" horiz-adv-x="2025" unicode="Ю" d="M838 559.5q0 -231.5 109.5 -359.5t318.5 -128q169 0 300 98.5t210 300t79 436t-104.5 358.5t-294 124t-324 -100.5t-214.5 -299t-80 -430zM102 0l310 1462h102l-139 -649h383q40 203 136.5 354.5t240.5 233.5t319 82q247 0 378.5 -148.5t131.5 -408.5t-88 -484.5 t-248 -343t-392.5 -118.5t-367.5 149t-135 430q0 96 8 160h-387l-149 -719h-103z"/>
<glyph glyph-name="afii10049" horiz-adv-x="1118" unicode="Я" d="M358 1012q0 -133 82 -210t230 -77h204l138 645h-197q-229 0 -343 -91.5t-114 -266.5zM-51 0l532 662q-105 40 -165 132.5t-60 211.5q0 219 143 337.5t402 118.5h332l-310 -1462h-102l133 635h-266l-514 -635h-125z"/>
<glyph glyph-name="afii10065" horiz-adv-x="1133" unicode="а" d="M205 365q0 -295 201 -295q89 0 177.5 62t159 166t107.5 230t37 209t-26 145q-56 136 -204 136q-124 0 -224 -82t-164 -245.5t-64 -325.5zM102 354q0 197 75 376t200.5 276.5t277.5 97.5q232 0 279 -219h6l59 202h80l-229 -1087h-82l45 274h-6q-174 -294 -424 -294 q-281 0 -281 374z"/>
<glyph glyph-name="afii10066" horiz-adv-x="1061" unicode="б" d="M199 442q0 -376 259 -376q248 0 344 261q46 123 46 281t-62.5 234t-167.5 76t-200.5 -58t-200.5 -192q-18 -105 -18 -226zM98 444q0 230 67.5 455.5t178.5 363t252 183.5q93 30 259 63.5t241 44.5l12 -86l-63 -12q-306 -57 -434 -101t-226.5 -188.5t-153.5 -378.5h5 q178 218 397 218q150 0 233.5 -99t83.5 -286.5t-64 -339.5q-125 -301 -431 -301q-172 0 -264.5 117t-92.5 347z"/>
<glyph glyph-name="afii10067" horiz-adv-x="1065" unicode="в" d="M213 575h240q213 0 321.5 65t108.5 187q0 88 -56 139.5t-161 51.5q-166 0 -290 -121.5t-163 -321.5zM203 414q0 -169 80.5 -256.5t229.5 -87.5t229.5 62t80.5 169q0 186 -270 186h-348zM104 408q0 199 73 357.5t203.5 248.5t286 90t237 -70.5t81.5 -192.5 q0 -239 -280 -300v-4q104 -17 162.5 -76.5t58.5 -152.5t-50.5 -168t-146 -117.5t-227.5 -42.5q-194 0 -296 114.5t-102 313.5z"/>
<glyph glyph-name="afii10068" horiz-adv-x="913" unicode="г" d="M78 242q0 158 144 258q73 50 224 109.5t206 93.5q106 66 106 163q0 150 -189 150q-124 0 -309 -72l-29 86q167 58 238.5 66t112.5 8q136 0 207 -58.5t71 -168t-76.5 -187.5t-248 -140.5t-233.5 -101.5q-122 -76 -122 -202q0 -87 55 -133.5t190.5 -46.5t299.5 73v-90 q-175 -69 -330.5 -69t-236 68.5t-80.5 193.5z"/>
<glyph glyph-name="afii10069" horiz-adv-x="1112" unicode="д" d="M205 365q0 -295 221 -295q161 0 290.5 174t188.5 473q-70 266 -268 266q-116 0 -216.5 -87.5t-158 -231t-57.5 -299.5zM102 359q0 179 74 350t196 265.5t269 94.5q217 0 283 -209h6q4 28 4 103q0 524 -291 524q-53 0 -115.5 -19.5t-99.5 -42.5l-39 82q121 70 264 70 q194 0 286.5 -148t92.5 -454q0 -181 -51 -376t-137 -337q-172 -282 -434 -282q-147 0 -227.5 100t-80.5 279z"/>
<glyph glyph-name="afii10070" horiz-adv-x="928" unicode="е" d="M225 594h49q517 0 517 270q0 67 -43.5 110.5t-116.5 43.5q-131 0 -243.5 -115.5t-162.5 -308.5zM102 387.5q0 188.5 71 354.5t195.5 264t256.5 98t200 -61t68 -166q0 -181 -163.5 -276t-485.5 -95h-33q-6 -44 -6 -98q0 -165 74 -251.5t209.5 -86.5t279.5 73v-94 q-140 -69 -306 -69t-263 109.5t-97 298z"/>
<glyph glyph-name="afii10072" horiz-adv-x="1581" unicode="ж" d="M-51 -4l18 92q56 -18 127 -18q116 0 210 79t149 219.5t55 307.5q0 338 -244 338q-52 0 -112 -10v88q72 12 120 12q334 0 334 -420q0 -50 -4 -82h164l104 485h95l-103 -485h162q58 308 267 438q102 64 233 64q77 0 135 -17l-19 -92q-57 19 -127 19q-113 0 -206.5 -76 t-150 -218.5t-56.5 -310.5q0 -339 243 -339q53 0 113 10v-88q-72 -12 -121 -12q-334 0 -334 419q0 46 9 115h-166l-109 -514h-96l109 514h-158q-62 -331 -273 -468q-103 -66 -233 -66q-75 0 -135 16z"/>
<glyph glyph-name="afii10073" horiz-adv-x="799" unicode="з" d="M-18 45v109q139 -86 286 -86t229.5 68.5t82.5 180.5t-64.5 159.5t-206.5 47.5h-84l21 92h90q146 0 226.5 59.5t80.5 170.5q0 78 -52 125t-155.5 47t-232.5 -80l-41 80q83 50 153 68t156 18q130 0 202 -65t72 -179.5t-66 -188.5t-187 -98v-4q94 -20 142 -82.5t48 -161.5 t-51 -178.5t-145 -123t-243.5 -43.5t-260.5 65z"/>
<glyph glyph-name="afii10074" horiz-adv-x="1143" unicode="и" d="M109 227q0 60 22 170l150 690h100l-152 -698q-22 -106 -22 -169t47.5 -106.5t148 -43.5t197.5 66q194 129 264 466l105 485h98l-231 -1087h-80l28 205h-6q-167 -221 -403 -221q-131 0 -198.5 62t-67.5 181z"/>
<glyph glyph-name="afii10075" horiz-adv-x="1143" unicode="й" d="M434 1454q0 38 13 74h82q-8 -45 -8 -62q0 -68 42.5 -103.5t143.5 -35.5q231 0 258 201h94q-17 -137 -110.5 -212t-238.5 -75t-210.5 58t-65.5 155zM109 227q0 60 22 170l150 690h100l-152 -698q-22 -106 -22 -169t47.5 -106.5t148 -43.5t197.5 66q194 129 264 466 l105 485h98l-231 -1087h-80l28 205h-6q-167 -221 -403 -221q-131 0 -198.5 62t-67.5 181z"/>
<glyph glyph-name="afii10076" horiz-adv-x="932" unicode="к" d="M72 0l225 1087h98l-110 -524l573 524h146l-607 -534l404 -553h-127l-391 549l-113 -549h-98z"/>
<glyph glyph-name="afii10077" horiz-adv-x="1028" unicode="л" d="M-102 -2v90q29 -8 59 -8q74 0 122 38t94.5 131t126 327t141.5 333.5t143 143t181 43.5t191 -17l-231 -1079h-96l215 1006q-38 6 -74 6q-92 0 -152 -39.5t-112 -134t-130.5 -328t-133.5 -332.5t-121 -143.5t-162 -44.5q-37 0 -61 8z"/>
<glyph glyph-name="afii10078" horiz-adv-x="1305" unicode="м" d="M45 0l231 1087h101l153 -798q27 -158 27 -170q26 55 62.5 117t529.5 851h117l-234 -1087h-88l197 930q-17 -32 -39 -70t-531 -860h-67l-146 723q-28 135 -30 201l-193 -924h-90z"/>
<glyph glyph-name="afii10079" horiz-adv-x="1208" unicode="н" d="M74 0l233 1087h96l-100 -479h625l104 479h101l-232 -1087h-102l110 516h-624l-111 -516h-100z"/>
<glyph glyph-name="afii10080" horiz-adv-x="1124" unicode="о" d="M201 408q0 -342 282 -342q127 0 225.5 77.5t157 228t58.5 317.5t-73 250t-203.5 83t-229.5 -78.5t-158 -225t-59 -310.5zM98 396.5q0 197.5 73 364.5t197 257t292.5 90t267 -108.5t98.5 -302.5t-71.5 -365.5t-195.5 -261.5t-297 -90t-268.5 109.5t-95.5 307z"/>
<glyph glyph-name="afii10081" horiz-adv-x="1143" unicode="п" d="M76 0l231 1087h82l-37 -221h6q164 238 416 238q130 0 195 -64t65 -184q0 -70 -24 -182l-148 -674h-98l149 692q21 92 21 164t-43.5 117t-145 45t-199.5 -67q-196 -133 -270 -474l-102 -477h-98z"/>
<glyph glyph-name="afii10082" horiz-adv-x="1163" unicode="р" d="M266 323.5q0 -102.5 61.5 -178t177 -75.5t216.5 84t164 243.5t63 325.5q0 295 -200 295q-87 0 -174 -58.5t-161.5 -167.5t-110.5 -237.5t-36 -231zM-33 -492l336 1579h82l-45 -274h6q175 295 424 295q135 0 208 -92.5t73 -285t-72 -368.5t-197.5 -277t-283.5 -101 q-230 0 -279 219h-4q-13 -72 -149 -695h-99z"/>
<glyph glyph-name="afii10083" horiz-adv-x="887" unicode="с" d="M102 395.5q0 194.5 73.5 363t198.5 257t274.5 88.5t256.5 -43l-28 -90q-107 47 -227 47t-223.5 -77t-162.5 -222t-59 -311.5t73.5 -252t209 -85.5t262.5 59v-92q-116 -57 -281.5 -57t-266 110.5t-100.5 305z"/>
<glyph glyph-name="afii10084" horiz-adv-x="1751" unicode="т" d="M72 0l231 1087h80l-33 -210h6q161 227 394 227q106 0 163 -67t60 -195h6q77 129 181 195.5t221.5 66.5t183 -61.5t65.5 -176.5q0 -57 -22 -176l-152 -690h-100l149 680q25 120 25 186.5t-43 109t-119 42.5q-157 0 -277.5 -137.5t-168.5 -362.5l-109 -518h-102l147 674 q25 125 25 162q0 182 -154 182q-106 0 -200 -68q-187 -134 -259 -475l-100 -475h-98z"/>
<glyph glyph-name="afii10085" horiz-adv-x="920" unicode="у" d="M-217 -379q71 -27 144 -27t140 49.5t130 164.5t100 184l-174 1095h100l82 -548q51 -351 55 -449h11q43 105 186 367l348 630h103l-713 -1290q-72 -127 -123 -178q-109 -111 -260 -111q-68 0 -129 21v92z"/>
<glyph glyph-name="afii10086" horiz-adv-x="1249" unicode="ф" d="M571 86q295 0 421 268q63 135 63 295.5t-73 251.5t-214 98zM201 444q0 -159 70.5 -253t207.5 -105l197 913q-293 -6 -414 -265q-61 -131 -61 -290zM98 433.5q0 189.5 72.5 337.5t208 231.5t315.5 84.5l99 469h94l-101 -466q371 -39 371 -437q0 -185 -77 -339t-212 -234 t-315 -80l-107 -492h-90l105 492q-169 14 -266 129t-97 304.5z"/>
<glyph glyph-name="afii10087" horiz-adv-x="922" unicode="х" d="M-72 0l471 559l-245 528h100l207 -462l373 462h120l-448 -534l258 -553h-98l-224 483l-393 -483h-121z"/>
<glyph glyph-name="afii10088" horiz-adv-x="1169" unicode="ц" d="M109 227q0 60 22 170l150 690h100l-152 -698q-22 -103 -22 -167.5t47.5 -108t148 -43.5t197.5 66q194 129 264 466l105 485h98l-164 -765q-22 -104 -22 -170q0 -89 84 -89q23 0 63 7l-100 -435h-101l80 351q-67 13 -94 54.5t-27 119.5l2 51h-6q-169 -227 -405 -227 q-133 0 -200.5 62t-67.5 181z"/>
<glyph glyph-name="afii10089" horiz-adv-x="1096" unicode="ч" d="M156 643q0 74 22 176l58 268h100q-69 -318 -75.5 -362t-6.5 -72q0 -74 44.5 -117.5t141.5 -43.5q163 0 290 135.5t175 369.5l19 90h98l-234 -1087h-102q50 229 75 345.5t70 281.5h-8q-161 -221 -401 -221q-128 0 -197 60t-69 177z"/>
<glyph glyph-name="afii10090" horiz-adv-x="1751" unicode="ш" d="M117 221q0 58 22 176l152 690h100l-149 -679q-25 -120 -25 -186t42.5 -109t119.5 -43q156 0 278 139t168 364l109 514h102l-147 -673q-25 -125 -25 -162q0 -182 154 -182q105 0 199 68q186 133 260 474l102 475h96l-231 -1087h-80l33 211h-6q-161 -227 -387 -227 q-222 0 -228 262h-6q-74 -126 -178.5 -194t-224 -68t-185 61.5t-65.5 175.5z"/>
<glyph glyph-name="afii10091" horiz-adv-x="1778" unicode="щ" d="M117 221q0 58 22 176l152 690h100l-149 -679q-25 -120 -25 -186t42.5 -109t119.5 -43q156 0 278 139t168 364l109 514h102l-147 -673q-25 -125 -25 -162q0 -182 154 -182q105 0 199 68q186 133 260 474l102 475h96l-164 -765q-22 -104 -22 -170q0 -89 84 -89q23 0 63 7 l-100 -435h-100l80 351q-68 13 -95 53.5t-27 115.5l3 56h-6q-161 -227 -387 -227q-222 0 -228 262h-6q-74 -126 -178.5 -194t-224 -68t-185 61.5t-65.5 175.5z"/>
<glyph glyph-name="afii10092" horiz-adv-x="1139" unicode="ъ" d="M383 307q0 -122 57 -179.5t194 -57.5t218.5 69t81.5 191q0 202 -256 202q-90 0 -270 -30q-25 -118 -25 -195zM82 1006l20 81h433l-109 -499l56 10q117 20 214 20q340 0 340 -280q0 -162 -111.5 -260t-288.5 -98q-351 0 -351 311q0 98 30 248l101 467h-334z"/>
<glyph glyph-name="afii10093" horiz-adv-x="1389" unicode="ы" d="M983 0l234 1087h96l-232 -1087h-98zM240 307q0 -122 56.5 -179.5t194 -57.5t219 69t81.5 191q0 202 -256 202q-91 0 -271 -30q-24 -120 -24 -195zM141 291q0 93 31 248l119 548h100l-108 -499l56 10q117 20 214 20q340 0 340 -280q0 -162 -111.5 -260t-289.5 -98 q-351 0 -351 311z"/>
<glyph glyph-name="afii10094" horiz-adv-x="995" unicode="ь" d="M240 307q0 -122 56.5 -179.5t194 -57.5t219 69t81.5 191q0 202 -256 202q-91 0 -271 -30q-24 -120 -24 -195zM141 291q0 93 31 248l119 548h100l-108 -499l56 10q117 20 214 20q340 0 340 -280q0 -162 -111.5 -260t-289.5 -98q-351 0 -351 311z"/>
<glyph glyph-name="afii10095" horiz-adv-x="905" unicode="э" d="M10 25v102q112 -57 240 -57q176 0 287.5 115t152.5 341h-524l18 88h516q5 33 5 70q0 172 -68 255t-207 83q-48 0 -98 -11t-158 -53l-27 84q131 52 189.5 59t103.5 7q178 0 272.5 -105.5t94.5 -308t-71.5 -372t-198 -256t-275.5 -86.5t-252 45z"/>
<glyph glyph-name="afii10096" horiz-adv-x="1542" unicode="ю" d="M657 401.5q0 -172.5 68 -254t199 -81.5t227.5 76.5t152.5 229.5t56 320.5t-69.5 248.5t-197.5 81t-224.5 -77t-154 -224t-57.5 -319.5zM74 0l233 1087h96l-100 -479h275q51 231 187.5 365.5t320.5 134.5t280 -105.5t96 -305.5t-70 -371q-143 -346 -472 -346 q-182 0 -273.5 108t-91.5 315q0 54 6 113h-276l-111 -516h-100z"/>
<glyph glyph-name="afii10097" horiz-adv-x="1038" unicode="я" d="M276 754q0 -195 277 -195h201l94 447h-293q-130 0 -204.5 -67.5t-74.5 -184.5zM-37 -2v84q12 -4 55.5 -4t80 34.5t85.5 148.5t95.5 167.5t111.5 77.5q-104 20 -160.5 82t-56.5 164.5t48 177.5t132 116t189 41h420l-232 -1087h-98l104 481h-143q-154 0 -226 -83 q-38 -44 -91.5 -163.5t-86.5 -160.5q-66 -82 -176 -82q-33 0 -51 6z"/>
<glyph glyph-name="uni0450" horiz-adv-x="928" unicode="ѐ" d="M459 1548v21h115q46 -129 164 -303v-25h-66q-50 52 -114 144.5t-99 162.5zM225 594h49q517 0 517 270q0 67 -43.5 110.5t-116.5 43.5q-131 0 -243.5 -115.5t-162.5 -308.5zM102 387.5q0 188.5 71 354.5t195.5 264t256.5 98t200 -61t68 -166q0 -181 -163.5 -276 t-485.5 -95h-33q-6 -44 -6 -98q0 -165 74 -251.5t209.5 -86.5t279.5 73v-94q-140 -69 -306 -69t-263 109.5t-97 298z"/>
<glyph glyph-name="afii10071" horiz-adv-x="928" unicode="ё" d="M792 1359q0 114 77 114q54 0 54 -56t-21 -85t-55 -29q-55 0 -55 56zM448 1359q0 114 77 114q54 0 54 -56t-21 -85t-55 -29q-55 0 -55 56zM225 594h49q517 0 517 270q0 67 -43.5 110.5t-116.5 43.5q-131 0 -243.5 -115.5t-162.5 -308.5zM102 387.5q0 188.5 71 354.5 t195.5 264t256.5 98t200 -61t68 -166q0 -181 -163.5 -276t-485.5 -95h-33q-6 -44 -6 -98q0 -165 74 -251.5t209.5 -86.5t279.5 73v-94q-140 -69 -306 -69t-263 109.5t-97 298z"/>
<glyph glyph-name="afii10099" horiz-adv-x="1153" unicode="ђ" d="M76 0l272 1278h-145l18 82h146l39 196h98l-41 -196h373l-19 -82h-371q-63 -301 -94 -412h6q171 238 416 238q124 0 192 -63.5t68 -184.5q0 -70 -24 -182l-187 -858q-35 -162 -105 -235t-190 -73q-65 0 -112 19v92q58 -22 128.5 -22t115 54t69.5 175l184 866q21 92 21 156 q0 170 -178 170q-110 0 -209 -67q-197 -133 -271 -474l-102 -477h-98z"/>
<glyph glyph-name="afii10100" horiz-adv-x="913" unicode="ѓ" d="M493 1241v21q66 51 150.5 142t129.5 165h137v-23q-51 -66 -157.5 -158.5t-192.5 -146.5h-67zM78 242q0 158 144 258q73 50 224 109.5t206 93.5q106 66 106 163q0 150 -189 150q-124 0 -309 -72l-29 86q167 58 238.5 66t112.5 8q136 0 207 -58.5t71 -168t-76.5 -187.5 t-248 -140.5t-233.5 -101.5q-122 -76 -122 -202q0 -87 55 -133.5t190.5 -46.5t299.5 73v-90q-175 -69 -330.5 -69t-236 68.5t-80.5 193.5z"/>
<glyph glyph-name="afii10101" horiz-adv-x="895" unicode="є" d="M98 397.5q0 195.5 75 365t200 255.5t273 86t255 -43l-29 -90q-107 47 -217 47q-153 0 -268 -106.5t-164 -305.5h535l-21 -84h-528q-8 -54 -8 -123q0 -160 72.5 -244.5t207.5 -84.5t264 59v-92q-123 -57 -286.5 -57t-262 111t-98.5 306.5z"/>
<glyph glyph-name="afii10102" horiz-adv-x="827" unicode="ѕ" d="M25 55v107q154 -96 296.5 -96t215.5 57.5t73 163.5q0 79 -66 135q-34 30 -132 86q-148 80 -200 145.5t-52 159.5q0 128 98.5 209.5t259.5 81.5q75 0 158.5 -17.5t140.5 -46.5l-35 -88q-136 64 -258 64t-192 -53t-70 -138q0 -55 17 -88q34 -66 164 -137t177 -112 q93 -78 93 -207.5t-103 -215t-278 -85.5t-307 75z"/>
<glyph glyph-name="afii10103" horiz-adv-x="475" unicode="і" d="M350 1366q0 55 22 88t60 33q57 0 57 -64.5t-22 -97.5t-57 -33q-60 0 -60 74zM76 0l231 1087h96l-229 -1087h-98z"/>
<glyph glyph-name="afii10104" horiz-adv-x="475" unicode="ї" d="M540 1359q0 114 77 114q54 0 54 -56t-21 -85t-55 -29q-55 0 -55 56zM196 1359q0 114 77 114q54 0 54 -56t-21 -85t-55 -29q-55 0 -55 56zM76 0l231 1087h96l-229 -1087h-98z"/>
<glyph glyph-name="afii10105" horiz-adv-x="475" unicode="ј" d="M350 1366q0 55 22 88t60 33q57 0 57 -64.5t-22 -97.5t-57 -33q-60 0 -60 74zM-279 -381q47 -22 121 -22t120.5 51.5t72.5 177.5l266 1261h96l-268 -1271q-35 -165 -106.5 -236.5t-188.5 -71.5q-62 0 -113 19v92z"/>
<glyph glyph-name="afii10106" horiz-adv-x="1493" unicode="љ" d="M776 303q0 -233 223 -233q134 0 211.5 70.5t77.5 189.5q0 202 -241 202q-122 0 -242 -22q-29 -132 -29 -207zM-102 -2v90q32 -8 59 -8q75 0 123.5 38.5t95 133t104 263t97.5 267.5t93 168q109 146 304 146q65 0 144 -17l-97 -483q149 22 238 22q167 0 249.5 -68.5 t82.5 -220t-108.5 -250.5t-276 -99t-249 80.5t-81.5 228.5q0 56 9.5 118.5t115.5 600.5q-21 4 -51 4q-119 0 -198 -104t-166 -367t-142 -363t-122 -144t-163 -44q-32 0 -61 8z"/>
<glyph glyph-name="afii10107" horiz-adv-x="1595" unicode="њ" d="M840 307q0 -122 56.5 -179.5t194 -57.5t219 69t81.5 191q0 202 -256 202q-91 0 -271 -30q-24 -120 -24 -195zM74 0l233 1087h96l-100 -479h483l105 479h100l-108 -499l56 10q117 20 214 20q340 0 340 -280q0 -162 -111.5 -260t-289.5 -98q-351 0 -351 311q0 98 25 225 h-481l-111 -516h-100z"/>
<glyph glyph-name="afii10108" horiz-adv-x="1153" unicode="ћ" d="M76 0l272 1282h-143l16 78h144l41 196h98l-41 -196h373l-17 -78h-373q-68 -315 -94 -408h10q93 124 191 177t221 53t191.5 -62t68.5 -182q0 -62 -22 -170l-150 -690h-102l153 698q21 101 21 169t-48 109.5t-134 41.5q-171 0 -298.5 -141.5t-179.5 -395.5l-100 -481h-98z "/>
<glyph glyph-name="afii10109" horiz-adv-x="932" unicode="ќ" d="M592 1241v21q66 51 150.5 142t129.5 165h137v-23q-51 -66 -157.5 -158.5t-192.5 -146.5h-67zM72 0l225 1087h98l-110 -524l573 524h146l-607 -534l404 -553h-127l-391 549l-113 -549h-98z"/>
<glyph glyph-name="uni045D" horiz-adv-x="1143" unicode="ѝ" d="M487 1548v21h115q46 -129 164 -303v-25h-66q-50 52 -114 144.5t-99 162.5zM109 227q0 60 22 170l150 690h100l-152 -698q-22 -106 -22 -169t47.5 -106.5t148 -43.5t197.5 66q194 129 264 466l105 485h98l-231 -1087h-80l28 205h-6q-167 -221 -403 -221q-131 0 -198.5 62 t-67.5 181z"/>
<glyph glyph-name="afii10110" horiz-adv-x="920" unicode="ў" d="M308 1454q0 38 13 74h82q-8 -45 -8 -62q0 -68 42.5 -103.5t143.5 -35.5q231 0 258 201h94q-17 -137 -110.5 -212t-238.5 -75t-210.5 58t-65.5 155zM-217 -379q71 -27 144 -27t140 49.5t130 164.5t100 184l-174 1095h100l82 -548q51 -351 55 -449h11q43 105 186 367 l348 630h103l-713 -1290q-72 -127 -123 -178q-109 -111 -260 -111q-68 0 -129 21v92z"/>
<glyph glyph-name="afii10193" horiz-adv-x="1143" unicode="џ" d="M352 -492l88 390l60 16h32l-90 -406h-90zM109 227q0 60 22 170l150 690h100l-152 -698q-22 -106 -22 -169t47.5 -106.5t148 -43.5t197.5 66q194 129 264 466l105 485h98l-231 -1087h-80l28 205h-6q-167 -221 -403 -221q-131 0 -198.5 62t-67.5 181z"/>
<glyph glyph-name="uni0460" horiz-adv-x="1876" unicode="Ѡ" d="M170 478q0 253 85 497.5t218.5 376t310.5 131.5q134 0 234 -72l-57 -86q-90 64 -185 64t-184.5 -70t-163 -208.5t-114 -308t-40.5 -321.5q0 -409 283 -409q122 0 193 75t106 234l53 244h109l-41 -201q-19 -89 -19 -143q0 -209 207 -209q226 0 377 300q74 148 118 332 t44 347t-61.5 250.5t-166.5 87.5t-212 -58l-45 84q119 68 254 68q335 0 335 -443q0 -189 -54 -396t-145.5 -365.5t-201.5 -228.5t-236 -70q-248 0 -294 192q-41 -87 -130.5 -139.5t-195.5 -52.5q-183 0 -282 122.5t-99 375.5z"/>
<glyph glyph-name="uni0461" horiz-adv-x="1352" unicode="ѡ" d="M115 1087h98l76 -677q24 -239 30 -312l340 480l-69 509h98l92 -655q28 -203 37 -334q179 179 293 418t178 571h98q-62 -355 -196.5 -619t-349.5 -468h-99l-61 457h-4l-320 -457h-114z"/>
<glyph glyph-name="afii10146" horiz-adv-x="1262" unicode="Ѣ" d="M367 90h239q205 0 315.5 92t110.5 277q0 134 -74.5 198t-224.5 64h-231zM178 1161l21 94h313l68 301h104l-68 -301h410l-18 -94h-412l-76 -350h232q187 0 287 -89.5t100 -256.5q0 -223 -140 -344t-391 -121h-362l246 1161h-314z"/>
<glyph glyph-name="afii10194" horiz-adv-x="1022" unicode="ѣ" d="M266 307q0 -122 57 -179.5t195 -57.5t218.5 69.5t80.5 190.5q0 202 -256 202q-90 0 -270 -30q-25 -118 -25 -195zM72 1006l16 81h227l52 232h100l-51 -232h284l-18 -81h-283l-90 -418l56 10q117 20 215 20q340 0 340 -280q0 -162 -111.5 -260t-289.5 -98q-351 0 -351 311 q0 105 31 248l100 467h-227z"/>
<glyph glyph-name="uni0464" horiz-adv-x="1735" unicode="Ѥ" d="M102 0l310 1462h102l-139 -649h393q48 202 155 353t262.5 234t336.5 83t311 -68l-45 -90q-111 64 -262 64q-236 0 -408.5 -153.5t-243.5 -422.5h678l-18 -94h-678q-16 -78 -16 -180q0 -226 111.5 -346.5t316.5 -120.5q139 0 303 51v-94q-156 -49 -316 -49 q-252 0 -386 143t-134 412q0 96 15 184h-396l-149 -719h-103z"/>
<glyph glyph-name="uni0465" horiz-adv-x="1356" unicode="ѥ" d="M74 0l233 1087h96l-100 -481h279q52 234 195 366t343 132q135 0 242 -43l-29 -90q-107 47 -217 47q-153 0 -268 -106.5t-164 -305.5h535l-21 -84h-528q-8 -54 -8 -123q0 -160 72.5 -244.5t207.5 -84.5t264 59v-92q-123 -57 -286.5 -57t-262 111t-98.5 306q0 74 8 125 h-280l-113 -522h-100z"/>
<glyph glyph-name="uni0466" horiz-adv-x="1159" unicode="Ѧ" d="M475 813h359l-35 209q-36 204 -39 293h-4q-39 -93 -113 -218.5t-168 -283.5zM-111 0l863 1462h69l248 -1462h-96l-125 725h-168l-152 -725h-94l156 725h-166l-426 -725h-109z"/>
<glyph glyph-name="uni0467" horiz-adv-x="1001" unicode="ѧ" d="M385 590h291q-52 305 -60 399h-6q-72 -144 -225 -399zM-70 0l652 1087h98l188 -1087h-98l-82 510h-137l-109 -510h-94l115 510h-125l-309 -510h-99z"/>
<glyph glyph-name="uni0468" horiz-adv-x="1647" unicode="Ѩ" d="M963 813h358l-35 209q-36 204 -39 293h-4q-39 -95 -158 -295zM102 0l310 1462h102l-139 -649h481l383 649h70l247 -1462h-96l-125 725h-168l-151 -725h-94l155 725h-166l-426 -725h-108l426 725h-447l-151 -725h-103z"/>
<glyph glyph-name="uni0469" horiz-adv-x="1341" unicode="ѩ" d="M725 590h291q-52 305 -60 399h-6q-72 -144 -225 -399zM76 0l233 1087h94l-106 -497h326l299 497h98l188 -1087h-98l-82 510h-137l-109 -510h-94l115 510h-125l-309 -510h-99l305 510h-296l-109 -510h-94z"/>
<glyph glyph-name="uni046A" horiz-adv-x="1315" unicode="Ѫ" d="M451 1372l270 -536l502 536h-772zM-61 0l247 512q70 143 124 202q106 116 306 122l-276 536l18 90h1018l-20 -86l-522 -540q206 -13 270 -151q33 -69 43 -224l31 -461h-105l-31 471q-8 120 -34 174.5t-79 79.5t-147 25h-16l-166 -750h-98l160 750h-19q-98 0 -157.5 -22.5 t-106 -77t-107.5 -181.5l-225 -469h-108z"/>
<glyph glyph-name="uni046B" horiz-adv-x="1247" unicode="ѫ" d="M377 1006l246 -369l391 369h-637zM-98 0l202 367q57 105 110 156q106 101 304 114l-258 381l10 69h895l-12 -69l-418 -381q188 -21 256 -140q35 -61 53 -178l54 -319h-99l-51 311q-23 140 -84.5 191t-208.5 53l-118 -555h-95l119 555q-113 -3 -170.5 -22.5t-103 -63.5 t-90.5 -125l-187 -344h-108z"/>
<glyph glyph-name="uni046C" horiz-adv-x="1827" unicode="Ѭ" d="M963 1372l270 -536l502 536h-772zM102 0l310 1462h102l-133 -626h745l-274 536l18 90h1018l-20 -86l-522 -540q206 -13 270 -151q33 -69 43 -224l31 -461h-105l-31 471q-8 120 -34 174.5t-79 79.5t-147 25h-16l-166 -750h-98l160 750h-19q-98 0 -157.5 -22.5t-106 -77 t-107.5 -181.5l-225 -469h-108l247 512q41 85 80.5 139.5t93.5 89.5h-512l-155 -741h-103z"/>
<glyph glyph-name="uni046D" horiz-adv-x="1614" unicode="ѭ" d="M743 1006l246 -369l391 369h-637zM74 0l233 1087h96l-94 -450h576l-258 381l10 69h895l-12 -69l-418 -381q185 -21 254 -139q35 -60 55 -179l53 -319h-98l-51 311q-23 140 -84.5 191t-208.5 53l-119 -555h-94l119 555h-13q-134 0 -210 -45t-142 -166l-186 -344h-109 l203 367q35 63 68.5 105t81.5 73h-330l-117 -545h-100z"/>
<glyph glyph-name="uni046E" horiz-adv-x="1020" unicode="Ѯ" d="M-84 -194.5q0 83.5 39.5 133.5t115 78t251 43t274.5 56q199 84 199 306q0 289 -373 289h-182l18 96h178q131 0 237 45q210 89 210 307q0 114 -68 176t-208.5 62t-321.5 -119l-54 76q173 118 379 129q-30 59 -77 127.5t-80 99.5v21h94q62 -72 137 -205q64 94 98 130 q71 75 136 75q34 0 63 -13v-78q-38 7 -64 7t-75.5 -45t-102.5 -127q117 -23 182.5 -102.5t65.5 -221.5t-91 -245.5t-267 -145.5v-4q128 -23 205 -111t77 -219q0 -206 -147.5 -324t-441.5 -139q-167 -11 -231 -42.5t-64 -90t40.5 -88t108.5 -29.5l75 3q190 12 305 12t187 -37 v-111q-94 47 -249 47l-78 -2q-180 -10 -269 -10t-160 53.5t-71 137z"/>
<glyph glyph-name="uni046F" horiz-adv-x="834" unicode="ѯ" d="M-113 -179.5q0 76.5 34.5 122.5t106 76.5t249 61.5t250.5 88.5t73 161.5t-65 148.5t-205 44.5h-84l20 92h90q149 0 228.5 61.5t79.5 154t-52.5 139.5t-156 47t-232.5 -80l-41 80q118 73 258 86q-32 64 -79.5 130.5t-79.5 96.5v21h94q61 -69 137 -205q64 94 98 130 q71 75 135 75q35 0 64 -13v-77q-33 6 -62 6t-78 -44.5t-102 -125.5q96 -17 147.5 -82t51.5 -168t-65.5 -177t-188.5 -98v-4q89 -18 139.5 -76.5t50.5 -156t-45.5 -166.5t-137 -112t-258.5 -71t-220 -61t-53 -92q0 -94 143 -94q56 0 224 10l69 2q140 0 219 -43v-96 q-92 47 -229 47l-66 -2q-155 -10 -251 -10t-153 48t-57 124.5z"/>
<glyph glyph-name="uni0470" horiz-adv-x="1419" unicode="Ѱ" d="M209 848q0 102 29 239l79 375h103q-55 -258 -83.5 -389.5t-28.5 -196.5q0 -11 1 -20q0 -160 86 -236.5t267 -76.5h12l194 919h103l-195 -919h10q235 0 360.5 105t178.5 351l100 463h101l-105 -485q-56 -275 -214.5 -398.5t-436.5 -123.5h-12l-96 -455h-103l96 455h-8 q-212 0 -325 100.5t-113 292.5z"/>
<glyph glyph-name="uni0471" horiz-adv-x="1364" unicode="ѱ" d="M154 391q0 96 30 238l99 458h102l-98 -454q-31 -139 -31 -232q0 -293 283 -323q282 1307 317 1478h94q-237 -1094 -317 -1478q286 17 418.5 257.5t132.5 751.5h102q0 -391 -74.5 -624t-224 -347.5t-373.5 -123.5l-102 -484h-94l102 484q-180 17 -273 120.5t-93 278.5z "/>
<glyph glyph-name="afii10147" horiz-adv-x="1464" unicode="Ѳ" d="M297 786h993l4 115q0 488 -425 488q-211 0 -366 -162t-206 -441zM276 573q0 -246 110 -373.5t326 -127.5t364.5 162.5t199.5 459.5h-993q-7 -65 -7 -121zM172 547.5q0 267.5 91.5 484t254.5 334t393 117.5t361 -148.5t131 -423.5q0 -189 -53.5 -370t-145.5 -305 q-190 -256 -512 -256q-253 0 -386.5 150t-133.5 417.5z"/>
<glyph glyph-name="afii10195" horiz-adv-x="1124" unicode="ѳ" d="M221 600h697q6 52 6 102q0 154 -73 237t-217 83t-256 -114.5t-157 -307.5zM201 408q0 -342 282 -342q160 0 271 119.5t151 330.5h-698q-6 -56 -6 -108zM98 396.5q0 197.5 73 364.5t197 257t292.5 90t267 -108.5t98.5 -302.5t-71.5 -365.5t-195.5 -261.5t-297 -90 t-268.5 109.5t-95.5 307z"/>
<glyph glyph-name="afii10148" horiz-adv-x="1096" unicode="Ѵ" d="M201 1462h100l117 -950q27 -228 35 -365h4q34 88 479 1031q60 126 108 184q92 113 236 113q43 0 72 -7v-84q-29 9 -89 9t-115 -52t-130 -206l-547 -1135h-88z"/>
<glyph glyph-name="afii10196" horiz-adv-x="877" unicode="ѵ" d="M104 1087h101l108 -735q26 -178 33 -254h6l63 157l238 556q53 125 95 181q84 112 210 112q48 0 72 -10v-78q-28 10 -80 10t-99 -49.5t-106 -185.5l-356 -791h-113z"/>
<glyph glyph-name="uni0476" horiz-adv-x="1096" unicode="Ѷ" d="M645 1886v21h125q47 -132 163 -303v-25h-73q-47 47 -116 147t-99 160zM313 1886v21h125q49 -137 164 -303v-25h-74q-47 47 -116 147t-99 160zM201 1462h100l117 -950q27 -228 35 -365h4q34 88 479 1031q60 126 108 184q92 113 236 113q43 0 72 -7v-84q-29 9 -89 9 t-115 -52t-130 -206l-547 -1135h-88z"/>
<glyph glyph-name="uni0477" horiz-adv-x="877" unicode="ѷ" d="M443 1548v21h125q47 -132 163 -303v-25h-73q-47 47 -116 147t-99 160zM111 1548v21h125q49 -137 164 -303v-25h-74q-47 47 -116 147t-99 160zM104 1087h101l108 -735q26 -178 33 -254h6l63 157l238 556q53 125 95 181q84 112 210 112q48 0 72 -10v-78q-28 10 -80 10 t-99 -49.5t-106 -185.5l-356 -791h-113z"/>
<glyph glyph-name="uni0478" horiz-adv-x="2390" unicode="Ѹ" d="M1253 -379q71 -27 144 -27t140 49.5t130 164.5t100 184l-174 1095h100l82 -548q51 -351 55 -449h11q43 105 186 367l348 630h103l-713 -1290q-72 -127 -123 -178q-109 -111 -260 -111q-68 0 -129 21v92zM276 560.5q0 -232.5 109.5 -360.5t319.5 -128q169 0 300 98.5 t210 300t79 436t-104.5 358.5t-294.5 124t-324.5 -101t-214.5 -298t-80 -429.5zM172 549.5q0 271.5 93 487t255 331t391 115.5t360.5 -148.5t131.5 -413.5t-94 -491.5t-252 -338t-365 -111.5q-250 0 -385 149t-135 420.5z"/>
<glyph glyph-name="uni0479" horiz-adv-x="1974" unicode="ѹ" d="M838 -379q71 -27 144 -27t140 49.5t130 164.5t100 184l-174 1095h100l82 -548q51 -351 55 -449h11q43 105 186 367l348 630h103l-713 -1290q-72 -127 -123 -178q-109 -111 -260 -111q-68 0 -129 21v92zM203 408q0 -342 282 -342q127 0 225.5 77.5t157 228t58.5 317.5 t-73 250t-203.5 83t-229.5 -78.5t-158 -225t-59 -310.5zM100 396.5q0 197.5 73 364.5t197 257t292.5 90t267 -108.5t98.5 -302.5t-71.5 -365.5t-195.5 -261.5t-297 -90t-268.5 109.5t-95.5 307z"/>
<glyph glyph-name="uni047A" horiz-adv-x="1464" unicode="Ѻ" d="M276 580q0 -407 281 -490q25 70 104 70t101 -86q321 35 461 418q71 195 71 409q0 378 -258 465q-28 -63 -104 -63t-98 83q-161 -12 -285 -116t-198.5 -295.5t-74.5 -394.5zM172 565.5q0 242.5 84.5 451.5t234.5 328.5t345 135.5q24 75 102 75q38 0 67.5 -22.5t38.5 -69.5 q175 -41 267 -182.5t92 -376.5t-84.5 -452t-229.5 -335t-331 -134q-22 -78 -103 -78q-38 0 -66.5 22.5t-37.5 65.5q-185 38 -282 183.5t-97 388z"/>
<glyph glyph-name="uni047B" horiz-adv-x="1124" unicode="ѻ" d="M201 408q0 -265 166 -324q24 59 93 59t87 -73q228 40 328 331q49 143 49 275.5t-38 209t-116 111.5q-24 -55 -93 -55t-85 76q-113 -15 -201 -98.5t-139 -222t-51 -289.5zM98 403q0 178 62.5 334.5t175 253.5t258.5 113q23 67 95.5 67t88.5 -81q121 -36 184.5 -136 t63.5 -269.5t-62.5 -331.5t-169 -255.5t-247.5 -111.5q-23 -72 -92 -72q-34 0 -59.5 20t-33.5 58q-264 61 -264 411z"/>
<glyph glyph-name="uni047C" horiz-adv-x="1876" unicode="Ѽ" d="M1110 1585l10 62q43 10 71 35t28 46.5t-14 29t-32 17t-33.5 21.5t-15.5 35q0 63 78 63q51 0 79 -27.5t28 -89t-56 -118t-143 -74.5zM911 1862q22 94 86.5 144t159.5 50q97 0 207 -48.5t151 -57t84 -8.5h21l-16 -82h-17q-75 0 -134 20t-111 46q-109 52 -175 52 t-106.5 -30.5t-50.5 -85.5h-99zM170 480.5q0 250.5 85 495t218.5 376t310.5 131.5q134 0 234 -72l-57 -86q-90 64 -185 64t-184.5 -70t-163 -208.5t-114 -308t-40.5 -321.5q0 -409 306 -409q152 0 276 88q123 -88 262.5 -88t241 71.5t178 217t121.5 332t45 354t-61.5 255 t-166.5 87.5t-212 -58l-45 84q119 68 254 68q335 0 335 -443q0 -278 -98 -545t-239.5 -391t-346.5 -124q-146 0 -274 73q-166 -73 -279 -73q-193 0 -297 125t-104 375.5z"/>
<glyph glyph-name="uni047D" horiz-adv-x="1475" unicode="ѽ" d="M805 1280l10 61q40 10 69 35.5t29 48.5t-29 36l-18 9q-47 21 -47 56q0 63 78 63q51 0 79 -27.5t28 -89t-56 -118t-143 -74.5zM606 1556q22 94 86.5 144.5t159.5 50.5q97 0 207.5 -49t148.5 -57.5t86 -8.5h21l-17 -82h-16q-107 0 -256 72q-99 47 -164 47q-136 0 -157 -117 h-99zM109 361.5q0 194.5 68 376.5q137 366 403 366q101 0 180 -62l-55 -84q-67 54 -140.5 54t-154.5 -75t-141 -243.5t-60 -322.5q0 -299 225 -299q115 0 211 65q87 -65 207 -65t207 76t152 261.5t65 330.5t-42.5 208.5t-123 63.5t-162.5 -47l-43 82q109 57 207 57 q264 0 264 -334q0 -216 -77 -419.5t-189 -287t-242.5 -83.5t-228.5 53q-112 -53 -211 -53q-152 0 -235.5 93.5t-83.5 288z"/>
<glyph glyph-name="uni047E" horiz-adv-x="1876" unicode="Ѿ" d="M748 1761l6 27h819l-6 -27l-115 -164h-12l-29 117h-203l-80 -117h-12l-31 117h-202l-78 -117h-12zM170 478q0 253 85 497.5t218.5 376t310.5 131.5q134 0 234 -72l-57 -86q-90 64 -185 64t-184.5 -70t-163 -208.5t-114 -308t-40.5 -321.5q0 -409 283 -409q122 0 193 75 t106 234l53 244h109l-41 -201q-19 -89 -19 -143q0 -209 207 -209q226 0 377 300q74 148 118 332t44 347t-61.5 250.5t-166.5 87.5t-212 -58l-45 84q119 68 254 68q335 0 335 -443q0 -189 -54 -396t-145.5 -365.5t-201.5 -228.5t-236 -70q-248 0 -294 192 q-41 -87 -130.5 -139.5t-195.5 -52.5q-183 0 -282 122.5t-99 375.5z"/>
<glyph glyph-name="uni047F" horiz-adv-x="1352" unicode="ѿ" d="M391 1430l6 26h820l-7 -26l-114 -164h-13l-28 116h-203l-80 -116h-12l-31 116h-203l-77 -116h-13zM115 1087h98l76 -677q24 -239 30 -312l340 480l-69 509h98l92 -655q28 -203 37 -334q179 179 293 418t178 571h98q-62 -355 -196.5 -619t-349.5 -468h-99l-61 457h-4 l-320 -457h-114z"/>
<glyph glyph-name="uni0480" horiz-adv-x="1169" unicode="Ҁ" d="M170 541.5q0 259.5 104.5 481.5t284.5 341t379.5 119t329.5 -68l-45 -90q-128 64 -262 64q-197 0 -351.5 -104.5t-245 -304.5t-90.5 -431t108.5 -354t297.5 -123q54 0 84 8l-125 -572h-102l102 474q-222 9 -345.5 154.5t-123.5 405z"/>
<glyph glyph-name="uni0481" horiz-adv-x="887" unicode="ҁ" d="M102 394q0 196 75.5 366t200.5 257t272.5 87t254.5 -43l-28 -90q-107 47 -228 47t-225 -77.5t-161.5 -220.5t-57.5 -309t74 -253.5t208 -87.5q88 0 164 36l-129 -598h-98l100 469l-31 -1q-189 0 -290 111t-101 307z"/>
<glyph glyph-name="uni0482" horiz-adv-x="1247" unicode="҂" d="M168 561l39 64l285 -164l231 403l-283 164l37 68l285 -164l182 309l70 -37l-183 -315l287 -164l-41 -66l-282 164l-234 -403l285 -166l-39 -66l-285 164l-180 -313l-72 41l181 315z"/>
<glyph glyph-name="uni0483" horiz-adv-x="1174" unicode="҃" d="M373 1264.5q0 36.5 29 62t87 25.5h443q10 86 87 86t77 -68q0 -87 -121 -92h-443q-6 -86 -88 -86q-34 0 -52.5 18t-18.5 54.5z"/>
<glyph glyph-name="uni0484" horiz-adv-x="1214" unicode="҄" d="M403 1262l17 81h14q107 0 273 58q154 53 241.5 53t140 -38t52.5 -105q0 -31 -4 -47h-93q5 13 5 30q0 86 -105 86q-74 0 -240 -59t-280 -59h-21z"/>
<glyph glyph-name="uni0485" horiz-adv-x="1214" unicode="҅" d="M655 1453.5q0 54.5 24 83t62 28.5q80 0 80 -62q0 -39 -37 -51q-43 -17 -43 -37q0 -57 119 -94v-66q-106 34 -155.5 89t-49.5 109.5z"/>
<glyph glyph-name="uni0486" horiz-adv-x="1214" unicode="҆" d="M686 1255v66q119 37 119 94q0 20 -43 37q-37 19 -37 51q0 62 80 62q38 0 62 -28.5t24 -88t-53 -113t-152 -80.5z"/>
<glyph glyph-name="uni0488" horiz-adv-x="2025" unicode="҈" d="M1563 459q11 194 209 194q92 0 149.5 -52t63.5 -142h-80q-5 44 -35 66t-103 22t-98.5 -20t-30.5 -68h-75zM1372 946q5 90 55.5 142.5t148 52.5t155 -51t63.5 -144h-80q-5 45 -35 66.5t-103 21.5t-98 -19.5t-30 -68.5h-76zM1372 -41q5 90 55.5 142.5t148 52.5t155 -51 t63.5 -144h-80q-5 45 -35 66.5t-103 21.5t-98 -19.5t-30 -68.5h-76zM793 1231q11 194 208 194q93 0 149.5 -50.5t63.5 -143.5h-79q-5 44 -35 66t-103.5 22t-98.5 -20.5t-30 -67.5h-75zM793 -319q5 89 55 141.5t147.5 52.5t155 -51t63.5 -143h-79q-5 44 -35 66t-103.5 22 t-98.5 -20.5t-30 -67.5h-75zM219 946q5 90 55.5 142.5t148 52.5t155 -51t63.5 -144h-80q-5 45 -35 66.5t-103 21.5t-98 -19.5t-30 -68.5h-76zM219 -41q5 90 55.5 142.5t148 52.5t155 -51t63.5 -144h-80q-5 45 -35 66.5t-103 21.5t-98 -19.5t-30 -68.5h-76zM41 459 q5 90 55.5 142t148 52t155 -51t63.5 -143h-80q-5 45 -35 66.5t-103 21.5t-98 -19.5t-30 -68.5h-76z"/>
<glyph glyph-name="uni0489" horiz-adv-x="1958" unicode="҉" d="M1567 512v139l14 11q178 -48 336 -123v-97q-221 53 -350 70zM1366 86l98 98l17 -2q93 -164 151 -323l-67 -70q-101 163 -199 297zM1325 1018l2 16q149 87 324 152l69 -68q-177 -110 -297 -198zM870 1155q48 178 123 336h97q-52 -220 -70 -350h-139zM870 -385 q53 221 70 350h139l11 -14q-39 -152 -123 -336h-97zM324 1202l67 70q123 -198 199 -297l-98 -98l-17 2q-82 140 -151 323zM238 -55q177 110 297 198l98 -98l-2 -16q-155 -89 -324 -152zM41 565v97q221 -53 350 -70v-139l-14 -11q-152 39 -336 123z"/>
<glyph glyph-name="uni048A" horiz-adv-x="1430" unicode="Ҋ" d="M627 1792q0 40 12 74h82q-8 -45 -8 -62q0 -68 42.5 -103.5t143.5 -35.5q231 0 258 201h94q-17 -137 -110.5 -212t-234.5 -75q-279 0 -279 213zM102 0l310 1462h102l-186 -878q-41 -197 -95 -406l1035 1284h110l-291 -1368h164l-217 -450h-114l208 356h-161l184 864 q54 261 102 443l-1050 -1307h-101z"/>
<glyph glyph-name="uni048B" horiz-adv-x="1169" unicode="ҋ" d="M434 1456q0 40 12 74h82q-8 -45 -8 -62q0 -68 42.5 -103.5t144.5 -35.5q231 0 258 201h94q-17 -136 -110.5 -211.5t-238.5 -75.5t-210.5 58t-65.5 155zM109 227q0 60 22 170l150 690h100l-152 -698q-22 -106 -22 -171t47.5 -106.5t148 -41.5t197.5 66q194 129 264 466 l105 485h98l-215 -1007h164l-201 -447h-117l207 367h-149l28 205h-6q-167 -221 -403 -221q-132 0 -199 62t-67 181z"/>
<glyph glyph-name="uni048C" horiz-adv-x="1118" unicode="Ҍ" d="M223 90h240q204 0 315 92t111 277q0 134 -74.5 198t-224.5 64h-232zM102 0l246 1169h-162l21 95h162l43 198h104l-43 -198h328l-19 -95h-329l-76 -358h231q187 0 287 -89.5t100 -256.5q0 -222 -139 -343.5t-391 -121.5h-363z"/>
<glyph glyph-name="uni048D" horiz-adv-x="995" unicode="ҍ" d="M240 307q0 -122 56.5 -179.5t194 -57.5t219 69t81.5 191q0 202 -256 202q-91 0 -271 -30q-24 -120 -24 -195zM141 291q0 93 31 248l141 663h-166l17 82h166l61 272h101l-62 -272h244l-19 -82h-241l-131 -614l56 10q117 20 214 20q340 0 340 -280q0 -162 -111.5 -260 t-289.5 -98q-351 0 -351 311z"/>
<glyph glyph-name="uni048E" horiz-adv-x="1145" unicode="Ҏ" d="M350 694h191q123 0 209 21l-95 196l86 41l99 -207q196 90 196 351q0 274 -329 274h-211zM102 0l310 1462h315q202 0 310 -92.5t108 -267.5q0 -328 -264 -440l98 -201l-84 -41l-104 211q-110 -29 -256 -29h-201l-129 -602h-103z"/>
<glyph glyph-name="uni048F" horiz-adv-x="1149" unicode="ҏ" d="M266 323.5q0 -102.5 61.5 -178t168.5 -75.5q68 0 127 24l-101 205l86 41l97 -201q108 82 175.5 247t67.5 337q0 295 -200 295q-87 0 -174 -58.5t-161.5 -167.5t-110.5 -237.5t-36 -231zM-33 -492l336 1579h82l-45 -274h6q175 295 424 295q135 0 208 -92.5t73 -292.5 t-83 -386t-225 -280l103 -209l-84 -41l-100 207q-78 -30 -164 -30q-230 0 -279 219h-4l-149 -695h-99z"/>
<glyph glyph-name="afii10050" horiz-adv-x="946" unicode="Ґ" d="M102 0l310 1462h602l65 293h105l-86 -387h-602l-291 -1368h-103z"/>
<glyph glyph-name="afii10098" horiz-adv-x="698" unicode="ґ" d="M72 0l227 1087h408l69 326h96l-88 -407h-403l-211 -1006h-98z"/>
<glyph glyph-name="uni0492" horiz-adv-x="932" unicode="Ғ" d="M102 0l146 684h-146l19 82h143l148 696h708l-20 -94h-604l-129 -602h335l-18 -82h-334l-145 -684h-103z"/>
<glyph glyph-name="uni0493" horiz-adv-x="698" unicode="ғ" d="M23 514l18 80h154l104 493h504l-19 -81h-403l-86 -412h274l-18 -80h-275l-106 -514h-98l106 514h-155z"/>
<glyph glyph-name="uni0494" horiz-adv-x="1167" unicode="Ҕ" d="M86 -367q119 -51 238 -51q350 0 496 328q73 166 73 368t-108.5 314.5t-299.5 112.5q-62 0 -131 -9l-145 -696h-107l310 1462h708l-20 -94h-604l-123 -582q68 11 129 11q236 0 365.5 -134.5t129.5 -374.5t-87 -428q-173 -372 -595 -372q-134 0 -229 41v104z"/>
<glyph glyph-name="uni0495" horiz-adv-x="918" unicode="ҕ" d="M72 0l227 1087h504l-19 -81h-403l-82 -390q57 13 151 13t177.5 -47.5t131.5 -141t48 -262.5t-67.5 -337.5t-184.5 -253.5t-268 -85q-102 0 -178 37v99q88 -48 198 -48t203 79.5t144 222.5t51 307t-75 252t-208 88q-79 0 -143 -17l-109 -522h-98z"/>
<glyph glyph-name="uni0496" horiz-adv-x="1591" unicode="Җ" d="M-88 0l729 760l-424 702h125l414 -704l147 704h103l-152 -706l692 706h140l-717 -725l379 -643h149l-98 -450h-105l80 356h-94l-430 737l-154 -737h-102l158 739l-699 -739h-141z"/>
<glyph glyph-name="uni0497" horiz-adv-x="1634" unicode="җ" d="M-51 -4l18 92q56 -18 127 -18q116 0 210 79t149 219.5t55 307.5q0 338 -244 338q-52 0 -112 -10v88q72 12 120 12q334 0 334 -420q0 -50 -4 -82h164l104 485h95l-103 -485h162q58 308 267 438q102 64 233 64q77 0 135 -17l-19 -92q-57 19 -127 19q-113 0 -206.5 -76 t-150 -218.5t-56.5 -310.5q0 -339 243 -339q47 0 146 22l-105 -457h-100l78 347l-13 -2h-14q-334 0 -334 419q0 46 9 115h-166l-109 -514h-96l109 514h-158q-62 -331 -273 -468q-103 -66 -233 -66q-75 0 -135 16z"/>
<glyph glyph-name="uni0498" horiz-adv-x="1020" unicode="Ҙ" d="M187 -399l14 69q27 -10 68 -10q118 0 118 160q0 88 -25 160h-4q-211 0 -389 79v117q183 -106 394.5 -106t321.5 93.5t110 260.5q0 287 -373 287h-182l18 96h178q131 0 237 45q210 89 210 307q0 114 -67 176t-191 62q-168 0 -340 -119l-54 76q190 129 406 129 q165 0 257.5 -82t92.5 -237t-91 -258.5t-267 -145.5v-4q130 -23 199 -110.5t69 -222.5t-67 -237q-118 -178 -385 -202q37 -106 37 -188q0 -88 -54.5 -149t-158.5 -61q-50 0 -82 15z"/>
<glyph glyph-name="uni0499" horiz-adv-x="799" unicode="ҙ" d="M97 -399l14 69q27 -10 68 -10q118 0 118 160q0 88 -25 160h-30q-150 0 -260 65v109q139 -86 286 -86t229.5 68.5t82.5 180.5t-64.5 159.5t-206.5 47.5h-84l21 92h90q146 0 226.5 59.5t80.5 170.5q0 78 -52 125t-155.5 47t-232.5 -80l-41 80q83 50 153 68t156 18 q130 0 202 -65t72 -179.5t-66 -188.5t-187 -98v-4q94 -20 142 -82.5t48 -161.5t-51 -179q-51 -78 -145 -122q-56 -26 -132 -37q38 -107 38 -191q0 -88 -54.5 -149t-158.5 -61q-50 0 -82 15z"/>
<glyph glyph-name="uni049A" horiz-adv-x="1192" unicode="Қ" d="M102 0l310 1462h102l-158 -727l787 727h143l-809 -733l490 -635h161l-98 -450h-104l80 356h-95l-555 729l-151 -729h-103z"/>
<glyph glyph-name="uni049B" horiz-adv-x="969" unicode="қ" d="M72 0l225 1087h98l-110 -524l573 524h146l-607 -534l344 -473h123l-102 -445h-100l81 365h-69l-391 549l-113 -549h-98z"/>
<glyph glyph-name="uni049C" horiz-adv-x="1106" unicode="Ҝ" d="M102 0l310 1462h102l-156 -712l172 147l54 248h86l-33 -156l532 473h138l-699 -610l371 -852h-111l-297 684l-67 -315h-86l86 401l-168 -135l-131 -635h-103z"/>
<glyph glyph-name="uni049D" horiz-adv-x="854" unicode="ҝ" d="M72 0l225 1087h98l-110 -524l166 152l63 299h86l-43 -203l301 276h146l-478 -421l-49 -226l324 -440h-127l-223 313l-48 -223h-86l68 316l-102 143l-113 -549h-98z"/>
<glyph glyph-name="uni049E" horiz-adv-x="1079" unicode="Ҟ" d="M102 0l246 1165h-164l19 82h164l45 215h102l-47 -215h223l-18 -82h-223l-93 -426l133 121l680 602h138l-699 -610l371 -852h-111l-342 788l-190 -153l-131 -635h-103z"/>
<glyph glyph-name="uni049F" horiz-adv-x="883" unicode="ҟ" d="M76 0l270 1282h-141l16 78h141l44 196h96l-43 -196h377l-17 -78h-377l-106 -506l-70 -299h4l609 610h125l-474 -469l297 -618h-106l-264 559l-205 -188l-80 -371h-96z"/>
<glyph glyph-name="uni04A0" horiz-adv-x="1237" unicode="Ҡ" d="M193 1368l20 94h446l-157 -727l786 727h144l-809 -733l563 -729h-129l-555 729l-152 -729h-102l289 1368h-344z"/>
<glyph glyph-name="uni04A1" horiz-adv-x="1071" unicode="ҡ" d="M82 1006l20 81h433l-111 -524l573 524h146l-606 -534l403 -553h-127l-391 549l-113 -549h-98l209 1006h-338z"/>
<glyph glyph-name="uni04A2" horiz-adv-x="1423" unicode="Ң" d="M102 0l310 1462h102l-139 -649h760l137 649h100l-289 -1368h168l-98 -450h-104l79 356h-165l151 719h-760l-149 -719h-103z"/>
<glyph glyph-name="uni04A3" horiz-adv-x="1235" unicode="ң" d="M74 0l233 1087h96l-100 -479h625l104 479h101l-215 -1003h178l-103 -449h-100l84 365h-178l110 516h-624l-111 -516h-100z"/>
<glyph glyph-name="uni04A4" horiz-adv-x="1532" unicode="Ҥ" d="M102 0l310 1462h102l-139 -649h760l137 649h467l-19 -94h-368l-289 -1368h-100l151 719h-760l-149 -719h-103z"/>
<glyph glyph-name="uni04A5" horiz-adv-x="1386" unicode="ҥ" d="M74 0l233 1087h96l-100 -479h625l104 479h434l-20 -81h-330l-215 -1006h-102l110 516h-624l-111 -516h-100z"/>
<glyph glyph-name="uni04A6" horiz-adv-x="2001" unicode="Ҧ" d="M102 0l310 1462h960l-143 -676q68 11 129 11q236 0 365.5 -134.5t129.5 -374.5t-87 -428q-173 -372 -595 -372q-134 0 -229 41v104q119 -51 238 -51q350 0 496 328q73 166 73 368t-108.5 314.5t-299.5 112.5q-62 0 -131 -9l-147 -696h-100l288 1366h-757l-289 -1366h-103 z"/>
<glyph glyph-name="uni04A7" horiz-adv-x="1626" unicode="ҧ" d="M70 0l231 1087h827l-100 -471q68 13 157.5 13t173 -47.5t131.5 -141t48 -262.5t-67.5 -337.5t-184.5 -253.5t-268 -85q-104 0 -178 37v99q88 -48 198 -48t203 79.5t144 222.5t51 307t-75 252t-208 88q-63 0 -145 -17l-109 -522h-104l213 995h-625l-213 -995h-100z"/>
<glyph glyph-name="uni04A8" horiz-adv-x="1464" unicode="Ҩ" d="M805 503.5q0 -155.5 24.5 -242t75.5 -150.5q115 70 200 188.5t130 266t45 294.5q0 266 -158 266q-83 0 -158 -85.5t-117 -233.5t-42 -303.5zM172 551q0 267 90 481t253.5 332.5t377.5 118.5q125 0 246 -47l-43 -95q-105 48 -217 48q-172 0 -307 -100.5t-215.5 -294.5 t-80.5 -430.5t111 -364t318 -127.5q41 0 94 8q-99 147 -99 379t56.5 404.5t154 265t225.5 92.5q253 0 253 -367q0 -157 -52 -320.5t-144 -289.5t-208 -197q63 -37 152 -37t141 21v-92q-60 -21 -137 -21q-165 0 -269 84q-76 -22 -180 -22q-250 0 -385 152t-135 419z"/>
<glyph glyph-name="uni04A9" horiz-adv-x="1212" unicode="ҩ" d="M631 381q0 -179 74 -272q121 73 207.5 223.5t86.5 285.5q0 88 -35 130.5t-92 42.5q-108 0 -174.5 -112.5t-66.5 -297.5zM102 418.5q0 209.5 62.5 364t180 238t276.5 83.5q93 0 167 -21l-18 -92q-67 27 -171.5 27t-196 -69t-144.5 -209.5t-53 -313.5t76.5 -264.5 t222.5 -91.5q54 0 98 10q-74 107 -74 270t44 283.5t123.5 185t183 64.5t163.5 -64t60 -211.5t-87 -304.5t-235 -248q55 -24 120 -24t124 16v-86q-48 -16 -152.5 -16t-195.5 63q-76 -28 -174 -28q-195 0 -297.5 114.5t-102.5 324z"/>
<glyph glyph-name="uni04AA" horiz-adv-x="1169" unicode="Ҫ" d="M385 -399l14 69q27 -10 68 -10q118 0 118 160q0 95 -29 172q-156 30 -252 133q-134 145 -134 410.5t104.5 487.5t284.5 341t379.5 119t329.5 -68l-45 -90q-117 64 -262 64q-197 0 -351.5 -104.5t-245 -304.5t-90.5 -433t110.5 -354t317.5 -121q140 0 304 51v-94 q-156 -49 -316 -49q-24 0 -46 1q36 -105 36 -185q0 -88 -54.5 -149t-158.5 -61q-50 0 -82 15z"/>
<glyph glyph-name="uni04AB" horiz-adv-x="887" unicode="ҫ" d="M240 -399l14 69q27 -10 68 -10q118 0 118 160q0 90 -26 163q26 -3 54 -3h31q36 -104 36 -184q-1 -88 -55 -149t-158 -61q-50 0 -82 15zM102 396q0 -194 100 -306q83 -92 212 -107q-3 9 -6 17h84q4 -10 7 -20q146 5 251 57v92q-126 -59 -262 -59t-210 86t-73 252 q0 166 59 311q58 145 162 222t224 77t227 -47l28 90q-107 43 -257 43t-274 -88t-198 -258q-74 -168 -74 -362z"/>
<glyph glyph-name="uni04AC" horiz-adv-x="985" unicode="Ҭ" d="M193 1368l20 94h973l-19 -94h-440l-270 -1274h168l-99 -450h-104l80 356h-166l289 1368h-432z"/>
<glyph glyph-name="uni04AD" horiz-adv-x="1784" unicode="ҭ" d="M72 0l231 1087h80l-33 -210h6q161 227 394 227q106 0 163 -67t60 -195h6q77 129 181 195.5t221.5 66.5t183 -61.5t65.5 -176.5q0 -57 -22 -176l-82 -371q-23 -103 -23 -159q0 -97 84 -97q31 0 64 7l-101 -435h-100l80 351q-61 7 -95 51.5t-34 114.5q0 31 7 75t97 453 q25 120 25 186.5t-43 109t-119 42.5q-157 0 -277.5 -137.5t-168.5 -362.5l-109 -518h-102l147 674q25 125 25 162q0 182 -154 182q-106 0 -200 -68q-187 -134 -259 -475l-100 -475h-98z"/>
<glyph glyph-name="uni04AE" horiz-adv-x="965" unicode="Ү" d="M193 1462h100l201 -817l544 817h117l-631 -932l-108 -530h-105l119 545z"/>
<glyph glyph-name="uni04AF" horiz-adv-x="895" unicode="ү" d="M113 1087h100l109 -735q18 -118 32 -250h6q32 67 63 127.5t472 857.5h102l-612 -1103l-102 -476h-93l101 478z"/>
<glyph glyph-name="uni04B0" horiz-adv-x="965" unicode="Ұ" d="M131 403l19 82h266l14 60l-237 917h100l201 -817l544 817h117l-631 -932l-10 -45h289l-19 -82h-286l-82 -403h-105l88 403h-268z"/>
<glyph glyph-name="uni04B1" horiz-adv-x="895" unicode="ұ" d="M27 -82l18 82h244l-176 1087h100l109 -735q18 -118 32 -250h6q32 67 63 127.5t472 857.5h102l-604 -1087h244l-19 -82h-247l-88 -410h-93l86 410h-249z"/>
<glyph glyph-name="uni04B2" horiz-adv-x="1014" unicode="Ҳ" d="M-135 0l608 766l-272 696h106l240 -626l483 626h119l-555 -719l248 -649h147l-98 -450h-105l80 356h-94l-254 678l-526 -678h-127z"/>
<glyph glyph-name="uni04B3" horiz-adv-x="942" unicode="ҳ" d="M-72 0l471 555l-245 528h100l207 -462l373 462h120l-448 -534l221 -469h143l-102 -445h-100l82 365h-84l-224 479l-393 -479h-121z"/>
<glyph glyph-name="uni04B4" horiz-adv-x="1659" unicode="Ҵ" d="M193 1368l20 94h973l-19 -94h-440l-268 -1274h758l290 1368h101l-289 -1368h168l-98 -450h-105l80 356h-1028l289 1368h-432z"/>
<glyph glyph-name="uni04B5" horiz-adv-x="1346" unicode="ҵ" d="M84 1006l20 81h783l-21 -81h-327l-133 -617q-23 -99 -23 -165.5t47.5 -110t147.5 -43.5t197 65q192 128 265 467l105 485h98l-164 -765q-22 -104 -22 -170q0 -89 84 -89q23 0 63 7l-100 -435h-100l79 351q-65 12 -93 53t-28 116l3 56h-7q-78 -109 -183 -168t-230 -59 t-192.5 62t-67.5 181q0 60 22 170l131 609h-354z"/>
<glyph glyph-name="uni04B6" horiz-adv-x="1249" unicode="Ҷ" d="M205 801q0 64 22 164l105 497h102l-102 -483q-25 -116 -25 -172q0 -92 57 -139t162 -47q195 0 412 90l160 751h100l-289 -1368h168l-98 -450h-105l80 356h-166l132 621q-219 -91 -386 -91q-329 0 -329 271z"/>
<glyph glyph-name="uni04B7" horiz-adv-x="1124" unicode="ҷ" d="M156 643q0 74 22 176l58 268h100q-69 -318 -75.5 -362t-6.5 -72q0 -74 44.5 -117.5t141.5 -43.5q163 0 290 135.5t175 369.5l19 90h98l-215 -1003h178l-102 -449h-101l84 365h-178l84 399q24 122 59 228h-8q-161 -221 -401 -221q-128 0 -197 60t-69 177z"/>
<glyph glyph-name="uni04B8" horiz-adv-x="1192" unicode="Ҹ" d="M205 801q0 64 22 164l105 497h102l-102 -483q-25 -116 -25 -172q0 -92 57 -139t162 -47h13l79 376h87l-80 -370q144 16 313 84l160 751h100l-309 -1462h-101l132 621q-153 -66 -314 -86l-67 -314h-86l65 309h-6q-146 0 -226.5 69.5t-80.5 201.5z"/>
<glyph glyph-name="uni04B9" horiz-adv-x="1098" unicode="ҹ" d="M156 643q0 74 22 176l58 268h100q-69 -318 -75.5 -362t-6.5 -72q0 -74 43.5 -117.5t138.5 -43.5l66 307h86l-64 -297q137 32 238.5 164.5t142.5 330.5l19 90h98l-234 -1087h-102q50 229 75 345.5t70 281.5h-8q-131 -182 -317 -215l-55 -267h-86l53 261q-128 0 -195 61.5 t-67 175.5z"/>
<glyph glyph-name="uni04BA" horiz-adv-x="1274" unicode="Һ" d="M100 0l310 1462h100l-131 -620q212 90 383 90q332 0 332 -270q0 -62 -23 -164l-104 -498h-103l103 483q24 111 24 172q0 187 -219 187q-189 0 -412 -90l-159 -752h-101z"/>
<glyph glyph-name="uni04BB" horiz-adv-x="1149" unicode="һ" d="M72 0l233 1087h103q-49 -226 -74 -342t-72 -284h8q155 221 402 221q128 0 197 -62t69 -176q0 -42 -8 -93t-72 -351h-100q69 321 75.5 364t6.5 70q0 74 -45 118t-142 44q-166 0 -292 -139t-173 -367l-18 -90h-98z"/>
<glyph glyph-name="uni04BC" horiz-adv-x="1552" unicode="Ҽ" d="M465 788h131q416 0 620.5 89t204.5 272q0 117 -77 178.5t-220 61.5q-231 0 -407.5 -158.5t-251.5 -442.5zM131 865q0 75 31 126h100q-31 -54 -31 -112q0 -91 101 -91h33q69 315 275.5 505t483.5 190q199 0 303.5 -85t104.5 -241q0 -234 -231.5 -347.5t-722.5 -113.5h-129 q-9 -56 -9 -127q0 -245 106.5 -370t315.5 -125t436 88v-96q-221 -86 -456 -86t-370.5 151t-135.5 424q0 85 8 141l-26 -1q-88 0 -137.5 47.5t-49.5 122.5z"/>
<glyph glyph-name="uni04BD" horiz-adv-x="1143" unicode="ҽ" d="M430 594h49q516 0 516 270q0 70 -44.5 112t-114.5 42q-131 0 -243.5 -115.5t-162.5 -308.5zM100 675q0 75 31 126h96q-30 -55 -30 -113q0 -94 104 -94h29q53 230 195 370t323 140q114 0 182 -61t68 -166q0 -181 -163.5 -276t-485.5 -95h-33q-6 -44 -6 -98 q0 -165 74 -251.5t209.5 -86.5t279.5 73v-94q-140 -69 -306 -69t-263 109.5t-97 305.5q0 58 6 111l-26 -1q-88 0 -137.5 47.5t-49.5 122.5z"/>
<glyph glyph-name="uni04BE" horiz-adv-x="1552" unicode="Ҿ" d="M465 788h131q416 0 620.5 89t204.5 272q0 117 -77 178.5t-220 61.5q-231 0 -407.5 -158.5t-251.5 -442.5zM131 865q0 75 31 126h100q-31 -54 -31 -112q0 -91 101 -91h33q69 315 275.5 505t483.5 190q199 0 303.5 -85t104.5 -241q0 -234 -231.5 -347.5t-722.5 -113.5h-129 q-9 -56 -9 -127q0 -245 106.5 -370t315.5 -125t436 88v-96q-206 -82 -417 -86l-72 -336h-104l75 340q-212 21 -328 170.5t-116 400.5q0 85 8 141l-26 -1q-88 0 -137.5 47.5t-49.5 122.5z"/>
<glyph glyph-name="uni04BF" horiz-adv-x="1143" unicode="ҿ" d="M430 594h49q516 0 516 270q0 70 -44.5 112t-114.5 42q-131 0 -243.5 -115.5t-162.5 -308.5zM100 675q0 75 31 126h96q-30 -55 -30 -113q0 -94 104 -94h29q53 230 195 370t323 140q114 0 182 -61t68 -166q0 -181 -163.5 -276t-485.5 -95h-33q-6 -44 -6 -98 q0 -165 74 -251.5t209.5 -86.5t279.5 73v-94q-131 -65 -287 -69l-63 -345h-101l68 353q-133 23 -208 127.5t-75 279.5q0 58 6 111l-26 -1q-88 0 -137.5 47.5t-49.5 122.5z"/>
<glyph glyph-name="uni04C0" horiz-adv-x="504" unicode="Ӏ" d="M102 0l310 1462h98l-309 -1462h-99z"/>
<glyph glyph-name="uni04C1" horiz-adv-x="1491" unicode="Ӂ" d="M720 1792q0 38 13 74h82q-8 -45 -8 -62q0 -68 42.5 -103.5t143.5 -35.5q231 0 258 201h94q-17 -137 -110.5 -212t-238.5 -75t-210.5 58t-65.5 155zM-88 0l729 760l-424 702h125l414 -704l147 704h103l-152 -706l692 706h140l-717 -725l434 -737h-123l-430 737l-154 -737 h-102l158 739l-699 -739h-141z"/>
<glyph glyph-name="uni04C2" horiz-adv-x="1581" unicode="ӂ" d="M694 1454q0 38 13 74h82q-8 -45 -8 -62q0 -68 42.5 -103.5t143.5 -35.5q231 0 258 201h94q-17 -137 -110.5 -212t-238.5 -75t-210.5 58t-65.5 155zM-51 -4l18 92q56 -18 127 -18q116 0 210 79t149 219.5t55 307.5q0 338 -244 338q-52 0 -112 -10v88q72 12 120 12 q334 0 334 -420q0 -50 -4 -82h164l104 485h95l-103 -485h162q58 308 267 438q102 64 233 64q77 0 135 -17l-19 -92q-57 19 -127 19q-113 0 -206.5 -76t-150 -218.5t-56.5 -310.5q0 -339 243 -339q53 0 113 10v-88q-72 -12 -121 -12q-334 0 -334 419q0 46 9 115h-166 l-109 -514h-96l109 514h-158q-62 -331 -273 -468q-103 -66 -233 -66q-75 0 -135 16z"/>
<glyph glyph-name="uni04C3" horiz-adv-x="1204" unicode="Ӄ" d="M102 0l310 1462h102l-158 -727l787 727h143l-788 -710q40 4 82 4q228 0 352.5 -127.5t124.5 -362.5t-86 -416q-171 -362 -596 -362q-135 0 -230 41v104q119 -51 238 -51q354 0 497 316q72 160 72 357.5t-104.5 303t-302.5 105.5q-97 0 -205 -19l-135 -645h-103z"/>
<glyph glyph-name="uni04C4" horiz-adv-x="942" unicode="ӄ" d="M72 0l225 1087h98l-110 -524l573 524h146l-555 -489q173 -5 262.5 -112.5t89.5 -303t-67.5 -363.5t-183.5 -252.5t-269 -84.5q-101 0 -179 37v98q86 -47 197.5 -47t204.5 80t143.5 222t50.5 308.5t-78.5 253t-228.5 86.5q-61 0 -117 -10l-104 -510h-98z"/>
<glyph glyph-name="uni04C5" horiz-adv-x="1325" unicode="Ӆ" d="M-84 -6v96q45 -16 112.5 -16t122 44t103.5 144q96 192 387 1200h633l-291 -1368h164l-217 -450h-115l209 356h-160l289 1368h-434l-40 -137q-257 -881 -359 -1061q-57 -100 -129 -146.5t-149.5 -46.5t-125.5 17z"/>
<glyph glyph-name="uni04C6" horiz-adv-x="1059" unicode="ӆ" d="M-102 -2v90q29 -8 59 -8q74 0 122 38t94.5 131t126 327t141.5 333.5t143 143t181 43.5t191 -17l-215 -999h164l-200 -447h-117l207 367h-166l215 1006q-38 6 -74 6q-92 0 -152 -39.5t-112 -134t-130.5 -328t-133.5 -332.5t-121 -143.5t-162 -44.5q-37 0 -61 8z"/>
<glyph glyph-name="uni04C7" horiz-adv-x="1366" unicode="Ӈ" d="M102 0l310 1462h102l-139 -649h760l137 649h100l-280 -1329q-72 -339 -231 -490t-441 -151q-140 0 -254 45v105q44 -20 122 -37t142 -17q234 0 366.5 130.5t194.5 418.5l123 582h-760l-149 -719h-103z"/>
<glyph glyph-name="uni04C8" horiz-adv-x="1208" unicode="ӈ" d="M74 0l233 1087h96l-100 -479h625l104 479h101l-240 -1132q-43 -169 -103.5 -263t-151 -142t-205.5 -48t-191 37v99q88 -48 186 -48q146 0 234.5 93.5t134.5 306.5l112 526h-624l-111 -516h-100z"/>
<glyph glyph-name="uni04C9" horiz-adv-x="1423" unicode="Ӊ" d="M102 0l310 1462h102l-139 -649h760l137 649h100l-289 -1368h164l-217 -450h-115l209 356h-161l151 719h-760l-149 -719h-103z"/>
<glyph glyph-name="uni04CA" horiz-adv-x="1235" unicode="ӊ" d="M74 0l233 1087h96l-100 -479h625l104 479h101l-222 -1003h164l-201 -451h-116l207 367h-166l110 516h-624l-111 -516h-100z"/>
<glyph glyph-name="uni04CB" horiz-adv-x="1192" unicode="Ӌ" d="M205 801q0 64 22 164l105 497h102l-102 -483q-25 -116 -25 -172q0 -92 57 -139t162 -47q195 0 412 90l160 751h100l-309 -1462h-166l-72 -356h-104l94 450h168l111 527q-219 -91 -386 -91q-329 0 -329 271z"/>
<glyph glyph-name="uni04CC" horiz-adv-x="1098" unicode="ӌ" d="M156 643q0 74 22 176l58 268h100q-69 -318 -75.5 -362t-6.5 -72q0 -74 44.5 -117.5t141.5 -43.5q163 0 290 135.5t175 369.5l19 90h98l-234 -1087h-139l-74 -367h-98l92 451h136l49 229q26 124 77 314h-8q-161 -221 -401 -221q-128 0 -197 60t-69 177z"/>
<glyph glyph-name="uni04CD" horiz-adv-x="1706" unicode="Ӎ" d="M109 0l309 1462h143l205 -1257h6l733 1257h150l-283 -1368h164l-217 -450h-115l209 356h-160l191 901q79 369 100 447h-6l-780 -1348h-51l-222 1348h-6q-20 -154 -78 -426l-196 -922h-96z"/>
<glyph glyph-name="uni04CE" horiz-adv-x="1368" unicode="ӎ" d="M45 0l231 1087h101l153 -798q27 -158 27 -170q26 55 62.5 117t529.5 851h117l-217 -1007h163l-200 -447h-117l207 367h-158l197 930q-17 -32 -39 -70t-531 -860h-67l-146 723q-28 135 -30 201l-193 -924h-90z"/>
<glyph glyph-name="uni04CF" horiz-adv-x="504" unicode="ӏ" d="M102 0l310 1462h98l-309 -1462h-99z"/>
<glyph glyph-name="uni04D0" horiz-adv-x="1059" unicode="Ӑ" d="M485 1792q0 38 13 74h82q-8 -45 -8 -62q0 -68 42.5 -103.5t143.5 -35.5q231 0 258 201h94q-17 -137 -110.5 -212t-238.5 -75t-210.5 58t-65.5 155zM344 612h449l-39 291q-31 242 -39 402q-60 -125 -371 -693zM-111 0l822 1468h67l201 -1468h-105l-69 520h-512l-287 -520 h-117z"/>
<glyph glyph-name="uni04D1" horiz-adv-x="1133" unicode="ӑ" d="M428 1454q0 38 13 74h82q-8 -45 -8 -62q0 -68 42.5 -103.5t143.5 -35.5q231 0 258 201h94q-17 -137 -110.5 -212t-238.5 -75t-210.5 58t-65.5 155zM205 365q0 -295 201 -295q89 0 177.5 62t159 166t107.5 230t37 209t-26 145q-56 136 -204 136q-124 0 -224 -82 t-164 -245.5t-64 -325.5zM102 354q0 197 75 376t200.5 276.5t277.5 97.5q232 0 279 -219h6l59 202h80l-229 -1087h-82l45 274h-6q-174 -294 -424 -294q-281 0 -281 374z"/>
<glyph glyph-name="uni04D2" horiz-adv-x="1059" unicode="Ӓ" d="M879 1697q0 114 77 114q54 0 54 -56t-21 -85t-55 -29q-55 0 -55 56zM535 1697q0 114 77 114q54 0 54 -56t-21 -85t-55 -29q-55 0 -55 56zM344 612h449l-39 291q-31 242 -39 402q-60 -125 -371 -693zM-111 0l822 1468h67l201 -1468h-105l-69 520h-512l-287 -520h-117z"/>
<glyph glyph-name="uni04D3" horiz-adv-x="1133" unicode="ӓ" d="M821 1359q0 114 77 114q54 0 54 -56t-21 -85t-55 -29q-55 0 -55 56zM477 1359q0 114 77 114q54 0 54 -56t-21 -85t-55 -29q-55 0 -55 56zM205 365q0 -295 201 -295q89 0 177.5 62t159 166t107.5 230t37 209t-26 145q-56 136 -204 136q-124 0 -224 -82t-164 -245.5 t-64 -325.5zM102 354q0 197 75 376t200.5 276.5t277.5 97.5q232 0 279 -219h6l59 202h80l-229 -1087h-82l45 274h-6q-174 -294 -424 -294q-281 0 -281 374z"/>
<glyph glyph-name="uni04D4" horiz-adv-x="1640" unicode="Ӕ" d="M408 627h401l156 741h-88zM-117 0l946 1462h883l-20 -94h-625l-117 -553h590l-20 -94h-588l-135 -627h626l-20 -94h-727l110 522h-444l-328 -522h-131z"/>
<glyph glyph-name="uni04D5" horiz-adv-x="1632" unicode="ӕ" d="M913 594h48q263 0 383 67t120 203q0 71 -38.5 112.5t-108.5 41.5q-119 0 -232 -115.5t-172 -308.5zM205 352q0 -282 164 -282q140 0 273 160q128 154 169 369q20 104 20 165q0 118 -49 186t-156.5 68t-207.5 -86t-156.5 -240t-56.5 -340zM102 359q0 191 70.5 369.5 t192.5 277t274 98.5q106 0 166 -56.5t74 -156.5h10l59 192h66l-35 -186q139 207 350 207q112 0 175 -61.5t63 -172.5q0 -179 -158.5 -271.5t-470.5 -92.5h-39q-8 -51 -8 -96q0 -340 287 -340q109 0 264 73v-94q-149 -69 -279.5 -69t-218.5 60t-117 165l-39 -205h-77l41 254 h-9q-94 -142 -189 -208t-211.5 -66t-178.5 94t-62 285z"/>
<glyph glyph-name="uni04D6" horiz-adv-x="1067" unicode="Ӗ" d="M507 1792q0 38 13 74h82q-8 -45 -8 -62q0 -68 42.5 -103.5t143.5 -35.5q231 0 258 201h94q-17 -137 -110.5 -212t-238.5 -75t-210.5 58t-65.5 155zM102 0l310 1462h727l-21 -94h-624l-117 -553h590l-21 -94h-588l-135 -627h627l-21 -94h-727z"/>
<glyph glyph-name="uni04D7" horiz-adv-x="928" unicode="ӗ" d="M368 1454q0 38 13 74h82q-8 -45 -8 -62q0 -68 42.5 -103.5t143.5 -35.5q231 0 258 201h94q-17 -137 -110.5 -212t-238.5 -75t-210.5 58t-65.5 155zM225 594h49q517 0 517 270q0 67 -43.5 110.5t-116.5 43.5q-131 0 -243.5 -115.5t-162.5 -308.5zM102 387.5 q0 188.5 71 354.5t195.5 264t256.5 98t200 -61t68 -166q0 -181 -163.5 -276t-485.5 -95h-33q-6 -44 -6 -98q0 -165 74 -251.5t209.5 -86.5t279.5 73v-94q-140 -69 -306 -69t-263 109.5t-97 298z"/>
<glyph glyph-name="uni04D8" horiz-adv-x="1356" unicode="Ә" d="M205 313q0 -118 77 -178.5t220 -60.5q230 0 407 157t252 443h-131q-414 0 -619.5 -88.5t-205.5 -272.5zM94 305q0 236 231.5 348.5t723.5 112.5h129q8 50 8 127q0 244 -106.5 370t-315 126t-436.5 -89v97q216 86 452.5 86t373 -151.5t136.5 -410.5t-107 -480.5t-285 -341 t-386.5 -119.5t-313 85t-104.5 240z"/>
<glyph glyph-name="afii10846" horiz-adv-x="928" unicode="ә" d="M164 219q0 -69 43.5 -111t116.5 -42q132 0 244 116t161 307h-49q-516 0 -516 -270zM61 207q0 181 163.5 276t486.5 95h32q7 37 7 98q0 165 -74 251.5t-209 86.5t-281 -74v94q143 70 307.5 70t261.5 -109.5t97 -302.5t-75 -359.5t-197.5 -259.5t-252.5 -93t-198 61 t-68 166z"/>
<glyph glyph-name="uni04DA" horiz-adv-x="1356" unicode="Ӛ" d="M965 1697q0 114 77 114q54 0 54 -56t-21 -85t-55 -29q-55 0 -55 56zM621 1697q0 114 77 114q54 0 54 -56t-21 -85t-55 -29q-55 0 -55 56zM205 313q0 -118 77 -178.5t220 -60.5q230 0 407 157t252 443h-131q-414 0 -619.5 -88.5t-205.5 -272.5zM94 305q0 236 231.5 348.5 t723.5 112.5h129q8 50 8 127q0 244 -106.5 370t-315 126t-436.5 -89v97q216 86 452.5 86t373 -151.5t136.5 -410.5t-107 -480.5t-285 -341t-386.5 -119.5t-313 85t-104.5 240z"/>
<glyph glyph-name="uni04DB" horiz-adv-x="928" unicode="ӛ" d="M720 1359q0 114 77 114q54 0 54 -56t-21 -85t-55 -29q-55 0 -55 56zM376 1359q0 114 77 114q54 0 54 -56t-21 -85t-55 -29q-55 0 -55 56zM164 219q0 -69 43.5 -111t116.5 -42q132 0 244 116t161 307h-49q-516 0 -516 -270zM61 207q0 181 163.5 276t486.5 95h32q7 37 7 98 q0 165 -74 251.5t-209 86.5t-281 -74v94q143 70 307.5 70t261.5 -109.5t97 -302.5t-75 -359.5t-197.5 -259.5t-252.5 -93t-198 61t-68 166z"/>
<glyph glyph-name="uni04DC" horiz-adv-x="1491" unicode="Ӝ" d="M1115 1697q0 114 77 114q54 0 54 -56t-21 -85t-55 -29q-55 0 -55 56zM771 1697q0 114 77 114q54 0 54 -56t-21 -85t-55 -29q-55 0 -55 56zM-88 0l729 760l-424 702h125l414 -704l147 704h103l-152 -706l692 706h140l-717 -725l434 -737h-123l-430 737l-154 -737h-102 l158 739l-699 -739h-141z"/>
<glyph glyph-name="uni04DD" horiz-adv-x="1581" unicode="ӝ" d="M1065 1359q0 114 77 114q54 0 54 -56t-21 -85t-55 -29q-55 0 -55 56zM721 1359q0 114 77 114q54 0 54 -56t-21 -85t-55 -29q-55 0 -55 56zM-51 -4l18 92q56 -18 127 -18q116 0 210 79t149 219.5t55 307.5q0 338 -244 338q-52 0 -112 -10v88q72 12 120 12q334 0 334 -420 q0 -50 -4 -82h164l104 485h95l-103 -485h162q58 308 267 438q102 64 233 64q77 0 135 -17l-19 -92q-57 19 -127 19q-113 0 -206.5 -76t-150 -218.5t-56.5 -310.5q0 -339 243 -339q53 0 113 10v-88q-72 -12 -121 -12q-334 0 -334 419q0 46 9 115h-166l-109 -514h-96l109 514 h-158q-62 -331 -273 -468q-103 -66 -233 -66q-75 0 -135 16z"/>
<glyph glyph-name="uni04DE" horiz-adv-x="1020" unicode="Ӟ" d="M798 1697q0 114 77 114q54 0 54 -56t-21 -85t-55 -29q-55 0 -55 56zM454 1697q0 114 77 114q54 0 54 -56t-21 -85t-55 -29q-55 0 -55 56zM-31 59v117q183 -106 394.5 -106t321.5 93.5t110 260.5q0 287 -373 287h-182l18 96h178q131 0 237 45q210 89 210 307 q0 114 -67 176t-191 62q-168 0 -340 -119l-54 76q190 129 406 129q165 0 257.5 -82t92.5 -237t-91 -258.5t-267 -145.5v-4q130 -23 199 -110.5t69 -222.5t-67 -237q-136 -206 -472 -206q-211 0 -389 79z"/>
<glyph glyph-name="uni04DF" horiz-adv-x="799" unicode="ӟ" d="M642 1359q0 114 77 114q54 0 54 -56t-21 -85t-55 -29q-55 0 -55 56zM298 1359q0 114 77 114q54 0 54 -56t-21 -85t-55 -29q-55 0 -55 56zM-18 45v109q139 -86 286 -86t229.5 68.5t82.5 180.5t-64.5 159.5t-206.5 47.5h-84l21 92h90q146 0 226.5 59.5t80.5 170.5 q0 78 -52 125t-155.5 47t-232.5 -80l-41 80q83 50 153 68t156 18q130 0 202 -65t72 -179.5t-66 -188.5t-187 -98v-4q94 -20 142 -82.5t48 -161.5t-51 -178.5t-145 -123t-243.5 -43.5t-260.5 65z"/>
<glyph glyph-name="uni04E0" horiz-adv-x="1044" unicode="Ӡ" d="M10 59v117q183 -106 393 -106q131 0 224.5 47t143.5 129.5t50 189.5q0 145 -95 214t-300 69h-104l18 88l584 561h-609l23 94h743l-18 -88l-594 -565q226 -2 340.5 -94.5t114.5 -270.5q0 -136 -68 -245t-186.5 -164t-299 -55t-360.5 79z"/>
<glyph glyph-name="uni04E1" horiz-adv-x="836" unicode="ӡ" d="M-164 -324q54 -35 136 -58.5t157 -23.5q134 0 232.5 56t152 157t53.5 228q0 311 -342 311h-75l14 80l504 573h-535l19 88h655l-16 -79l-508 -578q174 -4 279.5 -107.5t105.5 -268.5t-66.5 -288t-189.5 -190.5t-289.5 -67.5t-286.5 64v104z"/>
<glyph glyph-name="uni04E2" horiz-adv-x="1368" unicode="Ӣ" d="M649 1583l18 88h508l-18 -88h-508zM102 0l310 1462h102l-186 -878q-79 -346 -95 -406l1035 1284h110l-309 -1462h-100q120 569 184.5 876t99.5 431l-1050 -1307h-101z"/>
<glyph glyph-name="uni04E3" horiz-adv-x="1143" unicode="ӣ" d="M453 1245l18 88h508l-18 -88h-508zM109 227q0 60 22 170l150 690h100l-152 -698q-22 -106 -22 -169t47.5 -106.5t148 -43.5t197.5 66q194 129 264 466l105 485h98l-231 -1087h-80l28 205h-6q-167 -221 -403 -221q-131 0 -198.5 62t-67.5 181z"/>
<glyph glyph-name="uni04E4" horiz-adv-x="1368" unicode="Ӥ" d="M1016 1697q0 114 77 114q54 0 54 -56t-21 -85t-55 -29q-55 0 -55 56zM672 1697q0 114 77 114q54 0 54 -56t-21 -85t-55 -29q-55 0 -55 56zM102 0l310 1462h102l-186 -878q-79 -346 -95 -406l1035 1284h110l-309 -1462h-100q120 569 184.5 876t99.5 431l-1050 -1307h-101z "/>
<glyph glyph-name="uni04E5" horiz-adv-x="1143" unicode="ӥ" d="M821 1359q0 114 77 114q54 0 54 -56t-21 -85t-55 -29q-55 0 -55 56zM477 1359q0 114 77 114q54 0 54 -56t-21 -85t-55 -29q-55 0 -55 56zM109 227q0 60 22 170l150 690h100l-152 -698q-22 -106 -22 -169t47.5 -106.5t148 -43.5t197.5 66q194 129 264 466l105 485h98 l-231 -1087h-80l28 205h-6q-167 -221 -403 -221q-131 0 -198.5 62t-67.5 181z"/>
<glyph glyph-name="uni04E6" horiz-adv-x="1464" unicode="Ӧ" d="M1043 1697q0 114 77 114q54 0 54 -56t-21 -85t-55 -29q-55 0 -55 56zM699 1697q0 114 77 114q54 0 54 -56t-21 -85t-55 -29q-55 0 -55 56zM276 560.5q0 -232.5 109.5 -360.5t319.5 -128q169 0 300 98.5t210 300t79 436t-104.5 358.5t-294.5 124t-324.5 -101t-214.5 -298 t-80 -429.5zM172 549.5q0 271.5 93 487t255 331t391 115.5t360.5 -148.5t131.5 -413.5t-94 -491.5t-252 -338t-365 -111.5q-250 0 -385 149t-135 420.5z"/>
<glyph glyph-name="uni04E7" horiz-adv-x="1124" unicode="ӧ" d="M812 1359q0 114 77 114q54 0 54 -56t-21 -85t-55 -29q-55 0 -55 56zM468 1359q0 114 77 114q54 0 54 -56t-21 -85t-55 -29q-55 0 -55 56zM201 408q0 -342 282 -342q127 0 225.5 77.5t157 228t58.5 317.5t-73 250t-203.5 83t-229.5 -78.5t-158 -225t-59 -310.5zM98 396.5 q0 197.5 73 364.5t197 257t292.5 90t267 -108.5t98.5 -302.5t-71.5 -365.5t-195.5 -261.5t-297 -90t-268.5 109.5t-95.5 307z"/>
<glyph glyph-name="uni04E8" horiz-adv-x="1464" unicode="Ө" d="M297 786h993l4 115q0 488 -425 488q-211 0 -366 -162t-206 -441zM276 573q0 -246 110 -373.5t326 -127.5t364.5 162.5t199.5 459.5h-993q-7 -65 -7 -121zM172 547.5q0 267.5 91.5 484t254.5 334t393 117.5t361 -148.5t131 -423.5q0 -189 -53.5 -370t-145.5 -305 q-190 -256 -512 -256q-253 0 -386.5 150t-133.5 417.5z"/>
<glyph glyph-name="uni04E9" horiz-adv-x="1124" unicode="ө" d="M221 600h697q6 52 6 102q0 154 -73 237t-217 83t-256 -114.5t-157 -307.5zM201 408q0 -342 282 -342q160 0 271 119.5t151 330.5h-698q-6 -56 -6 -108zM98 396.5q0 197.5 73 364.5t197 257t292.5 90t267 -108.5t98.5 -302.5t-71.5 -365.5t-195.5 -261.5t-297 -90 t-268.5 109.5t-95.5 307z"/>
<glyph glyph-name="uni04EA" horiz-adv-x="1464" unicode="Ӫ" d="M1043 1697q0 114 77 114q54 0 54 -56t-21 -85t-55 -29q-55 0 -55 56zM699 1697q0 114 77 114q54 0 54 -56t-21 -85t-55 -29q-55 0 -55 56zM297 786h993l4 115q0 488 -425 488q-211 0 -366 -162t-206 -441zM276 573q0 -246 110 -373.5t326 -127.5t364.5 162.5t199.5 459.5 h-993q-7 -65 -7 -121zM172 547.5q0 267.5 91.5 484t254.5 334t393 117.5t361 -148.5t131 -423.5q0 -189 -53.5 -370t-145.5 -305q-190 -256 -512 -256q-253 0 -386.5 150t-133.5 417.5z"/>
<glyph glyph-name="uni04EB" horiz-adv-x="1124" unicode="ӫ" d="M812 1359q0 114 77 114q54 0 54 -56t-21 -85t-55 -29q-55 0 -55 56zM468 1359q0 114 77 114q54 0 54 -56t-21 -85t-55 -29q-55 0 -55 56zM221 600h697q6 52 6 102q0 154 -73 237t-217 83t-256 -114.5t-157 -307.5zM201 408q0 -342 282 -342q160 0 271 119.5t151 330.5 h-698q-6 -56 -6 -108zM98 396.5q0 197.5 73 364.5t197 257t292.5 90t267 -108.5t98.5 -302.5t-71.5 -365.5t-195.5 -261.5t-297 -90t-268.5 109.5t-95.5 307z"/>
<glyph glyph-name="uni04EC" horiz-adv-x="1169" unicode="Ӭ" d="M825 1697q0 114 77 114q54 0 54 -56t-21 -85t-55 -29q-55 0 -55 56zM481 1697q0 114 77 114q54 0 54 -56t-21 -85t-55 -29q-55 0 -55 56zM14 55v109q184 -92 351 -92q254 0 410.5 168t205.5 493h-666l17 96h659l2 72q0 239 -105.5 363.5t-309.5 124.5q-128 0 -306 -64 l-26 94q192 64 346 64q250 0 380 -148.5t130 -422t-95.5 -493.5t-259.5 -329.5t-376 -109.5t-357 75z"/>
<glyph glyph-name="uni04ED" horiz-adv-x="905" unicode="ӭ" d="M640 1359q0 114 77 114q54 0 54 -56t-21 -85t-55 -29q-55 0 -55 56zM296 1359q0 114 77 114q54 0 54 -56t-21 -85t-55 -29q-55 0 -55 56zM10 25v102q112 -57 240 -57q176 0 287.5 115t152.5 341h-524l18 88h516q5 33 5 70q0 172 -68 255t-207 83q-48 0 -98 -11t-158 -53 l-27 84q131 52 189.5 59t103.5 7q178 0 272.5 -105.5t94.5 -308t-71.5 -372t-198 -256t-275.5 -86.5t-252 45z"/>
<glyph glyph-name="uni04EE" horiz-adv-x="1145" unicode="Ӯ" d="M508 1583l18 88h508l-18 -88h-508zM-23 10v111q67 -37 170 -37t195 71.5t209 264.5l-318 1042h105l194 -651q13 -41 89 -319q33 61 88.5 156t507.5 814h116l-723 -1140q-112 -180 -223.5 -261t-253.5 -81q-93 0 -156 30z"/>
<glyph glyph-name="uni04EF" horiz-adv-x="920" unicode="ӯ" d="M323 1245l18 88h508l-18 -88h-508zM-217 -379q71 -27 144 -27t140 49.5t130 164.5t100 184l-174 1095h100l82 -548q51 -351 55 -449h11q43 105 186 367l348 630h103l-713 -1290q-72 -127 -123 -178q-109 -111 -260 -111q-68 0 -129 21v92z"/>
<glyph glyph-name="uni04F0" horiz-adv-x="1145" unicode="Ӱ" d="M904 1697q0 114 77 114q54 0 54 -56t-21 -85t-55 -29q-55 0 -55 56zM560 1697q0 114 77 114q54 0 54 -56t-21 -85t-55 -29q-55 0 -55 56zM-23 10v111q67 -37 170 -37t195 71.5t209 264.5l-318 1042h105l194 -651q13 -41 89 -319q33 61 88.5 156t507.5 814h116l-723 -1140 q-112 -180 -223.5 -261t-253.5 -81q-93 0 -156 30z"/>
<glyph glyph-name="uni04F1" horiz-adv-x="920" unicode="ӱ" d="M694 1359q0 114 77 114q54 0 54 -56t-21 -85t-55 -29q-55 0 -55 56zM350 1359q0 114 77 114q54 0 54 -56t-21 -85t-55 -29q-55 0 -55 56zM-217 -379q71 -27 144 -27t140 49.5t130 164.5t100 184l-174 1095h100l82 -548q51 -351 55 -449h11q43 105 186 367l348 630h103 l-713 -1290q-72 -127 -123 -178q-109 -111 -260 -111q-68 0 -129 21v92z"/>
<glyph glyph-name="uni04F2" horiz-adv-x="1145" unicode="Ӳ" d="M878 1579v29q119 127 227 299h103v-23q-61 -82 -146.5 -171.5t-146.5 -133.5h-37zM565 1579v29q120 122 227 299h103v-23q-59 -80 -145 -170.5t-146 -134.5h-39zM-23 10v111q67 -37 170 -37t195 71.5t209 264.5l-318 1042h105l194 -651q13 -41 89 -319q33 61 88.5 156 t507.5 814h116l-723 -1140q-112 -180 -223.5 -261t-253.5 -81q-93 0 -156 30z"/>
<glyph glyph-name="uni04F3" horiz-adv-x="920" unicode="ӳ" d="M687 1241v29q119 127 227 299h103v-23q-61 -82 -146.5 -171.5t-146.5 -133.5h-37zM374 1241v29q120 122 227 299h103v-23q-59 -80 -145 -170.5t-146 -134.5h-39zM-217 -379q71 -27 144 -27t140 49.5t130 164.5t100 184l-174 1095h100l82 -548q51 -351 55 -449h11 q43 105 186 367l348 630h103l-713 -1290q-72 -127 -123 -178q-109 -111 -260 -111q-68 0 -129 21v92z"/>
<glyph glyph-name="uni04F4" horiz-adv-x="1192" unicode="Ӵ" d="M897 1697q0 114 77 114q54 0 54 -56t-21 -85t-55 -29q-55 0 -55 56zM553 1697q0 114 77 114q54 0 54 -56t-21 -85t-55 -29q-55 0 -55 56zM205 801q0 64 22 164l105 497h102l-102 -483q-25 -116 -25 -172q0 -92 57 -139t162 -47q195 0 412 90l160 751h100l-309 -1462h-101 l132 621q-219 -91 -386 -91q-329 0 -329 271z"/>
<glyph glyph-name="uni04F5" horiz-adv-x="1096" unicode="ӵ" d="M774 1359q0 114 77 114q54 0 54 -56t-21 -85t-55 -29q-55 0 -55 56zM430 1359q0 114 77 114q54 0 54 -56t-21 -85t-55 -29q-55 0 -55 56zM156 643q0 74 22 176l58 268h100q-69 -318 -75.5 -362t-6.5 -72q0 -74 44.5 -117.5t141.5 -43.5q163 0 290 135.5t175 369.5l19 90 h98l-234 -1087h-102q50 229 75 345.5t70 281.5h-8q-161 -221 -401 -221q-128 0 -197 60t-69 177z"/>
<glyph glyph-name="uni04F6" horiz-adv-x="946" unicode="Ӷ" d="M102 0l310 1462h708l-20 -94h-604l-271 -1274h168l-98 -450h-105l80 356h-168z"/>
<glyph glyph-name="uni04F7" horiz-adv-x="698" unicode="ӷ" d="M72 0l227 1087h504l-19 -81h-403l-195 -922h179l-103 -449h-100l84 365h-174z"/>
<glyph glyph-name="uni04F8" horiz-adv-x="1536" unicode="Ӹ" d="M1141 0l309 1462h102l-309 -1462h-102zM1115 1697q0 114 77 114q54 0 54 -56t-21 -85t-55 -29q-55 0 -55 56zM771 1697q0 114 77 114q54 0 54 -56t-21 -85t-55 -29q-55 0 -55 56zM223 90h240q204 0 315 92t111 277q0 134 -74.5 198t-224.5 64h-232zM102 0l310 1462h104 l-139 -651h231q187 0 287 -89.5t100 -256.5q0 -222 -139 -343.5t-391 -121.5h-363z"/>
<glyph glyph-name="uni04F9" horiz-adv-x="1389" unicode="ӹ" d="M983 0l234 1087h96l-232 -1087h-98zM969 1359q0 114 77 114q54 0 54 -56t-21 -85t-55 -29q-55 0 -55 56zM625 1359q0 114 77 114q54 0 54 -56t-21 -85t-55 -29q-55 0 -55 56zM240 307q0 -122 56.5 -179.5t194 -57.5t219 69t81.5 191q0 202 -256 202q-91 0 -271 -30 q-24 -120 -24 -195zM141 291q0 93 31 248l119 548h100l-108 -499l56 10q117 20 214 20q340 0 340 -280q0 -162 -111.5 -260t-289.5 -98q-351 0 -351 311z"/>
<glyph glyph-name="uni04FA" horiz-adv-x="946" unicode="Ӻ" d="M72 -231q32 -15 65 -15q84 0 103 103l30 143h-168l146 684h-146l19 82h143l148 696h708l-20 -94h-604l-129 -602h335l-18 -82h-334l-125 -590h142l-56 -260q-18 -87 -58.5 -128.5t-101 -41.5t-79.5 17v88z"/>
<glyph glyph-name="uni04FB" horiz-adv-x="698" unicode="ӻ" d="M23 514l18 80h154l104 493h504l-19 -81h-403l-86 -412h274l-18 -80h-275l-90 -430h133l-53 -250q-18 -87 -59 -128.5t-101 -41.5t-79 17v88q32 -15 65 -15q84 0 103 103l30 143h-153l106 514h-155z"/>
<glyph glyph-name="uni04FC" horiz-adv-x="1034" unicode="Ӽ" d="M-135 0l608 766l-272 696h106l240 -626l483 626h119l-555 -719l248 -649h145l-55 -260q-19 -87 -59.5 -128.5t-101 -41.5t-79.5 17v88q34 -15 66 -15q83 0 102 103l31 143h-119l-254 678l-526 -678h-127z"/>
<glyph glyph-name="uni04FD" horiz-adv-x="944" unicode="ӽ" d="M-72 0l471 555l-245 528h100l207 -462l373 462h120l-448 -534l217 -465h149l-53 -250q-18 -87 -59 -128.5t-101 -41.5t-79 17v88q32 -15 65 -15q84 0 103 103l30 143h-112l-224 479l-393 -479h-121z"/>
<glyph glyph-name="uni04FE" horiz-adv-x="971" unicode="Ӿ" d="M-135 0l569 717h-270l18 82h277l-258 663h106l240 -626l483 626h119l-512 -663h301l-18 -82h-316l275 -717h-107l-254 678l-526 -678h-127z"/>
<glyph glyph-name="uni2002" horiz-adv-x="1028" unicode=" "/>
<glyph glyph-name="uni2003" horiz-adv-x="2056" unicode=" "/>
<glyph glyph-name="uni2009" horiz-adv-x="411" unicode=" "/>
<glyph glyph-name="endash" horiz-adv-x="983" unicode="–" d="M66 502l18 90h807l-17 -90h-808z"/>
<glyph glyph-name="emdash" horiz-adv-x="1966" unicode="—" d="M68 502l18 90h1788l-16 -90h-1790z"/>
<glyph glyph-name="quoteleft" horiz-adv-x="299" unicode="‘" d="M129 983q95 231 277 479h73q-145 -233 -233 -501h-113z"/>
<glyph glyph-name="quotesinglbase" horiz-adv-x="451" unicode="‚" d="M-100 -264q146 236 233 502h113l4 -23q-40 -97 -115.5 -230t-161.5 -249h-73z"/>
<glyph glyph-name="quotedblleft" horiz-adv-x="631" unicode="“" d="M463 983q43 104 120 238.5t156 240.5h74q-145 -233 -233 -501h-113zM129 983q95 231 277 479h73q-145 -233 -233 -501h-113z"/>
<glyph glyph-name="quotedblright" horiz-adv-x="631" unicode="”" d="M463 961q145 233 233 501h113l4 -22q-98 -240 -276 -479h-74zM129 961q145 233 233 501h113l4 -22q-98 -240 -276 -479h-74z"/>
<glyph glyph-name="ellipsis" horiz-adv-x="1489" unicode="…" d="M1071 55q0 56 25 88.5t69 32.5q66 0 66 -72q0 -53 -25 -87.5t-67 -34.5q-68 0 -68 73zM569 55q0 56 25 88.5t69 32.5q66 0 66 -72q0 -53 -25 -87.5t-67 -34.5q-68 0 -68 73zM69 55q0 56 25 88.5t69 32.5q66 0 66 -72q0 -53 -25 -87.5t-67 -34.5q-68 0 -68 73z"/>
<glyph glyph-name="guilsinglleft" horiz-adv-x="537" unicode="‹" d="M86 541l2 26l363 365l57 -49l-318 -336l213 -385l-63 -39z"/>
<glyph glyph-name="guilsinglright" horiz-adv-x="537" unicode="›" d="M37 172l317 336l-213 385l64 39l254 -418l-2 -27l-363 -364z"/>
<glyph glyph-name="Euro" d="M80 541l16 82h172q5 101 35 217h-170l19 82h174q95 273 270 417t399 144q166 0 287 -90l-53 -82q-102 78 -238 78q-186 0 -330.5 -120.5t-226.5 -346.5h457l-21 -82h-460q-30 -98 -39 -217h442l-20 -82h-424q0 -243 89 -356t265 -113q115 0 252 57v-94q-129 -55 -270 -55 q-209 0 -325 139.5t-116 394.5v27h-184z" unicode="€"/>
<glyph glyph-name="trademark" horiz-adv-x="1534" unicode="™" d="M772 741v721h125l221 -606l223 606h125v-721h-86v398l4 207h-6l-227 -605h-74l-221 609h-6l4 -201v-408h-82zM174 1384v78h522v-78h-219v-643h-86v643h-217z"/>
</font>
</defs>
</svg>
