<svg width="281" height="124" viewBox="0 0 281 124" fill="none" xmlns="http://www.w3.org/2000/svg">
<path d="M130.449 73.3571C130.103 73.7031 130.311 74.1874 131.072 74.4641C132.317 75.0176 133.839 76.7473 134.67 78.5462C135.777 81.0369 136.192 83.0433 136.192 86.1567C136.192 89.6161 135.846 91.9684 135.016 93.5597C134.116 95.497 131.349 98.2645 129.411 99.3023C127.889 100.063 127.405 100.686 128.097 101.101C128.235 101.17 128.65 101.793 128.996 102.485C129.342 103.177 130.726 105.322 132.04 107.328C134.324 110.718 137.368 116.184 139.859 121.165C140.481 122.411 141.035 123.379 141.104 123.379C141.173 123.379 141.727 122.411 142.349 121.165C144.84 116.115 147.884 110.649 150.167 107.328C151.482 105.322 152.866 103.177 153.212 102.485C153.558 101.793 153.973 101.17 154.111 101.101C154.734 100.686 154.25 100.063 152.727 99.3023C151.62 98.7488 150.652 97.9185 149.476 96.6732C146.708 93.6981 146.085 91.7609 146.085 86.2259C146.085 82.9741 146.431 81.0369 147.608 78.5462C148.369 76.7473 149.96 75.0176 151.205 74.4641C151.759 74.2566 151.966 73.9798 151.966 73.7031C151.897 73.2879 151.067 73.2879 141.381 73.2188C135.569 73.2188 130.795 73.2188 130.726 73.3571H130.449ZM146.847 75.7095C146.847 75.7787 146.501 76.4705 146.016 77.2316C144.494 79.7915 143.871 82.1439 143.733 85.6724C143.456 92.9371 145.809 98.1261 150.652 100.894C151.067 101.101 150.998 101.24 150.167 102.485C149.683 103.246 148.784 104.56 148.092 105.529C146.639 107.536 143.664 112.517 142.142 115.354C141.588 116.461 141.035 117.36 140.966 117.36C140.896 117.36 140.343 116.461 139.789 115.354C138.267 112.517 135.292 107.536 133.839 105.529C133.217 104.63 132.248 103.246 131.764 102.485C130.933 101.24 130.933 101.101 131.279 100.894C136.053 98.1261 138.406 92.9371 138.198 85.6724C138.06 82.2131 137.437 79.7915 135.915 77.2316C135.431 76.4705 135.085 75.7787 135.085 75.7095C135.085 75.6403 137.714 75.5711 140.966 75.5711C144.217 75.5711 146.847 75.6403 146.847 75.7095Z" fill="#8C90A0"/>
<path d="M255.332 71.0044C256.231 71.4887 256.439 72.2497 255.816 73.08C254.847 74.3254 252.772 73.9102 252.772 72.4573C252.772 71.8346 253.81 70.6584 254.294 70.6584C254.502 70.6584 254.917 70.866 255.263 71.0044H255.332Z" fill="#8C90A0"/>
<path d="M238.588 71.0737C245.023 71.1429 248.136 71.212 248.344 71.4196C248.759 71.7655 248.759 72.8033 248.344 73.0801C247.444 73.6336 203.511 72.5958 193.963 74.533C189.881 75.3633 187.044 76.3319 184.207 77.9924C181.648 79.4453 181.232 79.5837 180.748 78.961C180.333 78.4767 180.817 77.5773 182.685 75.0865L184 73.3568H177.15C170.37 73.3568 170.232 73.3568 167.257 74.1179C162.344 75.2941 158.747 77.2313 156.187 80.068C154.457 81.936 153.904 83.5273 153.904 86.1565C153.904 87.8169 154.042 88.3704 154.595 89.5466C156.118 92.5909 158.885 94.4589 162.137 94.6665C164.212 94.8048 165.596 94.3897 167.464 93.2135C168.917 92.3141 170.162 90.7228 170.162 89.8234C170.162 87.9553 168.571 86.9175 166.08 87.1251C164.697 87.2634 164.489 87.2634 163.936 86.71C162.967 85.8105 162.898 85.1878 163.59 84.3576C165.319 82.3512 168.433 82.282 170.716 84.2192C172.1 85.3954 172.653 86.7099 172.653 88.7164C172.653 91.8298 170.854 94.3205 167.326 96.0502C165.804 96.8113 165.181 96.9496 163.451 97.088C159.715 97.2956 156.879 96.1886 154.319 93.4903C152.589 91.6914 151.69 89.8926 151.274 87.5402C150.721 84.2884 152.105 80.3447 154.803 77.4389C158.262 73.7028 161.86 72.0423 167.879 71.2812C169.955 71.0045 212.367 70.7969 238.796 71.0045L238.588 71.0737Z" fill="#8C90A0"/>
<path d="M26.6685 71.0044C25.7691 71.4887 25.5615 72.2497 26.1842 73.08C27.1528 74.3254 29.2284 73.9102 29.2284 72.4573C29.2284 71.8346 28.1906 70.6584 27.7063 70.6584C27.4988 70.6584 27.0836 70.866 26.7377 71.0044H26.6685Z" fill="#8C90A0"/>
<path d="M43.4119 71.0737C36.9775 71.1429 33.8641 71.212 33.6566 71.4196C33.2414 71.7655 33.2414 72.8033 33.6566 73.0801C34.556 73.6336 78.4898 72.5958 88.0376 74.533C92.1196 75.3633 94.9563 76.3319 97.793 77.9924C100.353 79.4453 100.768 79.5837 101.252 78.961C101.667 78.4767 101.183 77.5773 99.3151 75.0865L98.0005 73.3568H104.85C111.63 73.3568 111.769 73.3568 114.744 74.1179C119.656 75.2941 123.254 77.2313 125.814 80.068C127.543 81.936 128.097 83.5273 128.097 86.1565C128.097 87.8169 127.959 88.3704 127.405 89.5466C125.883 92.5909 123.115 94.4589 119.864 94.6665C117.788 94.8048 116.404 94.3897 114.536 93.2135C113.083 92.3141 111.838 90.7228 111.838 89.8234C111.838 87.9553 113.429 86.9175 115.92 87.1251C117.304 87.2634 117.511 87.2634 118.065 86.71C119.033 85.8105 119.103 85.1878 118.411 84.3576C116.681 82.3512 113.568 82.282 111.284 84.2192C109.901 85.3954 109.347 86.7099 109.347 88.7164C109.347 91.8298 111.146 94.3205 114.675 96.0502C116.197 96.8113 116.819 96.9496 118.549 97.088C122.285 97.2956 125.122 96.1886 127.682 93.4903C129.411 91.6914 130.311 89.8926 130.726 87.5402C131.279 84.2884 129.896 80.3447 127.197 77.4389C123.738 73.7028 120.14 72.0423 114.121 71.2812C112.045 71.0045 69.6338 70.7969 43.2044 71.0045L43.4119 71.0737Z" fill="#8C90A0"/>
<path d="M280.101 60.3487C281 59.8643 281.208 59.1033 280.585 58.273C279.617 57.0277 277.541 57.4428 277.541 58.8957C277.541 59.5184 278.579 60.6946 279.063 60.6946C279.271 60.6946 279.686 60.487 280.032 60.3487H280.101Z" fill="#8C90A0"/>
<path d="M263.357 60.28C269.792 60.2108 272.905 60.1416 273.113 59.934C273.528 59.5881 273.528 58.5503 273.113 58.2736C272.213 57.7201 228.28 58.7579 218.732 56.8206C214.65 55.9904 211.813 55.0218 208.976 53.3613C206.416 51.9084 206.001 51.77 205.517 52.3927C205.102 52.877 205.586 53.7764 207.454 56.2671L208.769 57.9968H201.919C195.139 57.9968 195.001 57.9968 192.026 57.2358C187.113 56.0596 183.516 54.1223 180.956 51.2857C179.226 49.4176 178.672 47.8263 178.672 45.1972C178.672 43.5367 178.811 42.9832 179.364 41.807C180.886 38.7628 183.654 36.8948 186.906 36.6872C188.981 36.5488 190.365 36.964 192.233 38.1401C193.686 39.0396 194.931 40.6309 194.931 41.5303C194.931 43.3983 193.34 44.4362 190.849 44.2286C189.466 44.0902 189.258 44.0902 188.705 44.6437C187.736 45.5431 187.667 46.1658 188.359 46.9961C190.088 49.0025 193.202 49.0717 195.485 47.1344C196.869 45.9583 197.422 44.6437 197.422 42.6373C197.422 39.5239 195.623 37.0331 192.095 35.3035C190.573 34.5424 189.95 34.404 188.22 34.2657C184.484 34.0581 181.647 35.1651 179.088 37.8634C177.358 39.6622 176.458 41.4611 176.043 43.8135C175.49 47.0653 176.874 51.0089 179.572 53.9148C183.031 57.6509 186.629 59.3114 192.648 60.0724C194.724 60.3492 237.136 60.5567 263.565 60.3492L263.357 60.28Z" fill="#8C90A0"/>
<path d="M1.83039 60.3487C0.930959 59.8643 0.723397 59.1033 1.34608 58.273C2.3147 57.0277 4.39031 57.4428 4.39031 58.8957C4.39031 59.5184 3.35251 60.6946 2.8682 60.6946C2.66063 60.6946 2.24551 60.487 1.89958 60.3487H1.83039Z" fill="#8C90A0"/>
<path d="M18.5738 60.28C12.1394 60.2108 9.02598 60.1416 8.81842 59.934C8.4033 59.5881 8.4033 58.5503 8.81842 58.2736C9.71785 57.7201 53.6516 58.7579 63.1994 56.8206C67.2815 55.9904 70.1181 55.0218 72.9548 53.3613C75.5147 51.9084 75.9299 51.77 76.4142 52.3927C76.8293 52.877 76.345 53.7764 74.4769 56.2671L73.1624 57.9968H80.0119C86.7922 57.9968 86.9306 57.9968 89.9056 57.2358C94.8179 56.0596 98.4157 54.1223 100.976 51.2857C102.705 49.4176 103.259 47.8263 103.259 45.1972C103.259 43.5367 103.12 42.9832 102.567 41.807C101.045 38.7628 98.2773 36.8948 95.0255 36.6872C92.9499 36.5488 91.5661 36.964 89.6981 38.1401C88.2452 39.0396 86.9998 40.6309 86.9998 41.5303C86.9998 43.3983 88.5911 44.4362 91.0818 44.2286C92.4656 44.0902 92.6731 44.0902 93.2266 44.6437C94.1952 45.5431 94.2644 46.1658 93.5726 46.9961C91.8429 49.0025 88.7295 49.0717 86.4463 47.1344C85.0626 45.9583 84.5091 44.6437 84.5091 42.6373C84.5091 39.5239 86.3079 37.0331 89.8365 35.3035C91.3586 34.5424 91.9813 34.404 93.7109 34.2657C97.447 34.0581 100.284 35.1651 102.844 37.8634C104.573 39.6622 105.473 41.4611 105.888 43.8135C106.441 47.0653 105.058 51.0089 102.359 53.9148C98.9 57.6509 95.3022 59.3114 89.283 60.0724C87.2074 60.3492 44.7957 60.5567 18.3662 60.3492L18.5738 60.28Z" fill="#8C90A0"/>
<path d="M150.098 7.00645C148.784 6.03783 147.331 5.34596 145.809 4.86165C144.287 4.37734 142.626 4.10059 140.966 4.10059C139.305 4.10059 137.714 4.37734 136.122 4.86165C134.6 5.34596 133.078 6.10701 131.695 7.07563C131.349 7.35238 130.933 7.42157 130.518 7.42157H126.644V40.7697H155.287V7.42157H151.413C150.929 7.42157 150.444 7.21401 150.098 6.93726V7.00645ZM147.054 0.987173C148.784 1.54067 150.444 2.37091 152.035 3.40872H157.363C158.47 3.40872 159.369 4.30815 159.369 5.41514V42.7761C159.369 43.8831 158.47 44.7826 157.363 44.7826H124.707C123.6 44.7826 122.7 43.8831 122.7 42.7761V5.41514C122.7 4.30815 123.6 3.40872 124.707 3.40872H130.034C131.625 2.37091 133.286 1.54067 135.015 0.987173C136.953 0.36449 139.028 0.0185547 141.104 0.0185547C143.18 0.0185547 145.186 0.36449 147.192 0.987173H147.054Z" fill="#8C90A0"/>
<path fill-rule="evenodd" clip-rule="evenodd" d="M134.739 18.4219V21.8121H139.305V32.0518H142.695V21.8121H147.262V18.4219H142.695V14.4783H139.305V18.4219H134.739Z" fill="#8C90A0"/>
<path d="M160.545 47.3428H121.455C120.691 47.3428 120.071 47.9623 120.071 48.7265V51.0097C120.071 51.7739 120.691 52.3934 121.455 52.3934H160.545C161.31 52.3934 161.929 51.7739 161.929 51.0097V48.7265C161.929 47.9623 161.31 47.3428 160.545 47.3428Z" fill="#8C90A0"/>
<path d="M163.797 55.7832H118.203C117.362 55.7832 116.681 56.4647 116.681 57.3053V59.3117C116.681 60.1524 117.362 60.8339 118.203 60.8339H163.797C164.638 60.8339 165.319 60.1524 165.319 59.3117V57.3053C165.319 56.4647 164.638 55.7832 163.797 55.7832Z" fill="#8C90A0"/>
</svg>
