<svg width="281" height="118" viewBox="0 0 281 118" fill="none" xmlns="http://www.w3.org/2000/svg">
<path d="M129.468 67.3285C129.092 67.7046 129.28 68.0807 130.032 68.4569C131.161 69.0211 132.853 70.7137 133.606 72.5944C134.734 75.0393 135.11 77.1081 135.11 80.3052C135.11 83.8785 134.734 86.1354 133.982 87.828C133.041 89.7087 130.22 92.5297 128.34 93.4701C126.835 94.2224 126.459 94.7866 127.023 95.3508C127.211 95.3508 127.587 96.1031 127.964 96.6673C128.34 97.4195 129.656 99.4883 130.973 101.557C133.229 104.942 136.239 110.396 138.872 115.474C139.436 116.791 140 117.731 140 117.731C140 117.731 140.564 116.791 141.128 115.474C143.573 110.396 146.77 104.942 149.027 101.557C150.344 99.6764 151.66 97.4195 152.036 96.6673C152.413 95.915 152.789 95.3508 152.977 95.3508C153.541 94.9746 153.165 94.4104 151.66 93.4701C150.532 92.9059 149.592 92.1536 148.463 90.8371C145.642 87.828 145.078 85.9473 145.078 80.3052C145.078 77.1081 145.454 75.0393 146.582 72.5944C147.335 70.9018 148.839 69.0211 150.156 68.4569C150.72 68.2688 150.908 67.8927 150.908 67.7046C150.908 67.3285 149.968 67.3285 140.376 67.1404C134.546 67.1404 129.844 67.1404 129.656 67.3285H129.468ZM145.83 69.7734C145.83 69.7734 145.454 70.5256 145.078 71.2779C143.573 73.9109 143.009 76.1677 142.821 79.741C142.633 87.0757 144.89 92.1536 149.78 94.9746C150.156 95.1627 150.156 95.3508 149.403 96.4792C148.839 97.2315 148.087 98.548 147.335 99.4883C145.83 101.557 142.821 106.447 141.316 109.268C140.752 110.396 140.188 111.337 140.188 111.337C140.188 111.337 139.624 110.396 139.06 109.268C137.555 106.447 134.546 101.369 133.041 99.4883C132.477 98.548 131.537 97.2315 130.973 96.4792C130.22 95.1627 130.22 95.1627 130.597 94.9746C135.486 92.1536 137.743 87.0757 137.555 79.741C137.367 76.1677 136.803 73.9109 135.298 71.2779C134.922 70.5256 134.546 69.7734 134.546 69.7734C134.546 69.7734 137.179 69.5853 140.376 69.5853C143.573 69.5853 146.206 69.5853 146.206 69.7734H145.83Z" fill="#8C90A0"/>
<path d="M254.347 64.8837C255.287 65.4479 255.475 66.2002 254.911 66.9525C253.97 68.269 251.902 67.7048 251.902 66.3883C251.902 65.8241 252.842 64.5076 253.406 64.5076C253.594 64.5076 253.97 64.6956 254.347 64.8837Z" fill="#8C90A0"/>
<path d="M237.608 65.0717C244.003 65.0717 247.2 65.2598 247.388 65.4478C247.764 65.824 247.764 66.7643 247.388 67.1404C246.447 67.7047 202.627 66.5762 193.036 68.645C188.898 69.3973 186.077 70.5257 183.256 72.0302C180.623 73.5348 180.247 73.5348 179.683 72.9706C179.307 72.4064 179.683 71.6541 181.564 69.2092L182.88 67.5166H175.921C169.151 67.5166 168.963 67.5166 165.954 68.2689C161.064 69.3973 157.491 71.466 154.858 74.2871C153.165 76.1678 152.601 77.6723 152.601 80.3053C152.601 81.9979 152.789 82.5621 153.353 83.6905C154.858 86.6996 157.679 88.5803 160.876 88.7684C162.945 88.9565 164.261 88.5803 166.142 87.2639C167.646 86.3235 168.775 84.819 168.775 83.8786C168.775 81.9979 167.082 80.8695 164.637 81.2456C163.321 81.4337 163.133 81.4337 162.38 80.8695C161.44 79.9292 161.252 79.3649 162.004 78.4246C163.697 76.3558 166.894 76.3558 169.151 78.2365C170.467 79.3649 171.032 80.6814 171.032 82.7502C171.032 85.7593 169.151 88.3923 165.766 90.0849C164.261 90.8372 163.509 91.0252 162.004 91.0252C158.243 91.2133 155.422 90.0849 152.789 87.4519C151.096 85.7593 150.156 83.8786 149.78 81.4337C149.216 78.2365 150.532 74.2871 153.353 71.278C156.738 67.5166 160.312 65.824 166.518 65.0717C168.587 64.8836 210.902 64.5075 237.42 64.6955L237.608 65.0717Z" fill="#8C90A0"/>
<path d="M25.6539 64.8837C24.7136 65.4479 24.5255 66.2002 25.0897 66.9525C26.0301 68.269 28.0988 67.7048 28.0988 66.3883C28.0988 65.8241 27.1585 64.5076 26.5943 64.5076C26.4062 64.5076 26.0301 64.6956 25.6539 64.8837Z" fill="#8C90A0"/>
<path d="M42.3921 65.0717C35.9977 65.0717 32.8006 65.2598 32.6125 65.4478C32.2363 65.824 32.2363 66.7643 32.6125 67.1404C33.5528 67.7047 77.373 66.5762 86.9645 68.645C91.102 69.3973 93.9231 70.5257 96.7441 72.0302C99.3771 73.5348 99.7532 73.5348 100.317 72.9706C100.694 72.4064 100.317 71.6541 98.4368 69.2092L97.1203 67.5166H104.079C110.849 67.5166 111.037 67.5166 114.047 68.2689C118.936 69.3973 122.51 71.466 125.143 74.2871C126.835 76.1678 127.399 77.6723 127.399 80.3053C127.399 81.9979 127.211 82.5621 126.647 83.6905C125.143 86.6996 122.322 88.5803 119.124 88.7684C117.056 88.9565 115.739 88.5803 113.858 87.2639C112.354 86.3235 111.225 84.819 111.225 83.8786C111.225 81.9979 112.918 80.8695 115.363 81.2456C116.679 81.4337 116.868 81.4337 117.62 80.8695C118.56 79.9292 118.748 79.3649 117.996 78.4246C116.303 76.3558 113.106 76.3558 110.849 78.2365C109.533 79.3649 108.969 80.6814 108.969 82.7502C108.969 85.7593 110.849 88.3923 114.235 90.0849C115.739 90.8372 116.491 91.0252 117.996 91.0252C121.757 91.2133 124.578 90.0849 127.211 87.4519C128.904 85.7593 129.844 83.8786 130.22 81.4337C130.785 78.2365 129.468 74.2871 126.647 71.278C123.262 67.5166 119.689 65.824 113.482 65.0717C111.414 64.8836 69.0979 64.5075 42.5802 64.6955L42.3921 65.0717Z" fill="#8C90A0"/>
<path d="M279.172 54.1633C280.112 53.5991 280.3 52.8468 279.736 52.0945C278.796 50.778 276.727 51.3422 276.727 52.6587C276.727 53.2229 277.667 54.5394 278.231 54.5394C278.419 54.5394 278.796 54.3513 279.172 54.1633Z" fill="#8C90A0"/>
<path d="M262.433 54.1638C268.828 54.1638 272.025 53.9758 272.213 53.7877C272.589 53.4116 272.589 52.4712 272.213 52.0951C271.273 51.5309 227.452 52.6593 217.861 50.5905C213.723 49.8382 210.902 48.7098 208.081 47.2053C205.448 45.7007 205.072 45.7007 204.508 46.2649C204.132 46.8291 204.508 47.5814 206.389 50.0263L207.705 51.7189H200.747C193.976 51.7189 193.788 51.7189 190.779 50.9667C185.889 49.8382 182.316 47.7695 179.683 44.9484C177.99 43.0677 177.426 41.5632 177.426 38.9302C177.426 37.2376 177.614 36.6734 178.178 35.545C179.683 32.5359 182.504 30.6552 185.701 30.4671C187.77 30.279 189.086 30.6552 190.967 31.9717C192.472 32.912 193.6 34.4166 193.6 35.3569C193.6 37.2376 191.907 38.366 189.462 37.9899C188.146 37.8018 187.958 37.8018 187.206 38.366C186.265 39.3064 186.077 39.8706 186.83 40.8109C188.522 42.8797 191.719 42.8797 193.976 40.999C195.293 39.8706 195.857 38.5541 195.857 36.4853C195.857 33.4762 193.976 30.8432 190.591 29.1506C189.086 28.3983 188.334 28.2103 186.83 28.2103C183.068 28.0222 180.247 29.1506 177.614 31.7836C175.921 33.4762 174.981 35.3569 174.605 37.8018C174.041 40.999 175.357 44.9484 178.178 47.9576C181.564 51.7189 185.137 53.4116 191.343 54.1638C193.412 54.3519 235.728 54.728 262.245 54.54L262.433 54.1638Z" fill="#8C90A0"/>
<path d="M1.01677 54.1633C0.0764212 53.5991 -0.111648 52.8468 0.45256 52.0945C1.39291 50.778 3.46167 51.3422 3.46167 52.6587C3.46167 53.2229 2.52132 54.5394 1.95711 54.5394C1.76904 54.5394 1.39291 54.3513 1.01677 54.1633Z" fill="#8C90A0"/>
<path d="M17.7549 54.1638C11.3606 54.1638 8.16341 53.9758 7.97534 53.7877C7.5992 53.4116 7.5992 52.4712 7.97534 52.0951C8.91569 51.5309 52.7358 52.6593 62.3274 50.5905C66.4649 49.8382 69.2859 48.7098 72.107 47.2053C74.74 45.7007 75.1161 45.7007 75.6803 46.2649C76.0564 46.8291 75.6803 47.5814 73.7996 50.0263L72.4831 51.7189H79.4417C86.2122 51.7189 86.4003 51.7189 89.4094 50.9667C94.2992 49.8382 97.8725 47.7695 100.505 44.9484C102.198 43.0677 102.762 41.5632 102.762 38.9302C102.762 37.2376 102.574 36.6734 102.01 35.545C100.505 32.5359 97.6844 30.6552 94.4872 30.4671C92.4185 30.279 91.102 30.6552 89.2213 31.9717C87.7167 32.912 86.5883 34.4166 86.5883 35.3569C86.5883 37.2376 88.281 38.366 90.7259 37.9899C92.0423 37.8018 92.2304 37.8018 92.9827 38.366C93.923 39.3064 94.1111 39.8706 93.3588 40.8109C91.6662 42.8797 88.469 42.8797 86.2122 40.999C84.8957 39.8706 84.3315 38.5541 84.3315 36.4853C84.3315 33.4762 86.2122 30.8432 89.5974 29.1506C91.102 28.3983 91.8543 28.2103 93.3588 28.2103C97.1202 28.0222 99.9413 29.1506 102.574 31.7836C104.267 33.4762 105.207 35.3569 105.583 37.8018C106.148 40.999 104.831 44.9484 102.01 47.9576C98.6248 51.7189 95.0514 53.4116 88.8452 54.1638C86.7764 54.3519 44.4608 54.728 17.943 54.54L17.7549 54.1638Z" fill="#8C90A0"/>
<path fill-rule="evenodd" clip-rule="evenodd" d="M155.422 3.76139H165.954C166.518 3.76139 166.894 3.94946 167.27 4.32559C167.646 4.70173 167.834 5.07787 167.834 5.64208V52.8475C167.834 53.4117 167.646 53.7878 167.27 54.164C166.894 54.5401 166.518 54.7282 165.954 54.7282H114.235C113.671 54.7282 113.294 54.5401 112.918 54.164C112.542 53.7878 112.354 53.4117 112.354 52.8475V5.64208C112.354 5.07787 112.542 4.70173 112.918 4.32559C113.294 3.94946 113.671 3.76139 114.235 3.76139H124.767V1.88069C124.767 0.940347 125.331 0.376139 125.895 0.188069C126.083 0 126.459 0 126.647 0C126.835 0 127.212 0 127.4 0.188069C127.964 0.376139 128.528 1.12842 128.528 1.88069V3.76139H151.472V1.88069C151.472 0.940347 152.037 0.376139 152.601 0.188069C152.789 0 153.165 0 153.353 0C153.541 0 153.917 0 154.105 0.188069C154.67 0.376139 155.234 1.12842 155.234 1.88069V3.76139H155.422ZM116.115 50.9668H164.073V19.7473H116.115V50.9668ZM124.767 7.52277H116.115V15.7978H164.073V7.52277H155.422V9.40347C155.422 10.3438 154.858 10.908 154.294 11.0961C154.105 11.2842 153.729 11.2842 153.541 11.2842C153.353 11.2842 152.977 11.2842 152.789 11.0961C152.225 10.908 151.661 10.1557 151.661 9.40347V7.52277H128.716V9.40347C128.716 10.3438 128.152 10.908 127.588 11.0961C127.4 11.2842 127.023 11.2842 126.835 11.2842C126.647 11.2842 126.271 11.2842 126.083 11.0961C125.519 10.908 124.955 10.1557 124.955 9.40347V7.52277H124.767Z" fill="#8C90A0"/>
<path d="M128.716 40.8109C128.716 40.9989 128.716 41.187 128.716 41.187C128.716 41.3751 128.716 41.3751 128.716 41.5631C128.716 41.5631 128.716 41.7512 128.528 41.7512H128.34H121.381H121.193C121.193 41.7512 121.193 41.7512 121.005 41.5631C121.005 41.5631 121.005 41.3751 121.005 41.187C121.005 40.9989 121.005 40.9989 121.005 40.8109C121.005 40.6228 121.005 40.4347 121.005 40.2466C121.005 40.0586 121.005 40.0586 121.005 39.8705C121.005 39.8705 121.005 39.6824 121.193 39.6824H121.381H123.826V31.4074L121.757 32.5358C121.569 32.5358 121.569 32.7239 121.381 32.7239C121.193 32.7239 121.193 32.7239 121.193 32.7239C121.193 32.7239 121.193 32.5358 121.005 32.3477C121.005 32.1597 121.005 31.9716 121.005 31.7835C121.005 31.5955 121.005 31.4074 121.005 31.4074C121.005 31.2193 121.005 31.2193 121.005 31.2193C121.005 31.2193 121.005 31.0312 121.193 31.0312C121.193 31.0312 121.381 31.0312 121.381 30.8432L124.014 29.1506C124.014 29.1506 124.014 29.1506 124.202 29.1506H124.39C124.39 29.1506 124.578 29.1506 124.766 29.1506C124.954 29.1506 125.142 29.1506 125.33 29.1506C125.519 29.1506 125.707 29.1506 125.895 29.1506C126.083 29.1506 126.083 29.1506 126.271 29.1506H126.459C126.459 29.1506 126.459 29.1506 126.459 29.3386V39.8705H128.528H128.716C128.716 39.8705 128.716 39.8705 128.904 40.0586C128.904 40.0586 128.904 40.2466 128.904 40.4347C128.904 40.6228 128.904 40.8109 128.904 40.9989L128.716 40.8109ZM139.06 34.7926C139.06 35.3568 139.06 35.921 139.06 36.4853C139.06 37.0495 138.871 37.6137 138.683 38.1779C138.495 38.7421 138.307 39.1182 138.119 39.6824C137.931 40.2466 137.555 40.6228 137.179 40.9989C136.803 41.3751 136.238 41.5631 135.674 41.7512C135.11 41.9393 134.358 42.1273 133.606 42.1273C133.417 42.1273 133.041 42.1273 132.853 42.1273C132.665 42.1273 132.289 42.1273 132.101 41.9393C131.913 41.9393 131.725 41.7512 131.537 41.7512C131.349 41.7512 131.349 41.5631 131.161 41.5631C131.161 41.5631 130.973 41.3751 130.973 41.187C130.973 40.9989 130.973 40.8109 130.973 40.6228C130.973 40.4347 130.973 40.2466 130.973 40.0586C130.973 39.8705 130.973 39.8705 130.973 39.6824C130.973 39.6824 130.973 39.4944 131.161 39.4944C131.161 39.4944 131.161 39.4944 131.349 39.4944C131.349 39.4944 131.537 39.4944 131.725 39.4944C131.913 39.4944 132.101 39.6824 132.289 39.6824C132.477 39.6824 132.665 39.8705 133.041 39.8705C133.229 39.8705 133.606 39.8705 133.982 39.8705C134.546 39.8705 134.922 39.6824 135.298 39.4944C135.674 39.3063 136.05 39.1182 136.238 38.7421C136.427 38.366 136.615 37.9898 136.803 37.6137C136.991 37.2375 136.991 36.6733 136.991 36.2972C136.615 36.4853 136.238 36.6733 135.862 36.8614C135.486 37.0495 134.922 37.0495 134.358 37.0495C133.606 37.0495 133.041 37.0495 132.665 36.8614C132.101 36.6733 131.725 36.4853 131.537 36.1091C131.161 35.733 130.973 35.3568 130.973 34.9807C130.784 34.4165 130.784 34.0404 130.784 33.2881C130.784 32.7239 130.784 32.1597 131.161 31.5955C131.349 31.0312 131.725 30.6551 131.913 30.279C132.289 29.9028 132.665 29.5267 133.229 29.3386C133.794 29.1506 134.358 28.9625 135.11 28.9625C135.674 28.9625 136.238 28.9625 136.615 29.1506C136.991 29.3386 137.367 29.5267 137.743 29.7148C138.119 29.9028 138.307 30.279 138.495 30.6551C138.683 31.0312 138.871 31.4074 139.06 31.7835C139.248 32.1597 139.248 32.7239 139.248 33.2881C139.248 33.8523 139.248 34.4165 139.248 34.9807L139.06 34.7926ZM136.427 34.4165C136.427 33.6642 136.427 33.1 136.238 32.7239C136.238 32.3477 136.05 31.9716 135.862 31.5955C135.674 31.4074 135.486 31.0312 135.298 31.0312C135.11 30.8432 134.734 30.8432 134.546 30.8432C134.17 30.8432 133.982 30.8432 133.794 31.0312C133.606 31.2193 133.417 31.2193 133.229 31.4074C133.041 31.5955 133.041 31.7835 132.853 32.1597C132.853 32.3477 132.665 32.7239 132.665 33.1C132.665 33.4761 132.665 33.6642 132.665 34.0404C132.665 34.2284 132.853 34.6046 133.041 34.6046C133.229 34.7926 133.417 34.9807 133.606 34.9807C133.794 34.9807 134.17 35.1688 134.358 35.1688C134.734 35.1688 135.11 35.1688 135.486 34.9807C135.862 34.7926 136.05 34.7926 136.427 34.6046V34.4165ZM149.215 34.7926C149.215 35.3568 149.215 35.921 149.215 36.4853C149.215 37.0495 149.027 37.6137 148.839 38.1779C148.651 38.7421 148.463 39.1182 148.275 39.6824C148.087 40.2466 147.711 40.6228 147.335 40.9989C146.958 41.3751 146.394 41.5631 145.83 41.7512C145.266 41.9393 144.514 42.1273 143.761 42.1273C143.573 42.1273 143.197 42.1273 143.009 42.1273C142.821 42.1273 142.445 42.1273 142.257 41.9393C142.069 41.9393 141.881 41.7512 141.693 41.7512C141.504 41.7512 141.504 41.5631 141.316 41.5631C141.316 41.5631 141.128 41.3751 141.128 41.187C141.128 40.9989 141.128 40.8109 141.128 40.6228C141.128 40.4347 141.128 40.2466 141.128 40.0586C141.128 39.8705 141.128 39.8705 141.128 39.6824C141.128 39.6824 141.128 39.4944 141.316 39.4944C141.316 39.4944 141.316 39.4944 141.504 39.4944C141.504 39.4944 141.693 39.4944 141.881 39.4944C142.069 39.4944 142.257 39.6824 142.445 39.6824C142.633 39.6824 142.821 39.8705 143.197 39.8705C143.385 39.8705 143.761 39.8705 144.137 39.8705C144.702 39.8705 145.078 39.6824 145.454 39.4944C145.83 39.3063 146.206 39.1182 146.394 38.7421C146.582 38.366 146.77 37.9898 146.958 37.6137C147.147 37.2375 147.147 36.6733 147.147 36.2972C146.77 36.4853 146.394 36.6733 146.018 36.8614C145.642 37.0495 145.078 37.0495 144.514 37.0495C143.761 37.0495 143.197 37.0495 142.821 36.8614C142.257 36.6733 141.881 36.4853 141.693 36.1091C141.316 35.733 141.128 35.3568 141.128 34.9807C140.94 34.4165 140.94 34.0404 140.94 33.2881C140.94 32.7239 140.94 32.1597 141.316 31.5955C141.504 31.0312 141.881 30.6551 142.069 30.279C142.445 29.9028 142.821 29.5267 143.385 29.3386C143.949 29.1506 144.514 28.9625 145.266 28.9625C145.83 28.9625 146.394 28.9625 146.77 29.1506C147.147 29.3386 147.523 29.5267 147.899 29.7148C148.275 29.9028 148.463 30.279 148.651 30.6551C148.839 31.0312 149.027 31.4074 149.215 31.7835C149.403 32.1597 149.403 32.7239 149.403 33.2881C149.403 33.8523 149.403 34.4165 149.403 34.9807L149.215 34.7926ZM146.582 34.4165C146.582 33.6642 146.582 33.1 146.394 32.7239C146.394 32.3477 146.206 31.9716 146.018 31.5955C145.83 31.4074 145.642 31.0312 145.454 31.0312C145.266 30.8432 144.89 30.8432 144.702 30.8432C144.325 30.8432 144.137 30.8432 143.949 31.0312C143.761 31.2193 143.573 31.2193 143.385 31.4074C143.197 31.5955 143.197 31.7835 143.009 32.1597C143.009 32.3477 142.821 32.7239 142.821 33.1C142.821 33.4761 142.821 33.6642 142.821 34.0404C142.821 34.2284 143.009 34.6046 143.197 34.6046C143.385 34.7926 143.573 34.9807 143.761 34.9807C143.949 34.9807 144.325 35.1688 144.514 35.1688C144.89 35.1688 145.266 35.1688 145.642 34.9807C146.018 34.7926 146.206 34.7926 146.582 34.6046V34.4165ZM159.183 40.6228C159.183 40.8109 159.183 40.9989 159.183 41.187C159.183 41.3751 159.183 41.3751 159.183 41.5631C159.183 41.5631 159.183 41.7512 158.995 41.7512H158.807H151.472C151.284 41.7512 151.284 41.7512 151.096 41.7512C150.908 41.7512 150.908 41.7512 150.908 41.5631C150.908 41.5631 150.72 41.3751 150.72 41.187C150.72 40.9989 150.72 40.8109 150.72 40.6228C150.72 40.4347 150.72 40.2466 150.72 40.0586C150.72 39.8705 150.72 39.6824 150.908 39.6824C150.908 39.4944 151.096 39.4944 151.096 39.3063C151.096 39.1182 151.284 39.1182 151.472 38.9302L153.729 36.6733C154.105 36.2972 154.481 35.733 154.857 35.3568C155.045 34.9807 155.422 34.6046 155.422 34.4165C155.61 34.0404 155.61 33.8523 155.798 33.4761C155.798 33.2881 155.798 32.9119 155.798 32.7239C155.798 32.5358 155.798 32.3477 155.61 32.1597C155.61 31.9716 155.422 31.7835 155.233 31.5955C155.045 31.4074 154.857 31.4074 154.669 31.2193C154.481 31.2193 154.293 31.0312 153.917 31.0312C153.541 31.0312 153.165 31.0312 152.977 31.2193C152.601 31.4074 152.412 31.4074 152.224 31.5955C152.036 31.7835 151.848 31.7835 151.66 31.9716C151.472 32.1597 151.472 32.1597 151.284 32.1597H151.096C151.096 32.1597 151.096 31.9716 150.908 31.9716C150.908 31.9716 150.908 31.7835 150.908 31.5955C150.908 31.4074 150.908 31.2193 150.908 31.0312C150.908 30.8432 150.908 30.8432 150.908 30.6551C150.908 30.467 150.908 30.467 150.908 30.467V30.279C150.908 30.279 150.908 30.0909 151.096 30.0909C151.096 30.0909 151.284 29.9028 151.472 29.7148C151.66 29.5267 152.036 29.5267 152.224 29.3386C152.601 29.1506 152.977 29.1506 153.353 28.9625C153.729 28.9625 154.105 28.7744 154.481 28.7744C155.233 28.7744 155.798 28.7744 156.174 28.9625C156.738 29.1506 157.114 29.3386 157.49 29.7148C157.866 30.0909 158.055 30.279 158.243 30.8432C158.431 31.2193 158.431 31.5955 158.431 32.1597C158.431 32.5358 158.431 32.9119 158.243 33.2881C158.243 33.6642 158.055 34.0404 157.678 34.6046C157.49 34.9807 157.114 35.5449 156.55 36.1091C156.174 36.6733 155.422 37.2375 154.669 37.9898L153.165 39.4944H158.243H158.431L158.619 39.6824C158.619 39.6824 158.619 39.8705 158.619 40.0586C158.619 40.2466 158.619 40.4347 158.619 40.6228H159.183Z" fill="#8C90A0"/>
</svg>
