<svg width="282" height="119" viewBox="0 0 282 119" fill="none" xmlns="http://www.w3.org/2000/svg">
<path d="M130.445 68.2743C130.088 68.6311 130.326 69.1068 131.099 69.4041C132.288 69.9392 133.894 71.723 134.667 73.4474C135.797 75.8853 136.153 77.9664 136.153 81.0584C136.153 84.5665 135.797 86.8855 135.024 88.4909C134.072 90.3937 131.337 93.1883 129.434 94.1992C127.948 94.9721 127.472 95.6262 128.067 95.983C128.186 96.0424 128.602 96.6965 128.959 97.3506C129.315 98.0046 130.683 100.205 131.991 102.167C134.251 105.556 137.343 110.967 139.78 116.021C140.375 117.27 140.91 118.221 140.97 118.221C141.029 118.221 141.564 117.21 142.159 116.021C144.656 110.967 147.748 105.497 150.008 102.167C151.316 100.205 152.683 98.0641 153.04 97.3506C153.397 96.6965 153.754 96.0424 153.932 95.983C154.527 95.5667 154.051 94.9721 152.565 94.1992C151.494 93.664 150.483 92.8316 149.294 91.5829C146.5 88.5504 145.845 86.7071 145.845 81.1178C145.845 77.8475 146.202 75.9447 147.332 73.4474C148.105 71.6636 149.71 69.8798 150.9 69.4041C151.435 69.1662 151.673 68.9284 151.613 68.6311C151.554 68.2743 150.721 68.2149 141.029 68.1554C135.261 68.0959 130.445 68.1554 130.386 68.2743H130.445ZM146.856 70.6528C146.856 70.7122 146.5 71.3663 146.024 72.1987C144.537 74.7555 143.883 77.134 143.764 80.5827C143.526 87.8369 145.845 93.0099 150.662 95.8046C151.019 96.0424 151.019 96.1614 150.186 97.41C149.71 98.1236 148.759 99.4911 148.105 100.443C146.678 102.464 143.705 107.459 142.159 110.254C141.564 111.324 141.029 112.275 140.97 112.275C140.91 112.275 140.375 111.383 139.78 110.254C138.294 107.399 135.261 102.464 133.834 100.443C133.18 99.4911 132.229 98.1236 131.753 97.41C130.921 96.1614 130.921 96.0424 131.278 95.8046C136.094 93.0099 138.413 87.8369 138.175 80.5827C138.056 77.0745 137.402 74.6961 135.916 72.1987C135.44 71.4257 135.083 70.7122 135.083 70.6528C135.083 70.5933 137.699 70.5338 140.91 70.5338C144.121 70.5338 146.737 70.5933 146.737 70.6528H146.856Z" fill="#8C90A0"/>
<path d="M255.372 65.8963C256.324 66.372 256.502 67.1449 255.907 67.9774C254.956 69.2261 252.875 68.8098 252.875 67.3233C252.875 66.6693 253.886 65.48 254.421 65.5395C254.599 65.5395 255.075 65.7179 255.432 65.8963H255.372Z" fill="#8C90A0"/>
<path d="M238.604 66.0155C245.026 66.075 248.118 66.1939 248.356 66.3723C248.772 66.7291 248.772 67.7399 248.356 67.9777C247.464 68.5723 203.523 67.5021 193.949 69.4643C189.847 70.2967 186.992 71.3075 184.198 72.913C181.641 74.3995 181.225 74.5184 180.69 73.9238C180.333 73.4481 180.749 72.5562 182.592 70.0589L183.901 68.3345H177.003C170.225 68.3345 170.106 68.3345 167.073 69.048C162.197 70.2372 158.57 72.1994 156.014 74.9941C154.289 76.8968 153.695 78.4428 153.695 81.1185C153.695 82.7834 153.813 83.3186 154.408 84.5078C155.895 87.5403 158.689 89.443 161.96 89.6214C164.041 89.7403 165.408 89.3241 167.311 88.1349C168.738 87.243 169.987 85.6375 169.987 84.7456C169.987 82.8429 168.381 81.8321 165.884 82.0699C164.516 82.1888 164.279 82.1888 163.684 81.6537C162.733 80.7618 162.614 80.1672 163.327 79.2753C165.052 77.2536 168.143 77.1941 170.462 79.1563C171.83 80.3455 172.425 81.6537 172.425 83.6753C172.425 86.7673 170.581 89.2646 167.073 91.0485C165.527 91.8214 164.873 91.9998 163.208 92.0593C159.462 92.2971 156.668 91.1674 154.051 88.4917C152.327 86.7078 151.376 84.8646 151.019 82.5456C150.484 79.3347 151.851 75.3509 154.527 72.4373C157.976 68.6913 161.543 67.0264 167.608 66.2534C169.689 66.0155 212.085 65.7777 238.545 65.9561L238.604 66.0155Z" fill="#8C90A0"/>
<path d="M26.6272 65.8963C25.6758 66.372 25.4975 67.1449 26.0921 67.9774C27.0434 69.2261 29.1246 68.8098 29.1246 67.3233C29.1246 66.6693 28.1137 65.48 27.5786 65.5395C27.4002 65.5395 26.9245 65.7179 26.5678 65.8963H26.6272Z" fill="#8C90A0"/>
<path d="M43.3951 66.0155C36.9734 66.075 33.8814 66.1939 33.6436 66.3723C33.2274 66.7291 33.2274 67.7399 33.6436 67.9777C34.5355 68.5723 78.4769 67.5021 88.0501 69.4643C92.1528 70.2967 95.0069 71.3075 97.8016 72.913C100.358 74.3995 100.775 74.5184 101.31 73.9238C101.667 73.4481 101.25 72.5562 99.407 70.0589L98.0989 68.3345H104.996C111.775 68.3345 111.894 68.3345 114.926 69.048C119.802 70.2372 123.429 72.1994 125.986 74.9941C127.71 76.8968 128.305 78.4428 128.305 81.1185C128.305 82.7834 128.186 83.3186 127.591 84.5078C126.105 87.5403 123.31 89.443 120.04 89.6214C117.959 89.7403 116.591 89.3241 114.688 88.1349C113.261 87.243 112.013 85.6375 112.013 84.7456C112.013 82.8429 113.618 81.8321 116.115 82.0699C117.483 82.1888 117.721 82.1888 118.316 81.6537C119.267 80.7618 119.386 80.1672 118.672 79.2753C116.948 77.2536 113.856 77.1941 111.537 79.1563C110.169 80.3455 109.575 81.6537 109.575 83.6753C109.575 86.7673 111.418 89.2646 114.926 91.0485C116.472 91.8214 117.126 91.9998 118.791 92.0593C122.537 92.2971 125.332 91.1674 127.948 88.4917C129.672 86.7078 130.624 84.8646 130.981 82.5456C131.516 79.3347 130.148 75.3509 127.472 72.4373C124.024 68.6913 120.456 67.0264 114.391 66.2534C112.31 66.0155 69.9146 65.7777 43.4546 65.9561L43.3951 66.0155Z" fill="#8C90A0"/>
<path d="M280.167 55.1923C281.119 54.7166 281.297 53.9436 280.702 53.1112C279.751 51.8625 277.67 52.2787 277.67 53.7652C277.67 54.4193 278.681 55.6085 279.216 55.5491C279.394 55.5491 279.87 55.3707 280.227 55.1923H280.167Z" fill="#8C90A0"/>
<path d="M263.399 55.133C269.821 55.0735 272.913 54.9546 273.151 54.7762C273.567 54.4195 273.567 53.4086 273.151 53.1708C272.259 52.5762 228.318 53.6465 218.744 51.6843C214.642 50.8518 211.787 49.841 208.993 48.2356C206.436 46.7491 206.02 46.6301 205.485 47.2247C205.128 47.7004 205.544 48.5923 207.387 51.0897L208.696 52.814H201.798C195.02 52.814 194.901 52.814 191.868 52.1005C186.992 50.9113 183.365 48.9491 180.809 46.1545C179.084 44.2517 178.49 42.7057 178.49 40.03C178.49 38.3651 178.608 37.83 179.203 36.6408C180.69 33.6083 183.484 31.7055 186.755 31.5271C188.836 31.4082 190.203 31.8244 192.106 33.0137C193.533 33.9056 194.782 35.511 194.782 36.4029C194.782 38.3057 193.176 39.3165 190.679 39.0786C189.311 38.9597 189.074 38.9597 188.479 39.4949C187.528 40.3868 187.409 40.9814 188.122 41.8733C189.847 43.8949 192.938 43.9544 195.257 41.9922C196.625 40.803 197.22 39.4949 197.22 37.4732C197.22 34.3813 195.376 31.8839 191.868 30.1001C190.322 29.3271 189.668 29.1487 188.003 29.0893C184.257 28.8514 181.463 29.9812 178.846 32.6569C177.122 34.4407 176.171 36.284 175.814 38.603C175.279 41.8138 176.646 45.7977 179.322 48.7113C182.771 52.4573 186.338 54.1222 192.403 54.8952C194.484 55.133 236.88 55.3708 263.34 55.1925L263.399 55.133Z" fill="#8C90A0"/>
<path d="M1.83217 55.1923C0.880797 54.7166 0.702415 53.9436 1.29702 53.1112C2.24839 51.8625 4.32951 52.2787 4.32951 53.7652C4.32951 54.4193 3.31868 55.6085 2.78354 55.5491C2.60515 55.5491 2.12947 55.3707 1.77271 55.1923H1.83217Z" fill="#8C90A0"/>
<path d="M18.6001 55.133C12.1783 55.0735 9.08639 54.9546 8.84855 54.7762C8.43232 54.4195 8.43232 53.4086 8.84855 53.1708C9.74045 52.5762 53.6818 53.6465 63.255 51.6843C67.3578 50.8518 70.2119 49.841 73.0065 48.2356C75.5633 46.7491 75.9796 46.6301 76.5147 47.2247C76.8715 47.7004 76.4553 48.5923 74.612 51.0897L73.3038 52.814H80.2013C86.9798 52.814 87.0987 52.814 90.1312 52.1005C95.007 50.9113 98.6341 48.9491 101.191 46.1545C102.915 44.2517 103.51 42.7057 103.51 40.03C103.51 38.3651 103.391 37.83 102.796 36.6408C101.31 33.6083 98.5151 31.7055 95.2448 31.5271C93.1637 31.4082 91.7961 31.8244 89.8933 33.0137C88.4663 33.9056 87.2176 35.511 87.2176 36.4029C87.2176 38.3057 88.8231 39.3165 91.3204 39.0786C92.688 38.9597 92.9258 38.9597 93.5204 39.4949C94.4718 40.3868 94.5907 40.9814 93.8772 41.8733C92.1529 43.8949 89.0609 43.9544 86.7419 41.9922C85.3743 40.803 84.7797 39.4949 84.7797 37.4732C84.7797 34.3813 86.623 31.8839 90.1312 30.1001C91.6772 29.3271 92.3312 29.1487 93.9961 29.0893C97.7421 28.8514 100.537 29.9812 103.153 32.6569C104.877 34.4407 105.829 36.284 106.186 38.603C106.721 41.8138 105.353 45.7977 102.677 48.7113C99.2287 52.4573 95.661 54.1222 89.596 54.8952C87.5149 55.133 45.1195 55.3708 18.6595 55.1925L18.6001 55.133Z" fill="#8C90A0"/>
<path fill-rule="evenodd" clip-rule="evenodd" d="M157.322 8.99157C157.143 8.81319 156.965 8.69427 156.727 8.63481L143.943 4.59149C138.829 2.98605 135.5 5.7807 134.608 6.67261C134.073 7.20775 133.656 7.7429 133.478 8.21858L127.77 21.6567C127.472 22.4297 127.532 23.4405 128.067 24.4513C128.781 25.8784 130.148 26.9487 131.694 27.3054C133.478 27.7217 135.321 27.1271 136.748 25.7C137.105 25.3432 137.462 24.927 137.64 24.5702L139.543 21.0026C139.84 20.408 140.316 19.8134 140.792 19.3377C142.457 17.6728 143.229 18.4458 143.527 18.7431C146.381 21.5378 161.424 36.5813 161.424 36.5813C161.96 37.1164 161.841 38.1273 161.187 38.7813C160.533 39.4354 159.522 39.5543 158.987 39.0192L154.765 34.7975C154.23 34.2623 153.338 34.2623 152.803 34.7975C152.268 35.3326 152.268 36.2245 152.803 36.7597L157.024 40.9814C157.56 41.5165 157.441 42.5274 156.787 43.1814C156.132 43.8355 155.122 43.9544 154.586 43.4193L150.365 39.1976C149.83 38.6624 148.938 38.6624 148.403 39.1976C147.867 39.7327 147.867 40.6246 148.403 41.1598L152.624 45.3815C153.159 45.9166 153.04 46.9274 152.386 47.5815C151.732 48.2356 150.722 48.3545 150.186 47.8193L145.965 43.5976C145.43 43.0625 144.538 43.0625 144.002 43.5976C143.467 44.1328 143.467 45.0247 144.002 45.5598L148.224 49.7815C148.759 50.3167 148.64 51.3275 147.986 51.9816C147.332 52.6357 146.321 52.7546 145.786 52.2194L140.673 47.0464C141.386 45.9166 141.208 44.3706 140.138 43.2409C138.889 41.9922 137.046 41.9327 135.975 43.003C137.046 41.9327 136.927 40.03 135.737 38.8408C134.489 37.5921 132.646 37.5327 131.575 38.603C132.646 37.5327 132.527 35.6299 131.337 34.4407C130.089 33.192 128.245 33.1326 127.175 34.2029C128.245 33.1326 128.126 31.2298 126.937 30.0406C125.808 28.9109 124.083 28.7325 122.953 29.6244L114.629 21.2999C114.094 20.7648 113.202 20.7648 112.667 21.2999C112.132 21.8351 112.132 22.727 112.667 23.2621L120.991 31.5866L118.553 34.0245C117.483 35.0948 117.602 36.9975 118.791 38.1867C120.04 39.4354 121.883 39.4949 122.953 38.4246C121.883 39.4949 122.002 41.3976 123.191 42.5868C124.44 43.8355 126.283 43.8949 127.354 42.8247C126.283 43.8949 126.402 45.7977 127.591 46.9869C128.84 48.2356 130.683 48.295 131.754 47.2247C130.683 48.295 130.802 50.1978 131.991 51.387C133.24 52.6357 135.083 52.6951 136.154 51.6248L138.77 49.0086L143.884 54.1222C145.489 55.7276 148.284 55.6087 150.008 53.8843C150.84 53.0519 151.316 51.9221 151.376 50.8518C152.446 50.7924 153.576 50.3167 154.408 49.4842C155.241 48.6518 155.716 47.522 155.776 46.4518C156.846 46.3923 157.976 45.9166 158.808 45.0842C159.641 44.2517 160.116 43.122 160.176 42.0517C161.246 41.9922 162.376 41.5165 163.208 40.6841C164.992 38.9003 165.052 36.1651 163.446 34.5596L161.306 32.419L170.165 23.5594C170.7 23.0243 170.7 22.1324 170.165 21.5972L157.381 8.81319L157.322 8.99157Z" fill="#8C90A0"/>
<path fill-rule="evenodd" clip-rule="evenodd" d="M178.252 12.084L167.014 0.845931C165.943 -0.22436 164.16 -0.22436 163.089 0.845931L159.165 4.77033C158.095 5.84062 158.095 7.62444 159.165 8.69473L170.403 19.9922C171.473 21.0625 173.257 21.0625 174.327 19.9922L178.252 16.0678C179.322 14.9976 179.322 13.2137 178.252 12.1434V12.084ZM172.365 17.7922C171.116 17.7922 170.106 16.7814 170.106 15.5327C170.106 14.284 171.116 13.2732 172.365 13.2732C173.614 13.2732 174.625 14.284 174.625 15.5327C174.625 16.7814 173.614 17.7922 172.365 17.7922Z" fill="#8C90A0"/>
</svg>
