<svg width="280" height="127" viewBox="0 0 280 127" fill="none" xmlns="http://www.w3.org/2000/svg">
<path d="M129.45 76.1662C129.104 76.5121 129.311 76.9963 130.072 77.2731C131.318 77.8265 132.84 79.556 133.67 81.3547C134.777 83.8451 135.192 85.8513 135.192 88.9644C135.192 92.4234 134.846 94.7755 134.016 96.3666C133.116 98.3036 130.349 101.071 128.412 102.109C126.89 102.869 126.406 103.492 127.098 103.907C127.236 103.976 127.651 104.599 127.997 105.291C128.343 105.983 129.726 108.127 131.041 110.133C133.324 113.523 136.368 118.988 138.858 123.969C139.481 125.214 140.034 126.183 140.103 126.183C140.173 126.183 140.726 125.214 141.349 123.969C143.839 118.919 146.883 113.454 149.166 110.133C150.48 108.127 151.864 105.983 152.21 105.291C152.556 104.599 152.971 103.976 153.109 103.907C153.732 103.492 153.248 102.869 151.726 102.109C150.619 101.555 149.65 100.725 148.474 99.4797C145.707 96.505 145.084 94.5679 145.084 89.0336C145.084 85.7821 145.43 83.8451 146.606 81.3547C147.367 79.556 148.958 77.8265 150.204 77.2731C150.757 77.0655 150.965 76.7888 150.965 76.5121C150.895 76.097 150.065 76.097 140.38 76.0278C134.569 76.0278 129.796 76.0278 129.726 76.1662H129.45ZM145.845 78.5183C145.845 78.5875 145.499 79.2793 145.015 80.0402C143.493 82.5999 142.871 84.952 142.732 88.4801C142.456 95.744 144.808 100.932 149.65 103.7C150.065 103.907 149.996 104.046 149.166 105.291C148.682 106.052 147.782 107.366 147.091 108.335C145.638 110.341 142.663 115.322 141.141 118.158C140.588 119.265 140.034 120.164 139.965 120.164C139.896 120.164 139.342 119.265 138.789 118.158C137.267 115.322 134.292 110.341 132.84 108.335C132.217 107.435 131.248 106.052 130.764 105.291C129.934 104.046 129.934 103.907 130.28 103.7C135.053 100.932 137.405 95.744 137.198 88.4801C137.059 85.0212 136.437 82.5999 134.915 80.0402C134.431 79.2793 134.085 78.5875 134.085 78.5183C134.085 78.4491 136.714 78.3799 139.965 78.3799C143.216 78.3799 145.845 78.4491 145.845 78.5183Z" fill="#8C90A0"/>
<path d="M254.319 73.8146C255.218 74.2989 255.426 75.0599 254.803 75.89C253.835 77.1353 251.759 76.7202 251.759 75.2674C251.759 74.6448 252.797 73.4688 253.281 73.4688C253.489 73.4688 253.904 73.6763 254.25 73.8146H254.319Z" fill="#8C90A0"/>
<path d="M237.577 73.9526C244.011 74.0217 247.124 74.0909 247.332 74.2985C247.747 74.6444 247.747 75.6821 247.332 75.9588C246.432 76.5122 202.503 75.4745 192.957 77.4115C188.875 78.2417 186.039 79.2102 183.202 80.8705C180.643 82.3233 180.228 82.4616 179.743 81.839C179.328 81.3548 179.812 80.4554 181.68 77.965L182.995 76.2355H176.146C169.366 76.2355 169.228 76.2355 166.253 76.9965C161.342 78.1725 157.744 80.1095 155.185 82.9459C153.455 84.8138 152.902 86.4049 152.902 89.0337C152.902 90.694 153.04 91.2474 153.593 92.4235C155.115 95.4674 157.883 97.3353 161.134 97.5428C163.209 97.6811 164.593 97.2661 166.461 96.09C167.914 95.1907 169.159 93.5996 169.159 92.7002C169.159 90.8324 167.568 89.7947 165.077 90.0022C163.694 90.1406 163.486 90.1406 162.933 89.5871C161.964 88.6878 161.895 88.0652 162.587 87.235C164.316 85.2288 167.429 85.1597 169.712 87.0967C171.096 88.2727 171.649 89.5871 171.649 91.5933C171.649 94.7064 169.851 97.1969 166.322 98.9264C164.801 99.6874 164.178 99.8257 162.448 99.9641C158.713 100.172 155.876 99.0647 153.317 96.3667C151.587 94.5681 150.688 92.7694 150.273 90.4173C149.719 87.1659 151.103 83.2226 153.801 80.3171C157.26 76.5814 160.857 74.9211 166.876 74.1601C168.951 73.8834 211.358 73.6758 237.785 73.8834L237.577 73.9526Z" fill="#8C90A0"/>
<path d="M25.6806 73.8146C24.7813 74.2989 24.5738 75.0599 25.1964 75.89C26.1649 77.1353 28.2403 76.7202 28.2403 75.2674C28.2403 74.6448 27.2026 73.4688 26.7183 73.4688C26.5108 73.4688 26.0957 73.6763 25.7498 73.8146H25.6806Z" fill="#8C90A0"/>
<path d="M42.4221 73.9526C35.9884 74.0217 32.8753 74.0909 32.6678 74.2985C32.2527 74.6444 32.2527 75.6821 32.6678 75.9588C33.5671 76.5122 77.4961 75.4745 87.0429 77.4115C91.1245 78.2417 93.9608 79.2102 96.7972 80.8705C99.3568 82.3233 99.7719 82.4616 100.256 81.839C100.671 81.3548 100.187 80.4554 98.3191 77.965L97.0047 76.2355H103.854C110.633 76.2355 110.771 76.2355 113.746 76.9965C118.658 78.1725 122.255 80.1095 124.815 82.9459C126.544 84.8138 127.098 86.4049 127.098 89.0337C127.098 90.694 126.959 91.2474 126.406 92.4235C124.884 95.4674 122.117 97.3353 118.865 97.5428C116.79 97.6811 115.406 97.2661 113.539 96.09C112.086 95.1907 110.841 93.5996 110.841 92.7002C110.841 90.8324 112.432 89.7947 114.922 90.0022C116.306 90.1406 116.513 90.1406 117.067 89.5871C118.035 88.6878 118.104 88.0652 117.413 87.235C115.683 85.2288 112.57 85.1597 110.287 87.0967C108.904 88.2727 108.35 89.5871 108.35 91.5933C108.35 94.7064 110.149 97.1969 113.677 98.9264C115.199 99.6874 115.822 99.8257 117.551 99.9641C121.287 100.172 124.123 99.0647 126.683 96.3667C128.412 94.5681 129.312 92.7694 129.727 90.4173C130.28 87.1659 128.896 83.2226 126.198 80.3171C122.74 76.5814 119.142 74.9211 113.124 74.1601C111.048 73.8834 68.6411 73.6758 42.2145 73.8834L42.4221 73.9526Z" fill="#8C90A0"/>
<path d="M279.085 63.1601C279.985 62.6759 280.192 61.9149 279.57 61.0847C278.601 59.8395 276.526 60.2546 276.526 61.7074C276.526 62.33 277.563 63.506 278.048 63.506C278.255 63.506 278.67 63.2985 279.016 63.1601H279.085Z" fill="#8C90A0"/>
<path d="M262.344 63.0914C268.778 63.0222 271.891 62.953 272.098 62.7455C272.513 62.3996 272.513 61.3619 272.098 61.0852C271.199 60.5317 227.27 61.5694 217.723 59.6324C213.642 58.8022 210.805 57.8337 207.969 56.1734C205.409 54.7207 204.994 54.5823 204.51 55.2049C204.095 55.6892 204.579 56.5885 206.447 59.079L207.761 60.8085H200.913C194.133 60.8085 193.995 60.8085 191.02 60.0475C186.108 58.8714 182.511 56.9344 179.951 54.098C178.222 52.2302 177.668 50.6391 177.668 48.0102C177.668 46.3499 177.807 45.7965 178.36 44.6204C179.882 41.5765 182.649 39.7087 185.901 39.5011C187.976 39.3628 189.36 39.7779 191.227 40.9539C192.68 41.8533 193.925 43.4444 193.925 44.3437C193.925 46.2116 192.334 47.2493 189.844 47.0417C188.46 46.9034 188.253 46.9034 187.699 47.4568C186.731 48.3561 186.662 48.9787 187.353 49.8089C189.083 51.8151 192.196 51.8843 194.479 49.9473C195.862 48.7712 196.416 47.4568 196.416 45.4506C196.416 42.3375 194.617 39.847 191.089 38.1176C189.567 37.3566 188.945 37.2182 187.215 37.0799C183.479 36.8723 180.643 37.9792 178.083 40.6772C176.354 42.4759 175.454 44.2745 175.039 46.6266C174.486 49.8781 175.87 53.8213 178.568 56.7269C182.027 60.4626 185.624 62.1229 191.643 62.8838C193.718 63.1606 236.125 63.3681 262.552 63.1606L262.344 63.0914Z" fill="#8C90A0"/>
<path d="M0.845436 63.1601C-0.0538985 62.6759 -0.261437 61.9149 0.361179 61.0847C1.32969 59.8395 3.40508 60.2546 3.40508 61.7074C3.40508 62.33 2.36739 63.506 1.88313 63.506C1.67559 63.506 1.26051 63.2985 0.914615 63.1601H0.845436Z" fill="#8C90A0"/>
<path d="M17.5869 63.0914C11.1532 63.0222 8.04009 62.953 7.83255 62.7455C7.41747 62.3996 7.41747 61.3619 7.83255 61.0852C8.73188 60.5317 52.6609 61.5694 62.2077 59.6324C66.2893 58.8022 69.1256 57.8337 71.962 56.1734C74.5216 54.7207 74.9367 54.5823 75.421 55.2049C75.836 55.6892 75.3518 56.5885 73.4839 59.079L72.1695 60.8085H79.0183C85.7979 60.8085 85.9363 60.8085 88.911 60.0475C93.8227 58.8714 97.4201 56.9344 99.9797 54.098C101.709 52.2302 102.263 50.6391 102.263 48.0102C102.263 46.3499 102.124 45.7965 101.571 44.6204C100.049 41.5765 97.2817 39.7087 94.0303 39.5011C91.9549 39.3628 90.5713 39.7779 88.7034 40.9539C87.2507 41.8533 86.0054 43.4444 86.0054 44.3437C86.0054 46.2116 87.5966 47.2493 90.087 47.0417C91.4706 46.9034 91.6782 46.9034 92.2316 47.4568C93.2001 48.3561 93.2693 48.9787 92.5775 49.8089C90.848 51.8151 87.7349 51.8843 85.452 49.9473C84.0684 48.7712 83.515 47.4568 83.515 45.4506C83.515 42.3375 85.3136 39.847 88.8418 38.1176C90.3638 37.3566 90.9864 37.2182 92.7159 37.0799C96.4516 36.8723 99.2879 37.9792 101.848 40.6772C103.577 42.4759 104.476 44.2745 104.891 46.6266C105.445 49.8781 104.061 53.8213 101.363 56.7269C97.9043 60.4626 94.307 62.1229 88.2884 62.8838C86.213 63.1606 43.8059 63.3681 17.3793 63.1606L17.5869 63.0914Z" fill="#8C90A0"/>
<path fill-rule="evenodd" clip-rule="evenodd" d="M171.304 29.7472L143.217 1.66031C142.11 0.553436 140.658 0 139.205 0C137.752 0 136.299 0.553436 135.192 1.66031L119.765 17.0873C117.552 19.3011 117.552 22.9676 119.765 25.1814L122.325 27.8102H128.205L122.74 22.2758C122.325 21.8607 122.325 21.3765 122.325 21.1689C122.325 20.9614 122.394 20.4771 122.74 20.0621L124.746 18.125L134.431 27.8794H143.701L129.381 13.49L138.098 4.70421C138.513 4.28913 138.928 4.21995 139.136 4.21995C139.343 4.21995 139.827 4.28913 140.173 4.63503L168.26 32.7219C168.675 33.137 168.675 33.5521 168.675 33.7596C168.675 33.9672 168.606 34.4514 168.191 34.7973L166.6 36.3193V42.1995L171.166 37.7029C173.379 35.4891 173.449 31.8918 171.235 29.678L171.304 29.7472Z" fill="#8C90A0"/>
<path fill-rule="evenodd" clip-rule="evenodd" d="M158.091 30.3701H118.313C115.199 30.3701 112.501 32.8606 112.501 36.0428V51.0548H163.694V36.0428C163.694 32.9298 161.204 30.3701 158.091 30.3701ZM126.407 45.9355C125.3 45.9355 124.262 45.5204 123.57 44.7595C122.809 45.4513 121.841 45.9355 120.734 45.9355C118.451 45.9355 116.583 44.0677 116.583 41.7847C116.583 39.5018 118.451 37.634 120.734 37.634C121.841 37.634 122.878 38.049 123.57 38.81C124.331 38.1182 125.3 37.634 126.407 37.634C128.689 37.634 130.557 39.5018 130.557 41.7847C130.557 44.0677 128.689 45.9355 126.407 45.9355Z" fill="#8C90A0"/>
<path fill-rule="evenodd" clip-rule="evenodd" d="M112.571 57.8342C112.571 60.9473 115.269 63.5069 118.382 63.5069H158.16C161.273 63.5069 163.763 60.9473 163.763 57.8342V57.4883H112.571V57.8342Z" fill="#8C90A0"/>
</svg>
