<svg width="120" height="140" viewBox="0 0 120 140" fill="none" xmlns="http://www.w3.org/2000/svg">
<g filter="url(#filter0_d)">
<g clip-path="url(#clip0)">
<path d="M101.367 10L97.6141 21.3653L105 20.2694L96.5244 24.4908L94.789 32.8524L91.8024 27.1697L83.6096 31.797L90.5917 24.3284L87.928 20.2694L93.2554 21.2435L101.367 10Z" fill="url(#paint0_angular)"/>
<path d="M92.4888 33.8265C92.4888 33.8265 76.2242 91.9925 72.0269 102.708C66.861 115.819 54.2287 118.742 53.3408 118.701C53.3408 118.701 57.0538 116.834 59.3543 115.251C65.3274 111.192 67.7489 106.321 68.8386 102.911C69.2422 101.531 89.3812 33.8265 89.3812 33.8265H87.4843C87.4843 33.8265 71.3408 86.9593 68.6368 96.8634C66.0135 106.524 62.9865 109.974 57.0538 114.317C52.8161 117.443 46.9641 118.66 46.9641 118.66C46.9641 118.66 51.9686 116.266 56.5292 112.085C61.4933 107.539 64.5202 102.749 66.2152 96.3357C67.2646 92.4796 84.296 33.7859 84.296 33.7859H51.0404C43.4933 33.7859 40.1031 37.9667 39.6188 39.3468C39.1345 40.7268 33.4439 56.1106 33.4439 56.1106C33.4439 56.1106 46.6009 55.8671 53.7444 56.1106C54.1076 56.1106 54.4709 56.1512 54.8744 56.2324C63.2287 57.0848 69.7668 64.1475 69.7668 72.7933C69.7668 81.9667 62.3408 89.4353 53.2197 89.4353C52.5336 89.4353 51.8475 89.3947 51.2018 89.3135C47.7713 89.273 42.1614 89.2324 38.3274 89.1512C27.4305 89.0294 23.1928 94.9556 21.6592 98.9335C21.0538 100.476 15 119.878 15 119.878C15 119.878 39.3363 120.162 52.8161 119.878C66.2556 119.594 73.5605 107.133 74.4081 102.993C75.0135 100.232 94.9103 33.8265 94.9103 33.8265H92.4888Z" fill="url(#paint1_angular)"/>
<path d="M54.7936 83.7933C60.6781 83.7933 65.4483 78.9957 65.4483 73.0774C65.4483 67.1592 60.6781 62.3616 54.7936 62.3616C48.9092 62.3616 44.1389 67.1592 44.1389 73.0774C44.1389 78.9957 48.9092 83.7933 54.7936 83.7933Z" fill="url(#paint2_angular)"/>
</g>
</g>
<defs>
<filter id="filter0_d" x="0" y="0" width="120" height="140" filterUnits="userSpaceOnUse" color-interpolation-filters="sRGB">
<feFlood flood-opacity="0" result="BackgroundImageFix"/>
<feColorMatrix in="SourceAlpha" type="matrix" values="0 0 0 0 0 0 0 0 0 0 0 0 0 0 0 0 0 0 127 0"/>
<feOffset dy="5"/>
<feGaussianBlur stdDeviation="7.5"/>
<feColorMatrix type="matrix" values="0 0 0 0 0.435294 0 0 0 0 0.517647 0 0 0 0 0.596078 0 0 0 0.15 0"/>
<feBlend mode="normal" in2="BackgroundImageFix" result="effect1_dropShadow"/>
<feBlend mode="normal" in="SourceGraphic" in2="effect1_dropShadow" result="shape"/>
</filter>
<radialGradient id="paint0_angular" cx="0" cy="0" r="1" gradientUnits="userSpaceOnUse" gradientTransform="translate(94.3047 21.4262) rotate(90) scale(11.4262 10.6951)">
<stop stop-color="white"/>
<stop offset="1" stop-color="#F4F5F7"/>
</radialGradient>
<radialGradient id="paint1_angular" cx="0" cy="0" r="1" gradientUnits="userSpaceOnUse" gradientTransform="translate(54.9552 76.8951) rotate(90) scale(43.1093 39.9552)">
<stop stop-color="white"/>
<stop offset="1" stop-color="#F4F5F7"/>
</radialGradient>
<radialGradient id="paint2_angular" cx="0" cy="0" r="1" gradientUnits="userSpaceOnUse" gradientTransform="translate(54.7936 73.0774) rotate(90) scale(10.7159 10.6547)">
<stop stop-color="white"/>
<stop offset="1" stop-color="#F4F5F7"/>
</radialGradient>
<clipPath id="clip0">
<rect x="15" y="10" width="90" height="110" fill="white"/>
</clipPath>
</defs>
</svg>
