<svg width="16" height="24" viewBox="0 0 16 24" fill="none" xmlns="http://www.w3.org/2000/svg">
<path d="M10.3119 11.9949L1.33355 20.9737C1.08633 21.2203 0.950327 21.55 0.950327 21.9017C0.950327 22.2535 1.08633 22.583 1.33355 22.83L2.12028 23.6164C2.36711 23.8638 2.69706 24 3.04867 24C3.40028 24 3.72984 23.8638 3.97686 23.6164L14.667 12.9264C14.915 12.6786 15.0508 12.3475 15.0498 11.9955C15.0508 11.642 14.9152 11.3112 14.667 11.0632L3.98682 0.383611C3.73979 0.136195 3.41023 -1.01757e-06 3.05843 -1.04832e-06C2.70682 -1.07906e-06 2.37726 0.136195 2.13004 0.383611L1.3435 1.16995C0.831695 1.68176 0.831695 2.51493 1.3435 3.02654L10.3119 11.9949Z" fill="white"/>
</svg>
