<svg width="33" height="33" viewBox="0 0 33 33" fill="none" xmlns="http://www.w3.org/2000/svg">
<path d="M16.5 0C7.38787 0 0 7.38787 0 16.5C0 25.6121 7.38787 33 16.5 33C25.6121 33 33 25.6121 33 16.5C33 7.38787 25.6121 0 16.5 0ZM24.75 25.7812C15.0831 25.7812 7.21875 17.9169 7.21875 8.25C7.21875 7.68075 7.68075 7.21875 8.25 7.21875H12.0574C12.6266 7.21875 13.0886 7.68075 13.0886 8.25C13.0886 10.032 13.4764 11.7294 14.2416 13.2928C14.3633 13.5403 14.3798 13.8229 14.289 14.0828C14.2003 14.3426 14.0106 14.5551 13.7631 14.6747L12.2244 15.4172C13.5052 17.6467 15.3533 19.4968 17.5807 20.7735L18.3232 19.2369C18.4429 18.9894 18.6553 18.8017 18.9152 18.711C19.1751 18.6223 19.4597 18.6388 19.7051 18.7584C21.2726 19.5236 22.968 19.9114 24.7479 19.9114C25.3172 19.9114 25.7792 20.3734 25.7792 20.9426V24.75H25.7812C25.7812 25.3193 25.3193 25.7812 24.75 25.7812Z" fill="#C0584D"/>
</svg>
