<svg width="262" height="110" viewBox="0 0 262 110" fill="none" xmlns="http://www.w3.org/2000/svg">
<circle opacity="0.3" cx="131" cy="25" r="20" fill="#C0584D"/>
<path d="M121.054 62.907C120.702 63.2585 120.878 63.6099 121.582 63.9614C122.638 64.4885 124.223 66.07 124.927 67.8272C125.983 70.1116 126.335 72.0445 126.335 75.0317C126.335 78.3704 125.983 80.479 125.279 82.0605C124.399 83.8177 121.758 86.4535 119.998 87.3321C118.59 88.035 118.238 88.5621 118.766 89.0893C118.942 89.0893 119.294 89.7922 119.646 90.3193C119.998 91.0222 121.23 92.9551 122.462 94.888C124.575 98.051 127.391 103.147 129.856 107.891C130.384 109.121 130.912 110 130.912 110C130.912 110 131.44 109.121 131.968 107.891C134.257 103.147 137.249 98.051 139.361 94.888C140.594 93.1308 141.826 91.0222 142.178 90.3193C142.53 89.6164 142.882 89.0893 143.058 89.0893C143.586 88.7378 143.234 88.2107 141.826 87.3321C140.77 86.8049 139.889 86.1021 138.833 84.872C136.193 82.0605 135.665 80.3033 135.665 75.0317C135.665 72.0445 136.017 70.1116 137.073 67.8272C137.777 66.2457 139.185 64.4885 140.418 63.9614C140.946 63.7856 141.122 63.4342 141.122 63.2585C141.122 62.907 140.242 62.907 131.264 62.7313C125.807 62.7313 121.406 62.7313 121.23 62.907H121.054ZM136.369 65.1914C136.369 65.1914 136.017 65.8943 135.665 66.5972C134.257 69.0572 133.728 71.1659 133.552 74.5045C133.376 81.3576 135.489 86.1021 140.066 88.7378C140.418 88.9136 140.418 89.0893 139.713 90.1436C139.185 90.8465 138.481 92.0765 137.777 92.9551C136.369 94.888 133.552 99.4568 132.144 102.093C131.616 103.147 131.088 104.025 131.088 104.025C131.088 104.025 130.56 103.147 130.032 102.093C128.624 99.4568 125.807 94.7123 124.399 92.9551C123.871 92.0765 122.991 90.8465 122.462 90.1436C121.758 88.9136 121.758 88.9136 122.11 88.7378C126.687 86.1021 128.8 81.3576 128.624 74.5045C128.447 71.1659 127.919 69.0572 126.511 66.5972C126.159 65.8943 125.807 65.1914 125.807 65.1914C125.807 65.1914 128.271 65.0157 131.264 65.0157C134.257 65.0157 136.721 65.0157 136.721 65.1914H136.369Z" fill="#8C90A0"/>
<path d="M237.939 60.6229C238.819 61.1501 238.995 61.853 238.467 62.5559C237.587 63.7859 235.65 63.2587 235.65 62.0287C235.65 61.5015 236.531 60.2715 237.059 60.2715C237.235 60.2715 237.587 60.4472 237.939 60.6229Z" fill="#8C90A0"/>
<path d="M222.272 60.8C228.257 60.8 231.249 60.9757 231.425 61.1514C231.777 61.5028 231.777 62.3814 231.425 62.7329C230.545 63.26 189.53 62.2057 180.553 64.1386C176.68 64.8415 174.039 65.8958 171.399 67.3016C168.935 68.7074 168.583 68.7074 168.054 68.1802C167.702 67.653 168.054 66.9502 169.815 64.6658L171.047 63.0843H164.534C158.197 63.0843 158.021 63.0843 155.204 63.7872C150.627 64.8415 147.283 66.7744 144.818 69.4102C143.234 71.1674 142.706 72.5732 142.706 75.0333C142.706 76.6147 142.882 77.1419 143.41 78.1962C144.818 81.0077 147.459 82.7649 150.451 82.9406C152.388 83.1164 153.62 82.7649 155.38 81.5349C156.788 80.6563 157.845 79.2505 157.845 78.3719C157.845 76.6147 156.26 75.5604 153.972 75.9119C152.74 76.0876 152.564 76.0876 151.86 75.5604C150.979 74.6818 150.803 74.1547 151.508 73.2761C153.092 71.3431 156.084 71.3431 158.197 73.1003C159.429 74.1547 159.957 75.3847 159.957 77.3176C159.957 80.1291 158.197 82.5892 155.028 84.1707C153.62 84.8736 152.916 85.0493 151.508 85.0493C147.987 85.225 145.347 84.1707 142.882 81.7106C141.298 80.1291 140.418 78.3719 140.066 76.0876C139.538 73.1003 140.77 69.4102 143.41 66.5987C146.579 63.0843 149.923 61.5028 155.732 60.8C157.669 60.6242 197.276 60.2728 222.096 60.4485L222.272 60.8Z" fill="#8C90A0"/>
<path d="M23.8852 60.6232C23.005 61.1503 22.829 61.8532 23.3571 62.5561C24.2373 63.7861 26.1736 63.259 26.1736 62.0289C26.1736 61.5018 25.2934 60.2717 24.7654 60.2717C24.5893 60.2717 24.2373 60.4474 23.8852 60.6232Z" fill="#8C90A0"/>
<path d="M39.552 60.799C33.567 60.799 30.5745 60.9747 30.3984 61.1504C30.0464 61.5019 30.0464 62.3805 30.3984 62.7319C31.2786 63.2591 72.2937 62.2047 81.2713 64.1377C85.144 64.8405 87.7844 65.8949 90.4249 67.3006C92.8893 68.7064 93.2414 68.7064 93.7694 68.1792C94.1215 67.6521 93.7694 66.9492 92.0091 64.6648L90.7769 63.0833H97.2901C103.627 63.0833 103.803 63.0833 106.62 63.7862C111.196 64.8405 114.541 66.7735 117.005 69.4093C118.59 71.1665 119.118 72.5722 119.118 75.0323C119.118 76.6138 118.942 77.1409 118.414 78.1952C117.005 81.0068 114.365 82.764 111.373 82.9397C109.436 83.1154 108.204 82.764 106.444 81.5339C105.035 80.6553 103.979 79.2496 103.979 78.371C103.979 76.6138 105.563 75.5594 107.852 75.9109C109.084 76.0866 109.26 76.0866 109.964 75.5594C110.844 74.6808 111.02 74.1537 110.316 73.2751C108.732 71.3422 105.74 71.3422 103.627 73.0994C102.395 74.1537 101.867 75.3837 101.867 77.3166C101.867 80.1282 103.627 82.5882 106.796 84.1697C108.204 84.8726 108.908 85.0483 110.316 85.0483C113.837 85.224 116.477 84.1697 118.942 81.7096C120.526 80.1282 121.406 78.371 121.758 76.0866C122.286 73.0994 121.054 69.4093 118.414 66.5977C115.245 63.0833 111.901 61.5019 106.092 60.799C104.155 60.6233 64.5484 60.2718 39.7281 60.4475L39.552 60.799Z" fill="#8C90A0"/>
<path d="M261.175 50.6068C262.055 50.0796 262.231 49.3767 261.703 48.6739C260.822 47.4438 258.886 47.971 258.886 49.201C258.886 49.7282 259.766 50.9582 260.294 50.9582C260.47 50.9582 260.822 50.7825 261.175 50.6068Z" fill="#8C90A0"/>
<path d="M245.508 50.6072C251.493 50.6072 254.485 50.4315 254.661 50.2558C255.014 49.9043 255.014 49.0257 254.661 48.6743C253.781 48.1471 212.766 49.2014 203.789 47.2685C199.916 46.5657 197.275 45.5113 194.635 44.1056C192.171 42.6998 191.819 42.6998 191.29 43.227C190.938 43.7541 191.29 44.457 193.051 46.7414L194.283 48.3228H187.77C181.433 48.3228 181.257 48.3228 178.44 47.62C173.863 46.5657 170.519 44.6327 168.054 41.9969C166.47 40.2397 165.942 38.834 165.942 36.3739C165.942 34.7924 166.118 34.2653 166.646 33.2109C168.054 30.3994 170.695 28.6422 173.687 28.4665C175.624 28.2908 176.856 28.6422 178.616 29.8723C180.024 30.7509 181.081 32.1566 181.081 33.0352C181.081 34.7924 179.496 35.8467 177.208 35.4953C175.976 35.3196 175.8 35.3196 175.096 35.8467C174.215 36.7253 174.039 37.2525 174.744 38.1311C176.328 40.064 179.32 40.064 181.433 38.3068C182.665 37.2525 183.193 36.0225 183.193 34.0895C183.193 31.278 181.433 28.818 178.264 27.2365C176.856 26.5336 176.152 26.3579 174.744 26.3579C171.223 26.1822 168.582 27.2365 166.118 29.6966C164.534 31.278 163.654 33.0352 163.302 35.3196C162.773 38.3068 164.006 41.9969 166.646 44.8085C169.815 48.3228 173.159 49.9043 178.968 50.6072C180.905 50.7829 220.512 51.1344 245.332 50.9586L245.508 50.6072Z" fill="#8C90A0"/>
<path d="M0.825143 50.6066C-0.0550096 50.0795 -0.23104 49.3766 0.297052 48.6737C1.1772 47.4437 3.11354 47.9708 3.11354 49.2009C3.11354 49.728 2.23339 50.9581 1.7053 50.9581C1.52927 50.9581 1.1772 50.7824 0.825143 50.6066Z" fill="#8C90A0"/>
<path d="M16.4919 50.6072C10.5068 50.6072 7.5143 50.4315 7.33826 50.2558C6.9862 49.9043 6.9862 49.0257 7.33826 48.6743C8.21842 48.1471 49.2335 49.2014 58.2111 47.2685C62.0838 46.5657 64.7242 45.5113 67.3647 44.1056C69.8291 42.6998 70.1812 42.6998 70.7093 43.227C71.0613 43.7541 70.7093 44.457 68.949 46.7414L67.7168 48.3228H74.2299C80.567 48.3228 80.743 48.3228 83.5595 47.62C88.1363 46.5657 91.4809 44.6327 93.9453 41.9969C95.5296 40.2397 96.0577 38.834 96.0577 36.3739C96.0577 34.7924 95.8816 34.2653 95.3536 33.2109C93.9453 30.3994 91.3048 28.6422 88.3123 28.4665C86.376 28.2908 85.1438 28.6422 83.3835 29.8723C81.9752 30.7509 80.919 32.1566 80.919 33.0352C80.919 34.7924 82.5033 35.8467 84.7917 35.4953C86.0239 35.3196 86.2 35.3196 86.9041 35.8467C87.7842 36.7253 87.9603 37.2525 87.2561 38.1311C85.6719 40.064 82.6794 40.064 80.567 38.3068C79.3348 37.2525 78.8067 36.0225 78.8067 34.0895C78.8067 31.278 80.567 28.818 83.7355 27.2365C85.1438 26.5336 85.8479 26.3579 87.2561 26.3579C90.7768 26.1822 93.4172 27.2365 95.8816 29.6966C97.4659 31.278 98.3461 33.0352 98.6981 35.3196C99.2262 38.3068 97.994 41.9969 95.3536 44.8085C92.185 48.3228 88.8404 49.9043 83.0314 50.6072C81.0951 50.7829 41.4882 51.1344 16.6679 50.9586L16.4919 50.6072Z" fill="#8C90A0"/>
<path d="M146.817 0H116.183C113.925 0 112.088 1.83684 112.088 4.09526V46.9047C112.088 49.1632 113.925 51 116.183 51H139.49C140.584 51 141.608 50.5784 142.381 49.8055L149.718 42.4682C150.491 41.6953 150.912 40.6715 150.912 39.5774V4.09526C150.912 1.83684 149.076 0 146.817 0ZM142.009 46.1519V42.0868H146.074L142.009 46.1519ZM148.062 39.2562H140.574C139.791 39.2562 139.159 39.8886 139.159 40.6715V48.1594H116.183C115.49 48.1594 114.918 47.5873 114.918 46.8947V4.09526C114.918 3.40268 115.48 2.84058 116.173 2.84058H146.807C147.5 2.84058 148.062 3.40268 148.062 4.09526V39.2562Z" fill="#383D50"/>
<path d="M144.147 7.70874H118.853C118.07 7.70874 117.438 8.3411 117.438 9.12401C117.438 9.90693 118.07 10.5393 118.853 10.5393H144.147C144.93 10.5393 145.562 9.90693 145.562 9.12401C145.562 8.3411 144.93 7.70874 144.147 7.70874Z" fill="#383D50"/>
<path d="M144.147 18.6294H118.853C118.07 18.6294 117.438 19.2617 117.438 20.0447C117.438 20.8175 118.07 21.4599 118.853 21.4599H144.147C144.93 21.4599 145.562 20.8276 145.562 20.0447C145.562 19.2617 144.93 18.6294 144.147 18.6294Z" fill="#383D50"/>
<path d="M144.147 29.54H118.853C118.07 29.54 117.438 30.1724 117.438 30.9553C117.438 31.7282 118.07 32.3706 118.853 32.3706H144.147C144.93 32.3706 145.562 31.7382 145.562 30.9553C145.562 30.1724 144.93 29.54 144.147 29.54Z" fill="#383D50"/>
<path d="M132.484 40.4507H118.853C118.07 40.4507 117.438 41.083 117.438 41.866C117.438 42.6489 118.07 43.2812 118.853 43.2812H132.484C133.266 43.2812 133.899 42.6489 133.899 41.866C133.909 41.083 133.266 40.4507 132.484 40.4507Z" fill="#383D50"/>
</svg>
