<svg width="23" height="33" viewBox="0 0 23 33" fill="none" xmlns="http://www.w3.org/2000/svg">
<path d="M11.5 0C5.43469 0 0.499969 4.93473 0.499969 11C0.499969 12.8208 0.955202 14.6262 1.82061 16.2274L10.8984 32.6455C11.0193 32.8644 11.2496 33 11.5 33C11.7504 33 11.9807 32.8644 12.1015 32.6455L21.1827 16.222C22.0448 14.6262 22.5 12.8208 22.5 11C22.5 4.93472 17.5653 0 11.5 0ZM11.5 16.5C8.46734 16.5 6.00001 14.0327 6.00001 11C6.00001 7.96737 8.46734 5.50004 11.5 5.50004C14.5326 5.50004 17 7.96737 17 11C17 14.0327 14.5326 16.5 11.5 16.5Z" fill="#C0584D"/>
</svg>
