<svg width="262" height="112" viewBox="0 0 262 112" fill="none" xmlns="http://www.w3.org/2000/svg">
<circle opacity="0.3" cx="131" cy="27" r="20" fill="#C0584D"/>
<path d="M121.054 64.907C120.702 65.2585 120.878 65.6099 121.582 65.9614C122.638 66.4885 124.223 68.07 124.927 69.8272C125.983 72.1116 126.335 74.0445 126.335 77.0317C126.335 80.3704 125.983 82.479 125.279 84.0605C124.399 85.8177 121.758 88.4535 119.998 89.3321C118.59 90.035 118.238 90.5621 118.766 91.0893C118.942 91.0893 119.294 91.7922 119.646 92.3193C119.998 93.0222 121.23 94.9551 122.462 96.888C124.575 100.051 127.391 105.147 129.856 109.891C130.384 111.121 130.912 112 130.912 112C130.912 112 131.44 111.121 131.968 109.891C134.257 105.147 137.249 100.051 139.361 96.888C140.594 95.1308 141.826 93.0222 142.178 92.3193C142.53 91.6164 142.882 91.0893 143.058 91.0893C143.586 90.7378 143.234 90.2107 141.826 89.3321C140.77 88.8049 139.889 88.1021 138.833 86.872C136.193 84.0605 135.665 82.3033 135.665 77.0317C135.665 74.0445 136.017 72.1116 137.073 69.8272C137.777 68.2457 139.185 66.4885 140.418 65.9614C140.946 65.7856 141.122 65.4342 141.122 65.2585C141.122 64.907 140.242 64.907 131.264 64.7313C125.807 64.7313 121.406 64.7313 121.23 64.907H121.054ZM136.369 67.1914C136.369 67.1914 136.017 67.8943 135.665 68.5972C134.257 71.0572 133.728 73.1659 133.552 76.5045C133.376 83.3576 135.489 88.1021 140.066 90.7378C140.418 90.9136 140.418 91.0893 139.713 92.1436C139.185 92.8465 138.481 94.0765 137.777 94.9551C136.369 96.888 133.552 101.457 132.144 104.093C131.616 105.147 131.088 106.025 131.088 106.025C131.088 106.025 130.56 105.147 130.032 104.093C128.624 101.457 125.807 96.7123 124.399 94.9551C123.871 94.0765 122.991 92.8465 122.462 92.1436C121.758 90.9136 121.758 90.9136 122.11 90.7378C126.687 88.1021 128.8 83.3576 128.624 76.5045C128.447 73.1659 127.919 71.0572 126.511 68.5972C126.159 67.8943 125.807 67.1914 125.807 67.1914C125.807 67.1914 128.271 67.0157 131.264 67.0157C134.257 67.0157 136.721 67.0157 136.721 67.1914H136.369Z" fill="#8C90A0"/>
<path d="M237.939 62.6229C238.819 63.1501 238.995 63.853 238.467 64.5559C237.587 65.7859 235.65 65.2587 235.65 64.0287C235.65 63.5015 236.531 62.2715 237.059 62.2715C237.235 62.2715 237.587 62.4472 237.939 62.6229Z" fill="#8C90A0"/>
<path d="M222.272 62.8C228.257 62.8 231.249 62.9757 231.425 63.1514C231.777 63.5028 231.777 64.3814 231.425 64.7329C230.545 65.26 189.53 64.2057 180.553 66.1386C176.68 66.8415 174.039 67.8958 171.399 69.3016C168.935 70.7074 168.583 70.7074 168.054 70.1802C167.702 69.653 168.054 68.9502 169.815 66.6658L171.047 65.0843H164.534C158.197 65.0843 158.021 65.0843 155.204 65.7872C150.627 66.8415 147.283 68.7744 144.818 71.4102C143.234 73.1674 142.706 74.5732 142.706 77.0333C142.706 78.6147 142.882 79.1419 143.41 80.1962C144.818 83.0077 147.459 84.7649 150.451 84.9406C152.388 85.1164 153.62 84.7649 155.38 83.5349C156.788 82.6563 157.845 81.2505 157.845 80.3719C157.845 78.6147 156.26 77.5604 153.972 77.9119C152.74 78.0876 152.564 78.0876 151.86 77.5604C150.979 76.6818 150.803 76.1547 151.508 75.2761C153.092 73.3431 156.084 73.3431 158.197 75.1003C159.429 76.1547 159.957 77.3847 159.957 79.3176C159.957 82.1291 158.197 84.5892 155.028 86.1707C153.62 86.8736 152.916 87.0493 151.508 87.0493C147.987 87.225 145.347 86.1707 142.882 83.7106C141.298 82.1291 140.418 80.3719 140.066 78.0876C139.538 75.1003 140.77 71.4102 143.41 68.5987C146.579 65.0843 149.923 63.5028 155.732 62.8C157.669 62.6242 197.276 62.2728 222.096 62.4485L222.272 62.8Z" fill="#8C90A0"/>
<path d="M23.8852 62.6232C23.005 63.1503 22.829 63.8532 23.3571 64.5561C24.2373 65.7861 26.1736 65.259 26.1736 64.0289C26.1736 63.5018 25.2934 62.2717 24.7654 62.2717C24.5893 62.2717 24.2373 62.4474 23.8852 62.6232Z" fill="#8C90A0"/>
<path d="M39.552 62.799C33.567 62.799 30.5745 62.9747 30.3984 63.1504C30.0464 63.5019 30.0464 64.3805 30.3984 64.7319C31.2786 65.2591 72.2937 64.2047 81.2713 66.1377C85.144 66.8405 87.7844 67.8949 90.4249 69.3006C92.8893 70.7064 93.2414 70.7064 93.7694 70.1792C94.1215 69.6521 93.7694 68.9492 92.0091 66.6648L90.7769 65.0833H97.2901C103.627 65.0833 103.803 65.0833 106.62 65.7862C111.196 66.8405 114.541 68.7735 117.005 71.4093C118.59 73.1665 119.118 74.5722 119.118 77.0323C119.118 78.6138 118.942 79.1409 118.414 80.1952C117.005 83.0068 114.365 84.764 111.373 84.9397C109.436 85.1154 108.204 84.764 106.444 83.5339C105.035 82.6553 103.979 81.2496 103.979 80.371C103.979 78.6138 105.563 77.5594 107.852 77.9109C109.084 78.0866 109.26 78.0866 109.964 77.5594C110.844 76.6808 111.02 76.1537 110.316 75.2751C108.732 73.3422 105.74 73.3422 103.627 75.0994C102.395 76.1537 101.867 77.3837 101.867 79.3166C101.867 82.1282 103.627 84.5882 106.796 86.1697C108.204 86.8726 108.908 87.0483 110.316 87.0483C113.837 87.224 116.477 86.1697 118.942 83.7096C120.526 82.1282 121.406 80.371 121.758 78.0866C122.286 75.0994 121.054 71.4093 118.414 68.5977C115.245 65.0833 111.901 63.5019 106.092 62.799C104.155 62.6233 64.5484 62.2718 39.7281 62.4475L39.552 62.799Z" fill="#8C90A0"/>
<path d="M261.175 52.6068C262.055 52.0796 262.231 51.3767 261.703 50.6739C260.822 49.4438 258.886 49.971 258.886 51.201C258.886 51.7282 259.766 52.9582 260.294 52.9582C260.47 52.9582 260.822 52.7825 261.175 52.6068Z" fill="#8C90A0"/>
<path d="M245.508 52.6072C251.493 52.6072 254.485 52.4315 254.661 52.2558C255.014 51.9043 255.014 51.0257 254.661 50.6743C253.781 50.1471 212.766 51.2014 203.789 49.2685C199.916 48.5657 197.275 47.5113 194.635 46.1056C192.171 44.6998 191.819 44.6998 191.29 45.227C190.938 45.7541 191.29 46.457 193.051 48.7414L194.283 50.3228H187.77C181.433 50.3228 181.257 50.3228 178.44 49.62C173.863 48.5657 170.519 46.6327 168.054 43.9969C166.47 42.2397 165.942 40.834 165.942 38.3739C165.942 36.7924 166.118 36.2653 166.646 35.2109C168.054 32.3994 170.695 30.6422 173.687 30.4665C175.624 30.2908 176.856 30.6422 178.616 31.8723C180.024 32.7509 181.081 34.1566 181.081 35.0352C181.081 36.7924 179.496 37.8467 177.208 37.4953C175.976 37.3196 175.8 37.3196 175.096 37.8467C174.215 38.7253 174.039 39.2525 174.744 40.1311C176.328 42.064 179.32 42.064 181.433 40.3068C182.665 39.2525 183.193 38.0225 183.193 36.0895C183.193 33.278 181.433 30.818 178.264 29.2365C176.856 28.5336 176.152 28.3579 174.744 28.3579C171.223 28.1822 168.582 29.2365 166.118 31.6966C164.534 33.278 163.654 35.0352 163.302 37.3196C162.773 40.3068 164.006 43.9969 166.646 46.8085C169.815 50.3228 173.159 51.9043 178.968 52.6072C180.905 52.7829 220.512 53.1344 245.332 52.9586L245.508 52.6072Z" fill="#8C90A0"/>
<path d="M0.825143 52.6066C-0.0550096 52.0795 -0.23104 51.3766 0.297052 50.6737C1.1772 49.4437 3.11354 49.9708 3.11354 51.2009C3.11354 51.728 2.23339 52.9581 1.7053 52.9581C1.52927 52.9581 1.1772 52.7824 0.825143 52.6066Z" fill="#8C90A0"/>
<path d="M16.4919 52.6072C10.5068 52.6072 7.5143 52.4315 7.33826 52.2558C6.9862 51.9043 6.9862 51.0257 7.33826 50.6743C8.21842 50.1471 49.2335 51.2014 58.2111 49.2685C62.0838 48.5657 64.7242 47.5113 67.3647 46.1056C69.8291 44.6998 70.1812 44.6998 70.7093 45.227C71.0613 45.7541 70.7093 46.457 68.949 48.7414L67.7168 50.3228H74.2299C80.567 50.3228 80.743 50.3228 83.5595 49.62C88.1363 48.5657 91.4809 46.6327 93.9453 43.9969C95.5296 42.2397 96.0577 40.834 96.0577 38.3739C96.0577 36.7924 95.8816 36.2653 95.3536 35.2109C93.9453 32.3994 91.3048 30.6422 88.3123 30.4665C86.376 30.2908 85.1438 30.6422 83.3835 31.8723C81.9752 32.7509 80.919 34.1566 80.919 35.0352C80.919 36.7924 82.5033 37.8467 84.7917 37.4953C86.0239 37.3196 86.2 37.3196 86.9041 37.8467C87.7842 38.7253 87.9603 39.2525 87.2561 40.1311C85.6719 42.064 82.6794 42.064 80.567 40.3068C79.3348 39.2525 78.8067 38.0225 78.8067 36.0895C78.8067 33.278 80.567 30.818 83.7355 29.2365C85.1438 28.5336 85.8479 28.3579 87.2561 28.3579C90.7768 28.1822 93.4172 29.2365 95.8816 31.6966C97.4659 33.278 98.3461 35.0352 98.6981 37.3196C99.2262 40.3068 97.994 43.9969 95.3536 46.8085C92.185 50.3228 88.8404 51.9043 83.0314 52.6072C81.0951 52.7829 41.4882 53.1344 16.6679 52.9586L16.4919 52.6072Z" fill="#8C90A0"/>
<path d="M130.753 12.1523V0H115.812V12.1523H121.788V18.1289H120.294C119.605 18.1289 118.845 18.7987 118.803 19.5355L118.532 24.1055H128.032L127.762 19.5355C127.721 18.8354 127.057 18.1289 126.271 18.1289H124.776V12.1523H130.753Z" fill="#383D50"/>
<path d="M111.329 0C110.503 0 109.835 0.668279 109.835 1.49414V10.6582C109.835 11.4841 110.503 12.1523 111.329 12.1523H112.823V0H111.329Z" fill="#383D50"/>
<path d="M135.235 0H133.741V12.1523H135.235C136.061 12.1523 136.729 11.4841 136.729 10.6582V1.49414C136.729 0.668279 136.061 0 135.235 0Z" fill="#383D50"/>
<path d="M128.209 27.0938H118.355C117.253 45.7164 117.306 44.7471 117.306 45.0234C117.306 48.3196 119.986 51 123.282 51C126.578 51 129.259 48.3196 129.259 45.0234C129.259 44.7615 129.277 45.155 128.209 27.0938Z" fill="#383D50"/>
<path d="M144.2 21.1172C143.541 21.1172 142.763 21.7372 142.709 22.5106L142.402 27.0938H151.973L151.668 22.5106C151.612 21.6875 150.835 21.1172 150.177 21.1172H148.683V18.1289H150.177C151.003 18.1289 151.671 17.4606 151.671 16.6348V1.49414C151.671 0.668279 151.003 0 150.177 0H144.2C143.374 0 142.706 0.668279 142.706 1.49414V16.6348C142.706 17.4606 143.374 18.1289 144.2 18.1289H145.694V21.1172H144.2Z" fill="#383D50"/>
<path d="M152.171 30.082H142.201L141.227 44.6119L141.212 45.0234C141.212 48.3196 143.892 51 147.188 51C150.485 51 153.165 48.3196 153.165 45.0234L152.171 30.082Z" fill="#383D50"/>
</svg>
