<svg width="24" height="24" viewBox="0 0 24 24" fill="none" xmlns="http://www.w3.org/2000/svg">
<path d="M9.68809 12.0051L18.6664 3.02634C18.9137 2.77971 19.0497 2.44995 19.0497 2.09834C19.0497 1.74654 18.9137 1.41698 18.6664 1.16995L17.8797 0.38361C17.6329 0.136195 17.3029 0 16.9513 0C16.5997 0 16.2701 0.136195 16.0231 0.38361L5.33297 11.0736C5.08497 11.3214 4.94916 11.6525 4.95014 12.0045C4.94916 12.358 5.08477 12.6888 5.33297 12.9368L16.0132 23.6164C16.2602 23.8638 16.5897 24 16.9416 24C17.2932 24 17.6227 23.8638 17.8699 23.6164L18.6565 22.83C19.1683 22.3182 19.1683 21.4851 18.6565 20.9735L9.68809 12.0051Z" fill="white"/>
</svg>
