<svg width="262" height="111" viewBox="0 0 262 111" fill="none" xmlns="http://www.w3.org/2000/svg">
<circle opacity="0.3" cx="131" cy="25" r="20" fill="#C0584D"/>
<path d="M121.054 63.0184C120.702 63.3705 120.878 63.7226 121.582 64.0746C122.638 64.6027 124.223 66.187 124.927 67.9473C125.983 70.2357 126.335 72.172 126.335 75.1645C126.335 78.5091 125.983 80.6215 125.279 82.2058C124.399 83.9661 121.758 86.6065 119.998 87.4867C118.59 88.1908 118.238 88.7189 118.766 89.247C118.942 89.247 119.294 89.9511 119.646 90.4792C119.998 91.1833 121.23 93.1197 122.462 95.056C124.575 98.2245 127.391 103.329 129.856 108.082C130.384 109.314 130.912 110.195 130.912 110.195C130.912 110.195 131.44 109.314 131.968 108.082C134.257 103.329 137.249 98.2245 139.361 95.056C140.594 93.2957 141.826 91.1833 142.178 90.4792C142.53 89.7751 142.882 89.247 143.058 89.247C143.586 88.8949 143.234 88.3668 141.826 87.4867C140.77 86.9586 139.889 86.2545 138.833 85.0223C136.193 82.2058 135.665 80.4455 135.665 75.1645C135.665 72.172 136.017 70.2357 137.073 67.9473C137.777 66.363 139.185 64.6027 140.418 64.0746C140.946 63.8986 141.122 63.5465 141.122 63.3705C141.122 63.0184 140.242 63.0184 131.264 62.8424C125.807 62.8424 121.406 62.8424 121.23 63.0184H121.054ZM136.369 65.3068C136.369 65.3068 136.017 66.011 135.665 66.7151C134.257 69.1795 133.728 71.2919 133.552 74.6365C133.376 81.5016 135.489 86.2545 140.066 88.8949C140.418 89.071 140.418 89.247 139.713 90.3032C139.185 91.0073 138.481 92.2395 137.777 93.1197C136.369 95.056 133.552 99.6328 132.144 102.273C131.616 103.329 131.088 104.21 131.088 104.21C131.088 104.21 130.56 103.329 130.032 102.273C128.624 99.6328 125.807 94.88 124.399 93.1197C123.871 92.2395 122.991 91.0073 122.462 90.3032C121.758 89.071 121.758 89.071 122.11 88.8949C126.687 86.2545 128.8 81.5016 128.624 74.6365C128.447 71.2919 127.919 69.1795 126.511 66.7151C126.159 66.011 125.807 65.3068 125.807 65.3068C125.807 65.3068 128.271 65.1308 131.264 65.1308C134.257 65.1308 136.721 65.1308 136.721 65.3068H136.369Z" fill="#8C90A0"/>
<path d="M237.939 60.7301C238.819 61.2582 238.995 61.9623 238.467 62.6665C237.587 63.8987 235.65 63.3706 235.65 62.1384C235.65 61.6103 236.531 60.3781 237.059 60.3781C237.235 60.3781 237.587 60.5541 237.939 60.7301Z" fill="#8C90A0"/>
<path d="M222.272 60.9072C228.257 60.9072 231.249 61.0833 231.425 61.2593C231.777 61.6114 231.777 62.4915 231.425 62.8436C230.545 63.3717 189.53 62.3155 180.553 64.2518C176.68 64.9559 174.039 66.0121 171.399 67.4204C168.935 68.8286 168.583 68.8286 168.054 68.3005C167.702 67.7724 168.054 67.0683 169.815 64.7799L171.047 63.1956H164.534C158.197 63.1956 158.021 63.1956 155.204 63.8998C150.627 64.9559 147.283 66.8923 144.818 69.5327C143.234 71.293 142.706 72.7013 142.706 75.1657C142.706 76.75 142.882 77.2781 143.41 78.3343C144.818 81.1507 147.459 82.911 150.451 83.0871C152.388 83.2631 153.62 82.9111 155.38 81.6788C156.788 80.7987 157.845 79.3904 157.845 78.5103C157.845 76.75 156.26 75.6938 153.972 76.0459C152.74 76.2219 152.564 76.2219 151.86 75.6938C150.979 74.8136 150.803 74.2856 151.508 73.4054C153.092 71.4691 156.084 71.4691 158.197 73.2294C159.429 74.2856 159.957 75.5178 159.957 77.4541C159.957 80.2706 158.197 82.735 155.028 84.3193C153.62 85.0234 152.916 85.1994 151.508 85.1994C147.987 85.3755 145.347 84.3193 142.882 81.8549C141.298 80.2706 140.418 78.5103 140.066 76.2219C139.538 73.2294 140.77 69.5327 143.41 66.7162C146.579 63.1956 149.923 61.6114 155.732 60.9072C157.669 60.7312 197.276 60.3791 222.096 60.5552L222.272 60.9072Z" fill="#8C90A0"/>
<path d="M23.8853 60.7304C23.0051 61.2585 22.8291 61.9626 23.3572 62.6667C24.2373 63.8989 26.1737 63.3708 26.1737 62.1386C26.1737 61.6105 25.2935 60.3783 24.7654 60.3783C24.5894 60.3783 24.2373 60.5543 23.8853 60.7304Z" fill="#8C90A0"/>
<path d="M39.5521 60.9064C33.5671 60.9064 30.5745 61.0824 30.3985 61.2584C30.0464 61.6105 30.0464 62.4907 30.3985 62.8427C31.2787 63.3708 72.2938 62.3146 81.2713 64.251C85.144 64.9551 87.7845 66.0113 90.4249 67.4195C92.8894 68.8278 93.2414 68.8278 93.7695 68.2997C94.1216 67.7716 93.7695 67.0675 92.0092 64.7791L90.777 63.1948H97.2901C103.627 63.1948 103.803 63.1948 106.62 63.8989C111.197 64.9551 114.541 66.8914 117.006 69.5319C118.59 71.2922 119.118 72.7004 119.118 75.1649C119.118 76.7491 118.942 77.2772 118.414 78.3334C117.006 81.1499 114.365 82.9102 111.373 83.0862C109.436 83.2623 108.204 82.9102 106.444 81.678C105.035 80.7978 103.979 79.3896 103.979 78.5094C103.979 76.7491 105.564 75.6929 107.852 76.045C109.084 76.221 109.26 76.221 109.964 75.6929C110.844 74.8128 111.021 74.2847 110.316 73.4045C108.732 71.4682 105.74 71.4682 103.627 73.2285C102.395 74.2847 101.867 75.5169 101.867 77.4533C101.867 80.2697 103.627 82.7342 106.796 84.3184C108.204 85.0226 108.908 85.1986 110.316 85.1986C113.837 85.3746 116.477 84.3184 118.942 81.854C120.526 80.2697 121.406 78.5094 121.758 76.221C122.286 73.2285 121.054 69.5319 118.414 66.7154C115.245 63.1948 111.901 61.6105 106.092 60.9064C104.155 60.7304 64.5484 60.3783 39.7281 60.5543L39.5521 60.9064Z" fill="#8C90A0"/>
<path d="M261.175 50.6963C262.055 50.1682 262.231 49.4641 261.703 48.7599C260.823 47.5277 258.886 48.0558 258.886 49.288C258.886 49.8161 259.766 51.0483 260.295 51.0483C260.471 51.0483 260.823 50.8723 261.175 50.6963Z" fill="#8C90A0"/>
<path d="M245.508 50.6968C251.493 50.6968 254.485 50.5207 254.661 50.3447C255.014 49.9926 255.014 49.1125 254.661 48.7604C253.781 48.2323 212.766 49.2885 203.789 47.3522C199.916 46.6481 197.275 45.5919 194.635 44.1836C192.171 42.7754 191.819 42.7754 191.29 43.3035C190.938 43.8316 191.29 44.5357 193.051 46.8241L194.283 48.4084H187.77C181.433 48.4084 181.257 48.4084 178.44 47.7042C173.863 46.6481 170.519 44.7117 168.054 42.0713C166.47 40.311 165.942 38.9027 165.942 36.4383C165.942 34.854 166.118 34.3259 166.646 33.2697C168.054 30.4532 170.695 28.6929 173.687 28.5169C175.624 28.3409 176.856 28.6929 178.616 29.9252C180.024 30.8053 181.081 32.2135 181.081 33.0937C181.081 34.854 179.496 35.9102 177.208 35.5581C175.976 35.3821 175.8 35.3821 175.096 35.9102C174.215 36.7903 174.039 37.3184 174.744 38.1986C176.328 40.1349 179.32 40.1349 181.433 38.3746C182.665 37.3184 183.193 36.0862 183.193 34.1499C183.193 31.3334 181.433 28.869 178.264 27.2847C176.856 26.5806 176.152 26.4045 174.744 26.4045C171.223 26.2285 168.582 27.2847 166.118 29.7491C164.534 31.3334 163.654 33.0937 163.302 35.3821C162.773 38.3746 164.006 42.0713 166.646 44.8878C169.815 48.4084 173.159 49.9926 178.968 50.6968C180.905 50.8728 220.512 51.2249 245.332 51.0488L245.508 50.6968Z" fill="#8C90A0"/>
<path d="M0.825143 50.6963C-0.0550096 50.1682 -0.23104 49.4641 0.297052 48.7599C1.1772 47.5277 3.11354 48.0558 3.11354 49.288C3.11354 49.8161 2.23339 51.0483 1.7053 51.0483C1.52927 51.0483 1.1772 50.8723 0.825143 50.6963Z" fill="#8C90A0"/>
<path d="M16.4919 50.6968C10.5069 50.6968 7.51436 50.5207 7.33833 50.3447C6.98626 49.9926 6.98626 49.1125 7.33833 48.7604C8.21848 48.2323 49.2336 49.2885 58.2112 47.3522C62.0838 46.6481 64.7243 45.5919 67.3648 44.1836C69.8292 42.7754 70.1812 42.7754 70.7093 43.3035C71.0614 43.8316 70.7093 44.5357 68.949 46.8241L67.7168 48.4084H74.2299C80.567 48.4084 80.7431 48.4084 83.5596 47.7042C88.1364 46.6481 91.4809 44.7117 93.9454 42.0713C95.5296 40.311 96.0577 38.9027 96.0577 36.4383C96.0577 34.854 95.8817 34.3259 95.3536 33.2697C93.9454 30.4532 91.3049 28.6929 88.3124 28.5169C86.3761 28.3409 85.1438 28.6929 83.3835 29.9252C81.9753 30.8053 80.9191 32.2135 80.9191 33.0937C80.9191 34.854 82.5034 35.9102 84.7918 35.5581C86.024 35.3821 86.2 35.3821 86.9041 35.9102C87.7843 36.7903 87.9603 37.3184 87.2562 38.1986C85.6719 40.1349 82.6794 40.1349 80.567 38.3746C79.3348 37.3184 78.8067 36.0862 78.8067 34.1499C78.8067 31.3334 80.567 28.869 83.7356 27.2847C85.1438 26.5806 85.848 26.4045 87.2562 26.4045C90.7768 26.2285 93.4173 27.2847 95.8817 29.7491C97.466 31.3334 98.3461 33.0937 98.6982 35.3821C99.2263 38.3746 97.9941 42.0713 95.3536 44.8878C92.1851 48.4084 88.8405 49.9926 83.0315 50.6968C81.0951 50.8728 41.4883 51.2249 16.6679 51.0488L16.4919 50.6968Z" fill="#8C90A0"/>
<path d="M141.621 30.2105H137.495C140.647 28.2863 142.756 24.8139 142.756 20.8583C142.756 20.4183 142.729 19.9844 142.678 19.5577C144.148 18.9531 145.186 17.5063 145.186 15.8211C145.186 14.5478 144.593 13.411 143.669 12.6702C143.622 9.62371 142.42 6.8527 140.484 4.77511C140.514 4.08885 140.066 3.4498 139.375 3.26646C139.162 3.20999 138.948 3.20392 138.744 3.23848C137.829 2.57752 136.818 2.04363 135.735 1.66251L135.737 1.6396C135.778 1.22014 135.64 0.802673 135.357 0.490367C135.074 0.178162 134.672 0 134.25 0H129.363C128.942 0 128.54 0.178162 128.257 0.490367C127.973 0.802673 127.835 1.22014 127.876 1.6396L127.879 1.66251C126.796 2.04363 125.784 2.57742 124.87 3.23838C124.666 3.20382 124.452 3.20989 124.239 3.26646C123.548 3.4498 123.099 4.08885 123.13 4.77511C121.193 6.8527 119.992 9.62371 119.944 12.6702C119.021 13.411 118.428 14.5478 118.428 15.8211C118.428 17.5063 119.466 18.9531 120.936 19.5577C120.885 19.9844 120.858 20.4183 120.858 20.8583C120.858 24.8139 122.967 28.2863 126.119 30.2105H121.992C117.585 30.2105 114 33.7958 114 38.2027V49.5061C114 50.3311 114.669 50.9999 115.494 50.9999H148.12C148.945 50.9999 149.614 50.3311 149.614 49.5061V38.2027C149.614 33.7958 146.028 30.2105 141.621 30.2105ZM116.988 38.2027C116.988 35.4432 119.233 33.1981 121.992 33.1981H126.502C126.506 34.4561 127.081 35.582 127.982 36.3295L126.919 45.0327C126.871 45.4301 126.984 45.8302 127.233 46.1435L128.719 48.0124H116.988V38.2027ZM131.011 2.98762H132.603L132.265 6.43313H131.349L131.011 2.98762ZM128.508 8.07284C128.583 8.83767 129.226 9.42085 129.994 9.42085H133.619C134.388 9.42085 135.031 8.83777 135.106 8.07284L135.431 4.75539C136.049 5.03254 136.629 5.37851 137.162 5.78293L136.637 7.76173C136.425 8.55912 136.9 9.37713 137.697 9.58865C137.826 9.62271 137.955 9.63895 138.081 9.63895C138.742 9.63895 139.347 9.19688 139.524 8.52785L139.534 8.4924C140.097 9.48618 140.475 10.5986 140.619 11.7823H122.995C123.138 10.5986 123.516 9.48618 124.08 8.4924L124.089 8.52785C124.267 9.19698 124.871 9.63895 125.532 9.63895C125.659 9.63895 125.788 9.62261 125.916 9.58865C126.713 9.37703 127.188 8.55912 126.977 7.76173L126.452 5.78293C126.985 5.37841 127.565 5.03254 128.182 4.75539L128.508 8.07284ZM121.415 15.8212C121.415 15.2415 121.887 14.7699 122.467 14.7699H141.147C141.726 14.7699 142.198 15.2415 142.198 15.8212C142.198 16.4009 141.727 16.8726 141.147 16.8726H122.467C121.887 16.8726 121.415 16.4009 121.415 15.8212ZM123.91 19.8602H139.703C139.744 20.1874 139.768 20.5201 139.768 20.8583C139.768 25.2481 136.197 28.8195 131.807 28.8195C127.417 28.8195 123.846 25.2481 123.846 20.8583C123.846 20.5201 123.869 20.1874 123.91 19.8602ZM130.877 37.2712H132.737L133.653 44.7736L131.807 47.0949L129.961 44.7736L130.877 37.2712ZM133.025 34.2836H130.588C129.982 34.2836 129.489 33.7906 129.489 33.1847V31.8072H134.124V33.1847C134.124 33.7907 133.631 34.2836 133.025 34.2836ZM146.626 48.0124H134.894L136.381 46.1435C136.63 45.8302 136.743 45.4301 136.694 45.0327L135.632 36.3295C136.532 35.582 137.108 34.4561 137.112 33.1981H141.621C144.381 33.1981 146.626 35.4432 146.626 38.2027V48.0124Z" fill="#383D50"/>
</svg>
