<svg width="262" height="112" viewBox="0 0 262 112" fill="none" xmlns="http://www.w3.org/2000/svg">
<circle opacity="0.3" cx="130" cy="26" r="20" fill="#C0584D"/>
<path d="M121.054 64.0184C120.702 64.3705 120.878 64.7226 121.582 65.0746C122.638 65.6027 124.223 67.187 124.927 68.9473C125.983 71.2357 126.335 73.172 126.335 76.1645C126.335 79.5091 125.983 81.6215 125.279 83.2058C124.399 84.9661 121.758 87.6065 119.998 88.4867C118.59 89.1908 118.238 89.7189 118.766 90.247C118.942 90.247 119.294 90.9511 119.646 91.4792C119.998 92.1833 121.23 94.1197 122.462 96.056C124.575 99.2245 127.391 104.329 129.856 109.082C130.384 110.314 130.912 111.195 130.912 111.195C130.912 111.195 131.44 110.314 131.968 109.082C134.257 104.329 137.249 99.2245 139.361 96.056C140.594 94.2957 141.826 92.1833 142.178 91.4792C142.53 90.7751 142.882 90.247 143.058 90.247C143.586 89.8949 143.234 89.3668 141.826 88.4867C140.77 87.9586 139.889 87.2545 138.833 86.0223C136.193 83.2058 135.665 81.4455 135.665 76.1645C135.665 73.172 136.017 71.2357 137.073 68.9473C137.777 67.363 139.185 65.6027 140.418 65.0746C140.946 64.8986 141.122 64.5465 141.122 64.3705C141.122 64.0184 140.242 64.0184 131.264 63.8424C125.807 63.8424 121.406 63.8424 121.23 64.0184H121.054ZM136.369 66.3068C136.369 66.3068 136.017 67.011 135.665 67.7151C134.257 70.1795 133.728 72.2919 133.552 75.6365C133.376 82.5016 135.489 87.2545 140.066 89.8949C140.418 90.071 140.418 90.247 139.713 91.3032C139.185 92.0073 138.481 93.2395 137.777 94.1197C136.369 96.056 133.552 100.633 132.144 103.273C131.616 104.329 131.088 105.21 131.088 105.21C131.088 105.21 130.56 104.329 130.032 103.273C128.624 100.633 125.807 95.88 124.399 94.1197C123.871 93.2395 122.991 92.0073 122.462 91.3032C121.758 90.071 121.758 90.071 122.11 89.8949C126.687 87.2545 128.8 82.5016 128.624 75.6365C128.447 72.2919 127.919 70.1795 126.511 67.7151C126.159 67.011 125.807 66.3068 125.807 66.3068C125.807 66.3068 128.271 66.1308 131.264 66.1308C134.257 66.1308 136.721 66.1308 136.721 66.3068H136.369Z" fill="#8C90A0"/>
<path d="M237.939 61.7301C238.819 62.2582 238.995 62.9623 238.467 63.6665C237.587 64.8987 235.65 64.3706 235.65 63.1384C235.65 62.6103 236.531 61.3781 237.059 61.3781C237.235 61.3781 237.587 61.5541 237.939 61.7301Z" fill="#8C90A0"/>
<path d="M222.272 61.9072C228.257 61.9072 231.249 62.0833 231.425 62.2593C231.777 62.6114 231.777 63.4915 231.425 63.8436C230.545 64.3717 189.53 63.3155 180.553 65.2518C176.68 65.9559 174.039 67.0121 171.399 68.4204C168.935 69.8286 168.583 69.8286 168.054 69.3005C167.702 68.7724 168.054 68.0683 169.815 65.7799L171.047 64.1956H164.534C158.197 64.1956 158.021 64.1956 155.204 64.8998C150.627 65.9559 147.283 67.8923 144.818 70.5327C143.234 72.293 142.706 73.7013 142.706 76.1657C142.706 77.75 142.882 78.2781 143.41 79.3343C144.818 82.1507 147.459 83.911 150.451 84.0871C152.388 84.2631 153.62 83.9111 155.38 82.6788C156.788 81.7987 157.845 80.3904 157.845 79.5103C157.845 77.75 156.26 76.6938 153.972 77.0459C152.74 77.2219 152.564 77.2219 151.86 76.6938C150.979 75.8136 150.803 75.2856 151.508 74.4054C153.092 72.4691 156.084 72.4691 158.197 74.2294C159.429 75.2856 159.957 76.5178 159.957 78.4541C159.957 81.2706 158.197 83.735 155.028 85.3193C153.62 86.0234 152.916 86.1994 151.508 86.1994C147.987 86.3755 145.347 85.3193 142.882 82.8549C141.298 81.2706 140.418 79.5103 140.066 77.2219C139.538 74.2294 140.77 70.5327 143.41 67.7162C146.579 64.1956 149.923 62.6114 155.732 61.9072C157.669 61.7312 197.276 61.3791 222.096 61.5552L222.272 61.9072Z" fill="#8C90A0"/>
<path d="M23.8852 61.7304C23.005 62.2585 22.829 62.9626 23.3571 63.6667C24.2373 64.8989 26.1736 64.3708 26.1736 63.1386C26.1736 62.6105 25.2934 61.3783 24.7654 61.3783C24.5893 61.3783 24.2373 61.5543 23.8852 61.7304Z" fill="#8C90A0"/>
<path d="M39.5522 61.9063C33.5671 61.9063 30.5746 62.0823 30.3986 62.2583C30.0465 62.6104 30.0465 63.4905 30.3986 63.8426C31.2787 64.3707 72.2938 63.3145 81.2714 65.2508C85.1441 65.955 87.7845 67.0111 90.425 68.4194C92.8894 69.8276 93.2415 69.8276 93.7696 69.2995C94.1216 68.7715 93.7696 68.0673 92.0093 65.7789L90.7771 64.1947H97.2902C103.627 64.1947 103.803 64.1947 106.62 64.8988C111.197 65.955 114.541 67.8913 117.006 70.5318C118.59 72.2921 119.118 73.7003 119.118 76.1647C119.118 77.749 118.942 78.2771 118.414 79.3333C117.006 82.1498 114.365 83.9101 111.373 84.0861C109.436 84.2621 108.204 83.9101 106.444 82.6779C105.036 81.7977 103.979 80.3895 103.979 79.5093C103.979 77.749 105.564 76.6928 107.852 77.0449C109.084 77.2209 109.26 77.2209 109.964 76.6928C110.845 75.8127 111.021 75.2846 110.316 74.4044C108.732 72.4681 105.74 72.4681 103.627 74.2284C102.395 75.2846 101.867 76.5168 101.867 78.4531C101.867 81.2696 103.627 83.734 106.796 85.3183C108.204 86.0224 108.908 86.1985 110.316 86.1985C113.837 86.3745 116.478 85.3183 118.942 82.8539C120.526 81.2696 121.406 79.5093 121.758 77.2209C122.287 74.2284 121.054 70.5318 118.414 67.7153C115.245 64.1947 111.901 62.6104 106.092 61.9063C104.155 61.7302 64.5485 61.3782 39.7282 61.5542L39.5522 61.9063Z" fill="#8C90A0"/>
<path d="M261.175 51.6963C262.055 51.1682 262.231 50.4641 261.703 49.7599C260.823 48.5277 258.886 49.0558 258.886 50.288C258.886 50.8161 259.766 52.0483 260.295 52.0483C260.471 52.0483 260.823 51.8723 261.175 51.6963Z" fill="#8C90A0"/>
<path d="M245.508 51.6968C251.493 51.6968 254.485 51.5207 254.661 51.3447C255.014 50.9926 255.014 50.1125 254.661 49.7604C253.781 49.2323 212.766 50.2885 203.789 48.3522C199.916 47.6481 197.275 46.5919 194.635 45.1836C192.171 43.7754 191.819 43.7754 191.29 44.3035C190.938 44.8316 191.29 45.5357 193.051 47.8241L194.283 49.4084H187.77C181.433 49.4084 181.257 49.4084 178.44 48.7042C173.863 47.6481 170.519 45.7117 168.054 43.0713C166.47 41.311 165.942 39.9027 165.942 37.4383C165.942 35.854 166.118 35.3259 166.646 34.2697C168.054 31.4532 170.695 29.6929 173.687 29.5169C175.624 29.3409 176.856 29.6929 178.616 30.9252C180.024 31.8053 181.081 33.2135 181.081 34.0937C181.081 35.854 179.496 36.9102 177.208 36.5581C175.976 36.3821 175.8 36.3821 175.096 36.9102C174.215 37.7903 174.039 38.3184 174.744 39.1986C176.328 41.1349 179.32 41.1349 181.433 39.3746C182.665 38.3184 183.193 37.0862 183.193 35.1499C183.193 32.3334 181.433 29.869 178.264 28.2847C176.856 27.5806 176.152 27.4045 174.744 27.4045C171.223 27.2285 168.582 28.2847 166.118 30.7491C164.534 32.3334 163.654 34.0937 163.302 36.3821C162.773 39.3746 164.006 43.0713 166.646 45.8878C169.815 49.4084 173.159 50.9926 178.968 51.6968C180.905 51.8728 220.512 52.2249 245.332 52.0488L245.508 51.6968Z" fill="#8C90A0"/>
<path d="M0.825143 51.6963C-0.0550096 51.1682 -0.23104 50.4641 0.297052 49.7599C1.1772 48.5277 3.11354 49.0558 3.11354 50.288C3.11354 50.8161 2.23339 52.0483 1.7053 52.0483C1.52927 52.0483 1.1772 51.8723 0.825143 51.6963Z" fill="#8C90A0"/>
<path d="M16.492 51.6968C10.5069 51.6968 7.51442 51.5207 7.33839 51.3447C6.98633 50.9926 6.98633 50.1125 7.33839 49.7604C8.21854 49.2323 49.2337 50.2885 58.2112 48.3522C62.0839 47.6481 64.7244 46.5919 67.3648 45.1836C69.8292 43.7754 70.1813 43.7754 70.7094 44.3035C71.0615 44.8316 70.7094 45.5357 68.9491 47.8241L67.7169 49.4084H74.23C80.5671 49.4084 80.7431 49.4084 83.5596 48.7042C88.1364 47.6481 91.481 45.7117 93.9454 43.0713C95.5297 41.311 96.0578 39.9027 96.0578 37.4383C96.0578 35.854 95.8818 35.3259 95.3537 34.2697C93.9454 31.4532 91.305 29.6929 88.3125 29.5169C86.3761 29.3409 85.1439 29.6929 83.3836 30.9252C81.9753 31.8053 80.9192 33.2135 80.9192 34.0937C80.9192 35.854 82.5034 36.9102 84.7918 36.5581C86.0241 36.3821 86.2001 36.3821 86.9042 36.9102C87.7844 37.7903 87.9604 38.3184 87.2563 39.1986C85.672 41.1349 82.6795 41.1349 80.5671 39.3746C79.3349 38.3184 78.8068 37.0862 78.8068 35.1499C78.8068 32.3334 80.5671 29.869 83.7357 28.2847C85.1439 27.5806 85.848 27.4045 87.2563 27.4045C90.7769 27.2285 93.4173 28.2847 95.8818 30.7491C97.466 32.3334 98.3462 34.0937 98.6983 36.3821C99.2263 39.3746 97.9941 43.0713 95.3537 45.8878C92.1851 49.4084 88.8405 50.9926 83.0315 51.6968C81.0952 51.8728 41.4883 52.2249 16.668 52.0488L16.492 51.6968Z" fill="#8C90A0"/>
<path d="M155.632 10.8537C155.632 10.2067 155.241 9.62372 154.643 9.3778L132.106 0.119668C131.718 -0.0398894 131.282 -0.0398894 130.894 0.119668L108.357 9.3778C107.759 9.62362 107.368 10.2067 107.368 10.8537V40.1463C107.368 40.7933 107.759 41.3763 108.357 41.6222L130.894 50.8803C131.278 51.0382 131.71 51.0416 132.104 50.8802C132.124 50.8739 131.27 51.2238 154.643 41.6222C155.241 41.3764 155.632 40.7933 155.632 40.1463V10.8537ZM131.5 18.5211L123.196 15.1098L141.142 7.28141L150.001 10.9208L131.5 18.5211ZM110.559 13.3683L117.724 16.3115V24.6149C117.724 25.496 118.438 26.2104 119.319 26.2104C120.2 26.2104 120.915 25.496 120.915 24.6149V17.6224L129.905 21.3155V47.0239L110.559 39.0768V13.3683ZM131.5 3.32049L137.031 5.59279L119.086 13.4212L112.999 10.9207L131.5 3.32049ZM133.096 21.3155L152.441 13.3683V39.0768L133.096 47.0239V21.3155Z" fill="#383D50"/>
</svg>
