<svg width="262" height="111" viewBox="0 0 262 111" fill="none" xmlns="http://www.w3.org/2000/svg">
<circle opacity="0.3" cx="131" cy="25" r="20" fill="#C0584D"/>
<path d="M121.054 63.0184C120.702 63.3705 120.878 63.7226 121.582 64.0746C122.639 64.6027 124.223 66.187 124.927 67.9473C125.983 70.2357 126.335 72.172 126.335 75.1645C126.335 78.5091 125.983 80.6215 125.279 82.2058C124.399 83.9661 121.758 86.6065 119.998 87.4867C118.59 88.1908 118.238 88.7189 118.766 89.247C118.942 89.247 119.294 89.9511 119.646 90.4792C119.998 91.1833 121.23 93.1197 122.463 95.056C124.575 98.2245 127.391 103.329 129.856 108.082C130.384 109.314 130.912 110.195 130.912 110.195C130.912 110.195 131.44 109.314 131.968 108.082C134.257 103.329 137.249 98.2245 139.361 95.056C140.594 93.2957 141.826 91.1833 142.178 90.4792C142.53 89.7751 142.882 89.247 143.058 89.247C143.586 88.8949 143.234 88.3668 141.826 87.4867C140.77 86.9586 139.89 86.2545 138.833 85.0223C136.193 82.2058 135.665 80.4455 135.665 75.1645C135.665 72.172 136.017 70.2357 137.073 67.9473C137.777 66.363 139.185 64.6027 140.418 64.0746C140.946 63.8986 141.122 63.5465 141.122 63.3705C141.122 63.0184 140.242 63.0184 131.264 62.8424C125.807 62.8424 121.406 62.8424 121.23 63.0184H121.054ZM136.369 65.3068C136.369 65.3068 136.017 66.011 135.665 66.7151C134.257 69.1795 133.728 71.2919 133.552 74.6365C133.376 81.5016 135.489 86.2545 140.066 88.8949C140.418 89.071 140.418 89.247 139.714 90.3032C139.185 91.0073 138.481 92.2395 137.777 93.1197C136.369 95.056 133.552 99.6328 132.144 102.273C131.616 103.329 131.088 104.21 131.088 104.21C131.088 104.21 130.56 103.329 130.032 102.273C128.624 99.6328 125.807 94.88 124.399 93.1197C123.871 92.2395 122.991 91.0073 122.463 90.3032C121.758 89.071 121.758 89.071 122.11 88.8949C126.687 86.2545 128.8 81.5016 128.624 74.6365C128.448 71.2919 127.919 69.1795 126.511 66.7151C126.159 66.011 125.807 65.3068 125.807 65.3068C125.807 65.3068 128.272 65.1308 131.264 65.1308C134.257 65.1308 136.721 65.1308 136.721 65.3068H136.369Z" fill="#8C90A0"/>
<path d="M237.939 60.7301C238.819 61.2582 238.995 61.9623 238.467 62.6665C237.587 63.8987 235.65 63.3706 235.65 62.1384C235.65 61.6103 236.531 60.3781 237.059 60.3781C237.235 60.3781 237.587 60.5541 237.939 60.7301Z" fill="#8C90A0"/>
<path d="M222.272 60.9072C228.257 60.9072 231.249 61.0833 231.425 61.2593C231.778 61.6114 231.778 62.4915 231.425 62.8436C230.545 63.3717 189.53 62.3155 180.553 64.2518C176.68 64.9559 174.04 66.0121 171.399 67.4204C168.935 68.8286 168.583 68.8286 168.055 68.3005C167.702 67.7724 168.055 67.0683 169.815 64.7799L171.047 63.1956H164.534C158.197 63.1956 158.021 63.1956 155.204 63.8998C150.627 64.9559 147.283 66.8923 144.818 69.5327C143.234 71.293 142.706 72.7013 142.706 75.1657C142.706 76.75 142.882 77.2781 143.41 78.3343C144.818 81.1507 147.459 82.911 150.451 83.0871C152.388 83.2631 153.62 82.9111 155.38 81.6788C156.789 80.7987 157.845 79.3904 157.845 78.5103C157.845 76.75 156.26 75.6938 153.972 76.0459C152.74 76.2219 152.564 76.2219 151.86 75.6938C150.98 74.8136 150.804 74.2856 151.508 73.4054C153.092 71.4691 156.084 71.4691 158.197 73.2294C159.429 74.2856 159.957 75.5178 159.957 77.4541C159.957 80.2706 158.197 82.735 155.028 84.3193C153.62 85.0234 152.916 85.1994 151.508 85.1994C147.987 85.3755 145.347 84.3193 142.882 81.8549C141.298 80.2706 140.418 78.5103 140.066 76.2219C139.538 73.2294 140.77 69.5327 143.41 66.7162C146.579 63.1956 149.923 61.6114 155.732 60.9072C157.669 60.7312 197.276 60.3791 222.096 60.5552L222.272 60.9072Z" fill="#8C90A0"/>
<path d="M23.8853 60.7304C23.0051 61.2585 22.8291 61.9626 23.3572 62.6667C24.2373 63.8989 26.1737 63.3708 26.1737 62.1386C26.1737 61.6105 25.2935 60.3783 24.7654 60.3783C24.5894 60.3783 24.2373 60.5543 23.8853 60.7304Z" fill="#8C90A0"/>
<path d="M39.5521 60.9064C33.5671 60.9064 30.5745 61.0824 30.3985 61.2584C30.0464 61.6105 30.0464 62.4907 30.3985 62.8427C31.2787 63.3708 72.2938 62.3146 81.2713 64.251C85.144 64.9551 87.7845 66.0113 90.4249 67.4195C92.8894 68.8278 93.2414 68.8278 93.7695 68.2997C94.1216 67.7716 93.7695 67.0675 92.0092 64.7791L90.777 63.1948H97.2901C103.627 63.1948 103.803 63.1948 106.62 63.8989C111.197 64.9551 114.541 66.8914 117.006 69.5319C118.59 71.2922 119.118 72.7004 119.118 75.1649C119.118 76.7491 118.942 77.2772 118.414 78.3334C117.006 81.1499 114.365 82.9102 111.373 83.0862C109.436 83.2623 108.204 82.9102 106.444 81.678C105.035 80.7978 103.979 79.3896 103.979 78.5094C103.979 76.7491 105.564 75.6929 107.852 76.045C109.084 76.221 109.26 76.221 109.964 75.6929C110.844 74.8128 111.021 74.2847 110.316 73.4045C108.732 71.4682 105.74 71.4682 103.627 73.2285C102.395 74.2847 101.867 75.5169 101.867 77.4533C101.867 80.2697 103.627 82.7342 106.796 84.3184C108.204 85.0226 108.908 85.1986 110.316 85.1986C113.837 85.3746 116.477 84.3184 118.942 81.854C120.526 80.2697 121.406 78.5094 121.758 76.221C122.286 73.2285 121.054 69.5319 118.414 66.7154C115.245 63.1948 111.901 61.6105 106.092 60.9064C104.155 60.7304 64.5484 60.3783 39.7281 60.5543L39.5521 60.9064Z" fill="#8C90A0"/>
<path d="M261.175 50.6963C262.055 50.1682 262.231 49.4641 261.703 48.7599C260.823 47.5277 258.886 48.0558 258.886 49.288C258.886 49.8161 259.766 51.0483 260.295 51.0483C260.471 51.0483 260.823 50.8723 261.175 50.6963Z" fill="#8C90A0"/>
<path d="M245.508 50.6968C251.493 50.6968 254.485 50.5207 254.661 50.3447C255.014 49.9926 255.014 49.1125 254.661 48.7604C253.781 48.2323 212.766 49.2885 203.789 47.3522C199.916 46.6481 197.275 45.5919 194.635 44.1836C192.171 42.7754 191.819 42.7754 191.29 43.3035C190.938 43.8316 191.29 44.5357 193.051 46.8241L194.283 48.4084H187.77C181.433 48.4084 181.257 48.4084 178.44 47.7042C173.863 46.6481 170.519 44.7117 168.054 42.0713C166.47 40.311 165.942 38.9027 165.942 36.4383C165.942 34.854 166.118 34.3259 166.646 33.2697C168.054 30.4532 170.695 28.6929 173.687 28.5169C175.624 28.3409 176.856 28.6929 178.616 29.9252C180.024 30.8053 181.081 32.2135 181.081 33.0937C181.081 34.854 179.496 35.9102 177.208 35.5581C175.976 35.3821 175.8 35.3821 175.096 35.9102C174.215 36.7903 174.039 37.3184 174.744 38.1986C176.328 40.1349 179.32 40.1349 181.433 38.3746C182.665 37.3184 183.193 36.0862 183.193 34.1499C183.193 31.3334 181.433 28.869 178.264 27.2847C176.856 26.5806 176.152 26.4045 174.744 26.4045C171.223 26.2285 168.582 27.2847 166.118 29.7491C164.534 31.3334 163.654 33.0937 163.302 35.3821C162.773 38.3746 164.006 42.0713 166.646 44.8878C169.815 48.4084 173.159 49.9926 178.968 50.6968C180.905 50.8728 220.512 51.2249 245.332 51.0488L245.508 50.6968Z" fill="#8C90A0"/>
<path d="M0.825143 50.6963C-0.0550096 50.1682 -0.23104 49.4641 0.297052 48.7599C1.1772 47.5277 3.11354 48.0558 3.11354 49.288C3.11354 49.8161 2.23339 51.0483 1.7053 51.0483C1.52927 51.0483 1.1772 50.8723 0.825143 50.6963Z" fill="#8C90A0"/>
<path d="M16.4919 50.6968C10.5069 50.6968 7.51436 50.5207 7.33833 50.3447C6.98626 49.9926 6.98626 49.1125 7.33833 48.7604C8.21848 48.2323 49.2336 49.2885 58.2112 47.3522C62.0838 46.6481 64.7243 45.5919 67.3648 44.1836C69.8292 42.7754 70.1812 42.7754 70.7093 43.3035C71.0614 43.8316 70.7093 44.5357 68.949 46.8241L67.7168 48.4084H74.2299C80.567 48.4084 80.7431 48.4084 83.5596 47.7042C88.1364 46.6481 91.4809 44.7117 93.9454 42.0713C95.5296 40.311 96.0577 38.9027 96.0577 36.4383C96.0577 34.854 95.8817 34.3259 95.3536 33.2697C93.9454 30.4532 91.3049 28.6929 88.3124 28.5169C86.3761 28.3409 85.1438 28.6929 83.3835 29.9252C81.9753 30.8053 80.9191 32.2135 80.9191 33.0937C80.9191 34.854 82.5034 35.9102 84.7918 35.5581C86.024 35.3821 86.2 35.3821 86.9041 35.9102C87.7843 36.7903 87.9603 37.3184 87.2562 38.1986C85.6719 40.1349 82.6794 40.1349 80.567 38.3746C79.3348 37.3184 78.8067 36.0862 78.8067 34.1499C78.8067 31.3334 80.567 28.869 83.7356 27.2847C85.1438 26.5806 85.848 26.4045 87.2562 26.4045C90.7768 26.2285 93.4173 27.2847 95.8817 29.7491C97.466 31.3334 98.3461 33.0937 98.6982 35.3821C99.2263 38.3746 97.9941 42.0713 95.3536 44.8878C92.1851 48.4084 88.8405 49.9926 83.0315 50.6968C81.0951 50.8728 41.4883 51.2249 16.6679 51.0488L16.4919 50.6968Z" fill="#8C90A0"/>
<g clip-path="url(#clip0)">
<path d="M156.984 22.6394V22.6391C156.901 21.8445 156.489 21.1122 155.855 20.627L152.952 18.3671L154.043 14.7672C154.276 13.9991 154.18 13.1598 153.778 12.4641C153.377 11.7688 152.698 11.2656 151.917 11.0828L148.265 10.2302L147.799 6.50967C147.699 5.71279 147.269 4.98517 146.62 4.51436C145.97 4.0416 145.145 3.85756 144.357 4.00931L140.674 4.71552L138.735 1.50583C137.963 0.228416 136.342 -0.254069 134.965 0.382499C134.868 0.427246 134.775 0.480942 134.693 0.538529L131.497 2.76496L128.42 0.621407C127.761 0.163047 126.933 -0.00387761 126.148 0.162657C125.363 0.329193 124.674 0.819459 124.259 1.50661L122.32 4.71591L118.637 4.00931C117.848 3.85834 117.024 4.04238 116.375 4.51397C115.725 4.98595 115.296 5.71357 115.196 6.50967L114.73 10.2306L110.868 11.1322L110.686 11.1913L110.619 11.2205C109.216 11.8341 108.514 13.3259 108.951 14.7672L110.042 18.3671L107.014 20.722L106.839 20.8745L106.789 20.9286C105.774 22.0383 105.734 23.7169 106.695 24.839L109.065 27.6732L107.144 31.1592L107.067 31.3335L107.045 31.3985C106.566 32.83 107.219 34.3856 108.563 35.0163L111.957 36.6093L111.639 40.3455C111.571 41.1459 111.84 41.947 112.377 42.5431C112.914 43.1396 113.683 43.491 114.486 43.5073L118.235 43.582L119.464 47.124C119.727 47.8827 120.299 48.5053 121.032 48.8314C121.765 49.1578 122.61 49.1664 123.351 48.8547L126.806 47.3983L129.519 50.2928L129.661 50.4193L129.716 50.4601C130.251 50.8559 130.877 51.0496 131.498 51.0496C132.283 51.0496 133.058 50.7391 133.625 50.1341L136.189 47.3983L139.645 48.8551C140.384 49.1664 141.228 49.1578 141.961 48.8318C142.695 48.5053 143.267 47.8827 143.53 47.1244L144.76 43.582L148.726 43.503L148.914 43.4824L148.982 43.4688C150.46 43.1672 151.481 41.8244 151.355 40.3459L151.038 36.6093L154.432 35.0163C155.159 34.6755 155.718 34.042 155.966 33.2782C156.214 32.5148 156.134 31.6736 155.747 30.9705L153.93 27.6732L156.3 24.839C156.818 24.234 157.067 23.4332 156.984 22.6394ZM151.103 26.3915C150.633 26.946 150.553 27.7433 150.904 28.3802L153.089 32.3436L148.992 34.2662C148.327 34.5782 147.923 35.279 147.985 36.0101L148.368 40.519L143.844 40.6093C143.11 40.6241 142.456 41.0995 142.215 41.7929L140.731 46.068L136.561 44.3104C135.885 44.0256 135.094 44.1933 134.591 44.7291L131.497 48.031L128.402 44.7287C128.064 44.3668 127.592 44.1731 127.114 44.1731C126.884 44.1731 126.652 44.2178 126.433 44.3104L122.263 46.068L120.779 41.7941C120.539 41.1003 119.884 40.6241 119.15 40.6093L114.625 40.519L115.008 36.0101C115.071 35.279 114.666 34.5782 114.002 34.2662L109.905 32.3436L112.089 28.3806C112.441 27.7429 112.361 26.946 111.891 26.3912L109.016 22.9534L112.538 20.2134C113.115 19.7687 113.36 19.0045 113.148 18.308L111.836 13.9773L116.243 12.9477C116.957 12.7808 117.499 12.18 117.59 11.4516L118.153 6.96141L122.598 7.81393C123.319 7.95167 124.057 7.62249 124.437 6.99488L126.777 3.12177L130.49 5.70773C131.093 6.12718 131.902 6.12757 132.504 5.70773L136.217 3.12138L138.558 6.99371C138.937 7.62211 139.677 7.95167 140.397 7.81354L144.842 6.96102L145.404 11.4509C145.495 12.1789 146.036 12.7804 146.752 12.9477L151.159 13.9769L149.846 18.3076C149.635 19.0056 149.88 19.7694 150.457 20.2138L153.978 22.955L151.103 26.3915Z" fill="#383D50"/>
<path d="M131.656 12.8776C124.653 12.8776 118.956 18.5744 118.956 25.5774C118.956 32.5801 124.653 38.2773 131.656 38.2773C138.659 38.2773 144.356 32.5801 144.356 25.5774C144.356 18.5744 138.658 12.8776 131.656 12.8776ZM131.656 35.2866C126.302 35.2866 121.946 30.9311 121.946 25.5774C121.946 20.2234 126.302 15.8678 131.656 15.8678C137.01 15.8678 141.365 20.2234 141.365 25.5774C141.365 30.9311 137.01 35.2866 131.656 35.2866Z" fill="#383D50"/>
<path d="M135.306 21.6343L129.407 27.5331L127.806 25.9319C127.222 25.3483 126.276 25.3483 125.692 25.9319C125.108 26.516 125.108 27.4627 125.692 28.0467L128.35 30.7046C128.642 30.9969 129.025 31.1428 129.407 31.1428C129.79 31.1428 130.173 30.9969 130.464 30.7046L137.421 23.7487C138.004 23.1647 138.004 22.218 137.421 21.6343C136.837 21.0503 135.89 21.0503 135.306 21.6343Z" fill="#383D50"/>
</g>
<defs>
<clipPath id="clip0">
<rect x="106" width="51" height="51" fill="white"/>
</clipPath>
</defs>
</svg>
