<svg width="262" height="112" viewBox="0 0 262 112" fill="none" xmlns="http://www.w3.org/2000/svg">
<circle opacity="0.3" cx="131" cy="26" r="20" fill="#C0584D"/>
<path d="M121.054 64.0184C120.702 64.3705 120.878 64.7226 121.582 65.0746C122.638 65.6027 124.223 67.187 124.927 68.9473C125.983 71.2357 126.335 73.172 126.335 76.1645C126.335 79.5091 125.983 81.6215 125.279 83.2058C124.399 84.9661 121.758 87.6065 119.998 88.4867C118.59 89.1908 118.238 89.7189 118.766 90.247C118.942 90.247 119.294 90.9511 119.646 91.4792C119.998 92.1833 121.23 94.1197 122.462 96.056C124.575 99.2245 127.391 104.329 129.856 109.082C130.384 110.314 130.912 111.195 130.912 111.195C130.912 111.195 131.44 110.314 131.968 109.082C134.257 104.329 137.249 99.2245 139.361 96.056C140.594 94.2957 141.826 92.1833 142.178 91.4792C142.53 90.7751 142.882 90.247 143.058 90.247C143.586 89.8949 143.234 89.3668 141.826 88.4867C140.77 87.9586 139.889 87.2545 138.833 86.0223C136.193 83.2058 135.665 81.4455 135.665 76.1645C135.665 73.172 136.017 71.2357 137.073 68.9473C137.777 67.363 139.185 65.6027 140.418 65.0746C140.946 64.8986 141.122 64.5465 141.122 64.3705C141.122 64.0184 140.242 64.0184 131.264 63.8424C125.807 63.8424 121.406 63.8424 121.23 64.0184H121.054ZM136.369 66.3068C136.369 66.3068 136.017 67.011 135.665 67.7151C134.257 70.1795 133.728 72.2919 133.552 75.6365C133.376 82.5016 135.489 87.2545 140.066 89.8949C140.418 90.071 140.418 90.247 139.713 91.3032C139.185 92.0073 138.481 93.2395 137.777 94.1197C136.369 96.056 133.552 100.633 132.144 103.273C131.616 104.329 131.088 105.21 131.088 105.21C131.088 105.21 130.56 104.329 130.032 103.273C128.624 100.633 125.807 95.88 124.399 94.1197C123.871 93.2395 122.991 92.0073 122.462 91.3032C121.758 90.071 121.758 90.071 122.11 89.8949C126.687 87.2545 128.8 82.5016 128.624 75.6365C128.447 72.2919 127.919 70.1795 126.511 67.7151C126.159 67.011 125.807 66.3068 125.807 66.3068C125.807 66.3068 128.271 66.1308 131.264 66.1308C134.257 66.1308 136.721 66.1308 136.721 66.3068H136.369Z" fill="#8C90A0"/>
<path d="M237.939 61.7301C238.819 62.2582 238.995 62.9623 238.467 63.6665C237.587 64.8987 235.65 64.3706 235.65 63.1384C235.65 62.6103 236.531 61.3781 237.059 61.3781C237.235 61.3781 237.587 61.5541 237.939 61.7301Z" fill="#8C90A0"/>
<path d="M222.272 61.9072C228.257 61.9072 231.249 62.0833 231.425 62.2593C231.778 62.6114 231.778 63.4915 231.425 63.8436C230.545 64.3717 189.53 63.3155 180.553 65.2518C176.68 65.9559 174.04 67.0121 171.399 68.4204C168.935 69.8286 168.583 69.8286 168.055 69.3005C167.702 68.7724 168.055 68.0683 169.815 65.7799L171.047 64.1956H164.534C158.197 64.1956 158.021 64.1956 155.204 64.8998C150.627 65.9559 147.283 67.8923 144.818 70.5327C143.234 72.293 142.706 73.7013 142.706 76.1657C142.706 77.75 142.882 78.2781 143.41 79.3343C144.818 82.1507 147.459 83.911 150.451 84.0871C152.388 84.2631 153.62 83.9111 155.38 82.6788C156.789 81.7987 157.845 80.3904 157.845 79.5103C157.845 77.75 156.26 76.6938 153.972 77.0459C152.74 77.2219 152.564 77.2219 151.86 76.6938C150.98 75.8136 150.804 75.2856 151.508 74.4054C153.092 72.4691 156.084 72.4691 158.197 74.2294C159.429 75.2856 159.957 76.5178 159.957 78.4541C159.957 81.2706 158.197 83.735 155.028 85.3193C153.62 86.0234 152.916 86.1994 151.508 86.1994C147.987 86.3755 145.347 85.3193 142.882 82.8549C141.298 81.2706 140.418 79.5103 140.066 77.2219C139.538 74.2294 140.77 70.5327 143.41 67.7162C146.579 64.1956 149.923 62.6114 155.732 61.9072C157.669 61.7312 197.276 61.3791 222.096 61.5552L222.272 61.9072Z" fill="#8C90A0"/>
<path d="M23.8853 61.7304C23.0051 62.2585 22.8291 62.9626 23.3572 63.6667C24.2373 64.8989 26.1737 64.3708 26.1737 63.1386C26.1737 62.6105 25.2935 61.3783 24.7654 61.3783C24.5894 61.3783 24.2373 61.5543 23.8853 61.7304Z" fill="#8C90A0"/>
<path d="M39.5521 61.9064C33.5671 61.9064 30.5745 62.0824 30.3985 62.2584C30.0464 62.6105 30.0464 63.4907 30.3985 63.8427C31.2787 64.3708 72.2938 63.3146 81.2713 65.251C85.144 65.9551 87.7845 67.0113 90.4249 68.4195C92.8894 69.8278 93.2414 69.8278 93.7695 69.2997C94.1216 68.7716 93.7695 68.0675 92.0092 65.7791L90.777 64.1948H97.2901C103.627 64.1948 103.803 64.1948 106.62 64.8989C111.197 65.9551 114.541 67.8914 117.006 70.5319C118.59 72.2922 119.118 73.7004 119.118 76.1649C119.118 77.7491 118.942 78.2772 118.414 79.3334C117.006 82.1499 114.365 83.9102 111.373 84.0862C109.436 84.2623 108.204 83.9102 106.444 82.678C105.035 81.7978 103.979 80.3896 103.979 79.5094C103.979 77.7491 105.564 76.6929 107.852 77.045C109.084 77.221 109.26 77.221 109.964 76.6929C110.844 75.8128 111.021 75.2847 110.316 74.4045C108.732 72.4682 105.74 72.4682 103.627 74.2285C102.395 75.2847 101.867 76.5169 101.867 78.4533C101.867 81.2697 103.627 83.7342 106.796 85.3184C108.204 86.0226 108.908 86.1986 110.316 86.1986C113.837 86.3746 116.477 85.3184 118.942 82.854C120.526 81.2697 121.406 79.5094 121.758 77.221C122.286 74.2285 121.054 70.5319 118.414 67.7154C115.245 64.1948 111.901 62.6105 106.092 61.9064C104.155 61.7304 64.5484 61.3783 39.7281 61.5543L39.5521 61.9064Z" fill="#8C90A0"/>
<path d="M261.175 51.6963C262.055 51.1682 262.231 50.4641 261.703 49.7599C260.823 48.5277 258.886 49.0558 258.886 50.288C258.886 50.8161 259.766 52.0483 260.295 52.0483C260.471 52.0483 260.823 51.8723 261.175 51.6963Z" fill="#8C90A0"/>
<path d="M245.508 51.6968C251.493 51.6968 254.485 51.5207 254.661 51.3447C255.014 50.9926 255.014 50.1125 254.661 49.7604C253.781 49.2323 212.766 50.2885 203.789 48.3522C199.916 47.6481 197.275 46.5919 194.635 45.1836C192.171 43.7754 191.819 43.7754 191.29 44.3035C190.938 44.8316 191.29 45.5357 193.051 47.8241L194.283 49.4084H187.77C181.433 49.4084 181.257 49.4084 178.44 48.7042C173.863 47.6481 170.519 45.7117 168.054 43.0713C166.47 41.311 165.942 39.9027 165.942 37.4383C165.942 35.854 166.118 35.3259 166.646 34.2697C168.054 31.4532 170.695 29.6929 173.687 29.5169C175.624 29.3409 176.856 29.6929 178.616 30.9252C180.024 31.8053 181.081 33.2135 181.081 34.0937C181.081 35.854 179.496 36.9102 177.208 36.5581C175.976 36.3821 175.8 36.3821 175.096 36.9102C174.215 37.7903 174.039 38.3184 174.744 39.1986C176.328 41.1349 179.32 41.1349 181.433 39.3746C182.665 38.3184 183.193 37.0862 183.193 35.1499C183.193 32.3334 181.433 29.869 178.264 28.2847C176.856 27.5806 176.152 27.4045 174.744 27.4045C171.223 27.2285 168.582 28.2847 166.118 30.7491C164.534 32.3334 163.654 34.0937 163.302 36.3821C162.773 39.3746 164.006 43.0713 166.646 45.8878C169.815 49.4084 173.159 50.9926 178.968 51.6968C180.905 51.8728 220.512 52.2249 245.332 52.0488L245.508 51.6968Z" fill="#8C90A0"/>
<path d="M0.825143 51.6963C-0.0550096 51.1682 -0.23104 50.4641 0.297052 49.7599C1.1772 48.5277 3.11354 49.0558 3.11354 50.288C3.11354 50.8161 2.23339 52.0483 1.7053 52.0483C1.52927 52.0483 1.1772 51.8723 0.825143 51.6963Z" fill="#8C90A0"/>
<path d="M16.4919 51.6968C10.5069 51.6968 7.51436 51.5207 7.33833 51.3447C6.98626 50.9926 6.98626 50.1125 7.33833 49.7604C8.21848 49.2323 49.2336 50.2885 58.2112 48.3522C62.0838 47.6481 64.7243 46.5919 67.3648 45.1836C69.8292 43.7754 70.1812 43.7754 70.7093 44.3035C71.0614 44.8316 70.7093 45.5357 68.949 47.8241L67.7168 49.4084H74.2299C80.567 49.4084 80.7431 49.4084 83.5596 48.7042C88.1364 47.6481 91.4809 45.7117 93.9454 43.0713C95.5296 41.311 96.0577 39.9027 96.0577 37.4383C96.0577 35.854 95.8817 35.3259 95.3536 34.2697C93.9454 31.4532 91.3049 29.6929 88.3124 29.5169C86.3761 29.3409 85.1438 29.6929 83.3835 30.9252C81.9753 31.8053 80.9191 33.2135 80.9191 34.0937C80.9191 35.854 82.5034 36.9102 84.7918 36.5581C86.024 36.3821 86.2 36.3821 86.9041 36.9102C87.7843 37.7903 87.9603 38.3184 87.2562 39.1986C85.6719 41.1349 82.6794 41.1349 80.567 39.3746C79.3348 38.3184 78.8067 37.0862 78.8067 35.1499C78.8067 32.3334 80.567 29.869 83.7356 28.2847C85.1438 27.5806 85.848 27.4045 87.2562 27.4045C90.7768 27.2285 93.4173 28.2847 95.8817 30.7491C97.466 32.3334 98.3461 34.0937 98.6982 36.3821C99.2263 39.3746 97.9941 43.0713 95.3536 45.8878C92.1851 49.4084 88.8405 50.9926 83.0315 51.6968C81.0951 51.8728 41.4883 52.2249 16.6679 52.0488L16.4919 51.6968Z" fill="#8C90A0"/>
<g clip-path="url(#clip0)">
<path d="M106 0V51H116.957V10.957H157V0H106ZM113.969 12.0527H111.479V15.041H113.969V18.0293H110.482V21.0176H113.969V24.0059H111.479V26.9941H113.969V29.9824H110.482V32.9707H113.969V35.959H111.479V38.9473H113.969V41.9355H110.482V44.9238H113.969V48.0117H108.988V5.00169L113.969 9.98215V12.0527ZM154.012 7.96875H150.924V4.48242H147.936V7.96875H144.947V5.47852H141.959V7.96875H138.971V4.48242H135.982V7.96875H132.994V5.47852H130.006V7.96875H127.018V4.48242H124.029V7.96875H121.041V5.47852H118.053V7.96875H116.181L111.201 2.98828H154.012V7.96875Z" fill="#383D50"/>
<path d="M119.945 14.9414V51H144.848V14.9414H119.945ZM141.859 48.0117H122.934V17.9297H141.859V48.0117Z" fill="#383D50"/>
<path d="M132.396 19.5234C127.453 19.5234 123.432 23.5451 123.432 28.4883C123.432 33.4315 127.453 37.4531 132.396 37.4531C137.34 37.4531 141.361 33.4315 141.361 28.4883C141.361 23.5451 137.34 19.5234 132.396 19.5234ZM132.396 34.4648C131.582 34.4648 130.806 34.3007 130.098 34.0046C130.474 33.1059 131.363 32.4727 132.396 32.4727C133.43 32.4727 134.319 33.1059 134.695 34.0046C133.987 34.3007 133.21 34.4648 132.396 34.4648ZM131.4 28.4883C131.4 27.939 131.847 27.4922 132.396 27.4922C132.946 27.4922 133.393 27.939 133.393 28.4883C133.393 29.0375 132.946 29.4844 132.396 29.4844C131.847 29.4844 131.4 29.0375 131.4 28.4883ZM137.104 32.1642C136.751 31.5737 136.291 31.0554 135.75 30.6354C136.149 30.0152 136.381 29.2786 136.381 28.4883C136.381 26.2913 134.593 24.5039 132.396 24.5039C130.2 24.5039 128.412 26.2913 128.412 28.4883C128.412 29.2786 128.644 30.0152 129.043 30.6354C128.502 31.0554 128.042 31.5737 127.689 32.1642C126.895 31.1494 126.42 29.8737 126.42 28.4883C126.42 25.1928 129.101 22.5117 132.396 22.5117C135.692 22.5117 138.373 25.1928 138.373 28.4883C138.373 29.8737 137.898 31.1494 137.104 32.1642Z" fill="#383D50"/>
<path d="M125.922 38.5488V46.5176H138.871V38.5488H125.922ZM135.883 43.5293H128.91V41.5371H135.883V43.5293Z" fill="#383D50"/>
<path d="M152.02 14.9658L147.039 19.2347V45.0234H148.035V47.0156C148.035 49.2126 149.823 51 152.02 51C154.217 51 156.004 49.2126 156.004 47.0156V45.0234H157V19.2347L152.02 14.9658ZM153.016 47.0156C153.016 47.5649 152.569 48.0117 152.02 48.0117C151.47 48.0117 151.023 47.5649 151.023 47.0156V45.0234H153.016V47.0156ZM154.012 42.0352H150.027V20.6091L152.02 18.9014L154.012 20.6091V42.0352Z" fill="#383D50"/>
</g>
<defs>
<clipPath id="clip0">
<rect x="106" width="51" height="51" fill="white"/>
</clipPath>
</defs>
</svg>
