<svg width="33" height="33" viewBox="0 0 33 33" fill="none" xmlns="http://www.w3.org/2000/svg">
<path d="M28.1673 4.8327C25.0509 1.71632 20.9073 0 16.5 0C12.0926 0 7.94913 1.71632 4.8327 4.8327C1.71632 7.9492 0 12.0927 0 16.5C0 20.9073 1.71632 25.0508 4.8327 28.1673C7.94913 31.2837 12.0926 33 16.5 33C20.9073 33 25.0509 31.2837 28.1673 28.1673C31.2837 25.0508 33 20.9073 33 16.5C33 12.0927 31.2837 7.9492 28.1673 4.8327ZM16.5 28.8578C9.68582 28.8578 4.14214 23.314 4.14214 16.5C4.14214 9.68595 9.68582 4.14221 16.5 4.14221C23.3141 4.14221 28.8577 9.68595 28.8577 16.5C28.8577 23.314 23.3141 28.8578 16.5 28.8578Z" fill="#C0584D"/>
<path d="M16.5 6.07568C10.752 6.07568 6.07574 10.752 6.07574 16.4999C6.07574 22.2478 10.752 26.9241 16.5 26.9241C22.2479 26.9241 26.9241 22.2477 26.9241 16.4999C26.9241 10.752 22.2479 6.07568 16.5 6.07568ZM17.4668 16.4999C17.4668 16.8453 17.2825 17.1645 16.9834 17.3371L13.3961 19.4081C13.2438 19.496 13.0776 19.5379 12.9136 19.5379C12.5795 19.5379 12.2544 19.3645 12.0754 19.0543C11.8084 18.5918 11.9669 18.0005 12.4293 17.7336L15.5332 15.9417V10.2866C15.5332 9.75267 15.9661 9.3198 16.5 9.3198C17.0339 9.3198 17.4668 9.75267 17.4668 10.2866V16.4999Z" fill="#C0584D"/>
</svg>
