<svg width="262" height="115" viewBox="0 0 262 115" fill="none" xmlns="http://www.w3.org/2000/svg">
<path d="M121.054 67.0184C120.702 67.3705 120.878 67.7226 121.582 68.0746C122.638 68.6027 124.223 70.187 124.927 71.9473C125.983 74.2357 126.335 76.172 126.335 79.1645C126.335 82.5091 125.983 84.6215 125.279 86.2058C124.399 87.9661 121.758 90.6065 119.998 91.4867C118.59 92.1908 118.238 92.7189 118.766 93.247C118.942 93.247 119.294 93.9511 119.646 94.4792C119.998 95.1833 121.23 97.1197 122.462 99.056C124.575 102.225 127.391 107.329 129.856 112.082C130.384 113.314 130.912 114.195 130.912 114.195C130.912 114.195 131.44 113.314 131.968 112.082C134.257 107.329 137.249 102.225 139.361 99.056C140.594 97.2957 141.826 95.1833 142.178 94.4792C142.53 93.7751 142.882 93.247 143.058 93.247C143.586 92.8949 143.234 92.3668 141.826 91.4867C140.77 90.9586 139.889 90.2545 138.833 89.0223C136.193 86.2058 135.665 84.4455 135.665 79.1645C135.665 76.172 136.017 74.2357 137.073 71.9473C137.777 70.363 139.185 68.6027 140.418 68.0746C140.946 67.8986 141.122 67.5465 141.122 67.3705C141.122 67.0184 140.242 67.0184 131.264 66.8424C125.807 66.8424 121.406 66.8424 121.23 67.0184H121.054ZM136.369 69.3068C136.369 69.3068 136.017 70.011 135.665 70.7151C134.257 73.1795 133.728 75.2919 133.552 78.6365C133.376 85.5016 135.489 90.2545 140.066 92.8949C140.418 93.071 140.418 93.247 139.713 94.3032C139.185 95.0073 138.481 96.2395 137.777 97.1197C136.369 99.056 133.552 103.633 132.144 106.273C131.616 107.329 131.088 108.21 131.088 108.21C131.088 108.21 130.56 107.329 130.032 106.273C128.624 103.633 125.807 98.88 124.399 97.1197C123.871 96.2395 122.991 95.0073 122.462 94.3032C121.758 93.071 121.758 93.071 122.11 92.8949C126.687 90.2545 128.8 85.5016 128.624 78.6365C128.447 75.2919 127.919 73.1795 126.511 70.7151C126.159 70.011 125.807 69.3068 125.807 69.3068C125.807 69.3068 128.271 69.1308 131.264 69.1308C134.257 69.1308 136.721 69.1308 136.721 69.3068H136.369Z" fill="#8C90A0"/>
<path d="M237.939 64.7301C238.819 65.2582 238.995 65.9623 238.467 66.6665C237.587 67.8987 235.65 67.3706 235.65 66.1384C235.65 65.6103 236.531 64.3781 237.059 64.3781C237.235 64.3781 237.587 64.5541 237.939 64.7301Z" fill="#8C90A0"/>
<path d="M222.272 64.9072C228.257 64.9072 231.249 65.0833 231.425 65.2593C231.777 65.6114 231.777 66.4915 231.425 66.8436C230.545 67.3717 189.53 66.3155 180.553 68.2518C176.68 68.9559 174.039 70.0121 171.399 71.4204C168.935 72.8286 168.583 72.8286 168.054 72.3005C167.702 71.7724 168.054 71.0683 169.815 68.7799L171.047 67.1956H164.534C158.197 67.1956 158.021 67.1956 155.204 67.8998C150.627 68.9559 147.283 70.8923 144.818 73.5327C143.234 75.293 142.706 76.7013 142.706 79.1657C142.706 80.75 142.882 81.2781 143.41 82.3343C144.818 85.1507 147.459 86.911 150.451 87.0871C152.388 87.2631 153.62 86.9111 155.38 85.6788C156.788 84.7987 157.845 83.3904 157.845 82.5103C157.845 80.75 156.26 79.6938 153.972 80.0459C152.74 80.2219 152.564 80.2219 151.86 79.6938C150.979 78.8136 150.803 78.2856 151.508 77.4054C153.092 75.4691 156.084 75.4691 158.197 77.2294C159.429 78.2856 159.957 79.5178 159.957 81.4541C159.957 84.2706 158.197 86.735 155.028 88.3193C153.62 89.0234 152.916 89.1994 151.508 89.1994C147.987 89.3755 145.347 88.3193 142.882 85.8549C141.298 84.2706 140.418 82.5103 140.066 80.2219C139.538 77.2294 140.77 73.5327 143.41 70.7162C146.579 67.1956 149.923 65.6114 155.732 64.9072C157.669 64.7312 197.276 64.3791 222.096 64.5552L222.272 64.9072Z" fill="#8C90A0"/>
<path d="M23.8852 64.7304C23.005 65.2585 22.829 65.9626 23.3571 66.6667C24.2373 67.8989 26.1736 67.3708 26.1736 66.1386C26.1736 65.6105 25.2934 64.3783 24.7654 64.3783C24.5893 64.3783 24.2373 64.5543 23.8852 64.7304Z" fill="#8C90A0"/>
<path d="M39.5522 64.9063C33.5671 64.9063 30.5746 65.0823 30.3986 65.2583C30.0465 65.6104 30.0465 66.4905 30.3986 66.8426C31.2787 67.3707 72.2938 66.3145 81.2714 68.2508C85.1441 68.955 87.7845 70.0111 90.425 71.4194C92.8894 72.8276 93.2415 72.8276 93.7696 72.2995C94.1216 71.7715 93.7696 71.0673 92.0093 68.7789L90.7771 67.1947H97.2902C103.627 67.1947 103.803 67.1947 106.62 67.8988C111.197 68.955 114.541 70.8913 117.006 73.5318C118.59 75.2921 119.118 76.7003 119.118 79.1647C119.118 80.749 118.942 81.2771 118.414 82.3333C117.006 85.1498 114.365 86.9101 111.373 87.0861C109.436 87.2621 108.204 86.9101 106.444 85.6779C105.036 84.7977 103.979 83.3895 103.979 82.5093C103.979 80.749 105.564 79.6928 107.852 80.0449C109.084 80.2209 109.26 80.2209 109.964 79.6928C110.845 78.8127 111.021 78.2846 110.316 77.4044C108.732 75.4681 105.74 75.4681 103.627 77.2284C102.395 78.2846 101.867 79.5168 101.867 81.4531C101.867 84.2696 103.627 86.734 106.796 88.3183C108.204 89.0224 108.908 89.1985 110.316 89.1985C113.837 89.3745 116.478 88.3183 118.942 85.8539C120.526 84.2696 121.406 82.5093 121.758 80.2209C122.287 77.2284 121.054 73.5318 118.414 70.7153C115.245 67.1947 111.901 65.6104 106.092 64.9063C104.155 64.7302 64.5485 64.3782 39.7282 64.5542L39.5522 64.9063Z" fill="#8C90A0"/>
<path d="M261.175 54.6963C262.055 54.1682 262.231 53.4641 261.703 52.7599C260.823 51.5277 258.886 52.0558 258.886 53.288C258.886 53.8161 259.766 55.0483 260.295 55.0483C260.471 55.0483 260.823 54.8723 261.175 54.6963Z" fill="#8C90A0"/>
<path d="M245.508 54.6968C251.493 54.6968 254.485 54.5207 254.661 54.3447C255.014 53.9926 255.014 53.1125 254.661 52.7604C253.781 52.2323 212.766 53.2885 203.789 51.3522C199.916 50.6481 197.275 49.5919 194.635 48.1836C192.171 46.7754 191.819 46.7754 191.29 47.3035C190.938 47.8316 191.29 48.5357 193.051 50.8241L194.283 52.4084H187.77C181.433 52.4084 181.257 52.4084 178.44 51.7042C173.863 50.6481 170.519 48.7117 168.054 46.0713C166.47 44.311 165.942 42.9027 165.942 40.4383C165.942 38.854 166.118 38.3259 166.646 37.2697C168.054 34.4532 170.695 32.6929 173.687 32.5169C175.624 32.3409 176.856 32.6929 178.616 33.9252C180.024 34.8053 181.081 36.2135 181.081 37.0937C181.081 38.854 179.496 39.9102 177.208 39.5581C175.976 39.3821 175.8 39.3821 175.096 39.9102C174.215 40.7903 174.039 41.3184 174.744 42.1986C176.328 44.1349 179.32 44.1349 181.433 42.3746C182.665 41.3184 183.193 40.0862 183.193 38.1499C183.193 35.3334 181.433 32.869 178.264 31.2847C176.856 30.5806 176.152 30.4045 174.744 30.4045C171.223 30.2285 168.582 31.2847 166.118 33.7491C164.534 35.3334 163.654 37.0937 163.302 39.3821C162.773 42.3746 164.006 46.0713 166.646 48.8878C169.815 52.4084 173.159 53.9926 178.968 54.6968C180.905 54.8728 220.512 55.2249 245.332 55.0488L245.508 54.6968Z" fill="#8C90A0"/>
<path d="M0.825143 54.6963C-0.0550096 54.1682 -0.23104 53.4641 0.297052 52.7599C1.1772 51.5277 3.11354 52.0558 3.11354 53.288C3.11354 53.8161 2.23339 55.0483 1.7053 55.0483C1.52927 55.0483 1.1772 54.8723 0.825143 54.6963Z" fill="#8C90A0"/>
<path d="M16.492 54.6968C10.5069 54.6968 7.51442 54.5207 7.33839 54.3447C6.98633 53.9926 6.98633 53.1125 7.33839 52.7604C8.21854 52.2323 49.2337 53.2885 58.2112 51.3522C62.0839 50.6481 64.7244 49.5919 67.3648 48.1836C69.8292 46.7754 70.1813 46.7754 70.7094 47.3035C71.0615 47.8316 70.7094 48.5357 68.9491 50.8241L67.7169 52.4084H74.23C80.5671 52.4084 80.7431 52.4084 83.5596 51.7042C88.1364 50.6481 91.481 48.7117 93.9454 46.0713C95.5297 44.311 96.0578 42.9027 96.0578 40.4383C96.0578 38.854 95.8818 38.3259 95.3537 37.2697C93.9454 34.4532 91.305 32.6929 88.3125 32.5169C86.3761 32.3409 85.1439 32.6929 83.3836 33.9252C81.9753 34.8053 80.9192 36.2135 80.9192 37.0937C80.9192 38.854 82.5034 39.9102 84.7918 39.5581C86.0241 39.3821 86.2001 39.3821 86.9042 39.9102C87.7844 40.7903 87.9604 41.3184 87.2563 42.1986C85.672 44.1349 82.6795 44.1349 80.5671 42.3746C79.3349 41.3184 78.8068 40.0862 78.8068 38.1499C78.8068 35.3334 80.5671 32.869 83.7357 31.2847C85.1439 30.5806 85.848 30.4045 87.2563 30.4045C90.7769 30.2285 93.4173 31.2847 95.8818 33.7491C97.466 35.3334 98.3462 37.0937 98.6983 39.3821C99.2263 42.3746 97.9941 46.0713 95.3537 48.8878C92.1851 52.4084 88.8405 53.9926 83.0315 54.6968C81.0952 54.8728 41.4883 55.2249 16.668 55.0488L16.492 54.6968Z" fill="#8C90A0"/>
<circle opacity="0.3" cx="130" cy="29" r="20" fill="#C0584D"/>
<path fill-rule="evenodd" clip-rule="evenodd" d="M155.684 25.1345L131.953 1.40286C131.017 0.467619 129.79 0 128.562 0C127.335 0 126.107 0.467619 125.172 1.40286L112.137 14.4377C110.267 16.3082 110.267 19.4062 112.137 21.2767L114.3 23.4978H119.269L114.651 18.8217C114.3 18.4709 114.3 18.0618 114.3 17.8864C114.3 17.7111 114.359 17.3019 114.651 16.9512L116.346 15.3145L124.529 23.5563H132.362L120.262 11.3982L127.627 3.97476C127.978 3.62405 128.329 3.56559 128.504 3.56559C128.679 3.56559 129.089 3.62405 129.381 3.91631L153.112 27.648C153.463 27.9987 153.463 28.3494 153.463 28.5247C153.463 28.7001 153.405 29.1093 153.054 29.4015L151.71 30.6875V35.6559L155.567 31.8565C157.438 29.9861 157.496 26.9465 155.626 25.0761L155.684 25.1345Z" fill="#383D50"/>
<path fill-rule="evenodd" clip-rule="evenodd" d="M144.52 25.6608H110.91C108.28 25.6608 106 27.7651 106 30.4539V43.138H149.255V30.4539C149.255 27.8235 147.15 25.6608 144.52 25.6608ZM117.749 38.8125C116.814 38.8125 115.937 38.4618 115.352 37.8189C114.709 38.4034 113.891 38.8125 112.956 38.8125C111.027 38.8125 109.449 37.2343 109.449 35.3054C109.449 33.3765 111.027 31.7983 112.956 31.7983C113.891 31.7983 114.768 32.149 115.352 32.792C115.995 32.2074 116.814 31.7983 117.749 31.7983C119.678 31.7983 121.256 33.3765 121.256 35.3054C121.256 37.2343 119.678 38.8125 117.749 38.8125Z" fill="#383D50"/>
<path fill-rule="evenodd" clip-rule="evenodd" d="M106.058 48.8662C106.058 51.4966 108.338 53.6593 110.968 53.6593H144.579C147.209 53.6593 149.313 51.4966 149.313 48.8662V48.574H106.058V48.8662Z" fill="#383D50"/>
</svg>
