<svg width="100" height="100" viewBox="0 0 100 100" fill="none" xmlns="http://www.w3.org/2000/svg">
<path d="M62.5 23.1001C62.499 22.1143 61.7002 21.3153 60.7143 21.3143H39.2857C38.3 21.3153 37.501 22.1141 37.5 23.1001V76.0464L62.5 51.0464V23.1001Z" fill="url(#paint0_angular)"/>
<path d="M91.0715 1.78574C91.0705 0.8 90.2717 0.000976562 89.2857 0H67.8572C66.8715 0.000976562 66.0724 0.799805 66.0715 1.78574V76.0463L91.0715 51.0463V1.78574Z" fill="url(#paint1_angular)"/>
<path d="M62.5 56.0966L37.5 81.0966V87.5001H62.5V56.0966Z" fill="url(#paint2_angular)"/>
<path d="M91.0715 56.0966L66.0715 81.0966V87.5001H91.0715V56.0966Z" fill="url(#paint3_angular)"/>
<path d="M98.2143 91.0715H1.78574C0.8 91.0724 0.000976562 91.8715 0 92.8572V98.2144C0.000976562 99.2002 0.799805 99.9992 1.78574 100H98.2143C99.2 99.9992 99.999 99.2004 100 98.2144V92.8572C99.999 91.8713 99.2002 91.0724 98.2143 91.0715Z" fill="url(#paint4_angular)"/>
<path d="M33.9285 40.4105C33.9276 39.4248 33.1285 38.6257 32.1428 38.6248H10.7143C9.72853 38.6257 8.9295 39.4246 8.92853 40.4105V76.0462L33.9285 51.0462V40.4105Z" fill="url(#paint5_angular)"/>
<path d="M33.9285 56.0966L8.92853 81.0966V87.5001H33.9285V56.0966Z" fill="url(#paint6_angular)"/>
<defs>
<radialGradient id="paint0_angular" cx="0" cy="0" r="1" gradientUnits="userSpaceOnUse" gradientTransform="translate(50 48.6803) rotate(90) scale(27.366 12.5)">
<stop stop-color="white"/>
<stop offset="1" stop-color="#F4F5F7"/>
</radialGradient>
<radialGradient id="paint1_angular" cx="0" cy="0" r="1" gradientUnits="userSpaceOnUse" gradientTransform="translate(78.5715 38.0231) rotate(90) scale(38.0231 12.5)">
<stop stop-color="white"/>
<stop offset="1" stop-color="#F4F5F7"/>
</radialGradient>
<radialGradient id="paint2_angular" cx="0" cy="0" r="1" gradientUnits="userSpaceOnUse" gradientTransform="translate(50 71.7983) rotate(90) scale(15.7018 12.5)">
<stop stop-color="white"/>
<stop offset="1" stop-color="#F4F5F7"/>
</radialGradient>
<radialGradient id="paint3_angular" cx="0" cy="0" r="1" gradientUnits="userSpaceOnUse" gradientTransform="translate(78.5715 71.7983) rotate(90) scale(15.7018 12.5)">
<stop stop-color="white"/>
<stop offset="1" stop-color="#F4F5F7"/>
</radialGradient>
<radialGradient id="paint4_angular" cx="0" cy="0" r="1" gradientUnits="userSpaceOnUse" gradientTransform="translate(50 95.5358) rotate(90) scale(4.46435 50)">
<stop stop-color="white"/>
<stop offset="1" stop-color="#F4F5F7"/>
</radialGradient>
<radialGradient id="paint5_angular" cx="0" cy="0" r="1" gradientUnits="userSpaceOnUse" gradientTransform="translate(21.4285 57.3355) rotate(90) scale(18.7107 12.5)">
<stop stop-color="white"/>
<stop offset="1" stop-color="#F4F5F7"/>
</radialGradient>
<radialGradient id="paint6_angular" cx="0" cy="0" r="1" gradientUnits="userSpaceOnUse" gradientTransform="translate(21.4285 71.7983) rotate(90) scale(15.7018 12.5)">
<stop stop-color="white"/>
<stop offset="1" stop-color="#F4F5F7"/>
</radialGradient>
</defs>
</svg>
