<svg width="87" height="109" fill="none" xmlns="http://www.w3.org/2000/svg"><path d="M86.25 35.707L60 9.397H9.375V109H86.25V35.707z" fill="#fff"/><path d="M9.375 9.397H60L76.875 26.31V0H0v99.603h9.375V9.397z" fill="#FF1037"/><path d="M24.375 48.862H71.25c1.035 0 1.875-.84 1.875-1.88 0-1.038-.84-1.879-1.875-1.879H24.375c-1.035 0-1.875.84-1.875 1.88s.84 1.88 1.875 1.88zM24.375 33.828h18.75c1.035 0 1.876-.84 1.876-1.88 0-1.039-.84-1.879-1.875-1.879h-18.75c-1.036 0-1.876.84-1.876 1.88 0 1.039.84 1.879 1.875 1.879zM71.25 60.138H24.375c-1.035 0-1.875.84-1.875 1.88 0 1.038.84 1.879 1.875 1.879H71.25c1.035 0 1.875-.84 1.875-1.88 0-1.039-.84-1.88-1.875-1.88z" fill="#00AFEC"/><path d="M71.25 75.172H24.375c-1.035 0-1.875.84-1.875 1.88 0 1.039.84 1.88 1.875 1.88H71.25c1.035 0 1.875-.841 1.875-1.88 0-1.04-.84-1.88-1.875-1.88z" fill="#FF1037"/><path d="M71.25 90.207H24.375c-1.035 0-1.875.84-1.875 1.88 0 1.038.84 1.879 1.875 1.879H71.25c1.035 0 1.875-.84 1.875-1.88 0-1.039-.84-1.88-1.875-1.88z" fill="#CCDBDE"/><path d="M60 9.397v26.31h26.25L60 9.397z" fill="#00AFEC"/></svg>