<svg width="88" height="104" fill="none" xmlns="http://www.w3.org/2000/svg"><path fill="#FF1037" d="M4 66h80v38H4z"/><path d="M0 38h88v42l-44 5-44-5V38z" fill="#00AFEC"/><path fill="#fff" d="M41 80h6v10h-6z"/><path d="M32 38v-8h24v8" stroke="#00AFEC" stroke-width="4"/><circle cx="63" cy="22" r="22" fill="#fff"/><path d="M63 7v16h7" stroke="#FF1037" stroke-width="3" stroke-linecap="round"/><path d="M58.584 37h-5.027v-1.172l2.308-2.935a6.33 6.33 0 00.645-1.067c.14-.308.21-.603.21-.885 0-.378-.066-.675-.198-.89a.618.618 0 00-.563-.322c-.27 0-.484.125-.645.375-.156.25-.234.601-.234 1.054h-1.664c0-.523.107-1.002.322-1.435.219-.434.524-.77.914-1.008.395-.242.84-.363 1.336-.363.762 0 1.352.21 1.77.632.422.418.633 1.014.633 1.787 0 .481-.118.97-.352 1.465-.23.492-.65 1.1-1.26 1.823l-1.095 1.564h2.9V37zm5.414-3.223h.727v1.377h-.727V37H62.34v-1.846h-2.824l-.076-1.072 2.894-5.613h1.664v5.308zm-2.947 0h1.289v-2.853l-.035.064-1.254 2.79zm5.297 3.955h-1.213l2.56-9.263h1.213l-2.56 9.263zm8.326-8.308L71.978 37h-1.751l2.707-7.154h-3.422v-1.377h5.162v.955z" fill="#00AFEC"/></svg>