<svg width="88" height="110" fill="none" xmlns="http://www.w3.org/2000/svg"><path d="M76.875 26.31L50.625 0H0v99.603h76.875V26.31z" fill="#00AFEC"/><path d="M87.25 36.707L61 10.397H10.375V110H87.25V36.707z" fill="#fff"/><path d="M72.25 61.138H25.375c-1.035 0-1.875.84-1.875 1.88 0 1.038.84 1.879 1.875 1.879H72.25c1.035 0 1.875-.84 1.875-1.88 0-1.039-.84-1.88-1.875-1.88z" fill="#00AFEC"/><path d="M61 10.396v26.31h26.25L61 10.397z" fill="#FF1037"/><rect x="23" y="76" width="26" height="4" rx="2" fill="#00AFEC"/><rect x="23" y="91" width="19" height="4" rx="2" fill="#00AFEC"/><path d="M48.575 33.11c-1.98 0-3.85.77-5.19 2.11L39.5 38.657l-.007-.006-2.083 1.835.014.014-3.706 3.286a4.645 4.645 0 01-3.293 1.355c-2.571 0-4.661-2.084-4.661-4.641s2.09-4.64 4.661-4.64c1.244 0 2.413.48 3.355 1.416l1.56 1.381 2.077-1.835-1.74-1.54a7.395 7.395 0 00-5.252-2.166C26.327 33.11 23 36.423 23 40.5s3.328 7.39 7.425 7.39c1.98 0 3.843-.77 5.19-2.103l3.885-3.444.007.006 2.076-1.842-.007-.007 3.706-3.28a4.623 4.623 0 013.293-1.36c2.571 0 4.661 2.083 4.661 4.64 0 2.557-2.09 4.64-4.661 4.64-1.244 0-2.413-.48-3.355-1.409l-1.56-1.382-2.077 1.843 1.74 1.54a7.385 7.385 0 005.245 2.159C52.673 47.89 56 44.577 56 40.5s-3.328-7.39-7.425-7.39z" fill="#FF1037"/><path d="M47.5 98l6.158-9.621c.538-.842 1.842-.46 1.842.539v2.879c0 .928 1.155 1.355 1.76.65l2.48-2.895c.605-.704 1.76-.277 1.76.651v2.56c0 1.056 1.422 1.392 1.894.448l4.493-8.984a.999.999 0 01.32-.372L78 77" stroke="#FF1037" stroke-width="2"/></svg>