<svg width="60" height="60" viewBox="0 0 60 60" fill="none" xmlns="http://www.w3.org/2000/svg">
<path d="M38 14.9361L38 14.9351C37.9989 13.8316 37.1047 12.9371 36.001 12.936H36L24 12.936L23.999 12.936C22.8956 12.9371 22.0011 13.8314 22 14.9351V14.9361V44.586V47.0002L23.7071 45.2931L37.7071 31.2931L38 31.0002V30.586L38 14.9361Z" stroke="#CBD0DB" stroke-width="2"/>
<path d="M54 3.00002L54 2.99903C53.9989 1.89557 53.1047 1.00109 52.001 1H52L40 1L39.999 1C38.8956 1.00109 38.0011 1.89532 38 2.99903V3.00002V44.5859V47.0001L39.7071 45.293L53.7071 31.293L54 31.0001V30.5859L54 3.00002Z" stroke="#CBD0DB" stroke-width="2"/>
<path d="M38 33.4141V30.9998L36.2929 32.707L22.2929 46.707L22 46.9998V47.4141V51V52H23H37H38V51V33.4141Z" stroke="#CBD0DB" stroke-width="2"/>
<path d="M54 33.4141V30.9998L52.2929 32.707L38.2929 46.707L38 46.9998V47.4141V51V52H39H53H54V51V33.4141Z" stroke="#CBD0DB" stroke-width="2"/>
<path d="M57.001 52H57L3.00002 52L2.99902 52C1.8955 52.0011 1.00109 52.8955 1 53.999V54L1 57.0001L1 57.0011C1.00109 58.1045 1.89532 58.999 2.99903 59.0001H3.00002L57 59.0001L57.001 59.0001C58.1044 58.999 58.9989 58.1048 59 57.0011V57.0001V54V53.999C58.9989 52.8954 58.1046 52.0011 57.001 52Z" stroke="#CBD0DB" stroke-width="2"/>
<path d="M22 24.6299L22 24.6289C21.9989 23.5254 21.1045 22.631 20.001 22.6299H20L8.00002 22.6299L7.99902 22.6299C6.89557 22.631 6.00109 23.5252 6 24.6289V24.6299V44.5859V47.0001L7.70711 45.293L21.7071 31.293L22 31.0001V30.5859L22 24.6299Z" stroke="#CBD0DB" stroke-width="2"/>
<path d="M22 33.4141V30.9998L20.2929 32.707L6.29289 46.707L6 46.9998V47.4141V51V52H7H21H22V51V33.4141Z" stroke="#CBD0DB" stroke-width="2"/>
</svg>
