<svg width="100" height="100" viewBox="0 0 100 100" fill="none" xmlns="http://www.w3.org/2000/svg">
<path d="M98.72 97.1517L88.77 86.745C91.68 83.5467 93.47 79.315 93.47 74.66C93.4717 64.7384 85.4 56.6667 75.4783 56.6667C65.5566 56.6667 57.485 64.7384 57.485 74.66C57.485 84.5817 65.5566 92.6534 75.4783 92.6534C79.5483 92.6534 83.2933 91.28 86.31 88.9934L96.3116 99.4534C96.6383 99.7967 97.0766 99.9684 97.5167 99.9684C97.9316 99.9684 98.345 99.815 98.6683 99.5067C99.3317 98.8717 99.3567 97.815 98.72 97.1517ZM60.8183 74.66C60.8183 66.5767 67.395 60 75.4783 60C83.5616 60 90.1383 66.5767 90.1383 74.66C90.1383 82.7434 83.5616 89.32 75.4783 89.32C67.395 89.32 60.8183 82.7434 60.8183 74.66Z" fill="url(#paint0_angular)"/>
<path d="M53.1366 80H19.1516C18.2316 80 17.485 79.255 17.485 78.3333C17.485 77.4117 18.2316 76.6667 19.1516 76.6667H52.5866C52.5283 76.0033 52.485 75.3367 52.485 74.66C52.485 71.8467 53.0183 69.1617 53.9466 66.6667H19.1516C18.2316 66.6667 17.485 65.9217 17.485 65C17.485 64.0783 18.2316 63.3333 19.1516 63.3333H55.4933C59.4516 56.3767 66.9183 51.6667 75.4783 51.6667C76.7316 51.6667 77.9533 51.795 79.1516 51.9883V24.31L54.8416 0H0.818298V100H79.1516V97.3317C77.9533 97.525 76.7316 97.6533 75.4783 97.6533C64.64 97.6533 55.5533 90.1067 53.1366 80ZM55.8183 6.66667L72.485 23.3333H55.8183V6.66667ZM19.1516 23.3333H35.8183C36.7383 23.3333 37.485 24.0783 37.485 25C37.485 25.9217 36.7383 26.6667 35.8183 26.6667H19.1516C18.2316 26.6667 17.485 25.9217 17.485 25C17.485 24.0783 18.2316 23.3333 19.1516 23.3333ZM19.1516 36.6667H60.8183C61.7383 36.6667 62.485 37.4117 62.485 38.3333C62.485 39.255 61.7383 40 60.8183 40H19.1516C18.2316 40 17.485 39.255 17.485 38.3333C17.485 37.4117 18.2316 36.6667 19.1516 36.6667ZM19.1516 50H60.8183C61.7383 50 62.485 50.745 62.485 51.6667C62.485 52.5883 61.7383 53.3333 60.8183 53.3333H19.1516C18.2316 53.3333 17.485 52.5883 17.485 51.6667C17.485 50.745 18.2316 50 19.1516 50Z" fill="url(#paint1_angular)"/>
<defs>
<radialGradient id="paint0_angular" cx="0" cy="0" r="1" gradientUnits="userSpaceOnUse" gradientTransform="translate(78.3335 78.3175) rotate(90) scale(21.6508 20.8485)">
<stop stop-color="white"/>
<stop offset="1" stop-color="#F4F5F7"/>
</radialGradient>
<radialGradient id="paint1_angular" cx="0" cy="0" r="1" gradientUnits="userSpaceOnUse" gradientTransform="translate(39.985 50) rotate(90) scale(50 39.1667)">
<stop stop-color="white"/>
<stop offset="1" stop-color="#F4F5F7"/>
</radialGradient>
</defs>
</svg>
