<svg width="53" height="63" viewBox="0 0 53 63" fill="none" xmlns="http://www.w3.org/2000/svg">
<path d="M46.1584 8.48975H14C11.2386 8.48975 9 10.7283 9 13.4897V56.3333C9 59.0947 11.2386 61.3333 14 61.3333H45.8886H46.1584C48.9198 61.3333 51.1584 59.0947 51.1584 56.3333V13.4897C51.1584 10.7283 48.9198 8.48975 46.1584 8.48975Z" stroke="#929FAB" stroke-width="2"/>
<path d="M43.1584 8.49V6.4707C43.1584 3.70928 40.9198 1.4707 38.1584 1.4707H6C3.23858 1.4707 1 3.70928 1 6.4707V49.314C1 52.0754 3.23858 54.314 6 54.314H9" stroke="#929FAB" stroke-width="2"/>
<path d="M17.4316 12.5938H35.3489" stroke="#929FAB" stroke-width="2" stroke-linecap="round" stroke-linejoin="round"/>
<path d="M17.4316 21.0254H41.6727" stroke="#929FAB" stroke-width="2" stroke-linecap="round" stroke-linejoin="round"/>
<path d="M17.4316 29.457H32.1871" stroke="#FF1037" stroke-width="2" stroke-linecap="round" stroke-linejoin="round"/>
<path d="M17.4316 44.2124H24.8094" stroke="#929FAB" stroke-width="2" stroke-linecap="round" stroke-linejoin="round"/>
</svg>
