<svg fill="#ffffff" xmlns="http://www.w3.org/2000/svg" viewBox="0 0 480 480"><path d="M464 292v-80c0-13.255-10.745-24-24-24H120v-34.664l-24-32V108c8.837 0 16-7.163 16-16V76c0-8.837-7.163-16-16-16H24c-8.837 0-16 7.163-16 16v16c0 8.837 7.163 16 16 16v26.664l24 32V188h-8c-13.255 0-24 10.745-24 24v80H0v16h16v88c0 13.255 10.745 24 24 24h400c13.255 0 24-10.745 24-24v-88h16v-16h-16zM24 76h72v16H24V76zm16 53.336V108h40v18.664l24 32V188H64v-26.664l-24-32zM448 396a8 8 0 01-8 8H40a8 8 0 01-8-8V212a8 8 0 018-8h400a8 8 0 018 8v184z"/><path d="M408.448 252.408c-7.802 7.862-20.501 7.911-28.363.109l-.109-.109c-13.694-12.564-34.722-12.564-48.416 0-7.776 7.845-20.439 7.9-28.284.124l-.124-.124c-13.677-12.574-34.707-12.574-48.384 0-7.781 7.84-20.444 7.889-28.284.108l-.108-.108c-13.68-12.576-34.712-12.576-48.392 0-7.778 7.842-20.442 7.894-28.284.116l-.116-.116c-13.679-12.571-34.706-12.571-48.384 0-7.75 7.834-20.382 7.902-28.216.152l-.152-.152a34.954 34.954 0 00-24.176-9.432v16a19.53 19.53 0 0114.176 5.92 34.985 34.985 0 0024.192 9.448 34.969 34.969 0 0024.176-9.432c7.783-7.838 20.446-7.883 28.284-.1l.1.1c13.682 12.577 34.718 12.577 48.4 0 7.781-7.84 20.444-7.889 28.284-.108l.108.108c13.68 12.576 34.712 12.576 48.392 0 7.783-7.838 20.446-7.883 28.284-.1l.1.1c13.681 12.572 34.711 12.572 48.392 0 7.765-7.856 20.428-7.929 28.284-.164l.164.164c13.702 12.567 34.739 12.567 48.44 0a19.6 19.6 0 0114.224-5.928v-16a35.054 35.054 0 00-24.208 9.424z"/></svg>