<svg fill="#ffffff" xmlns="http://www.w3.org/2000/svg" viewBox="0 0 504.742 504.742" width="512" height="512"><path d="M483.228 463.309c33.457-22.607 17.346-74.922-22.867-74.922h-35.683c-8.425 0-15.245 6.829-15.245 15.245v85.706c0 20.212 30.489 20.115 30.489 0v-19.036h8.641l26.152 29.208c13.308 14.861 36.351-5.109 22.714-20.338l-14.201-15.863zm-43.305-44.433h20.438c13.832 0 13.838 20.936 0 20.936h-20.438v-20.936zM68.005 453.87c42.051-7.707 36.424-70.293-6.347-70.293H18.57c-20.144 0-20.165 30.489 0 30.489h43.088c5.858 0 6.619 8.757.852 9.815-68.725 12.592-69.451 73.077-43.94 73.077h63.163c20.144 0 20.165-30.489 0-30.489H38.739c7.256-10.027 16.228-10.21 29.266-12.599zM27.138 30.492h7.775v68.113c0 20.209 30.489 20.119 30.489 0V15.248c0-8.425-6.83-15.245-15.245-15.245h-23.02c-20.218 0-20.103 30.489.001 30.489zM263.622 82.892h-42.441c-20.144 0-20.165 30.489 0 30.489h42.441c29.122 0 46.144-32.988 29.371-56.69C309.737 33.029 292.786 0 263.622 0h-42.441c-20.144 0-20.165 30.489 0 30.489h42.441c7.239 0 7.243 10.957 0 10.957h-25.854c-20.144 0-20.165 30.489 0 30.489h25.854c7.24.001 7.243 10.957 0 10.957zM289.508 431.22h-8.817v-29.583c0-20.144-30.489-20.165-30.489 0v29.583h-19.82v-29.583c0-20.144-30.489-20.165-30.489 0v44.828c0 8.419 6.825 15.245 15.245 15.245h35.065v22.818c0 20.144 30.489 20.165 30.489 0V461.71h8.817c20.143-.001 20.164-30.49-.001-30.49zM462.309 82.892h-34.71c-20.144 0-20.165 30.489 0 30.489h34.71c47.682 0 47.7-71.935 0-71.935h-17.564l1.291-10.957h37.114c20.144 0 20.165-30.489 0-30.489h-50.668a15.242 15.242 0 00-15.139 13.46l-4.884 41.446c-1.068 9.054 6.014 17.029 15.139 17.029h34.71c7.399.001 7.397 10.957.001 10.957zM439.688 352.639c0 20.144 30.489 20.165 30.489 0V151.945c0-20.144-30.489-20.165-30.489 0v85.102H310.841c-5.498-21.119-22.156-37.776-43.275-43.275V151.94c0-20.138-30.489-20.172-30.489 0v41.832c-21.119 5.498-37.776 22.155-43.275 43.275H64.955v-85.102c0-20.144-30.489-20.165-30.489 0v200.694c0 20.144 30.489 20.165 30.489 0v-85.102h128.847c5.498 21.119 22.156 37.776 43.275 43.275v41.832c0 20.138 30.489 20.172 30.489 0v-41.832c21.119-5.498 37.776-22.156 43.275-43.275h128.847v85.102zM282.303 252.292c0 16.528-13.449 29.981-29.981 29.981-16.528 0-29.981-13.449-29.981-29.981 0-16.519 13.44-29.981 29.981-29.981 16.519 0 29.981 13.44 29.981 29.981z"/></svg>