<svg fill="#ffffff" xmlns="http://www.w3.org/2000/svg" data-name="Layer 1" viewBox="0 0 128 128" width="512" height="512"><path d="M111.079 64A47 47 0 0094.1 27.836a1.74 1.74 0 00-.362-.314c-.017-.011-.036-.016-.053-.026a46.963 46.963 0 00-59.378 0c-.017.01-.036.015-.053.026a1.74 1.74 0 00-.362.314 47.01 47.01 0 000 72.328 1.74 1.74 0 00.362.314c.015.009.031.012.046.02a46.962 46.962 0 0059.392 0c.015-.008.031-.011.046-.02a1.74 1.74 0 00.362-.314A47 47 0 00111.079 64zM90.48 29.422l-4.025 6.4a35.945 35.945 0 00-44.91 0l-4.025-6.4a43.451 43.451 0 0152.96 0zM72.244 95.5a25.514 25.514 0 0124.274-30.056A32.617 32.617 0 0172.244 95.5zm-3.909-4.533a29.087 29.087 0 00.478 5.235 32.532 32.532 0 01-9.626 0 29.02 29.02 0 00-27.67-34.252 32.343 32.343 0 015.749-16.49 47.092 47.092 0 0053.468 0 32.343 32.343 0 015.749 16.49 29.069 29.069 0 00-28.148 29.012zM31.482 65.444A25.514 25.514 0 0155.756 95.5a32.617 32.617 0 01-24.274-30.056zM64 50.279a43.186 43.186 0 01-24.58-7.589 32.487 32.487 0 0149.16 0A43.186 43.186 0 0164 50.279zM20.421 64A43.476 43.476 0 0134.8 31.677l4.081 6.49a36.257 36.257 0 00-3.292 3.669c-.041.045-.086.085-.123.134-.023.031-.037.065-.058.1a35.961 35.961 0 003.473 47.767L34.8 96.323A43.476 43.476 0 0120.421 64zm17.1 34.578l4.025-6.4a35.919 35.919 0 0015.1 7.121l.023.008a.236.236 0 01.028 0 36.2 36.2 0 0014.6 0 .236.236 0 01.028 0l.023-.008a35.919 35.919 0 0015.1-7.121l4.025 6.4a43.451 43.451 0 01-52.96 0zM93.2 96.323l-4.081-6.49a35.961 35.961 0 003.473-47.767c-.021-.031-.035-.065-.058-.1-.037-.049-.082-.089-.123-.134a36.257 36.257 0 00-3.292-3.669l4.081-6.49a43.511 43.511 0 010 64.646z"/><path d="M64 56.494a9.25 9.25 0 109.25 9.25 9.26 9.26 0 00-9.25-9.25zm0 15a5.75 5.75 0 115.75-5.75 5.757 5.757 0 01-5.75 5.75z"/></svg>