<svg  fill="#ffffff" xmlns="http://www.w3.org/2000/svg" viewBox="0 0 503.828 503.828"><path d="M184.766 193.049c18.543 0 33.574-15.03 33.574-33.574s-15.03-33.574-33.574-33.574c-18.544 0-33.574 15.03-33.574 33.574s15.031 33.574 33.574 33.574zm0-50.36c9.272 0 16.787 7.515 16.787 16.787s-7.515 16.787-16.787 16.787c-9.272 0-16.787-7.515-16.787-16.787s7.515-16.787 16.787-16.787z"/><path d="M478.536 268.812a8.393 8.393 0 00-8.393 8.393c0 17.037-3.577 27.345-11.02 37.735-.997 1.392-6.163 8.12-7.522 10.089-2.567 3.719-4.37 7.237-5.449 10.93h-1.944c-.499-8.43.249-15.259 2.081-24.09-.032.156.862-4.094 1.099-5.279.414-2.068.717-3.792.949-5.489 1.261-9.208.224-17.315-4.065-27.23a8.394 8.394 0 00-15.407 6.665c3.051 7.053 3.693 12.067 2.841 18.286a73.7 73.7 0 01-.778 4.473c-.218 1.088-1.092 5.243-1.075 5.162-2.048 9.869-2.943 17.905-2.459 27.501h-3.315c-3.172-4.874-4.347-9.433-4.47-15.374-.039-1.917.003-3.469.166-7.291.734-17.223-.901-26.818-9.705-40.606a8.393 8.393 0 00-11.591-2.557 8.393 8.393 0 00-2.557 11.591c6.584 10.311 7.682 16.759 7.082 30.858-.178 4.181-.227 5.959-.177 8.351.201 9.757 2.586 17.874 8.563 26.198v55.978c0 27.755-22.606 50.361-50.361 50.361H260.307c-27.733 0-50.361-22.685-50.361-50.478V318.95c9.277 0 16.787-7.51 16.787-16.787V268.59h109.115c9.277 0 16.787-7.51 16.787-16.787V67.148c0-9.277-7.51-16.787-16.787-16.787h-8.393V16.762c0-9.26-7.501-16.762-16.762-16.762H58.839c-9.26 0-16.762 7.501-16.762 16.762v33.599h-8.393c-9.277 0-16.787 7.51-16.787 16.787v184.656c0 9.277 7.51 16.787 16.787 16.787h109.115v33.574c0 9.277 7.51 16.787 16.787 16.787v84.039c0 55.566 45.196 100.839 100.721 100.839h100.721c55.542 0 100.721-45.18 100.721-100.721v-58.754c0-3.291 1.029-5.965 3.667-9.788 1.06-1.535 6.103-8.105 7.352-9.848 9.412-13.138 14.16-26.822 14.16-47.511a8.391 8.391 0 00-8.392-8.396zM58.864 16.787h251.803v33.574H58.864V16.787zm-25.18 50.361H335.848v184.656H33.684V67.148zM209.946 268.59v33.574h-50.361V268.59h50.361zm235.017 134.517c0 46.271-37.664 83.934-83.934 83.934H260.307c-46.248 0-83.934-37.75-83.934-84.052v-83.817h16.787v83.817c0 37.054 30.133 67.265 67.148 67.265h100.721c37.026 0 67.148-30.122 67.148-67.148v-50.361h16.787v50.362z"/><path d="M402.996 243.631a8.393 8.393 0 008.393-8.393c0-17.037 3.577-27.345 11.02-37.735.997-1.392 6.163-8.12 7.522-10.089 2.567-3.72 4.371-7.237 5.45-10.931h1.943c.499 8.43-.249 15.26-2.081 24.09.032-.156-.862 4.094-1.099 5.279a89.46 89.46 0 00-.949 5.489c-1.261 9.208-.224 17.315 4.065 27.23a8.393 8.393 0 0015.407-6.665c-3.051-7.053-3.693-12.067-2.841-18.286.179-1.31.426-2.715.778-4.473.218-1.088 1.092-5.243 1.075-5.162 2.048-9.869 2.944-17.905 2.459-27.501h3.315c3.173 4.875 4.348 9.433 4.47 15.374.039 1.917-.003 3.469-.166 7.291-.734 17.223.901 26.818 9.705 40.606a8.393 8.393 0 0011.591 2.557 8.393 8.393 0 002.557-11.591c-6.584-10.311-7.682-16.759-7.082-30.858.178-4.181.227-5.959.177-8.351-.201-9.757-2.586-17.874-8.563-26.198V8.614a8.393 8.393 0 00-8.393-8.393h-33.574a8.393 8.393 0 00-8.393 8.393V168.09c0 3.291-1.029 5.965-3.667 9.788-1.06 1.535-6.103 8.105-7.352 9.848-9.412 13.138-14.16 26.822-14.16 47.511a8.392 8.392 0 008.393 8.394zm33.573-226.623h16.787v142.689h-16.787V17.008z"/></svg>