<svg  fill="#ffffff" height="512" viewBox="0 0 64 64" width="512" xmlns="http://www.w3.org/2000/svg"><path d="M32 1C14.906 1 1 14.906 1 32s13.906 31 31 31 31-13.906 31-31S49.094 1 32 1zm27.753 22.593l-10.841 6.671c-.395-3.879-2.109-7.368-4.673-10.033l3.373-12.65c5.749 3.688 10.117 9.343 12.141 16.012zM32 47c-8.271 0-15-6.729-15-15s6.729-15 15-15 15 6.729 15 15-6.729 15-15 15zM45.828 6.515l-3.253 12.198a16.9 16.9 0 00-9.998-3.684L25.615 3.717A28.965 28.965 0 0132 3c5.004 0 9.715 1.274 13.828 3.515zM23.593 4.247l6.671 10.841c-3.879.395-7.368 2.109-10.033 4.673l-12.65-3.373c3.688-5.749 9.343-10.117 16.012-12.141zM6.515 18.172l12.198 3.253a16.9 16.9 0 00-3.684 9.998L3.717 38.385A28.965 28.965 0 013 32c0-5.004 1.274-9.715 3.515-13.828zM4.247 40.407l10.841-6.671c.395 3.879 2.109 7.368 4.673 10.033l-3.373 12.65c-5.749-3.688-10.117-9.343-12.141-16.012zm13.925 17.078l3.253-12.198a16.9 16.9 0 009.998 3.684l6.961 11.312A28.95 28.95 0 0132 61a28.816 28.816 0 01-13.828-3.515zm22.235 2.268l-6.671-10.841c3.879-.395 7.368-2.109 10.033-4.673l12.65 3.373c-3.688 5.749-9.343 10.117-16.012 12.141zm17.078-13.925l-12.198-3.253a16.9 16.9 0 003.684-9.998l11.312-6.961A28.95 28.95 0 0161 32c0 5.004-1.274 9.715-3.515 13.828z"/><path d="M32 23c-4.963 0-9 4.037-9 9s4.037 9 9 9 9-4.037 9-9-4.037-9-9-9zm0 16c-3.859 0-7-3.141-7-7s3.141-7 7-7 7 3.141 7 7-3.141 7-7 7z"/><path d="M32 27c-2.757 0-5 2.243-5 5s2.243 5 5 5 5-2.243 5-5-2.243-5-5-5zm0 8c-1.654 0-3-1.346-3-3s1.346-3 3-3 3 1.346 3 3-1.346 3-3 3zM31 43h2v2h-2zM31 19h2v2h-2zM19 31h2v2h-2zM43 31h2v2h-2z"/></svg>