<svg fill="#ffffff" height="512pt" viewBox="0 0 512 512.001" width="512pt" xmlns="http://www.w3.org/2000/svg"><path d="M383.922 21.988c-17.336 17.336-24.426 40.875-21.219 63.657l-37.98 37.976-27.957-18.637c-6.891-4.597-16.207-2.734-20.805 4.16-4.594 6.895-2.73 16.211 4.16 20.805l22.965 15.313-20.797 20.797-27.957-18.641c-6.89-4.594-16.207-2.734-20.805 4.16-4.593 6.895-2.73 16.211 4.164 20.809l22.961 15.308-20.797 20.797-27.957-18.64c-6.89-4.594-16.207-2.73-20.804 4.164-4.594 6.894-2.73 16.207 4.164 20.804l22.965 15.309-26.547 26.547-21.219-21.219c-5.855-5.86-15.355-5.86-21.215 0l-31.828 31.828c-17.59 17.59-17.59 46.059 0 63.649L85.56 362.789c-22.563-3.187-46.305 3.871-63.622 21.188-29.25 29.25-29.25 76.84 0 106.09 29.247 29.246 76.836 29.246 106.086 0 17.317-17.317 24.375-41.063 21.188-63.626l31.855-31.855c17.59 17.59 46.059 17.594 63.653 0l31.824-31.824c5.86-5.86 5.86-15.36 0-21.219l-21.215-21.219 39.274-39.273 27.957 18.637c6.867 4.578 16.191 2.765 20.804-4.16 4.598-6.895 2.735-16.212-4.16-20.805l-22.965-15.309 20.797-20.797 27.957 18.637c6.867 4.578 16.188 2.766 20.805-4.16 4.598-6.895 2.734-16.211-4.16-20.805l-22.965-15.309 20.797-20.796 27.957 18.636c6.87 4.578 16.195 2.758 20.808-4.16 4.594-6.894 2.73-16.21-4.164-20.808l-22.965-15.309 25.25-25.246c22.825 3.215 46.356-3.918 63.653-21.219 29.316-29.316 29.324-76.77 0-106.09-29.313-29.316-76.766-29.32-106.086 0zm-277.117 446.86c-17.551 17.547-46.106 17.547-63.653 0-17.55-17.551-17.55-46.106 0-63.653 17.547-17.55 46.102-17.55 63.653 0 17.547 17.547 17.547 46.102 0 63.653zm30.757-73.196a75.036 75.036 0 00-9.542-11.675 75.036 75.036 0 00-11.676-9.543l22.285-22.286 21.219 21.22zm85.934-22.285c-5.848 5.852-15.367 5.852-21.215 0l-63.652-63.652c-5.848-5.848-5.848-15.367 0-21.215l21.215-21.219 84.87 84.871zm10.61-74.258l-21.215-21.218 30.789-30.79 25.46 16.973zm56.671-56.671l-25.46-16.973 20.796-20.797 25.461 16.973zm42.434-42.434l-25.461-16.977 20.797-20.797 25.46 16.977zm42.434-42.438l-25.461-16.972 24.187-24.188c2.758 4.153 5.945 8.063 9.55 11.668s7.516 6.793 11.669 9.551zm93.148-50.71c-17.59 17.59-46.063 17.593-63.652 0-17.59-17.586-17.594-46.06 0-63.649 17.586-17.59 46.058-17.594 63.652 0 17.586 17.586 17.594 46.059 0 63.648zm0 0"/><path d="M85.582 426.406c-5.855-5.86-15.355-5.86-21.215 0-5.86 5.86-5.86 15.36 0 21.219 5.86 5.86 15.36 5.86 21.215 0 5.86-5.86 5.86-15.36 0-21.219zm0 0M447.574 64.43c-5.86-5.86-15.36-5.86-21.219 0-5.855 5.86-5.855 15.36 0 21.215 5.86 5.859 15.36 5.859 21.22 0 5.859-5.856 5.859-15.356 0-21.215zm0 0"/></svg>