<svg xmlns="http://www.w3.org/2000/svg" width="35" height="30" viewBox="0 0 35 30"><path fill="#a5b1bc" fill-rule="evenodd" d="M485.823,333A1.829,1.829,0,0,1,484,331.17V309.219a1.829,1.829,0,0,1,1.823-1.829H514.26a1.828,1.828,0,0,1,1.823,1.829v6.22H513.9v-5.854H486.187v21.22H513.9v-5.123h2.187v5.488A1.828,1.828,0,0,1,514.26,333H485.823Zm21.51-24.878v-2.927H486.187v2.927H484v-3.292a1.829,1.829,0,0,1,1.823-1.83H507.7a1.829,1.829,0,0,1,1.823,1.83v3.292h-2.188ZM507.7,324.95c-2.211,0-4.011-2.133-4.011-4.756s1.8-4.755,4.011-4.755h9.662a1.644,1.644,0,0,1,1.64,1.645v6.221a1.645,1.645,0,0,1-1.64,1.645H507.7Zm0-7.317c-0.989,0-1.823,1.173-1.823,2.561s0.834,2.561,1.823,2.561h9.114v-5.122H507.7Zm0.364,3.659V319.1h1.459v2.195h-1.459Z" transform="translate(-484 -303)"/></svg>
