<svg xmlns="http://www.w3.org/2000/svg" width="27" height="35" viewBox="0 0 27 35"><path fill="#a5b1bc" fill-rule="evenodd" d="M1169.12,319.2a11.188,11.188,0,0,0-9.62-16.835,11,11,0,0,0-6.18,1.89l-1.74-1.646A13.288,13.288,0,0,1,1159.5,300a13.563,13.563,0,0,1,11.37,20.859ZM1153.7,335a1.183,1.183,0,0,1,0-2.365h4.62v-5.551l-0.17-.017a13.544,13.544,0,0,1-9.66-21.3l0.09-.137-1.3-1.232a1.2,1.2,0,0,1-.05-1.672,1.18,1.18,0,0,1,1.67-.05l22.03,20.842a1.186,1.186,0,0,1,.05,1.672,1.168,1.168,0,0,1-.85.372,1.183,1.183,0,0,1-.81-0.322l-1.26-1.2-0.13.106a13.412,13.412,0,0,1-7.08,2.916l-0.18.016v5.552h4.63a1.183,1.183,0,0,1,0,2.365h-11.6Zm-3.52-27.544a11.184,11.184,0,0,0,9.32,17.315,11.016,11.016,0,0,0,6.64-2.226l0.18-.139-16.01-15.143Z" transform="translate(-1146 -300)"/></svg>
