<svg width="12" height="24" viewBox="0 0 12 24" fill="none" xmlns="http://www.w3.org/2000/svg">
<path d="M0.253178 12.6586L10.5303 23.7286C10.867 24.0911 11.4122 24.0905 11.7483 23.7267C12.0842 23.363 12.0833 22.7739 11.7466 22.4111L2.08119 12L11.7469 1.58887C12.0836 1.22606 12.0845 0.637266 11.7487 0.273516C11.5801 0.0911731 11.3594 1.84076e-06 11.1386 1.81782e-06C10.9184 1.79493e-06 10.6985 0.0905627 10.5303 0.271641L0.253179 11.3414C0.0910034 11.5156 -1.00679e-06 11.7528 -1.02496e-06 12C-1.04313e-06 12.2471 0.0912637 12.484 0.253178 12.6586Z" fill="white"/>
</svg>
