<svg width="17" height="15" viewBox="0 0 17 15" fill="none" xmlns="http://www.w3.org/2000/svg">
<path d="M15.4108 10.2229C15.3512 10.1943 13.1185 9.09487 12.7218 8.95209C12.5598 8.89392 12.3863 8.83715 12.2018 8.83715C11.9003 8.83715 11.6471 8.98739 11.4498 9.2825C11.2268 9.61401 10.5516 10.4032 10.343 10.639C10.3158 10.6701 10.2786 10.7073 10.2563 10.7073C10.2363 10.7073 9.89079 10.565 9.78619 10.5195C7.39117 9.47918 5.57326 6.97737 5.32398 6.55548C5.28838 6.49483 5.28689 6.46729 5.28659 6.46729C5.29534 6.43517 5.37588 6.35443 5.41745 6.31277C5.53905 6.19246 5.6708 6.03386 5.79827 5.88044C5.85863 5.80775 5.91908 5.73497 5.97844 5.66636C6.16338 5.45119 6.24571 5.28414 6.34117 5.09065L6.39118 4.99012C6.62425 4.52707 6.42519 4.1363 6.36086 4.01012C6.30806 3.90453 5.36534 1.62933 5.26512 1.39029C5.02409 0.813487 4.70561 0.544922 4.26304 0.544922C4.22198 0.544922 4.26304 0.544922 4.09083 0.55218C3.88112 0.56103 2.73915 0.711371 2.23423 1.02965C1.69879 1.36722 0.792969 2.44328 0.792969 4.33566C0.792969 6.03883 1.87379 7.64695 2.33784 8.25855C2.34938 8.27396 2.37056 8.30528 2.40128 8.35023C4.17843 10.9456 6.39387 12.869 8.63974 13.7662C10.8019 14.6298 11.8257 14.7297 12.4078 14.7297C12.4079 14.7297 12.4079 14.7297 12.4079 14.7297C12.6525 14.7297 12.8483 14.7105 13.021 14.6935L13.1306 14.683C13.8775 14.6168 15.5189 13.7663 15.8923 12.7287C16.1864 11.9115 16.264 11.0186 16.0683 10.6945C15.9343 10.4742 15.7033 10.3633 15.4108 10.2229Z" fill="white"/>
</svg>
