<svg width="20" height="20" viewBox="0 0 20 20" fill="none" xmlns="http://www.w3.org/2000/svg">
<circle cx="10" cy="10" r="9.4" stroke="#25A370" stroke-width="1.2"/>
<path d="M14.9796 12.7482C14.9513 12.6629 14.7714 12.5374 14.4399 12.3718C14.3501 12.3196 14.2221 12.2487 14.0565 12.1587C13.8908 12.0688 13.7404 11.9859 13.6055 11.9101C13.4704 11.8343 13.3438 11.761 13.2255 11.69C13.2066 11.6758 13.1475 11.6345 13.048 11.5657C12.9485 11.497 12.8646 11.4461 12.7958 11.4129C12.7271 11.3799 12.6596 11.3633 12.5933 11.3633C12.4987 11.3633 12.3804 11.4308 12.2384 11.5657C12.0964 11.7007 11.9662 11.8473 11.8479 12.0061C11.7295 12.1648 11.604 12.3115 11.4716 12.4464C11.339 12.5814 11.23 12.6488 11.1449 12.6488C11.1021 12.6488 11.0488 12.6369 10.985 12.6134C10.9211 12.5898 10.8726 12.5695 10.8393 12.5531C10.8062 12.5365 10.7495 12.5034 10.669 12.4535C10.5883 12.4038 10.5434 12.3766 10.534 12.3718C9.88532 12.0119 9.32902 11.6 8.86497 11.1361C8.40106 10.672 7.98907 10.1157 7.62924 9.46701C7.62451 9.45753 7.59722 9.41253 7.54755 9.33209C7.4978 9.25156 7.46464 9.19482 7.44807 9.16159C7.4315 9.12848 7.41138 9.07992 7.38775 9.01601C7.36411 8.95211 7.35225 8.89887 7.35225 8.85621C7.35225 8.77104 7.41974 8.66208 7.55469 8.5295C7.68961 8.39698 7.83643 8.27146 7.99499 8.15317C8.15367 8.03489 8.30034 7.90464 8.43531 7.76265C8.57024 7.62059 8.6377 7.50228 8.6377 7.4076C8.6377 7.34136 8.62113 7.27382 8.58802 7.20519C8.55489 7.1364 8.50399 7.05247 8.43531 6.95299C8.36661 6.85357 8.32519 6.79444 8.31096 6.77541C8.24001 6.65712 8.1667 6.53048 8.09086 6.39553C8.01501 6.2606 7.93223 6.1102 7.84223 5.94451C7.7523 5.77888 7.68133 5.651 7.62919 5.56105C7.46357 5.22968 7.33812 5.04968 7.25287 5.02137C7.21971 5.00716 7.16996 5 7.10374 5C6.97583 5 6.80896 5.02363 6.60301 5.07105C6.39699 5.11838 6.23488 5.16804 6.1165 5.2202C5.87975 5.31958 5.62883 5.60839 5.36366 6.08652C5.12219 6.5315 5.00146 6.97193 5.00146 7.40747C5.00146 7.53521 5.00975 7.65949 5.02632 7.78034C5.04288 7.90106 5.07249 8.0372 5.11515 8.18875C5.15773 8.34024 5.19209 8.45278 5.21806 8.52606C5.24405 8.5994 5.29259 8.73076 5.36363 8.92022C5.43458 9.10962 5.47724 9.22557 5.49144 9.26818C5.65714 9.73221 5.85363 10.1465 6.08087 10.5111C6.45476 11.1171 6.96498 11.7434 7.61125 12.3897C8.25755 13.036 8.88372 13.5462 9.4898 13.9202C9.85435 14.1474 10.2688 14.3439 10.7327 14.5097C10.7753 14.5239 10.8913 14.5664 11.0806 14.6376C11.27 14.7086 11.4014 14.7571 11.4748 14.7832C11.5481 14.8093 11.6607 14.8436 11.8121 14.8863C11.9638 14.929 12.0998 14.9586 12.2205 14.9752C12.3413 14.9916 12.4656 15 12.5934 15C13.0289 15 13.4693 14.8792 13.9144 14.6378C14.3925 14.3727 14.6812 14.1217 14.7806 13.8848C14.8329 13.7666 14.8825 13.6044 14.9298 13.3984C14.9773 13.1925 15.0009 13.0256 15.0009 12.8977C15.001 12.8312 14.9939 12.7816 14.9796 12.7482Z" fill="#25A370"/>
</svg>
