<svg width="21" height="21" viewBox="0 0 21 21" fill="none" xmlns="http://www.w3.org/2000/svg">
<g clip-path="url(#clip0)">
<path d="M10.5032 5.55762C7.7737 5.55762 5.56396 7.76976 5.56396 10.4968C5.56396 13.2263 7.77611 15.4361 10.5032 15.4361C13.2327 15.4361 15.4424 13.2239 15.4424 10.4968C15.4424 7.76735 13.2303 5.55762 10.5032 5.55762ZM10.5032 13.7028C8.73139 13.7028 7.29727 12.2678 7.29727 10.4968C7.29727 8.72584 8.73219 7.29092 10.5032 7.29092C12.2742 7.29092 13.7091 8.72584 13.7091 10.4968C13.7099 12.2678 12.275 13.7028 10.5032 13.7028Z" fill="white"/>
<path d="M14.4689 0.935466C12.6979 0.852852 8.3113 0.856862 6.53869 0.935466C4.98105 1.00846 3.60708 1.38463 2.4994 2.49231C0.648193 4.34352 0.884807 6.838 0.884807 10.4963C0.884807 14.2404 0.676266 16.6772 2.4994 18.5003C4.35783 20.3579 6.8884 20.1149 10.5034 20.1149C14.2122 20.1149 15.4923 20.1173 16.8038 19.6096C18.5868 18.9174 19.9327 17.3236 20.0642 14.461C20.1476 12.6892 20.1428 8.3034 20.0642 6.5308C19.9054 3.15162 18.0919 1.1023 14.4689 0.935466ZM17.2722 17.2755C16.0586 18.4891 14.375 18.3808 10.4801 18.3808C6.46971 18.3808 4.86154 18.4401 3.68809 17.2635C2.33658 15.9184 2.58121 13.7584 2.58121 10.4835C2.58121 6.05196 2.12643 2.86047 6.57398 2.63267C7.59584 2.59658 7.89662 2.58455 10.4689 2.58455L10.505 2.60861C14.7793 2.60861 18.1328 2.16105 18.3341 6.6078C18.3798 7.62244 18.3903 7.92723 18.3903 10.4955C18.3895 14.4594 18.4649 16.0772 17.2722 17.2755Z" fill="white"/>
<path d="M15.6381 6.51738C16.2755 6.51738 16.7923 6.00062 16.7923 5.36318C16.7923 4.72574 16.2755 4.20898 15.6381 4.20898C15.0006 4.20898 14.4839 4.72574 14.4839 5.36318C14.4839 6.00062 15.0006 6.51738 15.6381 6.51738Z" fill="white"/>
</g>
<defs>
<clipPath id="clip0">
<rect x="0.875" y="0.875" width="19.25" height="19.25" fill="white"/>
</clipPath>
</defs>
</svg>
