<svg width="20" height="20" viewBox="0 0 20 20" fill="none" xmlns="http://www.w3.org/2000/svg">
<path d="M17.0711 2.92891C15.1823 1.0402 12.6711 0 10 0C7.32891 0 4.81766 1.0402 2.92891 2.92891C1.04016 4.8177 0 7.32891 0 10C0 12.6711 1.04016 15.1823 2.92891 17.0711C4.81766 18.9598 7.32891 20 10 20C12.6711 20 15.1823 18.9598 17.0711 17.0711C18.9598 15.1823 20 12.6711 20 10C20 7.32891 18.9598 4.8177 17.0711 2.92891ZM10 18.8281C5.13215 18.8281 1.17188 14.8679 1.17188 10C1.17188 5.13215 5.13215 1.17188 10 1.17188C14.8679 1.17188 18.8281 5.13215 18.8281 10C18.8281 14.8679 14.8679 18.8281 10 18.8281Z" fill="#25A370"/>
<path d="M10.0001 2.51038C5.8703 2.51038 2.5105 5.87018 2.5105 9.99995C2.5105 14.1297 5.8703 17.4895 10.0001 17.4895C14.1299 17.4895 17.4896 14.1297 17.4896 9.99995C17.4896 5.87022 14.1299 2.51038 10.0001 2.51038ZM10.0001 16.3176C6.51647 16.3176 3.68237 13.4835 3.68237 9.99995C3.68237 6.51639 6.51647 3.68225 10.0001 3.68225C13.4837 3.68225 16.3178 6.51639 16.3178 9.99995C16.3178 13.4835 13.4837 16.3176 10.0001 16.3176Z" fill="#25A370"/>
<path d="M9.99994 5.64844C9.67635 5.64844 9.41401 5.91078 9.41401 6.23438V9.66172L7.53283 10.7477C7.25256 10.9095 7.15654 11.2679 7.31834 11.5481C7.42686 11.7361 7.62381 11.8412 7.82635 11.8412C7.92576 11.8412 8.02651 11.8159 8.11873 11.7626L10.2929 10.5074C10.4742 10.4028 10.5859 10.2093 10.5859 10V6.23438C10.5859 5.91074 10.3235 5.64844 9.99994 5.64844Z" fill="#25A370"/>
</svg>
