<svg width="114" height="127" viewBox="0 0 114 127" fill="none" xmlns="http://www.w3.org/2000/svg">
<g filter="url(#filter0_d)">
<path d="M98.2895 30.6218C98.2053 26.2043 94.5952 22.682 90.1995 22.2358C79.6724 21.1671 70.7706 17.8687 62.9131 12.0463C59.4331 9.4677 54.5635 9.46784 51.0836 12.0466C43.227 17.8687 34.326 21.167 23.8001 22.2357C19.4045 22.682 15.7943 26.2043 15.7101 30.6218C15.2034 57.2156 14.3732 90.7682 54.3656 106.042C56.0437 106.683 57.9522 106.683 59.6303 106.042C99.6259 90.7685 98.7962 57.2159 98.2895 30.6218ZM59.2434 66.2252C56.1191 69.3497 51.0534 69.3495 47.9292 66.2249L42.9355 61.2305C41.2392 59.5339 41.2393 56.7834 42.9358 55.087C44.6325 53.3904 47.3833 53.3906 49.0797 55.0874L49.797 55.8049C51.8896 57.898 55.2829 57.8981 57.3757 55.8053L64.9181 48.2627C66.6147 46.5662 69.3653 46.5662 71.0618 48.2627C72.7583 49.9592 72.7583 52.7097 71.0619 54.4063L59.2434 66.2252Z" fill="url(#paint0_angular)"/>
</g>
<defs>
<filter id="filter0_d" x="-8" y="-3" width="130" height="130" filterUnits="userSpaceOnUse" color-interpolation-filters="sRGB">
<feFlood flood-opacity="0" result="BackgroundImageFix"/>
<feColorMatrix in="SourceAlpha" type="matrix" values="0 0 0 0 0 0 0 0 0 0 0 0 0 0 0 0 0 0 127 0"/>
<feOffset dy="5"/>
<feGaussianBlur stdDeviation="7.5"/>
<feColorMatrix type="matrix" values="0 0 0 0 0.435294 0 0 0 0 0.517647 0 0 0 0 0.596078 0 0 0 0.15 0"/>
<feBlend mode="normal" in2="BackgroundImageFix" result="effect1_dropShadow"/>
<feBlend mode="normal" in="SourceGraphic" in2="effect1_dropShadow" result="shape"/>
</filter>
<radialGradient id="paint0_angular" cx="0" cy="0" r="1" gradientUnits="userSpaceOnUse" gradientTransform="translate(56.9998 57) rotate(90) scale(50 41.415)">
<stop stop-color="white"/>
<stop offset="1" stop-color="#F4F5F7"/>
</radialGradient>
</defs>
</svg>
