<svg width="18" height="22" viewBox="0 0 18 22" fill="none" xmlns="http://www.w3.org/2000/svg">
<path d="M17.203 12.8806C16.951 9.59959 15.4234 7.54349 14.0757 5.72909C12.8278 4.04935 11.75 2.59882 11.75 0.459057C11.75 0.287182 11.6538 0.130089 11.5011 0.0513269C11.348 -0.0279075 11.1641 -0.014931 11.0249 0.0862175C9.0009 1.53452 7.31214 3.97553 6.72223 6.30461C6.31269 7.92612 6.25851 9.74903 6.2509 10.953C4.38176 10.5537 3.95835 7.75786 3.95388 7.72739C3.93282 7.58237 3.84422 7.45617 3.71532 7.38725C3.58508 7.31923 3.43198 7.31429 3.29994 7.37965C3.20193 7.42708 0.894117 8.5997 0.75984 13.2816C0.75043 13.4374 0.75 13.5936 0.75 13.7498C0.75 18.2984 4.45111 21.9992 9 21.9992C9.00627 21.9997 9.01298 22.0006 9.01835 21.9992C9.02015 21.9992 9.02191 21.9992 9.02415 21.9992C13.5619 21.9862 17.25 18.2903 17.25 13.7498C17.25 13.5211 17.203 12.8806 17.203 12.8806ZM9 21.0826C7.48355 21.0826 6.25 19.7686 6.25 18.1534C6.25 18.0983 6.24957 18.0428 6.25357 17.9748C6.27191 17.2936 6.40129 16.8286 6.54318 16.5193C6.80907 17.0904 7.28439 17.6154 8.05649 17.6154C8.30984 17.6154 8.51484 17.4104 8.51484 17.1571C8.51484 16.5046 8.52829 15.7518 8.69075 15.0723C8.83534 14.4699 9.18086 13.829 9.61862 13.3152C9.81331 13.9821 10.1929 14.5218 10.5635 15.0486C11.0939 15.8023 11.6422 16.5815 11.7384 17.9103C11.7442 17.9891 11.7501 18.0683 11.7501 18.1534C11.75 19.7686 10.5165 21.0826 9 21.0826Z" fill="#FF1037"/>
</svg>
