<svg width="14" height="18" viewBox="0 0 14 18" fill="none" xmlns="http://www.w3.org/2000/svg">
<path d="M13.7115 10.5387C13.5053 7.8542 12.2555 6.17193 11.1528 4.68742C10.1318 3.3131 9.25 2.12629 9.25 0.375581C9.25 0.234956 9.17125 0.106425 9.04638 0.0419836C8.92111 -0.0228445 8.77061 -0.0122273 8.65674 0.0705305C7.00074 1.25551 5.61903 3.2527 5.13637 5.15831C4.80129 6.485 4.75696 7.97647 4.75074 8.96151C3.22144 8.63487 2.87501 6.34733 2.87136 6.3224C2.85413 6.20375 2.78164 6.1005 2.67617 6.04411C2.56961 5.98845 2.44435 5.98441 2.33631 6.03788C2.25612 6.07669 0.367914 7.03611 0.258051 10.8668C0.250351 10.9942 0.25 11.122 0.25 11.2498C0.25 14.9714 3.27818 17.9994 7 17.9994C7.00513 17.9997 7.01062 18.0005 7.01501 17.9994C7.01649 17.9994 7.01793 17.9994 7.01976 17.9994C10.7324 17.9887 13.75 14.9648 13.75 11.2498C13.75 11.0627 13.7115 10.5387 13.7115 10.5387ZM7 17.2494C5.75927 17.2494 4.75 16.1743 4.75 14.8527C4.75 14.8077 4.74965 14.7623 4.75292 14.7066C4.76793 14.1493 4.87379 13.7688 4.98987 13.5158C5.20742 13.9831 5.59632 14.4126 6.22804 14.4126C6.43532 14.4126 6.60305 14.2449 6.60305 14.0376C6.60305 13.5037 6.61405 12.8878 6.74698 12.3319C6.86528 11.839 7.14797 11.3146 7.50614 10.8943C7.66544 11.4399 7.97601 11.8815 8.27923 12.3125C8.7132 12.9291 9.16179 13.5667 9.24054 14.6539C9.24529 14.7183 9.25007 14.7832 9.25007 14.8527C9.25 16.1743 8.24073 17.2494 7 17.2494Z" fill="white"/>
</svg>
