<svg width="208" height="40" viewBox="0 0 208 40" fill="none" xmlns="http://www.w3.org/2000/svg">
<path fill-rule="evenodd" clip-rule="evenodd" d="M24.617 10.322C22.4172 11.3962 17.0748 12.8108 14.1417 12.4703V17.5003C18.4628 16.8715 22.522 15.2473 24.617 13.1514V10.322Z" fill="#CCDBDE"/>
<path fill-rule="evenodd" clip-rule="evenodd" d="M24.6169 17.7884C22.4171 19.1245 17.0747 21.1418 14.1416 21.1418V26.1718C18.4627 25.0453 22.8099 22.6089 24.6169 20.513V17.7622V17.7884Z" fill="#00AFEC"/>
<path fill-rule="evenodd" clip-rule="evenodd" d="M24.6169 25.8313C22.4171 27.0626 17.0747 28.8178 14.1416 28.6606V34.5552C17.3628 33.612 22.7052 31.0708 24.5121 28.3987L24.6169 25.8313Z" fill="#FF1037"/>
<path fill-rule="evenodd" clip-rule="evenodd" d="M30 11.7403V19.1688C30 19.1948 30 19.2468 30 19.2727V27.013V27.1948L29.9474 27.3766C29.0263 30.1558 26.8421 32.5714 24.1579 34.5455C20.7895 37.039 16.6579 38.8831 13.3684 39.8701L12.9474 40L12.5526 39.8442C9.86842 38.7532 7.07895 36.9351 4.78947 34.7013C2.68421 32.6493 0.947368 30.2338 0.0789474 27.7143L0 27.5065V27.3247V1.22078V0H1.23684H28.7368H29.9737V1.22078L30 4.88312C30 7.4026 27.8684 9.19481 24.9211 10.4156C21.7105 11.7403 17.4474 12.4156 14.2632 12.5714V19.1688C16.8684 18.5974 20.1579 17.5844 22.8421 16.2078C24.8158 15.2727 26.7368 13.974 28.6053 11.6364H30C30 11.6623 30 11.7143 30 11.7403ZM14.2632 21.6364V27.7143C17.1842 26.8571 20.9474 25.3766 23.7632 23.5325C25.8947 22.1558 27.4737 20.6494 27.5263 19.2208V17.6104V16.0779C26.8158 16.6753 26 17.2468 25.0789 17.7662C21.8421 19.6364 17.4737 20.987 14.2632 21.6364ZM14.2632 30.2597V37.013C17 36.026 20.1053 34.5195 22.6842 32.5974C24.9211 30.9351 26.7632 28.961 27.5263 26.8052V23.7403C26.8421 24.3896 26.0263 24.987 25.1316 25.5584C21.8684 27.6623 17.4737 29.3506 14.2632 30.2338V30.2597ZM6.52632 32.961C8.10526 34.4935 9.94737 35.8182 11.7895 36.7792V11.3766V10.1558H13.0263C16.0263 10.1299 20.6579 9.53247 23.9737 8.15584C26.0263 7.2987 27.5263 6.20779 27.5263 4.88312V2.44156H2.5V27.1169C3.26316 29.1948 4.71053 31.2208 6.52632 32.961Z" fill="#152438"/>
<path fill-rule="evenodd" clip-rule="evenodd" d="M52.4533 6.82075V34.9143H44.8925V0.270096H61.533V6.82075H52.4533Z" fill="#152438"/>
<path fill-rule="evenodd" clip-rule="evenodd" d="M103.658 16.6805C101.092 21.7116 95.9618 24.5818 91.8776 25.9324V34.8805H84.3168V0.236313H94.2066C99.5059 0.236313 103.556 1.31683 105.177 6.21294C105.784 8.07008 105.987 12.0883 103.658 16.6805ZM97.2782 7.66489C96.7044 6.7532 95.8268 6.31424 94.6792 6.28047H91.7763V18.8415C94.1391 18.0311 96.0631 16.3766 97.0419 14.3168C98.1895 11.9194 98.1895 9.08307 97.2782 7.63112V7.66489Z" fill="#152438"/>
<path fill-rule="evenodd" clip-rule="evenodd" d="M173.292 27.4519C171.84 33.4623 168.465 34.9143 162.49 34.9143H159.655L158.845 28.9714H161.444C163.638 28.9714 165.056 27.148 164.347 25.0545L162.355 17.8285L157.562 0.270096H164.651L168.735 16.7818L172.178 0.270096H179.772L173.292 27.4519Z" fill="#152438"/>
<path fill-rule="evenodd" clip-rule="evenodd" d="M119.522 6.61815H115.438L115.404 7.32724C114.83 14.1818 114.189 22.2181 112.501 28.9039H119.522V6.61815ZM129.378 38.561H122.053V34.948H109.126L107.438 38.561H101.801V28.9039H104.974C105.312 27.4181 105.717 25.8987 105.987 24.3792C106.763 20.8 107.337 17.187 107.742 13.5402C108.181 9.11685 108.619 4.72724 108.687 0.270096H126.813V28.9039H129.344V38.561H129.378Z" fill="#152438"/>
<path fill-rule="evenodd" clip-rule="evenodd" d="M195.367 29.9169H194.286H193.544L189.662 18.2V34.9143H182.101V0.270096H189.527L194.826 16.8493L200.126 0.270096H207.518V34.9143H199.957V18.2L196.075 29.9169H195.367Z" fill="#152438"/>
<path fill-rule="evenodd" clip-rule="evenodd" d="M155.132 34.9143H147.808V14.722L147.571 15.3974L140.112 34.9143H132.787V0.270096H140.078V19.787L140.348 19.1117L147.943 0.270096H155.132V34.9143Z" fill="#152438"/>
<path fill-rule="evenodd" clip-rule="evenodd" d="M75.4059 34.9143L74.157 28.9714L73.8869 27.4857H67.0687L66.7987 28.9714L65.516 34.9143H58.1577L65.651 0.270096H75.6084L83.1017 34.9143H75.4396H75.4059ZM72.9081 21.9143L70.4778 8.03633L68.0476 21.9143H72.9081Z" fill="#152438"/>
</svg>
