<svg width="18" height="18" viewBox="0 0 18 18" fill="none" xmlns="http://www.w3.org/2000/svg">
<g clip-path="url(#clip0)">
<path d="M8.99999 8.80318C11.0013 8.80318 12.6238 6.83254 12.6238 4.40162C12.6238 1.97064 12.0911 0 8.99999 0C5.90887 0 5.37607 1.97064 5.37607 4.40162C5.37607 6.83254 6.99859 8.80318 8.99999 8.80318Z" fill="#929FAB"/>
<path d="M2.15555 15.5239C2.15473 15.3756 2.15391 15.4821 2.15555 15.5239V15.5239Z" fill="#929FAB"/>
<path d="M15.8444 15.6396C15.847 15.5991 15.8453 15.3581 15.8444 15.6396V15.6396Z" fill="#929FAB"/>
<path d="M15.8369 15.3461C15.7698 11.1114 15.2167 9.90473 10.9845 9.14091C10.9845 9.14091 10.3888 9.90005 9.0002 9.90005C7.61163 9.90005 7.01577 9.14091 7.01577 9.14091C2.82975 9.8964 2.24305 11.0852 2.16591 15.2086C2.15958 15.5453 2.15665 15.563 2.15552 15.5239C2.15577 15.5971 2.15608 15.7326 2.15608 15.9688C2.15608 15.9688 3.16367 18 9.0002 18C14.8366 18 15.8443 15.9688 15.8443 15.9688C15.8443 15.817 15.8444 15.7115 15.8446 15.6397C15.8434 15.6639 15.8412 15.617 15.8369 15.3461Z" fill="#929FAB"/>
</g>
<defs>
<clipPath id="clip0">
<rect width="18" height="18" fill="white"/>
</clipPath>
</defs>
</svg>
