<svg width="18" height="18" viewBox="0 0 18 18" fill="none" xmlns="http://www.w3.org/2000/svg">
<g clip-path="url(#clip0)">
<path d="M15.9787 11.0939L14.6474 9.7626L8.65689 3.77238C7.55286 2.67661 5.77071 2.67992 4.67081 3.77982C3.57091 4.87973 3.5676 6.66187 4.66337 7.76591L10.6536 13.7579C10.8986 14.0031 11.296 14.0031 11.5411 13.7579C11.7861 13.5128 11.7861 13.1155 11.5411 12.8704L5.55093 6.87835C4.93828 6.2657 4.93828 5.27259 5.55093 4.65994C6.16358 4.04729 7.15669 4.04729 7.76934 4.65994L13.7613 10.6502L15.0926 11.9813C16.1955 13.0846 16.1951 14.8731 15.0919 15.9759C13.9886 17.0787 12.2002 17.0784 11.0973 15.9751L9.98816 14.8655L3.77595 8.65333L3.3321 8.20962C1.78077 6.60978 1.80048 4.06107 3.3762 2.48521C4.95206 0.909488 7.50077 0.889783 9.1006 2.44111L15.7565 9.09717C15.9151 9.25564 16.1462 9.31751 16.3627 9.2595C16.5793 9.20149 16.7485 9.03241 16.8065 8.81579C16.8646 8.59917 16.8025 8.36822 16.6441 8.20962L9.98816 1.55369C7.90369 -0.52127 4.53301 -0.517411 2.45337 1.56238C0.37358 3.64202 0.369722 7.0127 2.44468 9.09717L9.1006 15.7531L10.2114 16.8626C11.8133 18.4013 14.3519 18.3757 15.9223 16.8048C17.4928 15.234 17.5177 12.6954 15.9787 11.0939Z" fill="#929FAB"/>
</g>
<defs>
<clipPath id="clip0">
<rect width="18" height="18" fill="white"/>
</clipPath>
</defs>
</svg>
