<svg width="30" height="30" viewBox="0 0 30 30" fill="none" xmlns="http://www.w3.org/2000/svg">
<path d="M15 0C6.729 0 0 6.729 0 15C0 23.271 6.729 30 15 30C23.271 30 30 23.271 30 15C30 6.729 23.271 0 15 0ZM15 26.8083C8.48899 26.8083 3.19144 21.5113 3.19144 15C3.19144 8.48868 8.48899 3.19175 15 3.19175C21.511 3.19175 26.8086 8.48868 26.8086 15C26.8086 21.5113 21.511 26.8083 15 26.8083Z" fill="white"/>
<path d="M22.8176 14.5368H16.0766V6.43161C16.0766 5.74954 15.5236 5.19653 14.8415 5.19653C14.1595 5.19653 13.6064 5.74954 13.6064 6.43161V15.7719C13.6064 16.4539 14.1595 17.0069 14.8415 17.0069H22.8176C23.4997 17.0069 24.0527 16.4539 24.0527 15.7719C24.0527 15.0898 23.4997 14.5368 22.8176 14.5368Z" fill="white"/>
</svg>
