<svg width="24" height="21" viewBox="0 0 24 21" fill="none" xmlns="http://www.w3.org/2000/svg">
<path d="M20.2918 0H3.5809C1.60414 0.00208892 0.00213704 1.56802 0 3.50026V13.6121C0.00213704 15.5444 1.60414 17.1103 3.5809 17.1124H4.68692L3.98675 20.5348C3.95663 20.682 4.01589 20.8327 4.13867 20.9226C4.26145 21.0124 4.4262 21.0251 4.562 20.9552L12.0346 17.1124H20.2918C22.2685 17.1103 23.8705 15.5444 23.8727 13.6121V3.50026C23.8705 1.56802 22.2685 0.00208892 20.2918 0ZM23.0769 13.6121C23.0752 15.115 21.8293 16.3328 20.2918 16.3346H11.9363C11.8716 16.3346 11.8081 16.3499 11.751 16.3794L4.93093 19.8882L5.56233 16.8013C5.58622 16.6868 5.5563 16.5679 5.48073 16.4775C5.40516 16.387 5.29189 16.3346 5.17241 16.3346H3.5809C2.0434 16.3328 0.797504 15.115 0.795756 13.6121V3.50026C0.797504 1.99738 2.0434 0.779545 3.5809 0.777836H20.2918C21.8293 0.779545 23.0752 1.99738 23.0769 3.50026V13.6121Z" fill="#152438"/>
<path d="M23.0769 13.6121C23.0752 15.115 21.8293 16.3328 20.2918 16.3346H11.9363C11.8716 16.3346 11.8081 16.3499 11.751 16.3794L4.93093 19.8882L5.56233 16.8013C5.58622 16.6868 5.5563 16.5679 5.48073 16.4775C5.40516 16.387 5.29189 16.3346 5.17241 16.3346H3.5809C2.0434 16.3328 0.797504 15.115 0.795756 13.6121V3.50026C0.797504 1.99738 2.0434 0.779545 3.5809 0.777836H20.2918C21.8293 0.779545 23.0752 1.99738 23.0769 3.50026V13.6121Z" fill="#152438"/>
<ellipse cx="8.00531" cy="9" rx="0.994695" ry="1" fill="#EBEDF2"/>
<path d="M12.9789 9C12.9789 9.55228 12.5336 10 11.9842 10C11.4348 10 10.9895 9.55228 10.9895 9C10.9895 8.44772 11.4348 8 11.9842 8C12.5336 8 12.9789 8.44772 12.9789 9Z" fill="#EBEDF2"/>
<ellipse cx="15.963" cy="9" rx="0.994695" ry="1" fill="#EBEDF2"/>
</svg>
