<svg width="524" height="317" viewBox="0 0 524 317" fill="none" xmlns="http://www.w3.org/2000/svg">
<path d="M389.711 239C317.968 280.421 201.648 280.421 129.904 239C58.1599 197.579 58.1599 130.421 129.904 89C201.648 47.5786 317.968 47.5786 389.711 89C461.455 130.421 461.455 197.579 389.711 239ZM245.06 155.485C236.915 160.188 236.915 167.812 245.06 172.515C253.205 177.217 266.41 177.217 274.555 172.515C282.701 167.812 282.701 160.188 274.555 155.485C266.41 150.783 253.205 150.783 245.06 155.485Z" fill="#313131"/>
<path d="M76 150.5L76 163L79.5 157.5L76 150.5Z" fill="#313131"/>
<path d="M389.711 239C408.001 228.441 422.222 215.771 431.444 201.819C440.667 187.867 444.683 172.948 443.229 158.039C441.775 143.129 434.885 128.565 423.009 115.299C411.133 102.033 394.538 90.3643 374.312 81.0567C354.085 71.7491 330.683 65.0123 305.635 61.2871C280.588 57.562 254.461 56.9324 228.963 59.4397C203.465 61.9469 179.171 67.5345 157.672 75.8367C136.173 84.1389 117.952 94.9686 104.203 107.617L242.102 157.584C243.666 156.145 245.739 154.913 248.186 153.968C250.632 153.023 253.397 152.388 256.298 152.102C259.199 151.817 262.172 151.889 265.022 152.313C267.872 152.736 270.535 153.503 272.837 154.562C275.138 155.621 277.026 156.949 278.378 158.458C279.729 159.968 280.513 161.625 280.679 163.322C280.844 165.018 280.387 166.716 279.338 168.303C278.288 169.891 276.67 171.333 274.589 172.534L389.711 239Z" fill="#2B70AD"/>
<path d="M443.5 150L443.5 163L440.5 163.5L443.5 150Z" fill="#0079A2"/>
<path d="M389.711 239C414.286 224.812 431.386 206.89 439.026 187.316L280.227 166.657C279.357 168.887 277.409 170.929 274.609 172.545L389.711 239Z" fill="#AA132C"/>
<path d="M439 173.5L439 187.5L431.5 192L426 183L439 173.5Z" fill="#AA132C"/>
<path d="M389.5 225L389.5 239L378 243.5L369.5 235L389.5 225Z" fill="#313131"/>
<path d="M389.711 225C317.968 266.421 201.648 266.421 129.904 225C58.1599 183.579 58.1599 116.421 129.904 75C201.648 33.5786 317.968 33.5786 389.711 75C461.455 116.421 461.455 183.579 389.711 225ZM245.06 141.485C236.915 146.188 236.915 153.812 245.06 158.515C253.205 163.217 266.41 163.217 274.555 158.515C282.701 153.812 282.701 146.188 274.555 141.485C266.41 136.783 253.205 136.783 245.06 141.485Z" fill="#454545"/>
<path d="M389.711 225C408.001 214.441 422.222 201.771 431.444 187.819C440.667 173.867 444.683 158.948 443.229 144.039C441.775 129.129 434.885 114.565 423.009 101.299C411.133 88.0329 394.538 76.3643 374.312 67.0567C354.085 57.7491 330.683 51.0123 305.635 47.2871C280.588 43.562 254.461 42.9324 228.963 45.4397C203.465 47.9469 179.171 53.5345 157.672 61.8367C136.173 70.1389 117.952 80.9686 104.203 93.6172L242.102 143.584C243.666 142.145 245.739 140.913 248.186 139.968C250.632 139.023 253.397 138.388 256.298 138.102C259.199 137.817 262.172 137.889 265.022 138.313C267.872 138.736 270.535 139.503 272.837 140.562C275.138 141.621 277.026 142.949 278.378 144.458C279.729 145.968 280.513 147.625 280.679 149.322C280.844 151.018 280.387 152.716 279.338 154.303C278.288 155.891 276.67 157.333 274.589 158.534L389.711 225Z" fill="#3692E4"/>
<path d="M389.711 225C414.286 210.812 431.386 192.89 439.026 173.316L280.227 152.657C279.357 154.887 277.409 156.929 274.609 158.545L389.711 225Z" fill="#EC0039"/>
<path opacity="0.3" d="M396 121L444 73" stroke="#152438" stroke-width="2"/>
<path opacity="0.3" d="M380 194L428 242" stroke="#152438" stroke-width="2"/>
<path opacity="0.3" d="M127 127L79 79" stroke="#152438" stroke-width="2"/>
</svg>
