<svg width="36" height="51" fill="none" xmlns="http://www.w3.org/2000/svg"><path d="M36 18c0 9.941-18 33-18 33S0 27.941 0 18C0 8.059 8.059 0 18 0s18 8.059 18 18z" fill="#FF1037"/><path fill-rule="evenodd" clip-rule="evenodd" d="M23.153 15.644c-1.178.583-4.041 1.35-5.612 1.166v2.748c2.307-.35 4.483-1.232 5.612-2.382v-1.532zM23.153 19.71c-1.178.733-4.041 1.832-5.612 1.832v2.748c2.307-.616 4.63-1.932 5.612-3.08v-1.5zM23.153 24.093c-1.178.666-4.041 1.632-5.612 1.549v3.214c1.718-.516 4.598-1.899 5.563-3.348l.049-1.398v-.017z" fill="#fff"/><path fill-rule="evenodd" clip-rule="evenodd" d="M25.967 16.478v8.494l-.032.1c-.491 1.532-1.653 2.848-3.076 3.947-1.783 1.366-4.008 2.382-5.742 2.914l-.23.067-.212-.083c-1.424-.6-2.912-1.6-4.14-2.832-1.128-1.132-2.044-2.448-2.502-3.847L10 25.122V10h15.967v.666l.017 2.015c0 1.383-1.146 2.365-2.716 3.048-1.701.733-3.976 1.1-5.677 1.182v3.614c1.39-.316 3.141-.882 4.58-1.632 1.048-.5 2.062-1.216 3.076-2.515H26v.067l-.033.033zm-8.392 5.446v3.348c1.554-.466 3.566-1.3 5.071-2.298 1.145-.767 1.98-1.583 1.996-2.365V18.86c-.376.333-.818.65-1.309.933-1.734 1.015-4.057 1.765-5.758 2.131zm0 4.73v3.714c1.456-.533 3.108-1.366 4.482-2.415 1.195-.916 2.16-1.998 2.585-3.18V23.09c-.376.35-.802.683-1.276 1-1.734 1.148-4.09 2.081-5.791 2.564zm-4.123 1.482c.85.85 1.816 1.566 2.814 2.099v-14.64h.654c1.603-.016 4.074-.349 5.84-1.098 1.097-.467 1.898-1.066 1.898-1.799v-1.332H11.325v13.573c.41 1.149 1.178 2.248 2.143 3.214l-.016-.017z" fill="#fff"/></svg>