<svg width="195" height="37" viewBox="0 0 195 37" fill="none" xmlns="http://www.w3.org/2000/svg">
<path fill-rule="evenodd" clip-rule="evenodd" d="M23.0784 9.54785C21.0161 10.5414 16.0076 11.85 13.2578 11.535V16.1877C17.3088 15.6061 21.1143 14.1037 23.0784 12.165V9.54785Z" fill="#CCDBDE"/>
<path fill-rule="evenodd" clip-rule="evenodd" d="M23.0783 16.4542C21.016 17.6901 16.0075 19.556 13.2577 19.556V24.2088C17.3087 23.1667 21.3842 20.9131 23.0783 18.9744V16.4299V16.4542Z" fill="#00AFEC"/>
<path fill-rule="evenodd" clip-rule="evenodd" d="M23.0783 23.8938C21.016 25.0328 16.0075 26.6564 13.2577 26.511V31.9634C16.2775 31.091 21.286 28.7404 22.9801 26.2686L23.0783 23.8938Z" fill="#FF1037"/>
<path fill-rule="evenodd" clip-rule="evenodd" d="M28.125 10.8597V17.7312C28.125 17.7552 28.125 17.8032 28.125 17.8273V24.987V25.1552L28.0757 25.3234C27.2122 27.8942 25.1645 30.1286 22.648 31.9545C19.4901 34.261 15.6168 35.9669 12.5329 36.8799L12.1382 37L11.7681 36.8558C9.25165 35.8468 6.63651 34.1649 4.49013 32.0987C2.51645 30.2007 0.888158 27.9662 0.0740132 25.6357L0 25.4435V25.2753V1.12922V0H1.15954H26.9408H28.1003V1.12922L28.125 4.51688C28.125 6.8474 26.1266 8.50519 23.3635 9.63442C20.3536 10.8597 16.3569 11.4844 13.3717 11.6286V17.7312C15.8141 17.2026 18.898 16.2656 21.4145 14.9922C23.2648 14.1273 25.0658 12.926 26.8174 10.7636H28.125C28.125 10.7877 28.125 10.8357 28.125 10.8597ZM13.3717 20.0136V25.6357C16.1102 24.8429 19.6382 23.4734 22.278 21.7675C24.2763 20.4942 25.7566 19.1007 25.8059 17.7792V16.2896V14.8721C25.1398 15.4247 24.375 15.9532 23.5115 16.4338C20.477 18.1636 16.3816 19.413 13.3717 20.0136ZM13.3717 27.9903V34.237C15.9375 33.324 18.8487 31.9305 21.2664 30.1526C23.3635 28.6149 25.0905 26.789 25.8059 24.7948V21.9597C25.1645 22.5604 24.3997 23.113 23.5609 23.6416C20.5016 25.5877 16.3816 27.1494 13.3717 27.9662V27.9903ZM6.11842 30.489C7.59868 31.9065 9.32566 33.1318 11.0526 34.0208V10.5234V9.39416H12.2122C15.0247 9.37013 19.3668 8.81753 22.4753 7.54416C24.3997 6.7513 25.8059 5.74221 25.8059 4.51688V2.25844H2.34375V25.0831C3.05921 27.0052 4.41612 28.8792 6.11842 30.489Z" fill="#152438"/>
<path fill-rule="evenodd" clip-rule="evenodd" d="M49.1749 6.30911V32.2956H42.0867V0.249756H57.6872V6.30911H49.1749Z" fill="#152438"/>
<path fill-rule="evenodd" clip-rule="evenodd" d="M97.1791 15.4294C94.7741 20.0832 89.9642 22.7381 86.1353 23.9874V32.2644H79.047V0.218506H88.3187C93.2868 0.218506 97.0841 1.21799 98.6031 5.74688C99.1726 7.46474 99.3625 11.1816 97.1791 15.4294ZM91.1983 7.08994C90.6604 6.24662 89.8376 5.84058 88.7617 5.80935H86.0403V17.4283C88.2554 16.6787 90.0591 15.1482 90.9768 13.243C92.0527 11.0254 92.0527 8.40175 91.1983 7.0587V7.08994Z" fill="#152438"/>
<path fill-rule="evenodd" clip-rule="evenodd" d="M162.461 25.3929C161.1 30.9525 157.936 32.2956 152.335 32.2956H149.677L148.917 26.7985H151.354C153.411 26.7985 154.74 25.1118 154.075 23.1753L152.208 16.4913L147.715 0.249756H154.36L158.189 15.5231L161.417 0.249756H168.537L162.461 25.3929Z" fill="#152438"/>
<path fill-rule="evenodd" clip-rule="evenodd" d="M112.052 6.1217H108.223L108.191 6.77761C107.653 13.1181 107.052 20.5517 105.47 26.736H112.052V6.1217ZM121.292 35.6688H114.425V32.3268H102.305L100.723 35.6688H95.4386V26.736H98.4131C98.7296 25.3617 99.1093 23.9562 99.3625 22.5507C100.09 19.2399 100.628 15.8979 101.008 12.5246C101.419 8.433 101.831 4.37261 101.894 0.249756H118.887V26.736H121.26V35.6688H121.292Z" fill="#152438"/>
<path fill-rule="evenodd" clip-rule="evenodd" d="M183.156 27.673H182.143H181.447L177.808 16.8349V32.2956H170.72V0.249756H177.682L182.65 15.5855L187.618 0.249756H194.548V32.2956H187.46V16.8349L183.821 27.673H183.156Z" fill="#152438"/>
<path fill-rule="evenodd" clip-rule="evenodd" d="M145.436 32.2956H138.57V13.6178L138.348 14.2425L131.355 32.2956H124.488V0.249756H131.323V18.3029L131.576 17.6782L138.696 0.249756H145.436V32.2956Z" fill="#152438"/>
<path fill-rule="evenodd" clip-rule="evenodd" d="M70.693 32.2956L69.5221 26.7985L69.269 25.4242H62.8769L62.6237 26.7985L61.4212 32.2956H54.5228L61.5478 0.249756H70.8828L77.9078 32.2956H70.7246H70.693ZM68.3513 20.2706L66.0729 7.43352L63.7946 20.2706H68.3513Z" fill="#152438"/>
</svg>
