<svg width="105" height="138" fill="none" xmlns="http://www.w3.org/2000/svg"><path d="M12.475 14.636h83.169v98.273H12.475V14.636z" fill="#00AFEC"/><path d="M8.317 8.364h83.168v100.363H8.317V8.364z" fill="#fff"/><path d="M2.08 2.09h12.475v12.546H2.079V2.091zM85.248 2.09h12.475v12.546H85.248V2.091zM3.119 102.455h12.475V115H3.119v-12.545zM85.248 102.455h12.475V115H85.248v-12.545z" fill="#FF1037"/><path fill-rule="evenodd" clip-rule="evenodd" d="M51.98 84.766c12.678 0 22.955-10.336 22.955-23.084 0-12.749-10.277-23.084-22.955-23.084-12.677 0-22.954 10.335-22.954 23.084 0 12.748 10.277 23.084 22.954 23.084zm0 2.007c13.78 0 24.95-11.234 24.95-25.091 0-13.857-11.17-25.091-24.95-25.091S27.03 47.825 27.03 61.68c0 13.858 11.17 25.092 24.95 25.092z" fill="#CCDBDE"/><path d="M61.265 24.046l17.881 10.382L68.822 52.41 50.941 42.028l10.324-17.982z" fill="#00AFEC"/><path d="M39.505 52.273c0 6.35-4.887 11.5-10.916 11.5-6.029 0-10.916-5.15-10.916-11.5 0-6.352 4.887-11.5 10.916-11.5 6.029 0 10.916 5.148 10.916 11.5z" fill="#CCDBDE"/><path d="M50.883 73.182l11.379 20.024H39.505l11.378-20.024z" fill="#FF1037"/></svg>