<svg width="50" height="50" viewBox="0 0 50 50" fill="none" xmlns="http://www.w3.org/2000/svg">
<path fill-rule="evenodd" clip-rule="evenodd" d="M25 48C37.7025 48 48 37.7025 48 25C48 12.2975 37.7025 2 25 2C12.2975 2 2 12.2975 2 25C2 37.7025 12.2975 48 25 48ZM25 50C38.8071 50 50 38.8071 50 25C50 11.1929 38.8071 0 25 0C11.1929 0 0 11.1929 0 25C0 38.8071 11.1929 50 25 50Z" fill="white"/>
<path fill-rule="evenodd" clip-rule="evenodd" d="M31.3431 17.9289L37.7071 24.2929C38.0976 24.6834 38.0976 25.3166 37.7071 25.7071L31.3431 32.0711C30.9526 32.4616 30.3195 32.4616 29.9289 32.0711C29.5384 31.6805 29.5384 31.0474 29.9289 30.6569L34.5858 26H13V24H34.5858L29.9289 19.3431C29.5384 18.9526 29.5384 18.3195 29.9289 17.9289C30.3195 17.5384 30.9526 17.5384 31.3431 17.9289Z" fill="white"/>
</svg>
