<svg width="50" height="50" viewBox="0 0 50 50" fill="none" xmlns="http://www.w3.org/2000/svg">
<path fill-rule="evenodd" clip-rule="evenodd" d="M25 2C12.2974 2 2 12.2975 2 25C2 37.7026 12.2975 48 25 48C37.7025 48 48 37.7025 48 25C48 12.2975 37.7025 2 25 2ZM25 2.18557e-06C11.1929 3.39263e-06 -3.39263e-06 11.1929 -2.18557e-06 25C-9.78513e-07 38.8071 11.1929 50 25 50C38.8071 50 50 38.8071 50 25C50 11.1929 38.8071 9.78513e-07 25 2.18557e-06Z" fill="white"/>
<path fill-rule="evenodd" clip-rule="evenodd" d="M18.6569 32.0711L12.2929 25.7071C11.9024 25.3166 11.9024 24.6834 12.2929 24.2929L18.6569 17.9289C19.0474 17.5384 19.6805 17.5384 20.0711 17.9289C20.4616 18.3195 20.4616 18.9526 20.0711 19.3431L15.4142 24L37 24L37 26L15.4142 26L20.0711 30.6569C20.4616 31.0474 20.4616 31.6805 20.0711 32.0711C19.6805 32.4616 19.0474 32.4616 18.6569 32.0711Z" fill="white"/>
</svg>
