<svg width="100" height="90" viewBox="0 0 100 90" fill="none" xmlns="http://www.w3.org/2000/svg">
<path d="M29.055 52.1038C31.8652 52.1038 34.5816 51.9223 37.1521 51.5844V23.4099C34.5818 23.0722 31.8652 22.8907 29.055 22.8907C13.0089 22.8907 0.00100708 28.7903 0.00100708 36.0682V38.926C0.00100708 46.2037 13.0089 52.1038 29.055 52.1038Z" fill="url(#paint0_angular)"/>
<path d="M29.055 66.8154C31.8652 66.8154 34.5816 66.6339 37.1521 66.2965V58.038C34.5811 58.3757 31.866 58.5597 29.055 58.5597C15.0485 58.5597 3.35807 54.0642 0.612061 48.0811C0.212162 48.9526 0.00100708 49.855 0.00100708 50.7801V53.6379C0.00100708 60.9158 13.0089 66.8154 29.055 66.8154Z" fill="url(#paint1_angular)"/>
<path d="M37.1511 73.3921V72.7502C34.5801 73.0878 31.865 73.2719 29.054 73.2719C15.0475 73.2719 3.35706 68.7763 0.611054 62.7933C0.211155 63.6645 0 64.5669 0 65.492V68.3498C0 75.6279 13.0079 81.5276 29.054 81.5276C32.2629 81.5276 35.3493 81.291 38.2355 80.8553C37.5201 79.3919 37.1511 77.8486 37.1511 76.2497V73.3921Z" fill="url(#paint2_angular)"/>
<path d="M70.946 0.572449C54.9 0.572449 41.8921 6.4721 41.8921 13.75V16.6078C41.8921 23.8857 54.9 29.7853 70.946 29.7853C86.9918 29.7853 100 23.8857 100 16.6078V13.75C100 6.4721 86.9918 0.572449 70.946 0.572449Z" fill="url(#paint3_angular)"/>
<path d="M70.946 36.2415C56.9396 36.2415 45.2491 31.7462 42.5031 25.7629C42.1032 26.6341 41.8921 27.5365 41.8921 28.4618V31.3197C41.8921 38.5975 54.9 44.4972 70.946 44.4972C86.9918 44.4972 100 38.5975 100 31.3197V28.4618C100 27.5365 99.7888 26.6341 99.3889 25.7629C96.6429 31.7462 84.9525 36.2415 70.946 36.2415Z" fill="url(#paint4_angular)"/>
<path d="M70.946 50.9537C56.9396 50.9537 45.2491 46.4582 42.5031 40.4751C42.1032 41.3464 41.8921 42.2488 41.8921 43.1741V46.0319C41.8921 53.31 54.9 59.2097 70.946 59.2097C86.9918 59.2097 100 53.31 100 46.0319V43.1741C100 42.2488 99.7888 41.3464 99.3889 40.4751C96.6429 46.4584 84.9525 50.9537 70.946 50.9537Z" fill="url(#paint5_angular)"/>
<path d="M70.946 66.4599C56.9396 66.4599 45.2491 61.9644 42.5031 55.9813C42.1032 56.8528 41.8921 57.755 41.8921 58.68V61.5381C41.8921 68.816 54.9 74.7156 70.946 74.7156C86.9918 74.7156 100 68.816 100 61.5381V58.68C100 57.755 99.7888 56.8523 99.3889 55.9813C96.6429 61.9641 84.9525 66.4599 70.946 66.4599Z" fill="url(#paint6_angular)"/>
<path d="M70.946 81.1718C56.9396 81.1718 45.2491 76.6765 42.5031 70.6935C42.1032 71.565 41.8921 72.4676 41.8921 73.3922V76.25C41.8921 83.5279 54.9 89.4276 70.946 89.4276C86.9918 89.4276 100 83.5279 100 76.25V73.3919C100 72.4669 99.7888 71.5643 99.3889 70.6932C96.6429 76.6763 84.9525 81.1718 70.946 81.1718Z" fill="url(#paint7_angular)"/>
<defs>
<radialGradient id="paint0_angular" cx="0" cy="0" r="1" gradientUnits="userSpaceOnUse" gradientTransform="translate(18.5765 37.4972) rotate(90) scale(14.6066 18.5755)">
<stop stop-color="white"/>
<stop offset="1" stop-color="#F4F5F7"/>
</radialGradient>
<radialGradient id="paint1_angular" cx="0" cy="0" r="1" gradientUnits="userSpaceOnUse" gradientTransform="translate(18.5765 57.4483) rotate(90) scale(9.36716 18.5755)">
<stop stop-color="white"/>
<stop offset="1" stop-color="#F4F5F7"/>
</radialGradient>
<radialGradient id="paint2_angular" cx="0" cy="0" r="1" gradientUnits="userSpaceOnUse" gradientTransform="translate(19.1177 72.1604) rotate(90) scale(9.36715 19.1177)">
<stop stop-color="white"/>
<stop offset="1" stop-color="#F4F5F7"/>
</radialGradient>
<radialGradient id="paint3_angular" cx="0" cy="0" r="1" gradientUnits="userSpaceOnUse" gradientTransform="translate(70.946 15.1789) rotate(90) scale(14.6065 29.054)">
<stop stop-color="white"/>
<stop offset="1" stop-color="#F4F5F7"/>
</radialGradient>
<radialGradient id="paint4_angular" cx="0" cy="0" r="1" gradientUnits="userSpaceOnUse" gradientTransform="translate(70.946 35.13) rotate(90) scale(9.36716 29.054)">
<stop stop-color="white"/>
<stop offset="1" stop-color="#F4F5F7"/>
</radialGradient>
<radialGradient id="paint5_angular" cx="0" cy="0" r="1" gradientUnits="userSpaceOnUse" gradientTransform="translate(70.946 49.8424) rotate(90) scale(9.36729 29.054)">
<stop stop-color="white"/>
<stop offset="1" stop-color="#F4F5F7"/>
</radialGradient>
<radialGradient id="paint6_angular" cx="0" cy="0" r="1" gradientUnits="userSpaceOnUse" gradientTransform="translate(70.946 65.3485) rotate(90) scale(9.36715 29.054)">
<stop stop-color="white"/>
<stop offset="1" stop-color="#F4F5F7"/>
</radialGradient>
<radialGradient id="paint7_angular" cx="0" cy="0" r="1" gradientUnits="userSpaceOnUse" gradientTransform="translate(70.946 80.0604) rotate(90) scale(9.36716 29.054)">
<stop stop-color="white"/>
<stop offset="1" stop-color="#F4F5F7"/>
</radialGradient>
</defs>
</svg>
