<svg width="24" height="24" viewBox="0 0 24 24" fill="none" xmlns="http://www.w3.org/2000/svg">
<g clip-path="url(#clip0)">
<path fill-rule="evenodd" clip-rule="evenodd" d="M12.8 19.2C13.6 19.2 13.6 18.0472 13.6 17.6C13.6 16.8 14.4 16 15.2 16C16 16 17.372 17.372 18.4 18.4C19.2 19.2 19.2 19.2 20 19.2C20.8 19.2 22.4 19.2 22.4 19.2C22.4 19.2 24 19.1392 24 17.6C24 17.1 23.452 16.252 21.6 14.4C20 12.8 19.1792 13.6264 21.6 10.4C23.0744 8.43525 24.1472 6.65525 23.9632 6.14165C23.7872 5.65125 19.6864 4.87045 19.2 5.60005C17.6 8.00005 17.3064 8.58805 16.8 9.60005C16 11.2 15.9208 12 15.2 12C14.4728 12 14.4 10.4472 14.4 9.60005C14.4 6.95525 14.7832 5.08485 13.6 4.80005C13.6 4.80005 12 4.80005 11.2 4.80005C9.91203 4.80005 8.80002 5.60005 8.80002 5.60005C8.80002 5.60005 7.80723 6.37445 8.00003 6.40005C8.23843 6.43205 9.60003 6.06885 9.60003 7.20005C9.60003 8.00005 9.60003 8.80005 9.60003 8.80005C9.60003 8.80005 9.60723 12 8.80002 12C8.00003 12 6.40003 8.80005 4.80003 6.40005C4.17203 5.45845 4.00003 5.60005 3.20003 5.60005C2.34243 5.60005 1.60083 5.63365 0.800025 5.63365C2.50824e-05 5.63365 -0.102375 6.14325 2.51085e-05 6.40005C1.60003 10.4 2.74963 12.912 5.78963 16.0768C8.57763 18.98 10.44 19.1344 12 19.2C12.4 19.2168 12 19.2 12.8 19.2Z" fill="white"/>
</g>
<defs>
<clipPath id="clip0">
<rect width="24" height="24" fill="white"/>
</clipPath>
</defs>
</svg>
