<svg width="80" height="80" viewBox="0 0 80 80" fill="none" xmlns="http://www.w3.org/2000/svg">
<rect width="80" height="80" fill="white"/>
<circle cx="44.5" cy="50.5" r="29.5" fill="#00AFEC"/>
<circle cx="34" cy="34" r="34" fill="#152438"/>
<circle cx="57.5" cy="25.5" r="22.5" fill="#FF1037"/>
<path d="M32.0979 11.8541C32.6966 10.0115 35.3034 10.0115 35.9021 11.8541L39.8374 23.9656C40.1051 24.7896 40.873 25.3475 41.7395 25.3475H54.4742C56.4117 25.3475 57.2172 27.8268 55.6498 28.9656L45.3472 36.4509C44.6462 36.9601 44.3529 37.8629 44.6206 38.6869L48.5559 50.7984C49.1546 52.641 47.0456 54.1732 45.4782 53.0344L35.1756 45.5492C34.4746 45.0399 33.5254 45.0399 32.8244 45.5492L22.5218 53.0344C20.9544 54.1732 18.8454 52.641 19.4441 50.7984L23.3794 38.6869C23.6471 37.8629 23.3538 36.9601 22.6528 36.4509L12.3502 28.9656C10.7828 27.8268 11.5883 25.3475 13.5258 25.3475H26.2605C27.127 25.3475 27.8949 24.7896 28.1626 23.9656L32.0979 11.8541Z" fill="white"/>
</svg>
