<svg width="60" height="60" fill="none" xmlns="http://www.w3.org/2000/svg"><path d="M56.483 0C44.487 0 30 8.613 30 19.31c0 2.488.94 4.75 2.704 6.76-1.788 4.589-2.678 9.868-2.704 15.926a33.944 33.944 0 00-1.654-3.642C29.425 36.694 30 34.889 30 32.946c0-10.696-14.487-19.31-26.483-19.31A3.521 3.521 0 000 17.153C0 29.15 8.613 43.636 19.31 43.636c2.648 0 5.047-1.039 7.152-3.035C28.847 45.636 30 51.576 30 58.636a1.363 1.363 0 102.727 0V42.273c0-5.41.702-10.098 2.129-14.195C36.628 29.348 38.58 30 40.69 30 51.386 30 60 15.513 60 3.517A3.521 3.521 0 0056.483 0zM26.737 35.581c-3.723-5.696-9.215-10.182-16.615-13.635a1.37 1.37 0 00-1.812.66 1.363 1.363 0 00.659 1.812c7.41 3.458 12.718 7.902 16.153 13.653-.111.123-.196.252-.316.372-1.636 1.636-3.486 2.466-5.495 2.466-8.932 0-16.584-13.062-16.584-23.756a.79.79 0 01.79-.79c10.693 0 23.756 7.652 23.756 16.583 0 .915-.195 1.792-.537 2.636zm13.952-8.308c-1.723 0-3.319-.648-4.773-1.853 2.906-6.326 7.859-11.066 15.14-14.65a1.364 1.364 0 00-1.203-2.448c-7.424 3.655-12.662 8.556-15.891 14.947-.804-1.231-1.235-2.553-1.235-3.96 0-8.93 13.063-16.582 23.756-16.582a.79.79 0 01.79.79c0 10.693-7.652 23.756-16.584 23.756z" fill="url(#paint0_linear)"/><defs><linearGradient id="paint0_linear" x1="30" y1="0" x2="30" y2="60" gradientUnits="userSpaceOnUse"><stop stop-color="#00AFEC"/><stop offset="1" stop-color="#307ABD"/></linearGradient></defs></svg>