<svg width="80" height="80" viewBox="0 0 80 80" fill="none" xmlns="http://www.w3.org/2000/svg">
<path d="M55.1716 1.37921H24.8269V37.2417H55.1716V1.37921Z" fill="#00AFEC"/>
<path d="M56.5517 38.6208H23.4482V0H56.5518V38.6208H56.5517ZM26.207 35.8622H53.7932V2.75859H26.207V35.8622Z" fill="#152438"/>
<path d="M40.5 78C58.4493 78 73 63.6731 73 46C73 28.3269 58.4493 14 40.5 14C22.5507 14 8 28.3269 8 46C8 63.6731 22.5507 78 40.5 78Z" fill="#152438"/>
<path d="M40 70C53.8071 70 65 59.031 65 45.5C65 31.969 53.8071 21 40 21C26.1929 21 15 31.969 15 45.5C15 59.031 26.1929 70 40 70Z" fill="white"/>
<path d="M40 80C21.2524 80 6 64.7473 6 46C6 27.2524 21.2524 12 40 12C58.7473 12 74 27.2524 74 46C74 64.7475 58.7473 80 40 80ZM40 15.4002C23.1271 15.4002 9.39996 29.1271 9.39996 46.0002C9.39996 62.8733 23.1269 76.6002 40 76.6002C56.8731 76.6002 70.6 62.8731 70.6 46.0002C70.6 29.1273 56.8731 15.4002 40 15.4002Z" fill="#152438"/>
<path d="M41.9585 32.0698L44.3303 39.4396C44.5355 40.0779 45.1244 40.5093 45.7887 40.5093H53.4633C54.9491 40.5093 55.5668 42.4289 54.3648 43.3102L48.1565 47.8652C47.6193 48.2597 47.394 48.9582 47.5992 49.5963L49.971 56.9661C50.4302 58.3926 48.8127 59.5789 47.6112 58.6972L41.4022 54.1428C40.865 53.7484 40.137 53.7484 39.5993 54.1428L33.3903 58.6972C32.1883 59.579 30.5715 58.3926 31.0305 56.9661L33.4023 49.5963C33.6075 48.9581 33.3828 48.2598 32.845 47.8652L26.6361 43.3108C25.4329 42.429 26.0506 40.5095 27.5364 40.5095H35.211C35.8752 40.5095 36.4642 40.0773 36.6694 39.4397L39.0412 32.0699C39.5009 30.6434 41.4994 30.6434 41.9585 32.0698Z" fill="#FF1037"/>
<path d="M60.6891 0H19.3105V2.75859H60.6891V0Z" fill="#152438"/>
</svg>
