<svg width="60" height="56" fill="none" xmlns="http://www.w3.org/2000/svg"><path d="M55 .5H5c-2.758 0-5 2.243-5 5v35c0 2.758 2.242 5 5 5h17.503c-.053 1.998-.436 5.192-1.862 6.692-.524.552-1.125.808-1.89.808a1.25 1.25 0 100 2.5h22.5a1.25 1.25 0 100-2.5c-.766 0-1.368-.256-1.892-.808-1.425-1.5-1.808-4.694-1.862-6.692H55c2.758 0 5-2.242 5-5v-35c0-2.757-2.242-5-5-5zM23.171 53c1.51-2.314 1.802-5.647 1.84-7.5h9.978c.038 1.853.33 5.186 1.84 7.5H23.17zM57.5 40.5c0 1.378-1.122 2.5-2.5 2.5H5a2.503 2.503 0 01-2.5-2.5v-5h55v5zm0-7.5h-55V5.5C2.5 4.122 3.622 3 5 3h50c1.378 0 2.5 1.122 2.5 2.5V33z" fill="url(#paint0_linear)"/><path d="M30 41.75a2.5 2.5 0 100-5 2.5 2.5 0 000 5z" fill="url(#paint1_linear)"/><defs><linearGradient id="paint0_linear" x1="30" y1=".5" x2="30" y2="55.5" gradientUnits="userSpaceOnUse"><stop stop-color="#00AFEC"/><stop offset="1" stop-color="#307ABD"/></linearGradient><linearGradient id="paint1_linear" x1="30" y1="36.75" x2="30" y2="41.75" gradientUnits="userSpaceOnUse"><stop stop-color="#00AFEC"/><stop offset="1" stop-color="#307ABD"/></linearGradient></defs></svg>