<svg width="80" height="80" viewBox="0 0 80 80" fill="none" xmlns="http://www.w3.org/2000/svg">
<rect width="80" height="80" fill="white"/>
<circle cx="46" cy="46" r="34" fill="#EAEAEA"/>
<circle cx="34" cy="34" r="34" fill="#C7C7C7"/>
<circle cx="40" cy="40" r="34" fill="#454545"/>
<path d="M38.0979 17.8541C38.6966 16.0115 41.3034 16.0115 41.9021 17.8541L45.8374 29.9656C46.1051 30.7896 46.873 31.3475 47.7395 31.3475H60.4742C62.4117 31.3475 63.2172 33.8268 61.6498 34.9656L51.3472 42.4509C50.6462 42.9601 50.3529 43.8629 50.6206 44.6869L54.5559 56.7984C55.1546 58.641 53.0456 60.1732 51.4782 59.0344L41.1756 51.5492C40.4746 51.0399 39.5254 51.0399 38.8244 51.5492L28.5218 59.0344C26.9544 60.1732 24.8454 58.641 25.4441 56.7984L29.3794 44.6869C29.6471 43.8629 29.3538 42.9601 28.6528 42.4509L18.3502 34.9656C16.7828 33.8268 17.5883 31.3475 19.5258 31.3475H32.2605C33.127 31.3475 33.8949 30.7896 34.1626 29.9656L38.0979 17.8541Z" fill="white"/>
</svg>
