<svg width="81" height="108" fill="none" xmlns="http://www.w3.org/2000/svg"><path fill-rule="evenodd" clip-rule="evenodd" d="M65.958 27.631c-5.894 2.875-20.208 6.663-28.067 5.75v13.466c11.578-1.683 22.454-6.031 28.067-11.642v-7.574z" fill="#CCDBDE"/><path fill-rule="evenodd" clip-rule="evenodd" d="M65.958 47.618c-5.895 3.577-20.209 8.977-28.068 8.977V70.06c11.578-3.016 23.226-9.538 28.068-15.148v-7.364.07z" fill="#00AFEC"/><path fill-rule="evenodd" clip-rule="evenodd" d="M65.958 69.148c-5.895 3.296-20.209 7.995-28.068 7.574v15.78c8.63-2.525 22.945-9.328 27.787-16.481l.28-6.873z" fill="#FF1037"/><path fill-rule="evenodd" clip-rule="evenodd" d="M79.992 31.699v41.727l-.14.49c-2.456 7.505-8.28 14.027-15.437 19.357-8.982 6.732-19.998 11.711-28.77 14.376l-1.122.351-1.053-.421c-7.157-2.945-14.595-7.854-20.7-13.885C7.158 88.153 2.527 81.63.21 74.829L0 74.268V0h79.922v3.296l.07 9.889c0 6.802-5.684 11.641-13.543 14.937-8.56 3.577-19.927 5.4-28.418 5.82v17.814c6.947-1.543 15.718-4.278 22.875-7.995 5.263-2.525 10.385-6.031 15.367-12.343h3.719v.28zm-41.96 26.72v16.41c7.788-2.315 17.822-6.312 25.33-11.291 5.684-3.717 9.894-7.785 10.034-11.642V43.41a42.809 42.809 0 01-6.526 4.559c-8.63 5.05-20.278 8.696-28.839 10.45zm0 23.282v18.234c7.297-2.665 15.577-6.732 22.453-11.922 5.965-4.488 10.876-9.818 12.911-15.639v-8.275c-1.824 1.753-4 3.366-6.385 4.909-8.701 5.68-20.42 10.239-28.98 12.623v.07zm-20.63 7.294c4.21 4.137 9.122 7.714 14.033 10.309V27.42h3.298c8-.07 20.35-1.683 29.19-5.4 5.474-2.315 9.473-5.26 9.473-8.837V6.593H6.666v66.624c2.035 5.61 5.894 11.08 10.736 15.779z" fill="#fff"/></svg>