<?xml version="1.0" encoding="UTF-8"?>
<!DOCTYPE svg PUBLIC "-//W3C//DTD SVG 1.1//EN" "http://www.w3.org/Graphics/SVG/1.1/DTD/svg11.dtd">
<!-- Creator: CorelDRAW X6 -->
<svg xmlns="http://www.w3.org/2000/svg" xml:space="preserve" width="96.0404mm" height="20.985mm" version="1.1" style="shape-rendering:geometricPrecision; text-rendering:geometricPrecision; image-rendering:optimizeQuality; fill-rule:evenodd; clip-rule:evenodd"
viewBox="0 0 9507 2077"
 xmlns:xlink="http://www.w3.org/1999/xlink">
 <defs>
  <style type="text/css">
   <![CDATA[
    .fil2 {fill:#00AFEC}
    .fil0 {fill:#152438}
    .fil1 {fill:#FF1037}
   ]]>
  </style>
 </defs>
 <g id="Layer_x0020_1">
  <metadata id="CorelCorpID_0Corel-Layer"/>
  <g id="_1001148560">
   <path class="fil0" d="M6493 623c0,-165 -25,-294 -74,-386 -78,-145 -213,-202 -413,-202l-444 0 0 1443 0 1 0 76 74 0 240 0 128 0c160,0 282,-48 365,-144 83,-96 124,-233 124,-413l0 -375zm-332 2l0 320c0,92 -8,162 -23,208 -25,79 -73,119 -144,121l0 0 -3 0 -70 0 -35 0 0 -52 0 -1 0 -879 0 -1 0 -43 34 0 1 0 66 0 7 0 0 0c56,2 97,25 125,71 28,47 43,133 43,255z"/>
   <polygon class="fil0" points="6671,1555 6671,35 7009,35 7009,1555 "/>
   <path class="fil0" d="M7707 1307c44,-3 77,-19 98,-48 24,-32 36,-86 36,-160l0 -1064 24 0 301 0 24 0 0 1048c0,130 -25,235 -75,316 -78,126 -212,189 -403,189l-5 0 0 0 -29 0 0 0 0 0 0 0 0 0 0 0 0 0 0 0 0 0 0 0 0 0c-191,0 -326,-62 -403,-186 -50,-80 -75,-186 -75,-318l0 -1048 24 0 301 0 24 0 0 702 0 363c0,56 6,97 18,125 21,50 61,78 118,83l25 0z"/>
   <path class="fil0" d="M3350 1054c0,294 -164,533 -451,533 -331,0 -485,-221 -485,-600l0 -426c0,-228 71,-383 213,-467 86,-51 210,-77 371,-77 129,0 254,21 322,38l0 182 0 57c-83,-14 -225,-29 -314,-29 -117,0 -194,34 -232,103 -23,42 -35,113 -35,210l0 193 0 224c0,130 -10,308 155,306 95,-1 124,-86 124,-195l0 -143 0 -53 -141 0 0 -246 474 0 0 389z"/>
   <path class="fil0" d="M5353 754c-39,76 -94,137 -157,187l244 613 -185 0 -158 0 -180 -454c-29,13 -57,24 -81,34l0 165 0 255 -333 0 0 -1522 435 0c234,0 410,48 482,262 27,82 35,259 -67,459zm-290 -396c-24,-40 -61,-59 -110,-60l-122 0 0 550c99,-35 180,-108 222,-198 49,-104 48,-229 10,-292z"/>
   <polygon class="fil0" points="8972,1335 8925,1335 8893,1335 8723,764 8723,976 8723,1555 8390,1555 8390,32 8716,32 8949,761 9182,32 9507,32 9507,1555 9175,1555 9175,764 9004,1335 "/>
   <path class="fil0" d="M4109 1555l-55 -261 -11 -66 -302 0 -11 66 -56 261 -324 0 304 -1522 488 0 304 1522 -337 0zm-106 -571l-111 -687 -111 687 223 0z"/>
  </g>
  <path class="fil1" d="M1615 530c61,0 111,49 111,110l0 605c0,236 -130,453 -338,565l-472 253c-54,29 -121,9 -150,-45 -29,-54 -9,-121 45,-150l472 -253c136,-73 221,-215 221,-370l0 -605c0,-61 50,-110 111,-110z"/>
  <path class="fil2" d="M1615 44c61,0 111,49 111,110l0 488c0,226 -119,435 -313,551l-493 293c-52,31 -120,14 -152,-38 -31,-52 -14,-120 38,-151l493 -293c127,-76 205,-213 205,-361l0 -488c0,-61 50,-110 111,-110z"/>
  <path class="fil0" d="M221 221l1394 0c61,0 111,-49 111,-110 0,-61 -50,-110 -111,-110l-1416 0c-110,0 -199,89 -199,199l0 1047c0,236 130,453 338,565l472 253c54,29 121,9 150,-45 29,-54 9,-121 -45,-150l-472 -253c-136,-73 -221,-215 -221,-370l0 -1025z"/>
  <path class="fil0" d="M1615 0c61,0 111,49 111,110 0,186 -102,319 -222,410 -118,89 -264,144 -380,178 -91,26 -151,102 -151,179l0 1090c0,61 -50,110 -111,110 -61,0 -111,-49 -111,-110l0 -1090c0,-193 143,-343 310,-391 105,-30 221,-76 308,-142 85,-64 134,-139 134,-233 0,-61 50,-110 111,-110z"/>
 </g>
</svg>
