<svg width="224" height="43" viewBox="0 0 224 43" fill="none" xmlns="http://www.w3.org/2000/svg">
<g clip-path="url(#clip0)">
<path d="M0 18.8125C0 8.42263 8.43769 0 18.8462 0H110.385C120.793 0 129.231 8.42263 129.231 18.8125C129.231 29.2024 120.793 37.625 110.385 37.625H18.8462C8.43769 37.625 0 29.2024 0 18.8125Z" fill="#EC0039"/>
<path d="M44.1382 28.4874V8.6167H50.2905C52.3687 8.6167 53.9453 9.08072 55.0212 10.0088C56.1057 10.9277 56.6479 12.2788 56.6479 14.0621C56.6479 15.072 56.4244 15.9409 55.978 16.6687C55.5317 17.3966 54.9205 17.9288 54.1462 18.2655C55.039 18.5202 55.7271 19.0343 56.2107 19.8077C56.6937 20.5719 56.9349 21.5182 56.9349 22.6463C56.9349 24.5752 56.4018 26.0309 55.3357 27.0135C54.2781 27.9961 52.7424 28.4874 50.728 28.4874H44.1382ZM48.1577 19.8486V25.1575H50.728C51.4481 25.1575 51.9949 24.9346 52.3687 24.4887C52.7424 24.0429 52.9292 23.4106 52.9292 22.5917C52.9292 20.8084 52.2821 19.8941 50.9878 19.8486H48.1577ZM48.1577 16.928H50.2495C51.8263 16.928 52.6148 16.1137 52.6148 14.4851C52.6148 13.5844 52.4324 12.9384 52.0679 12.5472C51.7033 12.156 51.1108 11.9604 50.2905 11.9604H48.1577V16.928Z" fill="white"/>
<path d="M65.8897 21.227H63.8936V28.4874H59.874V8.6167H66.2866C68.3004 8.6167 69.8544 9.1399 70.9486 10.1862C72.0513 11.2234 72.6027 12.7019 72.6027 14.6216C72.6027 17.2601 71.641 19.1071 69.7182 20.1625L73.2042 28.2963V28.4874H68.8841L65.8897 21.227ZM63.8936 17.8834H66.1767C66.979 17.8834 67.5805 17.6195 67.9816 17.0918C68.3828 16.555 68.5831 15.8408 68.5831 14.9491C68.5831 12.9566 67.8039 11.9604 66.2451 11.9604H63.8936V17.8834Z" fill="white"/>
<path d="M84.8664 24.4205H79.3843L78.3176 28.4874H74.0659L80.2868 8.6167H83.9645L90.2257 28.4874H85.9331L84.8664 24.4205ZM80.2593 21.0769H83.9779L82.1186 13.9938L80.2593 21.0769Z" fill="white"/>
<path d="M106.017 28.4874H101.998L96.1187 15.4541V28.4874H92.0991V8.6167H96.1187L102.011 21.6637V8.6167H106.017V28.4874Z" fill="white"/>
<path d="M109.244 28.4874V8.6167H114.507C116.832 8.6167 118.682 9.35367 120.058 10.8276C121.444 12.3015 122.15 14.3213 122.177 16.8871V20.1079C122.177 22.7191 121.484 24.7708 120.099 26.2629C118.723 27.7459 116.822 28.4874 114.398 28.4874H109.244ZM113.263 11.9604V25.1575H114.466C115.806 25.1575 116.749 24.8072 117.296 24.1066C117.843 23.3969 118.13 22.1778 118.158 20.4491V16.9963C118.158 15.1402 117.898 13.8482 117.378 13.1204C116.859 12.3834 115.975 11.9968 114.726 11.9604H113.263Z" fill="white"/>
<path d="M143.842 23.4651C143.842 22.4734 143.573 21.7137 143.035 21.186C142.497 20.6583 141.527 20.1443 140.123 19.6439C138.72 19.1435 137.644 18.6203 136.896 18.0744C136.158 17.5194 135.602 16.8916 135.229 16.191C134.864 15.4814 134.682 14.6716 134.682 13.7618C134.682 12.1878 135.206 10.8913 136.254 9.87229C137.312 8.8533 138.692 8.34375 140.396 8.34375C141.563 8.34375 142.602 8.60761 143.514 9.13533C144.425 9.65391 145.127 10.3772 145.619 11.3053C146.112 12.2333 146.358 13.2523 146.358 14.3623H143.842C143.842 13.134 143.546 12.1833 142.953 11.51C142.361 10.8367 141.508 10.5001 140.396 10.5001C139.385 10.5001 138.601 10.7821 138.045 11.3462C137.489 11.9103 137.211 12.7019 137.211 13.7208C137.211 14.5579 137.512 15.2585 138.113 15.8226C138.715 16.3867 139.645 16.8916 140.903 17.3375C142.862 17.9834 144.261 18.7795 145.1 19.7257C145.947 20.672 146.371 21.9093 146.371 23.4379C146.371 25.0483 145.847 26.3402 144.799 27.3137C143.75 28.2782 142.324 28.7604 140.52 28.7604C139.362 28.7604 138.291 28.5102 137.307 28.0097C136.332 27.5002 135.562 26.7906 134.996 25.8808C134.44 24.9619 134.162 23.911 134.162 22.7282H136.678C136.678 23.9565 137.02 24.9118 137.703 25.5942C138.396 26.2765 139.335 26.6177 140.52 26.6177C141.622 26.6177 142.452 26.3356 143.008 25.7716C143.564 25.2075 143.842 24.4387 143.842 23.4651Z" fill="white"/>
<path d="M159.209 19.3027H152.168V26.3448H160.371V28.4874H149.666V8.6167H160.234V10.773H152.168V17.16H159.209V19.3027Z" fill="white"/>
<path d="M172.867 23.3014H166.141L164.596 28.4874H162.025L168.437 8.6167H170.584L177.01 28.4874H174.44L172.867 23.3014ZM166.797 21.1451H172.225L169.504 12.1104L166.797 21.1451Z" fill="white"/>
<path d="M185.732 20.4491H182.232V28.4874H179.717V8.6167H185.295C187.246 8.6167 188.722 9.12625 189.725 10.1452C190.727 11.1552 191.229 12.6382 191.229 14.5943C191.229 15.8226 190.955 16.8962 190.408 17.8151C189.871 18.7249 189.105 19.4118 188.111 19.8759L191.967 28.3237V28.4874H189.273L185.732 20.4491ZM182.232 18.3064H185.267C186.316 18.3064 187.15 17.9698 187.769 17.2965C188.398 16.6232 188.713 15.7225 188.713 14.5943C188.713 12.0468 187.555 10.773 185.24 10.773H182.232V18.3064Z" fill="white"/>
<path d="M207.074 22.1823C206.965 24.3113 206.363 25.9399 205.27 27.0681C204.185 28.1963 202.649 28.7604 200.662 28.7604C198.666 28.7604 197.08 28.0052 195.904 26.4949C194.729 24.9755 194.141 22.9192 194.141 20.3262V16.7233C194.141 14.1394 194.742 12.0968 195.945 10.5956C197.158 9.09437 198.807 8.34375 200.895 8.34375C202.817 8.34375 204.304 8.92151 205.351 10.077C206.409 11.2234 206.983 12.8656 207.074 15.0038H204.545C204.435 13.3842 204.094 12.2287 203.52 11.5373C202.945 10.8458 202.07 10.5001 200.895 10.5001C199.537 10.5001 198.493 11.0323 197.763 12.0968C197.034 13.1522 196.67 14.7035 196.67 16.7506V20.3945C196.67 22.4052 197.007 23.9474 197.682 25.021C198.365 26.0946 199.359 26.6314 200.662 26.6314C201.966 26.6314 202.904 26.3084 203.479 25.6624C204.053 25.0164 204.408 23.8564 204.545 22.1823H207.074Z" fill="white"/>
<path d="M223.508 28.4874H220.992V19.3027H212.98V28.4874H210.479V8.6167H212.98V17.16H220.992V8.6167H223.508V28.4874Z" fill="white"/>
<path fill-rule="evenodd" clip-rule="evenodd" d="M18.8462 8.95835C13.3941 8.95835 8.97438 13.3702 8.97438 18.8125C8.97438 24.2549 13.3941 28.6667 18.8462 28.6667C24.2982 28.6667 28.7179 24.2549 28.7179 18.8125C28.7179 13.3702 24.2982 8.95835 18.8462 8.95835ZM0 18.8125C0 8.42263 8.43769 0 18.8462 0C29.2546 0 37.6923 8.42263 37.6923 18.8125C37.6923 29.2024 29.2546 37.625 18.8462 37.625C8.43769 37.625 0 29.2024 0 18.8125Z" fill="white"/>
<path fill-rule="evenodd" clip-rule="evenodd" d="M29.8528 28.1869C31.6052 26.4377 34.4464 26.4377 36.1987 28.1869L43.3782 35.3535C45.1305 37.1027 45.1305 39.9389 43.3782 41.6881C41.6258 43.4373 38.7846 43.4373 37.0323 41.6881L29.8528 34.5215C28.1005 32.7723 28.1005 29.9361 29.8528 28.1869Z" fill="white"/>
</g>
<defs>
<clipPath id="clip0">
<rect width="224" height="43" fill="white"/>
</clipPath>
</defs>
</svg>
