<svg width="1280" height="114" viewBox="0 0 1280 114" fill="none" xmlns="http://www.w3.org/2000/svg">
<path opacity="0.02" d="M70.5 2.99999H82.65V111H70.5V70.95H12.15V111H3.57628e-07V2.99999H12.15V58.65H70.5V2.99999ZM210.034 111L202.984 90.3H152.584L145.534 111H132.784L169.534 2.99999H186.034L222.784 111H210.034ZM156.484 78.75H198.934L177.634 16.35L156.484 78.75ZM266.768 25.95C267.668 17.55 271.868 11 279.368 6.29999C285.268 2.59999 292.918 0.749991 302.318 0.749991C311.818 0.749991 319.468 2.59999 325.268 6.29999C333.968 11.8 338.318 19.65 338.318 29.85C338.318 37.65 335.568 44 330.068 48.9C328.668 50.3 326.918 51.7 324.818 53.1C327.818 54.8 330.468 57.05 332.768 59.85C338.168 65.15 340.868 72 340.868 80.4C340.868 91.7 336.568 100.3 327.968 106.2C321.168 110.9 312.618 113.25 302.318 113.25C291.918 113.25 283.418 110.9 276.818 106.2C269.218 101.2 264.968 94.1 264.068 84.9L276.668 82.65C277.368 88.75 279.818 93.35 284.018 96.45C288.818 99.95 294.918 101.7 302.318 101.7C309.918 101.5 316.018 99.75 320.618 96.45C325.718 92.75 328.168 87.4 327.968 80.4C328.168 73.2 325.718 67.9 320.618 64.5C316.018 61 309.918 59.25 302.318 59.25H294.368V47.4H302.318C308.918 47.4 314.318 46 318.518 43.2C323.118 40.1 325.418 35.65 325.418 29.85C325.418 23.95 323.118 19.55 318.518 16.65C314.218 13.75 308.818 12.3 302.318 12.3C295.818 12.3 290.418 13.75 286.118 16.65C282.018 19.25 279.818 23.05 279.518 28.05L266.768 25.95ZM466.742 2.99999H478.892V111H466.742V70.95H408.392V111H396.242V2.99999H408.392V58.65H466.742V2.99999ZM606.276 111L599.226 90.3H548.826L541.776 111H529.026L565.776 2.99999H582.276L619.026 111H606.276ZM552.726 78.75H595.176L573.876 16.35L552.726 78.75ZM727.809 2.99999H740.109V111H727.809V61.2C721.009 70.4 711.309 75 698.709 75C692.809 75 687.259 73.85 682.059 71.55C676.859 69.15 672.559 65.8 669.159 61.5C665.659 57.1 663.309 52.15 662.109 46.65C660.909 41.05 660.309 34.4 660.309 26.7V2.99999H672.609V24.75C672.609 31.85 673.059 37.7 673.959 42.3C674.859 46.8 676.759 50.75 679.659 54.15C684.359 60.15 691.159 63.15 700.059 63.15C709.359 63.15 716.459 59.95 721.359 53.55C724.159 49.65 726.059 44.8 727.059 39C727.559 36.3 727.809 33.25 727.809 29.85V2.99999ZM868.534 15.15H813.634V50.85H859.534V63.15H813.634V98.85H868.534V111H801.484V2.99999H868.534V15.15ZM997.455 2.99999H1009.61V111H997.455V70.95H939.105V111H926.955V2.99999H939.105V58.65H997.455V2.99999ZM1139.99 2.99999H1150.79V111H1138.49V25.5L1081.94 111H1070.99V2.99999H1083.29V88.5L1139.99 2.99999ZM1279.4 15.15H1224.5V50.85H1270.4V63.15H1224.5V98.85H1279.4V111H1212.35V2.99999H1279.4V15.15Z" fill="#0E0E11"/>
</svg>
