<svg width="116" height="116" viewBox="0 0 116 116" fill="none" xmlns="http://www.w3.org/2000/svg">
<path d="M62.8331 29C62.8331 31.6692 60.6692 33.8331 58 33.8331C55.3308 33.8331 53.167 31.6692 53.167 29C53.167 26.3308 55.3308 24.167 58 24.167C60.6692 24.167 62.8331 26.3308 62.8331 29Z" fill="white"/>
<path d="M58 91.833C55.999 91.833 54.375 90.209 54.375 88.208V50.75H49.542C47.541 50.75 45.917 49.126 45.917 47.125C45.917 45.124 47.541 43.5 49.542 43.5H58C60.001 43.5 61.625 45.124 61.625 47.125V88.208C61.625 90.209 60.001 91.833 58 91.833Z" fill="white"/>
<path d="M58 116C26.0175 116 0 89.9825 0 58C0 26.0175 26.0175 0 58 0C89.9825 0 116 26.0175 116 58C116 89.9825 89.9825 116 58 116ZM58 7.25C30.0151 7.25 7.25 30.0151 7.25 58C7.25 85.9849 30.0151 108.75 58 108.75C85.9849 108.75 108.75 85.9849 108.75 58C108.75 30.0151 85.9849 7.25 58 7.25Z" fill="white"/>
<path d="M68.875 91.833H47.125C45.124 91.833 43.5 90.209 43.5 88.208C43.5 86.207 45.124 84.583 47.125 84.583H68.875C70.876 84.583 72.5 86.207 72.5 88.208C72.5 90.209 70.876 91.833 68.875 91.833Z" fill="white"/>
</svg>
