<svg width="46" height="45" viewBox="0 0 46 45" fill="none" xmlns="http://www.w3.org/2000/svg">
<path d="M42.9799 35.1396C43.0689 35.8215 42.8612 36.4143 42.3575 36.9181L36.444 42.787C36.1772 43.0834 35.829 43.3356 35.3992 43.5428C34.9694 43.7504 34.5471 43.8838 34.1322 43.943C34.1026 43.943 34.0134 43.9506 33.8651 43.9654C33.7172 43.9802 33.5245 43.9877 33.2874 43.9877C32.724 43.9877 31.8125 43.8914 30.5527 43.6987C29.2929 43.5059 27.7516 43.0316 25.9288 42.2759C24.1056 41.52 22.0381 40.3861 19.7262 38.8745C17.4142 37.363 14.9539 35.2879 12.3454 32.6497C10.2705 30.6045 8.55128 28.6481 7.18776 26.7808C5.82425 24.9133 4.72751 23.1867 3.89754 21.6008C3.0675 20.015 2.44503 18.5774 2.03005 17.288C1.61506 15.9986 1.33347 14.887 1.18526 13.9533C1.03705 13.0196 0.977769 12.286 1.00741 11.7524C1.03705 11.2189 1.05187 10.9224 1.05187 10.8632C1.11116 10.4482 1.24454 10.0258 1.45203 9.59598C1.65953 9.16618 1.91148 8.81789 2.2079 8.55111L8.1214 2.63761C8.53638 2.22263 9.01065 2.01514 9.5442 2.01514C9.92954 2.01514 10.2704 2.12629 10.5668 2.3486C10.8633 2.57092 11.1152 2.8451 11.3227 3.17116L16.0802 12.197C16.347 12.6713 16.4211 13.19 16.3025 13.7532C16.1839 14.3164 15.932 14.7907 15.5466 15.176L13.368 17.3547C13.3087 17.414 13.2568 17.5103 13.2123 17.6437C13.1679 17.7771 13.1457 17.8882 13.1457 17.9771C13.2642 18.5996 13.531 19.311 13.946 20.1113C14.3017 20.8227 14.85 21.6898 15.5911 22.7124C16.3321 23.735 17.3844 24.9132 18.7479 26.2471C20.0818 27.6107 21.2675 28.6703 22.3049 29.4263C23.3422 30.1819 24.2095 30.7379 24.906 31.0936C25.6026 31.4493 26.1362 31.6642 26.5066 31.7381L27.0623 31.8493C27.1215 31.8493 27.2181 31.827 27.3513 31.7826C27.4847 31.7381 27.5811 31.6863 27.6404 31.6269L30.1747 29.0481C30.7085 28.5739 31.3307 28.3367 32.0422 28.3367C32.5462 28.3367 32.9462 28.4256 33.2426 28.6035H33.287L41.8682 33.6722C42.4909 34.0579 42.8613 34.5468 42.9799 35.1396Z" stroke="#929FAB" stroke-width="2"/>
<path d="M35 26L44.5 31.5" stroke="#FF1037" stroke-width="2" stroke-linecap="round"/>
<path d="M14.9883 1L19.9775 10.7779" stroke="#FF1037" stroke-width="2" stroke-linecap="round"/>
</svg>
