<svg xmlns="http://www.w3.org/2000/svg" width="30" height="32" viewBox="0 0 30 32"><path fill="#a5b1bc" fill-rule="evenodd" d="M816.97,4797a3.04,3.04,0,0,1-2.97-3.1v-25.79a3.049,3.049,0,0,1,2.97-3.11h24.057a3.049,3.049,0,0,1,2.971,3.11v20.12a5.3,5.3,0,0,1-1.408,3.65l-3.3,3.57a4.694,4.694,0,0,1-3.5,1.55H816.97Zm0-29.94a0.965,0.965,0,0,0-.88,1.05v25.82a0.989,0.989,0,0,0,.88,1.05h18.593V4790a1.043,1.043,0,0,1,1.064-1.04h5.2l0.041-.17a2.166,2.166,0,0,0,.043-0.52v-20.16a0.989,0.989,0,0,0-.88-1.05H816.97Zm20.684,27.1,2.923-3.11h-2.923v3.11Zm-17.787-21.11a1.045,1.045,0,1,1,0-2.09H838.13a1.019,1.019,0,0,1,1.064,1.04,1.045,1.045,0,0,1-1.064,1.05H819.867Zm0,6.02a1.068,1.068,0,0,1-1.063-1.04,1.045,1.045,0,0,1,1.063-1.05H838.13a1.045,1.045,0,1,1,0,2.09H819.867Zm0,5.99a1.045,1.045,0,1,1,0-2.09H838.13a1.045,1.045,0,1,1,0,2.09H819.867Z" transform="translate(-814 -4765)"/></svg>
