<svg width="55" height="62" viewBox="0 0 55 62" fill="none" xmlns="http://www.w3.org/2000/svg">
<path d="M27.5 9.8V1" stroke="#FF1037" stroke-width="2" stroke-linecap="round"/>
<path d="M17.5996 29.3999C17.5996 28.2953 18.495 27.3999 19.5996 27.3999H22.1996C23.3042 27.3999 24.1996 28.2953 24.1996 29.3999V53.7999H17.5996V29.3999Z" stroke="#929FAB" stroke-width="2"/>
<rect x="27.5" y="2.1001" width="8.8" height="4.4" rx="1" fill="#FF1037"/>
<path d="M3.4176 27.4C2.4185 27.4 2.03703 26.0963 2.87855 25.5578L26.9609 10.145C27.2895 9.93474 27.7105 9.93474 28.0391 10.145L52.1215 25.5578C52.963 26.0963 52.5815 27.4 51.5824 27.4H43.9C43.3477 27.4 42.9 27.8478 42.9 28.4V52.8001C42.9 53.3523 42.4523 53.8 41.9 53.8H13.1C12.5477 53.8 12.1 53.3523 12.1 52.8V28.4C12.1 27.8478 11.6523 27.4 11.1 27.4H3.4176Z" stroke="#929FAB" stroke-width="2"/>
<path d="M4.40039 58.8C4.40039 56.0386 6.63897 53.8 9.40039 53.8H45.6004C48.3618 53.8 50.6004 56.0386 50.6004 58.8V60.4H4.40039V58.8Z" stroke="#929FAB" stroke-width="2"/>
<path d="M30.7998 29.3999C30.7998 28.2953 31.6952 27.3999 32.7998 27.3999H35.3998C36.5044 27.3999 37.3998 28.2953 37.3998 29.3999V53.7999H30.7998V29.3999Z" stroke="#929FAB" stroke-width="2"/>
</svg>
