<svg width="56" height="56" viewBox="0 0 56 56" fill="none" xmlns="http://www.w3.org/2000/svg">
<circle cx="28" cy="28" r="27" stroke="#929FAB" stroke-width="2"/>
<path d="M32.276 35.5179L31.9546 36.8316C30.9905 37.2121 30.2204 37.5018 29.6469 37.7009C29.0729 37.9006 28.4058 38 27.6458 38C26.4786 38 25.5708 37.7141 24.9233 37.1462C24.2759 36.576 23.952 35.8535 23.952 34.977C23.952 34.6377 23.9755 34.2887 24.0244 33.9331C24.0737 33.5772 24.152 33.1762 24.2592 32.7281L25.464 28.4635C25.5712 28.0552 25.6623 27.6683 25.7353 27.3024C25.8093 26.9388 25.845 26.6042 25.845 26.303C25.845 25.7584 25.7322 25.3775 25.5077 25.1633C25.2833 24.9498 24.8549 24.8413 24.219 24.8413C23.9075 24.8413 23.5874 24.8912 23.2611 24.9877C22.9333 25.0846 22.6532 25.1782 22.418 25.2651L22.7402 23.9504C23.5295 23.629 24.2839 23.3539 25.0056 23.1255C25.7273 22.8964 26.4092 22.7818 27.0542 22.7818C28.2133 22.7818 29.1077 23.062 29.7358 23.6222C30.3639 24.1829 30.6778 24.9098 30.6778 25.8054C30.6778 25.9907 30.6572 26.3173 30.6129 26.784C30.5696 27.2517 30.489 27.6802 30.3715 28.07L29.1718 32.3175C29.0735 32.6586 28.985 33.0486 28.9082 33.4875C28.8288 33.9235 28.7909 34.2566 28.7909 34.48C28.7909 35.044 28.9166 35.4291 29.1687 35.6338C29.4227 35.8385 29.8601 35.9403 30.4814 35.9403C30.7731 35.9403 31.1049 35.8886 31.4737 35.7869C31.8415 35.6853 32.1096 35.596 32.276 35.5179ZM32.5803 17.6859C32.5803 18.426 32.3013 19.058 31.7409 19.5777C31.1818 20.0992 30.5082 20.3601 29.7201 20.3601C28.9296 20.3601 28.2543 20.0992 27.6889 19.5777C27.1245 19.0578 26.8416 18.426 26.8416 17.6859C26.8416 16.9474 27.1245 16.3143 27.6889 15.7881C28.2533 15.2626 28.9298 15 29.7201 15C30.508 15 31.1818 15.2632 31.7409 15.7881C32.3018 16.3143 32.5803 16.9476 32.5803 17.6859Z" fill="#FF1037"/>
</svg>
