<svg xmlns="http://www.w3.org/2000/svg" width="26" height="37" viewBox="0 0 26 37"><path fill="#a5b1bc" fill-rule="evenodd" d="M1151.86,4798.99a5.9,5.9,0,0,1-5.86-5.93v-12.07a5.91,5.91,0,0,1,2.25-4.67l0.13-.11v-3.45a10.616,10.616,0,1,1,21.23,0v3.45l0.13,0.11a5.91,5.91,0,0,1,2.25,4.67v12.07a5.894,5.894,0,0,1-5.85,5.93h-14.28Zm0-21.74a3.7,3.7,0,0,0-3.67,3.72v12.07a3.688,3.688,0,0,0,3.67,3.71h14.28a3.685,3.685,0,0,0,3.66-3.71v-12.07a3.694,3.694,0,0,0-3.66-3.72h-14.28Zm14.28-2.2a5.473,5.473,0,0,1,.9.08l0.38,0.06v-2.43a8.426,8.426,0,1,0-16.85,0v2.43l0.39-.06a5.378,5.378,0,0,1,.9-0.08h14.28Zm-7.14,17.64a3.018,3.018,0,0,1-3-3.04v-1.68l-0.08-.09a4.075,4.075,0,0,1-.87-2.52,3.976,3.976,0,0,1,3.95-4,3.907,3.907,0,0,1,2.47.88,4.052,4.052,0,0,1,.6,5.64l-0.07.09v1.68A3.024,3.024,0,0,1,1159,4792.69Zm0-9.13a1.773,1.773,0,0,0-1.76,1.78,1.8,1.8,0,0,0,.58,1.33,1.128,1.128,0,0,1,.37.83v2.12a0.81,0.81,0,1,0,1.62,0v-2.12a1.091,1.091,0,0,1,.36-0.81,1.816,1.816,0,0,0,.59-1.35A1.773,1.773,0,0,0,1159,4783.56Z" transform="translate(-1146 -4762)"/></svg>
