<svg xmlns="http://www.w3.org/2000/svg" width="25" height="37.97" viewBox="0 0 25 37.97"><path fill="#a5b1bc" fill-rule="evenodd" d="M511.931,1902.78a0.969,0.969,0,0,1-.926.65h-3.948v16.04h0.659a0.981,0.981,0,0,1,.957.74l1.645,6.55a0.972,0.972,0,0,1-.18.84,0.983,0.983,0,0,1-.777.38h-19.74a0.986,0.986,0,0,1-.778-0.38,0.969,0.969,0,0,1-.179-0.84l1.645-6.55a0.978,0.978,0,0,1,.957-0.74h0.658v-16.04h-3.948a0.965,0.965,0,0,1-.925-0.65,0.945,0.945,0,0,1,.283-1.08l11.17-9.53v-1.18a0.987,0.987,0,1,1,1.974,0v1.18l11.168,9.53A0.944,0.944,0,0,1,511.931,1902.78Zm-21.046,23.23H508.1l-1.151-4.58H492.036Zm3.013-6.54h11.186v-16.04H493.9v16.04Zm5.593-25.56-8.847,7.55h17.693Zm0,22.61a0.984,0.984,0,0,1-.987-0.98v-1.64a0.987,0.987,0,0,1,1.974,0v1.64A0.985,0.985,0,0,1,499.491,1916.52Zm0-6.55a0.984,0.984,0,0,1-.987-0.98v-1.64a0.987,0.987,0,0,1,1.974,0v1.64A0.985,0.985,0,0,1,499.491,1909.97Z" transform="translate(-487 -1890)"/></svg>
