<svg xmlns="http://www.w3.org/2000/svg" width="34" height="34" viewBox="0 0 34 34"><path fill="#a5b1bc" fill-rule="evenodd" d="M844.809,7752a1.191,1.191,0,0,1-.84-0.34l-7.925-7.79-0.229.17a14.837,14.837,0,0,1-9.024,3.05,14.547,14.547,0,1,1,0-29.09,14.858,14.858,0,0,1,5.75,1.14,15.018,15.018,0,0,1,4.7,3.12,14.6,14.6,0,0,1,3.175,4.63,14.213,14.213,0,0,1,1.165,5.66,14.064,14.064,0,0,1-.966,5.14,14.542,14.542,0,0,1-2.649,4.35l-0.2.22,7.877,7.75a1.138,1.138,0,0,1,.349.82,1.161,1.161,0,0,1-.349.83A1.193,1.193,0,0,1,844.809,7752Zm-18.015-31.66a12.207,12.207,0,1,0,12.416,12.2,12.323,12.323,0,0,0-12.416-12.2h0Zm0,19.07a1.177,1.177,0,0,1-1.188-1.17v-4.7h-4.785a1.17,1.17,0,1,1,0-2.34h4.785v-4.7a1.189,1.189,0,0,1,2.377,0v4.7h4.783a1.17,1.17,0,1,1,0,2.34h-4.783v4.7A1.178,1.178,0,0,1,826.794,7739.41Z" transform="translate(-812 -7718)"/></svg>
