<svg width="56" height="56" viewBox="0 0 56 56" fill="none" xmlns="http://www.w3.org/2000/svg">
<circle cx="28" cy="28" r="27" stroke="#929FAB" stroke-width="2"/>
<path d="M26.5996 32.9941C26.5996 31.8223 26.7217 30.8701 26.9658 30.1377C27.21 29.4053 27.8057 28.4727 28.7529 27.3398L29.7783 26.0215C30.4619 25.0645 30.8037 24.0684 30.8037 23.0332C30.8037 22.0078 30.5889 21.207 30.1592 20.6309C29.7393 20.0449 29.1338 19.752 28.3428 19.752C27.6006 19.752 26.9805 20.0156 26.4824 20.543C25.9941 21.0703 25.75 21.7783 25.75 22.667H23.1719C23.1914 21.0557 23.6797 19.7715 24.6367 18.8145C25.5938 17.8574 26.8291 17.3789 28.3428 17.3789C29.915 17.3789 31.1504 17.8721 32.0488 18.8584C32.9473 19.8447 33.3965 21.207 33.3965 22.9453C33.3965 24.6055 32.7178 26.2705 31.3604 27.9404L30.0127 29.5664C29.4561 30.3574 29.1777 31.5 29.1777 32.9941H26.5996ZM28.0059 36.085C28.4941 36.085 28.8604 36.2363 29.1045 36.5391C29.3584 36.832 29.4854 37.1982 29.4854 37.6377C29.4854 38.0771 29.3584 38.4434 29.1045 38.7363C28.8604 39.0195 28.4941 39.1611 28.0059 39.1611C27.5078 39.1611 27.1367 39.0195 26.8926 38.7363C26.6582 38.4434 26.541 38.0771 26.541 37.6377C26.541 37.1982 26.6582 36.832 26.8926 36.5391C27.1367 36.2363 27.5078 36.085 28.0059 36.085Z" fill="#FF1037"/>
</svg>
