<svg width="335" height="312" viewBox="0 0 335 312" fill="none" xmlns="http://www.w3.org/2000/svg">
<path d="M0.5 9.99999C0.5 4.75329 4.75329 0.5 10 0.5H325C330.247 0.5 334.5 4.7533 334.5 10V302C334.5 307.247 330.247 311.5 325 311.5H9.99999C4.75329 311.5 0.5 307.247 0.5 302V9.99999Z" fill="#FAFAFA" stroke="#CCDBDE"/>
<path d="M0.5 10C0.5 4.7533 4.75329 0.5 10 0.5H325C330.247 0.5 334.5 4.7533 334.5 10V35.5H0.5V10Z" fill="url(#paint0_linear)" stroke="#CCDBDE"/>
<g filter="url(#filter0_d)">
<rect x="20" y="89" width="295" height="40" rx="5" fill="white"/>
</g>
<path d="M218 89H310C312.761 89 315 91.2386 315 94V124C315 126.761 312.761 129 310 129H218V89Z" fill="#FE1138"/>
<path d="M237.562 114H236.148V104.493H230.89V114H229.483V103.336H237.562V114ZM246.607 110.125C246.607 111.332 246.332 112.303 245.78 113.041C245.228 113.778 244.481 114.146 243.539 114.146C242.577 114.146 241.82 113.841 241.268 113.231V117.047H239.913V106.075H241.151L241.217 106.954C241.769 106.271 242.535 105.929 243.517 105.929C244.469 105.929 245.221 106.288 245.772 107.005C246.329 107.723 246.607 108.722 246.607 110.001V110.125ZM245.252 109.972C245.252 109.078 245.062 108.373 244.681 107.855C244.3 107.337 243.778 107.079 243.114 107.079C242.293 107.079 241.678 107.442 241.268 108.17V111.957C241.673 112.679 242.293 113.041 243.128 113.041C243.778 113.041 244.293 112.784 244.674 112.271C245.06 111.754 245.252 110.987 245.252 109.972ZM247.977 109.964C247.977 109.188 248.128 108.49 248.431 107.87C248.739 107.25 249.164 106.771 249.706 106.434C250.252 106.097 250.875 105.929 251.573 105.929C252.652 105.929 253.524 106.302 254.188 107.049C254.857 107.796 255.191 108.79 255.191 110.03V110.125C255.191 110.897 255.042 111.59 254.745 112.206C254.452 112.816 254.029 113.292 253.478 113.634C252.931 113.976 252.301 114.146 251.588 114.146C250.514 114.146 249.642 113.773 248.973 113.026C248.309 112.279 247.977 111.29 247.977 110.06V109.964ZM249.339 110.125C249.339 111.004 249.542 111.71 249.947 112.242C250.357 112.774 250.904 113.041 251.588 113.041C252.276 113.041 252.823 112.772 253.229 112.235C253.634 111.693 253.836 110.936 253.836 109.964C253.836 109.095 253.629 108.392 253.214 107.855C252.804 107.313 252.257 107.042 251.573 107.042C250.904 107.042 250.365 107.308 249.955 107.84C249.544 108.373 249.339 109.134 249.339 110.125ZM257.015 114V106.075H260.106C261.161 106.075 261.969 106.261 262.53 106.632C263.097 106.998 263.38 107.538 263.38 108.25C263.38 108.617 263.27 108.949 263.05 109.247C262.831 109.54 262.506 109.764 262.076 109.92C262.555 110.033 262.938 110.252 263.226 110.58C263.519 110.907 263.666 111.297 263.666 111.751C263.666 112.479 263.397 113.036 262.86 113.421C262.328 113.807 261.573 114 260.597 114H257.015ZM258.37 110.521V112.909H260.611C261.178 112.909 261.6 112.804 261.878 112.594C262.162 112.384 262.303 112.088 262.303 111.708C262.303 110.917 261.722 110.521 260.56 110.521H258.37ZM258.37 109.437H260.121C261.39 109.437 262.025 109.066 262.025 108.324C262.025 107.582 261.424 107.198 260.223 107.174H258.37V109.437ZM268.749 114.146C267.674 114.146 266.8 113.795 266.126 113.092C265.453 112.384 265.116 111.439 265.116 110.257V110.008C265.116 109.222 265.265 108.521 265.562 107.906C265.865 107.286 266.285 106.803 266.822 106.456C267.364 106.104 267.95 105.929 268.58 105.929C269.61 105.929 270.411 106.268 270.982 106.947C271.554 107.625 271.839 108.597 271.839 109.862V110.426H266.471C266.49 111.207 266.717 111.839 267.152 112.323C267.591 112.801 268.148 113.041 268.822 113.041C269.3 113.041 269.706 112.943 270.038 112.748C270.37 112.552 270.66 112.293 270.909 111.971L271.737 112.616C271.073 113.636 270.077 114.146 268.749 114.146ZM268.58 107.042C268.033 107.042 267.574 107.242 267.203 107.643C266.832 108.038 266.603 108.595 266.515 109.312H270.484V109.21C270.445 108.521 270.26 107.989 269.928 107.613C269.596 107.232 269.146 107.042 268.58 107.042ZM280.108 110.125C280.108 111.332 279.833 112.303 279.281 113.041C278.729 113.778 277.982 114.146 277.04 114.146C276.078 114.146 275.321 113.841 274.769 113.231V117.047H273.414V106.075H274.652L274.718 106.954C275.27 106.271 276.036 105.929 277.018 105.929C277.97 105.929 278.722 106.288 279.273 107.005C279.83 107.723 280.108 108.722 280.108 110.001V110.125ZM278.753 109.972C278.753 109.078 278.563 108.373 278.182 107.855C277.801 107.337 277.279 107.079 276.615 107.079C275.794 107.079 275.179 107.442 274.769 108.17V111.957C275.174 112.679 275.794 113.041 276.629 113.041C277.279 113.041 277.794 112.784 278.175 112.271C278.561 111.754 278.753 110.987 278.753 109.972ZM286.964 106.075H288.319V114H286.964V108.221L283.309 114H281.954V106.075H283.309V111.861L286.964 106.075ZM296.383 107.174H293.724V114H292.369V107.174H289.762V106.075H296.383V107.174ZM299.181 108.807H301.239C302.137 108.817 302.848 109.051 303.37 109.51C303.893 109.969 304.154 110.592 304.154 111.378C304.154 112.169 303.885 112.804 303.348 113.282C302.811 113.761 302.088 114 301.18 114H297.826V106.075H299.181V108.807ZM299.181 109.913V112.894H301.195C301.703 112.894 302.096 112.765 302.374 112.506C302.652 112.242 302.792 111.883 302.792 111.429C302.792 110.99 302.655 110.631 302.381 110.353C302.113 110.069 301.734 109.923 301.246 109.913H299.181Z" fill="white"/>
<path d="M31.644 110.825V115H30.2378V104.336H34.1709C35.3379 104.336 36.251 104.634 36.9102 105.229C37.5742 105.825 37.9062 106.614 37.9062 107.595C37.9062 108.63 37.5815 109.429 36.9321 109.99C36.2876 110.547 35.3623 110.825 34.1562 110.825H31.644ZM31.644 109.675H34.1709C34.9229 109.675 35.499 109.5 35.8994 109.148C36.2998 108.792 36.5 108.279 36.5 107.61C36.5 106.975 36.2998 106.467 35.8994 106.086C35.499 105.706 34.9497 105.508 34.2515 105.493H31.644V109.675ZM39.0269 110.964C39.0269 110.188 39.1782 109.49 39.481 108.87C39.7886 108.25 40.2134 107.771 40.7554 107.434C41.3022 107.097 41.9248 106.929 42.623 106.929C43.7021 106.929 44.5737 107.302 45.2378 108.049C45.9067 108.796 46.2412 109.79 46.2412 111.03V111.125C46.2412 111.897 46.0923 112.59 45.7944 113.206C45.5015 113.816 45.0791 114.292 44.5273 114.634C43.9805 114.976 43.3506 115.146 42.6377 115.146C41.5635 115.146 40.6919 114.773 40.0229 114.026C39.3589 113.279 39.0269 112.29 39.0269 111.06V110.964ZM40.3892 111.125C40.3892 112.004 40.5918 112.71 40.9971 113.242C41.4072 113.774 41.9541 114.041 42.6377 114.041C43.3262 114.041 43.873 113.772 44.2783 113.235C44.6836 112.693 44.8862 111.936 44.8862 110.964C44.8862 110.095 44.6787 109.392 44.2637 108.855C43.8535 108.313 43.3066 108.042 42.623 108.042C41.9541 108.042 41.4146 108.308 41.0044 108.84C40.5942 109.373 40.3892 110.134 40.3892 111.125ZM52.5034 113.206L55.1987 107.075H56.8906V115H55.5356V109.236L52.9722 115H52.0347L49.4199 109.111V115H48.0649V107.075H49.8228L52.5034 113.206ZM63.9658 115C63.8877 114.844 63.8242 114.565 63.7754 114.165C63.1455 114.819 62.3936 115.146 61.5195 115.146C60.7383 115.146 60.0962 114.927 59.5933 114.487C59.0952 114.043 58.8462 113.481 58.8462 112.803C58.8462 111.978 59.1587 111.338 59.7837 110.884C60.4136 110.425 61.2974 110.195 62.4351 110.195H63.7534V109.573C63.7534 109.099 63.6118 108.723 63.3286 108.445C63.0454 108.162 62.6279 108.02 62.0762 108.02C61.5928 108.02 61.1875 108.142 60.8604 108.386C60.5332 108.63 60.3696 108.926 60.3696 109.272H59.0073C59.0073 108.877 59.1465 108.496 59.4248 108.13C59.708 107.759 60.0889 107.466 60.5674 107.251C61.0508 107.036 61.5806 106.929 62.1567 106.929C63.0698 106.929 63.7852 107.158 64.3027 107.617C64.8203 108.071 65.0889 108.699 65.1084 109.5V113.147C65.1084 113.875 65.2012 114.453 65.3867 114.883V115H63.9658ZM61.7173 113.967C62.1421 113.967 62.5449 113.857 62.9258 113.638C63.3066 113.418 63.5825 113.132 63.7534 112.781V111.155H62.6914C61.0312 111.155 60.2012 111.641 60.2012 112.612C60.2012 113.037 60.3428 113.369 60.626 113.608C60.9092 113.848 61.2729 113.967 61.7173 113.967ZM68.7119 107.075V113.894H71.6123V107.075H72.9673V113.894H75.8604V107.075H77.2227V115H67.3496V107.075H68.7119ZM81.8296 111.624H80.8408V115H79.4785V107.075H80.8408V110.43H81.7271L84.3931 107.075H86.0337L82.8989 110.884L86.2974 115H84.5762L81.8296 111.624ZM92.3545 115C92.2764 114.844 92.2129 114.565 92.1641 114.165C91.5342 114.819 90.7822 115.146 89.9082 115.146C89.127 115.146 88.4849 114.927 87.9819 114.487C87.4839 114.043 87.2349 113.481 87.2349 112.803C87.2349 111.978 87.5474 111.338 88.1724 110.884C88.8022 110.425 89.686 110.195 90.8237 110.195H92.1421V109.573C92.1421 109.099 92.0005 108.723 91.7173 108.445C91.4341 108.162 91.0166 108.02 90.4648 108.02C89.9814 108.02 89.5762 108.142 89.249 108.386C88.9219 108.63 88.7583 108.926 88.7583 109.272H87.396C87.396 108.877 87.5352 108.496 87.8135 108.13C88.0967 107.759 88.4775 107.466 88.9561 107.251C89.4395 107.036 89.9692 106.929 90.5454 106.929C91.4585 106.929 92.1738 107.158 92.6914 107.617C93.209 108.071 93.4775 108.699 93.4971 109.5V113.147C93.4971 113.875 93.5898 114.453 93.7754 114.883V115H92.3545ZM90.106 113.967C90.5308 113.967 90.9336 113.857 91.3145 113.638C91.6953 113.418 91.9712 113.132 92.1421 112.781V111.155H91.0801C89.4199 111.155 88.5898 111.641 88.5898 112.612C88.5898 113.037 88.7314 113.369 89.0146 113.608C89.2979 113.848 89.6616 113.967 90.106 113.967Z" fill="#152438"/>
<path d="M32.5391 182.586C32.4453 184.414 31.9297 185.812 30.9922 186.781C30.0625 187.75 28.7461 188.234 27.043 188.234C25.332 188.234 23.9727 187.586 22.9648 186.289C21.957 184.984 21.4531 183.219 21.4531 180.992V177.898C21.4531 175.68 21.9688 173.926 23 172.637C24.0391 171.348 25.4531 170.703 27.2422 170.703C28.8906 170.703 30.1641 171.199 31.0625 172.191C31.9688 173.176 32.4609 174.586 32.5391 176.422H30.3711C30.2773 175.031 29.9844 174.039 29.4922 173.445C29 172.852 28.25 172.555 27.2422 172.555C26.0781 172.555 25.1836 173.012 24.5586 173.926C23.9336 174.832 23.6211 176.164 23.6211 177.922V181.051C23.6211 182.777 23.9102 184.102 24.4883 185.023C25.0742 185.945 25.9258 186.406 27.043 186.406C28.1602 186.406 28.9648 186.129 29.457 185.574C29.9492 185.02 30.2539 184.023 30.3711 182.586H32.5391ZM44.3281 182.27C44.3281 184.277 43.9648 185.773 43.2383 186.758C42.5195 187.742 41.5 188.234 40.1797 188.234C38.9062 188.234 37.9258 187.754 37.2383 186.793V192.875H35.1758V175.32H37.0508L37.1562 176.727C37.8516 175.633 38.8477 175.086 40.1445 175.086C41.5352 175.086 42.5742 175.57 43.2617 176.539C43.9492 177.508 44.3047 178.957 44.3281 180.887V182.27ZM42.2656 181.086C42.2656 179.664 42.0469 178.617 41.6094 177.945C41.1719 177.266 40.4688 176.926 39.5 176.926C38.5078 176.926 37.7539 177.422 37.2383 178.414V185.012C37.7461 185.98 38.5078 186.465 39.5234 186.465C40.4609 186.465 41.1484 186.129 41.5859 185.457C42.0312 184.777 42.2578 183.742 42.2656 182.352V181.086ZM51.5352 188.234C49.957 188.234 48.7461 187.766 47.9023 186.828C47.0586 185.883 46.6289 184.5 46.6133 182.68V181.145C46.6133 179.254 47.0234 177.773 47.8438 176.703C48.6719 175.625 49.8242 175.086 51.3008 175.086C52.7852 175.086 53.8945 175.559 54.6289 176.504C55.3633 177.449 55.7383 178.922 55.7539 180.922V182.281H48.6758V182.574C48.6758 183.934 48.9297 184.922 49.4375 185.539C49.9531 186.156 50.6914 186.465 51.6523 186.465C52.2617 186.465 52.7969 186.352 53.2578 186.125C53.7266 185.891 54.1641 185.523 54.5703 185.023L55.6484 186.336C54.75 187.602 53.3789 188.234 51.5352 188.234ZM51.3008 176.867C50.4414 176.867 49.8047 177.164 49.3906 177.758C48.9766 178.344 48.7422 179.258 48.6875 180.5H53.6797V180.219C53.625 179.016 53.4062 178.156 53.0234 177.641C52.6484 177.125 52.0742 176.867 51.3008 176.867ZM58.2266 186.23L58.8477 185.34C59.5195 184.309 59.9062 182.789 60.0078 180.781L60.1836 175.32H67.2617V186.23H68.7383V191.727H66.6641V188H59.457V191.727H57.3711L57.3828 186.23H58.2266ZM60.5352 186.23H65.1992V177.324H62.1992L62.0938 180.418C61.9844 182.887 61.4648 184.824 60.5352 186.23ZM80.0234 188H77.9609V182.586H73.3906V188H71.3047V175.32H73.3906V180.816H77.9609V175.32H80.0234V188ZM91.6133 175.32V188H89.5391V183.066H87.0898L84.5352 188H82.3086L85.0508 182.703C84.3633 182.406 83.8398 181.949 83.4805 181.332C83.1211 180.715 82.9414 180 82.9414 179.188C82.9414 178.023 83.3164 177.09 84.0664 176.387C84.8164 175.676 85.8242 175.32 87.0898 175.32H91.6133ZM85.0156 179.211C85.0156 179.836 85.1836 180.34 85.5195 180.723C85.8555 181.098 86.3086 181.285 86.8789 181.285H89.5391V177.078H87.0664C86.4492 177.078 85.9531 177.277 85.5781 177.676C85.2031 178.066 85.0156 178.578 85.0156 179.211ZM103.191 175.32V188H101.117V183.066H98.668L96.1133 188H93.8867L96.6289 182.703C95.9414 182.406 95.418 181.949 95.0586 181.332C94.6992 180.715 94.5195 180 94.5195 179.188C94.5195 178.023 94.8945 177.09 95.6445 176.387C96.3945 175.676 97.4023 175.32 98.668 175.32H103.191ZM96.5938 179.211C96.5938 179.836 96.7617 180.34 97.0977 180.723C97.4336 181.098 97.8867 181.285 98.457 181.285H101.117V177.078H98.6445C98.0273 177.078 97.5312 177.277 97.1562 177.676C96.7812 178.066 96.5938 178.578 96.5938 179.211ZM21.7344 216V203.32H25.9883C27.4414 203.32 28.5508 203.617 29.3164 204.211C30.082 204.805 30.4648 205.668 30.4648 206.801C30.4648 207.387 30.3125 207.914 30.0078 208.383C29.7031 208.852 29.2578 209.211 28.6719 209.461C29.3203 209.633 29.8398 209.98 30.2305 210.504C30.6289 211.027 30.8281 211.66 30.8281 212.402C30.8281 213.574 30.4609 214.469 29.7266 215.086C29 215.695 27.9688 216 26.6328 216H21.7344ZM23.7969 210.434V214.254H26.6562C28.0547 214.254 28.7539 213.613 28.7539 212.332C28.7539 211.066 28.0469 210.434 26.6328 210.434H23.7969ZM23.7969 208.699H25.9648C27.582 208.699 28.3906 208.105 28.3906 206.918C28.3906 205.723 27.6289 205.109 26.1055 205.078H23.7969V208.699ZM38.1758 216.234C36.5977 216.234 35.3867 215.766 34.543 214.828C33.6992 213.883 33.2695 212.5 33.2539 210.68V209.145C33.2539 207.254 33.6641 205.773 34.4844 204.703C35.3125 203.625 36.4648 203.086 37.9414 203.086C39.4258 203.086 40.5352 203.559 41.2695 204.504C42.0039 205.449 42.3789 206.922 42.3945 208.922V210.281H35.3164V210.574C35.3164 211.934 35.5703 212.922 36.0781 213.539C36.5938 214.156 37.332 214.465 38.293 214.465C38.9023 214.465 39.4375 214.352 39.8984 214.125C40.3672 213.891 40.8047 213.523 41.2109 213.023L42.2891 214.336C41.3906 215.602 40.0195 216.234 38.1758 216.234ZM37.9414 204.867C37.082 204.867 36.4453 205.164 36.0312 205.758C35.6172 206.344 35.3828 207.258 35.3281 208.5H40.3203V208.219C40.2656 207.016 40.0469 206.156 39.6641 205.641C39.2891 205.125 38.7148 204.867 37.9414 204.867ZM54.0547 210.27C54.0547 212.277 53.6914 213.773 52.9648 214.758C52.2461 215.742 51.2266 216.234 49.9062 216.234C48.6328 216.234 47.6523 215.754 46.9648 214.793V220.875H44.9023V203.32H46.7773L46.8828 204.727C47.5781 203.633 48.5742 203.086 49.8711 203.086C51.2617 203.086 52.3008 203.57 52.9883 204.539C53.6758 205.508 54.0312 206.957 54.0547 208.887V210.27ZM51.9922 209.086C51.9922 207.664 51.7734 206.617 51.3359 205.945C50.8984 205.266 50.1953 204.926 49.2266 204.926C48.2344 204.926 47.4805 205.422 46.9648 206.414V213.012C47.4727 213.98 48.2344 214.465 49.25 214.465C50.1875 214.465 50.875 214.129 51.3125 213.457C51.7578 212.777 51.9844 211.742 51.9922 210.352V209.086ZM56.293 209.074C56.293 207.23 56.7383 205.773 57.6289 204.703C58.5273 203.625 59.7109 203.086 61.1797 203.086C62.6484 203.086 63.8281 203.609 64.7188 204.656C65.6172 205.703 66.0781 207.129 66.1016 208.934V210.27C66.1016 212.105 65.6562 213.559 64.7656 214.629C63.875 215.699 62.6875 216.234 61.2031 216.234C59.7344 216.234 58.5547 215.715 57.6641 214.676C56.7812 213.637 56.3242 212.23 56.293 210.457V209.074ZM58.3672 210.27C58.3672 211.574 58.6211 212.602 59.1289 213.352C59.6445 214.094 60.3359 214.465 61.2031 214.465C63.0312 214.465 63.9727 213.145 64.0273 210.504V209.074C64.0273 207.777 63.7695 206.754 63.2539 206.004C62.7383 205.246 62.0469 204.867 61.1797 204.867C60.3281 204.867 59.6445 205.246 59.1289 206.004C58.6211 206.754 58.3672 207.773 58.3672 209.062V210.27ZM77.0586 203.32V216H74.9844V211.066H72.5352L69.9805 216H67.7539L70.4961 210.703C69.8086 210.406 69.2852 209.949 68.9258 209.332C68.5664 208.715 68.3867 208 68.3867 207.188C68.3867 206.023 68.7617 205.09 69.5117 204.387C70.2617 203.676 71.2695 203.32 72.5352 203.32H77.0586ZM70.4609 207.211C70.4609 207.836 70.6289 208.34 70.9648 208.723C71.3008 209.098 71.7539 209.285 72.3242 209.285H74.9844V205.078H72.5117C71.8945 205.078 71.3984 205.277 71.0234 205.676C70.6484 206.066 70.4609 206.578 70.4609 207.211ZM88.3672 205.078H84.9102V216H82.8477V205.078H79.4375V203.32H88.3672V205.078ZM99.4531 216H97.3906V210.586H92.8203V216H90.7344V203.32H92.8203V208.816H97.3906V203.32H99.4531V216ZM102.324 209.074C102.324 207.23 102.77 205.773 103.66 204.703C104.559 203.625 105.742 203.086 107.211 203.086C108.68 203.086 109.859 203.609 110.75 204.656C111.648 205.703 112.109 207.129 112.133 208.934V210.27C112.133 212.105 111.688 213.559 110.797 214.629C109.906 215.699 108.719 216.234 107.234 216.234C105.766 216.234 104.586 215.715 103.695 214.676C102.812 213.637 102.355 212.23 102.324 210.457V209.074ZM104.398 210.27C104.398 211.574 104.652 212.602 105.16 213.352C105.676 214.094 106.367 214.465 107.234 214.465C109.062 214.465 110.004 213.145 110.059 210.504V209.074C110.059 207.777 109.801 206.754 109.285 206.004C108.77 205.246 108.078 204.867 107.211 204.867C106.359 204.867 105.676 205.246 105.16 206.004C104.652 206.754 104.398 207.773 104.398 209.062V210.27ZM119.211 214.465C119.898 214.465 120.449 214.254 120.863 213.832C121.277 213.402 121.504 212.793 121.543 212.004H123.5C123.453 213.223 123.02 214.234 122.199 215.039C121.387 215.836 120.391 216.234 119.211 216.234C117.641 216.234 116.441 215.742 115.613 214.758C114.793 213.766 114.383 212.293 114.383 210.34V208.945C114.383 207.031 114.793 205.578 115.613 204.586C116.434 203.586 117.629 203.086 119.199 203.086C120.496 203.086 121.523 203.496 122.281 204.316C123.047 205.137 123.453 206.258 123.5 207.68H121.543C121.496 206.742 121.27 206.039 120.863 205.57C120.465 205.102 119.91 204.867 119.199 204.867C118.277 204.867 117.594 205.172 117.148 205.781C116.703 206.383 116.473 207.375 116.457 208.758V210.375C116.457 211.867 116.676 212.922 117.113 213.539C117.559 214.156 118.258 214.465 119.211 214.465ZM133.906 205.078H130.449V216H128.387V205.078H124.977V203.32H133.906V205.078ZM138.336 207.691H140.949C142.16 207.699 143.125 208.07 143.844 208.805C144.562 209.539 144.922 210.539 144.922 211.805C144.922 213.07 144.559 214.086 143.832 214.852C143.105 215.609 142.145 215.992 140.949 216H136.273V203.32H138.336V207.691ZM138.336 209.461V214.23H140.914C141.523 214.23 141.996 214.023 142.332 213.609C142.676 213.195 142.848 212.621 142.848 211.887C142.848 211.168 142.68 210.586 142.344 210.141C142.008 209.695 141.547 209.469 140.961 209.461H138.336ZM30.7109 238.27C30.7109 240.277 30.3477 241.773 29.6211 242.758C28.9023 243.742 27.8828 244.234 26.5625 244.234C25.2891 244.234 24.3086 243.754 23.6211 242.793V248.875H21.5586V231.32H23.4336L23.5391 232.727C24.2344 231.633 25.2305 231.086 26.5273 231.086C27.918 231.086 28.957 231.57 29.6445 232.539C30.332 233.508 30.6875 234.957 30.7109 236.887V238.27ZM28.6484 237.086C28.6484 235.664 28.4297 234.617 27.9922 233.945C27.5547 233.266 26.8516 232.926 25.8828 232.926C24.8906 232.926 24.1367 233.422 23.6211 234.414V241.012C24.1289 241.98 24.8906 242.465 25.9062 242.465C26.8438 242.465 27.5312 242.129 27.9688 241.457C28.4141 240.777 28.6406 239.742 28.6484 238.352V237.086ZM37.918 244.234C36.3398 244.234 35.1289 243.766 34.2852 242.828C33.4414 241.883 33.0117 240.5 32.9961 238.68V237.145C32.9961 235.254 33.4062 233.773 34.2266 232.703C35.0547 231.625 36.207 231.086 37.6836 231.086C39.168 231.086 40.2773 231.559 41.0117 232.504C41.7461 233.449 42.1211 234.922 42.1367 236.922V238.281H35.0586V238.574C35.0586 239.934 35.3125 240.922 35.8203 241.539C36.3359 242.156 37.0742 242.465 38.0352 242.465C38.6445 242.465 39.1797 242.352 39.6406 242.125C40.1094 241.891 40.5469 241.523 40.9531 241.023L42.0312 242.336C41.1328 243.602 39.7617 244.234 37.918 244.234ZM37.6836 232.867C36.8242 232.867 36.1875 233.164 35.7734 233.758C35.3594 234.344 35.125 235.258 35.0703 236.5H40.0625V236.219C40.0078 235.016 39.7891 234.156 39.4062 233.641C39.0312 233.125 38.457 232.867 37.6836 232.867ZM51.6055 233.113H46.8828V244H44.7969V231.32H51.6055V233.113ZM60.3945 231.32H62.457V244H60.3945V234.754L55.8008 244H53.7266V231.32H55.8008V240.578L60.3945 231.32ZM70.1797 242.465C70.8672 242.465 71.418 242.254 71.832 241.832C72.2461 241.402 72.4727 240.793 72.5117 240.004H74.4688C74.4219 241.223 73.9883 242.234 73.168 243.039C72.3555 243.836 71.3594 244.234 70.1797 244.234C68.6094 244.234 67.4102 243.742 66.582 242.758C65.7617 241.766 65.3516 240.293 65.3516 238.34V236.945C65.3516 235.031 65.7617 233.578 66.582 232.586C67.4023 231.586 68.5977 231.086 70.168 231.086C71.4648 231.086 72.4922 231.496 73.25 232.316C74.0156 233.137 74.4219 234.258 74.4688 235.68H72.5117C72.4648 234.742 72.2383 234.039 71.832 233.57C71.4336 233.102 70.8789 232.867 70.168 232.867C69.2461 232.867 68.5625 233.172 68.1172 233.781C67.6719 234.383 67.4414 235.375 67.4258 236.758V238.375C67.4258 239.867 67.6445 240.922 68.082 241.539C68.5273 242.156 69.2266 242.465 70.1797 242.465ZM84.875 233.078H81.418V244H79.3555V233.078H75.9453V231.32H84.875V233.078ZM96.2188 238.27C96.2188 240.277 95.8555 241.773 95.1289 242.758C94.4102 243.742 93.3906 244.234 92.0703 244.234C90.7969 244.234 89.8164 243.754 89.1289 242.793V248.875H87.0664V231.32H88.9414L89.0469 232.727C89.7422 231.633 90.7383 231.086 92.0352 231.086C93.4258 231.086 94.4648 231.57 95.1523 232.539C95.8398 233.508 96.1953 234.957 96.2188 236.887V238.27ZM94.1562 237.086C94.1562 235.664 93.9375 234.617 93.5 233.945C93.0625 233.266 92.3594 232.926 91.3906 232.926C90.3984 232.926 89.6445 233.422 89.1289 234.414V241.012C89.6367 241.98 90.3984 242.465 91.4141 242.465C92.3516 242.465 93.0391 242.129 93.4766 241.457C93.9219 240.777 94.1484 239.742 94.1562 238.352V237.086ZM105.418 244C105.293 243.727 105.203 243.266 105.148 242.617C104.414 243.695 103.477 244.234 102.336 244.234C101.188 244.234 100.289 243.914 99.6406 243.273C99 242.625 98.6797 241.715 98.6797 240.543C98.6797 239.254 99.1172 238.23 99.9922 237.473C100.867 236.715 102.066 236.328 103.59 236.312H105.113V234.965C105.113 234.207 104.945 233.668 104.609 233.348C104.273 233.027 103.762 232.867 103.074 232.867C102.449 232.867 101.941 233.055 101.551 233.43C101.16 233.797 100.965 234.266 100.965 234.836H98.8906C98.8906 234.188 99.082 233.57 99.4648 232.984C99.8477 232.391 100.363 231.926 101.012 231.59C101.66 231.254 102.383 231.086 103.18 231.086C104.477 231.086 105.461 231.41 106.133 232.059C106.812 232.699 107.16 233.637 107.176 234.871V241.27C107.184 242.246 107.316 243.094 107.574 243.812V244H105.418ZM102.652 242.348C103.16 242.348 103.645 242.207 104.105 241.926C104.566 241.645 104.902 241.293 105.113 240.871V237.848H103.941C102.957 237.863 102.18 238.086 101.609 238.516C101.039 238.938 100.754 239.531 100.754 240.297C100.754 241.016 100.898 241.539 101.188 241.867C101.477 242.188 101.965 242.348 102.652 242.348ZM110.586 231.32H112.672V242.23H117.254V231.32H119.316V242.23H120.652L120.441 247.762H118.602V244H110.586V231.32ZM129.84 231.32H131.902V244H129.84V234.754L125.246 244H123.172V231.32H125.246V240.578L129.84 231.32ZM142.074 231.32H144.137V244H142.074V234.754L137.48 244H135.406V231.32H137.48V240.578L142.074 231.32Z" fill="#929FAB"/>
<path d="M208.157 247C203.609 239.305 201 230.333 201 220.754C201 192.171 224.228 169 252.881 169C281.534 169 304.761 192.171 304.761 220.754C304.761 230.333 302.152 239.305 297.604 247" stroke="#E2E5EB" stroke-width="10" stroke-linecap="round"/>
<path d="M241.779 219.221H243.803V222.775H241.779V227H237.172V222.775H229.475L229.201 219.959L237.172 207.135V207.094H241.779V219.221ZM233.59 219.221H237.172V213.096L236.885 213.561L233.59 219.221ZM250.037 215.119H252.211C253.934 215.119 254.795 214.276 254.795 212.59C254.795 211.934 254.59 211.4 254.18 210.99C253.77 210.571 253.191 210.361 252.443 210.361C251.833 210.361 251.299 210.539 250.844 210.895C250.397 211.25 250.174 211.692 250.174 212.221H245.566C245.566 211.173 245.858 210.238 246.441 209.418C247.025 208.598 247.831 207.96 248.861 207.504C249.9 207.039 251.04 206.807 252.279 206.807C254.494 206.807 256.235 207.312 257.502 208.324C258.769 209.336 259.402 210.726 259.402 212.494C259.402 213.351 259.138 214.162 258.609 214.928C258.09 215.684 257.329 216.299 256.326 216.773C257.383 217.156 258.213 217.74 258.814 218.523C259.416 219.298 259.717 220.26 259.717 221.408C259.717 223.186 259.033 224.607 257.666 225.674C256.299 226.74 254.503 227.273 252.279 227.273C250.976 227.273 249.764 227.027 248.643 226.535C247.531 226.034 246.688 225.346 246.113 224.471C245.539 223.587 245.252 222.584 245.252 221.463H249.887C249.887 222.074 250.133 222.602 250.625 223.049C251.117 223.495 251.723 223.719 252.443 223.719C253.255 223.719 253.902 223.495 254.385 223.049C254.868 222.593 255.109 222.014 255.109 221.312C255.109 220.31 254.859 219.599 254.357 219.18C253.856 218.76 253.163 218.551 252.279 218.551H250.037V215.119ZM262.055 210.922C262.055 209.691 262.456 208.698 263.258 207.941C264.06 207.185 265.135 206.807 266.484 206.807C267.852 206.807 268.932 207.185 269.725 207.941C270.518 208.689 270.914 209.705 270.914 210.99V211.975C270.914 213.205 270.518 214.194 269.725 214.941C268.932 215.689 267.861 216.062 266.512 216.062C265.172 216.062 264.092 215.693 263.271 214.955C262.46 214.208 262.055 213.187 262.055 211.893V210.922ZM265.021 211.975C265.021 212.449 265.154 212.836 265.418 213.137C265.682 213.428 266.047 213.574 266.512 213.574C267.469 213.574 267.947 212.964 267.947 211.742V210.922C267.947 210.448 267.82 210.061 267.564 209.76C267.309 209.45 266.949 209.295 266.484 209.295C266.038 209.295 265.682 209.445 265.418 209.746C265.154 210.038 265.021 210.439 265.021 210.949V211.975ZM271.516 222.119C271.516 220.88 271.917 219.886 272.719 219.139C273.53 218.391 274.605 218.018 275.945 218.018C277.303 218.018 278.383 218.387 279.186 219.125C279.988 219.863 280.389 220.893 280.389 222.215V223.172C280.389 224.411 279.992 225.405 279.199 226.152C278.406 226.9 277.331 227.273 275.973 227.273C274.633 227.273 273.553 226.904 272.732 226.166C271.921 225.419 271.516 224.398 271.516 223.104V222.119ZM274.469 223.172C274.469 223.6 274.615 223.979 274.906 224.307C275.198 224.626 275.553 224.785 275.973 224.785C276.857 224.785 277.335 224.366 277.408 223.527L277.422 222.119C277.422 221.636 277.29 221.249 277.025 220.957C276.761 220.656 276.401 220.506 275.945 220.506C275.508 220.506 275.157 220.647 274.893 220.93C274.628 221.203 274.487 221.577 274.469 222.051V223.172ZM267.387 225.51L265.24 224.43L274.961 208.871L277.107 209.951L267.387 225.51Z" fill="#94487E"/>
<path d="M208.157 247C203.609 239.305 201 230.333 201 220.754C201 192.171 224.228 169 252.881 169C281.534 169 304.761 192.171 304.761 220.754C304.761 230.333 302.152 239.305 297.604 247" stroke="#E2E5EB" stroke-width="10" stroke-linecap="round"/>
<path d="M208.15 247C203.606 239.305 201 230.333 201 220.754C201 200.55 212.594 183.05 229.5 174.526" stroke="url(#paint1_linear)" stroke-width="10" stroke-linecap="round"/>
<circle cx="272" cy="18" r="8" fill="#929FAB"/>
<circle cx="294" cy="18" r="8" fill="#929FAB"/>
<circle cx="316" cy="18" r="8" fill="#929FAB"/>
<defs>
<filter id="filter0_d" x="5" y="79" width="325" height="70" filterUnits="userSpaceOnUse" color-interpolation-filters="sRGB">
<feFlood flood-opacity="0" result="BackgroundImageFix"/>
<feColorMatrix in="SourceAlpha" type="matrix" values="0 0 0 0 0 0 0 0 0 0 0 0 0 0 0 0 0 0 127 0"/>
<feOffset dy="5"/>
<feGaussianBlur stdDeviation="7.5"/>
<feColorMatrix type="matrix" values="0 0 0 0 0.0823529 0 0 0 0 0.141176 0 0 0 0 0.219608 0 0 0 0.15 0"/>
<feBlend mode="normal" in2="BackgroundImageFix" result="effect1_dropShadow"/>
<feBlend mode="normal" in="SourceGraphic" in2="effect1_dropShadow" result="shape"/>
</filter>
<linearGradient id="paint0_linear" x1="167.5" y1="0" x2="167.5" y2="36" gradientUnits="userSpaceOnUse">
<stop stop-color="#ECECEB"/>
<stop offset="1" stop-color="#D7D7D7"/>
</linearGradient>
<linearGradient id="paint1_linear" x1="274.113" y1="169" x2="201.111" y2="247.103" gradientUnits="userSpaceOnUse">
<stop stop-color="#665F9B"/>
<stop offset="1" stop-color="#FE1138"/>
</linearGradient>
</defs>
</svg>
