<svg width="335" height="312" viewBox="0 0 335 312" fill="none" xmlns="http://www.w3.org/2000/svg">
<rect x="0.5" y="3.5" width="334" height="308" rx="9.5" fill="white" stroke="#CCDBDE"/>
<path d="M0.5 10C0.5 4.7533 4.75329 0.5 10 0.5H325C330.247 0.5 334.5 4.7533 334.5 10V35.5H0.5V10Z" fill="url(#paint0_linear)" stroke="#CCDBDE"/>
<circle cx="273" cy="18" r="8" fill="#929FAB"/>
<circle cx="295" cy="18" r="8" fill="#929FAB"/>
<circle cx="317" cy="18" r="8" fill="#929FAB"/>
<path d="M195.273 252H192.93V247.125H188.359V252H186.016V240.625H188.359V245.234H192.93V240.625H195.273V252ZM201.07 252.156C199.831 252.156 198.82 251.776 198.039 251.016C197.263 250.255 196.875 249.242 196.875 247.977V247.758C196.875 246.909 197.039 246.151 197.367 245.484C197.695 244.812 198.159 244.297 198.758 243.938C199.362 243.573 200.049 243.391 200.82 243.391C201.977 243.391 202.885 243.755 203.547 244.484C204.214 245.214 204.547 246.247 204.547 247.586V248.508H199.164C199.237 249.06 199.456 249.503 199.82 249.836C200.19 250.169 200.656 250.336 201.219 250.336C202.089 250.336 202.768 250.021 203.258 249.391L204.367 250.633C204.029 251.112 203.57 251.487 202.992 251.758C202.414 252.023 201.773 252.156 201.07 252.156ZM200.812 245.219C200.365 245.219 200 245.37 199.719 245.672C199.443 245.974 199.266 246.406 199.188 246.969H202.328V246.789C202.318 246.289 202.182 245.904 201.922 245.633C201.661 245.357 201.292 245.219 200.812 245.219ZM212.758 245.359H210.047V252H207.781V245.359H205.117V243.547H212.758V245.359ZM214.484 254.852L213.305 254.234L213.586 253.727C213.935 253.091 214.115 252.458 214.125 251.828V250.078H216.031L216.023 251.641C216.018 252.219 215.872 252.802 215.586 253.391C215.299 253.979 214.932 254.466 214.484 254.852ZM226.227 246.039C226.227 245.742 226.128 245.513 225.93 245.352C225.737 245.185 225.461 245.102 225.102 245.102C224.732 245.102 224.43 245.18 224.195 245.336C223.966 245.487 223.852 245.703 223.852 245.984H221.594C221.594 245.219 221.911 244.596 222.547 244.117C223.182 243.638 223.995 243.398 224.984 243.398C226.073 243.398 226.927 243.612 227.547 244.039C228.172 244.466 228.484 245.073 228.484 245.859C228.484 246.234 228.37 246.581 228.141 246.898C227.917 247.211 227.599 247.461 227.188 247.648C228.151 247.987 228.633 248.641 228.633 249.609C228.633 250.385 228.299 251.005 227.633 251.469C226.971 251.927 226.089 252.156 224.984 252.156C223.958 252.156 223.115 251.917 222.453 251.438C221.792 250.958 221.461 250.312 221.461 249.5H223.719C223.719 249.786 223.846 250.018 224.102 250.195C224.357 250.372 224.69 250.461 225.102 250.461C225.503 250.461 225.815 250.367 226.039 250.18C226.263 249.992 226.375 249.747 226.375 249.445C226.375 249.076 226.268 248.812 226.055 248.656C225.841 248.495 225.521 248.414 225.094 248.414H223.867V246.945H225.172C225.875 246.924 226.227 246.622 226.227 246.039ZM234.906 252C234.802 251.797 234.727 251.544 234.68 251.242C234.133 251.852 233.422 252.156 232.547 252.156C231.719 252.156 231.031 251.917 230.484 251.438C229.943 250.958 229.672 250.354 229.672 249.625C229.672 248.729 230.003 248.042 230.664 247.562C231.331 247.083 232.292 246.841 233.547 246.836H234.586V246.352C234.586 245.961 234.484 245.648 234.281 245.414C234.083 245.18 233.768 245.062 233.336 245.062C232.956 245.062 232.656 245.154 232.438 245.336C232.224 245.518 232.117 245.768 232.117 246.086H229.859C229.859 245.596 230.01 245.143 230.312 244.727C230.615 244.31 231.042 243.984 231.594 243.75C232.146 243.51 232.766 243.391 233.453 243.391C234.495 243.391 235.32 243.654 235.93 244.18C236.544 244.701 236.852 245.435 236.852 246.383V250.047C236.857 250.849 236.969 251.456 237.188 251.867V252H234.906ZM233.039 250.43C233.372 250.43 233.68 250.357 233.961 250.211C234.242 250.06 234.451 249.859 234.586 249.609V248.156H233.742C232.612 248.156 232.01 248.547 231.938 249.328L231.93 249.461C231.93 249.742 232.029 249.974 232.227 250.156C232.424 250.339 232.695 250.43 233.039 250.43ZM241.898 248.883H240.992V252H238.734V243.547H240.992V246.727H241.797L243.641 243.547H246.492L243.727 247.57L246.75 252H243.742L241.898 248.883ZM255.211 247.852C255.211 249.154 254.914 250.198 254.32 250.984C253.732 251.766 252.935 252.156 251.93 252.156C251.076 252.156 250.385 251.859 249.859 251.266V255.25H247.602V243.547H249.695L249.773 244.375C250.32 243.719 251.034 243.391 251.914 243.391C252.956 243.391 253.766 243.776 254.344 244.547C254.922 245.318 255.211 246.38 255.211 247.734V247.852ZM252.953 247.688C252.953 246.901 252.812 246.294 252.531 245.867C252.255 245.44 251.852 245.227 251.32 245.227C250.612 245.227 250.125 245.497 249.859 246.039V249.5C250.135 250.057 250.628 250.336 251.336 250.336C252.414 250.336 252.953 249.453 252.953 247.688ZM259.031 246.023H260.648C261.378 246.023 262.018 246.146 262.57 246.391C263.122 246.635 263.544 246.987 263.836 247.445C264.133 247.898 264.281 248.427 264.281 249.031C264.281 249.922 263.951 250.641 263.289 251.188C262.633 251.729 261.737 252 260.602 252H256.766V243.547H259.031V246.023ZM267.875 252H265.617V243.547H267.875V252ZM259.031 247.836V250.195H260.633C261.081 250.195 261.424 250.091 261.664 249.883C261.904 249.674 262.023 249.391 262.023 249.031C262.023 248.667 261.906 248.378 261.672 248.164C261.438 247.945 261.091 247.836 260.633 247.836H259.031ZM276.883 245.359H274.172V252H271.906V245.359H269.242V243.547H276.883V245.359ZM280.438 246.023H282.055C282.784 246.023 283.424 246.146 283.977 246.391C284.529 246.635 284.951 246.987 285.242 247.445C285.539 247.898 285.688 248.427 285.688 249.031C285.688 249.922 285.357 250.641 284.695 251.188C284.039 251.729 283.143 252 282.008 252H278.172V243.547H280.438V246.023ZM280.438 247.836V250.195H282.039C282.487 250.195 282.831 250.091 283.07 249.883C283.31 249.674 283.43 249.391 283.43 249.031C283.43 248.667 283.312 248.378 283.078 248.164C282.844 247.945 282.497 247.836 282.039 247.836H280.438Z" fill="white"/>
<rect x="169" y="69" width="114" height="2.99999" transform="rotate(90 169 69)" fill="#9A4479"/>
<rect x="169" y="164" width="114" height="2.99999" transform="rotate(90 169 164)" fill="#665F9B"/>
<ellipse cx="167.5" cy="69.5" rx="13.5" ry="13.5" transform="rotate(90 167.5 69.5)" fill="#9A4479"/>
<path d="M163.91 115.004C165.918 114.351 168.082 114.351 170.09 115.004L195.65 123.309C197.659 123.962 199.409 125.233 200.65 126.942L216.447 148.684C217.689 150.393 218.357 152.451 218.357 154.562V181.438C218.357 183.549 217.689 185.607 216.447 187.316L200.65 209.058C199.409 210.767 197.659 212.038 195.65 212.691L170.09 220.996C168.082 221.649 165.918 221.649 163.91 220.996L138.35 212.691C136.341 212.038 134.591 210.767 133.35 209.058L117.553 187.316C116.312 185.607 115.643 183.549 115.643 181.438V154.562C115.643 152.451 116.312 150.393 117.553 148.684L133.35 126.942C134.591 125.233 136.341 123.962 138.35 123.309L163.91 115.004Z" fill="#0075B8"/>
<path d="M167 215.52C193.245 215.52 214.52 194.245 214.52 168C214.52 141.755 193.245 120.48 167 120.48C140.755 120.48 119.48 141.755 119.48 168C119.48 194.245 140.755 215.52 167 215.52Z" fill="#152438"/>
<path d="M167 202.56C186.087 202.56 201.56 187.087 201.56 168C201.56 148.913 186.087 133.44 167 133.44C147.913 133.44 132.44 148.913 132.44 168C132.44 187.087 147.913 202.56 167 202.56Z" fill="white"/>
<path fill-rule="evenodd" clip-rule="evenodd" d="M201.561 140.716L197.516 144.54L196.609 143.542L197.554 142.649L199.575 140.918L195.791 142.641L195.194 141.983L197.166 138.259L195.317 140.186L194.372 141.079L193.469 140.084L197.514 136.26L198.701 137.567L196.723 141.149L200.371 139.406L201.561 140.716ZM192.551 133.537L191.855 134.488L193.531 135.763L192.942 136.568L191.266 135.293L190.478 136.371L192.458 137.877L191.846 138.714L188.801 136.396L192.099 131.886L195.15 134.208L194.536 135.048L192.551 133.537ZM184.984 133.877C184.68 133.923 184.378 133.872 184.078 133.723L183.839 133.596L183.661 133.493L184.119 132.55C184.141 132.574 184.217 132.62 184.347 132.689C184.526 132.785 184.676 132.825 184.8 132.811C184.922 132.797 185.058 132.714 185.206 132.564L185.347 132.43L185.381 127.977L186.633 128.645L186.524 131.343L186.522 131.347L188.442 129.61L189.684 130.273L186.012 133.351C185.631 133.656 185.288 133.832 184.984 133.877ZM181.271 129.776C180.806 129.968 180.254 129.959 179.614 129.748L178.807 129.482L178.232 131.299L176.967 130.882L178.662 125.527L180.756 126.218C181.157 126.35 181.489 126.542 181.75 126.795C182.011 127.047 182.182 127.341 182.263 127.675C182.345 128.009 182.329 128.352 182.218 128.705C182.052 129.228 181.737 129.585 181.271 129.776ZM180.923 127.625C180.839 127.432 180.683 127.297 180.455 127.219L179.612 126.941L179.123 128.485L179.952 128.759C180.197 128.839 180.403 128.838 180.571 128.756C180.74 128.673 180.86 128.518 180.932 128.29C181.011 128.04 181.008 127.818 180.923 127.625ZM173.343 130.142L173.818 126.628L171.38 129.866L170.063 129.681L170.817 124.107L172.134 124.292L171.658 127.81L174.096 124.568L175.414 124.753L174.66 130.327L173.343 130.142ZM166.366 129.635L165.037 129.68L164.887 125.103L163.263 125.159L163.229 124.112L167.836 123.955L167.87 125.002L166.216 125.058L166.366 129.635ZM159.656 127.948L157.738 128.351L158.204 130.653L156.901 130.927L155.787 125.416L157.089 125.142L157.532 127.33L159.45 126.926L159.007 124.738L160.302 124.466L161.416 129.977L160.122 130.249L159.656 127.948ZM153.003 131.168L151.313 131.863L151.403 132.959L150.086 133.501L149.9 127.511L151.059 127.034L155.011 131.476L153.687 132.02L153.003 131.168ZM151.057 128.735L151.224 130.77L152.324 130.318L151.057 128.735ZM146.239 133.557L145.511 134.002L146.472 135.64L145.332 136.336L142.498 131.509L144.387 130.356C144.748 130.135 145.108 130.007 145.467 129.973C145.825 129.939 146.154 130 146.454 130.158C146.754 130.315 146.997 130.553 147.184 130.872C147.46 131.342 147.516 131.82 147.351 132.303C147.186 132.787 146.815 133.205 146.239 133.557ZM146.031 131.585C145.899 131.36 145.733 131.216 145.535 131.154C145.337 131.092 145.134 131.123 144.927 131.246L144.166 131.711L144.984 133.103L145.731 132.647C145.952 132.512 146.088 132.352 146.137 132.169C146.187 131.985 146.152 131.791 146.031 131.585ZM142.634 138.422L141.717 137.841L140.337 139.056L140.77 140.064L139.695 141.011L137.622 135.403L138.568 134.57L143.715 137.47L142.634 138.422ZM139.105 136.18L139.908 138.051L140.805 137.261L139.105 136.18ZM136.604 144.607L132.442 140.915L134.887 138.045L135.662 138.733L134.089 140.579L137.476 143.583L136.604 144.607Z" fill="white"/>
<path fill-rule="evenodd" clip-rule="evenodd" d="M205.6 167.238L205.519 165.925L207.385 165.81L207.344 165.135C207.317 164.705 207.367 164.32 207.493 163.981C207.62 163.641 207.811 163.374 208.067 163.18C208.323 162.986 208.624 162.878 208.969 162.857C209.503 162.824 209.949 162.995 210.306 163.371C210.663 163.747 210.863 164.27 210.904 164.938L211.025 166.903L205.6 167.238ZM209.896 164.982C209.88 164.716 209.793 164.509 209.634 164.363C209.475 164.217 209.278 164.151 209.042 164.166C208.818 164.18 208.643 164.268 208.516 164.43C208.389 164.593 208.334 164.811 208.351 165.084L208.392 165.748L209.938 165.653L209.896 164.982ZM206.558 170.067L206.367 171.688L210.761 172.205L210.608 173.507L206.215 172.991L206.028 174.582L205.023 174.464L205.553 169.949L206.558 170.067ZM206.348 177.276L205.965 178.527C205.645 178.439 205.394 178.449 205.21 178.556C205.026 178.664 204.887 178.872 204.793 179.179C204.697 179.491 204.744 179.755 204.932 179.972C205.121 180.188 205.47 180.379 205.979 180.543L206.347 180.656C206.902 180.826 207.319 180.878 207.6 180.812C207.881 180.745 208.073 180.542 208.177 180.201C208.265 179.913 208.265 179.672 208.176 179.478C208.087 179.284 207.897 179.137 207.604 179.037L207.986 177.791C208.343 177.918 208.633 178.114 208.855 178.378C209.078 178.641 209.215 178.958 209.269 179.327C209.323 179.696 209.286 180.088 209.159 180.503C208.949 181.186 208.562 181.656 207.997 181.912C207.431 182.169 206.743 182.172 205.931 181.923L205.674 181.844C205.165 181.688 204.747 181.463 204.419 181.168C204.092 180.874 203.875 180.528 203.769 180.131C203.663 179.734 203.677 179.316 203.811 178.878C204.004 178.247 204.326 177.79 204.775 177.509C205.225 177.228 205.749 177.15 206.348 177.276ZM204.748 184.79C205.216 185.038 205.585 185.344 205.854 185.709C206.123 186.074 206.27 186.468 206.296 186.891C206.321 187.315 206.226 187.731 206.01 188.141C205.794 188.55 205.508 188.864 205.152 189.082C204.797 189.299 204.397 189.404 203.954 189.396C203.51 189.388 203.059 189.269 202.602 189.038L202.331 188.895C201.86 188.646 201.49 188.34 201.222 187.977C200.953 187.614 200.806 187.219 200.781 186.793C200.755 186.367 200.851 185.948 201.068 185.536C201.283 185.129 201.572 184.817 201.935 184.6C202.297 184.383 202.703 184.281 203.154 184.292C203.606 184.304 204.063 184.431 204.527 184.673L204.748 184.79ZM204.145 185.98L203.923 185.863C203.446 185.61 203.041 185.499 202.71 185.527C202.378 185.556 202.133 185.719 201.976 186.016C201.669 186.598 201.943 187.135 202.797 187.629L203.148 187.819C203.619 188.068 204.022 188.181 204.358 188.159C204.694 188.136 204.943 187.971 205.105 187.662C205.26 187.37 205.255 187.078 205.09 186.788C204.925 186.498 204.61 186.229 204.145 185.98ZM201.946 194.355L200.178 192.931L198.968 194.436L200.737 195.86L199.915 196.881L195.68 193.472L196.501 192.45L198.182 193.804L199.392 192.299L197.711 190.946L198.527 189.93L202.763 193.339L201.946 194.355ZM196.186 198.139C196.535 198.546 196.667 199.005 196.582 199.517C196.498 200.029 196.202 200.503 195.693 200.939L194.2 202.22L190.662 198.091L191.659 197.235L192.877 198.656L193.39 198.216C193.717 197.935 194.054 197.743 194.4 197.639C194.747 197.535 195.075 197.527 195.385 197.614C195.694 197.702 195.961 197.877 196.186 198.139ZM195.187 198.987C195.041 198.817 194.865 198.73 194.658 198.727C194.452 198.723 194.245 198.811 194.038 198.989L193.533 199.422L194.541 200.599L195.051 200.161C195.254 199.987 195.365 199.793 195.386 199.579C195.407 199.364 195.34 199.167 195.187 198.987ZM189.912 205.148L187.701 201.314L186.643 201.924L187.478 203.551C187.761 204.116 187.936 204.595 188.006 204.989C188.075 205.383 188.044 205.718 187.911 205.995C187.779 206.271 187.525 206.52 187.151 206.742L186.846 206.918L186.343 206.044L186.492 205.937C186.7 205.774 186.783 205.54 186.743 205.237C186.703 204.934 186.532 204.483 186.227 203.885L185.058 201.671L188.33 199.781L191.047 204.492L189.912 205.148ZM181.929 207.869L180.23 208.451L180.262 209.514L178.938 209.968L179.062 204.176L180.227 203.777L183.889 208.271L182.558 208.727L181.929 207.869ZM180.138 205.418L180.198 207.392L181.304 207.013L180.138 205.418ZM173.745 207.531L172.281 211.197L170.983 211.376L170.237 205.988L171.536 205.809L172.006 209.209L173.47 205.541L174.767 205.361L175.513 210.749L174.215 210.928L173.745 207.531ZM167.257 212.866L166.023 212.794L166.099 211.485L162.015 211.248L162.33 205.818L163.63 205.893L163.374 210.317L165.323 210.43L165.58 206.007L166.892 206.083L166.634 210.517L167.465 210.565L167.257 212.866ZM157 210.286L157.576 208.09L155.709 207.599L155.133 209.796L153.865 209.463L155.246 204.202L156.514 204.535L155.965 206.623L157.832 207.114L158.38 205.026L159.64 205.357L158.26 210.618L157 210.286ZM150.162 203.171L149.675 204.21L151.541 205.085L151.129 205.964L149.263 205.089L148.712 206.266L150.916 207.3L150.488 208.213L147.098 206.623L149.405 201.698L152.802 203.291L152.373 204.208L150.162 203.171ZM144.602 204.107L143.123 205.934L142.168 205.248L142.946 204.161L140.54 202.435L139.764 203.519L138.778 202.812L140.066 200.854L140.378 201.078C140.62 201.086 140.887 200.993 141.178 200.799C141.468 200.604 141.813 200.273 142.213 199.806L143.704 198.012L146.711 200.169L144.131 203.77L144.602 204.107ZM145.06 200.23L144.119 199.556L143.245 200.602C142.671 201.275 142.117 201.722 141.583 201.942L143.069 203.008L145.06 200.23ZM135.919 198.31L138.42 195.966L134.584 196.885L133.688 195.928L137.654 192.209L138.55 193.166L136.047 195.513L139.885 194.591L140.781 195.548L136.815 199.267L135.919 198.31ZM134.796 190.261C134.655 190.84 134.294 191.308 133.713 191.665C133.429 191.839 133.142 191.95 132.851 191.998C132.561 192.046 132.282 192.036 132.015 191.966C131.445 191.822 130.976 191.449 130.607 190.849L130.022 191.208L129.362 190.132L129.948 189.772C129.574 189.163 129.453 188.572 129.583 187.998C129.713 187.424 130.057 186.967 130.615 186.624C130.91 186.443 131.207 186.327 131.505 186.275C131.803 186.223 132.09 186.232 132.365 186.3C132.947 186.439 133.423 186.81 133.792 187.413L134.378 187.054L135.037 188.13L134.452 188.49C134.821 189.092 134.936 189.683 134.796 190.261ZM132.869 187.923C132.699 187.644 132.471 187.483 132.186 187.437C131.901 187.391 131.592 187.471 131.259 187.675C130.954 187.863 130.762 188.091 130.683 188.361C130.605 188.631 130.659 188.918 130.845 189.222L132.895 187.964L132.869 187.923ZM133.554 189.04L131.505 190.298L131.534 190.346C131.697 190.611 131.915 190.77 132.188 190.823C132.461 190.876 132.755 190.806 133.069 190.613C133.396 190.413 133.605 190.177 133.697 189.906C133.789 189.635 133.742 189.346 133.554 189.04ZM126.337 183.396L128.473 182.628L127.821 180.81L125.685 181.578L125.241 180.344L130.357 178.505L130.8 179.739L128.769 180.469L129.422 182.286L131.453 181.557L131.893 182.783L126.778 184.623L126.337 183.396ZM128.463 175.77C128.094 176.029 127.651 176.2 127.135 176.282L126.888 176.319C126.364 176.4 125.885 176.374 125.452 176.241C125.019 176.109 124.666 175.88 124.393 175.555C124.12 175.23 123.949 174.839 123.879 174.382C123.809 173.924 123.852 173.501 124.008 173.114C124.164 172.728 124.422 172.405 124.783 172.147C125.144 171.889 125.577 171.716 126.082 171.628L126.385 171.582C126.911 171.501 127.39 171.526 127.822 171.658C128.254 171.79 128.607 172.019 128.881 172.346C129.155 172.673 129.328 173.067 129.398 173.527C129.468 173.982 129.422 174.405 129.26 174.795C129.098 175.185 128.833 175.51 128.463 175.77ZM128.384 173.683C128.284 173.033 127.744 172.764 126.764 172.877L126.369 172.933C125.842 173.014 125.451 173.164 125.195 173.382C124.939 173.6 124.837 173.882 124.89 174.226C124.94 174.553 125.118 174.785 125.423 174.919C125.728 175.054 126.142 175.082 126.664 175.005L126.911 174.967C127.445 174.885 127.836 174.734 128.086 174.513C128.335 174.292 128.434 174.015 128.384 173.683ZM126.82 165.673L126.805 166.177L128.874 167.286L128.826 168.873L126.364 167.304L123.388 168.896L123.434 167.347L125.618 166.258L125.637 165.638L123.488 165.573L123.527 164.262L128.96 164.426L128.921 165.737L126.82 165.673Z" fill="white"/>
<path d="M128.336 154.608C128.932 154.608 129.416 154.124 129.416 153.528C129.416 152.932 128.932 152.448 128.336 152.448C127.739 152.448 127.256 152.932 127.256 153.528C127.256 154.124 127.739 154.608 128.336 154.608Z" fill="#FF1037"/>
<path d="M204.8 154.608C205.397 154.608 205.88 154.124 205.88 153.528C205.88 152.932 205.397 152.448 204.8 152.448C204.204 152.448 203.72 152.932 203.72 153.528C203.72 154.124 204.204 154.608 204.8 154.608Z" fill="#FF1037"/>
<path fill-rule="evenodd" clip-rule="evenodd" d="M180.929 160.097C182.092 160.097 183.035 161.039 183.035 162.2V173.722C183.035 178.215 180.563 182.345 176.6 184.471L167.607 189.296C166.582 189.846 165.306 189.462 164.755 188.438C164.205 187.415 164.59 186.14 165.614 185.59L174.608 180.764C177.204 179.372 178.823 176.666 178.823 173.722V162.2C178.823 161.039 179.766 160.097 180.929 160.097Z" fill="#FF1037"/>
<path fill-rule="evenodd" clip-rule="evenodd" d="M180.929 150.842C182.092 150.842 183.034 151.783 183.034 152.945V162.244C183.034 166.543 180.77 170.524 177.074 172.725L167.688 178.312C166.689 178.907 165.397 178.58 164.802 177.582C164.206 176.584 164.533 175.293 165.532 174.698L174.918 169.111C177.34 167.669 178.823 165.06 178.823 162.244V152.945C178.823 151.783 179.766 150.842 180.929 150.842Z" fill="#00AFEC"/>
<path fill-rule="evenodd" clip-rule="evenodd" d="M154.397 154.207H180.929C182.092 154.207 183.034 153.265 183.034 152.104C183.034 150.942 182.092 150 180.929 150H153.976C151.883 150 150.186 151.695 150.186 153.786V173.722C150.186 178.216 152.658 182.345 156.62 184.471L165.614 189.296C166.638 189.846 167.915 189.462 168.465 188.439C169.015 187.415 168.631 186.14 167.606 185.59L158.613 180.765C156.017 179.372 154.397 176.666 154.397 173.722V154.207Z" fill="#152438"/>
<path fill-rule="evenodd" clip-rule="evenodd" d="M180.929 150C182.091 150 183.034 150.942 183.034 152.104C183.034 155.636 181.097 158.18 178.81 159.903C176.557 161.6 173.793 162.649 171.583 163.287C169.85 163.787 168.716 165.235 168.716 166.69V187.443C168.716 188.605 167.773 189.547 166.61 189.547C165.447 189.547 164.504 188.605 164.504 187.443V166.69C164.504 163.025 167.224 160.165 170.415 159.245C172.414 158.668 174.615 157.794 176.274 156.544C177.9 155.319 178.823 153.89 178.823 152.104C178.823 150.942 179.766 150 180.929 150Z" fill="#152438"/>
<ellipse cx="167.5" cy="266.5" rx="13.5" ry="13.5" transform="rotate(90 167.5 266.5)" fill="#307ABD"/>
<path d="M163 69L166.375 72L172 67" stroke="white" stroke-width="2"/>
<path d="M162 266L165.375 269L171 264" stroke="white" stroke-width="2"/>
<path d="M40 275.6L44.875 281L53 272" stroke="white" stroke-width="2"/>
<path d="M49.8145 60.2397C49.8145 59.7489 49.6346 59.3595 49.2749 59.0718C48.9194 58.7798 48.418 58.6338 47.7705 58.6338C47.2288 58.6338 46.7739 58.784 46.4058 59.0845C46.0418 59.3807 45.8599 59.7489 45.8599 60.189H44.6411C44.6411 59.6981 44.7744 59.258 45.041 58.8687C45.3118 58.4793 45.6885 58.1768 46.1709 57.9609C46.6533 57.7409 47.1865 57.6309 47.7705 57.6309C48.8031 57.6309 49.605 57.8636 50.1763 58.3291C50.7476 58.7904 51.0332 59.4336 51.0332 60.2588C51.0332 60.6862 50.902 61.0755 50.6396 61.4268C50.3773 61.778 50.0112 62.0552 49.5415 62.2583C50.6291 62.6222 51.1729 63.3438 51.1729 64.4229C51.1729 65.2523 50.8639 65.9103 50.2461 66.397C49.6283 66.8836 48.8031 67.127 47.7705 67.127C47.1569 67.127 46.5983 67.019 46.0947 66.8032C45.5954 66.5832 45.2061 66.2721 44.9268 65.8701C44.6475 65.4681 44.5078 64.9899 44.5078 64.4355H45.7266C45.7266 64.9222 45.9191 65.3285 46.3042 65.6543C46.6893 65.9759 47.1781 66.1367 47.7705 66.1367C48.4349 66.1367 48.9639 65.9823 49.3574 65.6733C49.7552 65.3644 49.9541 64.9561 49.9541 64.4482C49.9541 63.3649 49.2834 62.8127 47.9419 62.7915H46.7993V61.7886H47.9355C48.5534 61.7759 49.021 61.6362 49.3384 61.3696C49.6558 61.103 49.8145 60.7264 49.8145 60.2397ZM56.8477 67C56.7799 66.8646 56.7249 66.6234 56.6826 66.2764C56.1367 66.8434 55.485 67.127 54.7275 67.127C54.0505 67.127 53.494 66.9365 53.0581 66.5557C52.6265 66.1706 52.4106 65.6839 52.4106 65.0957C52.4106 64.3805 52.6815 63.8262 53.2231 63.4326C53.769 63.0348 54.535 62.8359 55.521 62.8359H56.6636V62.2964C56.6636 61.8859 56.5409 61.5601 56.2954 61.3188C56.05 61.0734 55.6882 60.9507 55.21 60.9507C54.791 60.9507 54.4398 61.0565 54.1562 61.2681C53.8727 61.4797 53.731 61.7357 53.731 62.0361H52.5503C52.5503 61.6934 52.6709 61.3633 52.9121 61.0459C53.1576 60.7243 53.4876 60.4704 53.9023 60.2842C54.3213 60.098 54.7804 60.0049 55.2798 60.0049C56.0711 60.0049 56.6911 60.2038 57.1396 60.6016C57.5882 60.9951 57.821 61.5389 57.8379 62.2329V65.394C57.8379 66.0246 57.9183 66.526 58.0791 66.8984V67H56.8477ZM54.8989 66.105C55.2671 66.105 55.6162 66.0098 55.9463 65.8193C56.2764 65.6289 56.5155 65.3813 56.6636 65.0767V63.6675H55.7432C54.3044 63.6675 53.585 64.0885 53.585 64.9307C53.585 65.2988 53.7077 65.5866 53.9531 65.7939C54.1986 66.0013 54.5138 66.105 54.8989 66.105ZM64.9282 60.1318V67H63.7476V64.3276H61.9766L60.3579 67H59.0884L60.8149 64.1499C60.3748 63.9891 60.0363 63.7415 59.7993 63.4072C59.5666 63.0687 59.4502 62.6751 59.4502 62.2266C59.4502 61.6003 59.6851 61.0967 60.1548 60.7158C60.6245 60.3307 61.2529 60.1361 62.04 60.1318H64.9282ZM60.6309 62.2393C60.6309 62.5736 60.7451 62.8444 60.9736 63.0518C61.2021 63.2549 61.5047 63.3586 61.8813 63.3628H63.7476V61.084H62.0591C61.6232 61.084 61.2762 61.1919 61.0181 61.4077C60.7599 61.6193 60.6309 61.8965 60.6309 62.2393ZM66.9214 67V60.1318L69.6001 60.1318C70.5142 60.1318 71.2145 60.2926 71.7012 60.6143C72.1921 60.9316 72.4375 61.3993 72.4375 62.0171C72.4375 62.3345 72.3423 62.6222 72.1519 62.8804C71.9614 63.1343 71.68 63.3289 71.3076 63.4644C71.7223 63.5617 72.0545 63.7521 72.3042 64.0356C72.5581 64.3192 72.6851 64.6577 72.6851 65.0513C72.6851 65.6818 72.4523 66.1642 71.9868 66.4985C71.5256 66.8328 70.8717 67 70.0254 67H66.9214ZM68.0957 63.9849V66.0542H70.0381C70.529 66.0542 70.895 65.9632 71.1362 65.7812C71.3817 65.5993 71.5044 65.3433 71.5044 65.0132C71.5044 64.3276 71.0008 63.9849 69.9937 63.9849H68.0957ZM68.0957 63.0454H69.6128C70.7131 63.0454 71.2632 62.7238 71.2632 62.0806C71.2632 61.4373 70.7427 61.1051 69.7017 61.084L68.0957 61.084V63.0454ZM76.3794 64.0737H75.5225V67H74.3418V60.1318H75.5225V63.0391H76.2905L78.6011 60.1318H80.0229L77.3062 63.4326L80.2515 67H78.7598L76.3794 64.0737ZM85.501 67C85.4333 66.8646 85.3783 66.6234 85.3359 66.2764C84.79 66.8434 84.1383 67.127 83.3809 67.127C82.7038 67.127 82.1473 66.9365 81.7114 66.5557C81.2798 66.1706 81.064 65.6839 81.064 65.0957C81.064 64.3805 81.3348 63.8262 81.8765 63.4326C82.4224 63.0348 83.1883 62.8359 84.1743 62.8359H85.3169V62.2964C85.3169 61.8859 85.1942 61.5601 84.9487 61.3188C84.7033 61.0734 84.3415 60.9507 83.8633 60.9507C83.4443 60.9507 83.0931 61.0565 82.8096 61.2681C82.526 61.4797 82.3843 61.7357 82.3843 62.0361H81.2036C81.2036 61.6934 81.3242 61.3633 81.5654 61.0459C81.8109 60.7243 82.141 60.4704 82.5557 60.2842C82.9746 60.098 83.4338 60.0049 83.9331 60.0049C84.7244 60.0049 85.3444 60.2038 85.793 60.6016C86.2415 60.9951 86.4743 61.5389 86.4912 62.2329V65.394C86.4912 66.0246 86.5716 66.526 86.7324 66.8984V67H85.501ZM83.5522 66.105C83.9204 66.105 84.2695 66.0098 84.5996 65.8193C84.9297 65.6289 85.1688 65.3813 85.3169 65.0767V63.6675H84.3965C82.9577 63.6675 82.2383 64.0885 82.2383 64.9307C82.2383 65.2988 82.361 65.5866 82.6064 65.7939C82.8519 66.0013 83.1672 66.105 83.5522 66.105ZM97.1743 67H96V61.103H92.8389V67H91.6582V60.1318H97.1743V67ZM98.7485 63.5024C98.7485 62.8296 98.8797 62.2244 99.1421 61.687C99.4087 61.1496 99.7769 60.7349 100.247 60.4429C100.721 60.1509 101.26 60.0049 101.865 60.0049C102.8 60.0049 103.556 60.3286 104.131 60.9761C104.711 61.6235 105.001 62.4847 105.001 63.5596V63.6421C105.001 64.3107 104.872 64.9116 104.614 65.4448C104.36 65.9738 103.994 66.3864 103.516 66.6826C103.042 66.9788 102.496 67.127 101.878 67.127C100.947 67.127 100.192 66.8032 99.6118 66.1558C99.0363 65.5083 98.7485 64.6514 98.7485 63.585V63.5024ZM99.9292 63.6421C99.9292 64.4038 100.105 65.0153 100.456 65.4766C100.812 65.9378 101.285 66.1685 101.878 66.1685C102.475 66.1685 102.949 65.9357 103.3 65.4702C103.651 65.0005 103.827 64.3446 103.827 63.5024C103.827 62.7492 103.647 62.1398 103.287 61.6743C102.932 61.2046 102.458 60.9697 101.865 60.9697C101.285 60.9697 100.818 61.2004 100.462 61.6616C100.107 62.1229 99.9292 62.783 99.9292 63.6421ZM105.959 66.0415L106.366 65.54C106.823 64.9476 107.083 64.0589 107.146 62.874L107.254 60.1318L111.679 60.1318V66.0415H112.561V69.0186H111.387V67H106.594V69.0186H105.42L105.426 66.0415H105.959ZM107.35 66.0415H110.504V61.2173H108.391L108.321 62.855C108.249 64.2218 107.925 65.284 107.35 66.0415ZM118.103 67C118.035 66.8646 117.98 66.6234 117.938 66.2764C117.392 66.8434 116.74 67.127 115.982 67.127C115.305 67.127 114.749 66.9365 114.313 66.5557C113.881 66.1706 113.666 65.6839 113.666 65.0957C113.666 64.3805 113.936 63.8262 114.478 63.4326C115.024 63.0348 115.79 62.8359 116.776 62.8359H117.918V62.2964C117.918 61.8859 117.796 61.5601 117.55 61.3188C117.305 61.0734 116.943 60.9507 116.465 60.9507C116.046 60.9507 115.695 61.0565 115.411 61.2681C115.128 61.4797 114.986 61.7357 114.986 62.0361H113.805C113.805 61.6934 113.926 61.3633 114.167 61.0459C114.412 60.7243 114.743 60.4704 115.157 60.2842C115.576 60.098 116.035 60.0049 116.535 60.0049C117.326 60.0049 117.946 60.2038 118.395 60.6016C118.843 60.9951 119.076 61.5389 119.093 62.2329V65.394C119.093 66.0246 119.173 66.526 119.334 66.8984V67H118.103ZM116.154 66.105C116.522 66.105 116.871 66.0098 117.201 65.8193C117.531 65.6289 117.77 65.3813 117.918 65.0767V63.6675H116.998C115.559 63.6675 114.84 64.0885 114.84 64.9307C114.84 65.2988 114.963 65.5866 115.208 65.7939C115.453 66.0013 115.769 66.105 116.154 66.105ZM126.545 67H125.371V64.0674H122.216V67H121.035V60.1318H122.216V63.1089H125.371V60.1318H126.545V67ZM132.677 67C132.609 66.8646 132.554 66.6234 132.512 66.2764C131.966 66.8434 131.314 67.127 130.557 67.127C129.88 67.127 129.323 66.9365 128.887 66.5557C128.456 66.1706 128.24 65.6839 128.24 65.0957C128.24 64.3805 128.511 63.8262 129.052 63.4326C129.598 63.0348 130.364 62.8359 131.35 62.8359H132.493V62.2964C132.493 61.8859 132.37 61.5601 132.125 61.3188C131.879 61.0734 131.517 60.9507 131.039 60.9507C130.62 60.9507 130.269 61.0565 129.985 61.2681C129.702 61.4797 129.56 61.7357 129.56 62.0361H128.379C128.379 61.6934 128.5 61.3633 128.741 61.0459C128.987 60.7243 129.317 60.4704 129.731 60.2842C130.15 60.098 130.61 60.0049 131.109 60.0049C131.9 60.0049 132.52 60.2038 132.969 60.6016C133.417 60.9951 133.65 61.5389 133.667 62.2329V65.394C133.667 66.0246 133.747 66.526 133.908 66.8984V67H132.677ZM130.728 66.105C131.096 66.105 131.445 66.0098 131.775 65.8193C132.105 65.6289 132.345 65.3813 132.493 65.0767V63.6675H131.572C130.133 63.6675 129.414 64.0885 129.414 64.9307C129.414 65.2988 129.537 65.5866 129.782 65.7939C130.028 66.0013 130.343 66.105 130.728 66.105ZM44.9966 85V78.1318H47.6753C48.5894 78.1318 49.2897 78.2926 49.7764 78.6143C50.2673 78.9316 50.5127 79.3993 50.5127 80.0171C50.5127 80.3345 50.4175 80.6222 50.2271 80.8804C50.0366 81.1343 49.7552 81.3289 49.3828 81.4644C49.7975 81.5617 50.1297 81.7521 50.3794 82.0356C50.6333 82.3192 50.7603 82.6577 50.7603 83.0513C50.7603 83.6818 50.5275 84.1642 50.062 84.4985C49.6007 84.8328 48.9469 85 48.1006 85H44.9966ZM46.1709 81.9849V84.0542H48.1133C48.6042 84.0542 48.9702 83.9632 49.2114 83.7812C49.4569 83.5993 49.5796 83.3433 49.5796 83.0132C49.5796 82.3276 49.076 81.9849 48.0688 81.9849H46.1709ZM46.1709 81.0454H47.688C48.7882 81.0454 49.3384 80.7238 49.3384 80.0806C49.3384 79.4373 48.8179 79.1051 47.7769 79.084H46.1709V81.0454ZM56.9429 81.3818L56.9429 85H55.7241L55.7241 75.7578H59.1328C60.1442 75.7578 60.9355 76.016 61.5068 76.5322C62.0824 77.0485 62.3701 77.7319 62.3701 78.5825C62.3701 79.4797 62.0887 80.1715 61.5259 80.6582C60.9673 81.1406 60.1654 81.3818 59.1201 81.3818H56.9429ZM56.9429 80.3853H59.1328C59.7845 80.3853 60.2839 80.2329 60.6309 79.9282C60.9779 79.6193 61.1514 79.175 61.1514 78.5952C61.1514 78.0451 60.9779 77.605 60.6309 77.2749C60.2839 76.9448 59.8078 76.7734 59.2026 76.7607H56.9429V80.3853ZM63.3413 81.5024C63.3413 80.8296 63.4725 80.2244 63.7349 79.687C64.0015 79.1496 64.3696 78.7349 64.8394 78.4429C65.3133 78.1509 65.8529 78.0049 66.458 78.0049C67.3932 78.0049 68.1486 78.3286 68.7241 78.9761C69.3039 79.6235 69.5938 80.4847 69.5938 81.5596V81.6421C69.5938 82.3107 69.4647 82.9116 69.2065 83.4448C68.9526 83.9738 68.5866 84.3864 68.1084 84.6826C67.6344 84.9788 67.0885 85.127 66.4707 85.127C65.5397 85.127 64.7843 84.8032 64.2046 84.1558C63.6291 83.5083 63.3413 82.6514 63.3413 81.585V81.5024ZM64.522 81.6421C64.522 82.4038 64.6976 83.0153 65.0488 83.4766C65.4043 83.9378 65.8783 84.1685 66.4707 84.1685C67.0674 84.1685 67.5413 83.9357 67.8926 83.4702C68.2438 83.0005 68.4194 82.3446 68.4194 81.5024C68.4194 80.7492 68.2396 80.1398 67.8799 79.6743C67.5244 79.2046 67.0505 78.9697 66.458 78.9697C65.8783 78.9697 65.4106 79.2004 65.0552 79.6616C64.6997 80.1229 64.522 80.783 64.522 81.6421ZM73.8213 84.1685C74.2402 84.1685 74.6063 84.0415 74.9194 83.7876C75.2326 83.5337 75.4061 83.2163 75.4399 82.8354H76.5508C76.5296 83.229 76.3942 83.6035 76.1445 83.959C75.8949 84.3145 75.5605 84.598 75.1416 84.8096C74.7269 85.0212 74.2868 85.127 73.8213 85.127C72.8861 85.127 72.1413 84.8159 71.5869 84.1938C71.0368 83.5675 70.7617 82.7127 70.7617 81.6294V81.4326C70.7617 80.764 70.8844 80.1694 71.1299 79.6489C71.3753 79.1284 71.7266 78.7243 72.1836 78.4365C72.6449 78.1488 73.1886 78.0049 73.8149 78.0049C74.5851 78.0049 75.2241 78.2355 75.7319 78.6968C76.244 79.158 76.5169 79.7568 76.5508 80.4932H75.4399C75.4061 80.0488 75.2368 79.6849 74.9321 79.4014C74.6317 79.1136 74.2593 78.9697 73.8149 78.9697C73.2183 78.9697 72.7549 79.1855 72.4248 79.6172C72.099 80.0446 71.936 80.6646 71.936 81.4771V81.6992C71.936 82.4906 72.099 83.0999 72.4248 83.5273C72.7507 83.9548 73.2161 84.1685 73.8213 84.1685ZM83.4888 85H82.3145V79.103H79.1533V85H77.9727V78.1318H83.4888V85ZM89.6143 85C89.5465 84.8646 89.4915 84.6234 89.4492 84.2764C88.9033 84.8434 88.2516 85.127 87.4941 85.127C86.8171 85.127 86.2606 84.9365 85.8247 84.5557C85.3931 84.1706 85.1772 83.6839 85.1772 83.0957C85.1772 82.3805 85.4481 81.8262 85.9897 81.4326C86.5356 81.0348 87.3016 80.8359 88.2876 80.8359H89.4302V80.2964C89.4302 79.8859 89.3075 79.5601 89.062 79.3188C88.8166 79.0734 88.4548 78.9507 87.9766 78.9507C87.5576 78.9507 87.2064 79.0565 86.9229 79.2681C86.6393 79.4797 86.4976 79.7357 86.4976 80.0361H85.3169C85.3169 79.6934 85.4375 79.3633 85.6787 79.0459C85.9242 78.7243 86.2542 78.4704 86.6689 78.2842C87.0879 78.098 87.547 78.0049 88.0464 78.0049C88.8377 78.0049 89.4577 78.2038 89.9062 78.6016C90.3548 78.9951 90.5876 79.5389 90.6045 80.2329V83.394C90.6045 84.0246 90.6849 84.526 90.8457 84.8984V85H89.6143ZM87.6655 84.105C88.0337 84.105 88.3828 84.0098 88.7129 83.8193C89.043 83.6289 89.2821 83.3813 89.4302 83.0767V81.6675H88.5098C87.071 81.6675 86.3516 82.0885 86.3516 82.9307C86.3516 83.2988 86.4743 83.5866 86.7197 83.7939C86.9652 84.0013 87.2804 84.105 87.6655 84.105ZM97.4473 79.084H95.1431V85H93.9688V79.084H91.709V78.1318H97.4473V79.084ZM100.932 85.127C100.001 85.127 99.2437 84.8223 98.6597 84.2129C98.0757 83.5993 97.7837 82.7804 97.7837 81.7563V81.5405C97.7837 80.8592 97.9128 80.252 98.1709 79.7188C98.4333 79.1813 98.7972 78.7624 99.2627 78.4619C99.7324 78.1572 100.24 78.0049 100.786 78.0049C101.679 78.0049 102.373 78.299 102.868 78.8872C103.363 79.4754 103.611 80.3175 103.611 81.4136V81.9023L98.958 81.9023C98.9749 82.5794 99.1717 83.1274 99.5483 83.5464C99.9292 83.9611 100.412 84.1685 100.996 84.1685C101.41 84.1685 101.762 84.0838 102.049 83.9146C102.337 83.7453 102.589 83.521 102.805 83.2417L103.522 83.8003C102.946 84.6847 102.083 85.127 100.932 85.127ZM100.786 78.9697C100.312 78.9697 99.9144 79.1432 99.5928 79.4902C99.2712 79.833 99.0723 80.3154 98.9961 80.9375L102.437 80.9375V80.8486C102.403 80.252 102.242 79.7907 101.954 79.4648C101.666 79.1348 101.277 78.9697 100.786 78.9697ZM110.587 85H109.413V82.0674H106.258V85H105.077V78.1318H106.258V81.1089H109.413V78.1318H110.587V85ZM117.582 79.084H115.278V85H114.104V79.084H111.844V78.1318H117.582V79.084Z" fill="#152438"/>
<path d="M208.131 266H206.906V257.761H202.349V266H201.13V256.758H208.131V266ZM209.858 262.502C209.858 261.83 209.989 261.224 210.251 260.687C210.518 260.15 210.886 259.735 211.356 259.443C211.83 259.151 212.369 259.005 212.975 259.005C213.91 259.005 214.665 259.329 215.241 259.976C215.82 260.624 216.11 261.485 216.11 262.56V262.642C216.11 263.311 215.981 263.912 215.723 264.445C215.469 264.974 215.103 265.386 214.625 265.683C214.151 265.979 213.605 266.127 212.987 266.127C212.056 266.127 211.301 265.803 210.721 265.156C210.146 264.508 209.858 263.651 209.858 262.585V262.502ZM211.039 262.642C211.039 263.404 211.214 264.015 211.565 264.477C211.921 264.938 212.395 265.168 212.987 265.168C213.584 265.168 214.058 264.936 214.409 264.47C214.76 264 214.936 263.345 214.936 262.502C214.936 261.749 214.756 261.14 214.396 260.674C214.041 260.205 213.567 259.97 212.975 259.97C212.395 259.97 211.927 260.2 211.572 260.662C211.216 261.123 211.039 261.783 211.039 262.642ZM223.112 259.132V266H221.931V260.103H219.595L219.456 262.674C219.379 263.854 219.181 264.699 218.859 265.207C218.542 265.714 218.036 265.979 217.342 266H216.872V264.965L217.208 264.94C217.589 264.898 217.862 264.678 218.027 264.28C218.192 263.882 218.298 263.146 218.345 262.071L218.472 259.132H223.112ZM227.244 264.28L228.844 259.132H230.101L227.339 267.06C226.912 268.203 226.233 268.774 225.302 268.774L225.08 268.755L224.642 268.672V267.72L224.959 267.746C225.357 267.746 225.666 267.665 225.886 267.504C226.11 267.344 226.294 267.049 226.438 266.622L226.698 265.924L224.248 259.132H225.53L227.244 264.28ZM236.34 266H235.16V263.512C234.643 263.647 234.114 263.715 233.573 263.715C232.714 263.715 232.058 263.495 231.605 263.055C231.156 262.615 230.928 261.988 230.919 261.176V259.125H232.094V261.214C232.115 262.238 232.608 262.75 233.573 262.75C234.114 262.75 234.643 262.682 235.16 262.547V259.132H236.34V266ZM241.076 266.127C240.145 266.127 239.387 265.822 238.803 265.213C238.219 264.599 237.927 263.78 237.927 262.756V262.541C237.927 261.859 238.056 261.252 238.314 260.719C238.577 260.181 238.941 259.762 239.406 259.462C239.876 259.157 240.384 259.005 240.93 259.005C241.823 259.005 242.517 259.299 243.012 259.887C243.507 260.475 243.754 261.318 243.754 262.414V262.902H239.102C239.118 263.579 239.315 264.127 239.692 264.546C240.073 264.961 240.555 265.168 241.139 265.168C241.554 265.168 241.905 265.084 242.193 264.915C242.481 264.745 242.732 264.521 242.948 264.242L243.666 264.8C243.09 265.685 242.227 266.127 241.076 266.127ZM240.93 259.97C240.456 259.97 240.058 260.143 239.736 260.49C239.415 260.833 239.216 261.315 239.14 261.938H242.58V261.849C242.546 261.252 242.385 260.791 242.098 260.465C241.81 260.135 241.421 259.97 240.93 259.97ZM250.73 266H249.556V263.067H246.401V266H245.221V259.132H246.401V262.109H249.556V259.132H250.73V266ZM252.311 262.502C252.311 261.83 252.442 261.224 252.705 260.687C252.971 260.15 253.339 259.735 253.809 259.443C254.283 259.151 254.823 259.005 255.428 259.005C256.363 259.005 257.118 259.329 257.694 259.976C258.274 260.624 258.563 261.485 258.563 262.56V262.642C258.563 263.311 258.434 263.912 258.176 264.445C257.922 264.974 257.556 265.386 257.078 265.683C256.604 265.979 256.058 266.127 255.44 266.127C254.509 266.127 253.754 265.803 253.174 265.156C252.599 264.508 252.311 263.651 252.311 262.585V262.502ZM253.492 262.642C253.492 263.404 253.667 264.015 254.019 264.477C254.374 264.938 254.848 265.168 255.44 265.168C256.037 265.168 256.511 264.936 256.862 264.47C257.214 264 257.389 263.345 257.389 262.502C257.389 261.749 257.209 261.14 256.85 260.674C256.494 260.205 256.02 259.97 255.428 259.97C254.848 259.97 254.38 260.2 254.025 260.662C253.669 261.123 253.492 261.783 253.492 262.642ZM203.644 283.168C204.062 283.168 204.429 283.042 204.742 282.788C205.055 282.534 205.228 282.216 205.262 281.835H206.373C206.352 282.229 206.216 282.604 205.967 282.959C205.717 283.314 205.383 283.598 204.964 283.81C204.549 284.021 204.109 284.127 203.644 284.127C202.708 284.127 201.964 283.816 201.409 283.194C200.859 282.568 200.584 281.713 200.584 280.629V280.433C200.584 279.764 200.707 279.169 200.952 278.649C201.198 278.128 201.549 277.724 202.006 277.437C202.467 277.149 203.011 277.005 203.637 277.005C204.407 277.005 205.046 277.236 205.554 277.697C206.066 278.158 206.339 278.757 206.373 279.493H205.262C205.228 279.049 205.059 278.685 204.754 278.401C204.454 278.114 204.082 277.97 203.637 277.97C203.041 277.97 202.577 278.186 202.247 278.617C201.921 279.045 201.758 279.665 201.758 280.477V280.699C201.758 281.491 201.921 282.1 202.247 282.527C202.573 282.955 203.038 283.168 203.644 283.168ZM207.801 284V277.132H210.48C211.394 277.132 212.094 277.293 212.581 277.614C213.072 277.932 213.317 278.399 213.317 279.017C213.317 279.334 213.222 279.622 213.032 279.88C212.841 280.134 212.56 280.329 212.188 280.464C212.602 280.562 212.934 280.752 213.184 281.036C213.438 281.319 213.565 281.658 213.565 282.051C213.565 282.682 213.332 283.164 212.867 283.499C212.405 283.833 211.752 284 210.905 284H207.801ZM208.976 280.985V283.054H210.918C211.409 283.054 211.775 282.963 212.016 282.781C212.262 282.599 212.384 282.343 212.384 282.013C212.384 281.328 211.881 280.985 210.874 280.985H208.976ZM208.976 280.045H210.493C211.593 280.045 212.143 279.724 212.143 279.081C212.143 278.437 211.623 278.105 210.582 278.084H208.976V280.045ZM219.563 277.132H220.738V284H219.563V278.992L216.396 284H215.222V277.132H216.396V282.146L219.563 277.132ZM222.566 283.042L222.972 282.54C223.429 281.948 223.689 281.059 223.753 279.874L223.861 277.132H228.285V283.042H229.167V286.019H227.993V284H223.201V286.019H222.026L222.033 283.042H222.566ZM223.956 283.042H227.111V278.217H224.997L224.927 279.855C224.855 281.222 224.532 282.284 223.956 283.042ZM233.319 284.127C232.388 284.127 231.63 283.822 231.046 283.213C230.462 282.599 230.17 281.78 230.17 280.756V280.541C230.17 279.859 230.299 279.252 230.558 278.719C230.82 278.181 231.184 277.762 231.649 277.462C232.119 277.157 232.627 277.005 233.173 277.005C234.066 277.005 234.76 277.299 235.255 277.887C235.75 278.475 235.998 279.318 235.998 280.414V280.902H231.345C231.362 281.579 231.558 282.127 231.935 282.546C232.316 282.961 232.798 283.168 233.382 283.168C233.797 283.168 234.148 283.084 234.436 282.915C234.724 282.745 234.976 282.521 235.191 282.242L235.909 282.8C235.333 283.685 234.47 284.127 233.319 284.127ZM233.173 277.97C232.699 277.97 232.301 278.143 231.979 278.49C231.658 278.833 231.459 279.315 231.383 279.938H234.823V279.849C234.789 279.252 234.629 278.791 234.341 278.465C234.053 278.135 233.664 277.97 233.173 277.97ZM242.39 278.084H240.085V284H238.911V278.084H236.651V277.132H242.39V278.084ZM245.875 284.127C244.944 284.127 244.186 283.822 243.602 283.213C243.018 282.599 242.726 281.78 242.726 280.756V280.541C242.726 279.859 242.855 279.252 243.113 278.719C243.376 278.181 243.74 277.762 244.205 277.462C244.675 277.157 245.183 277.005 245.729 277.005C246.621 277.005 247.315 277.299 247.811 277.887C248.306 278.475 248.553 279.318 248.553 280.414V280.902H243.9C243.917 281.579 244.114 282.127 244.491 282.546C244.872 282.961 245.354 283.168 245.938 283.168C246.353 283.168 246.704 283.084 246.992 282.915C247.279 282.745 247.531 282.521 247.747 282.242L248.464 282.8C247.889 283.685 247.026 284.127 245.875 284.127ZM245.729 277.97C245.255 277.97 244.857 278.143 244.535 278.49C244.214 278.833 244.015 279.315 243.938 279.938H247.379V279.849C247.345 279.252 247.184 278.791 246.896 278.465C246.609 278.135 246.219 277.97 245.729 277.97ZM255.548 277.132V284H254.368V278.103H252.032L251.892 280.674C251.816 281.854 251.617 282.699 251.295 283.207C250.978 283.714 250.472 283.979 249.778 284H249.309V282.965L249.645 282.94C250.026 282.898 250.299 282.678 250.464 282.28C250.629 281.882 250.735 281.146 250.781 280.071L250.908 277.132H255.548ZM258.716 279.5H260.5C261.278 279.508 261.894 279.711 262.347 280.109C262.799 280.507 263.026 281.046 263.026 281.728C263.026 282.413 262.793 282.963 262.328 283.378C261.862 283.793 261.236 284 260.449 284H257.542V277.132H258.716V279.5ZM258.716 280.458V283.042H260.461C260.902 283.042 261.242 282.929 261.483 282.705C261.725 282.477 261.845 282.166 261.845 281.772C261.845 281.391 261.727 281.08 261.49 280.839C261.257 280.593 260.929 280.466 260.506 280.458H258.716ZM267.247 283.168C267.666 283.168 268.032 283.042 268.345 282.788C268.658 282.534 268.832 282.216 268.866 281.835H269.977C269.955 282.229 269.82 282.604 269.57 282.959C269.321 283.314 268.986 283.598 268.567 283.81C268.153 284.021 267.713 284.127 267.247 284.127C266.312 284.127 265.567 283.816 265.013 283.194C264.463 282.568 264.188 281.713 264.188 280.629V280.433C264.188 279.764 264.31 279.169 264.556 278.649C264.801 278.128 265.152 277.724 265.609 277.437C266.071 277.149 266.614 277.005 267.241 277.005C268.011 277.005 268.65 277.236 269.158 277.697C269.67 278.158 269.943 278.757 269.977 279.493H268.866C268.832 279.049 268.663 278.685 268.358 278.401C268.057 278.114 267.685 277.97 267.241 277.97C266.644 277.97 266.181 278.186 265.851 278.617C265.525 279.045 265.362 279.665 265.362 280.477V280.699C265.362 281.491 265.525 282.1 265.851 282.527C266.176 282.955 266.642 283.168 267.247 283.168ZM276.4 278.084H274.096V284H272.922V278.084H270.662V277.132H276.4V278.084ZM277.651 284V277.132H280.33C281.244 277.132 281.944 277.293 282.431 277.614C282.922 277.932 283.167 278.399 283.167 279.017C283.167 279.334 283.072 279.622 282.881 279.88C282.691 280.134 282.41 280.329 282.037 280.464C282.452 280.562 282.784 280.752 283.034 281.036C283.288 281.319 283.415 281.658 283.415 282.051C283.415 282.682 283.182 283.164 282.716 283.499C282.255 283.833 281.601 284 280.755 284H277.651ZM278.825 280.985V283.054H280.768C281.258 283.054 281.625 282.963 281.866 282.781C282.111 282.599 282.234 282.343 282.234 282.013C282.234 281.328 281.73 280.985 280.723 280.985H278.825ZM278.825 280.045H280.342C281.443 280.045 281.993 279.724 281.993 279.081C281.993 278.437 281.472 278.105 280.431 278.084H278.825V280.045ZM284.659 280.502C284.659 279.83 284.79 279.224 285.052 278.687C285.319 278.15 285.687 277.735 286.157 277.443C286.631 277.151 287.17 277.005 287.775 277.005C288.711 277.005 289.466 277.329 290.042 277.976C290.621 278.624 290.911 279.485 290.911 280.56V280.642C290.911 281.311 290.782 281.912 290.524 282.445C290.27 282.974 289.904 283.386 289.426 283.683C288.952 283.979 288.406 284.127 287.788 284.127C286.857 284.127 286.102 283.803 285.522 283.156C284.946 282.508 284.659 281.651 284.659 280.585V280.502ZM285.839 280.642C285.839 281.404 286.015 282.015 286.366 282.477C286.722 282.938 287.196 283.168 287.788 283.168C288.385 283.168 288.859 282.936 289.21 282.47C289.561 282 289.737 281.345 289.737 280.502C289.737 279.749 289.557 279.14 289.197 278.674C288.842 278.205 288.368 277.97 287.775 277.97C287.196 277.97 286.728 278.2 286.373 278.662C286.017 279.123 285.839 279.783 285.839 280.642Z" fill="#152438"/>
<defs>
<linearGradient id="paint0_linear" x1="167.5" y1="0" x2="167.5" y2="36" gradientUnits="userSpaceOnUse">
<stop stop-color="#ECECEB"/>
<stop offset="1" stop-color="#D7D7D7"/>
</linearGradient>
</defs>
</svg>
