<svg width="500" height="454" viewBox="0 0 500 454" fill="none" xmlns="http://www.w3.org/2000/svg">
<g clip-path="url(#clip0)">
<path d="M92.382 453.95C143.403 453.95 184.764 447.946 184.764 440.539C184.764 433.132 143.403 427.127 92.382 427.127C41.3608 427.127 0 433.132 0 440.539C0 447.946 41.3608 453.95 92.382 453.95Z" fill="#CECED6"/>
<path d="M146.088 435.283C135.046 434.348 120.658 426.193 121.605 412.179C122.075 405.229 126.799 400.132 131.928 396.555C139.022 391.607 147.506 388.957 155.824 387.451C165.418 385.715 175.206 385.494 184.941 385.344C194.552 385.195 204.147 384.928 213.731 384.261C232.613 382.943 251.392 380.424 269.955 376.72C288.158 373.1 306.115 368.339 323.72 362.465C332.457 359.546 341.1 356.339 349.65 352.844C357.628 349.577 365.622 346.2 373.189 341.956C383.159 336.363 399.193 325.936 395.763 311.109C393.945 303.247 387.393 297.659 381.053 294.005C373.387 289.588 364.879 287.151 356.549 284.793C317.805 273.825 279.014 263.057 240.247 252.19C231.2 249.654 222.108 247.224 213.227 244.019C204.911 241.018 196.544 237.358 189.412 231.696C183.184 226.75 177.272 219.779 176.29 211.226C175.475 204.132 178.57 197.6 182.748 192.465C193.093 179.753 209.245 172.981 224.074 168.571C242.497 163.093 261.592 160.524 280.042 155.145C294.938 150.801 310.589 144.19 321.557 132.178C325.762 127.573 329.255 121.905 330.158 115.355C331.043 108.939 329.086 102.607 325.491 97.4054C321.249 91.2663 315.195 86.738 308.993 83.1982C301.676 79.1224 293.825 76.0896 285.668 74.1877C268.078 69.8909 250.052 68.854 232.262 66.1374C223.537 64.8051 214.696 63.246 206.331 60.0615C199.244 57.3635 191.398 53.4958 186.751 46.7939C177.164 32.9664 194.042 21.6675 203.83 16.9281C210.552 13.7897 217.486 11.1305 224.583 8.97046C226.09 8.48823 225.091 6.03695 223.591 6.51691C216.189 8.88453 208.809 11.4754 201.813 14.9795C195.922 17.9298 189.926 21.571 185.721 27.0091C182.19 31.5763 180.428 37.6254 182.33 43.5018C184.579 50.4545 190.909 55.1897 196.693 58.457C204.343 62.7777 212.718 65.1421 221.117 66.8565C229.962 68.6622 238.899 69.7929 247.827 70.8801C265.667 73.0525 284.214 74.63 301.065 82.1101C312.854 87.3426 329.337 97.9142 327.827 113.988C327.156 121.123 323.01 127.191 318.283 131.882C312.571 137.551 305.726 141.821 298.666 145.273C265.744 161.367 226.703 158.329 195.224 178.396C184.521 185.22 171.954 196.706 173.888 211.84C174.893 219.702 179.69 226.389 185.185 231.443C191.766 237.496 199.776 241.547 207.801 244.753C216.29 248.144 225.049 250.638 233.786 253.092C243.51 255.824 253.235 258.55 262.961 261.271L321.99 277.818L351.32 286.039C360.271 288.548 369.419 290.879 377.834 295.202C384.725 298.741 393.138 304.939 393.707 313.973C394.158 321.147 389.123 327.049 384.353 331.186C378.175 336.542 370.949 340.444 363.695 343.855C355.329 347.79 346.755 351.275 338.133 354.532C320.374 361.227 302.192 366.74 283.706 371.036C265.161 375.359 246.36 378.495 227.416 380.423C217.84 381.397 208.236 382.057 198.605 382.403C188.677 382.757 178.72 382.58 168.809 383.245C159.844 383.846 150.893 385.2 142.406 388.315C135.319 390.917 127.991 394.836 123.205 401.197C121.507 403.433 120.3 406.001 119.66 408.734C119.02 411.468 118.963 414.305 119.492 417.062C120.71 422.611 123.806 427.569 128.257 431.1C133.279 435.086 139.388 437.46 145.784 437.912C147.361 438.045 147.672 435.417 146.088 435.283V435.283Z" fill="#CECED6"/>
<path d="M76.1916 69.3712L75.521 86.1357L96.9796 100.889L100.333 69.3712H76.1916Z" fill="#FFB9B9"/>
<path d="M126.485 155.206L133.862 176.664L148.615 227.629C148.615 227.629 163.367 252.44 150.626 253.111C137.885 253.781 140.568 230.981 140.568 230.981L119.78 194.77L115.085 156.547L126.485 155.206Z" fill="#FFB9B9"/>
<path d="M119.601 404.435C119.601 404.435 124.496 417.792 129.487 424.245C134.479 430.698 126.8 434.825 126.8 434.825L102.413 431.946C102.413 431.946 103.882 410.601 101.977 407.057L119.601 404.435Z" fill="#FFB9B9"/>
<path d="M125.397 427.966C125.397 427.966 129.31 418.25 131.533 422.384C133.755 426.519 142.608 431.658 142.608 431.658C142.608 431.658 166.131 435.763 148.64 442.881C131.149 449.998 120.162 443.722 120.162 443.722C120.162 443.722 103.675 444.209 101.77 440.665C99.8654 437.121 99.3219 423.501 102.754 425.567C106.186 427.634 121.668 433.777 125.397 427.966Z" fill="#2F2E41"/>
<path d="M73.5093 387.227C73.5093 387.227 71.4976 401.31 72.8387 409.357C74.1799 417.404 65.4623 417.404 65.4623 417.404L45.3448 403.321C45.3448 403.321 56.7448 385.216 56.7448 381.192L73.5093 387.227Z" fill="#FFB9B9"/>
<path d="M123.803 235.676C123.803 235.676 118.438 300.722 107.709 324.863C96.9797 349.004 80.2151 395.945 80.2151 395.945L52.0507 385.886C52.0507 385.886 65.4623 324.863 77.5328 316.145L85.5798 218.911L123.803 235.676Z" fill="#2F2E41"/>
<path d="M113.744 237.017L104.356 272.558L124.474 405.333L98.9915 411.368L66.8035 261.828C66.8035 261.828 56.7447 242.381 62.78 223.605C68.8152 204.829 113.744 237.017 113.744 237.017Z" fill="#2F2E41"/>
<path d="M67.4741 410.698C67.4741 410.698 75.5211 403.992 75.5211 408.686C75.5211 413.38 80.8857 422.098 80.8857 422.098C80.8857 422.098 99.662 436.85 80.8857 434.839C62.1094 432.827 55.4036 422.098 55.4036 422.098C55.4036 422.098 40.6508 414.721 40.6508 410.698C40.6508 406.674 46.6205 394.419 48.665 397.864C50.7095 401.31 61.4388 414.051 67.4741 410.698Z" fill="#2F2E41"/>
<path d="M87.5916 78.0886C98.7022 78.0886 107.709 69.0817 107.709 57.9711C107.709 46.8605 98.7022 37.8536 87.5916 37.8536C76.481 37.8536 67.4741 46.8605 67.4741 57.9711C67.4741 69.0817 76.481 78.0886 87.5916 78.0886Z" fill="#FFB9B9"/>
<path d="M74.1799 78.0886L95.6385 94.8531L99.662 85.465L104.356 93.512C104.356 93.512 127.826 106.253 127.826 111.618C127.826 116.982 128.497 235.676 128.497 235.676C128.497 235.676 107.709 255.793 87.5915 227.629C67.4741 199.464 60.7682 241.711 60.7682 241.711L55.4036 159.229L47.3566 105.582C47.3566 105.582 48.6977 102.9 52.7212 100.218C56.7447 97.5355 70.827 86.8061 70.827 86.8061L74.1799 78.0886Z" fill="#4C4C78"/>
<path d="M119.78 107.594L128.497 110.947L136.544 156.547L118.438 160.57L119.78 107.594Z" fill="#4C4C78"/>
<path d="M33.9449 152.523L27.9097 183.37L68.8152 224.946C68.8152 224.946 78.874 245.064 86.921 236.346C94.9679 227.629 72.8387 216.229 72.8387 216.229L47.3566 174.652L53.3918 159.9L33.9449 152.523Z" fill="#FFB9B9"/>
<path d="M64.2503 44.9219C64.2503 44.9219 60.5232 36.7223 70.2137 32.9952C70.2137 32.9952 78.4133 19.5776 94.8125 28.5227C94.8125 28.5227 105.994 32.9952 105.994 44.9219C105.994 56.8486 109.721 59.0848 109.721 59.0848C109.721 59.0848 104.171 53.3907 102.68 48.9182C101.189 44.4457 89.5946 43.431 85.1221 47.9035C80.6496 52.376 69.4683 51.6306 69.4683 51.6306L70.2137 68.0298C70.2137 68.0298 66.4866 58.3394 64.9958 58.3394C63.505 58.3394 62.0141 44.9219 64.2503 44.9219Z" fill="#2F2E41"/>
<path d="M54.733 105.583H47.3565L29.9214 156.547L54.0624 163.923L67.474 130.394L54.733 105.583Z" fill="#4C4C78"/>
<path opacity="0.3" d="M86.3321 379.152L77.868 316.481L89.9586 369.403L86.3321 379.152Z" fill="black"/>
<path d="M148.001 241.337C147.378 241.338 146.782 241.585 146.342 242.025C145.902 242.465 145.654 243.062 145.654 243.684V373.48C145.654 374.103 145.902 374.699 146.342 375.139C146.782 375.579 147.378 375.827 148.001 375.827H497.653C498.275 375.827 498.872 375.579 499.312 375.139C499.752 374.699 499.999 374.103 500 373.48V243.684C499.999 243.062 499.752 242.465 499.312 242.025C498.872 241.585 498.275 241.338 497.653 241.337H148.001Z" fill="#CECED6"/>
<path d="M159.122 251.316C158.678 251.317 158.251 251.494 157.937 251.808C157.623 252.122 157.446 252.548 157.446 252.993V364.171C157.446 364.616 157.623 365.042 157.937 365.356C158.251 365.671 158.678 365.847 159.122 365.848H486.532C486.977 365.847 487.403 365.671 487.717 365.356C488.031 365.042 488.208 364.616 488.209 364.171V252.993C488.208 252.548 488.031 252.122 487.717 251.808C487.403 251.493 486.977 251.317 486.532 251.316H159.122Z" fill="white"/>
<path d="M218.788 94.3845C217.706 94.4012 216.675 94.8464 215.921 95.6223C215.167 96.3982 214.751 97.4415 214.765 98.5236V192.342C214.751 193.424 215.167 194.467 215.921 195.243C216.675 196.019 217.706 196.464 218.788 196.481H427.339C428.421 196.464 429.453 196.019 430.207 195.243C430.961 194.467 431.377 193.424 431.363 192.342V98.5236C431.377 97.4415 430.961 96.3982 430.207 95.6223C429.453 94.8464 428.421 94.4012 427.339 94.3845H218.788Z" fill="#CECED6"/>
<path d="M218.788 1.02323e-05C216.569 1.02323e-05 214.765 2.03687 214.765 4.54082V69.8939C214.765 72.3979 216.569 74.4347 218.788 74.4347H427.339C429.558 74.4347 431.363 72.3979 431.363 69.8939V4.5408C431.363 2.03684 429.558 0 427.339 0L218.788 1.02323e-05Z" fill="#CECED6"/>
<path d="M405.546 16.9322H240.582V26.3203H405.546V16.9322Z" fill="white"/>
<path d="M405.881 36.7144H240.917V41.0732H405.881V36.7144Z" fill="white"/>
<path d="M405.881 52.1378H240.917V56.4966H405.881V52.1378Z" fill="white"/>
<path d="M338.596 196.648H414.514C414.997 196.648 415.469 196.505 415.871 196.237C416.273 195.968 416.586 195.586 416.771 195.14C416.956 194.693 417.005 194.202 416.91 193.728C416.816 193.254 416.584 192.818 416.242 192.477L367.654 143.889C367.195 143.431 366.574 143.174 365.926 143.174C365.278 143.174 364.656 143.431 364.198 143.889L352.115 155.971C351.639 156.447 351.074 156.825 350.452 157.082C349.83 157.34 349.164 157.473 348.491 157.473C347.817 157.473 347.151 157.34 346.529 157.082C345.907 156.825 345.342 156.447 344.866 155.971L307.022 118.127C306.563 117.669 305.941 117.412 305.294 117.412C304.646 117.412 304.024 117.669 303.565 118.127L229.551 192.141C229.209 192.483 228.976 192.919 228.882 193.393C228.788 193.867 228.836 194.358 229.021 194.805C229.206 195.251 229.519 195.633 229.921 195.901C230.323 196.17 230.796 196.313 231.279 196.313H338.694L338.596 196.648Z" fill="white"/>
<path d="M248.294 125.902C253.479 125.902 257.682 121.699 257.682 116.514C257.682 111.329 253.479 107.126 248.294 107.126C243.109 107.126 238.906 111.329 238.906 116.514C238.906 121.699 243.109 125.902 248.294 125.902Z" fill="white"/>
<path d="M210.644 316.145C210.377 316.146 210.121 316.252 209.933 316.44C209.744 316.629 209.638 316.885 209.638 317.151V323.857C209.638 324.124 209.744 324.38 209.933 324.568C210.121 324.757 210.377 324.863 210.644 324.863H439.983C440.25 324.863 440.505 324.757 440.694 324.568C440.882 324.38 440.988 324.124 440.989 323.857V317.151C440.988 316.885 440.882 316.629 440.694 316.44C440.505 316.252 440.25 316.146 439.983 316.145H210.644Z" fill="#CECED6"/>
<path d="M218.788 218.442C217.706 218.459 216.675 218.904 215.921 219.68C215.167 220.456 214.751 221.499 214.765 222.581V316.4C214.751 317.482 215.167 318.525 215.921 319.301C216.675 320.077 217.706 320.522 218.788 320.539H427.339C428.421 320.522 429.453 320.077 430.207 319.301C430.961 318.525 431.377 317.482 431.363 316.4V222.581C431.377 221.499 430.961 220.456 430.207 219.68C429.453 218.904 428.421 218.459 427.339 218.442H218.788Z" fill="#152438"/>
<path d="M338.596 320.706H414.514C414.997 320.706 415.469 320.563 415.871 320.294C416.273 320.026 416.586 319.644 416.771 319.197C416.956 318.751 417.005 318.26 416.91 317.785C416.816 317.311 416.583 316.876 416.242 316.534L367.654 267.946C367.195 267.489 366.573 267.232 365.926 267.232C365.278 267.232 364.656 267.489 364.198 267.946L352.115 280.029C351.639 280.505 351.074 280.883 350.452 281.14C349.83 281.398 349.164 281.531 348.49 281.531C347.817 281.531 347.15 281.398 346.528 281.14C345.907 280.883 345.342 280.505 344.866 280.029L307.022 242.185C306.563 241.727 305.941 241.47 305.293 241.47C304.646 241.47 304.024 241.727 303.565 242.185L229.551 316.199C229.209 316.541 228.976 316.976 228.882 317.45C228.788 317.924 228.836 318.416 229.021 318.862C229.206 319.309 229.519 319.69 229.921 319.959C230.323 320.227 230.795 320.371 231.279 320.371H338.694L338.596 320.706Z" fill="#00AFEC"/>
<path d="M248.294 249.96C253.479 249.96 257.682 245.756 257.682 240.572C257.682 235.387 253.479 231.183 248.294 231.183C243.109 231.183 238.906 235.387 238.906 240.572C238.906 245.756 243.109 249.96 248.294 249.96Z" fill="#00AFEC"/>
</g>
<defs>
<clipPath id="clip0">
<rect width="500" height="453.95" fill="white"/>
</clipPath>
</defs>
</svg>
