<svg width="500" height="435" viewBox="0 0 500 435" fill="none" xmlns="http://www.w3.org/2000/svg">
<path d="M476.257 386.144L478.431 377.638C482.286 376.017 486.231 374.613 490.246 373.433L490.52 377.387L491.634 373.031C496.613 371.621 500 371 500 371C500 371 495.425 388.257 485.828 401.45L474.646 403.398L483.333 404.641C482.125 406.082 480.827 407.446 479.447 408.725C465.487 421.578 449.938 427.475 444.717 421.896C439.496 416.318 446.581 401.376 460.542 388.524C464.87 384.539 470.306 381.342 475.748 378.825L476.257 386.144Z" fill="#CECED6"/>
<path d="M455.423 376.438L452.823 367.941C455.306 364.537 457.98 361.274 460.833 358.169L463.154 361.451L461.823 357.101C465.389 353.296 467.994 351 467.994 351C467.994 351 473.127 368.324 471.772 384.733L463.121 392.222L471.294 388.791C471.008 390.666 470.604 392.521 470.083 394.346C464.772 412.723 454.421 425.899 446.963 423.775C439.505 421.651 437.764 405.031 443.075 386.654C444.722 380.957 447.742 375.366 451.127 370.362L455.423 376.438Z" fill="#CECED6"/>
<path d="M499 423H161V425H499V423Z" fill="#3F3D56"/>
<path d="M15.8279 170.773C11.2694 164.001 9.30978 151.973 17.7874 146.046C21.9919 143.106 27.096 143.465 31.5147 144.759C37.6267 146.548 43.062 150.195 47.7635 154.276C53.1864 158.984 57.8293 164.502 62.4073 170.023C66.9267 175.473 71.507 180.86 76.3116 186.055C85.7804 196.289 95.8902 205.909 106.58 214.858C117.056 223.638 128.073 231.751 139.566 239.148C145.272 242.817 151.1 246.3 157.049 249.595C162.574 252.772 168.287 255.607 174.158 258.084C181.967 261.227 195.347 265.618 202.272 256.803C205.944 252.128 206.127 245.785 205.298 240.458C204.295 234.016 201.768 228.005 199.278 222.133C187.694 194.821 175.975 167.574 164.323 140.295C161.604 133.928 158.803 127.586 156.544 121.006C154.429 114.846 152.669 108.35 152.627 101.641C152.59 95.7805 153.863 89.1673 158.317 84.6533C162.011 80.9097 167.187 79.6706 172.061 79.699C184.128 79.7694 195.465 85.9165 204.837 92.3955C216.481 100.445 226.766 110.223 238.364 118.333C247.73 124.882 258.744 130.816 270.696 131.567C275.279 131.855 280.142 131.244 284.317 128.738C288.308 126.231 291.215 122.317 292.463 117.77C294.028 112.499 293.833 106.931 293.002 101.736C291.965 95.652 290.082 89.7433 287.41 84.1812C281.759 72.0964 274.037 61.2667 267.388 49.7968C264.127 44.1718 260.942 38.3747 258.909 32.1008C257.187 26.7855 255.787 20.4943 257.488 14.7314C260.998 2.84102 275.268 7.31522 282.504 10.7475C287.406 13.1578 292.131 15.912 296.645 18.9895C297.617 19.6324 298.562 17.9268 297.595 17.2868C292.856 14.0402 287.873 11.1657 282.691 8.68908C278.28 6.66906 273.424 4.90696 268.364 5.00381C264.115 5.08516 259.831 6.86677 257.337 10.6721C254.385 15.1744 254.589 20.9954 255.383 25.8258C256.434 32.2134 258.941 38.1143 261.833 43.7289C264.878 49.6421 268.353 55.2959 271.848 60.9246C278.833 72.1718 286.485 83.5502 289.969 96.6809C292.406 105.866 293.945 120.213 284.026 126.768C279.623 129.678 274.228 130.099 269.356 129.551C263.468 128.888 257.859 126.93 252.622 124.469C228.198 112.997 211.928 89.1756 185.889 80.3663C177.036 77.371 164.647 75.4586 156.856 83.5582C152.809 87.7658 151.186 93.6073 150.821 99.0965C150.385 105.671 151.756 112.141 153.62 118.229C155.687 124.61 158.092 130.876 160.824 137.001C163.743 143.846 166.666 150.69 169.593 157.531L187.335 199.068L196.15 219.705C198.841 226.004 201.724 232.334 203.127 239.162C204.275 244.753 204.601 252.446 199.68 256.944C195.772 260.516 190.062 260.35 185.488 259.521C179.564 258.447 173.991 256.099 168.688 253.509C162.57 250.522 156.614 247.208 150.768 243.761C138.733 236.655 127.18 228.761 116.186 220.129C105.149 211.477 94.6751 202.128 84.828 192.141C79.8507 187.092 75.0409 181.882 70.3987 176.511C65.6151 170.974 61.1227 165.174 56.168 159.79C51.6865 154.92 46.7803 150.405 41.0766 146.97C36.3141 144.102 30.6841 141.704 24.8267 141.893C22.7606 141.951 20.7298 142.443 18.8663 143.338C17.0028 144.233 15.3484 145.51 14.0106 147.087C11.3892 150.349 9.97274 154.416 10.0004 158.602C10.0306 163.326 11.4872 167.931 14.1792 171.812C14.8304 172.78 16.482 171.745 15.8279 170.773V170.773Z" fill="#CECED6"/>
<path d="M91 13H12V83H91V13Z" fill="#CECED6"/>
<path d="M91 138H12V208H91V138Z" fill="#00AFEC"/>
<path d="M342 13H264V83H342V13Z" fill="#00AFEC"/>
<path d="M342 138H264V208H342V138Z" fill="#CECED6"/>
<path d="M217 13H139V83H217V13Z" fill="#00AFEC"/>
<path d="M217 138H139V208H217V138Z" fill="#00AFEC"/>
<path d="M139 26C146.18 26 152 20.1797 152 13C152 5.8203 146.18 0 139 0C131.82 0 126 5.8203 126 13C126 20.1797 131.82 26 139 26Z" fill="#152438"/>
<path d="M265 26C272.18 26 278 20.1797 278 13C278 5.8203 272.18 0 265 0C257.82 0 252 5.8203 252 13C252 20.1797 257.82 26 265 26Z" fill="#152438"/>
<path d="M13 152C20.1797 152 26 146.18 26 139C26 131.82 20.1797 126 13 126C5.8203 126 0 131.82 0 139C0 146.18 5.8203 152 13 152Z" fill="#152438"/>
<path d="M139 152C146.18 152 152 146.18 152 139C152 131.82 146.18 126 139 126C131.82 126 126 131.82 126 139C126 146.18 131.82 152 139 152Z" fill="#152438"/>
<path d="M363.709 417C363.709 417 345.242 418.381 347.136 424.825C349.03 431.269 363.709 430.348 363.709 430.348C363.709 430.348 375.072 429.427 381.228 431.269C387.383 433.11 394.486 431.269 394.959 428.047C395.433 424.825 391.645 422.523 391.645 422.523L389.277 417.921L363.709 417Z" fill="#2F2E41"/>
<path d="M315.278 270L313.347 277.547C313.347 277.547 304.659 295 315.278 295C325.896 295 322.035 278.962 322.035 278.962L323 271.415L315.278 270Z" fill="#FBBEBE"/>
<path d="M405.722 264L407.653 271.547C407.653 271.547 416.341 289 405.722 289C395.104 289 398.965 272.962 398.965 272.962L398 265.415L405.722 264Z" fill="#FBBEBE"/>
<path d="M357 137C368.046 137 377 127.822 377 116.5C377 105.178 368.046 96 357 96C345.954 96 337 105.178 337 116.5C337 127.822 345.954 137 357 137Z" fill="#FBBEBE"/>
<path d="M351 132.237C351 132.237 353.344 142.871 351.938 147.957C350.531 153.043 381 147.032 381 147.032C381 147.032 370.219 129.462 370.687 129L351 132.237Z" fill="#9F616A"/>
<path d="M355.719 144.217C355.719 144.217 347.212 141.884 344.377 144.683C341.541 147.483 325 155.414 325 155.414L336.342 224L385.493 213.269L394 148.416C394 148.416 380.598 140.657 378.32 142.204C376.041 143.75 355.719 144.217 355.719 144.217Z" fill="#D0CDE1"/>
<path d="M329.362 156.199L327.128 155C327.128 155 318.655 156.664 319.121 163.183C319.586 169.701 321.448 206.02 321.448 206.02L314 271.672L327.5 274L341 219.057L329.362 156.199Z" fill="#D0CDE1"/>
<path d="M392.638 149.209L394.872 148C394.872 148 403.345 149.678 402.879 156.252C402.414 162.825 400.552 199.448 400.552 199.448L408 265.652L394.5 268L381 212.595L392.638 149.209Z" fill="#D0CDE1"/>
<path d="M337.017 217.535L335.13 246.011L329 302.962L337.96 421.066L369.084 422L359.652 309.498L369.084 270.752L399.913 269.622C399.913 269.622 402.094 225.004 384.646 211L337.017 217.535Z" fill="#2F2E41"/>
<path d="M370.632 264.074L365.658 367.1L364 419.197L391.949 422L399 268.789L388.159 258L370.632 264.074Z" fill="#2F2E41"/>
<path d="M366.409 89.2797C366.409 89.2797 348.101 86.9277 342.937 95.8652C342.937 95.8652 341.528 102.451 336.834 104.803C332.14 107.155 337.773 115.152 339.181 117.503C340.589 119.855 344.345 133.497 340.12 136.79C335.895 140.083 347.631 149.491 347.631 149.491C347.631 149.491 353.264 157.017 348.57 162.662C343.876 168.306 354.673 170.188 354.673 170.188C354.673 170.188 352.325 186.182 356.55 181.948C356.55 181.948 358.428 218.169 376.267 195.589C394.105 173.01 401.616 162.191 394.105 153.254C386.594 144.316 392.228 136.319 392.228 136.319C392.228 136.319 394.575 131.615 389.411 124.559C384.247 117.503 384.247 89.2797 366.409 89.2797Z" fill="#2F2E41"/>
<path d="M339.709 419C339.709 419 321.242 420.473 323.136 427.346C325.03 434.22 339.709 433.238 339.709 433.238C339.709 433.238 351.072 432.256 357.228 434.22C363.383 436.184 370.486 434.22 370.959 430.783C371.433 427.346 367.645 424.892 367.645 424.892L365.277 419.982L339.709 419Z" fill="#2F2E41"/>
</svg>
