<svg width="534" height="392" viewBox="0 0 534 392" fill="none" xmlns="http://www.w3.org/2000/svg">
<path d="M534 380.817C532.288 396.374 442.446 395.068 442.582 380.816C444.293 365.26 534.136 366.566 534 380.817Z" fill="#ECECEC"/>
<path d="M472.282 340.895L468.641 348.783L461.964 348.176L457.715 334.221L464.392 330.58L472.282 340.895Z" fill="#FFB8B8"/>
<path d="M495.205 359.062L495.349 364.559L485.03 365.166V358.491L495.205 359.062Z" fill="#FFB8B8"/>
<path d="M491.706 258.982L489.278 307.523L495.349 360.312L477.138 362.739L465.606 295.995L461.964 250.487L491.706 258.982Z" fill="#454545"/>
<path d="M520.235 241.386C520.235 241.386 527.519 289.32 512.344 305.096C497.17 320.872 476.532 348.783 476.532 348.783L461.964 330.58L498.991 291.14L491.707 264.443L461.964 250.487L466.82 217.115L510.523 216.509L520.235 241.386Z" fill="#454545"/>
<path d="M484.423 130.348C491.798 130.348 497.777 124.372 497.777 117C497.777 109.627 491.798 103.651 484.423 103.651C477.048 103.651 471.069 109.627 471.069 117C471.069 124.372 477.048 130.348 484.423 130.348Z" fill="#FFB8B8"/>
<path d="M495.956 120.033C495.956 120.033 496.563 138.843 499.598 141.27C502.633 143.697 488.672 154.012 488.672 154.012L479.567 139.45V126.101L495.956 120.033Z" fill="#FFB8B8"/>
<path d="M489.886 145.517L497.255 134.394L501.418 140.057L507.489 157.046L502.633 223.183L474.104 223.79L470.462 147.944L479.566 137.023L489.886 145.517Z" fill="#F9F9F9"/>
<path d="M458.929 149.765L454.073 149.158C454.073 149.158 452.859 149.765 452.252 154.012C451.645 158.259 444.361 195.879 444.361 195.879L454.073 241.993L464.999 227.43L458.322 201.946L464.999 176.462L458.929 149.765Z" fill="#454545"/>
<path d="M520.842 149.158H524.484L533.589 198.306L525.092 236.532L516.593 222.576L519.021 207.407L517.807 194.059L513.558 186.17L520.842 149.158Z" fill="#454545"/>
<path d="M466.82 346.356C466.82 346.356 470.462 345.142 470.462 347.569C470.462 349.997 468.034 357.278 468.034 357.278C468.034 357.278 471.676 379.728 466.213 378.514C460.75 377.301 456.501 366.986 455.894 363.952C455.287 360.918 452.252 345.142 452.252 345.142C452.252 345.142 447.396 333.614 450.431 333.007C453.466 332.4 461.964 329.973 461.964 329.973C461.964 329.973 457.108 345.142 466.82 346.356Z" fill="#2E2E2E"/>
<path d="M484.423 365.166C484.423 365.166 494.135 359.098 495.956 363.952C497.163 367.493 497.978 371.155 498.384 374.874C498.384 374.874 500.812 382.762 491.1 381.548C481.388 380.335 482.602 380.335 481.995 376.694C481.388 373.053 484.423 365.166 484.423 365.166Z" fill="#2E2E2E"/>
<path d="M492.314 117L489.886 116.393C489.886 116.393 488.065 106.078 483.816 107.291C479.567 108.505 468.641 109.719 468.641 104.864C468.641 100.01 478.96 95.763 485.03 96.3697C491.1 96.9765 501.419 98.7968 500.812 107.898C500.205 117 496.288 125.853 496.288 125.853L495.971 120.457L492.314 117Z" fill="#2F2E41"/>
<path d="M479.567 152.799L489.886 145.517L479.567 137.023L475.984 141.32L479.567 152.799Z" fill="#E6E6E6"/>
<path d="M498.99 152.192L489.886 145.517L497.169 134.596L501.418 140.057L498.99 152.192Z" fill="#E6E6E6"/>
<path d="M454.68 149.158L474.104 141.27L478.656 137.933L492.314 198.306L501.419 171.002L498.687 136.113L523.877 149.158L515.379 190.418L514.165 206.194L517.807 218.936C517.807 218.936 530.554 228.037 526.305 237.745C522.056 247.454 517.2 248.06 517.2 248.06C517.2 248.06 496.563 228.644 495.349 223.79C494.135 218.936 492.314 210.441 492.314 210.441C492.314 210.441 481.995 249.274 469.855 248.667C457.715 248.06 457.715 235.318 457.715 235.318L460.75 221.97L465.606 208.014L463.178 184.957L454.68 149.158Z" fill="#454545"/>
<path d="M423.336 0.240479H0.181152V271.144H423.336V0.240479Z" fill="#ECECEC"/>
<path d="M411.236 34.2179H12.2808V137.489H411.236V34.2179Z" fill="white"/>
<path d="M195.887 49.1348H111.517V53.9761H195.887V49.1348Z" fill="#ECECEC"/>
<path d="M241.803 66.7946H111.517V71.6359H241.803V66.7946Z" fill="#454545"/>
<path d="M217.697 83.4325H111.517V88.2738H217.697V83.4325Z" fill="#ECECEC"/>
<path d="M173.503 100.008H111.517V104.849H173.503V100.008Z" fill="#ECECEC"/>
<path d="M205.07 116.583H111.517V121.424H205.07V116.583Z" fill="#ECECEC"/>
<path d="M83.3935 47.4136H73.0625V57.7406H83.3935V47.4136Z" fill="#ECECEC"/>
<path d="M83.3935 64.0516H73.0625V74.3787H83.3935V64.0516Z" fill="#454545"/>
<path d="M83.3935 80.6897H73.0625V91.0168H83.3935V80.6897Z" fill="#ECECEC"/>
<path d="M83.3935 97.3278H73.0625V107.655H83.3935V97.3278Z" fill="#ECECEC"/>
<path d="M83.3935 113.966H73.0625V124.293H83.3935V113.966Z" fill="#ECECEC"/>
<path d="M355.444 70.9363H321.007V105.36H355.444V70.9363Z" fill="#ECECEC"/>
<path d="M411.236 151.832H12.2808V255.103H411.236V151.832Z" fill="white"/>
<path d="M101.186 161.01H90.855V171.337H101.186V161.01Z" fill="#ECECEC"/>
<path d="M83.3935 161.01H73.0625V171.337H83.3935V161.01Z" fill="#454545"/>
<path d="M248.227 183.593C245.078 178.264 240.709 173.759 235.479 170.447C230.249 167.135 224.307 165.111 218.142 164.541C211.977 163.972 205.764 164.874 200.016 167.172C194.267 169.47 189.146 173.099 185.074 177.762L182.557 175.562C186.976 170.501 192.534 166.561 198.774 164.065C205.013 161.57 211.757 160.591 218.449 161.209C225.141 161.827 231.591 164.024 237.268 167.619C242.945 171.215 247.687 176.106 251.104 181.891L248.227 183.593Z" fill="#ECECEC"/>
<path d="M249.802 227.131L247.028 225.267C251.137 219.14 253.43 211.976 253.642 204.603C253.855 197.229 251.977 189.946 248.227 183.593L251.104 181.891C255.176 188.787 257.215 196.694 256.984 204.699C256.754 212.704 254.264 220.48 249.802 227.131V227.131Z" fill="#EC0039"/>
<path d="M182.905 231.788C175.994 224.072 172.144 214.097 172.079 203.741C172.015 193.385 175.742 183.363 182.556 175.562L185.074 177.761C178.796 184.947 175.364 194.18 175.423 203.72C175.482 213.261 179.029 222.45 185.395 229.558L182.905 231.788Z" fill="#3692E4"/>
<path d="M214.54 245.924C208.57 245.92 202.667 244.659 197.217 242.223C191.766 239.787 186.89 236.232 182.905 231.788L185.395 229.558C189.37 233.997 194.308 237.47 199.831 239.711C205.354 241.952 211.316 242.902 217.262 242.488C223.208 242.074 228.981 240.307 234.139 237.322C239.298 234.338 243.706 230.214 247.028 225.266L249.802 227.131C245.92 232.918 240.673 237.659 234.523 240.937C228.373 244.214 221.51 245.927 214.54 245.924Z" fill="#454545"/>
<path d="M355.444 183.387H321.007V217.81H355.444V183.387Z" fill="#ECECEC"/>
<path d="M106.065 205.762H71.6279V240.186H106.065V205.762Z" fill="#ECECEC"/>
<path d="M423.155 0H0V17.9703H423.155V0Z" fill="#454545"/>
<path d="M13.3593 12.518C15.1995 12.518 16.6912 11.0268 16.6912 9.18735C16.6912 7.34788 15.1995 5.85669 13.3593 5.85669C11.5191 5.85669 10.0273 7.34788 10.0273 9.18735C10.0273 11.0268 11.5191 12.518 13.3593 12.518Z" fill="white"/>
<path d="M26.0062 12.518C27.8464 12.518 29.3382 11.0268 29.3382 9.18735C29.3382 7.34788 27.8464 5.85669 26.0062 5.85669C24.1661 5.85669 22.6743 7.34788 22.6743 9.18735C22.6743 11.0268 24.1661 12.518 26.0062 12.518Z" fill="white"/>
<path d="M38.6537 12.518C40.4939 12.518 41.9856 11.0268 41.9856 9.18735C41.9856 7.34788 40.4939 5.85669 38.6537 5.85669C36.8135 5.85669 35.3218 7.34788 35.3218 9.18735C35.3218 11.0268 36.8135 12.518 38.6537 12.518Z" fill="white"/>
</svg>
