<svg width="500" height="458" viewBox="0 0 500 458" fill="none" xmlns="http://www.w3.org/2000/svg">
<path d="M412 418C460.601 418 500 413.971 500 409C500 404.029 460.601 400 412 400C363.399 400 324 404.029 324 409C324 413.971 363.399 418 412 418Z" fill="#CECED6"/>
<path d="M54.5 410C71.897 410 86 407.985 86 405.5C86 403.015 71.897 401 54.5 401C37.103 401 23 403.015 23 405.5C23 407.985 37.103 410 54.5 410Z" fill="#CECED6"/>
<path d="M411 0H0V206H411V0Z" fill="#CECED6"/>
<path d="M393 17H19V190H393V17Z" fill="white"/>
<path d="M18.9895 190L18 189.009L68.1757 138.759L83.9201 154.526L111.559 126.845L145.496 160.833L203.224 103.019L229.463 129.299L286.841 71.8343L319.029 104.07L378.01 45L379 45.991L319.029 106.052L286.841 73.8163L229.463 131.28L203.224 105.001L145.496 162.815L111.559 128.827L83.9201 156.508L68.1757 140.74L18.9895 190Z" fill="#FF1037"/>
<path d="M287.5 83C292.194 83 296 79.1944 296 74.5C296 69.8056 292.194 66 287.5 66C282.806 66 279 69.8056 279 74.5C279 79.1944 282.806 83 287.5 83Z" fill="#FF1037"/>
<path d="M112.5 137C117.194 137 121 133.194 121 128.5C121 123.806 117.194 120 112.5 120C107.806 120 104 123.806 104 128.5C104 133.194 107.806 137 112.5 137Z" fill="#FF1037"/>
<path d="M230.5 138C235.194 138 239 134.194 239 129.5C239 124.806 235.194 121 230.5 121C225.806 121 222 124.806 222 129.5C222 134.194 225.806 138 230.5 138Z" fill="#FF1037"/>
<path d="M148.5 169C153.194 169 157 165.418 157 161C157 156.582 153.194 153 148.5 153C143.806 153 140 156.582 140 161C140 165.418 143.806 169 148.5 169Z" fill="#FF1037"/>
<path d="M202.5 114C207.194 114 211 110.194 211 105.5C211 100.806 207.194 97 202.5 97C197.806 97 194 100.806 194 105.5C194 110.194 197.806 114 202.5 114Z" fill="#FF1037"/>
<path d="M319 114C323.418 114 327 110.194 327 105.5C327 100.806 323.418 97 319 97C314.582 97 311 100.806 311 105.5C311 110.194 314.582 114 319 114Z" fill="#FF1037"/>
<path d="M44.0354 383.878C47.4642 396.304 59.2082 404 59.2082 404C59.2082 404 65.3933 391.549 61.9646 379.122C58.5359 366.696 46.7918 359 46.7918 359C46.7918 359 40.6067 371.451 44.0354 383.878Z" fill="#CECED6"/>
<path d="M49.4644 380.879C58.8532 389.992 60 404 60 404C60 404 45.9245 403.234 36.5356 394.121C27.1468 385.008 26 371 26 371C26 371 40.0755 371.766 49.4644 380.879Z" fill="#00AFEC"/>
<path d="M382.449 97.0312L387.818 150H432L429.876 69.4875C429.876 52.1578 417.869 37 400.5 37C383.131 37 371.831 51.4516 371.831 68.7813L369 150H376.204L382.449 97.0312Z" fill="#2F2E41"/>
<path d="M409.418 375C409.418 375 407.516 386.875 404.346 388.75C401.176 390.625 420.83 395 420.83 395L424 376.25L409.418 375Z" fill="#FBBEBE"/>
<path d="M433.016 237L440 245.248L436.825 273.798L434.286 330.265C434.286 330.265 439.365 379.118 434.286 380.387C429.206 381.656 406.349 381.022 406.984 377.849C407.619 374.677 408.254 372.139 409.524 367.698C410.794 363.257 408.254 347.396 408.254 347.396L411.429 329.631L400 252.861L433.016 237Z" fill="#2F2E41"/>
<path d="M409.868 386.574C409.868 386.574 402.932 385.283 402.302 386.574C401.671 387.865 389.691 401.419 387.8 401.419C385.908 401.419 372.037 414.329 386.539 414.974C401.041 415.62 425 404.001 425 404.001C425 404.001 421.474 387.576 421.661 388.366C421.847 389.156 409.868 389.801 409.868 386.574Z" fill="#2F2E41"/>
<path d="M402 357.974C402 357.974 419.569 377.299 420.196 379.169C420.823 381.039 430.235 379.169 430.235 379.169L434 366.701L430.863 362.338L413.294 348L402 357.974Z" fill="#FBBEBE"/>
<path d="M427.309 372.33L418 380.914C418 380.914 429.877 398.746 429.877 400.633C429.877 402.52 430.518 418.244 436.938 415.728C443.358 413.212 444 388.054 444 388.054C444 388.054 443.358 362.267 439.506 360.38C435.654 358.493 427.212 359.089 427.212 359.089C427.212 359.089 432.444 371.701 427.309 372.33Z" fill="#2F2E41"/>
<path d="M375.206 180.623C375.206 180.623 372.03 190.768 371.395 193.304C370.76 195.84 366.948 202.815 366.948 213.593C366.948 224.372 368.219 237.052 366.948 238.32C365.678 239.588 345.351 310.6 354.244 318.208C363.137 325.817 392.358 351.178 394.263 354.348C396.169 357.519 396.804 365.127 400.616 363.859C404.427 362.591 419.037 349.91 419.673 347.374C420.308 344.838 411.415 340.4 411.415 340.4C411.415 340.4 393.628 314.404 389.181 315.038C384.735 315.672 385.37 311.868 386.005 309.966C386.641 308.064 387.911 306.796 386.005 306.796C384.1 306.796 385.37 301.724 386.005 299.188C386.641 296.651 401.251 262.414 401.251 262.414L440 245.295C440 245.295 438.094 199.01 424.119 186.33L420.943 178.721C420.943 178.721 385.37 176.185 375.206 180.623Z" fill="#2F2E41"/>
<path d="M390.518 81C390.518 81 393.711 103.183 386.048 104.451C378.386 105.718 372 105.085 372 105.718C372 106.352 391.157 126 391.157 126L409.036 124.732L425 107.62C425 107.62 410.313 105.085 410.313 96.2113C410.313 87.338 409.675 81 409.675 81L390.518 81Z" fill="#FFB8B8"/>
<path d="M400.5 90C411.27 90 420 81.2696 420 70.5C420 59.7304 411.27 51 400.5 51C389.73 51 381 59.7304 381 70.5C381 81.2696 389.73 90 400.5 90Z" fill="#FFB8B8"/>
<path d="M388.993 103C388.993 103 358.087 105.855 356.172 114.021C354.257 122.187 368.941 173.065 370.856 177.462C372.771 181.859 372.133 185 372.133 185C375.022 182.874 378.34 181.382 381.864 180.624C385.388 179.865 389.036 179.858 392.563 180.603C404.693 183.116 421.931 181.859 421.931 181.859C421.931 181.859 427.677 158.618 428.954 156.106C430.231 153.593 435.339 139.775 435.339 136.006C435.339 132.237 443 116.534 443 116.534C443 116.534 439.169 105.227 425.124 105.855C425.124 105.855 418.997 103.158 417.272 105.135C415.547 107.112 405.97 115.906 393.84 112.137C381.71 108.368 388.993 103 388.993 103Z" fill="#E6E6E6"/>
<path d="M431 113L442.858 116.191C442.858 116.191 451.595 148.745 452.22 149.383C452.844 150.021 453.468 153.851 453.468 153.851C453.468 153.851 453.468 154.489 454.716 156.404C455.964 158.319 457.837 157.043 456.588 159.596C455.34 162.149 453.468 160.872 454.716 163.426C455.964 165.979 455.34 173 455.34 173C455.34 173 452.22 160.872 440.986 164.064L433.496 129.596L431 113Z" fill="#E6E6E6"/>
<path d="M435 119.222L434.956 119.367L413.844 185L399.986 181.963L385 178.68L406.156 111L435 119.222Z" fill="#00AFEC"/>
<path d="M369 113L356.686 116.191C356.686 116.191 347.612 148.745 346.964 149.383C346.316 150.021 345.668 153.851 345.668 153.851C345.668 153.851 345.668 154.489 344.372 156.404C343.076 158.319 341.131 157.043 342.427 159.596C343.724 162.149 345.668 160.872 344.372 163.426C343.076 165.979 343.724 173 343.724 173C343.724 173 346.964 160.872 358.63 164.064L366.408 129.596L369 113Z" fill="#E6E6E6"/>
<path d="M348.1 161.668L344.139 168.396C344.139 168.396 342.394 181 351.271 181C360.148 181 372.829 168.757 372.829 168.757C372.829 168.757 379.17 166.179 382.974 166.823C386.778 167.468 407.703 166.823 398.826 155.869C389.949 144.914 374.731 155.869 374.731 155.869L358.879 163.601L350.636 159.091L348.1 161.668Z" fill="#FFB8B8"/>
<path d="M353.662 153.281L360 163.527C360 163.527 345.422 165.448 344.154 168.65C342.886 171.852 349.859 152 349.859 152L353.662 153.281Z" fill="#E6E6E6"/>
<path d="M383.934 63C396.682 56.3702 401.919 56.6509 417.771 63L422 53.0596C421.998 51.188 421.226 49.3935 419.854 48.0701C418.482 46.7466 416.622 46.0021 414.682 46H386.318C384.378 46.0021 382.518 46.7466 381.146 48.0701C379.774 49.3935 379.002 51.188 379 53.0596L383.934 63Z" fill="#2F2E41"/>
<path opacity="0.2" d="M435 119.048L413.869 185L400 181.948L420.845 115L435 119.048Z" fill="black"/>
<path d="M424.731 115L404 182.676L432.269 189L453 123.222L424.731 115Z" fill="#00AFEC"/>
<path d="M451.9 161.668L455.861 168.396C455.861 168.396 457.606 181 448.729 181C439.852 181 427.171 168.757 427.171 168.757C427.171 168.757 420.83 166.179 417.026 166.823C413.222 167.468 392.297 166.823 401.174 155.869C410.051 144.914 425.269 155.869 425.269 155.869L441.121 163.601L449.364 159.091L451.9 161.668Z" fill="#FFB8B8"/>
<path d="M446.338 153.281L440 163.527C440 163.527 454.578 165.448 455.846 168.65C457.114 171.852 450.141 152 450.141 152L446.338 153.281Z" fill="#E6E6E6"/>
</svg>
