<svg width="400" height="243" viewBox="0 0 400 243" fill="none" xmlns="http://www.w3.org/2000/svg">
<g clip-path="url(#clip0)">
<path d="M254.387 242.675C334.807 242.675 400 236.809 400 229.573C400 222.338 334.807 216.472 254.387 216.472C173.967 216.472 108.773 222.338 108.773 229.573C108.773 236.809 173.967 242.675 254.387 242.675Z" fill="#454545"/>
<path opacity="0.3" d="M183.213 107.05L341.265 107.05V0.000106812L183.213 0.000106812V107.05Z" fill="#454545"/>
<path d="M331.177 9.80835H284.378V60.8111H331.177V9.80835Z" fill="#F2F2F2"/>
<path d="M297.703 38.6743L300.866 37.8968L301.225 39.3587L296.246 40.5827L294.308 32.6996L296.125 32.253L297.703 38.6743Z" fill="#DFDDE7"/>
<path d="M307.113 33.9039C307.302 34.6727 307.333 35.3866 307.206 36.0455C307.079 36.7045 306.803 37.2565 306.378 37.7016C305.956 38.1422 305.424 38.4414 304.782 38.5992C304.14 38.757 303.533 38.7435 302.961 38.5589C302.387 38.3706 301.891 38.0239 301.47 37.5187C301.053 37.0126 300.746 36.3895 300.549 35.6494L300.44 35.2054C300.25 34.433 300.218 33.7195 300.342 33.065C300.469 32.4061 300.745 31.8541 301.17 31.409C301.598 30.963 302.135 30.6608 302.781 30.5021C303.419 30.3452 304.027 30.3641 304.606 30.5587C305.184 30.7533 305.684 31.1109 306.104 31.6314C306.528 32.1474 306.834 32.784 307.024 33.5411L307.113 33.9039ZM305.184 34.0278C304.992 33.2446 304.72 32.6818 304.368 32.3395C304.02 31.9927 303.612 31.8765 303.147 31.991C302.236 32.215 301.93 33.048 302.229 34.49L302.367 35.0706C302.557 35.8431 302.825 36.4067 303.172 36.7616C303.519 37.1164 303.934 37.2345 304.417 37.1157C304.876 37.0029 305.18 36.712 305.328 36.2431C305.476 35.7741 305.458 35.1566 305.273 34.3906L305.184 34.0278Z" fill="#DFDDE7"/>
<path d="M314.909 34.9615C314.71 35.355 314.365 35.7172 313.876 36.0481C313.386 36.3789 312.82 36.6232 312.179 36.781C311.192 37.0236 310.326 36.9016 309.58 36.415C308.835 35.9284 308.303 35.1271 307.985 34.0111L307.812 33.3302C307.621 32.5542 307.586 31.8452 307.706 31.2032C307.826 30.5576 308.091 30.0198 308.501 29.5898C308.914 29.1553 309.441 28.8592 310.083 28.7014C311.021 28.4707 311.805 28.5173 312.433 28.8413C313.065 29.1607 313.533 29.7557 313.838 30.626L312.089 31.056C311.918 30.631 311.707 30.35 311.453 30.2132C311.2 30.0764 310.884 30.0547 310.504 30.148C310.049 30.2599 309.746 30.5486 309.597 31.0139C309.448 31.4793 309.464 32.0877 309.645 32.8394L309.762 33.3158C309.956 34.1027 310.229 34.6632 310.582 34.9975C310.938 35.3273 311.391 35.4244 311.944 35.2886C312.416 35.1724 312.741 34.9758 312.918 34.6988L312.617 33.4752L311.354 33.7857L311.034 32.4808L314.114 31.7238L314.909 34.9615Z" fill="#DFDDE7"/>
<path d="M321.658 30.3285C321.847 31.0974 321.878 31.8112 321.751 32.4702C321.624 33.1292 321.348 33.6812 320.923 34.1263C320.501 34.5669 319.969 34.8661 319.327 35.0239C318.685 35.1816 318.078 35.1682 317.506 34.9835C316.932 34.7953 316.435 34.4486 316.015 33.9434C315.598 33.4373 315.291 32.8142 315.094 32.0741L314.985 31.6301C314.795 30.8577 314.763 30.1442 314.887 29.4897C315.014 28.8307 315.29 28.2787 315.715 27.8336C316.143 27.3877 316.68 27.0854 317.326 26.9268C317.964 26.7699 318.572 26.7887 319.151 26.9834C319.729 27.178 320.229 27.5356 320.649 28.0561C321.073 28.5721 321.379 29.2087 321.569 29.9658L321.658 30.3285ZM319.729 30.4525C319.537 29.6693 319.265 29.1065 318.913 28.7641C318.565 28.4173 318.157 28.3012 317.692 28.4157C316.781 28.6396 316.475 29.4726 316.774 30.9147L316.912 31.4953C317.101 32.2677 317.37 32.8314 317.717 33.1862C318.064 33.5411 318.479 33.6591 318.962 33.5404C319.421 33.4276 319.725 33.1367 319.873 32.6678C320.021 32.1988 320.003 31.5813 319.818 30.8153L319.729 30.4525Z" fill="#DFDDE7"/>
<rect x="289.605" y="30.7817" width="34.2544" height="13.6339" rx="4.5" transform="rotate(-13.8102 289.605 30.7817)" stroke="#DFDDE7"/>
<path d="M210.396 12.8909L255.513 12.8909V9.80828L210.396 9.80828V12.8909Z" fill="#F2F2F2"/>
<path d="M284.377 71.7402H300.351V68.6577H284.377V71.7402Z" fill="#F2F2F2"/>
<path d="M284.938 77.345H330.616V74.2624H284.938V77.345Z" fill="#F2F2F2"/>
<path d="M201.148 24.1001L266.162 24.1001V21.0175L201.148 21.0175V24.1001Z" fill="#F2F2F2"/>
<path d="M201.148 32.7876L266.162 32.7876V29.705L201.148 29.705V32.7876Z" fill="#F2F2F2"/>
<path d="M201.148 41.4749L266.162 41.4749V38.3923L201.148 38.3923V41.4749Z" fill="#F2F2F2"/>
<path d="M201.148 50.1621L266.162 50.1621V47.0795L201.148 47.0795V50.1621Z" fill="#F2F2F2"/>
<path d="M201.148 58.8494L266.162 58.8494V55.7668L201.148 55.7668V58.8494Z" fill="#F2F2F2"/>
<path d="M201.148 67.5366L266.162 67.5366V64.454L201.148 64.454V67.5366Z" fill="#F2F2F2"/>
<path d="M201.148 76.2239L266.162 76.2239V73.1413L201.148 73.1413V76.2239Z" fill="#F2F2F2"/>
<path opacity="0.3" d="M158.053 1.10181H0V108.152H158.053V1.10181Z" fill="#454545"/>
<path d="M56.8876 10.91H10.0884V61.9128H56.8876V10.91Z" fill="#F2F2F2"/>
<path d="M22.0681 36.9285L25.2906 37.3995L25.0729 38.889L19.9992 38.1475L21.173 30.1151L23.0243 30.3857L22.0681 36.9285Z" fill="#DFDDE7"/>
<path d="M32.5818 36.0534C32.4673 36.8368 32.2271 37.5098 31.8612 38.0723C31.4953 38.6349 31.0317 39.0423 30.4705 39.2946C29.9134 39.5438 29.3078 39.6206 28.6538 39.525C27.9998 39.4294 27.4425 39.1883 26.9819 38.8017C26.5218 38.4114 26.192 37.9031 25.9927 37.2767C25.7969 36.6508 25.7473 35.958 25.8439 35.1983L25.91 34.746C26.0251 33.9589 26.2635 33.2857 26.6254 32.7263C26.9913 32.1637 27.4548 31.7562 28.016 31.5039C28.5807 31.2521 29.1919 31.1743 29.8494 31.2704C30.4999 31.3654 31.0564 31.6121 31.5189 32.0102C31.9815 32.4084 32.3096 32.9277 32.5032 33.5683C32.701 34.2058 32.7452 34.9109 32.6358 35.6838L32.5818 36.0534ZM30.7481 35.4417C30.8647 34.6436 30.8248 34.0199 30.6283 33.5704C30.4359 33.1178 30.1023 32.8569 29.6277 32.7875C28.6994 32.6518 28.1025 33.3084 27.8369 34.7571L27.7454 35.3466C27.6303 36.1337 27.6667 36.7569 27.8546 37.2163C28.0424 37.6758 28.3825 37.9415 28.8747 38.0134C29.3424 38.0817 29.7331 37.9266 30.047 37.548C30.3609 37.1694 30.5766 36.5905 30.6941 35.8113L30.7481 35.4417Z" fill="#DFDDE7"/>
<path d="M39.4057 39.9693C39.0725 40.2587 38.6169 40.4645 38.0388 40.5866C37.4607 40.7087 36.8447 40.722 36.1907 40.6264C35.185 40.4795 34.4286 40.0402 33.9214 39.3088C33.4142 38.5773 33.2234 37.6347 33.3489 36.481L33.4452 35.7852C33.5607 34.9944 33.7951 34.3244 34.1484 33.775C34.5021 33.2219 34.95 32.8234 35.492 32.5796C36.038 32.3326 36.6381 32.2568 37.2921 32.3524C38.2485 32.4922 38.9568 32.8305 39.417 33.3673C39.8813 33.9009 40.091 34.6284 40.0462 35.5497L38.2635 35.2891C38.2658 34.8312 38.1754 34.4912 37.9924 34.2691C37.8094 34.047 37.5245 33.9077 37.1377 33.8512C36.6736 33.7834 36.2848 33.9369 35.9715 34.3118C35.6581 34.6868 35.4438 35.2565 35.3285 36.0209L35.2575 36.5064C35.1403 37.3082 35.1823 37.9304 35.3834 38.3729C35.5885 38.8124 35.9723 39.0732 36.5349 39.1554C37.0166 39.2258 37.3917 39.166 37.66 38.9761L37.8422 37.7293L36.5553 37.5413L36.7496 36.2117L39.8878 36.6703L39.4057 39.9693Z" fill="#DFDDE7"/>
<path d="M47.4023 38.2193C47.2878 39.0026 47.0476 39.6756 46.6817 40.2382C46.3158 40.8008 45.8522 41.2082 45.291 41.4605C44.7339 41.7096 44.1283 41.7864 43.4743 41.6909C42.8203 41.5953 42.263 41.3542 41.8024 40.9676C41.3423 40.5773 41.0125 40.0689 40.8132 39.4426C40.6174 38.8167 40.5678 38.1239 40.6644 37.3642L40.7305 36.9118C40.8456 36.1248 41.084 35.4515 41.4459 34.8921C41.8118 34.3295 42.2754 33.9221 42.8365 33.6698C43.4012 33.418 44.0124 33.3402 44.6699 33.4362C45.3204 33.5313 45.8769 33.7779 46.3394 34.1761C46.802 34.5742 47.1301 35.0936 47.3238 35.7342C47.5215 36.3716 47.5657 37.0768 47.4563 37.8496L47.4023 38.2193ZM45.5686 37.6076C45.6852 36.8095 45.6453 36.1857 45.4488 35.7363C45.2564 35.2837 44.9228 35.0227 44.4482 34.9534C43.5199 34.8177 42.923 35.4742 42.6574 36.9229L42.5659 37.5125C42.4508 38.2995 42.4873 38.9228 42.6751 39.3822C42.8629 39.8416 43.203 40.1073 43.6952 40.1793C44.1629 40.2476 44.5536 40.0925 44.8675 39.7139C45.1814 39.3353 45.3971 38.7564 45.5146 37.9772L45.5686 37.6076Z" fill="#DFDDE7"/>
<rect x="17.5387" y="26.567" width="34.2544" height="13.6339" rx="4.5" transform="rotate(8.31431 17.5387 26.567)" stroke="#DFDDE7"/>
<path d="M130.87 10.91H85.752V13.9926H130.87V10.91Z" fill="#F2F2F2"/>
<path d="M26.6223 69.7594H10.6489V72.842H26.6223V69.7594Z" fill="#F2F2F2"/>
<path d="M56.3272 75.3643H10.6489V78.4468H56.3272V75.3643Z" fill="#F2F2F2"/>
<path d="M140.118 22.1194H75.103V25.202H140.118V22.1194Z" fill="#F2F2F2"/>
<path d="M140.118 30.8069H75.103V33.8895H140.118V30.8069Z" fill="#F2F2F2"/>
<path d="M140.118 39.4941H75.103V42.5767H140.118V39.4941Z" fill="#F2F2F2"/>
<path d="M140.118 48.1814H75.103V51.264H140.118V48.1814Z" fill="#F2F2F2"/>
<path d="M140.118 56.8687H75.103V59.9512H140.118V56.8687Z" fill="#F2F2F2"/>
<path d="M140.118 65.5559H75.103V68.6385H140.118V65.5559Z" fill="#F2F2F2"/>
<path d="M140.118 74.2432H75.103V77.3258H140.118V74.2432Z" fill="#F2F2F2"/>
<path d="M259.304 40.5105H101.251V147.56H259.304V40.5105Z" fill="#454545"/>
<path opacity="0.1" d="M236.325 140.274C246.54 140.274 254.82 139.396 254.82 138.313C254.82 137.229 246.54 136.351 236.325 136.351C226.11 136.351 217.829 137.229 217.829 138.313C217.829 139.396 226.11 140.274 236.325 140.274Z" fill="black"/>
<path d="M158.139 50.3187H111.34V101.322H158.139V50.3187Z" fill="#F2F2F2"/>
<path d="M118.621 88.8691H123.183V90.853H116V80.1543H118.621V88.8691Z" fill="#454545"/>
<path d="M133.017 85.7241C133.017 86.7675 132.821 87.6909 132.428 88.4943C132.034 89.2977 131.474 89.9174 130.747 90.3534C130.026 90.7845 129.202 91 128.276 91C127.35 91 126.529 90.7918 125.812 90.3754C125.095 89.9541 124.535 89.354 124.132 88.5752C123.733 87.7963 123.524 86.9022 123.504 85.8931V85.2906C123.504 84.2423 123.699 83.3189 124.087 82.5204C124.48 81.717 125.04 81.0973 125.767 80.6613C126.499 80.2253 127.33 80.0073 128.261 80.0073C129.182 80.0073 130.003 80.2229 130.725 80.654C131.447 81.0851 132.007 81.6998 132.405 82.4983C132.808 83.2919 133.013 84.2031 133.017 85.2318V85.7241ZM130.352 85.2759C130.352 84.2129 130.17 83.407 129.807 82.8584C129.448 82.3048 128.933 82.0281 128.261 82.0281C126.947 82.0281 126.252 82.998 126.178 84.9379L126.17 85.7241C126.17 86.7724 126.347 87.5783 126.7 88.1416C127.054 88.705 127.579 88.9866 128.276 88.9866C128.938 88.9866 129.448 88.7099 129.807 88.1563C130.165 87.6028 130.347 86.8067 130.352 85.7682V85.2759Z" fill="#454545"/>
<path d="M143.27 89.5304C142.867 89.9713 142.277 90.3264 141.5 90.5959C140.724 90.8653 139.872 91 138.946 91C137.523 91 136.385 90.5714 135.534 89.7141C134.683 88.8568 134.227 87.664 134.167 86.1356L134.16 85.2098C134.16 84.1565 134.349 83.238 134.727 82.4542C135.106 81.6656 135.646 81.0606 136.348 80.6393C137.055 80.2131 137.871 80 138.797 80C140.151 80 141.201 80.3062 141.948 80.9185C142.7 81.5259 143.138 82.4346 143.262 83.6446H140.738C140.649 83.047 140.455 82.6208 140.156 82.3661C139.857 82.1113 139.434 81.984 138.887 81.984C138.23 81.984 137.722 82.2583 137.363 82.8069C137.005 83.3556 136.823 84.1394 136.818 85.1583V85.8049C136.818 86.8729 137.002 87.6762 137.371 88.2151C137.744 88.7491 138.329 89.016 139.126 89.016C139.808 89.016 140.315 88.8666 140.649 88.5678V86.9071H138.827V85.1363H143.27V89.5304Z" fill="#454545"/>
<path d="M154 85.7241C154 86.7675 153.803 87.6909 153.41 88.4943C153.017 89.2977 152.457 89.9174 151.73 90.3534C151.008 90.7845 150.184 91 149.258 91C148.332 91 147.511 90.7918 146.794 90.3754C146.077 89.9541 145.517 89.354 145.114 88.5752C144.716 87.7963 144.507 86.9022 144.487 85.8931V85.2906C144.487 84.2423 144.681 83.3189 145.069 82.5204C145.463 81.717 146.023 81.0973 146.749 80.6613C147.481 80.2253 148.313 80.0073 149.243 80.0073C150.164 80.0073 150.986 80.2229 151.708 80.654C152.429 81.0851 152.989 81.6998 153.388 82.4983C153.791 83.2919 153.995 84.2031 154 85.2318V85.7241ZM151.334 85.2759C151.334 84.2129 151.153 83.407 150.789 82.8584C150.431 82.3048 149.916 82.0281 149.243 82.0281C147.929 82.0281 147.235 82.998 147.16 84.9379L147.153 85.7241C147.153 86.7724 147.329 87.5783 147.683 88.1416C148.036 88.705 148.561 88.9866 149.258 88.9866C149.92 88.9866 150.431 88.7099 150.789 88.1563C151.148 87.6028 151.329 86.8067 151.334 85.7682V85.2759Z" fill="#454545"/>
<circle cx="135" cy="67" r="10" fill="#EC0039"/>
<path d="M131 67L133.667 69L139 65" stroke="white" stroke-width="2"/>
<path d="M232.121 50.3187H187.003V53.4013H232.121V50.3187Z" fill="#C1C1C1"/>
<path d="M127.874 109.168H111.9V112.251H127.874V109.168Z" fill="#C1C1C1"/>
<path d="M157.579 114.773H111.9V117.855H157.579V114.773Z" fill="#C1C1C1"/>
<path d="M241.369 61.5282H176.354V64.6108H241.369V61.5282Z" fill="#F2F2F2"/>
<path d="M241.369 70.2155H176.354V73.298H241.369V70.2155Z" fill="#F2F2F2"/>
<path d="M241.369 78.9027H176.354V81.9853H241.369V78.9027Z" fill="#F2F2F2"/>
<path d="M241.369 87.59H176.354V90.6726H241.369V87.59Z" fill="#F2F2F2"/>
<path d="M241.369 96.2773H176.354V99.3599H241.369V96.2773Z" fill="#F2F2F2"/>
<path d="M241.369 104.965H176.354V108.047H241.369V104.965Z" fill="#F2F2F2"/>
<path d="M241.369 113.652H176.354V116.735H241.369V113.652Z" fill="#F2F2F2"/>
<path d="M253.901 113.28L236.128 131.053L228.658 123.583C228.421 123.346 228.14 123.158 227.83 123.029C227.52 122.901 227.188 122.835 226.853 122.835C226.517 122.835 226.185 122.901 225.876 123.029C225.566 123.158 225.284 123.346 225.047 123.583C224.81 123.82 224.622 124.102 224.494 124.411C224.365 124.721 224.299 125.053 224.299 125.389C224.299 125.724 224.365 126.056 224.494 126.366C224.622 126.676 224.81 126.957 225.047 127.194L234.739 136.886C235.104 137.251 235.6 137.457 236.116 137.457C236.633 137.457 237.128 137.252 237.494 136.887L257.51 116.892C257.747 116.655 257.935 116.373 258.064 116.063C258.192 115.754 258.258 115.422 258.259 115.086C258.259 114.751 258.193 114.419 258.064 114.109C257.936 113.799 257.748 113.518 257.511 113.28C257.032 112.802 256.383 112.533 255.706 112.533C255.029 112.533 254.379 112.802 253.901 113.28Z" fill="#EC0039"/>
<path opacity="0.1" d="M384.653 216.219C384.653 236.258 356.721 230.059 322.521 230.059C288.321 230.059 260.803 236.258 260.803 216.219C260.803 196.18 288.732 191.821 322.932 191.821C357.132 191.821 384.653 196.18 384.653 216.219Z" fill="black"/>
<path d="M384.653 212.475C384.653 232.514 356.721 226.316 322.521 226.316C288.321 226.316 260.803 232.514 260.803 212.475C260.803 192.436 288.732 188.078 322.932 188.078C357.132 188.078 384.653 192.436 384.653 212.475Z" fill="#454545"/>
<path d="M267.889 149.697L266.624 151.167C266.624 151.167 251.235 152.612 251.859 155.11C252.484 157.608 270.388 151.779 270.388 151.779L267.889 149.697Z" fill="#FFC1C7"/>
<path d="M295.786 148.448C295.786 148.448 279.339 154.277 270.387 151.779L274.551 160.106C274.551 160.106 295.786 159.482 299.533 155.734C303.281 151.987 295.786 148.448 295.786 148.448Z" fill="#454545"/>
<path opacity="0.1" d="M295.786 148.448C295.786 148.448 279.339 154.277 270.387 151.779L274.551 160.106C274.551 160.106 295.786 159.482 299.533 155.734C303.281 151.987 295.786 148.448 295.786 148.448Z" fill="black"/>
<path d="M284.648 103.792C290.742 103.792 295.682 98.8522 295.682 92.7584C295.682 86.6646 290.742 81.7246 284.648 81.7246C278.554 81.7246 273.614 86.6646 273.614 92.7584C273.614 98.8522 278.554 103.792 284.648 103.792Z" fill="#FFC1C7"/>
<path d="M294.056 103.117C294.436 103.842 294.917 104.509 295.485 105.099C296.997 106.743 298.8 108.092 300.804 109.078C294.542 110.351 288.216 111.292 281.854 111.896C282.526 109.531 281.642 107.001 280.453 104.848C279.265 102.695 277.75 100.689 277.007 98.3452L284.464 98.5456C285.818 98.582 287.175 98.6225 288.528 98.5563C289.539 98.5068 291.224 97.901 292.168 98.1241C294.163 98.5958 293.185 101.347 294.056 103.117Z" fill="#FFC1C7"/>
<path d="M319.103 154.902L325.348 162.396C325.348 162.396 335.758 186.754 313.065 189.252C290.373 191.751 273.51 187.379 273.51 187.379C273.51 187.379 264.35 183.007 264.142 186.338C263.934 189.669 263.101 199.037 258.105 208.197L253.733 218.19C253.733 218.19 251.443 220.48 252.067 223.603C252.692 226.726 238.119 227.767 238.327 223.603C238.327 223.603 240.409 220.064 240.409 217.982C240.409 215.9 243.74 210.904 243.74 210.904L249.777 180.925C249.777 180.925 249.361 165.519 263.517 168.434C277.674 171.348 297.868 167.809 297.868 167.809L302.448 151.779L319.103 154.902Z" fill="#454545"/>
<path opacity="0.1" d="M319.103 154.902L325.348 162.396C325.348 162.396 335.758 186.754 313.065 189.252C290.373 191.751 273.51 187.379 273.51 187.379C273.51 187.379 264.35 183.007 264.142 186.338C263.934 189.669 263.101 199.037 258.105 208.197L253.733 218.19C253.733 218.19 251.443 220.48 252.067 223.603C252.692 226.726 238.119 227.767 238.327 223.603C238.327 223.603 240.409 220.064 240.409 217.982C240.409 215.9 243.74 210.904 243.74 210.904L249.777 180.925C249.777 180.925 249.361 165.519 263.517 168.434C277.674 171.348 297.868 167.809 297.868 167.809L302.448 151.779L319.103 154.902Z" fill="black"/>
<path d="M295.682 154.353C295.682 154.353 314.731 147.199 325.348 162.396C325.348 162.396 328.055 185.921 317.229 186.962C306.403 188.003 292.247 187.795 288.916 184.256C285.585 180.717 264.558 170.724 264.558 170.724C264.558 170.724 254.091 165.385 252.038 172.322C249.985 179.259 249.777 180.925 249.777 180.925C249.777 180.925 238.951 188.836 234.579 190.293C234.579 190.293 231.665 194.457 229.999 194.457C228.334 194.457 218.133 196.747 219.174 189.044L236.037 173.638L252.9 157.192C252.9 157.192 257.688 150.114 269.971 153.861C278.123 156.287 286.391 158.302 294.745 159.898L295.682 154.353Z" fill="#454545"/>
<path d="M251.443 223.186C251.443 223.186 255.398 233.179 252.067 234.429C248.736 235.678 241.658 234.845 241.658 234.845C241.658 234.845 233.33 233.804 231.249 234.012C229.167 234.22 220.631 232.555 221.88 229.224C223.129 225.893 229.583 226.726 229.583 226.726L235.412 224.019C235.412 224.019 236.037 221.937 237.494 222.77C238.951 223.603 243.115 226.726 251.443 223.186Z" fill="#CBCEDA"/>
<path d="M229.791 193.624C229.791 193.624 234.163 203.409 227.085 202.576C220.006 201.743 214.594 200.286 212.512 200.078C210.509 199.878 204.847 197.944 205.715 194.091C205.762 193.842 205.781 193.588 205.772 193.335C205.772 192.817 206.474 191.803 212.095 191.959C212.095 191.959 216.259 191.959 217.925 189.044C217.925 189.044 224.17 196.955 229.791 193.624Z" fill="#CBCEDA"/>
<path d="M277.049 110.35C277.049 110.35 292.039 100.982 304.53 110.35C317.021 119.718 325.348 162.396 325.348 162.396L296.411 155.943C296.411 155.943 295.161 150.946 293.496 150.113C291.83 149.281 291.622 145.742 291.622 145.742C291.622 145.742 282.67 143.035 283.295 132.626C283.919 122.217 277.049 110.35 277.049 110.35Z" fill="#454545"/>
<path d="M284.752 110.766H277.049C277.049 110.766 272.469 115.971 271.844 129.087L269.346 139.496C269.346 139.496 264.142 151.987 267.264 154.069C270.387 156.151 276.425 155.943 277.674 151.779C278.923 147.615 287.458 123.466 287.458 123.466L284.752 110.766Z" fill="#454545"/>
<path d="M282.544 78.3988C284.454 77.6157 286.544 77.3778 288.581 77.7118C290.618 78.0457 292.522 78.9384 294.082 80.2904C298.08 83.8585 298.886 89.6792 299.897 94.9418C300.908 100.204 302.941 106.065 307.901 108.094C305.665 108.392 303.396 108.326 301.182 107.898L308.677 114.615L296.051 110.5C292.088 109.208 287.926 107.9 283.823 108.63C277.024 109.838 272.292 116.229 265.762 118.474L266.488 114.933L262.107 114.9C263.157 114.123 264.015 113.118 264.617 111.959C264.411 111.708 264.156 111.502 263.868 111.351C263.58 111.2 263.265 111.109 262.941 111.082C261.115 99.6923 267.879 88.4329 276.693 80.9914C278.427 79.5277 280.346 78.1218 282.585 77.7557C284.824 77.3896 287.438 78.3908 288.217 80.522" fill="#454545"/>
<path d="M91.5186 182.787C91.5186 206.75 106.552 226.14 125.13 226.14L91.5186 182.787Z" fill="#454545"/>
<path d="M125.13 226.14C125.13 201.908 141.906 182.3 162.638 182.3L125.13 226.14Z" fill="#454545"/>
<path d="M103.696 184.959C103.696 207.721 113.283 226.14 125.13 226.14L103.696 184.959Z" fill="#454545"/>
<path d="M125.13 226.14C125.13 195.177 144.52 170.122 168.483 170.122L125.13 226.14Z" fill="#454545"/>
<path d="M118.059 226.446C118.059 226.446 122.825 226.299 124.262 225.276C125.698 224.253 131.594 223.032 131.95 224.672C132.307 226.313 139.114 232.832 133.732 232.875C128.351 232.919 121.228 232.037 119.794 231.164C118.36 230.29 118.059 226.446 118.059 226.446Z" fill="#A8A8A8"/>
<path opacity="0.2" d="M133.828 232.304C128.447 232.348 121.324 231.466 119.89 230.593C118.798 229.927 118.363 227.541 118.218 226.44C118.117 226.444 118.059 226.446 118.059 226.446C118.059 226.446 118.361 230.29 119.794 231.164C121.228 232.037 128.351 232.919 133.732 232.875C135.286 232.863 135.822 232.31 135.793 231.492C135.577 231.986 134.985 232.295 133.828 232.304Z" fill="black"/>
</g>
<defs>
<clipPath id="clip0">
<rect width="400" height="242.675" fill="white"/>
</clipPath>
</defs>
</svg>
