<svg width="400" height="371" viewBox="0 0 400 371" fill="none" xmlns="http://www.w3.org/2000/svg">
<g clip-path="url(#clip0)">
<g opacity="0.5">
<path opacity="0.5" d="M286.266 61.8575H73.2302V348.128H286.266V61.8575Z" fill="url(#paint0_linear)"/>
</g>
<path d="M282.385 65.7435H76.0046V342.029H282.385V65.7435Z" fill="#E4E4E4"/>
<path d="M163.107 77.392H92.0947V79.6105H163.107V77.392Z" fill="#E0E0E0"/>
<path opacity="0.7" d="M163.107 87.3777H92.0947V89.5962H163.107V87.3777Z" fill="#454545"/>
<path d="M244.66 77.392H173.648V79.6105H244.66V77.392Z" fill="#E0E0E0"/>
<path d="M255.753 140.641H184.741V142.86H255.753V140.641Z" fill="#E0E0E0"/>
<path d="M257.421 146.741H186.409V148.959H257.421V146.741Z" fill="#E0E0E0"/>
<path d="M260.75 152.846H189.739V155.064H260.75V152.846Z" fill="#E0E0E0"/>
<path d="M255.753 238.836H184.741V241.055H255.753V238.836Z" fill="#E0E0E0"/>
<path d="M257.421 244.941H186.409V247.159H257.421V244.941Z" fill="#E0E0E0"/>
<path d="M260.75 251.04H189.739V253.259H260.75V251.04Z" fill="#E0E0E0"/>
<g opacity="0.5">
<path opacity="0.5" d="M168.1 117.891H92.6506V194.451H168.1V117.891Z" fill="url(#paint1_linear)"/>
</g>
<path d="M167.387 119.558H93.1257V192.789H167.387V119.558Z" fill="#F5F5F5"/>
<g opacity="0.5">
<path opacity="0.5" d="M165.007 123.995H95.7434V171.705H165.007V123.995Z" fill="url(#paint2_linear)"/>
</g>
<path d="M164.527 124.551H96.2185V170.599H164.527V124.551Z" fill="white"/>
<path opacity="0.4" d="M90.4278 168.936L107.63 142.304L114.841 153.952L130.376 137.867L143.691 153.952L155.34 130.1L185.297 177.81L88.2092 174.48L90.4278 168.936Z" fill="#454545"/>
<path opacity="0.4" d="M103.743 136.2C106.501 136.2 108.736 133.964 108.736 131.207C108.736 128.449 106.501 126.214 103.743 126.214C100.986 126.214 98.7505 128.449 98.7505 131.207C98.7505 133.964 100.986 136.2 103.743 136.2Z" fill="#454545"/>
<g opacity="0.5">
<path opacity="0.5" d="M168.1 216.09H92.6506V292.651H168.1V216.09Z" fill="url(#paint3_linear)"/>
</g>
<path d="M167.387 217.753H93.1257V290.983H167.387V217.753Z" fill="#F5F5F5"/>
<g opacity="0.5">
<path opacity="0.5" d="M165.007 222.195H95.7434V269.905H165.007V222.195Z" fill="url(#paint4_linear)"/>
</g>
<path d="M164.527 222.746H96.2185V268.793H164.527V222.746Z" fill="white"/>
<path opacity="0.4" d="M90.4278 267.131L107.63 240.499L114.841 252.152L130.376 236.062L143.691 252.152L155.34 228.294L185.297 276.005L88.2092 272.679L90.4278 267.131Z" fill="#BDBDBD"/>
<path opacity="0.4" d="M103.743 234.399C106.501 234.399 108.736 232.164 108.736 229.406C108.736 226.649 106.501 224.413 103.743 224.413C100.986 224.413 98.7505 226.649 98.7505 229.406C98.7505 232.164 100.986 234.399 103.743 234.399Z" fill="#BDBDBD"/>
<g opacity="0.5">
<path opacity="0.5" d="M160.306 47.7134L104.506 328.493L313.456 370.018L369.255 89.2381L160.306 47.7134Z" fill="url(#paint5_linear)"/>
</g>
<path d="M162.268 52.0642L108.415 323.05L310.837 363.277L364.69 92.2916L162.268 52.0642Z" fill="white"/>
<path d="M318.155 96.0441L174.498 67.4952L174.066 69.6712L317.722 98.2201L318.155 96.0441Z" fill="#E0E0E0"/>
<path d="M277.279 301.736L133.623 273.187L133.19 275.363L276.847 303.912L277.279 301.736Z" fill="#E0E0E0"/>
<path d="M242.138 307.758L131.131 285.697L130.698 287.873L241.706 309.934L242.138 307.758Z" fill="#E0E0E0"/>
<path opacity="0.7" d="M169.998 306.435L128.645 298.217L128.212 300.393L169.565 308.611L169.998 306.435Z" fill="#454545"/>
<path opacity="0.7" d="M243.833 94.2869L172.007 80.0129L171.575 82.1889L243.401 96.4629L243.833 94.2869Z" fill="#454545"/>
<path d="M299.031 118.264L169.526 92.527L169.093 94.7029L298.599 120.44L299.031 118.264Z" fill="#E0E0E0"/>
<path opacity="0.7" d="M198.991 111.272L167.432 105L167 107.176L198.559 113.448L198.991 111.272Z" fill="#454545"/>
<path d="M308.208 146.109L164.551 117.56L164.119 119.736L307.775 148.285L308.208 146.109Z" fill="#E0E0E0"/>
<g opacity="0.5">
<path opacity="0.5" d="M177.208 170.425L162.501 244.427L291.462 270.055L306.168 196.053L177.208 170.425Z" fill="url(#paint6_linear)"/>
</g>
<path d="M305.268 196.435L177.938 171.131L163.556 243.502L290.886 268.806L305.268 196.435Z" fill="white"/>
<path d="M305.72 158.629L162.064 130.08L161.632 132.256L305.288 160.804L305.72 158.629Z" fill="#E0E0E0"/>
<path d="M197.767 223.654L181.986 220.518L178.838 236.358L194.619 239.494L197.767 223.654Z" fill="#454545"/>
<path d="M228.997 214.509L213.215 211.373L207.132 241.982L222.914 245.119L228.997 214.509Z" fill="#454545"/>
<path d="M257.709 218.054L241.928 214.917L235.432 247.604L251.214 250.74L257.709 218.054Z" fill="#454545"/>
<path d="M291.729 194.878L275.947 191.742L263.727 253.23L279.509 256.367L291.729 194.878Z" fill="#454545"/>
<path d="M333.231 166.276C326.385 159.156 318.185 153.478 309.113 149.575C300.041 145.672 290.279 143.622 280.403 143.548C270.527 143.474 260.736 145.376 251.606 149.142C242.476 152.908 234.192 158.462 227.24 165.477C199.212 193.734 198.736 239.743 226.152 268.599C238.196 281.276 254.338 289.282 271.718 291.2C289.099 293.118 306.598 288.824 321.117 279.078L374.651 334.76C375.314 335.449 376.223 335.847 377.179 335.865C378.135 335.884 379.059 335.522 379.748 334.86L393.088 322.033C393.777 321.37 394.175 320.461 394.193 319.505C394.212 318.549 393.85 317.625 393.188 316.936L339.668 261.259C349.93 247.195 354.909 229.966 353.732 212.596C352.555 195.226 345.296 178.826 333.231 166.276ZM316.556 255.801C309.004 263.061 299.468 267.919 289.155 269.76C278.842 271.601 268.215 270.343 258.617 266.144C249.019 261.945 240.881 254.995 235.234 246.171C229.586 237.348 226.681 227.048 226.887 216.574C227.093 206.1 230.4 195.922 236.391 187.327C242.381 178.733 250.785 172.108 260.541 168.29C270.296 164.471 280.965 163.632 291.198 165.877C301.43 168.122 310.768 173.351 318.029 180.903C322.85 185.917 326.636 191.832 329.172 198.31C331.707 204.788 332.942 211.702 332.805 218.657C332.668 225.612 331.163 232.472 328.375 238.845C325.587 245.218 321.571 250.979 316.556 255.801Z" fill="url(#paint7_linear)"/>
<path d="M240.613 202.879C234.656 202.879 234.646 212.138 240.613 212.138C246.58 212.138 246.58 202.879 240.613 202.879Z" fill="url(#paint8_linear)"/>
<path d="M282.138 173.221C266.105 172.86 251.516 180.903 243.758 193.045C241.226 197.007 248.413 200.508 250.931 196.565C257.354 186.513 269.558 180.128 282.76 180.461C296.594 180.808 309.183 188.722 315.848 199.705C318.375 203.872 325.003 200.085 322.499 195.943C314.394 182.641 298.699 173.615 282.138 173.221Z" fill="url(#paint9_linear)"/>
<path d="M339.04 163.463C332.195 156.344 323.995 150.665 314.923 146.762C305.851 142.859 296.089 140.81 286.213 140.736C276.337 140.661 266.546 142.563 257.416 146.329C248.286 150.095 240.001 155.65 233.05 162.665C205.021 190.922 204.546 236.931 231.962 265.786C244.007 278.463 260.148 286.468 277.529 288.385C294.91 290.302 312.408 286.008 326.926 276.261L380.456 331.948C381.119 332.637 382.028 333.034 382.984 333.053C383.94 333.072 384.864 332.71 385.553 332.048L398.893 319.221C399.582 318.558 399.98 317.649 399.998 316.693C400.017 315.737 399.655 314.813 398.993 314.124L345.458 258.442C355.722 244.381 360.704 227.154 359.53 209.785C358.356 192.416 351.102 176.016 339.04 163.463ZM322.366 252.95C314.814 260.211 305.278 265.068 294.965 266.91C284.652 268.751 274.024 267.492 264.426 263.294C254.829 259.095 246.691 252.144 241.043 243.321C235.396 234.498 232.491 224.198 232.697 213.724C232.903 203.249 236.21 193.072 242.2 184.477C248.191 175.883 256.595 169.257 266.351 165.439C276.106 161.621 286.775 160.781 297.008 163.026C307.24 165.272 316.577 170.501 323.838 178.052C328.66 183.067 332.446 188.982 334.982 195.46C337.517 201.937 338.751 208.851 338.615 215.806C338.478 222.761 336.973 229.621 334.185 235.994C331.397 242.367 327.381 248.129 322.366 252.95Z" fill="#454545"/>
<path d="M246.423 200.062C240.465 200.062 240.456 209.321 246.423 209.321C252.389 209.321 252.389 200.062 246.423 200.062Z" fill="#454545"/>
<path d="M287.948 170.409C271.914 170.047 257.325 178.09 249.568 190.233C247.036 194.195 254.223 197.696 256.741 193.753C263.164 183.701 275.368 177.316 288.57 177.648C302.404 177.995 314.993 185.91 321.658 196.893C324.185 201.059 330.812 197.273 328.309 193.131C320.19 179.791 304.513 170.765 287.948 170.409Z" fill="#454545"/>
<path d="M59.3585 315.397H57.6958V324.827H59.3585V315.397Z" fill="#454545"/>
<path d="M63.2446 320.941V319.278H53.8147V320.941H63.2446Z" fill="#454545"/>
<path d="M271.672 3.77666C271.213 3.57689 270.844 3.21514 270.634 2.76041C270.425 2.30568 270.39 1.78979 270.537 1.31111C270.56 1.23706 270.574 1.16051 270.579 1.08308C270.594 0.862922 270.538 0.643811 270.418 0.45854C270.298 0.273269 270.121 0.131803 269.914 0.0553182C269.707 -0.0211669 269.481 -0.0285581 269.27 0.0342513C269.058 0.0970607 268.873 0.226692 268.741 0.403742C268.695 0.465542 268.657 0.532513 268.627 0.603268C268.427 1.06231 268.065 1.43176 267.611 1.64117C267.156 1.85057 266.64 1.88527 266.161 1.73866C266.087 1.71542 266.011 1.70106 265.933 1.6959C265.711 1.67989 265.49 1.73672 265.304 1.85777C265.117 1.97882 264.975 2.15747 264.9 2.36657C264.824 2.57568 264.818 2.80381 264.884 3.0163C264.95 3.2288 265.083 3.41404 265.263 3.54389C265.325 3.58959 265.392 3.62786 265.463 3.6579C265.922 3.85767 266.292 4.21942 266.501 4.67415C266.71 5.12888 266.745 5.64478 266.598 6.12346C266.575 6.1975 266.561 6.27405 266.556 6.35149C266.538 6.57463 266.594 6.79742 266.715 6.9856C266.836 7.17378 267.016 7.31693 267.227 7.39304C267.437 7.46914 267.667 7.47399 267.88 7.40683C268.094 7.33967 268.279 7.20422 268.408 7.02132C268.454 6.95952 268.492 6.89255 268.522 6.8218C268.722 6.36275 269.084 5.9933 269.539 5.7839C269.993 5.57449 270.509 5.53979 270.988 5.6864C271.062 5.70965 271.139 5.724 271.216 5.72916C271.436 5.74422 271.655 5.68757 271.841 5.56769C272.026 5.44782 272.167 5.27117 272.244 5.06418C272.32 4.85718 272.328 4.63099 272.265 4.41945C272.202 4.2079 272.072 4.02239 271.895 3.89068C271.826 3.84326 271.751 3.80494 271.672 3.77666Z" fill="#454545"/>
<path d="M65.2919 73.6817C64.8329 73.4819 64.4634 73.1202 64.254 72.6654C64.0446 72.2107 64.0099 71.6948 64.1565 71.2161C64.1798 71.1421 64.1942 71.0655 64.1993 70.9881C64.2144 70.768 64.1577 70.5488 64.0378 70.3636C63.918 70.1783 63.7413 70.0368 63.5343 69.9603C63.3273 69.8839 63.1011 69.8765 62.8896 69.9393C62.6781 70.0021 62.4925 70.1317 62.3608 70.3088C62.3151 70.3706 62.2769 70.4375 62.2468 70.5083C62.047 70.9673 61.6853 71.3368 61.2306 71.5462C60.7758 71.7556 60.2599 71.7903 59.7813 71.6437C59.7072 71.6204 59.6307 71.6061 59.5532 71.6009C59.3331 71.5859 59.114 71.6425 58.9287 71.7624C58.7434 71.8823 58.602 72.0589 58.5255 72.2659C58.449 72.4729 58.4416 72.6991 58.5044 72.9106C58.5672 73.1222 58.6968 73.3077 58.8739 73.4394C58.9357 73.4851 59.0027 73.5234 59.0734 73.5534C59.5325 73.7532 59.9019 74.1149 60.1113 74.5697C60.3207 75.0244 60.3554 75.5403 60.2088 76.019C60.1856 76.093 60.1712 76.1696 60.1661 76.247C60.151 76.4672 60.2076 76.6863 60.3275 76.8715C60.4474 77.0568 60.6241 77.1983 60.831 77.2748C61.038 77.3512 61.2642 77.3586 61.4758 77.2958C61.6873 77.233 61.8728 77.1034 62.0045 76.9263C62.0502 76.8645 62.0885 76.7976 62.1186 76.7268C62.3183 76.2678 62.6801 75.8983 63.1348 75.6889C63.5895 75.4795 64.1054 75.4448 64.5841 75.5914C64.6582 75.6147 64.7347 75.629 64.8121 75.6342C65.0323 75.6492 65.2514 75.5926 65.4367 75.4727C65.6219 75.3528 65.7634 75.1762 65.8399 74.9692C65.9164 74.7622 65.9238 74.536 65.861 74.3245C65.7982 74.1129 65.6685 73.9274 65.4915 73.7957C65.4297 73.75 65.3627 73.7117 65.2919 73.6817Z" fill="#454545"/>
<path d="M358.774 362.166C358.315 361.966 357.946 361.605 357.736 361.15C357.527 360.695 357.492 360.179 357.639 359.701C357.662 359.627 357.676 359.55 357.681 359.473C357.697 359.252 357.64 359.033 357.52 358.848C357.4 358.663 357.223 358.521 357.016 358.445C356.81 358.368 356.583 358.361 356.372 358.424C356.16 358.487 355.975 358.616 355.843 358.793C355.797 358.855 355.759 358.922 355.729 358.993C355.529 359.452 355.167 359.821 354.713 360.031C354.258 360.24 353.742 360.275 353.263 360.128C353.189 360.105 353.113 360.091 353.035 360.085C352.815 360.07 352.596 360.127 352.411 360.247C352.226 360.367 352.084 360.543 352.008 360.75C351.931 360.957 351.924 361.184 351.987 361.395C352.049 361.607 352.179 361.792 352.356 361.924C352.418 361.97 352.485 362.008 352.556 362.038C353.015 362.238 353.384 362.6 353.593 363.054C353.803 363.509 353.838 364.025 353.691 364.504C353.668 364.578 353.653 364.654 353.648 364.732C353.633 364.952 353.69 365.171 353.81 365.356C353.93 365.541 354.106 365.683 354.313 365.759C354.52 365.836 354.746 365.843 354.958 365.78C355.169 365.718 355.355 365.588 355.487 365.411C355.532 365.349 355.571 365.282 355.601 365.211C355.8 364.752 356.162 364.383 356.617 364.173C357.072 363.964 357.588 363.929 358.066 364.076C358.14 364.099 358.217 364.114 358.294 364.119C358.514 364.134 358.734 364.077 358.919 363.957C359.104 363.837 359.246 363.661 359.322 363.454C359.399 363.247 359.406 363.021 359.343 362.809C359.28 362.597 359.151 362.412 358.974 362.28C358.912 362.235 358.845 362.196 358.774 362.166Z" fill="#454545"/>
<path d="M152.566 39.1163C154.405 39.1163 155.896 37.6254 155.896 35.7862C155.896 33.947 154.405 32.456 152.566 32.456C150.726 32.456 149.235 33.947 149.235 35.7862C149.235 37.6254 150.726 39.1163 152.566 39.1163Z" fill="#454545"/>
<path d="M391.121 80.7221C392.96 80.7221 394.451 79.2311 394.451 77.3919C394.451 75.5527 392.96 74.0618 391.121 74.0618C389.282 74.0618 387.791 75.5527 387.791 77.3919C387.791 79.2311 389.282 80.7221 391.121 80.7221Z" fill="#454545"/>
<path d="M372.262 180.028C374.101 180.028 375.592 178.538 375.592 176.698C375.592 174.859 374.101 173.368 372.262 173.368C370.422 173.368 368.931 174.859 368.931 176.698C368.931 178.538 370.422 180.028 372.262 180.028Z" fill="#454545"/>
<path opacity="0.5" d="M3.33017 16.9216C5.16937 16.9216 6.66033 15.4306 6.66033 13.5914C6.66033 11.7522 5.16937 10.2612 3.33017 10.2612C1.49097 10.2612 0 11.7522 0 13.5914C0 15.4306 1.49097 16.9216 3.33017 16.9216Z" fill="#454545"/>
</g>
<defs>
<linearGradient id="paint0_linear" x1="179.748" y1="348.128" x2="179.748" y2="61.8575" gradientUnits="userSpaceOnUse">
<stop stop-color="#808080" stop-opacity="0.25"/>
<stop offset="0.54" stop-color="#808080" stop-opacity="0.12"/>
<stop offset="1" stop-color="#808080" stop-opacity="0.1"/>
</linearGradient>
<linearGradient id="paint1_linear" x1="20798.9" y1="31455.7" x2="20798.9" y2="19117.2" gradientUnits="userSpaceOnUse">
<stop stop-color="#808080" stop-opacity="0.25"/>
<stop offset="0.54" stop-color="#808080" stop-opacity="0.12"/>
<stop offset="1" stop-color="#808080" stop-opacity="0.1"/>
</linearGradient>
<linearGradient id="paint2_linear" x1="19104.5" y1="17368.4" x2="19104.5" y2="12576.8" gradientUnits="userSpaceOnUse">
<stop stop-color="#808080" stop-opacity="0.25"/>
<stop offset="0.54" stop-color="#808080" stop-opacity="0.12"/>
<stop offset="1" stop-color="#808080" stop-opacity="0.1"/>
</linearGradient>
<linearGradient id="paint3_linear" x1="20798.9" y1="47379.7" x2="20798.9" y2="35041.2" gradientUnits="userSpaceOnUse">
<stop stop-color="#808080" stop-opacity="0.25"/>
<stop offset="0.54" stop-color="#808080" stop-opacity="0.12"/>
<stop offset="1" stop-color="#808080" stop-opacity="0.1"/>
</linearGradient>
<linearGradient id="paint4_linear" x1="19104.5" y1="27328.8" x2="19104.5" y2="22537.2" gradientUnits="userSpaceOnUse">
<stop stop-color="#808080" stop-opacity="0.25"/>
<stop offset="0.54" stop-color="#808080" stop-opacity="0.12"/>
<stop offset="1" stop-color="#808080" stop-opacity="0.1"/>
</linearGradient>
<linearGradient id="paint5_linear" x1="161697" y1="198551" x2="186719" y2="72637.7" gradientUnits="userSpaceOnUse">
<stop stop-color="#808080" stop-opacity="0.25"/>
<stop offset="0.54" stop-color="#808080" stop-opacity="0.12"/>
<stop offset="1" stop-color="#808080" stop-opacity="0.1"/>
</linearGradient>
<linearGradient id="paint6_linear" x1="36556.6" y1="83596.6" x2="40626.9" y2="63115.1" gradientUnits="userSpaceOnUse">
<stop stop-color="#808080" stop-opacity="0.25"/>
<stop offset="0.54" stop-color="#808080" stop-opacity="0.12"/>
<stop offset="1" stop-color="#808080" stop-opacity="0.1"/>
</linearGradient>
<linearGradient id="paint7_linear" x1="300.048" y1="335.867" x2="300.048" y2="143.549" gradientUnits="userSpaceOnUse">
<stop stop-color="#B3B3B3" stop-opacity="0.25"/>
<stop offset="0.54" stop-color="#B3B3B3" stop-opacity="0.1"/>
<stop offset="1" stop-color="#B3B3B3" stop-opacity="0.05"/>
</linearGradient>
<linearGradient id="paint8_linear" x1="240.613" y1="212.133" x2="240.613" y2="202.879" gradientUnits="userSpaceOnUse">
<stop stop-opacity="0.12"/>
<stop offset="0.55" stop-opacity="0.09"/>
<stop offset="1" stop-opacity="0.02"/>
</linearGradient>
<linearGradient id="paint9_linear" x1="62109.7" y1="13893.3" x2="62109.7" y2="12206.9" gradientUnits="userSpaceOnUse">
<stop stop-opacity="0.12"/>
<stop offset="0.55" stop-opacity="0.09"/>
<stop offset="1" stop-opacity="0.02"/>
</linearGradient>
<clipPath id="clip0">
<rect width="400" height="370.033" fill="white"/>
</clipPath>
</defs>
</svg>
