<svg width="400" height="304" viewBox="0 0 400 304" fill="none" xmlns="http://www.w3.org/2000/svg">
<g clip-path="url(#clip0)">
<path opacity="0.1" d="M376.074 164.589C362.012 183.885 366.653 211.428 374.781 233.371C377.504 240.716 380.596 248.486 379.185 256.478C377.461 266.248 369.357 273.568 360.934 277.555C345.579 284.821 327.44 283.661 313.704 274.505C301.851 266.603 293.507 253.471 281.423 245.946C261.201 233.356 234.948 238.981 212.441 248.593C196.518 255.393 179.075 264.15 163.558 257.871C152.639 253.453 145.286 242.207 141.418 230.185C139.55 224.38 138.242 218.08 134.521 213.536C132.308 210.835 129.385 208.953 126.378 207.38C98.9395 193.012 63.6453 201.992 37.0435 185.961C19.0839 175.135 7.90581 154.126 3.26146 132.039C-1.3829 109.952 -0.233483 86.6372 1.61636 63.7207C2.931 47.4349 5.01072 30.0321 14.8023 17.2341C25.1578 3.70329 42.514 -1.67381 58.0347 0.44542C73.5554 2.56465 87.4705 11.1853 99.6435 21.4761C114.87 34.3136 128.878 50.4306 147.815 55.3048C160.713 58.6238 174.417 56.2747 187.825 55.2366C210.239 53.5053 232.573 55.4988 254.771 57.7509C276.021 59.9061 297.418 62.3127 317.544 69.378C331.786 74.3779 343.075 83.8283 356.484 90.2866C365.223 94.4963 374.839 95.4733 383.064 100.911C393.215 107.61 402.389 119.478 399.411 133.72C396.598 147.258 383.545 154.348 376.074 164.589Z" fill="#454545"/>
<g opacity="0.5">
<path opacity="0.5" d="M307.106 252.598C307.106 252.598 308.291 217.484 327.289 197.642C335.263 189.316 340.5 178.741 341.887 167.297C342.535 161.866 342.684 156.387 342.332 150.929" stroke="#535461" stroke-width="2" stroke-miterlimit="10"/>
<path opacity="0.5" d="M354.232 138.361C352.932 142.283 342.063 151.292 342.063 151.292C342.063 151.292 338.733 137.567 340.033 133.648C340.343 132.716 340.832 131.854 341.475 131.111C342.117 130.367 342.9 129.758 343.778 129.318C344.656 128.877 345.612 128.614 346.591 128.543C347.571 128.471 348.555 128.594 349.487 128.903C350.42 129.212 351.282 129.702 352.025 130.345C352.768 130.987 353.377 131.77 353.818 132.647C354.258 133.525 354.522 134.481 354.593 135.461C354.664 136.441 354.542 137.425 354.232 138.357V138.361Z" fill="#454545"/>
<path opacity="0.5" d="M358.761 163.971C355.528 166.557 341.52 168.217 341.52 168.217C341.52 168.217 346.19 154.887 349.422 152.304C350.183 151.643 351.069 151.141 352.028 150.831C352.987 150.52 353.999 150.407 355.003 150.497C356.006 150.587 356.982 150.88 357.87 151.357C358.758 151.834 359.54 152.485 360.17 153.272C360.8 154.059 361.265 154.965 361.535 155.936C361.806 156.907 361.878 157.922 361.746 158.922C361.615 159.921 361.283 160.884 360.77 161.751C360.257 162.619 359.573 163.374 358.761 163.971V163.971Z" fill="#454545"/>
<path opacity="0.5" d="M345.946 200.91C341.858 201.514 328.917 195.882 328.917 195.882C328.917 195.882 339.671 186.73 343.758 186.126C344.73 185.982 345.721 186.032 346.673 186.271C347.626 186.51 348.522 186.934 349.311 187.52C350.099 188.105 350.765 188.841 351.27 189.683C351.774 190.526 352.108 191.46 352.251 192.432C352.395 193.403 352.346 194.394 352.107 195.347C351.868 196.299 351.443 197.196 350.858 197.984C350.272 198.773 349.537 199.438 348.694 199.943C347.851 200.448 346.918 200.781 345.946 200.925V200.91Z" fill="#454545"/>
<path opacity="0.5" d="M329.951 226.679C326.025 227.965 312.314 224.588 312.314 224.588C312.314 224.588 321.37 213.752 325.296 212.466C327.18 211.846 329.234 212.001 331.005 212.896C332.775 213.791 334.118 215.353 334.737 217.238C335.356 219.122 335.201 221.176 334.306 222.946C333.412 224.717 331.85 226.06 329.965 226.679H329.951Z" fill="#454545"/>
<path opacity="0.5" d="M326.358 164.032C328.266 167.696 340.442 174.869 340.442 174.869C340.442 174.869 341.549 160.792 339.641 157.125C339.188 156.254 338.568 155.48 337.815 154.849C337.063 154.217 336.194 153.74 335.257 153.445C334.321 153.149 333.335 153.041 332.357 153.126C331.378 153.212 330.427 153.489 329.555 153.942C328.684 154.396 327.911 155.016 327.279 155.768C326.648 156.521 326.171 157.39 325.875 158.326C325.58 159.263 325.471 160.249 325.557 161.227C325.642 162.205 325.92 163.157 326.373 164.029L326.358 164.032Z" fill="#454545"/>
<path opacity="0.5" d="M308.036 194.402C310.953 197.329 324.703 200.533 324.703 200.533C324.703 200.533 321.545 186.769 318.632 183.842C317.232 182.436 315.332 181.645 313.348 181.641C311.365 181.638 309.461 182.422 308.056 183.822C306.651 185.222 305.859 187.123 305.855 189.106C305.852 191.089 306.636 192.993 308.036 194.398V194.402Z" fill="#454545"/>
<path opacity="0.5" d="M294.279 226.366C296.657 229.743 309.67 235.228 309.67 235.228C309.67 235.228 308.887 221.129 306.506 217.749C305.955 216.911 305.241 216.193 304.407 215.636C303.572 215.08 302.635 214.697 301.649 214.51C300.664 214.324 299.651 214.337 298.671 214.55C297.691 214.762 296.764 215.17 295.945 215.748C295.125 216.327 294.431 217.064 293.902 217.916C293.373 218.768 293.022 219.718 292.868 220.709C292.714 221.7 292.76 222.712 293.005 223.684C293.25 224.657 293.688 225.57 294.293 226.37L294.279 226.366Z" fill="#454545"/>
<path opacity="0.5" d="M311.28 238.065C311.28 238.065 300.504 222.39 302.393 207.642C303.226 201.461 302.031 195.176 298.988 189.732C297.523 187.159 295.825 184.726 293.916 182.462" stroke="#535461" stroke-width="2" stroke-miterlimit="10"/>
<path opacity="0.5" d="M295.055 173.159C295.748 175.286 293.916 182.707 293.916 182.707C293.916 182.707 288.051 177.8 287.358 175.677C287.024 174.657 287.11 173.545 287.596 172.588C288.082 171.63 288.928 170.905 289.949 170.571C290.97 170.238 292.081 170.324 293.039 170.81C293.996 171.296 294.722 172.142 295.055 173.163V173.159Z" fill="#03034A"/>
<path opacity="0.5" d="M305.267 182.854C304.696 185.009 299.121 190.25 299.121 190.25C299.121 190.25 296.865 182.944 297.436 180.781C297.711 179.743 298.387 178.856 299.316 178.317C300.244 177.777 301.349 177.628 302.388 177.903C303.426 178.177 304.313 178.853 304.853 179.782C305.393 180.711 305.542 181.816 305.267 182.854V182.854Z" fill="#03034A"/>
<path opacity="0.5" d="M311.567 203.062C309.983 204.639 302.53 206.345 302.53 206.345C302.53 206.345 304.268 198.899 305.856 197.322C306.233 196.947 306.681 196.65 307.173 196.448C307.665 196.246 308.192 196.143 308.724 196.145C309.256 196.146 309.782 196.253 310.273 196.458C310.764 196.663 311.21 196.963 311.585 197.34C311.96 197.717 312.257 198.165 312.459 198.657C312.661 199.149 312.764 199.676 312.762 200.208C312.761 200.74 312.654 201.267 312.449 201.758C312.244 202.249 311.944 202.694 311.567 203.069V203.062Z" fill="#03034A"/>
<path opacity="0.5" d="M312.892 219.43C311.596 221.252 304.523 224.186 304.523 224.186C304.523 224.186 304.979 216.553 306.276 214.732C306.584 214.299 306.974 213.93 307.425 213.647C307.875 213.365 308.377 213.174 308.901 213.085C309.426 212.996 309.962 213.012 310.481 213.13C310.999 213.249 311.489 213.469 311.923 213.777C312.356 214.085 312.725 214.475 313.007 214.926C313.29 215.376 313.481 215.878 313.57 216.402C313.658 216.926 313.643 217.463 313.524 217.981C313.406 218.5 313.186 218.99 312.878 219.423L312.892 219.43Z" fill="#03034A"/>
<path opacity="0.5" d="M291.176 193.296C293.184 194.28 300.788 193.49 300.788 193.49C300.788 193.49 296.74 187.003 294.732 186.022C293.767 185.55 292.655 185.481 291.639 185.83C290.624 186.179 289.788 186.916 289.317 187.881C288.845 188.845 288.776 189.958 289.125 190.973C289.473 191.989 290.211 192.824 291.176 193.296V193.296Z" fill="#03034A"/>
<path opacity="0.5" d="M292.969 212.423C295.181 212.76 302.2 209.732 302.2 209.732C302.2 209.732 296.395 204.754 294.186 204.431C293.124 204.269 292.042 204.536 291.177 205.173C290.312 205.809 289.736 206.763 289.574 207.825C289.413 208.887 289.68 209.969 290.316 210.834C290.953 211.699 291.907 212.275 292.969 212.437V212.423Z" fill="#03034A"/>
<path opacity="0.5" d="M297.257 230.767C299.379 231.485 306.811 229.689 306.811 229.689C306.811 229.689 301.933 223.802 299.811 223.094C298.791 222.756 297.679 222.836 296.719 223.317C295.759 223.798 295.029 224.641 294.69 225.661C294.352 226.68 294.432 227.792 294.913 228.752C295.394 229.713 296.237 230.442 297.257 230.781V230.767Z" fill="#03034A"/>
<path opacity="0.5" d="M295.055 173.159C295.748 175.286 293.916 182.707 293.916 182.707C293.916 182.707 288.051 177.8 287.358 175.677C287.024 174.657 287.11 173.545 287.596 172.588C288.082 171.63 288.928 170.905 289.949 170.571C290.97 170.238 292.081 170.324 293.039 170.81C293.996 171.296 294.722 172.142 295.055 173.163V173.159Z" fill="white"/>
<path opacity="0.5" d="M305.267 182.854C304.696 185.009 299.121 190.25 299.121 190.25C299.121 190.25 296.865 182.944 297.436 180.781C297.711 179.743 298.387 178.856 299.316 178.317C300.244 177.777 301.349 177.628 302.388 177.903C303.426 178.177 304.313 178.853 304.853 179.782C305.393 180.711 305.542 181.816 305.267 182.854V182.854Z" fill="white"/>
<path opacity="0.5" d="M311.567 203.062C309.983 204.639 302.53 206.345 302.53 206.345C302.53 206.345 304.268 198.899 305.856 197.322C306.233 196.947 306.681 196.65 307.173 196.448C307.665 196.246 308.192 196.143 308.724 196.145C309.256 196.146 309.782 196.253 310.273 196.458C310.764 196.663 311.21 196.963 311.585 197.34C311.96 197.717 312.257 198.165 312.459 198.657C312.661 199.149 312.764 199.676 312.762 200.208C312.761 200.74 312.654 201.267 312.449 201.758C312.244 202.249 311.944 202.694 311.567 203.069V203.062Z" fill="white"/>
<path opacity="0.5" d="M312.892 219.43C311.596 221.252 304.523 224.186 304.523 224.186C304.523 224.186 304.979 216.553 306.276 214.732C306.584 214.299 306.974 213.93 307.425 213.647C307.875 213.365 308.377 213.174 308.901 213.085C309.426 212.996 309.962 213.012 310.481 213.13C310.999 213.249 311.489 213.469 311.923 213.777C312.356 214.085 312.725 214.475 313.007 214.926C313.29 215.376 313.481 215.878 313.57 216.402C313.658 216.926 313.643 217.463 313.524 217.981C313.406 218.5 313.186 218.99 312.878 219.423L312.892 219.43Z" fill="white"/>
<path opacity="0.5" d="M291.176 193.296C293.184 194.28 300.788 193.49 300.788 193.49C300.788 193.49 296.74 187.003 294.732 186.022C293.767 185.55 292.655 185.481 291.639 185.83C290.624 186.179 289.788 186.916 289.317 187.881C288.845 188.845 288.776 189.958 289.125 190.973C289.473 191.989 290.211 192.824 291.176 193.296V193.296Z" fill="white"/>
<path opacity="0.5" d="M292.969 212.423C295.181 212.76 302.2 209.732 302.2 209.732C302.2 209.732 296.395 204.754 294.186 204.431C293.124 204.269 292.042 204.536 291.177 205.173C290.312 205.809 289.736 206.763 289.574 207.825C289.413 208.887 289.68 209.969 290.316 210.834C290.953 211.699 291.907 212.275 292.969 212.437V212.423Z" fill="white"/>
<path opacity="0.5" d="M297.257 230.767C299.379 231.485 306.811 229.689 306.811 229.689C306.811 229.689 301.933 223.802 299.811 223.094C298.791 222.756 297.679 222.836 296.719 223.317C295.759 223.798 295.029 224.641 294.69 225.661C294.352 226.68 294.432 227.792 294.913 228.752C295.394 229.713 296.237 230.442 297.257 230.781V230.767Z" fill="white"/>
<path opacity="0.5" d="M291.341 280.569H321.991L329.656 233.827H283.679L291.341 280.569Z" fill="#474059"/>
<path opacity="0.1" d="M289.545 233.827L296.704 277.505H322.494L321.991 280.569H291.341L283.679 233.827H289.545Z" fill="black"/>
</g>
<path d="M297.152 14.1126H72.2979V285.411H297.152V14.1126Z" fill="url(#paint0_linear)"/>
<path d="M294.279 17.5825H75.1714V281.948H294.279V17.5825Z" fill="white"/>
<path d="M248.661 47.3954H160.3V51.7058H248.661V47.3954Z" fill="#E4E4E4"/>
<path d="M248.661 61.0447H160.3V65.355H248.661V61.0447Z" fill="#E4E4E4"/>
<path d="M227.469 74.694H181.492V79.0043H227.469V74.694Z" fill="#454545"/>
<path opacity="0.5" d="M248.661 133.961H160.3V138.271H248.661V133.961Z" fill="#E4E4E4"/>
<path opacity="0.5" d="M248.661 147.61H160.3V151.92H248.661V147.61Z" fill="#E4E4E4"/>
<path d="M99.0292 149.2L103.916 148.899L104.055 151.158L96.3606 151.631L95.6126 139.45L98.42 139.277L99.0292 149.2Z" fill="#E4E4E4"/>
<path d="M114.23 144.672C114.303 145.86 114.157 146.924 113.792 147.865C113.427 148.805 112.87 149.548 112.122 150.092C111.379 150.63 110.512 150.93 109.52 150.991C108.528 151.052 107.634 150.869 106.837 150.442C106.04 150.009 105.398 149.363 104.911 148.502C104.43 147.642 104.144 146.638 104.052 145.49L104.01 144.804C103.937 143.611 104.08 142.546 104.44 141.612C104.805 140.671 105.362 139.929 106.11 139.385C106.863 138.84 107.738 138.537 108.735 138.476C109.722 138.416 110.617 138.607 111.42 139.05C112.223 139.494 112.866 140.157 113.348 141.04C113.836 141.917 114.118 142.941 114.195 144.111L114.23 144.672ZM111.343 144.337C111.269 143.127 111.018 142.221 110.59 141.62C110.168 141.014 109.596 140.733 108.877 140.777C107.469 140.863 106.793 142.013 106.849 144.227L106.896 145.122C106.969 146.316 107.214 147.222 107.632 147.84C108.05 148.458 108.633 148.744 109.379 148.698C110.088 148.655 110.615 148.306 110.961 147.652C111.306 146.998 111.445 146.08 111.378 144.898L111.343 144.337Z" fill="#E4E4E4"/>
<path d="M125.477 148.331C125.076 148.86 124.469 149.303 123.656 149.661C122.843 150.019 121.941 150.228 120.949 150.289C119.424 150.382 118.176 149.969 117.204 149.049C116.232 148.129 115.661 146.801 115.49 145.065L115.418 144.011C115.344 142.812 115.482 141.754 115.833 140.837C116.183 139.914 116.719 139.189 117.442 138.664C118.169 138.132 119.028 137.836 120.02 137.775C121.471 137.686 122.617 137.965 123.46 138.613C124.307 139.255 124.84 140.261 125.058 141.631L122.355 141.797C122.217 141.122 121.979 140.65 121.641 140.379C121.304 140.109 120.841 139.992 120.255 140.028C119.551 140.071 119.026 140.417 118.681 141.065C118.335 141.713 118.195 142.617 118.261 143.778L118.307 144.514C118.381 145.73 118.635 146.632 119.067 147.222C119.504 147.805 120.149 148.071 121.002 148.018C121.733 147.973 122.266 147.77 122.603 147.408L122.487 145.517L120.535 145.637L120.411 143.621L125.17 143.328L125.477 148.331Z" fill="#E4E4E4"/>
<path d="M136.705 143.292C136.778 144.48 136.632 145.544 136.266 146.485C135.901 147.425 135.345 148.168 134.597 148.712C133.854 149.25 132.986 149.55 131.995 149.611C131.003 149.671 130.109 149.488 129.312 149.061C128.514 148.629 127.873 147.983 127.386 147.122C126.905 146.262 126.619 145.258 126.527 144.11L126.485 143.424C126.411 142.23 126.555 141.166 126.915 140.232C127.28 139.291 127.836 138.549 128.584 138.005C129.338 137.46 130.213 137.157 131.21 137.096C132.197 137.035 133.091 137.227 133.895 137.67C134.698 138.113 135.341 138.777 135.823 139.659C136.311 140.536 136.593 141.56 136.67 142.731L136.705 143.292ZM133.818 142.957C133.744 141.747 133.493 140.841 133.065 140.24C132.642 139.634 132.071 139.352 131.351 139.397C129.944 139.483 129.268 140.633 129.323 142.847L129.37 143.742C129.444 144.936 129.689 145.842 130.107 146.46C130.525 147.078 131.107 147.364 131.854 147.318C132.563 147.275 133.09 146.926 133.435 146.272C133.781 145.618 133.92 144.7 133.852 143.517L133.818 142.957Z" fill="#E4E4E4"/>
<path opacity="0.5" d="M227.469 161.259H181.492V165.57H227.469V161.259Z" fill="#454545"/>
<path opacity="0.5" d="M248.661 220.526H160.3V224.836H248.661V220.526Z" fill="#E4E4E4"/>
<path d="M98.6253 227.429L103.47 228.137L103.143 230.377L95.515 229.262L97.2797 217.186L100.063 217.593L98.6253 227.429Z" fill="#E4E4E4"/>
<path d="M114.431 226.114C114.259 227.291 113.898 228.303 113.348 229.149C112.798 229.995 112.101 230.607 111.257 230.986C110.42 231.361 109.509 231.476 108.526 231.333C107.543 231.189 106.705 230.827 106.013 230.245C105.321 229.659 104.825 228.894 104.525 227.953C104.231 227.012 104.156 225.97 104.302 224.828L104.401 224.148C104.574 222.965 104.933 221.953 105.477 221.112C106.027 220.266 106.724 219.654 107.567 219.274C108.416 218.896 109.335 218.779 110.323 218.923C111.301 219.066 112.138 219.437 112.833 220.035C113.529 220.634 114.022 221.415 114.313 222.378C114.61 223.336 114.677 224.396 114.512 225.558L114.431 226.114ZM111.674 225.194C111.85 223.994 111.79 223.057 111.494 222.381C111.205 221.701 110.704 221.308 109.99 221.204C108.595 221 107.697 221.987 107.298 224.165L107.16 225.051C106.987 226.234 107.042 227.171 107.325 227.862C107.607 228.553 108.118 228.952 108.858 229.06C109.561 229.163 110.149 228.93 110.621 228.361C111.092 227.792 111.417 226.921 111.593 225.75L111.674 225.194Z" fill="#E4E4E4"/>
<path d="M124.69 232.001C124.189 232.436 123.504 232.745 122.635 232.929C121.766 233.112 120.84 233.132 119.857 232.989C118.345 232.768 117.208 232.107 116.445 231.008C115.683 229.908 115.396 228.491 115.584 226.757L115.729 225.71C115.903 224.522 116.255 223.514 116.786 222.688C117.318 221.857 117.991 221.258 118.806 220.891C119.627 220.52 120.529 220.406 121.512 220.55C122.95 220.76 124.015 221.269 124.707 222.076C125.405 222.878 125.72 223.971 125.653 225.356L122.973 224.965C122.976 224.276 122.84 223.765 122.565 223.431C122.29 223.097 121.862 222.888 121.28 222.803C120.583 222.701 119.998 222.932 119.527 223.496C119.056 224.059 118.734 224.916 118.56 226.065L118.454 226.795C118.278 228 118.341 228.935 118.643 229.601C118.951 230.261 119.528 230.654 120.374 230.777C121.098 230.883 121.662 230.793 122.066 230.508L122.34 228.633L120.405 228.351L120.697 226.352L125.415 227.041L124.69 232.001Z" fill="#E4E4E4"/>
<path d="M136.712 229.37C136.54 230.547 136.179 231.559 135.628 232.405C135.078 233.251 134.381 233.863 133.538 234.243C132.7 234.617 131.79 234.733 130.807 234.589C129.823 234.445 128.986 234.083 128.293 233.501C127.601 232.915 127.106 232.151 126.806 231.209C126.512 230.268 126.437 229.226 126.582 228.084L126.682 227.404C126.855 226.221 127.213 225.209 127.757 224.368C128.307 223.522 129.004 222.91 129.848 222.53C130.697 222.152 131.615 222.035 132.604 222.179C133.582 222.322 134.418 222.693 135.114 223.291C135.809 223.89 136.302 224.671 136.594 225.634C136.891 226.592 136.957 227.652 136.793 228.814L136.712 229.37ZM133.955 228.45C134.13 227.25 134.07 226.313 133.775 225.637C133.486 224.957 132.984 224.564 132.271 224.46C130.875 224.256 129.978 225.243 129.578 227.421L129.441 228.307C129.268 229.49 129.323 230.427 129.605 231.118C129.887 231.809 130.399 232.208 131.139 232.316C131.842 232.419 132.429 232.186 132.901 231.617C133.373 231.048 133.697 230.177 133.874 229.006L133.955 228.45Z" fill="#E4E4E4"/>
<rect x="91.6036" y="211.567" width="52" height="21" rx="4.5" transform="rotate(8.31431 91.6036 211.567)" stroke="#DFDDE7"/>
<path opacity="0.5" d="M248.661 234.175H160.3V238.486H248.661V234.175Z" fill="#E4E4E4"/>
<path opacity="0.5" d="M227.469 247.825H181.492V252.135H227.469V247.825Z" fill="#454545"/>
<path d="M207.76 207.865H207.814C207.893 210.271 208.234 212.448 208.891 213.051C210.458 214.488 216.952 211.614 216.506 209.876C216.417 209.517 216.266 208.928 216.075 208.184C217.828 207.965 219.326 207.466 219.922 206.439L221.05 209.916L221.129 210.163H221.151H221.215C221.959 217.211 223.643 231.844 224.99 233.805C226.786 236.402 228.852 247.656 228.852 247.656L232.713 270.741C232.713 270.741 234.2 284.031 235.091 285.468C235.35 285.742 235.694 285.921 236.068 285.974C235.547 287.533 234.8 289.354 233.913 290.371C232.117 292.39 229.753 296.431 227.674 296.143C225.594 295.856 225.001 300.184 228.863 300.759C231 301.078 234.408 300.691 237.027 300.281C237.027 301.438 237.832 302.767 239.854 303.068C243.715 303.647 251.736 301.915 251.736 301.915C251.736 301.915 258.561 299.042 258.866 297.009C259.081 295.536 258.036 289.624 257.454 286.524C258.532 284.796 257.382 269.886 257.382 269.886L255.303 241.32C255.303 241.32 256.492 225.451 255.303 222.563C254.559 220.767 254.283 212.505 254.178 206.597L255.615 206.69C255.697 206.591 255.771 206.487 255.838 206.377L256.197 206.403C256.197 206.403 257.993 204.384 256.495 201.209C255.392 198.849 255.601 188.195 255.777 182.89L255.989 180.376C256.067 180.299 256.128 180.206 256.165 180.103C258.951 179.726 261.659 178.907 264.185 177.674C264.948 177.357 265.658 176.926 266.29 176.396C267.777 174.959 266.883 166.295 263.913 153.31C260.942 140.326 258.27 141.479 258.27 141.479C258.27 141.479 251.14 140.9 247.871 136.572C244.602 132.244 242.408 132.301 242.408 132.301C242.325 131.734 242.268 131.199 242.228 130.699C242.228 130.512 242.199 130.34 242.189 130.153C243.3 129.12 244.147 127.835 244.66 126.407C245.328 126.048 246.15 125.929 246.79 125.477C246.953 125.358 247.101 125.221 247.232 125.067C247.872 124.476 248.279 123.674 248.377 122.808C248.479 121.862 248.435 120.906 248.245 119.974C248.018 118.594 247.684 117.183 246.88 116.098C246.075 115.013 244.872 114.36 243.712 113.753C240.57 112.103 237.42 110.47 234.261 108.853C233.644 108.476 232.956 108.231 232.239 108.135C230.975 108.063 229.84 108.929 228.819 109.751C228.412 110.071 228.023 110.413 227.652 110.775C227.337 111.054 227.049 111.363 226.794 111.698C225.601 113.296 225.095 116.306 225.619 118.304C225.784 118.936 226.14 119.119 226.578 119.112C225.928 120.404 225.589 121.831 225.59 123.278C225.597 124.863 226.003 126.42 226.769 127.806C227.536 129.193 228.638 130.364 229.976 131.213C229.976 131.414 229.976 131.612 229.994 131.802C230.009 132.539 229.985 133.276 229.922 134.011C229.922 134.011 222.02 138.282 221.133 140.3C220.246 142.319 216.973 143.763 216.973 143.763C216.973 143.763 210.734 146.938 210.734 158.192L207.465 174.061L206.873 204.359C206.873 204.359 207.282 204 207.95 203.49C207.929 203.691 207.911 203.899 207.893 204.111C207.804 205.269 207.774 206.431 207.803 207.592L207.76 207.865ZM247.666 286.28C247.544 286.743 247.365 287.357 247.138 288.076C247.038 287.479 246.937 286.89 246.837 286.33C247.095 286.305 247.372 286.291 247.666 286.28V286.28Z" fill="url(#paint1_linear)"/>
<path d="M236.877 282.559C236.877 282.559 235.731 287.709 234.003 289.71C232.275 291.711 230.012 295.719 228.015 295.432C226.018 295.145 225.44 299.437 229.161 300.008C232.882 300.579 240.587 298.866 240.587 298.866C240.587 298.866 247.167 295.992 247.451 294.002C247.735 292.012 245.734 281.7 245.734 281.7L236.877 282.559Z" fill="#454545"/>
<path opacity="0.05" d="M236.877 282.559C236.877 282.559 235.731 287.709 234.003 289.71C232.275 291.711 230.012 295.719 228.015 295.432C226.018 295.145 225.44 299.437 229.161 300.008C232.882 300.579 240.587 298.866 240.587 298.866C240.587 298.866 247.167 295.992 247.451 294.002C247.735 292.012 245.734 281.7 245.734 281.7L236.877 282.559Z" fill="black"/>
<path d="M247.462 284.847C247.462 284.847 246.316 289.997 244.588 291.998C242.86 293.999 240.587 298.007 238.593 297.72C236.6 297.433 236.018 301.725 239.739 302.296C243.46 302.867 251.183 301.15 251.183 301.15C251.183 301.15 257.763 298.277 258.047 296.287C258.331 294.297 256.33 283.984 256.33 283.984L247.462 284.847Z" fill="#454545"/>
<path d="M221.428 206.467C221.428 206.467 223.716 231.068 225.433 233.644C227.15 236.219 229.15 247.376 229.15 247.376L232.868 270.26C232.868 270.26 234.305 283.421 235.156 284.85C236.007 286.28 246.625 285.666 246.625 285.666L240.023 209.898L221.428 206.467Z" fill="#454545"/>
<path opacity="0.05" d="M221.428 206.467C221.428 206.467 223.716 231.068 225.433 233.644C227.15 236.219 229.15 247.376 229.15 247.376L232.868 270.26C232.868 270.26 234.305 283.421 235.156 284.85C236.007 286.28 246.625 285.666 246.625 285.666L240.023 209.898L221.428 206.467Z" fill="black"/>
<path d="M216.852 194.732L217.599 197.107L221.64 209.933L221.719 210.178H221.74C222.283 210.3 233.734 212.933 236.205 213.741C236.338 213.782 236.469 213.831 236.596 213.888C237.742 214.459 239.172 235.055 239.172 235.055C239.172 235.055 240.03 254.509 240.609 255.939C241.187 257.368 243.482 286.829 244.901 285.974C246.32 285.119 256.629 285.974 256.629 285.974C257.774 284.829 256.629 269.383 256.629 269.383L254.595 241.068C254.595 241.068 255.741 225.336 254.595 222.473C253.45 219.61 253.45 200.447 253.45 200.447L230.034 196.787L227.771 196.428L216.852 194.732Z" fill="#454545"/>
<path opacity="0.02" d="M217.599 197.11L221.64 209.937L221.737 210.188C222.279 210.311 233.73 212.943 236.201 213.752H236.449L230.052 196.791L229.869 196.302L227.789 196.435L217.599 197.11Z" fill="black"/>
<path opacity="0.1" d="M244.315 137.524C244.315 137.524 233.73 148.968 227.149 139.525L220.856 143.817L222.002 150.397L218.281 200.171C218.281 200.171 228.008 199.883 234.872 202.171C236.784 202.849 238.85 202.967 240.826 202.511C242.803 202.055 244.608 201.043 246.029 199.596L244.897 155.832L247.473 142.387L244.315 137.524Z" fill="black"/>
<path d="M244.315 136.665C244.315 136.665 233.73 148.109 227.149 138.666L220.856 142.959L222.002 149.539L218.281 199.312C218.281 199.312 228.008 199.025 234.872 201.313C236.784 201.991 238.85 202.109 240.826 201.653C242.803 201.196 244.608 200.185 246.029 198.737L244.897 154.973L247.473 141.529L244.315 136.665Z" fill="#454545"/>
<path d="M223.185 187.628V189.431H222.61V188.231H220.509V189.431H219.93V187.631L223.185 187.628Z" fill="#E82127"/>
<path d="M222.671 187.046H220.451C220.305 187.011 220.172 186.937 220.066 186.832C219.96 186.727 219.884 186.594 219.847 186.449H223.271C223.234 186.594 223.158 186.726 223.052 186.831C222.945 186.936 222.812 187.011 222.667 187.046" fill="#E82127"/>
<path d="M242.742 186.471C242.704 186.614 242.629 186.745 242.523 186.849C242.418 186.953 242.286 187.028 242.142 187.064H241.208L241.162 187.082V189.438H240.587V187.082L240.533 187.064H239.599C239.456 187.026 239.325 186.952 239.219 186.848C239.114 186.744 239.038 186.614 238.999 186.471V186.471H242.742Z" fill="#E82127"/>
<path d="M222.286 195.882C222.286 195.882 222.286 203.321 220.569 206.467C218.852 209.614 208.842 207.904 208.842 207.904L210.842 197.319L222.286 195.882Z" fill="#D6DBE6"/>
<path d="M209.93 213.051C211.438 214.488 217.692 211.614 217.261 209.905C216.959 208.694 215.903 204.362 215.303 201.905L214.887 200.178C214.887 200.178 211.223 199.032 209.93 200.178C209.459 200.594 209.129 202.236 208.974 204.219C208.708 207.663 208.978 212.139 209.93 213.051Z" fill="#FDC2CC"/>
<path d="M223.705 141.813L233.716 149.535C233.716 149.535 248.59 148.677 244.872 141.525C243.254 138.38 242.277 134.944 241.999 131.418C241.878 130.117 241.878 128.807 241.999 127.506C241.999 127.506 228.267 114.934 229.984 129.223C230.119 130.32 230.198 131.423 230.221 132.528C230.426 143.253 223.705 141.813 223.705 141.813Z" fill="#FDC2CC"/>
<path opacity="0.1" d="M230.012 129.227C230.148 130.323 230.227 131.426 230.249 132.531C231.79 133.552 233.599 134.094 235.447 134.09C238.008 134.09 239.894 131.597 241.596 129.941C241.406 127.567 242.024 127.51 242.024 127.51C242.024 127.51 228.295 114.924 230.012 129.227Z" fill="black"/>
<path d="M235.447 133.519C240.66 133.519 244.886 129.293 244.886 124.079C244.886 118.866 240.66 114.64 235.447 114.64C230.234 114.64 226.007 118.866 226.007 124.079C226.007 129.293 230.234 133.519 235.447 133.519Z" fill="#FDC2CC"/>
<path opacity="0.1" d="M242.167 133.088C242.167 133.088 243.74 133.232 246.887 137.52C250.033 141.809 256.898 142.384 256.898 142.384C256.898 142.384 259.473 141.238 262.332 154.111C265.191 166.985 266.05 175.566 264.62 176.996C263.191 178.425 257.469 180.433 254.595 180.433C254.595 180.433 253.737 198.454 255.166 201.6C256.596 204.747 254.879 206.751 254.879 206.751L242.307 205.893C242.307 205.893 238.015 200.458 237.156 191.018C236.298 181.579 233.439 154.686 234.868 151.54C236.298 148.393 242.591 140.383 242.307 139.525C242.023 138.666 242.167 133.088 242.167 133.088Z" fill="black"/>
<path d="M242.2 133.002C242.2 133.002 244.316 132.944 247.462 137.237C250.609 141.529 257.469 142.1 257.469 142.1C257.469 142.1 260.045 140.954 262.904 153.828C265.763 166.701 266.622 175.282 265.192 176.712C263.762 178.141 258.04 180.146 255.181 180.146C255.181 180.146 254.323 198.166 255.752 201.313C257.182 204.459 255.465 206.464 255.465 206.464L242.893 205.605C242.893 205.605 238.601 200.171 237.742 190.731C236.884 181.292 234.018 154.402 235.447 151.27C236.877 148.138 243.17 140.114 242.886 139.255C242.602 138.397 242.2 133.002 242.2 133.002Z" fill="#D6DBE6"/>
<path opacity="0.1" d="M208.978 204.215C210.347 203.17 212.929 201.543 215.307 201.902L214.89 200.174C214.89 200.174 211.227 199.028 209.933 200.174C209.456 200.591 209.129 202.229 208.978 204.215Z" fill="black"/>
<path opacity="0.1" d="M230.17 134.805C230.17 134.805 222.875 139.525 222.017 141.529C221.158 143.533 218.012 144.963 218.012 144.963C218.012 144.963 212.006 148.109 212.006 159.266L208.86 174.998L223.163 195.023C223.163 195.023 224.88 174.998 225.738 170.135C226.597 165.271 227.739 156.126 227.739 156.126C227.739 156.126 232.031 150.692 231.456 149.262C230.882 147.833 230.17 134.805 230.17 134.805Z" fill="black"/>
<path d="M230.171 134.719C230.171 134.719 222.563 138.953 221.708 140.954C220.853 142.955 217.703 144.388 217.703 144.388C217.703 144.388 211.697 147.535 211.697 158.691L208.551 174.424L207.98 204.459C207.98 204.459 213.131 199.596 216.848 201.884C220.566 204.172 222.854 194.445 222.854 194.445C222.854 194.445 224.571 174.42 225.429 169.557C226.288 164.693 227.43 155.548 227.43 155.548C227.43 155.548 231.722 150.114 231.148 148.684C230.573 147.254 230.171 134.719 230.171 134.719Z" fill="#D6DBE6"/>
<path opacity="0.1" d="M227.16 112.596C227.645 111.98 228.205 111.427 228.827 110.951C229.811 110.132 230.899 109.277 232.121 109.349C232.812 109.441 233.475 109.678 234.068 110.046C237.109 111.648 240.141 113.266 243.166 114.902C244.283 115.505 245.436 116.145 246.215 117.23C246.995 118.314 247.311 119.708 247.53 121.073C247.713 121.997 247.757 122.944 247.659 123.882C247.57 124.801 247.124 125.648 246.417 126.242C245.601 126.834 244.484 126.838 243.802 127.614C243.406 128.063 243.234 128.691 242.954 129.237C242.674 129.783 242.189 130.315 241.636 130.218C241.083 130.121 240.748 129.536 240.669 128.943C240.634 128.342 240.669 127.739 240.774 127.147C240.881 126.069 240.745 124.927 240.12 124.126C239.689 123.58 239.071 123.25 238.654 122.689C237.656 121.339 238.112 119.097 237.016 117.829C236.698 117.498 236.298 117.257 235.856 117.131C235.415 117.004 234.947 116.998 234.502 117.111C233.615 117.298 232.803 117.779 231.988 118.189C230.886 118.744 229.732 119.189 228.543 119.518C227.545 119.791 226.388 120.444 226.047 119.115C225.526 117.165 226.011 114.18 227.16 112.596Z" fill="black"/>
<path d="M227.447 112.312C227.932 111.696 228.492 111.143 229.114 110.667C230.098 109.848 231.187 108.993 232.408 109.065C233.099 109.157 233.762 109.395 234.355 109.762C237.394 111.364 239.919 109.848 243.453 114.618C244.207 115.638 245.723 115.861 246.503 116.946C247.282 118.031 247.598 119.424 247.817 120.789C248.001 121.714 248.044 122.661 247.947 123.598C247.858 124.517 247.411 125.365 246.704 125.958C245.888 126.551 244.771 126.554 244.089 127.33C243.694 127.779 243.521 128.408 243.241 128.954C242.961 129.5 242.476 130.031 241.923 129.934C241.37 129.837 241.036 129.252 240.957 128.659C240.922 128.058 240.956 127.456 241.061 126.863C241.169 125.786 241.032 124.643 240.407 123.842C239.976 123.296 239.358 122.966 238.942 122.406C237.943 121.055 238.399 118.814 237.304 117.546C236.986 117.214 236.585 116.973 236.144 116.847C235.702 116.721 235.235 116.714 234.789 116.827C233.902 117.014 233.09 117.495 232.275 117.905C231.174 118.461 230.02 118.906 228.83 119.234C227.832 119.507 226.675 120.161 226.334 118.832C225.81 116.881 226.298 113.893 227.447 112.312Z" fill="#865A61"/>
<path opacity="0.1" d="M253.231 155.972C253.231 155.972 257.045 165.699 254.182 169.704L247.889 168.267C247.889 168.267 253.611 169.984 252.753 166.55C251.894 163.116 253.231 155.972 253.231 155.972Z" fill="black"/>
<path opacity="0.1" d="M255.314 180.006C255.314 180.006 247.016 180.577 244.728 178.86C247.741 181.16 251.299 182.639 255.055 183.152L255.314 180.006Z" fill="black"/>
<path opacity="0.1" d="M219.571 161.687C219.571 161.687 215.278 174.847 215.566 176.848C215.853 178.849 216.424 200.878 216.424 200.878L217.282 200.591L216.995 176.561L219.571 161.687Z" fill="black"/>
<path d="M256.323 177.771L158.264 98.7492C157.693 98.1787 157.015 97.7264 156.27 97.4182C155.524 97.11 154.724 96.952 153.918 96.9532H149.751C158.077 86.283 162.02 72.8386 160.776 59.3614C159.532 45.8842 153.193 33.3891 143.054 24.4239C132.915 15.4586 119.738 10.6983 106.209 11.1137C92.6812 11.529 79.8209 17.0886 70.2505 26.659C60.6802 36.2293 55.1205 49.0896 54.7052 62.6178C54.2899 76.1459 59.0502 89.3231 68.0155 99.4625C76.9807 109.602 89.4758 115.94 102.953 117.184C116.43 118.429 129.875 114.486 140.545 106.159V110.322C140.544 111.129 140.702 111.929 141.01 112.674C141.318 113.42 141.77 114.098 142.341 114.669L240.4 193.691C240.968 194.263 241.643 194.717 242.387 195.027C243.131 195.337 243.93 195.497 244.736 195.497C245.542 195.497 246.34 195.337 247.084 195.027C247.828 194.717 248.503 194.263 249.071 193.691L256.298 186.471C257.451 185.319 258.101 183.757 258.106 182.126C258.111 180.496 257.47 178.93 256.323 177.771V177.771ZM107.808 96.9532C101.333 96.9532 95.004 95.0332 89.6205 91.4361C84.2369 87.8389 80.041 82.7261 77.5632 76.7443C75.0854 70.7624 74.4371 64.1801 75.7003 57.8298C76.9634 51.4795 80.0813 45.6464 84.6596 41.0681C89.238 36.4897 95.0711 33.3719 101.421 32.1087C107.772 30.8455 114.354 31.4938 120.336 33.9716C126.318 36.4494 131.431 40.6453 135.028 46.0289C138.625 51.4124 140.545 57.7417 140.545 64.2164C140.548 68.5168 139.704 72.7756 138.06 76.7493C136.416 80.723 134.005 84.3336 130.964 87.3748C127.924 90.4159 124.314 92.8278 120.34 94.4726C116.367 96.1174 112.108 96.9628 107.808 96.9604V96.9532Z" fill="url(#paint2_linear)"/>
<path d="M257.041 177.053L158.982 98.0308C158.411 97.4603 157.734 97.008 156.988 96.6998C156.242 96.3917 155.443 96.2336 154.636 96.2348H150.469C158.796 85.5646 162.739 72.1202 161.494 58.643C160.25 45.1658 153.912 32.6707 143.772 23.7055C133.633 14.7402 120.456 9.97995 106.928 10.3953C93.3995 10.8106 80.5391 16.3702 70.9688 25.9406C61.3984 35.5109 55.8388 48.3713 55.4235 61.8994C55.0082 75.4276 59.7685 88.6047 68.7337 98.7441C77.699 108.884 90.1941 115.222 103.671 116.466C117.148 117.71 130.593 113.767 141.263 105.441V109.604C141.262 110.411 141.42 111.21 141.728 111.956C142.036 112.702 142.489 113.379 143.059 113.95L241.118 192.972C241.686 193.545 242.362 193.999 243.106 194.309C243.85 194.619 244.648 194.779 245.454 194.779C246.26 194.779 247.058 194.619 247.802 194.309C248.546 193.999 249.222 193.545 249.789 192.972L257.016 185.753C258.169 184.6 258.819 183.038 258.824 181.408C258.829 179.778 258.188 178.212 257.041 177.053V177.053ZM108.526 96.2348C102.052 96.2348 95.7223 94.3149 90.3387 90.7177C84.9552 87.1205 80.7592 82.0077 78.2815 76.0259C75.8037 70.044 75.1554 63.4617 76.4186 57.1114C77.6817 50.7611 80.7996 44.928 85.3779 40.3497C89.9562 35.7714 95.7894 32.6535 102.14 31.3903C108.49 30.1272 115.072 30.7755 121.054 33.2532C127.036 35.731 132.149 39.927 135.746 45.3105C139.343 50.694 141.263 57.0233 141.263 63.4981C141.266 67.7984 140.422 72.0572 138.778 76.0309C137.134 80.0046 134.723 83.6153 131.683 86.6564C128.642 89.6975 125.032 92.1094 121.059 93.7542C117.085 95.399 112.827 96.2444 108.526 96.242V96.2348Z" fill="#454545"/>
<path d="M88.9658 76.4816H94.1285V78.8263H86V66.1824H88.9658V76.4816Z" fill="#454545"/>
<path d="M105.257 72.7649C105.257 73.998 105.034 75.0893 104.589 76.0387C104.144 76.9882 103.51 77.7206 102.688 78.2358C101.871 78.7453 100.939 79 99.8911 79C98.8434 79 97.9139 78.754 97.1028 78.2619C96.2916 77.764 95.6579 77.0548 95.2016 76.1343C94.751 75.2138 94.5144 74.1572 94.4918 72.9646V72.2525C94.4918 71.0136 94.7115 69.9223 95.1509 68.9786C95.5959 68.0292 96.2296 67.2968 97.0521 66.7816C97.8801 66.2663 98.8209 66.0087 99.8742 66.0087C100.916 66.0087 101.846 66.2634 102.663 66.7729C103.479 67.2823 104.113 68.0089 104.564 68.9526C105.02 69.8904 105.251 70.9673 105.257 72.183V72.7649ZM102.24 72.2351C102.24 70.9788 102.035 70.0265 101.623 69.3781C101.218 68.7239 100.635 68.3968 99.8742 68.3968C98.3871 68.3968 97.6013 69.5431 97.5168 71.8357L97.5084 72.7649C97.5084 74.0038 97.7083 74.9561 98.1083 75.6219C98.5082 76.2877 99.1025 76.6206 99.8911 76.6206C100.64 76.6206 101.218 76.2935 101.623 75.6393C102.029 74.9851 102.234 74.0443 102.24 72.817V72.2351Z" fill="#454545"/>
<path d="M116.858 77.2632C116.402 77.7842 115.734 78.204 114.855 78.5224C113.977 78.8408 113.013 79 111.966 79C110.355 79 109.067 78.4934 108.104 77.4803C107.141 76.4672 106.625 75.0574 106.558 73.2512L106.549 72.157C106.549 70.9123 106.763 69.8268 107.192 68.9005C107.62 67.9684 108.231 67.2534 109.025 66.7555C109.825 66.2518 110.749 66 111.797 66C113.329 66 114.517 66.3618 115.362 67.0855C116.213 67.8034 116.709 68.8773 116.849 70.3073H113.994C113.892 69.601 113.672 69.0973 113.334 68.7963C112.996 68.4952 112.518 68.3447 111.898 68.3447C111.154 68.3447 110.58 68.6689 110.174 69.3173C109.769 69.9657 109.563 70.892 109.557 72.0962V72.8604C109.557 74.1225 109.766 75.0719 110.183 75.7088C110.605 76.3398 111.267 76.6553 112.168 76.6553C112.94 76.6553 113.515 76.4787 113.892 76.1256V74.163H111.83V72.0701H116.858V77.2632Z" fill="#454545"/>
<path d="M129 72.7649C129 73.998 128.777 75.0893 128.332 76.0387C127.887 76.9882 127.254 77.7206 126.431 78.2358C125.615 78.7453 124.682 79 123.635 79C122.587 79 121.657 78.754 120.846 78.2619C120.035 77.764 119.401 77.0548 118.945 76.1343C118.494 75.2138 118.258 74.1572 118.235 72.9646V72.2525C118.235 71.0136 118.455 69.9223 118.894 68.9786C119.339 68.0292 119.973 67.2968 120.795 66.7816C121.623 66.2663 122.564 66.0087 123.618 66.0087C124.66 66.0087 125.589 66.2634 126.406 66.7729C127.223 67.2823 127.856 68.0089 128.307 68.9526C128.763 69.8904 128.994 70.9673 129 72.183V72.7649ZM125.983 72.2351C125.983 70.9788 125.778 70.0265 125.367 69.3781C124.961 68.7239 124.378 68.3968 123.618 68.3968C122.13 68.3968 121.345 69.5431 121.26 71.8357L121.252 72.7649C121.252 74.0038 121.452 74.9561 121.852 75.6219C122.252 76.2877 122.846 76.6206 123.635 76.6206C124.384 76.6206 124.961 76.2935 125.367 75.6393C125.772 74.9851 125.978 74.0443 125.983 72.817V72.2351Z" fill="#454545"/>
<circle cx="107.5" cy="51.5" r="11.5" fill="#EC0039"/>
<path d="M103 51.5L106 54L112 49" stroke="white" stroke-width="2"/>
<path d="M249.75 169.848C249.75 169.848 235.436 153.432 237.448 164.697C238.884 172.707 244.312 176.999 246.887 177.858C249.463 178.716 249.75 169.848 249.75 169.848Z" fill="#FDC2CC"/>
<path d="M253.184 154.686C253.184 154.686 253.471 165.272 254.901 166.701C256.33 168.131 254.042 169.848 254.042 169.848L248.321 168.411C248.321 168.411 249.757 177.851 243.744 176.708C243.744 176.708 247.749 180.426 251.754 181.001C255.759 181.575 255.472 180.142 255.472 180.142L261.478 172.991L253.184 154.686Z" fill="#D6DBE6"/>
<path d="M254.768 180.297L260.572 179.021L259.796 176.345L256.204 174.909L251.535 177.064L254.768 180.297Z" fill="#D6DBE6"/>
<rect x="88.9052" y="135.113" width="52" height="21" rx="4.5" transform="rotate(-3.51395 88.9052 135.113)" stroke="#DFDDE7"/>
</g>
<defs>
<linearGradient id="paint0_linear" x1="184.725" y1="285.414" x2="184.725" y2="14.1126" gradientUnits="userSpaceOnUse">
<stop stop-color="#808080" stop-opacity="0.25"/>
<stop offset="0.54" stop-color="#808080" stop-opacity="0.12"/>
<stop offset="1" stop-color="#808080" stop-opacity="0.1"/>
</linearGradient>
<linearGradient id="paint1_linear" x1="-62808" y1="169417" x2="-62808" y2="63501.3" gradientUnits="userSpaceOnUse">
<stop stop-color="#808080" stop-opacity="0.25"/>
<stop offset="0.54" stop-color="#808080" stop-opacity="0.12"/>
<stop offset="1" stop-color="#808080" stop-opacity="0.1"/>
</linearGradient>
<linearGradient id="paint2_linear" x1="97395.9" y1="104783" x2="97395.9" y2="10074.3" gradientUnits="userSpaceOnUse">
<stop stop-color="#808080" stop-opacity="0.25"/>
<stop offset="0.54" stop-color="#808080" stop-opacity="0.12"/>
<stop offset="1" stop-color="#808080" stop-opacity="0.1"/>
</linearGradient>
<clipPath id="clip0">
<rect width="400" height="303.208" fill="white"/>
</clipPath>
</defs>
</svg>
