<svg width="580" height="545" viewBox="0 0 580 545" fill="none" xmlns="http://www.w3.org/2000/svg">
<path d="M445.711 239C373.968 280.421 257.648 280.421 185.904 239C114.16 197.579 114.16 130.421 185.904 89C257.648 47.5786 373.968 47.5786 445.711 89C517.455 130.421 517.455 197.579 445.711 239ZM301.06 155.485C292.915 160.188 292.915 167.812 301.06 172.515C309.205 177.217 322.41 177.217 330.555 172.515C338.701 167.812 338.701 160.188 330.555 155.485C322.41 150.783 309.205 150.783 301.06 155.485Z" fill="#313131"/>
<path d="M132 150.5L132 163L135.5 157.5L132 150.5Z" fill="#313131"/>
<path d="M445.711 239C464.001 228.441 478.222 215.771 487.444 201.819C496.667 187.867 500.683 172.948 499.229 158.039C497.775 143.129 490.885 128.565 479.009 115.299C467.133 102.033 450.538 90.3643 430.312 81.0567C410.085 71.7491 386.683 65.0123 361.635 61.2871C336.588 57.562 310.461 56.9324 284.963 59.4397C259.465 61.9469 235.171 67.5345 213.672 75.8367C192.173 84.1389 173.952 94.9686 160.203 107.617L298.102 157.584C299.666 156.145 301.74 154.913 304.186 153.968C306.632 153.023 309.397 152.388 312.298 152.102C315.199 151.817 318.172 151.889 321.022 152.313C323.872 152.736 326.535 153.503 328.837 154.562C331.138 155.621 333.026 156.949 334.378 158.458C335.729 159.968 336.513 161.625 336.679 163.322C336.844 165.018 336.387 166.716 335.338 168.303C334.288 169.891 332.67 171.333 330.589 172.534L445.711 239Z" fill="#2B70AD"/>
<path d="M499.5 150L499.5 163L496.5 163.5L499.5 150Z" fill="#0079A2"/>
<path d="M445.711 239C470.286 224.812 487.386 206.89 495.026 187.316L336.227 166.657C335.357 168.887 333.409 170.929 330.609 172.545L445.711 239Z" fill="#AA132C"/>
<path d="M495 173.5L495 187.5L487.5 192L482 183L495 173.5Z" fill="#AA132C"/>
<path d="M445.5 225L445.5 239L434 243.5L425.5 235L445.5 225Z" fill="#313131"/>
<path d="M445.711 225C373.968 266.421 257.648 266.421 185.904 225C114.16 183.579 114.16 116.421 185.904 75C257.648 33.5786 373.968 33.5786 445.711 75C517.455 116.421 517.455 183.579 445.711 225ZM301.06 141.485C292.915 146.188 292.915 153.812 301.06 158.515C309.205 163.217 322.41 163.217 330.555 158.515C338.701 153.812 338.701 146.188 330.555 141.485C322.41 136.783 309.205 136.783 301.06 141.485Z" fill="#454545"/>
<path d="M445.711 225C464.001 214.441 478.222 201.771 487.444 187.819C496.667 173.867 500.683 158.948 499.229 144.039C497.775 129.129 490.885 114.565 479.009 101.299C467.133 88.0329 450.538 76.3643 430.312 67.0567C410.085 57.7491 386.683 51.0123 361.635 47.2871C336.588 43.562 310.461 42.9324 284.963 45.4397C259.465 47.9469 235.171 53.5345 213.672 61.8367C192.173 70.1389 173.952 80.9686 160.203 93.6172L298.102 143.584C299.666 142.145 301.74 140.913 304.186 139.968C306.632 139.023 309.397 138.388 312.298 138.102C315.199 137.817 318.172 137.889 321.022 138.313C323.872 138.736 326.535 139.503 328.837 140.562C331.138 141.621 333.026 142.949 334.378 144.458C335.729 145.968 336.513 147.625 336.679 149.322C336.844 151.018 336.387 152.716 335.338 154.303C334.288 155.891 332.67 157.333 330.589 158.534L445.711 225Z" fill="#3692E4"/>
<path d="M445.711 225C470.286 210.812 487.386 192.89 495.026 173.316L336.227 152.657C335.357 154.887 333.409 156.929 330.609 158.545L445.711 225Z" fill="#EC0039"/>
<path opacity="0.3" d="M452 121L500 73" stroke="#152438" stroke-width="2"/>
<path opacity="0.3" d="M436 194L484 242" stroke="#152438" stroke-width="2"/>
<path opacity="0.3" d="M183 127L135 79" stroke="#152438" stroke-width="2"/>
<path d="M2 503L42 543" stroke="#FF1037" stroke-width="3"/>
</svg>
