<svg width="359" height="217" viewBox="0 0 359 217" fill="none" xmlns="http://www.w3.org/2000/svg">
<path d="M267.3 163.928C218.092 192.339 138.309 192.339 89.1003 163.928C39.8918 135.518 39.8918 89.4549 89.1003 61.0444C138.309 32.6338 218.092 32.6338 267.3 61.0444C316.509 89.4549 316.509 135.518 267.3 163.928ZM168.085 106.646C162.498 109.871 162.498 115.101 168.085 118.326C173.671 121.552 182.729 121.552 188.316 118.326C193.902 115.101 193.902 109.871 188.316 106.646C182.729 103.421 173.671 103.421 168.085 106.646Z" fill="#752D59"/>
<path d="M52.1277 103.227L52.1277 111.8L54.5283 108.028L52.1277 103.227Z" fill="#752D59"/>
<path d="M267.3 163.928C279.845 156.685 289.599 147.995 295.924 138.426C302.25 128.856 305.004 118.624 304.007 108.397C303.01 98.1711 298.284 88.1815 290.138 79.0825C281.993 69.9835 270.611 61.9801 256.738 55.5961C242.865 49.2121 226.813 44.5914 209.633 42.0364C192.453 39.4813 174.533 39.0495 157.044 40.7692C139.555 42.4889 122.892 46.3214 108.146 52.0158C93.4 57.7102 80.9027 65.1382 71.4721 73.8137L166.056 108.086C167.129 107.099 168.551 106.253 170.229 105.605C171.907 104.957 173.803 104.521 175.793 104.326C177.783 104.13 179.822 104.179 181.777 104.47C183.732 104.761 185.558 105.286 187.137 106.013C188.715 106.739 190.01 107.65 190.937 108.685C191.864 109.721 192.402 110.857 192.515 112.021C192.629 113.185 192.315 114.349 191.596 115.438C190.876 116.527 189.766 117.516 188.339 118.34L267.3 163.928Z" fill="#0079A3"/>
<path d="M304.193 102.884L304.193 111.8L302.135 112.143L304.193 102.884Z" fill="#0079A2"/>
<path d="M267.3 163.928C284.156 154.196 295.884 141.904 301.124 128.478L192.206 114.308C191.609 115.838 190.273 117.239 188.352 118.347L267.3 163.928Z" fill="#AA132C"/>
<path d="M301.106 119.002L301.106 128.605L295.962 131.691L292.19 125.518L301.106 119.002Z" fill="#AA132C"/>
<path d="M267.155 154.326L267.155 163.928L259.267 167.015L253.437 161.185L267.155 154.326Z" fill="#752D59"/>
<path d="M267.3 154.326C218.092 182.736 138.309 182.736 89.1003 154.326C39.8918 125.915 39.8918 79.8524 89.1003 51.4418C138.309 23.0313 218.092 23.0313 267.3 51.4418C316.509 79.8524 316.509 125.915 267.3 154.326ZM168.085 97.0435C162.498 100.269 162.498 105.498 168.085 108.724C173.671 111.949 182.729 111.949 188.316 108.724C193.902 105.498 193.902 100.269 188.316 97.0435C182.729 93.8181 173.671 93.8181 168.085 97.0435Z" fill="#9A4479"/>
<path d="M267.3 154.326C279.845 147.083 289.599 138.393 295.924 128.823C302.25 119.254 305.004 109.021 304.007 98.7949C303.01 88.5686 298.284 78.579 290.138 69.48C281.993 60.381 270.611 52.3776 256.738 45.9936C242.865 39.6096 226.813 34.9889 209.633 32.4338C192.453 29.8788 174.533 29.447 157.044 31.1667C139.555 32.8864 122.892 36.7188 108.146 42.4132C93.4 48.1077 80.9027 55.5357 71.4721 64.2112L166.056 98.4832C167.129 97.4961 168.551 96.6509 170.229 96.0029C171.907 95.3549 173.803 94.9189 175.793 94.7232C177.783 94.5275 179.822 94.5766 181.777 94.8674C183.732 95.1581 185.558 95.6839 187.137 96.4103C188.715 97.1367 190.01 98.0474 190.937 99.0828C191.864 100.118 192.402 101.255 192.515 102.418C192.629 103.582 192.315 104.746 191.596 105.835C190.876 106.924 189.766 107.913 188.339 108.737L267.3 154.326Z" fill="#00AFEC"/>
<path d="M267.3 154.326C284.156 144.594 295.884 132.302 301.124 118.876L192.206 104.706C191.609 106.236 190.273 107.636 188.352 108.745L267.3 154.326Z" fill="#FF1037"/>
<path opacity="0.3" d="M212 58L260 10" stroke="#152438" stroke-width="2"/>
<path opacity="0.3" d="M68.5 87L60 10" stroke="#152438" stroke-width="2"/>
<path opacity="0.3" d="M284.5 211L276 134" stroke="#152438" stroke-width="2"/>
</svg>
